<svg width="356" height="356" viewBox="0 0 356 356" fill="none" xmlns="http://www.w3.org/2000/svg">
<g clip-path="url(#clip0_676_13241)">
<path fill-rule="evenodd" clip-rule="evenodd" d="M240.897 103.858C240.048 109.106 243.167 114.735 248.067 116.797C250.476 117.812 253.143 118.01 255.664 118.703C258.185 119.396 260.758 120.791 261.734 123.217C261.712 120.055 259.496 115.61 256.811 113.942C254.125 112.274 251.029 111.413 248.138 110.132C245.247 108.852 242.401 106.978 241.101 104.095" fill="#E69BC8"/>
<path fill-rule="evenodd" clip-rule="evenodd" d="M269.195 130.751C270.716 127.39 274.424 124.773 277.719 123.117C281.015 121.46 284.549 119.485 285.896 116.052C287.349 118.382 286.452 122.962 284.308 124.677C282.165 126.392 279.361 126.98 276.68 127.57C273.999 128.161 271.197 128.872 269.195 130.751Z" fill="#E69BC8"/>
<path fill-rule="evenodd" clip-rule="evenodd" d="M264.101 149.746C263.947 149.746 263.817 149.629 263.803 149.473L258.4 88.0064C258.385 87.8419 258.507 87.6966 258.672 87.6823C258.836 87.668 258.981 87.7895 258.996 87.9541L264.399 149.421C264.414 149.585 264.292 149.73 264.127 149.745C264.118 149.746 264.11 149.746 264.101 149.746Z" fill="#21211D"/>
<path fill-rule="evenodd" clip-rule="evenodd" d="M266.378 146.28C266.359 146.28 266.341 146.278 266.322 146.275C266.16 146.244 266.053 146.087 266.083 145.925L273.357 107.314C273.388 107.152 273.545 107.046 273.706 107.076C273.869 107.106 273.976 107.263 273.945 107.425L266.671 146.036C266.644 146.18 266.519 146.28 266.378 146.28Z" fill="#21211D"/>
<mask id="mask0_676_13241" style="mask-type:alpha" maskUnits="userSpaceOnUse" x="249" y="79" width="19" height="18">
<path fill-rule="evenodd" clip-rule="evenodd" d="M249.773 79.0454H267.646V96.9179H249.773V79.0454Z" fill="white"/>
</mask>
<g mask="url(#mask0_676_13241)">
<path fill-rule="evenodd" clip-rule="evenodd" d="M267.646 87.9817C267.646 92.9172 263.645 96.918 258.71 96.918C253.774 96.918 249.773 92.9172 249.773 87.9817C249.773 83.0463 253.774 79.0454 258.71 79.0454C263.645 79.0454 267.646 83.0463 267.646 87.9817Z" fill="#EDC829"/>
</g>
<path fill-rule="evenodd" clip-rule="evenodd" d="M281.56 107.37C281.56 111.729 278.026 115.263 273.667 115.263C269.307 115.263 265.773 111.729 265.773 107.37C265.773 103.01 269.307 99.4766 273.667 99.4766C278.026 99.4766 281.56 103.01 281.56 107.37Z" fill="#EDC829"/>
<path fill-rule="evenodd" clip-rule="evenodd" d="M273.658 136.836H254.539L259.007 177.551H269.19L273.658 136.836Z" fill="#7D55A2"/>
<mask id="mask1_676_13241" style="mask-type:alpha" maskUnits="userSpaceOnUse" x="254" y="136" width="20" height="42">
<path fill-rule="evenodd" clip-rule="evenodd" d="M254.555 136.838L259.023 177.553H269.206L273.674 136.838H254.555Z" fill="white"/>
</mask>
<g mask="url(#mask1_676_13241)">
<path fill-rule="evenodd" clip-rule="evenodd" d="M256.943 144.764C255.781 144.764 254.603 145.089 253.636 145.729C251.994 146.816 251.221 148.594 251.46 150.734C251.831 154.057 254.369 155.459 256.727 155.374C259.179 155.285 261.882 153.598 262.018 150.103C262.1 147.997 261.267 146.342 259.672 145.444C258.862 144.989 257.909 144.764 256.943 144.764ZM256.522 156.122C253.891 156.122 251.132 154.506 250.72 150.816C250.448 148.384 251.338 146.357 253.225 145.108C255.218 143.789 258.019 143.66 260.037 144.795C261.888 145.837 262.856 147.732 262.762 150.133C262.614 153.925 259.627 156.014 256.753 156.118C256.677 156.121 256.599 156.122 256.522 156.122Z" fill="white"/>
</g>
<mask id="mask2_676_13241" style="mask-type:alpha" maskUnits="userSpaceOnUse" x="254" y="136" width="20" height="42">
<path fill-rule="evenodd" clip-rule="evenodd" d="M254.555 136.838L259.023 177.553H269.206L273.674 136.838" fill="white"/>
</mask>
<g mask="url(#mask2_676_13241)">
<path fill-rule="evenodd" clip-rule="evenodd" d="M272.502 149.282C271.159 149.282 269.727 148.816 268.875 147.653C268.287 146.85 268.08 145.81 268.292 144.723C268.54 143.453 269.319 142.305 270.377 141.652C272.107 140.584 274.571 140.574 276.808 141.624C276.994 141.712 277.074 141.934 276.986 142.12C276.899 142.306 276.677 142.386 276.491 142.298C274.914 141.558 272.583 141.166 270.768 142.286C269.897 142.823 269.229 143.812 269.023 144.866C268.851 145.746 269.012 146.579 269.476 147.213C270.396 148.469 272.188 148.727 273.555 148.425C275.113 148.082 276.533 147.106 277.785 146.245C277.955 146.128 278.187 146.171 278.303 146.341C278.419 146.51 278.377 146.742 278.207 146.859C276.899 147.758 275.416 148.777 273.716 149.152C273.334 149.237 272.922 149.282 272.502 149.282Z" fill="white"/>
</g>
<mask id="mask3_676_13241" style="mask-type:alpha" maskUnits="userSpaceOnUse" x="254" y="136" width="20" height="42">
<path fill-rule="evenodd" clip-rule="evenodd" d="M254.555 136.838L259.023 177.553H269.206L273.674 136.838" fill="white"/>
</mask>
<g mask="url(#mask3_676_13241)">
<path fill-rule="evenodd" clip-rule="evenodd" d="M268.549 173.161C266.738 173.161 265.037 172.487 263.987 171.273C263.089 170.235 262.576 168.778 262.461 166.941C262.317 164.618 262.83 162.389 263.907 160.664C265.141 158.689 267.138 157.352 269.25 157.088C271.544 156.8 273.926 157.896 275.041 159.754C275.147 159.93 275.089 160.159 274.913 160.265C274.737 160.371 274.508 160.313 274.402 160.137C273.435 158.525 271.354 157.574 269.342 157.826C267.451 158.064 265.655 159.272 264.539 161.059C263.544 162.653 263.07 164.725 263.205 166.894C263.309 168.565 263.762 169.874 264.55 170.786C265.98 172.438 268.464 172.679 270.292 172.184C272.487 171.59 274.341 170.049 275.711 168.772C275.861 168.632 276.097 168.641 276.237 168.791C276.377 168.941 276.369 169.177 276.219 169.317C274.786 170.652 272.84 172.266 270.486 172.903C269.843 173.077 269.189 173.161 268.549 173.161Z" fill="white"/>
</g>
<mask id="mask4_676_13241" style="mask-type:alpha" maskUnits="userSpaceOnUse" x="254" y="136" width="20" height="42">
<path fill-rule="evenodd" clip-rule="evenodd" d="M254.555 136.838L259.023 177.553H269.206L273.674 136.838" fill="white"/>
</mask>
<g mask="url(#mask4_676_13241)">
<path fill-rule="evenodd" clip-rule="evenodd" d="M256.764 170.981C256.319 170.981 255.862 170.919 255.407 170.794C255.208 170.739 255.092 170.534 255.146 170.336C255.201 170.138 255.406 170.021 255.604 170.076C256.555 170.337 257.544 170.271 258.318 169.894C259.728 169.208 260.447 167.347 259.856 165.912C259.308 164.581 257.692 163.8 256.316 164.133C256.367 164.32 256.265 164.516 256.08 164.581C255.886 164.65 255.674 164.548 255.605 164.353L255.488 164.018C255.422 163.829 255.516 163.622 255.702 163.549C257.529 162.826 259.792 163.798 260.545 165.629C261.29 167.44 260.42 169.7 258.644 170.564C258.075 170.841 257.433 170.981 256.764 170.981Z" fill="white"/>
</g>
<mask id="mask5_676_13241" style="mask-type:alpha" maskUnits="userSpaceOnUse" x="254" y="136" width="20" height="42">
<path fill-rule="evenodd" clip-rule="evenodd" d="M254.555 136.838L259.023 177.553H269.206L273.674 136.838" fill="white"/>
</mask>
<g mask="url(#mask5_676_13241)">
<path fill-rule="evenodd" clip-rule="evenodd" d="M260.671 142.171C260.55 142.171 260.428 142.163 260.303 142.147C258.678 141.933 257.65 140.336 257.475 138.869C257.297 137.379 257.783 135.921 258.212 134.634C258.277 134.439 258.488 134.333 258.683 134.398C258.878 134.463 258.983 134.674 258.918 134.869C258.514 136.082 258.057 137.457 258.215 138.781C258.352 139.934 259.165 141.246 260.4 141.409C261.715 141.582 262.861 140.436 263.426 139.738C265.228 137.511 266.104 134.484 265.769 131.64C265.745 131.436 265.891 131.251 266.095 131.227C266.299 131.203 266.484 131.349 266.508 131.553C266.872 134.638 265.959 137.792 264.005 140.206C263.391 140.965 262.177 142.171 260.671 142.171Z" fill="white"/>
</g>
<mask id="mask6_676_13241" style="mask-type:alpha" maskUnits="userSpaceOnUse" x="254" y="136" width="20" height="42">
<path fill-rule="evenodd" clip-rule="evenodd" d="M254.555 136.838L259.023 177.553H269.206L273.674 136.838" fill="#3D3D44"/>
</mask>
<g mask="url(#mask6_676_13241)">
<path fill-rule="evenodd" clip-rule="evenodd" d="M268.456 182.05C268.277 182.05 268.119 181.92 268.089 181.737C267.752 179.662 266.514 177.716 264.778 176.532C263.546 175.692 261.751 175.349 260.852 176.368C260.13 177.187 260.29 178.502 260.497 179.669C260.533 179.872 260.398 180.065 260.195 180.101C259.993 180.136 259.8 180.002 259.764 179.799C259.592 178.832 259.273 177.032 260.294 175.875C261.198 174.851 263.173 174.536 265.197 175.917C267.099 177.214 268.455 179.345 268.824 181.618C268.857 181.821 268.719 182.012 268.516 182.045C268.496 182.048 268.476 182.05 268.456 182.05Z" fill="white"/>
</g>
<mask id="mask7_676_13241" style="mask-type:alpha" maskUnits="userSpaceOnUse" x="249" y="79" width="19" height="18">
<path fill-rule="evenodd" clip-rule="evenodd" d="M258.686 79.0425C253.751 79.0425 249.75 83.0433 249.75 87.9786C249.75 92.914 253.751 96.9151 258.686 96.9151C263.622 96.9151 267.623 92.914 267.623 87.9786" fill="white"/>
</mask>
<g mask="url(#mask7_676_13241)">
<path fill-rule="evenodd" clip-rule="evenodd" d="M262.479 85.4732C262.11 86.2644 261.891 87.1266 261.851 88.0067C261.833 88.3863 261.914 88.8584 262.198 88.9403C262.285 88.9649 262.366 88.953 262.456 88.9025C262.655 88.7899 262.845 88.5067 262.928 88.1979C263.175 87.2787 262.999 86.2658 262.479 85.4732ZM255.709 87.4385C255.414 88.2893 255.245 89.2244 255.103 90.302C255.036 90.8106 255.086 91.4669 255.35 91.7863C255.445 91.9008 255.556 91.958 255.7 91.9662C256.032 91.9867 256.329 91.6389 256.441 91.489C257.204 90.4604 257.127 88.8506 256.267 87.9003C256.105 87.7205 255.916 87.5662 255.709 87.4385ZM250.385 92.8257C250.379 92.8257 250.373 92.8256 250.367 92.8252C250.202 92.8151 250.076 92.6733 250.087 92.5083C250.226 90.2078 250.604 87.9305 252.407 86.8541C253.299 86.3216 254.423 86.2626 255.389 86.618C255.448 86.4838 255.511 86.351 255.578 86.2203C256.305 84.8041 257.463 83.8103 258.755 83.4936C260.017 83.185 261.413 83.5497 262.369 84.4251C262.852 83.6498 263.477 82.9625 264.217 82.4133C265.972 81.1114 268.285 80.6547 270.404 81.1922C270.564 81.2328 270.661 81.3955 270.62 81.5558C270.58 81.7157 270.418 81.8127 270.256 81.7721C268.31 81.2787 266.186 81.6982 264.574 82.894C263.85 83.4311 263.245 84.1125 262.791 84.8819C263.545 85.847 263.825 87.1666 263.506 88.3533C263.407 88.7201 263.157 89.1939 262.75 89.4236C262.521 89.5528 262.273 89.5847 262.033 89.5154C261.507 89.3642 261.215 88.7899 261.253 87.9791C261.302 86.9239 261.586 85.8927 262.064 84.9618C261.253 84.1497 260.014 83.8016 258.898 84.0749C257.774 84.3502 256.758 85.2317 256.111 86.4934C256.047 86.6178 255.987 86.7438 255.931 86.8714C256.22 87.0387 256.485 87.2484 256.711 87.499C257.77 88.6692 257.862 90.5786 256.921 91.8457C256.558 92.3342 256.112 92.5899 255.666 92.5636C255.357 92.5459 255.089 92.4091 254.889 92.1678C254.485 91.6785 254.428 90.8426 254.51 90.2236C254.643 89.2149 254.818 88.166 255.168 87.1789C254.368 86.8919 253.435 86.9375 252.714 87.3679C251.15 88.3019 250.814 90.4079 250.684 92.5446C250.674 92.7034 250.542 92.8257 250.385 92.8257Z" fill="#21211D"/>
</g>
<mask id="mask8_676_13241" style="mask-type:alpha" maskUnits="userSpaceOnUse" x="265" y="99" width="17" height="17">
<path fill-rule="evenodd" clip-rule="evenodd" d="M265.766 107.369C265.766 111.728 269.3 115.263 273.659 115.263C278.018 115.263 281.552 111.728 281.552 107.369C281.552 103.01 278.018 99.4761 273.659 99.4761C269.3 99.4761 265.766 103.01 265.766 107.369Z" fill="white"/>
</mask>
<g mask="url(#mask8_676_13241)">
<path fill-rule="evenodd" clip-rule="evenodd" d="M283.95 112.774C283.786 112.774 283.652 112.641 283.651 112.477C283.644 110.895 282.549 109.386 281.048 108.888C279.546 108.391 277.767 108.948 276.817 110.213C276.734 110.323 276.586 110.362 276.459 110.307C276.332 110.252 276.259 110.117 276.283 109.981C276.546 108.499 276.744 106.426 275.431 105.536C274.391 104.831 272.892 105.32 272.044 106.201C271.109 107.172 270.679 108.564 270.299 109.792C270.256 109.931 270.119 110.019 269.974 110C269.829 109.98 269.719 109.859 269.714 109.713C269.668 108.262 269.186 107.003 268.358 106.169C267.429 105.233 265.986 104.901 264.927 105.38C264.357 105.637 263.895 106.175 263.691 106.818C263.512 107.381 263.557 107.936 263.819 108.38C263.903 108.523 263.855 108.706 263.713 108.79C263.57 108.873 263.387 108.826 263.303 108.683C262.954 108.091 262.889 107.364 263.12 106.637C263.375 105.834 263.959 105.161 264.681 104.834C265.98 104.248 267.667 104.623 268.783 105.747C269.444 106.414 269.909 107.31 270.143 108.344C270.475 107.429 270.909 106.517 271.613 105.786C272.633 104.726 274.465 104.158 275.767 105.041C277.082 105.933 277.179 107.653 277.011 109.151C278.162 108.198 279.807 107.847 281.236 108.32C282.974 108.896 284.241 110.643 284.249 112.474C284.25 112.639 284.117 112.774 283.951 112.774H283.95Z" fill="#21211D"/>
</g>
<mask id="mask9_676_13241" style="mask-type:alpha" maskUnits="userSpaceOnUse" x="217" y="183" width="93" height="106">
<path fill-rule="evenodd" clip-rule="evenodd" d="M217.094 183.652H309.13V288.389H217.094V183.652Z" fill="white"/>
</mask>
<g mask="url(#mask9_676_13241)">
<path fill-rule="evenodd" clip-rule="evenodd" d="M217.393 288.389C217.369 288.389 217.344 288.386 217.32 288.38C217.16 288.341 217.063 288.179 217.102 288.019L242.487 184.877C242.487 184.872 242.489 184.866 242.491 184.861C242.718 184.138 243.381 183.652 244.137 183.652H283.123C285.385 183.652 287.394 185.173 288.006 187.352C288.008 187.357 288.01 187.365 288.012 187.37L309.122 288.028C309.156 288.19 309.053 288.349 308.891 288.382C308.729 288.417 308.571 288.313 308.536 288.151L287.429 187.502C286.884 185.589 285.115 184.252 283.123 184.252H244.137C243.645 184.252 243.217 184.565 243.064 185.03L217.683 288.162C217.65 288.298 217.527 288.389 217.393 288.389Z" fill="#21211D"/>
</g>
<mask id="mask10_676_13241" style="mask-type:alpha" maskUnits="userSpaceOnUse" x="220" y="177" width="87" height="15">
<path fill-rule="evenodd" clip-rule="evenodd" d="M220.75 177.506H306.043V191.235H220.75V177.506Z" fill="white"/>
</mask>
<g mask="url(#mask10_676_13241)">
<path fill-rule="evenodd" clip-rule="evenodd" d="M306.043 191.235H220.75V190.211C220.75 183.194 226.438 177.506 233.453 177.506H293.339C300.356 177.506 306.043 183.194 306.043 190.211V191.235Z" fill="#948976"/>
</g>
<path fill-rule="evenodd" clip-rule="evenodd" d="M304.396 184.324H223.271C223.066 184.324 222.898 184.156 222.898 183.951C222.898 183.747 223.066 183.579 223.271 183.579H304.396C304.602 183.579 304.768 183.747 304.768 183.951C304.768 184.156 304.602 184.324 304.396 184.324Z" fill="white"/>
</g>
<defs>
<clipPath id="clip0_676_13241">
<rect width="356" height="356" fill="white"/>
</clipPath>
</defs>
</svg>
