<svg width="356" height="356" viewBox="0 0 356 356" fill="none" xmlns="http://www.w3.org/2000/svg">
<path d="M108.926 186.981H66.9609V192.227H108.926V186.981Z" fill="#72222B"/>
<path fill-rule="evenodd" clip-rule="evenodd" d="M109.814 296.289L90.6268 213.017L93.518 292.914L62.4297 292.782L66.9531 191.518H108.825L139.555 288.148L109.814 296.289Z" fill="#70D2FF"/>
<path fill-rule="evenodd" clip-rule="evenodd" d="M93.5584 292.833C93.5584 290.123 86.5575 287.945 78.0054 287.945C69.4535 287.945 62.5 290.143 62.5 292.853C62.5 295.564 69.4535 297.761 78.0054 297.761C86.5575 297.761 93.5584 295.544 93.5584 292.833Z" fill="#363636"/>
<path fill-rule="evenodd" clip-rule="evenodd" d="M133.687 294.712C131.523 295.78 128.887 296.721 125.958 297.363C123.046 298.002 120.269 298.339 117.858 298.392C113.355 298.497 110.141 297.617 109.762 295.892C109.373 294.12 112.207 291.646 116.631 289.656C118.813 288.675 121.382 287.811 124.142 287.205C126.149 286.765 128.055 286.466 129.8 286.3C135.327 285.778 139.256 286.609 139.698 288.619C140.075 290.34 137.69 292.74 133.687 294.712Z" fill="#363636"/>
<mask id="mask0_676_12504" style="mask-type:alpha" maskUnits="userSpaceOnUse" x="70" y="287" width="35" height="26">
<path fill-rule="evenodd" clip-rule="evenodd" d="M70.5078 287.945H104.768V312.735H70.5078V287.945Z" fill="white"/>
</mask>
<g mask="url(#mask0_676_12504)">
<path fill-rule="evenodd" clip-rule="evenodd" d="M104.768 312.735H70.5078V288.557C72.73 288.166 75.2859 287.945 78.0017 287.945C80.3573 287.945 82.5948 288.111 84.5998 288.407C85.2192 290.928 86.2368 293.909 87.9025 296.625C89.2596 298.837 91.0454 300.875 93.3973 302.344C102.904 308.287 104.768 312.735 104.768 312.735Z" fill="#FFA4EA"/>
</g>
<mask id="mask1_676_12504" style="mask-type:alpha" maskUnits="userSpaceOnUse" x="116" y="286" width="37" height="27">
<path fill-rule="evenodd" clip-rule="evenodd" d="M116.625 286.301H152.985V312.735H116.625V286.301Z" fill="white"/>
</mask>
<g mask="url(#mask1_676_12504)">
<path fill-rule="evenodd" clip-rule="evenodd" d="M152.985 312.735H119.869L117.852 298.393L116.625 289.657C118.807 288.675 121.376 287.812 124.136 287.206C126.143 286.766 128.049 286.467 129.795 286.301C130.551 288.63 131.788 291.727 133.681 294.713C135.532 297.639 138.018 300.459 141.298 302.344C151.639 308.287 152.985 312.735 152.985 312.735Z" fill="#FFA4EA"/>
</g>
<path d="M90.3238 191.357C90.4229 191.353 90.5071 191.425 90.52 191.521L90.5215 191.54L90.8419 199.911C90.9104 201.526 89.6198 202.874 88.0032 202.874C87.8978 202.874 87.8125 202.789 87.8125 202.683C87.8125 202.578 87.8978 202.493 88.0032 202.493C89.3875 202.493 90.4957 201.352 90.4625 199.972L90.461 199.926L90.1406 191.554C90.1366 191.449 90.2186 191.361 90.3238 191.357Z" fill="#363636"/>
<path d="M101.461 191.371C101.558 191.331 101.67 191.377 101.71 191.474C102.268 192.812 103.115 193.982 104.309 194.874C105.806 195.992 107.768 196.608 110.261 196.608C110.366 196.608 110.451 196.693 110.451 196.798C110.451 196.904 110.366 196.989 110.261 196.989C107.688 196.989 105.646 196.348 104.081 195.179C102.828 194.244 101.941 193.018 101.358 191.62C101.318 191.523 101.364 191.412 101.461 191.371Z" fill="#363636"/>
<path d="M75.5391 191.474C75.5793 191.377 75.6909 191.331 75.788 191.371C75.8853 191.411 75.9315 191.523 75.8912 191.62C75.3135 193.014 74.4283 194.239 73.1754 195.175C71.6077 196.346 69.5573 196.989 66.9719 196.989C66.8666 196.989 66.7812 196.904 66.7812 196.798C66.7812 196.693 66.8666 196.608 66.9719 196.608C69.4772 196.608 71.4473 195.99 72.9472 194.869C74.1412 193.977 74.9862 192.808 75.5391 191.474Z" fill="#363636"/>
<path d="M92.9072 213.058C93.0125 213.058 93.0979 213.143 93.0979 213.248C93.0979 213.347 93.0223 213.429 92.9256 213.438L92.9072 213.439H88.753C88.6478 213.439 88.5625 213.354 88.5625 213.248C88.5625 213.149 88.6381 213.068 88.7348 213.059L88.753 213.058H92.9072Z" fill="#363636"/>
<path d="M91.3681 213.182C91.4634 213.157 91.5612 213.208 91.5954 213.299L91.6015 213.317L112.809 292.805C112.836 292.907 112.775 293.011 112.673 293.038C112.578 293.064 112.48 293.012 112.446 292.922L112.44 292.903L91.233 213.416C91.206 213.314 91.2663 213.209 91.3681 213.182Z" fill="#363636"/>
<path d="M68.9274 196.616C69.0263 196.62 69.1052 196.698 69.111 196.795L69.1111 196.814L65.795 290.95C65.7913 291.055 65.703 291.138 65.5978 291.134C65.4988 291.13 65.4202 291.052 65.4143 290.955L65.4141 290.937L68.7302 196.8C68.7339 196.695 68.8222 196.613 68.9274 196.616Z" fill="#363636"/>
<path d="M123.55 282.33C127.75 281.533 132.354 281.315 137.369 281.776C137.474 281.785 137.552 281.878 137.542 281.983C137.532 282.088 137.44 282.165 137.335 282.155C132.354 281.698 127.786 281.915 123.621 282.705C120.172 283.359 117.111 284.383 114.432 285.677C112.732 286.498 111.288 287.377 110.096 288.256C109.68 288.563 109.325 288.847 109.031 289.102L108.947 289.176C108.893 289.223 108.845 289.267 108.801 289.307L108.722 289.381C108.705 289.398 108.692 289.41 108.685 289.417C108.61 289.492 108.49 289.492 108.415 289.417C108.341 289.343 108.341 289.222 108.415 289.148L108.473 289.092L108.509 289.058C108.584 288.988 108.675 288.906 108.781 288.814C109.083 288.553 109.445 288.262 109.87 287.949C111.08 287.057 112.544 286.165 114.266 285.334C116.975 284.026 120.067 282.991 123.55 282.33Z" fill="#363636"/>
<path d="M77.8717 283.803C81.7982 283.817 85.5066 284.368 88.8855 285.275C90.085 285.598 91.1571 285.943 92.0876 286.289L92.2614 286.354C92.4877 286.44 92.6921 286.521 92.8742 286.596L93.0382 286.665L93.2397 286.752C93.3352 286.796 93.3772 286.91 93.3332 287.005C93.2893 287.101 93.1761 287.143 93.0804 287.099L93.0096 287.067L92.8889 287.015L92.7946 286.976C92.5567 286.876 92.2762 286.766 91.9548 286.646C91.0352 286.305 89.9743 285.963 88.7867 285.644C85.438 284.744 81.7619 284.199 77.8703 284.184C72.8752 284.166 67.8877 285.031 63.0185 286.955C62.9207 286.994 62.8099 286.946 62.7712 286.848C62.7325 286.75 62.7804 286.639 62.8784 286.6C67.7323 284.682 72.7025 283.807 77.6804 283.803L77.8717 283.803Z" fill="#363636"/>
<path fill-rule="evenodd" clip-rule="evenodd" d="M70.5625 310.748C70.5625 310.643 70.6478 310.558 70.7532 310.558H103.191C103.296 310.558 103.381 310.643 103.381 310.748C103.381 310.854 103.296 310.939 103.191 310.939H70.7532C70.6478 310.939 70.5625 310.854 70.5625 310.748Z" fill="#363636"/>
<path d="M151.408 310.438C151.513 310.438 151.598 310.523 151.598 310.628C151.598 310.727 151.523 310.809 151.427 310.818L151.408 310.819H119.714C119.609 310.819 119.523 310.733 119.523 310.628C119.523 310.529 119.599 310.448 119.696 310.438L119.714 310.438H151.408Z" fill="#363636"/>
<path d="M70.5644 305.39L70.6352 305.393L70.7443 305.401C70.7705 305.404 70.798 305.406 70.8268 305.409C71.0312 305.428 71.2586 305.457 71.5035 305.5C72.203 305.621 72.9028 305.819 73.5579 306.113C75.4476 306.962 76.5925 308.425 76.5925 310.628C76.5925 310.733 76.5073 310.818 76.4019 310.818C76.2966 310.818 76.2112 310.733 76.2112 310.628C76.2112 308.59 75.1647 307.253 73.4018 306.461C72.7785 306.181 72.1087 305.991 71.4385 305.875C71.2039 305.835 70.9861 305.806 70.7912 305.788L70.7135 305.781L70.5801 305.772C70.5668 305.771 70.5571 305.771 70.5513 305.771C70.446 305.767 70.3638 305.679 70.3673 305.574C70.371 305.468 70.4592 305.386 70.5644 305.39Z" fill="#363636"/>
<path d="M119.072 305.39L119.143 305.393L119.252 305.401C119.278 305.404 119.306 305.406 119.334 305.409C119.539 305.428 119.766 305.457 120.011 305.5C120.711 305.621 121.411 305.819 122.066 306.113C123.955 306.962 125.1 308.425 125.1 310.628C125.1 310.733 125.015 310.818 124.91 310.818C124.804 310.818 124.719 310.733 124.719 310.628C124.719 308.59 123.672 307.253 121.91 306.461C121.286 306.181 120.616 305.991 119.946 305.875C119.712 305.835 119.494 305.806 119.299 305.788L119.221 305.781C119.184 305.778 119.15 305.776 119.119 305.774L119.059 305.771C118.954 305.767 118.871 305.679 118.875 305.574C118.879 305.468 118.967 305.386 119.072 305.39Z" fill="#363636"/>
<path fill-rule="evenodd" clip-rule="evenodd" d="M77.9699 294.781C77.9699 296.045 76.9449 297.071 75.6803 297.071C74.4158 297.071 73.3906 296.045 73.3906 294.781C73.3906 293.516 74.4158 292.491 75.6803 292.491C76.9449 292.491 77.9699 293.516 77.9699 294.781Z" fill="white"/>
<path fill-rule="evenodd" clip-rule="evenodd" d="M124.618 294.781C124.618 296.045 123.593 297.071 122.329 297.071C121.064 297.071 120.039 296.045 120.039 294.781C120.039 293.516 121.064 292.491 122.329 292.491C123.593 292.491 124.618 293.516 124.618 294.781Z" fill="white"/>
<path d="M142.638 303.146C142.733 303.123 142.831 303.176 142.863 303.267L142.868 303.286L143.347 305.232C143.826 307.183 142.369 309.068 140.37 309.105L140.31 309.106H124.62C124.515 309.106 124.43 309.02 124.43 308.915C124.43 308.816 124.505 308.734 124.602 308.725L124.62 308.724H140.31C142.074 308.724 143.375 307.087 142.988 305.374L142.977 305.323L142.498 303.377C142.473 303.275 142.536 303.171 142.638 303.146Z" fill="#363636"/>
<path d="M94.9451 303.259C95.0416 303.239 95.1365 303.296 95.1657 303.388L95.1706 303.407L95.5744 305.338C95.9765 307.261 94.5273 309.069 92.5725 309.105L92.5131 309.105H76.2921C76.1868 309.105 76.1016 309.02 76.1016 308.915C76.1016 308.816 76.1771 308.734 76.2738 308.725L76.2921 308.724H92.5131C94.2385 308.724 95.5317 307.154 95.2115 305.467L95.2013 305.416L94.7975 303.485C94.7759 303.382 94.842 303.28 94.9451 303.259Z" fill="#363636"/>
<path d="M87.8925 296.616C87.992 296.582 88.1006 296.634 88.1349 296.734C88.1671 296.827 88.1226 296.928 88.035 296.969L88.0168 296.976L84.8856 298.056C84.7861 298.091 84.6776 298.038 84.6433 297.938C84.6111 297.845 84.6555 297.744 84.7432 297.703L84.7612 297.696L87.8925 296.616Z" fill="#363636"/>
<path d="M89.3845 298.758C89.4833 298.722 89.5928 298.773 89.6288 298.872C89.6625 298.964 89.6199 299.066 89.5328 299.108L89.515 299.116L85.9747 300.405C85.8758 300.441 85.7663 300.39 85.7303 300.291C85.6966 300.199 85.7392 300.097 85.8263 300.054L85.8443 300.047L89.3845 298.758Z" fill="#363636"/>
<path d="M91.3567 300.87C91.4545 300.831 91.5654 300.879 91.6044 300.976C91.6409 301.068 91.6014 301.171 91.5158 301.216L91.498 301.224L87.9722 302.631C87.8744 302.67 87.7636 302.622 87.7246 302.525C87.688 302.433 87.7275 302.33 87.8132 302.285L87.8309 302.277L91.3567 300.87Z" fill="#363636"/>
<path d="M133.455 294.576C133.555 294.542 133.664 294.594 133.698 294.694C133.729 294.787 133.685 294.888 133.597 294.929L133.579 294.936L130.448 296.016C130.349 296.05 130.24 295.998 130.206 295.898C130.174 295.805 130.218 295.704 130.306 295.663L130.324 295.656L133.455 294.576Z" fill="#363636"/>
<path d="M135.056 296.774C135.155 296.738 135.265 296.789 135.3 296.888C135.334 296.981 135.291 297.083 135.205 297.125L135.187 297.133L131.647 298.422C131.548 298.458 131.438 298.407 131.402 298.308C131.368 298.215 131.411 298.113 131.498 298.071L131.516 298.064L135.056 296.774Z" fill="#363636"/>
<path d="M136.91 298.888C137.008 298.849 137.12 298.896 137.158 298.994C137.195 299.086 137.156 299.189 137.07 299.234L137.052 299.242L133.526 300.649C133.428 300.688 133.318 300.64 133.279 300.542C133.243 300.451 133.282 300.347 133.367 300.303L133.386 300.294L136.91 298.888Z" fill="#363636"/>
<path fill-rule="evenodd" clip-rule="evenodd" d="M141.443 290.798C143.32 290.01 144.907 289.516 146.119 289.386C147.602 289.228 148.529 289.626 148.719 290.682C148.915 291.773 148.151 292.624 146.624 293.256C145.38 293.771 143.644 294.14 141.537 294.386C140.146 294.549 138.66 294.65 137.153 294.702C136.259 294.733 135.468 294.743 134.835 294.741L134.606 294.739L134.469 294.737C134.277 294.734 134.21 294.481 134.374 294.383L134.746 294.167C134.963 294.042 135.201 293.907 135.458 293.763L135.755 293.598C136.819 293.01 137.943 292.422 139.076 291.873C139.894 291.477 140.686 291.116 141.443 290.798ZM141.493 294.007C146.038 293.476 148.64 292.399 148.343 290.75L148.336 290.712C148.176 289.929 147.449 289.627 146.159 289.765C145.039 289.885 143.56 290.337 141.812 291.058L141.592 291.15C140.841 291.465 140.054 291.823 139.242 292.216C138.116 292.762 136.997 293.347 135.94 293.932C135.771 294.025 135.609 294.115 135.456 294.201L135.177 294.36L135.46 294.358C135.928 294.354 136.457 294.344 137.03 294.325L137.14 294.321C138.636 294.269 140.113 294.169 141.493 294.007Z" fill="#363636"/>
<path fill-rule="evenodd" clip-rule="evenodd" d="M134.495 294.368L134.787 294.351C136.381 294.264 138.044 294.244 139.601 294.333C141.439 294.438 142.941 294.687 143.994 295.112C145.303 295.641 145.904 296.448 145.603 297.533C145.33 298.519 144.52 298.963 143.301 298.924C142.297 298.892 141.02 298.538 139.53 297.924C138.79 297.619 138.013 297.256 137.21 296.846C136.326 296.393 135.457 295.909 134.641 295.424L134.546 295.368C134.298 295.22 134.071 295.081 133.87 294.955L133.779 294.899L133.588 294.777C133.435 294.678 133.493 294.443 133.674 294.427L133.752 294.42L134.054 294.397C134.192 294.387 134.339 294.378 134.495 294.368ZM139.806 294.728L139.578 294.714C138.038 294.626 136.388 294.646 134.807 294.732C134.708 294.737 134.612 294.743 134.519 294.749L134.284 294.764L134.39 294.828C134.502 294.896 134.62 294.967 134.742 295.041L134.836 295.096C135.645 295.577 136.507 296.058 137.385 296.506C138.177 296.912 138.946 297.271 139.674 297.571C142.812 298.865 144.821 298.929 145.236 297.431C145.476 296.567 145.001 295.93 143.851 295.466C142.888 295.077 141.503 294.837 139.806 294.728Z" fill="#363636"/>
<path fill-rule="evenodd" clip-rule="evenodd" d="M95.7897 292.706C97.6429 291.888 99.2125 291.368 100.415 291.219C101.887 291.036 102.817 291.418 103.026 292.467C103.243 293.556 102.491 294.422 100.97 295.084C99.7314 295.623 97.9965 296.025 95.8888 296.311C94.3495 296.52 92.7015 296.655 91.0538 296.731C90.5734 296.753 90.1215 296.769 89.706 296.779L89.3216 296.788L89.0144 296.792L88.8553 296.793C88.6634 296.794 88.5913 296.542 88.7545 296.441L89.0755 296.245L89.2092 296.165C89.4874 295.998 89.7984 295.815 90.1375 295.619L90.4051 295.465C91.3907 294.901 92.4227 294.341 93.4616 293.814C94.265 293.407 95.0442 293.035 95.7897 292.706ZM95.8374 295.933C100.387 295.316 102.98 294.188 102.652 292.541C102.491 291.736 101.761 291.436 100.462 291.597C99.3507 291.735 97.8881 292.21 96.1608 292.959L95.9435 293.055C95.2048 293.38 94.4316 293.75 93.634 294.154C92.5073 294.725 91.3881 295.337 90.3281 295.949C90.1258 296.066 89.9335 296.178 89.7523 296.285L89.5564 296.401L89.8496 296.394C90.1774 296.385 90.5267 296.373 90.8938 296.356L91.0362 296.35C92.6736 296.274 94.3107 296.14 95.8374 295.933Z" fill="#363636"/>
<path fill-rule="evenodd" clip-rule="evenodd" d="M89.2215 296.282L89.4386 296.267C90.9713 296.162 92.5416 296.12 94.0091 296.177C95.8438 296.248 97.3446 296.469 98.4014 296.875C99.7135 297.378 100.327 298.172 100.047 299.261C99.7912 300.257 98.9841 300.715 97.7551 300.695C96.7442 300.679 95.4529 300.344 93.9423 299.752C93.1935 299.458 92.4061 299.107 91.5943 298.71C90.7104 298.278 89.844 297.815 89.0311 297.352C88.8098 297.226 88.6048 297.107 88.4182 296.997L88.2628 296.905C88.2152 296.876 88.1711 296.85 88.1306 296.825L87.981 296.734C87.8269 296.639 87.8806 296.402 88.061 296.383L88.2423 296.364L88.5257 296.338C88.7399 296.319 88.9727 296.301 89.2215 296.282ZM94.2218 296.567L93.9944 296.558C92.5423 296.501 90.9849 296.543 89.4647 296.647C89.2089 296.665 88.9685 296.683 88.7457 296.702L88.678 296.708L88.7751 296.765C88.8867 296.83 89.0039 296.898 89.1267 296.968L89.2197 297.021C90.0261 297.48 90.8855 297.939 91.7617 298.367C92.5648 298.76 93.343 299.107 94.0814 299.397C97.2647 300.645 99.2895 300.678 99.6779 299.166C99.9005 298.299 99.4165 297.673 98.2649 297.231C97.2984 296.86 95.9145 296.646 94.2218 296.567Z" fill="#363636"/>
<path fill-rule="evenodd" clip-rule="evenodd" d="M136.114 153.962C136.209 154.608 136.258 155.25 136.293 155.89C136.327 156.531 136.34 157.17 136.341 157.807C136.342 158.445 136.324 159.081 136.3 159.716C136.271 160.351 136.231 160.985 136.192 161.619C136.038 164.156 135.866 166.691 135.637 169.22C135.411 171.75 135.128 174.275 134.833 176.799C134.76 177.43 134.687 178.061 134.602 178.691C134.516 179.321 134.42 179.95 134.309 180.578C134.197 181.205 134.073 181.832 133.931 182.457C133.788 183.081 133.631 183.705 133.43 184.325C132.237 188.005 128.287 190.021 124.607 188.828C121.965 187.972 120.182 185.687 119.826 183.109C119.738 182.464 119.695 181.822 119.664 181.182C119.635 180.542 119.624 179.903 119.625 179.266C119.628 178.628 119.645 177.992 119.671 177.357C119.7 176.722 119.74 176.088 119.78 175.454C119.936 172.918 120.106 170.383 120.331 167.853C120.555 165.323 120.835 162.798 121.133 160.274C121.207 159.643 121.28 159.012 121.364 158.382C121.453 157.752 121.548 157.123 121.662 156.496C121.776 155.868 121.903 155.242 122.049 154.618C122.197 153.993 122.359 153.37 122.567 152.751C123.8 149.091 127.767 147.123 131.428 148.356C134.001 149.223 135.737 151.449 136.114 153.962Z" fill="#FFDDBA"/>
<path fill-rule="evenodd" clip-rule="evenodd" d="M113.737 190.46H63.8984L64.3178 170.17L64.5312 159.775C64.9754 156.095 67.1554 153.019 70.1782 151.307C71.9373 150.311 73.9824 149.777 76.138 149.855L76.4161 149.863L96.2868 150.4L97.0663 150.421C98.5148 150.473 99.904 150.8 101.175 151.355C104.328 152.733 106.761 155.516 107.621 159.005L108.772 164.929L113.737 190.46Z" fill="#FFDDBA"/>
<path fill-rule="evenodd" clip-rule="evenodd" d="M136.078 154.858C135.785 158.237 133.088 160.827 129.819 161.096L129.751 161.1C128.859 161.174 127.932 161.239 127.019 161.296C126.103 161.351 125.184 161.41 124.267 161.454L122.889 161.528L121.512 161.588C120.593 161.633 119.674 161.673 118.756 161.704C115.083 161.854 111.409 161.932 107.74 162.049C106.747 162.077 105.754 162.11 104.761 162.144C103.921 162.174 103.078 162.205 102.238 162.236C100.406 162.3 98.5745 162.365 96.7448 162.441L92.7083 162.617L91.2618 162.68L88.5268 162.809L87.8425 162.842C87.6101 162.851 87.4099 162.866 87.1927 162.88L85.9138 162.958C85.1724 163.013 84.4311 163.074 83.6859 163.145C80.9834 163.394 78.2561 163.741 75.5211 164.174C73.0511 164.555 70.5755 165.007 68.098 165.498C67.0764 165.702 66.0527 165.912 65.0313 166.125C61.534 166.869 58.0368 167.698 54.5587 168.607C54.166 168.71 53.7734 168.813 53.3808 168.917L58.7801 178.048L44.2707 181.936L35.5343 168.311C33.3216 164.862 34.3261 160.271 37.7756 158.06C38.2769 157.738 38.8049 157.482 39.344 157.295L39.5938 157.212L41.0272 156.747L42.4089 156.312C43.3273 156.026 44.2422 155.752 45.1589 155.479C46.9905 154.936 48.8277 154.425 50.6687 153.928C54.3528 152.935 58.0597 152.026 61.7989 151.199C64.5186 150.596 67.2574 150.049 70.0209 149.567C70.3773 149.504 70.7337 149.443 71.092 149.384C71.7762 149.266 72.4624 149.154 73.1504 149.047C74.1203 148.893 75.0961 148.748 76.0739 148.612C76.0834 148.61 76.0911 148.61 76.1006 148.609C78.9708 148.212 81.8772 147.896 84.8237 147.675L86.316 147.581L87.0536 147.538L87.7568 147.503L90.5699 147.364C91.5075 147.32 92.4433 147.284 93.381 147.25C94.3186 147.214 95.2546 147.183 96.1903 147.156C96.2912 147.152 96.3903 147.151 96.4913 147.147C97.9206 147.101 99.3483 147.061 100.776 147.029C101.119 147.017 101.46 147.01 101.803 147.002C103.673 146.966 105.542 146.931 107.41 146.91C111.147 146.861 114.881 146.827 118.615 146.909C119.548 146.92 120.482 146.949 121.416 146.979L122.817 147.023L124.216 147.084C125.152 147.124 126.086 147.177 127.021 147.233C127.959 147.29 128.885 147.358 129.844 147.442C133.614 147.768 136.404 151.09 136.078 154.858Z" fill="#FFDDBA"/>
<path fill-rule="evenodd" clip-rule="evenodd" d="M113.737 190.459H63.8984L64.3178 170.169C65.2803 169.474 66.8164 168.063 68.0916 165.498C69.5686 162.534 71.724 157.455 71.2076 150.735C71.1751 150.295 71.1332 149.845 71.0855 149.384C71.7697 149.266 72.4558 149.153 73.1438 149.047C74.1138 148.892 75.0897 148.747 76.0675 148.612C76.077 148.61 76.0846 148.61 76.0941 148.608C76.2009 149.045 76.3285 149.563 76.4161 149.862C77.4014 153.207 79.7685 158.768 83.6795 162.001C85.0346 163.121 86.5764 163.823 88.3107 163.823C90.1594 163.823 91.5925 162.908 92.7017 161.473C95.0268 158.469 95.4768 154.326 95.8293 150.4C95.9437 149.132 95.9988 148.008 96.0273 147.146C97.4567 147.101 99.3417 147.061 100.769 147.028C100.863 148.604 101.002 150.043 101.175 151.355C101.913 156.889 103.304 160.186 104.754 162.144C106.254 164.175 107.815 164.768 108.772 164.928L113.737 190.459Z" fill="#FFA4EA"/>
<mask id="mask2_676_12504" style="mask-type:alpha" maskUnits="userSpaceOnUse" x="63" y="147" width="51" height="44">
<path fill-rule="evenodd" clip-rule="evenodd" d="M96.0276 147.146C95.9991 148.008 95.9438 149.132 95.8294 150.4C95.477 154.326 95.0271 158.469 92.702 161.473C91.5928 162.908 90.1594 163.823 88.3107 163.823C86.5764 163.823 85.0346 163.121 83.6795 162.001C79.7687 158.768 77.4016 153.207 76.4163 149.862C76.3286 149.563 76.2011 149.045 76.0943 148.608C76.0848 148.61 76.0771 148.61 76.0675 148.612C75.0898 148.747 74.1138 148.892 73.144 149.047C72.4559 149.153 71.7699 149.266 71.0857 149.384C71.1333 149.845 71.1751 150.295 71.2076 150.735C71.7241 157.455 69.5687 162.534 68.0917 165.498C66.8164 168.063 65.2803 169.474 64.3178 170.169L63.8984 190.459H113.737L108.772 164.928C107.816 164.768 106.255 164.175 104.755 162.144C103.304 160.186 101.913 156.889 101.176 151.355C101.002 150.043 100.863 148.604 100.769 147.028C99.3419 147.061 97.457 147.101 96.0276 147.146Z" fill="white"/>
</mask>
<g mask="url(#mask2_676_12504)">
<path fill-rule="evenodd" clip-rule="evenodd" d="M63.4925 152.908L63.3359 151.775C63.5751 151.742 87.4576 148.47 105.984 148.26L105.997 149.403C87.5436 149.613 63.7309 152.875 63.4925 152.908Z" fill="#FFA4EA"/>
</g>
<mask id="mask3_676_12504" style="mask-type:alpha" maskUnits="userSpaceOnUse" x="63" y="147" width="51" height="44">
<path fill-rule="evenodd" clip-rule="evenodd" d="M96.0276 147.146C95.9991 148.008 95.9438 149.132 95.8294 150.4C95.477 154.326 95.0271 158.469 92.702 161.473C91.5928 162.908 90.1594 163.823 88.3107 163.823C86.5764 163.823 85.0346 163.121 83.6795 162.001C79.7687 158.768 77.4016 153.207 76.4163 149.862C76.3286 149.563 76.2011 149.045 76.0943 148.608C76.0848 148.61 76.0771 148.61 76.0675 148.612C75.0898 148.747 74.1138 148.892 73.144 149.047C72.4559 149.153 71.7699 149.266 71.0857 149.384C71.1333 149.845 71.1751 150.295 71.2076 150.735C71.7241 157.455 69.5687 162.534 68.0917 165.498C66.8164 168.063 65.2803 169.474 64.3178 170.169L63.8984 190.459H113.737L108.772 164.928C107.816 164.768 106.255 164.175 104.755 162.144C103.304 160.186 101.913 156.889 101.176 151.355C101.002 150.043 100.863 148.604 100.769 147.028C99.3419 147.061 97.457 147.101 96.0276 147.146Z" fill="white"/>
</mask>
<g mask="url(#mask3_676_12504)">
<path fill-rule="evenodd" clip-rule="evenodd" d="M63.4652 157.898L63.3672 156.758C63.6005 156.738 86.9308 154.734 105.952 153.367L106.033 154.508C87.0208 155.874 63.6985 157.878 63.4652 157.898Z" fill="#FFA4EA"/>
</g>
<mask id="mask4_676_12504" style="mask-type:alpha" maskUnits="userSpaceOnUse" x="63" y="147" width="51" height="44">
<path fill-rule="evenodd" clip-rule="evenodd" d="M96.0276 147.146C95.9991 148.008 95.9438 149.132 95.8294 150.4C95.477 154.326 95.0271 158.469 92.702 161.473C91.5928 162.908 90.1594 163.823 88.3107 163.823C86.5764 163.823 85.0346 163.121 83.6795 162.001C79.7687 158.768 77.4016 153.207 76.4163 149.862C76.3286 149.563 76.2011 149.045 76.0943 148.608C76.0848 148.61 76.0771 148.61 76.0675 148.612C75.0898 148.747 74.1138 148.892 73.144 149.047C72.4559 149.153 71.7699 149.266 71.0857 149.384C71.1333 149.845 71.1751 150.295 71.2076 150.735C71.7241 157.455 69.5687 162.534 68.0917 165.498C66.8164 168.063 65.2803 169.474 64.3178 170.169L63.8984 190.459H113.737L108.772 164.928C107.816 164.768 106.255 164.175 104.755 162.144C103.304 160.186 101.913 156.889 101.176 151.355C101.002 150.043 100.863 148.604 100.769 147.028C99.3419 147.061 97.457 147.101 96.0276 147.146Z" fill="white"/>
</mask>
<g mask="url(#mask4_676_12504)">
<path fill-rule="evenodd" clip-rule="evenodd" d="M63.6182 163.363L63.5 162.226C63.779 162.197 91.6155 159.31 110.641 157.942L110.723 159.083C91.7158 160.449 63.8971 163.334 63.6182 163.363Z" fill="#FFA4EA"/>
</g>
<mask id="mask5_676_12504" style="mask-type:alpha" maskUnits="userSpaceOnUse" x="63" y="147" width="51" height="44">
<path fill-rule="evenodd" clip-rule="evenodd" d="M96.0276 147.146C95.9991 148.008 95.9438 149.132 95.8294 150.4C95.477 154.326 95.0271 158.469 92.702 161.473C91.5928 162.908 90.1594 163.823 88.3107 163.823C86.5764 163.823 85.0346 163.121 83.6795 162.001C79.7687 158.768 77.4016 153.207 76.4163 149.862C76.3286 149.563 76.2011 149.045 76.0943 148.608C76.0848 148.61 76.0771 148.61 76.0675 148.612C75.0898 148.747 74.1138 148.892 73.144 149.047C72.4559 149.153 71.7699 149.266 71.0857 149.384C71.1333 149.845 71.1751 150.295 71.2076 150.735C71.7241 157.455 69.5687 162.534 68.0917 165.498C66.8164 168.063 65.2803 169.474 64.3178 170.169L63.8984 190.459H113.737L108.772 164.928C107.816 164.768 106.255 164.175 104.755 162.144C103.304 160.186 101.913 156.889 101.176 151.355C101.002 150.043 100.863 148.604 100.769 147.028C99.3419 147.061 97.457 147.101 96.0276 147.146Z" fill="white"/>
</mask>
<g mask="url(#mask5_676_12504)">
<path fill-rule="evenodd" clip-rule="evenodd" d="M62.109 169.684L61.9844 168.547C62.3112 168.511 94.8647 164.956 111.817 164.43L111.853 165.573C94.9448 166.098 62.4355 169.648 62.109 169.684Z" fill="#FFA4EA"/>
</g>
<mask id="mask6_676_12504" style="mask-type:alpha" maskUnits="userSpaceOnUse" x="63" y="147" width="51" height="44">
<path fill-rule="evenodd" clip-rule="evenodd" d="M96.0276 147.146C95.9991 148.008 95.9438 149.132 95.8294 150.4C95.477 154.326 95.0271 158.469 92.702 161.473C91.5928 162.908 90.1594 163.823 88.3107 163.823C86.5764 163.823 85.0346 163.121 83.6795 162.001C79.7687 158.768 77.4016 153.207 76.4163 149.862C76.3286 149.563 76.2011 149.045 76.0943 148.608C76.0848 148.61 76.0771 148.61 76.0675 148.612C75.0898 148.747 74.1138 148.892 73.144 149.047C72.4559 149.153 71.7699 149.266 71.0857 149.384C71.1333 149.845 71.1751 150.295 71.2076 150.735C71.7241 157.455 69.5687 162.534 68.0917 165.498C66.8164 168.063 65.2803 169.474 64.3178 170.169L63.8984 190.459H113.737L108.772 164.928C107.816 164.768 106.255 164.175 104.755 162.144C103.304 160.186 101.913 156.889 101.176 151.355C101.002 150.043 100.863 148.604 100.769 147.028C99.3419 147.061 97.457 147.101 96.0276 147.146Z" fill="white"/>
</mask>
<g mask="url(#mask6_676_12504)">
<path fill-rule="evenodd" clip-rule="evenodd" d="M61.8494 175.68L61.75 174.541C62.0404 174.515 91.0624 171.981 115.105 169.814L115.207 170.953C91.1635 173.12 62.1397 175.654 61.8494 175.68Z" fill="#FFA4EA"/>
</g>
<mask id="mask7_676_12504" style="mask-type:alpha" maskUnits="userSpaceOnUse" x="63" y="147" width="51" height="44">
<path fill-rule="evenodd" clip-rule="evenodd" d="M96.0276 147.146C95.9991 148.008 95.9438 149.132 95.8294 150.4C95.477 154.326 95.0271 158.469 92.702 161.473C91.5928 162.908 90.1594 163.823 88.3107 163.823C86.5764 163.823 85.0346 163.121 83.6795 162.001C79.7687 158.768 77.4016 153.207 76.4163 149.862C76.3286 149.563 76.2011 149.045 76.0943 148.608C76.0848 148.61 76.0771 148.61 76.0675 148.612C75.0898 148.747 74.1138 148.892 73.144 149.047C72.4559 149.153 71.7699 149.266 71.0857 149.384C71.1333 149.845 71.1751 150.295 71.2076 150.735C71.7241 157.455 69.5687 162.534 68.0917 165.498C66.8164 168.063 65.2803 169.474 64.3178 170.169L63.8984 190.459H113.737L108.772 164.928C107.816 164.768 106.255 164.175 104.755 162.144C103.304 160.186 101.913 156.889 101.176 151.355C101.002 150.043 100.863 148.604 100.769 147.028C99.3419 147.061 97.457 147.101 96.0276 147.146Z" fill="white"/>
</mask>
<g mask="url(#mask7_676_12504)">
<path fill-rule="evenodd" clip-rule="evenodd" d="M61.8156 182.011L61.6719 180.876C61.9624 180.839 90.9955 177.171 115.049 175.004L115.151 176.143C91.119 178.308 62.1058 181.974 61.8156 182.011Z" fill="#FFA4EA"/>
</g>
<mask id="mask8_676_12504" style="mask-type:alpha" maskUnits="userSpaceOnUse" x="63" y="147" width="51" height="44">
<path fill-rule="evenodd" clip-rule="evenodd" d="M96.0276 147.146C95.9991 148.008 95.9438 149.132 95.8294 150.4C95.477 154.326 95.0271 158.469 92.702 161.473C91.5928 162.908 90.1594 163.823 88.3107 163.823C86.5764 163.823 85.0346 163.121 83.6795 162.001C79.7687 158.768 77.4016 153.207 76.4163 149.862C76.3286 149.563 76.2011 149.045 76.0943 148.608C76.0848 148.61 76.0771 148.61 76.0675 148.612C75.0898 148.747 74.1138 148.892 73.144 149.047C72.4559 149.153 71.7699 149.266 71.0857 149.384C71.1333 149.845 71.1751 150.295 71.2076 150.735C71.7241 157.455 69.5687 162.534 68.0917 165.498C66.8164 168.063 65.2803 169.474 64.3178 170.169L63.8984 190.459H113.737L108.772 164.928C107.816 164.768 106.255 164.175 104.755 162.144C103.304 160.186 101.913 156.889 101.176 151.355C101.002 150.043 100.863 148.604 100.769 147.028C99.3419 147.061 97.457 147.101 96.0276 147.146Z" fill="white"/>
</mask>
<g mask="url(#mask8_676_12504)">
<path fill-rule="evenodd" clip-rule="evenodd" d="M61.8025 188.842L61.7031 187.703C61.9935 187.677 91.0155 185.143 115.058 182.977L115.16 184.115C91.1166 186.282 62.0929 188.817 61.8025 188.842Z" fill="#FFA4EA"/>
</g>
<path fill-rule="evenodd" clip-rule="evenodd" d="M123.835 161.752H119.722C119.617 161.752 119.531 161.667 119.531 161.562C119.531 161.456 119.617 161.371 119.722 161.371H123.835C123.94 161.371 124.025 161.456 124.025 161.562C124.025 161.667 123.94 161.752 123.835 161.752Z" fill="#363636"/>
<path fill-rule="evenodd" clip-rule="evenodd" d="M54.2933 171.016C54.229 171.016 54.1662 170.984 54.1305 170.925L52.0436 167.505C51.9887 167.415 52.0171 167.297 52.107 167.243C52.1966 167.188 52.314 167.216 52.369 167.306L54.4557 170.726C54.5106 170.816 54.4822 170.933 54.3924 170.988C54.3613 171.007 54.3271 171.016 54.2933 171.016Z" fill="#363636"/>
<path fill-rule="evenodd" clip-rule="evenodd" d="M149.683 186.755L39.7179 206.854L36.3281 188.26L146.293 168.16L149.683 186.755Z" fill="white"/>
<mask id="mask9_676_12504" style="mask-type:alpha" maskUnits="userSpaceOnUse" x="145" y="168" width="19" height="19">
<path fill-rule="evenodd" clip-rule="evenodd" d="M145.609 168.16H163.094V186.754H145.609V168.16Z" fill="white"/>
</mask>
<g mask="url(#mask9_676_12504)">
<path fill-rule="evenodd" clip-rule="evenodd" d="M149.696 186.754C149.696 186.754 143.589 179.546 146.306 168.16L157.296 172.216L162.651 174.191C163.136 174.37 163.251 175.003 162.861 175.341L158.548 179.08L149.696 186.754Z" fill="#FBC4AB"/>
</g>
<mask id="mask10_676_12504" style="mask-type:alpha" maskUnits="userSpaceOnUse" x="28" y="188" width="12" height="20">
<path fill-rule="evenodd" clip-rule="evenodd" d="M28.125 188.259H39.7272V207.864H28.125V188.259Z" fill="white"/>
</mask>
<g mask="url(#mask10_676_12504)">
<path fill-rule="evenodd" clip-rule="evenodd" d="M30.2647 204.866L28.1849 193.458C27.8231 191.473 29.1386 189.571 31.123 189.209L36.3375 188.259L39.7273 206.853L34.5128 207.804C32.5284 208.166 30.6265 206.85 30.2647 204.866Z" fill="#FBC4AB"/>
</g>
<path fill-rule="evenodd" clip-rule="evenodd" d="M36.9325 191.735C36.8422 191.735 36.7621 191.67 36.7453 191.578C36.7263 191.475 36.795 191.376 36.8985 191.357L145.648 171.479C145.749 171.46 145.851 171.528 145.869 171.632C145.888 171.735 145.82 171.835 145.716 171.854L36.9669 191.732C36.9555 191.734 36.944 191.735 36.9325 191.735Z" fill="#363636"/>
<path fill-rule="evenodd" clip-rule="evenodd" d="M39.1512 203.939C39.0609 203.939 38.9808 203.874 38.9641 203.782C38.9451 203.679 39.0137 203.58 39.1172 203.561L147.866 183.683C147.968 183.664 148.069 183.732 148.089 183.836C148.107 183.94 148.038 184.039 147.936 184.058L39.1857 203.936C39.1742 203.938 39.1627 203.939 39.1512 203.939Z" fill="#363636"/>
<path fill-rule="evenodd" clip-rule="evenodd" d="M37.6747 195.802C37.5844 195.802 37.5043 195.737 37.4875 195.645C37.4685 195.542 37.5372 195.442 37.6408 195.423L145.546 175.699C145.649 175.681 145.75 175.749 145.768 175.853C145.787 175.956 145.718 176.055 145.615 176.074L37.7093 195.798C37.6976 195.801 37.6862 195.802 37.6747 195.802Z" fill="#363636"/>
<path fill-rule="evenodd" clip-rule="evenodd" d="M38.4169 199.87C38.3266 199.87 38.2465 199.806 38.2297 199.714C38.2107 199.61 38.2793 199.511 38.3828 199.492L146.288 179.768C146.392 179.749 146.491 179.817 146.51 179.921C146.529 180.024 146.46 180.124 146.356 180.143L38.4515 199.867C38.4398 199.869 38.4283 199.87 38.4169 199.87Z" fill="#363636"/>
<mask id="mask11_676_12504" style="mask-type:alpha" maskUnits="userSpaceOnUse" x="156" y="172" width="8" height="8">
<path fill-rule="evenodd" clip-rule="evenodd" d="M156.508 172.216H163.075V179.08H156.508V172.216Z" fill="white"/>
</mask>
<g mask="url(#mask11_676_12504)">
<path fill-rule="evenodd" clip-rule="evenodd" d="M158.529 179.08C157.548 178.318 156.835 177.205 156.594 175.886C156.354 174.567 156.628 173.276 157.277 172.216L162.632 174.191C163.117 174.37 163.231 175.003 162.842 175.341L158.529 179.08Z" fill="#363636"/>
</g>
<path fill-rule="evenodd" clip-rule="evenodd" d="M37.8854 207.322C37.7951 207.322 37.715 207.257 37.6983 207.165L34.3391 188.74C34.3202 188.636 34.3888 188.537 34.4923 188.518C34.5968 188.499 34.6951 188.568 34.714 188.671L38.0731 207.097C38.0921 207.201 38.0235 207.3 37.9198 207.319C37.9082 207.321 37.8967 207.322 37.8854 207.322Z" fill="#363636"/>
<path fill-rule="evenodd" clip-rule="evenodd" d="M115.156 170.383C118.563 170.306 118.176 179.579 116.486 179.83C114.511 180.123 111.433 170.467 115.156 170.383Z" fill="#FFDDBA"/>
<path fill-rule="evenodd" clip-rule="evenodd" d="M111.859 170.735C115.266 170.658 114.879 179.931 113.189 180.182C111.214 180.474 108.136 170.819 111.859 170.735Z" fill="#FFDDBA"/>
<path fill-rule="evenodd" clip-rule="evenodd" d="M118.458 170.005C121.865 169.928 121.062 179.29 119.788 179.452C117.79 179.707 114.735 170.089 118.458 170.005Z" fill="#FFDDBA"/>
<path fill-rule="evenodd" clip-rule="evenodd" d="M117.764 177.419C117.685 177.419 117.611 177.369 117.584 177.29C117.037 175.698 116.182 172.328 116.859 170.971C116.906 170.876 117.021 170.838 117.115 170.885C117.209 170.932 117.247 171.047 117.2 171.141C116.624 172.295 117.33 175.377 117.944 177.166C117.979 177.266 117.926 177.374 117.826 177.408C117.806 177.415 117.785 177.419 117.764 177.419Z" fill="#363636"/>
<path fill-rule="evenodd" clip-rule="evenodd" d="M114.366 177.868C114.286 177.868 114.213 177.818 114.185 177.739C113.639 176.147 112.784 172.777 113.461 171.42C113.508 171.326 113.622 171.288 113.716 171.335C113.811 171.382 113.849 171.496 113.802 171.59C113.226 172.744 113.931 175.826 114.546 177.616C114.58 177.715 114.527 177.823 114.428 177.858C114.407 177.865 114.386 177.868 114.366 177.868Z" fill="#363636"/>
<path fill-rule="evenodd" clip-rule="evenodd" d="M121.974 170.175C125.381 170.098 125.058 179.356 123.304 179.622C121.581 179.883 118.251 170.259 121.974 170.175Z" fill="#FFDDBA"/>
<path fill-rule="evenodd" clip-rule="evenodd" d="M120.925 176.743C120.845 176.743 120.771 176.692 120.744 176.613C120.466 175.784 119.622 172.954 120.422 171.352C120.469 171.257 120.583 171.219 120.677 171.266C120.771 171.313 120.81 171.428 120.763 171.522C120.179 172.69 120.557 174.855 121.105 176.492C121.139 176.591 121.085 176.699 120.985 176.733C120.965 176.74 120.945 176.743 120.925 176.743Z" fill="#363636"/>
<path fill-rule="evenodd" clip-rule="evenodd" d="M57.2642 202.22C59.233 205.281 63.2926 206.272 66.4524 204.405C69.3035 202.718 70.4737 199.274 69.395 196.267C69.254 195.864 69.0692 195.47 68.8443 195.089L62.3166 184.052L58.7676 178.049L44.2578 181.936L57.2642 202.22Z" fill="#FFDDBA"/>
<path fill-rule="evenodd" clip-rule="evenodd" d="M56.4564 187.982L63.2237 204.448C63.6387 205.457 63.1567 206.612 62.1471 207.027C61.2473 207.397 60.2322 207.053 59.7281 206.26L50.1728 191.239C49.1196 189.584 49.6079 187.388 51.2635 186.335C52.919 185.282 55.1148 185.77 56.168 187.426C56.2786 187.6 56.3794 187.798 56.4564 187.982Z" fill="#FFDDBA"/>
<path fill-rule="evenodd" clip-rule="evenodd" d="M61.4199 190.766L66.1469 203.5C66.5171 204.497 66.0087 205.606 65.0113 205.976C64.153 206.294 63.2122 205.961 62.7306 205.227L55.2789 193.87C54.2298 192.271 54.6754 190.125 56.2742 189.076C57.873 188.027 60.0197 188.472 61.0687 190.071C61.2112 190.288 61.3317 190.533 61.4199 190.766Z" fill="#FFDDBA"/>
<path fill-rule="evenodd" clip-rule="evenodd" d="M63.8589 189.613L69.2496 201.963C69.6629 202.91 69.2303 204.013 68.2834 204.426C67.4657 204.783 66.5316 204.508 66.0258 203.817L58.0639 192.944C56.9667 191.446 57.2919 189.342 58.7902 188.245C60.2886 187.147 62.3928 187.473 63.49 188.971C63.6358 189.17 63.7628 189.396 63.8589 189.613Z" fill="#FFDDBA"/>
<path fill-rule="evenodd" clip-rule="evenodd" d="M66.0758 189.293L71.5889 200.541C72.0035 201.386 71.6539 202.408 70.8082 202.822C70.0756 203.181 69.2108 202.966 68.7233 202.353L60.9245 192.551C59.8704 191.226 60.0901 189.298 61.4148 188.244C62.7395 187.19 64.6679 187.409 65.722 188.734C65.8591 188.906 65.9813 189.104 66.0758 189.293Z" fill="#FFDDBA"/>
<path fill-rule="evenodd" clip-rule="evenodd" d="M61.987 185.863C61.987 185.863 75.2449 192.435 73.524 195.368C72.1448 197.719 61.7969 190.824 61.7969 190.824L61.987 185.863Z" fill="#FFDDBA"/>
<path fill-rule="evenodd" clip-rule="evenodd" d="M63.2894 205.941C63.217 205.941 63.1474 205.901 63.1131 205.832L61.8486 203.277C61.8004 203.18 61.8402 203.062 61.9376 203.014C62.0353 202.966 62.1528 203.005 62.201 203.103L63.4655 205.657C63.5137 205.754 63.4739 205.872 63.3765 205.921C63.3484 205.935 63.3188 205.941 63.2894 205.941Z" fill="#363636"/>
<path fill-rule="evenodd" clip-rule="evenodd" d="M66.2531 204.253C66.1802 204.253 66.1102 204.212 66.0761 204.142L64.9105 201.746C64.863 201.648 64.9037 201.53 65.0013 201.483C65.0987 201.435 65.2164 201.476 65.2641 201.574L66.4297 203.97C66.4772 204.068 66.4365 204.185 66.3388 204.233C66.3112 204.246 66.2819 204.253 66.2531 204.253Z" fill="#363636"/>
<path fill-rule="evenodd" clip-rule="evenodd" d="M69.3598 203.042C69.2873 203.042 69.2177 203.002 69.1834 202.932L67.9189 200.378C67.8707 200.28 67.9105 200.162 68.0079 200.114C68.1055 200.066 68.2232 200.106 68.2714 200.203L69.5358 202.758C69.584 202.855 69.5442 202.973 69.4468 203.021C69.4187 203.035 69.3891 203.042 69.3598 203.042Z" fill="#363636"/>
<path fill-rule="evenodd" clip-rule="evenodd" d="M69.051 195.161C68.9842 195.161 68.9191 195.127 68.8822 195.066L67.2155 192.289C67.1597 192.196 67.1899 192.075 67.2829 192.019C67.376 191.963 67.4967 191.994 67.5528 192.087L69.2194 194.863C69.2752 194.957 69.245 195.077 69.152 195.133C69.1203 195.152 69.0854 195.161 69.051 195.161Z" fill="#363636"/>
<path fill-rule="evenodd" clip-rule="evenodd" d="M93.8506 125.344C93.8506 130.14 89.963 134.027 85.1675 134.027C80.3718 134.027 76.4844 130.14 76.4844 125.344C76.4844 120.549 80.3718 116.661 85.1675 116.661C89.963 116.661 93.8506 120.549 93.8506 125.344Z" fill="#2BA3D9"/>
<path fill-rule="evenodd" clip-rule="evenodd" d="M98.8818 129.673C98.8818 134.469 94.9943 138.356 90.1987 138.356C85.4032 138.356 81.5156 134.469 81.5156 129.673C81.5156 124.878 85.4032 120.99 90.1987 120.99C94.9943 120.99 98.8818 124.878 98.8818 129.673Z" fill="#2BA3D9"/>
<path fill-rule="evenodd" clip-rule="evenodd" d="M85.9444 128.581C85.9444 133.376 82.0568 137.264 77.2613 137.264C72.4656 137.264 68.5781 133.376 68.5781 128.581C68.5781 123.785 72.4656 119.897 77.2613 119.897C82.0568 119.897 85.9444 123.785 85.9444 128.581Z" fill="#2BA3D9"/>
<path fill-rule="evenodd" clip-rule="evenodd" d="M84.2178 134.957C84.2178 139.752 80.3303 143.64 75.5347 143.64C70.7392 143.64 66.8516 139.752 66.8516 134.957C66.8516 130.161 70.7392 126.273 75.5347 126.273C80.3303 126.273 84.2178 130.161 84.2178 134.957Z" fill="#2BA3D9"/>
<path fill-rule="evenodd" clip-rule="evenodd" d="M90.7178 139.978C90.7178 144.774 86.8302 148.661 82.0347 148.661C77.2392 148.661 73.3516 144.774 73.3516 139.978C73.3516 135.183 77.2392 131.295 82.0347 131.295C86.8302 131.295 90.7178 135.183 90.7178 139.978Z" fill="#2BA3D9"/>
<path fill-rule="evenodd" clip-rule="evenodd" d="M97.053 144.313C95.8546 145.562 94.2163 145.768 92.4851 145.421C88.0665 144.535 83.0203 140.05 83.0203 140.05C82.0196 139.265 80.9543 138.19 80.2824 137.003L80.2481 136.941C80.0706 136.624 79.9233 136.297 79.8123 135.968C79.7598 135.811 79.7154 135.651 79.6811 135.492C79.4652 134.507 79.312 134.59 79.0517 132.946C78.6904 130.666 79.6429 128.648 81.6847 127.547C84.4347 126.062 87.9979 125.68 90.9356 126.933C90.9435 126.937 90.9516 126.939 90.9597 126.943C94.4261 128.438 96.25 132.387 97.5352 135.706C98.5865 138.42 99.2926 141.979 97.053 144.313Z" fill="#FFDDBA"/>
<path fill-rule="evenodd" clip-rule="evenodd" d="M90.9849 135.221L92.8281 150.899C93.1922 153.995 90.9773 156.801 87.8808 157.165C84.7846 157.529 81.9794 155.314 81.6153 152.217C81.5772 151.894 81.57 151.542 81.5864 151.226L82.5146 135.467C82.6527 133.122 84.6658 131.333 87.0107 131.471C89.1017 131.594 90.7503 133.21 90.9849 135.221Z" fill="#FFDDBA"/>
<path fill-rule="evenodd" clip-rule="evenodd" d="M92.1989 145.307C92.1989 145.307 90.8905 145.089 89.157 144.198C88.945 144.089 88.7356 144.347 88.8882 144.53L92.5888 148.868L92.1989 145.307Z" fill="#363636"/>
<path fill-rule="evenodd" clip-rule="evenodd" d="M82.1759 140.925C82.1759 140.925 82.593 140.676 82.8934 140.236C82.9392 140.169 83.043 140.188 83.0585 140.268C83.1654 140.812 83.2611 142.251 82.0312 143.436L82.1759 140.925Z" fill="#363636"/>
<path fill-rule="evenodd" clip-rule="evenodd" d="M83.5255 138.539C83.4252 140.268 81.9421 141.589 80.2128 141.488C78.4834 141.388 77.1629 139.905 77.2632 138.176C77.3634 136.446 78.8465 135.126 80.5759 135.226C82.3052 135.326 83.6259 136.809 83.5255 138.539Z" fill="#FFDDBA"/>
<path fill-rule="evenodd" clip-rule="evenodd" d="M81.5083 138.747C81.4822 138.747 81.4558 138.742 81.4304 138.731L78.9677 137.699C78.8648 137.656 78.8164 137.538 78.8595 137.435C78.9026 137.333 79.0208 137.284 79.1235 137.327L81.5863 138.359C81.689 138.402 81.7375 138.52 81.6944 138.623C81.662 138.7 81.5871 138.747 81.5083 138.747Z" fill="#363636"/>
<path fill-rule="evenodd" clip-rule="evenodd" d="M79.983 139.179C79.9592 139.179 79.9348 139.175 79.9111 139.166C79.8069 139.126 79.7549 139.009 79.7946 138.905L80.1483 137.98C80.1881 137.875 80.3045 137.823 80.4087 137.863C80.5128 137.903 80.565 138.019 80.5253 138.123L80.1715 139.049C80.1408 139.13 80.0642 139.179 79.983 139.179Z" fill="#363636"/>
<path fill-rule="evenodd" clip-rule="evenodd" d="M80.5859 124.701C83.5415 124.701 85.9375 127.097 85.9375 130.053C85.9375 131.43 85.4176 132.685 84.5634 133.633C85.0405 134.823 85.3837 135.95 85.5928 137.013C85.6341 137.131 85.6548 137.252 85.6548 137.372C85.6548 137.799 85.3947 138.204 84.9716 138.367C84.4691 138.56 83.9034 138.35 83.6489 137.881L83.6321 137.849L83.1078 136.852C82.8306 136.069 82.0924 135.575 81.5566 135.316C81.2419 135.374 80.9175 135.404 80.5859 135.404C77.6303 135.404 75.2344 133.008 75.2344 130.053C75.2344 127.097 77.6303 124.701 80.5859 124.701Z" fill="#2BA3D9"/>
<path fill-rule="evenodd" clip-rule="evenodd" d="M93.2734 125.345C93.2734 128.3 90.8774 130.696 87.9219 130.696C84.9663 130.696 82.5703 128.3 82.5703 125.345C82.5703 122.389 84.9663 119.993 87.9219 119.993C90.8774 119.993 93.2734 122.389 93.2734 125.345Z" fill="#2BA3D9"/>
<path fill-rule="evenodd" clip-rule="evenodd" d="M99.2799 135.574C99.2799 135.574 98.2255 136.877 96.5107 136.816C95.784 136.789 94.9381 136.52 94.0078 135.798C94.0078 135.798 94.914 134.759 96.4224 134.658C97.2217 134.602 98.1882 134.808 99.2799 135.574Z" fill="white"/>
<path fill-rule="evenodd" clip-rule="evenodd" d="M99.2768 135.574C99.2768 135.574 98.2223 136.877 96.5076 136.816C96.2667 136.525 96.1205 136.162 96.1032 135.756C96.0859 135.35 96.2039 134.968 96.4192 134.658C97.2186 134.602 98.185 134.808 99.2768 135.574Z" fill="#363636"/>
<path d="M92.5873 134.805C92.6941 134.775 92.8043 134.833 92.8428 134.934L92.8492 134.954L93.7336 138.175C93.8926 138.755 93.4665 139.326 92.8719 139.345L92.8393 139.345L92.1031 139.343C91.9854 139.343 91.8903 139.247 91.8906 139.129C91.891 139.018 91.9763 138.927 92.0849 138.918L92.1043 138.917L92.8405 138.919C93.1613 138.92 93.3969 138.623 93.329 138.314L93.3226 138.288L92.4382 135.066C92.4071 134.953 92.4738 134.836 92.5873 134.805Z" fill="#363636"/>
<path d="M94.7213 133.019C95.9864 132.523 97.4082 132.526 98.8419 133.36C98.9436 133.419 98.9782 133.549 98.919 133.651C98.8598 133.753 98.7293 133.787 98.6277 133.728C97.3179 132.967 96.0296 132.964 94.8768 133.416C94.7101 133.481 94.5619 133.551 94.4343 133.62L94.3677 133.658C94.3288 133.68 94.3013 133.697 94.2856 133.708C94.1881 133.774 94.0556 133.748 93.9897 133.651C93.9238 133.553 93.9494 133.421 94.0469 133.355L94.0739 133.337C94.1102 133.314 94.1627 133.283 94.2305 133.246C94.3733 133.168 94.5375 133.091 94.7213 133.019Z" fill="#363636"/>
<path fill-rule="evenodd" clip-rule="evenodd" d="M91.8659 135.574C91.8659 135.574 90.8114 136.877 89.0966 136.816C88.3699 136.789 87.5241 136.52 86.5938 135.798C86.5938 135.798 87.4998 134.759 89.0083 134.658C89.8076 134.602 90.7741 134.808 91.8659 135.574Z" fill="white"/>
<path fill-rule="evenodd" clip-rule="evenodd" d="M91.8706 135.574C91.8706 135.574 90.8161 136.877 89.1013 136.816C88.8604 136.525 88.7143 136.162 88.697 135.756C88.6797 135.35 88.7976 134.968 89.013 134.658C89.8123 134.602 90.7788 134.808 91.8706 135.574Z" fill="#363636"/>
<path d="M86.6451 133.36C88.0787 132.526 89.5005 132.523 90.7656 133.019C90.9495 133.091 91.1137 133.168 91.2564 133.246L91.3108 133.276C91.3698 133.31 91.4132 133.337 91.44 133.355C91.5375 133.421 91.5632 133.553 91.4973 133.651C91.4314 133.748 91.2989 133.774 91.2014 133.708L91.169 133.687C91.1416 133.67 91.1026 133.648 91.0527 133.62C90.9251 133.551 90.7769 133.481 90.6102 133.416C89.4572 132.964 88.169 132.967 86.8593 133.728C86.7575 133.787 86.6271 133.753 86.568 133.651C86.5088 133.549 86.5433 133.419 86.6451 133.36Z" fill="#363636"/>
<path d="M90.7595 139.782C90.8639 139.745 90.9779 139.794 91.0236 139.893L91.0385 139.93C91.0466 139.949 91.0597 139.977 91.0782 140.012C91.1229 140.094 91.1802 140.178 91.2506 140.255C91.4828 140.51 91.7974 140.642 92.2273 140.59C92.3441 140.576 92.4501 140.66 92.4641 140.777C92.478 140.894 92.3945 141 92.2777 141.014C91.7043 141.082 91.2565 140.894 90.9356 140.542C90.7717 140.362 90.6747 140.182 90.6294 140.054C90.5902 139.943 90.6485 139.821 90.7595 139.782Z" fill="#363636"/>
<path opacity="0.01" d="M89.2309 139.234C89.9253 138.733 90.7517 138.647 91.6636 138.966C92.6032 139.295 93.2457 139.582 93.5725 140.637C93.6419 140.862 93.5163 141.1 93.2919 141.169C93.0676 141.239 92.8293 141.113 92.7598 140.889C92.51 140.082 92.0572 140.005 91.3828 139.769C90.7221 139.538 90.1865 139.594 89.7291 139.924C89.5387 140.062 89.2729 140.019 89.1354 139.828C88.9977 139.638 89.0405 139.372 89.2309 139.234Z" fill="#3528A0"/>
</svg>
