<svg width="356" height="356" viewBox="0 0 356 356" fill="none" xmlns="http://www.w3.org/2000/svg">
<path d="M253.854 193.618H290.062V199.029H253.854V193.618Z" fill="#99DBF9"/>
<path fill-rule="evenodd" clip-rule="evenodd" d="M218.558 289.177L253.145 298.515C255.147 290.248 257.303 282.024 259.623 273.857L260.495 270.795L261.394 267.74C261.984 265.701 262.615 263.679 263.226 261.647C264.482 257.6 265.755 253.555 267.1 249.546C268.284 245.987 269.503 242.444 270.765 238.923C271.996 242.584 273.246 246.241 274.518 249.898C275.939 253.983 277.384 258.07 278.869 262.155C280.349 266.239 281.86 270.323 283.426 274.409C284.99 278.494 286.588 282.583 288.273 286.682C289.956 290.779 291.703 294.885 293.576 299.026L325.625 283.54C323.801 280.001 322.022 276.348 320.278 272.644C318.53 268.944 316.829 265.173 315.154 261.378C313.475 257.585 311.831 253.75 310.209 249.899C308.585 246.051 306.991 242.173 305.412 238.285C302.254 230.506 299.186 222.664 296.175 214.792C294.671 210.855 293.186 206.91 291.718 202.958L289.953 198.171H253.777C253.298 199.103 252.826 200.034 252.36 200.965C250.315 205.066 248.363 209.175 246.484 213.299C242.729 221.553 239.239 229.868 235.964 238.249C234.313 242.436 232.745 246.645 231.193 250.862C230.438 252.975 229.658 255.082 228.923 257.201L227.81 260.376L226.722 263.56C223.828 272.052 221.11 280.593 218.558 289.177Z" fill="#99DBF9"/>
<mask id="mask0_676_12805" style="mask-type:alpha" maskUnits="userSpaceOnUse" x="218" y="198" width="108" height="102">
<path fill-rule="evenodd" clip-rule="evenodd" d="M290.014 198.172L291.718 202.96C293.186 206.91 294.672 210.856 296.176 214.793C299.186 222.665 302.255 230.507 305.413 238.286C306.99 242.174 308.585 246.051 310.209 249.9C311.832 253.752 313.475 257.586 315.153 261.379C316.83 265.174 318.531 268.945 320.278 272.645C322.022 276.349 323.801 280.002 325.625 283.54L293.576 299.027C291.703 294.886 289.956 290.78 288.274 286.683C286.588 282.583 284.99 278.495 283.427 274.409C281.86 270.323 280.35 266.239 278.869 262.155C277.385 258.071 275.939 253.985 274.518 249.899C273.246 246.241 271.997 242.584 270.766 238.923C269.503 242.444 268.284 245.988 267.101 249.546C265.755 253.556 264.483 257.601 263.226 261.648C262.616 263.68 261.984 265.702 261.395 267.74L260.496 270.795L259.623 273.857C257.303 282.024 255.147 290.248 253.146 298.516L218.556 289.178C221.11 280.594 223.827 272.052 226.722 263.561L227.811 260.378L228.924 257.202C229.659 255.083 230.438 252.976 231.194 250.863C232.745 246.646 234.314 242.437 235.964 238.25C239.239 229.869 242.73 221.553 246.484 213.301C248.364 209.176 250.315 205.067 252.361 200.966C253.204 199.282 252.893 199.86 253.777 198.172" fill="white"/>
</mask>
<g mask="url(#mask0_676_12805)">
<path fill-rule="evenodd" clip-rule="evenodd" d="M268.556 234.448C266.755 238.809 265.037 243.204 263.405 247.631C261.774 252.058 260.229 256.516 258.77 261.003C257.312 265.49 255.941 270.005 254.658 274.546C253.375 279.086 252.18 283.651 251.074 288.237C249.968 292.824 248.951 297.432 248.024 302.058C247.908 302.639 247.793 303.22 247.679 303.802C247.541 304.508 246.463 304.209 246.6 303.504C247.505 298.874 248.499 294.261 249.582 289.669C250.666 285.077 251.839 280.506 253.1 275.96C254.361 271.413 255.71 266.892 257.146 262.398C258.583 257.904 260.106 253.437 261.716 249.003C263.325 244.568 265.021 240.164 266.802 235.795C267.026 235.246 267.251 234.698 267.477 234.151C267.593 233.872 267.848 233.673 268.165 233.76C268.429 233.833 268.672 234.167 268.556 234.448Z" fill="white"/>
</g>
<mask id="mask1_676_12805" style="mask-type:alpha" maskUnits="userSpaceOnUse" x="218" y="198" width="108" height="102">
<path fill-rule="evenodd" clip-rule="evenodd" d="M290.014 198.172L291.718 202.96C293.186 206.91 294.672 210.856 296.176 214.793C299.186 222.665 302.255 230.507 305.413 238.286C306.99 242.174 308.585 246.051 310.209 249.9C311.832 253.752 313.475 257.586 315.153 261.379C316.83 265.174 318.531 268.945 320.278 272.645C322.022 276.349 323.801 280.002 325.625 283.54L293.576 299.027C291.703 294.886 289.956 290.78 288.274 286.683C286.588 282.583 284.99 278.495 283.427 274.409C281.86 270.323 280.35 266.239 278.869 262.155C277.385 258.071 275.939 253.985 274.518 249.899C273.246 246.241 271.997 242.584 270.766 238.923C269.503 242.444 268.284 245.988 267.101 249.546C265.755 253.556 264.483 257.601 263.226 261.648C262.616 263.68 261.984 265.702 261.395 267.74L260.496 270.795L259.623 273.857C257.303 282.024 255.147 290.248 253.146 298.516L218.556 289.178C221.11 280.594 223.827 272.052 226.722 263.561L227.811 260.378L228.924 257.202C229.659 255.083 230.438 252.976 231.194 250.863C232.745 246.646 234.314 242.437 235.964 238.25C239.239 229.869 242.73 221.553 246.484 213.301C248.364 209.176 250.315 205.067 252.361 200.966C253.204 199.282 252.893 199.86 253.777 198.172" fill="white"/>
</mask>
<g mask="url(#mask1_676_12805)">
<path fill-rule="evenodd" clip-rule="evenodd" d="M265.794 223.146C263.668 227.964 261.635 232.823 259.698 237.72C257.76 242.617 255.917 247.551 254.169 252.518C252.421 257.485 250.768 262.486 249.212 267.517C247.655 272.548 246.195 277.609 244.833 282.695C243.471 287.782 242.207 292.895 241.041 298.031C240.896 298.67 240.753 299.309 240.61 299.949C240.454 300.651 239.375 300.354 239.531 299.651C240.679 294.487 241.924 289.344 243.269 284.228C244.614 279.111 246.057 274.021 247.599 268.96C249.133 263.922 250.763 258.914 252.49 253.939C254.224 248.941 256.054 243.976 257.979 239.049C259.905 234.121 261.926 229.231 264.038 224.382C264.3 223.781 264.563 223.181 264.827 222.581C264.95 222.303 265.352 222.243 265.593 222.38C265.88 222.544 265.915 222.871 265.794 223.146Z" fill="white"/>
</g>
<mask id="mask2_676_12805" style="mask-type:alpha" maskUnits="userSpaceOnUse" x="218" y="198" width="108" height="102">
<path fill-rule="evenodd" clip-rule="evenodd" d="M290.014 198.172L291.718 202.96C293.186 206.91 294.672 210.856 296.176 214.793C299.186 222.665 302.255 230.507 305.413 238.286C306.99 242.174 308.585 246.051 310.209 249.9C311.832 253.752 313.475 257.586 315.153 261.379C316.83 265.174 318.531 268.945 320.278 272.645C322.022 276.349 323.801 280.002 325.625 283.54L293.576 299.027C291.703 294.886 289.956 290.78 288.274 286.683C286.588 282.583 284.99 278.495 283.427 274.409C281.86 270.323 280.35 266.239 278.869 262.155C277.385 258.071 275.939 253.985 274.518 249.899C273.246 246.241 271.997 242.584 270.766 238.923C269.503 242.444 268.284 245.988 267.101 249.546C265.755 253.556 264.483 257.601 263.226 261.648C262.616 263.68 261.984 265.702 261.395 267.74L260.496 270.795L259.623 273.857C257.303 282.024 255.147 290.248 253.146 298.516L218.556 289.178C221.11 280.594 223.827 272.052 226.722 263.561L227.811 260.378L228.924 257.202C229.659 255.083 230.438 252.976 231.194 250.863C232.745 246.646 234.314 242.437 235.964 238.25C239.239 229.869 242.73 221.553 246.484 213.301C248.364 209.176 250.315 205.067 252.361 200.966C253.204 199.282 252.893 199.86 253.777 198.172" fill="white"/>
</mask>
<g mask="url(#mask2_676_12805)">
<path fill-rule="evenodd" clip-rule="evenodd" d="M265.296 203.888C262.424 209.738 259.685 215.653 257.052 221.615C254.291 227.863 251.645 234.163 249.097 240.501C246.508 246.943 244.019 253.425 241.625 259.942C239.264 266.372 236.996 272.836 234.829 279.334C232.759 285.542 230.781 291.78 228.915 298.053C228.69 298.809 228.467 299.566 228.245 300.324C228.043 301.013 226.963 300.72 227.166 300.026C228.997 293.77 230.943 287.547 232.982 281.356C235.125 274.847 237.371 268.372 239.711 261.931C242.092 255.378 244.569 248.86 247.147 242.383C249.686 236.001 252.322 229.658 255.069 223.364C257.697 217.342 260.428 211.364 263.292 205.451C263.636 204.741 263.982 204.032 264.33 203.323C264.648 202.677 265.613 203.243 265.296 203.888Z" fill="white"/>
</g>
<mask id="mask3_676_12805" style="mask-type:alpha" maskUnits="userSpaceOnUse" x="218" y="198" width="108" height="102">
<path fill-rule="evenodd" clip-rule="evenodd" d="M290.014 198.172L291.718 202.96C293.186 206.91 294.672 210.856 296.176 214.793C299.186 222.665 302.255 230.507 305.413 238.286C306.99 242.174 308.585 246.051 310.209 249.9C311.832 253.752 313.475 257.586 315.153 261.379C316.83 265.174 318.531 268.945 320.278 272.645C322.022 276.349 323.801 280.002 325.625 283.54L293.576 299.027C291.703 294.886 289.956 290.78 288.274 286.683C286.588 282.583 284.99 278.495 283.427 274.409C281.86 270.323 280.35 266.239 278.869 262.155C277.385 258.071 275.939 253.985 274.518 249.899C273.246 246.241 271.997 242.584 270.766 238.923C269.503 242.444 268.284 245.988 267.101 249.546C265.755 253.556 264.483 257.601 263.226 261.648C262.616 263.68 261.984 265.702 261.395 267.74L260.496 270.795L259.623 273.857C257.303 282.024 255.147 290.248 253.146 298.516L218.556 289.178C221.11 280.594 223.827 272.052 226.722 263.561L227.811 260.378L228.924 257.202C229.659 255.083 230.438 252.976 231.194 250.863C232.745 246.646 234.314 242.437 235.964 238.25C239.239 229.869 242.73 221.553 246.484 213.301C248.364 209.176 250.315 205.067 252.361 200.966C253.204 199.282 252.893 199.86 253.777 198.172" fill="white"/>
</mask>
<g mask="url(#mask3_676_12805)">
<path fill-rule="evenodd" clip-rule="evenodd" d="M262.699 195.354C259.643 201.824 256.674 208.335 253.782 214.88C250.815 221.597 247.93 228.35 245.122 235.134C242.279 242.001 239.515 248.9 236.829 255.83C234.176 262.676 231.6 269.552 229.106 276.458C226.664 283.217 224.301 290.006 222.03 296.825C221.758 297.644 221.486 298.464 221.216 299.284C220.992 299.965 219.91 299.673 220.138 298.987C222.377 292.191 224.708 285.425 227.117 278.688C229.608 271.729 232.183 264.8 234.836 257.901C237.504 250.965 240.25 244.058 243.075 237.184C245.871 230.377 248.743 223.602 251.696 216.862C254.593 210.249 257.567 203.67 260.63 197.133C260.996 196.351 261.364 195.57 261.732 194.789C262.04 194.138 263.005 194.705 262.699 195.354Z" fill="white"/>
</g>
<mask id="mask4_676_12805" style="mask-type:alpha" maskUnits="userSpaceOnUse" x="218" y="198" width="108" height="102">
<path fill-rule="evenodd" clip-rule="evenodd" d="M290.014 198.172L291.718 202.96C293.186 206.91 294.672 210.856 296.176 214.793C299.186 222.665 302.255 230.507 305.413 238.286C306.99 242.174 308.585 246.051 310.209 249.9C311.832 253.752 313.475 257.586 315.153 261.379C316.83 265.174 318.531 268.945 320.278 272.645C322.022 276.349 323.801 280.002 325.625 283.54L293.576 299.027C291.703 294.886 289.956 290.78 288.274 286.683C286.588 282.583 284.99 278.495 283.427 274.409C281.86 270.323 280.35 266.239 278.869 262.155C277.385 258.071 275.939 253.985 274.518 249.899C273.246 246.241 271.997 242.584 270.766 238.923C269.503 242.444 268.284 245.988 267.101 249.546C265.755 253.556 264.483 257.601 263.226 261.648C262.616 263.68 261.984 265.702 261.395 267.74L260.496 270.795L259.623 273.857C257.303 282.024 255.147 290.248 253.146 298.516L218.556 289.178C221.11 280.594 223.827 272.052 226.722 263.561L227.811 260.378L228.924 257.202C229.659 255.083 230.438 252.976 231.194 250.863C232.745 246.646 234.314 242.437 235.964 238.25C239.239 229.869 242.73 221.553 246.484 213.301C248.364 209.176 250.315 205.067 252.361 200.966C253.204 199.282 252.893 199.86 253.777 198.172" fill="white"/>
</mask>
<g mask="url(#mask4_676_12805)">
<path fill-rule="evenodd" clip-rule="evenodd" d="M258.226 194.631C255.256 200.697 252.32 206.78 249.419 212.879C246.518 218.979 243.651 225.095 240.82 231.227C237.988 237.359 235.192 243.507 232.43 249.671C229.669 255.835 226.943 262.015 224.251 268.21C221.554 274.417 218.894 280.64 216.269 286.878C215.946 287.645 215.624 288.413 215.302 289.181C215.184 289.462 214.933 289.656 214.614 289.572C214.35 289.502 214.106 289.162 214.223 288.884C216.84 282.638 219.493 276.407 222.182 270.192C224.874 263.964 227.605 257.752 230.369 251.556C233.121 245.388 235.908 239.235 238.73 233.099C241.566 226.934 244.436 220.786 247.342 214.655C250.247 208.523 253.188 202.408 256.163 196.31C256.528 195.562 256.894 194.814 257.26 194.066C257.577 193.419 258.542 193.986 258.226 194.631Z" fill="white"/>
</g>
<mask id="mask5_676_12805" style="mask-type:alpha" maskUnits="userSpaceOnUse" x="218" y="198" width="108" height="102">
<path fill-rule="evenodd" clip-rule="evenodd" d="M290.014 198.172L291.718 202.96C293.186 206.91 294.672 210.856 296.176 214.793C299.186 222.665 302.255 230.507 305.413 238.286C306.99 242.174 308.585 246.051 310.209 249.9C311.832 253.752 313.475 257.586 315.153 261.379C316.83 265.174 318.531 268.945 320.278 272.645C322.022 276.349 323.801 280.002 325.625 283.54L293.576 299.027C291.703 294.886 289.956 290.78 288.274 286.683C286.588 282.583 284.99 278.495 283.427 274.409C281.86 270.323 280.35 266.239 278.869 262.155C277.385 258.071 275.939 253.985 274.518 249.899C273.246 246.241 271.997 242.584 270.766 238.923C269.503 242.444 268.284 245.988 267.101 249.546C265.755 253.556 264.483 257.601 263.226 261.648C262.616 263.68 261.984 265.702 261.395 267.74L260.496 270.795L259.623 273.857C257.303 282.024 255.147 290.248 253.146 298.516L218.556 289.178C221.11 280.594 223.827 272.052 226.722 263.561L227.811 260.378L228.924 257.202C229.659 255.083 230.438 252.976 231.194 250.863C232.745 246.646 234.314 242.437 235.964 238.25C239.239 229.869 242.73 221.553 246.484 213.301C248.364 209.176 250.315 205.067 252.361 200.966C253.204 199.282 252.893 199.86 253.777 198.172" fill="white"/>
</mask>
<g mask="url(#mask5_676_12805)">
<path fill-rule="evenodd" clip-rule="evenodd" d="M261.808 192.621C263.629 198.231 265.488 203.829 267.344 209.427C269.631 216.321 271.924 223.214 274.212 230.108C276.108 235.823 278.006 241.537 279.869 247.263C282.802 256.279 285.715 265.303 288.953 274.216C292.297 283.417 295.985 292.503 300.354 301.269C300.885 302.335 301.427 303.396 301.978 304.452C302.311 305.09 301.345 305.656 301.012 305.017C296.485 296.342 292.658 287.32 289.222 278.163C285.783 269 282.731 259.698 279.709 250.391C277.821 244.579 275.908 238.776 273.985 232.976C271.695 226.069 269.398 219.164 267.106 212.257C265.144 206.345 263.18 200.434 261.248 194.512C261.074 193.981 260.902 193.45 260.729 192.918C260.506 192.231 261.586 191.937 261.808 192.621Z" fill="white"/>
</g>
<mask id="mask6_676_12805" style="mask-type:alpha" maskUnits="userSpaceOnUse" x="218" y="198" width="108" height="102">
<path fill-rule="evenodd" clip-rule="evenodd" d="M290.014 198.172L291.718 202.96C293.186 206.91 294.672 210.856 296.176 214.793C299.186 222.665 302.255 230.507 305.413 238.286C306.99 242.174 308.585 246.051 310.209 249.9C311.832 253.752 313.475 257.586 315.153 261.379C316.83 265.174 318.531 268.945 320.278 272.645C322.022 276.349 323.801 280.002 325.625 283.54L293.576 299.027C291.703 294.886 289.956 290.78 288.274 286.683C286.588 282.583 284.99 278.495 283.427 274.409C281.86 270.323 280.35 266.239 278.869 262.155C277.385 258.071 275.939 253.985 274.518 249.899C273.246 246.241 271.997 242.584 270.766 238.923C269.503 242.444 268.284 245.988 267.101 249.546C265.755 253.556 264.483 257.601 263.226 261.648C262.616 263.68 261.984 265.702 261.395 267.74L260.496 270.795L259.623 273.857C257.303 282.024 255.147 290.248 253.146 298.516L218.556 289.178C221.11 280.594 223.827 272.052 226.722 263.561L227.811 260.378L228.924 257.202C229.659 255.083 230.438 252.976 231.194 250.863C232.745 246.646 234.314 242.437 235.964 238.25C239.239 229.869 242.73 221.553 246.484 213.301C248.364 209.176 250.315 205.067 252.361 200.966C253.204 199.282 252.893 199.86 253.777 198.172" fill="white"/>
</mask>
<g mask="url(#mask6_676_12805)">
<path fill-rule="evenodd" clip-rule="evenodd" d="M266.722 193.9C269.118 200.775 271.559 207.635 274.038 214.481C276.619 221.611 279.241 228.727 281.9 235.829C284.581 242.991 287.3 250.139 290.056 257.273C292.784 264.336 295.549 271.386 298.353 278.419C301.065 285.223 303.814 292.012 306.607 298.783C306.949 299.613 307.292 300.442 307.635 301.271C307.91 301.935 306.828 302.225 306.556 301.568C303.77 294.842 301.027 288.097 298.321 281.337C295.503 274.297 292.724 267.241 289.983 260.17C287.218 253.04 284.491 245.896 281.8 238.737C279.136 231.649 276.509 224.547 273.921 217.431C271.418 210.548 268.952 203.651 266.531 196.738C266.234 195.891 265.938 195.044 265.643 194.197C265.406 193.516 266.486 193.223 266.722 193.9Z" fill="white"/>
</g>
<mask id="mask7_676_12805" style="mask-type:alpha" maskUnits="userSpaceOnUse" x="218" y="198" width="108" height="102">
<path fill-rule="evenodd" clip-rule="evenodd" d="M290.014 198.172L291.718 202.96C293.186 206.91 294.672 210.856 296.176 214.793C299.186 222.665 302.255 230.507 305.413 238.286C306.99 242.174 308.585 246.051 310.209 249.9C311.832 253.752 313.475 257.586 315.153 261.379C316.83 265.174 318.531 268.945 320.278 272.645C322.022 276.349 323.801 280.002 325.625 283.54L293.576 299.027C291.703 294.886 289.956 290.78 288.274 286.683C286.588 282.583 284.99 278.495 283.427 274.409C281.86 270.323 280.35 266.239 278.869 262.155C277.385 258.071 275.939 253.985 274.518 249.899C273.246 246.241 271.997 242.584 270.766 238.923C269.503 242.444 268.284 245.988 267.101 249.546C265.755 253.556 264.483 257.601 263.226 261.648C262.616 263.68 261.984 265.702 261.395 267.74L260.496 270.795L259.623 273.857C257.303 282.024 255.147 290.248 253.146 298.516L218.556 289.178C221.11 280.594 223.827 272.052 226.722 263.561L227.811 260.378L228.924 257.202C229.659 255.083 230.438 252.976 231.194 250.863C232.745 246.646 234.314 242.437 235.964 238.25C239.239 229.869 242.73 221.553 246.484 213.301C248.364 209.176 250.315 205.067 252.361 200.966C253.204 199.282 252.893 199.86 253.777 198.172" fill="white"/>
</mask>
<g mask="url(#mask7_676_12805)">
<path fill-rule="evenodd" clip-rule="evenodd" d="M274.458 194.199C276.195 200.494 278.081 206.748 280.096 212.96C282.168 219.35 284.377 225.696 286.709 231.996C289.065 238.359 291.548 244.676 294.154 250.941C296.733 257.14 299.436 263.287 302.265 269.375C305.03 275.324 307.916 281.217 310.94 287.039C311.31 287.751 311.682 288.462 312.055 289.171C312.391 289.808 311.425 290.374 311.089 289.736C308.033 283.932 305.114 278.057 302.32 272.123C299.46 266.049 296.729 259.915 294.119 253.73C291.471 247.456 288.946 241.13 286.549 234.756C284.179 228.454 281.933 222.105 279.82 215.711C277.753 209.455 275.814 203.156 274.025 196.814C273.808 196.042 273.592 195.27 273.379 194.497C273.187 193.801 274.266 193.505 274.458 194.199Z" fill="white"/>
</g>
<mask id="mask8_676_12805" style="mask-type:alpha" maskUnits="userSpaceOnUse" x="218" y="198" width="108" height="102">
<path fill-rule="evenodd" clip-rule="evenodd" d="M290.014 198.172L291.718 202.96C293.186 206.91 294.672 210.856 296.176 214.793C299.186 222.665 302.255 230.507 305.413 238.286C306.99 242.174 308.585 246.051 310.209 249.9C311.832 253.752 313.475 257.586 315.153 261.379C316.83 265.174 318.531 268.945 320.278 272.645C322.022 276.349 323.801 280.002 325.625 283.54L293.576 299.027C291.703 294.886 289.956 290.78 288.274 286.683C286.588 282.583 284.99 278.495 283.427 274.409C281.86 270.323 280.35 266.239 278.869 262.155C277.385 258.071 275.939 253.985 274.518 249.899C273.246 246.241 271.997 242.584 270.766 238.923C269.503 242.444 268.284 245.988 267.101 249.546C265.755 253.556 264.483 257.601 263.226 261.648C262.616 263.68 261.984 265.702 261.395 267.74L260.496 270.795L259.623 273.857C257.303 282.024 255.147 290.248 253.146 298.516L218.556 289.178C221.11 280.594 223.827 272.052 226.722 263.561L227.811 260.378L228.924 257.202C229.659 255.083 230.438 252.976 231.194 250.863C232.745 246.646 234.314 242.437 235.964 238.25C239.239 229.869 242.73 221.553 246.484 213.301C248.364 209.176 250.315 205.067 252.361 200.966C253.204 199.282 252.893 199.86 253.777 198.172" fill="#70D2FF"/>
</mask>
<g mask="url(#mask8_676_12805)">
<path fill-rule="evenodd" clip-rule="evenodd" d="M283.999 194.199C286.419 200.37 288.838 206.541 291.258 212.712L298.738 231.785C301.242 238.172 303.746 244.558 306.251 250.945C308.749 257.315 311.247 263.686 313.745 270.056C316.175 276.252 318.605 282.449 321.035 288.645C321.332 289.405 321.63 290.164 321.928 290.923C322.191 291.594 321.109 291.885 320.849 291.221C318.429 285.05 316.009 278.878 313.589 272.707C311.096 266.349 308.603 259.992 306.11 253.634C303.605 247.248 301.101 240.861 298.597 234.475C296.099 228.104 293.601 221.734 291.103 215.363C288.673 209.167 286.243 202.97 283.813 196.774C283.515 196.015 283.217 195.255 282.92 194.496C282.657 193.825 283.738 193.535 283.999 194.199Z" fill="white"/>
</g>
<path fill-rule="evenodd" clip-rule="evenodd" d="M225.88 296.956C228.258 298.138 231.087 299.211 234.183 300.044C236.712 300.725 239.168 301.178 241.427 301.411C247.704 302.066 252.473 301.038 253.146 298.534C253.804 296.089 250.375 292.9 244.847 290.345C244.028 289.966 243.163 289.603 242.26 289.256C241.324 288.898 240.345 288.558 239.33 288.245C238.734 288.058 238.122 287.883 237.501 287.715C234.937 287.025 232.447 286.568 230.162 286.337C223.933 285.703 219.208 286.732 218.538 289.224C217.919 291.525 220.92 294.485 225.88 296.956Z" fill="#363636"/>
<mask id="mask9_676_12805" style="mask-type:alpha" maskUnits="userSpaceOnUse" x="293" y="281" width="33" height="20">
<path fill-rule="evenodd" clip-rule="evenodd" d="M325.977 281.863H293.208V300.801H325.977V281.863Z" fill="white"/>
</mask>
<g mask="url(#mask9_676_12805)">
<path fill-rule="evenodd" clip-rule="evenodd" d="M293.429 298.803C294.307 300.713 297.653 301.226 302.103 300.459C302.198 300.442 302.293 300.426 302.39 300.407C302.761 300.34 303.142 300.263 303.528 300.178C306.204 299.586 309.199 298.579 312.25 297.175C314.41 296.181 316.403 295.073 318.16 293.919C318.281 293.841 318.401 293.76 318.518 293.68C318.74 293.531 318.956 293.382 319.169 293.233C324.05 289.799 326.802 286.082 325.756 283.807C324.663 281.433 319.74 281.295 313.63 283.057C313.574 283.072 313.518 283.089 313.46 283.106C313.212 283.179 312.962 283.253 312.712 283.332C312.496 283.399 312.28 283.47 312.06 283.54C311.543 283.712 311.019 283.895 310.491 284.091C310.281 284.169 310.07 284.249 309.857 284.331C309.592 284.432 309.328 284.538 309.061 284.646C308.873 284.723 308.684 284.801 308.494 284.88C308.153 285.023 307.811 285.172 307.468 285.325C307.284 285.405 307.099 285.489 306.914 285.575C306.769 285.642 306.622 285.709 306.478 285.778C304.46 286.73 302.597 287.772 300.943 288.852C300.866 288.902 300.79 288.953 300.715 289.003C300.713 289.003 300.713 289.005 300.712 289.005C300.454 289.176 300.201 289.346 299.954 289.519C295.109 292.903 292.386 296.534 293.429 298.803Z" fill="#363636"/>
</g>
<path fill-rule="evenodd" clip-rule="evenodd" d="M227.224 313.219L233.957 305.939L230.842 316.851H236.935L241.331 301.76L241.431 301.411L242.548 297.583L244.852 290.345C242.685 289.343 240.197 288.439 237.506 287.715C234.941 287.025 232.452 286.568 230.167 286.337C229.544 288.081 228.686 290.559 227.94 292.389C227.39 293.744 226.799 295.1 226.176 296.374C226.081 296.57 225.984 296.764 225.885 296.956C225.083 298.539 224.231 299.971 223.338 301.087C221.525 303.349 217.916 306.336 215.21 307.773C205.725 312.808 202.832 316.851 202.832 316.851H217.843C220.5 316.851 223.097 316.121 225.354 314.755C226.047 314.335 226.673 313.814 227.224 313.219Z" fill="#33BEFD"/>
<mask id="mask10_676_12805" style="mask-type:alpha" maskUnits="userSpaceOnUse" x="285" y="283" width="41" height="34">
<path fill-rule="evenodd" clip-rule="evenodd" d="M325.461 283.058H285.588V316.85H325.461V283.058Z" fill="white"/>
</mask>
<g mask="url(#mask10_676_12805)">
<path fill-rule="evenodd" clip-rule="evenodd" d="M285.588 316.85L305.162 316.84C306.39 316.84 307.591 316.473 308.611 315.788L309.812 314.982C312.365 313.268 314.092 310.567 314.575 307.529L315.864 299.443L320.841 307.619L325.461 304.59L319.432 293.68L319.187 293.233L313.648 283.058C313.592 283.073 313.537 283.089 313.479 283.106C313.231 283.179 312.981 283.254 312.731 283.332C312.514 283.399 312.296 283.47 312.078 283.541C311.562 283.712 311.037 283.895 310.51 284.091C310.299 284.169 310.088 284.249 309.876 284.331C309.611 284.432 309.346 284.538 309.079 284.646C308.891 284.723 308.703 284.801 308.512 284.88C308.171 285.023 307.83 285.172 307.487 285.325C307.302 285.406 307.117 285.49 306.933 285.575C306.787 285.642 306.64 285.71 306.496 285.779C304.479 286.73 302.615 287.772 300.961 288.852C300.885 288.902 300.808 288.953 300.734 289.003C300.732 289.003 300.732 289.005 300.73 289.005C300.745 289.039 300.763 289.081 300.79 289.136C301.552 290.95 303.587 295.98 303.567 299.615C303.565 299.807 303.559 299.995 303.546 300.178C303.54 300.256 303.535 300.333 303.527 300.407C302.709 309.239 289.206 309.477 285.588 316.85Z" fill="#33BEFD"/>
</g>
<path fill-rule="evenodd" clip-rule="evenodd" d="M270.75 238.93C270.75 238.93 267.894 228.77 264.64 217.337C264.545 217.006 264.053 217.108 264.097 217.449L267.944 246.814L270.75 238.93Z" fill="#363636"/>
<path d="M283.044 198.124C283.018 198.025 282.916 197.965 282.817 197.99C282.717 198.016 282.657 198.118 282.683 198.218L282.866 198.922C283.257 200.415 283.722 202.127 284.251 204.014L284.354 204.381C287.215 214.552 290.849 225.949 295.262 237.964C301.196 254.122 307.927 269.687 315.461 284.054C315.509 284.145 315.621 284.18 315.713 284.133C315.804 284.085 315.839 283.972 315.791 283.881C308.265 269.529 301.541 253.979 295.612 237.836L295.334 237.078C291.096 225.478 287.588 214.468 284.804 204.601L284.509 203.551C283.938 201.509 283.446 199.679 283.044 198.124Z" fill="#363636"/>
<path d="M264.384 217.204C264.292 217.156 264.18 217.192 264.132 217.283L263.942 217.656L263.793 217.953C263.516 218.503 263.196 219.152 262.835 219.896L262.522 220.544C261.599 222.462 260.589 224.635 259.51 227.042L259.418 227.249C255.883 235.151 252.349 243.916 249.05 253.305C245.006 264.817 241.601 276.471 239.043 288.058C239.021 288.158 239.084 288.258 239.185 288.28C239.285 288.302 239.385 288.239 239.407 288.138C241.962 276.567 245.362 264.927 249.402 253.429C252.697 244.05 256.228 235.295 259.758 227.401L260.035 226.785C261.135 224.34 262.161 222.144 263.093 220.219L263.392 219.603C263.573 219.233 263.742 218.89 263.899 218.574L264.218 217.937L264.463 217.455C264.511 217.364 264.475 217.251 264.384 217.204Z" fill="#363636"/>
<path d="M237.197 282.736C232.163 281.682 226.653 281.508 220.664 282.371C220.561 282.386 220.491 282.48 220.506 282.582C220.521 282.684 220.615 282.755 220.717 282.74C226.664 281.883 232.129 282.056 237.121 283.101C241.231 283.962 244.879 285.383 248.07 287.208C249.987 288.304 251.621 289.477 252.975 290.65C253.419 291.035 253.802 291.393 254.125 291.717L254.273 291.868C254.354 291.952 254.426 292.029 254.489 292.097L254.571 292.188C254.577 292.195 254.582 292.201 254.586 292.205C254.653 292.283 254.771 292.292 254.849 292.225C254.927 292.158 254.936 292.04 254.869 291.962L254.842 291.931C254.82 291.906 254.794 291.878 254.764 291.844L254.696 291.771C254.625 291.695 254.544 291.612 254.454 291.52C254.112 291.172 253.7 290.785 253.219 290.368C251.847 289.18 250.194 287.992 248.255 286.884C245.031 285.04 241.347 283.605 237.197 282.736Z" fill="#363636"/>
<path d="M322.263 277.366L322.217 277.364C320.336 277.294 317.823 277.416 314.905 277.885C310.504 278.594 306.155 279.962 302.089 282.146C297.659 284.525 293.782 287.765 290.616 291.97C290.554 292.052 290.571 292.169 290.653 292.231C290.735 292.293 290.852 292.277 290.914 292.194C294.046 288.034 297.882 284.829 302.266 282.475C306.293 280.312 310.602 278.956 314.964 278.254C317.806 277.796 320.259 277.672 322.107 277.734L322.203 277.737C322.264 277.739 322.319 277.742 322.369 277.744L322.519 277.753C322.622 277.76 322.711 277.682 322.718 277.58C322.725 277.477 322.648 277.388 322.545 277.38L322.46 277.375C322.403 277.372 322.337 277.369 322.263 277.366Z" fill="#363636"/>
<path d="M264.883 197.984C264.786 197.982 264.704 198.054 264.693 198.149L264.692 198.167L264.504 206.484C264.413 208.123 265.719 209.502 267.36 209.502C267.463 209.502 267.547 209.418 267.547 209.315C267.547 209.212 267.463 209.129 267.36 209.129C265.948 209.129 264.822 207.955 264.874 206.545L264.876 206.499L265.065 198.175C265.067 198.072 264.986 197.987 264.883 197.984Z" fill="#363636"/>
<path d="M277.355 198.085C277.307 197.994 277.195 197.958 277.103 198.005C277.012 198.053 276.976 198.165 277.023 198.257C278.027 200.191 279.588 201.757 281.485 202.989C282.163 203.429 282.841 203.797 283.494 204.099C283.702 204.196 283.898 204.28 284.078 204.354L284.155 204.385C284.245 204.421 284.323 204.45 284.387 204.474L284.474 204.505C284.488 204.511 284.501 204.515 284.51 204.517C284.61 204.542 284.712 204.481 284.737 204.381C284.76 204.288 284.708 204.193 284.619 204.161L284.604 204.156L284.516 204.124C284.454 204.101 284.38 204.073 284.293 204.038C284.098 203.96 283.883 203.868 283.65 203.761C283.013 203.466 282.35 203.106 281.688 202.676C279.841 201.477 278.325 199.956 277.355 198.085Z" fill="#363636"/>
<path d="M231.314 314.697C231.211 314.697 231.128 314.781 231.128 314.884C231.128 314.981 231.202 315.06 231.296 315.069L231.314 315.07H237.509C237.612 315.07 237.695 314.987 237.695 314.884C237.695 314.787 237.621 314.707 237.527 314.698L237.509 314.697H231.314Z" fill="#363636"/>
<path d="M204.869 314.697C204.767 314.697 204.683 314.781 204.683 314.884C204.683 314.981 204.757 315.06 204.851 315.069L204.869 315.07H225.127C225.229 315.07 225.312 314.987 225.312 314.884C225.312 314.787 225.239 314.707 225.145 314.698L225.127 314.697H204.869Z" fill="#363636"/>
<path d="M228.428 291.079C228.329 291.051 228.226 291.109 228.198 291.208C228.172 291.301 228.221 291.398 228.309 291.432L228.327 291.438L231.255 292.263C231.354 292.29 231.457 292.233 231.485 292.133C231.511 292.041 231.462 291.944 231.374 291.909L231.356 291.903L228.428 291.079Z" fill="#363636"/>
<path d="M227.381 293.665C227.281 293.637 227.179 293.695 227.151 293.794C227.125 293.887 227.175 293.984 227.262 294.018L227.28 294.024L230.208 294.848C230.307 294.876 230.41 294.818 230.438 294.719C230.464 294.626 230.415 294.53 230.327 294.495L230.309 294.489L227.381 293.665Z" fill="#363636"/>
<path d="M226.193 296.601C226.095 296.573 225.992 296.631 225.964 296.73C225.938 296.823 225.986 296.919 226.075 296.954L226.093 296.96L229.021 297.784C229.12 297.812 229.223 297.754 229.251 297.655C229.277 297.562 229.228 297.466 229.14 297.431L229.122 297.425L226.193 296.601Z" fill="#363636"/>
<path d="M224.687 299.198C224.587 299.17 224.484 299.228 224.456 299.327C224.43 299.42 224.478 299.517 224.567 299.551L224.585 299.558L227.513 300.382C227.612 300.409 227.715 300.352 227.743 300.253C227.769 300.16 227.721 300.063 227.632 300.028L227.614 300.023L224.687 299.198Z" fill="#363636"/>
<path d="M222.881 301.862C222.782 301.834 222.679 301.891 222.65 301.991C222.625 302.084 222.674 302.18 222.761 302.214L222.779 302.221L225.708 303.045C225.808 303.073 225.911 303.015 225.938 302.916C225.965 302.823 225.915 302.726 225.827 302.692L225.809 302.686L222.881 301.862Z" fill="#363636"/>
<path d="M305.119 291.286C305.083 291.196 304.985 291.15 304.895 291.176L304.877 291.182L302.055 292.319C301.959 292.357 301.913 292.466 301.951 292.561C301.988 292.651 302.085 292.697 302.176 292.671L302.194 292.665L305.016 291.529C305.111 291.49 305.158 291.381 305.119 291.286Z" fill="#363636"/>
<path d="M305.869 293.973C305.833 293.884 305.735 293.838 305.645 293.864L305.627 293.87L302.805 295.006C302.709 295.045 302.663 295.153 302.701 295.249C302.738 295.338 302.835 295.385 302.926 295.358L302.944 295.352L305.766 294.216C305.861 294.178 305.908 294.069 305.869 293.973Z" fill="#363636"/>
<path d="M306.722 297.552C306.702 297.458 306.614 297.395 306.52 297.405L306.501 297.408L303.49 298.049C303.389 298.07 303.325 298.169 303.346 298.27C303.366 298.364 303.455 298.427 303.548 298.416L303.567 298.414L306.579 297.773C306.68 297.752 306.744 297.653 306.722 297.552Z" fill="#363636"/>
<path d="M303.508 300.886C303.405 300.882 303.318 300.962 303.314 301.065C303.31 301.162 303.381 301.245 303.475 301.257L303.493 301.259L306.533 301.377C306.636 301.381 306.723 301.301 306.726 301.198C306.73 301.101 306.659 301.019 306.565 301.006L306.547 301.004L303.508 300.886Z" fill="#363636"/>
<path d="M302.501 303.783C302.403 303.752 302.298 303.806 302.267 303.905C302.238 303.997 302.284 304.095 302.371 304.132L302.388 304.139L305.288 305.058C305.387 305.089 305.491 305.034 305.523 304.936C305.552 304.844 305.506 304.746 305.419 304.709L305.401 304.702L302.501 303.783Z" fill="#363636"/>
<path d="M324.744 302.831C324.692 302.749 324.588 302.721 324.503 302.764L324.487 302.773L319.755 305.782C319.669 305.837 319.643 305.952 319.698 306.039C319.75 306.121 319.855 306.148 319.939 306.106L319.956 306.096L324.687 303.088C324.774 303.033 324.8 302.917 324.744 302.831Z" fill="#363636"/>
<path d="M313.379 310.9C313.329 310.818 313.225 310.788 313.14 310.829L313.123 310.838L310.099 312.676C307.847 313.989 305.292 314.691 302.687 314.713L302.56 314.713H287.044C286.941 314.713 286.858 314.797 286.858 314.9C286.858 314.997 286.932 315.076 287.026 315.085L287.044 315.086H302.56C305.233 315.086 307.858 314.388 310.179 313.06L310.29 312.996L313.317 311.156C313.405 311.103 313.433 310.988 313.379 310.9Z" fill="#363636"/>
<path d="M311.27 283.912C311.219 283.822 311.105 283.791 311.016 283.842C310.932 283.89 310.899 283.993 310.938 284.079L310.946 284.096L314.682 290.657C315.091 291.377 314.835 292.293 314.112 292.697C313.886 292.823 313.636 292.887 313.385 292.887C312.851 292.887 312.354 292.602 312.086 292.131L312.064 292.091L308.358 285.062C308.31 284.971 308.198 284.936 308.106 284.984C308.021 285.029 307.985 285.131 308.02 285.219L308.028 285.236L311.734 292.265C312.062 292.884 312.699 293.26 313.385 293.26C313.699 293.26 314.011 293.18 314.293 293.023C315.185 292.525 315.508 291.406 315.028 290.512L315.006 290.472L311.27 283.912Z" fill="#363636"/>
<path d="M239.392 288.125C239.301 288.093 239.202 288.135 239.161 288.22L239.153 288.238L236.453 295.717C236.378 295.921 236.341 296.137 236.341 296.354C236.341 297.147 236.848 297.863 237.614 298.119C238.584 298.444 239.631 297.929 239.966 296.97L239.98 296.928L242.436 289.369C242.468 289.271 242.414 289.166 242.316 289.134C242.225 289.104 242.126 289.15 242.088 289.236L242.081 289.254L239.625 296.813C239.37 297.602 238.52 298.029 237.732 297.766C237.119 297.561 236.714 296.988 236.714 296.354C236.714 296.199 236.738 296.046 236.785 295.899L236.804 295.844L239.504 288.364C239.539 288.267 239.489 288.16 239.392 288.125Z" fill="#363636"/>
<path fill-rule="evenodd" clip-rule="evenodd" d="M295.375 197.923L294.756 167.898C294.066 162.202 289.131 157.983 283.397 158.189L262.92 158.744C257.987 158.921 253.771 162.35 252.592 167.142L246.607 197.923H295.375Z" fill="#FFA4EA"/>
<mask id="mask11_676_12805" style="mask-type:alpha" maskUnits="userSpaceOnUse" x="219" y="123" width="107" height="90">
<path fill-rule="evenodd" clip-rule="evenodd" d="M325.727 123.806H219.08V212.989H325.727V123.806Z" fill="white"/>
</mask>
<g mask="url(#mask11_676_12805)">
<path fill-rule="evenodd" clip-rule="evenodd" d="M318.038 207.171L318.449 205.921L319.242 203.42C319.756 201.749 320.265 200.076 320.748 198.392C321.23 196.708 321.708 195.019 322.157 193.315C322.606 191.611 323.042 189.897 323.456 188.162C323.864 186.426 324.249 184.671 324.601 182.872C324.777 181.973 324.945 181.061 325.097 180.129C325.246 179.195 325.383 178.242 325.495 177.241C325.606 176.236 325.699 175.199 325.723 173.998C325.728 173.696 325.729 173.384 325.72 173.05C325.713 172.718 325.696 172.366 325.664 171.978C325.631 171.59 325.586 171.177 325.5 170.686C325.411 170.194 325.293 169.638 325.048 168.925L324.943 168.64L324.888 168.498C324.87 168.452 324.85 168.403 324.826 168.347C324.781 168.24 324.734 168.134 324.686 168.029L324.61 167.867L324.52 167.689C324.458 167.569 324.397 167.455 324.329 167.335C324.252 167.202 324.173 167.071 324.09 166.942L323.971 166.759L323.889 166.642L323.722 166.41C323.489 166.089 323.273 165.841 323.041 165.579C322.981 165.512 322.928 165.455 322.874 165.4L322.709 165.231L322.542 165.065C322.486 165.01 322.428 164.954 322.377 164.909C321.513 164.115 320.74 163.607 320.04 163.193C319.339 162.783 318.703 162.478 318.1 162.214C317.495 161.95 316.935 161.741 316.386 161.547C315.292 161.165 314.276 160.881 313.285 160.629C312.296 160.378 311.34 160.172 310.397 159.984C308.514 159.612 306.69 159.326 304.885 159.077C301.281 158.585 297.758 158.235 294.255 157.942C290.754 157.657 287.279 157.428 283.817 157.221L278.635 156.928L277.298 156.858L275.925 156.802C275.014 156.771 274.106 156.745 273.203 156.734C269.592 156.69 266.046 156.77 262.542 156.896C259.038 157.023 255.575 157.2 252.156 157.368C248.741 157.539 245.361 157.716 242.083 157.792C240.447 157.829 238.835 157.842 237.294 157.803C236.524 157.784 235.774 157.751 235.059 157.701C234.345 157.651 236.649 153.111 237.312 151.618C238.629 148.623 240.067 145.607 241.533 142.592C242.273 141.088 243.009 139.576 243.767 138.075L244.898 135.82L246.02 133.6L246.069 133.503C247.734 130.208 246.413 126.186 243.118 124.521C239.991 122.941 236.198 124.071 234.396 127.004L233.695 128.153L233.014 129.283L231.681 131.55C230.808 133.07 229.936 134.591 229.094 136.133C227.399 139.213 225.767 142.341 224.208 145.58C223.435 147.205 222.68 148.857 221.955 150.58C221.592 151.443 221.237 152.325 220.9 153.246C220.561 154.17 220.233 155.123 219.927 156.181C219.774 156.713 219.627 157.265 219.491 157.883C219.358 158.5 219.23 159.167 219.147 160.002C219.107 160.421 219.075 160.88 219.082 161.44C219.091 162.003 219.122 162.647 219.308 163.529C219.359 163.759 219.408 163.97 219.488 164.236C219.527 164.365 219.565 164.484 219.61 164.619C219.66 164.76 219.713 164.901 219.768 165.041C219.798 165.112 219.823 165.175 219.857 165.253L219.963 165.486L220.074 165.715C220.114 165.794 220.147 165.862 220.197 165.95C220.289 166.117 220.386 166.282 220.487 166.444C220.547 166.538 220.584 166.595 220.606 166.626L220.691 166.751C221.154 167.422 221.662 167.983 222.16 168.446C222.659 168.909 223.148 169.279 223.612 169.588C224.078 169.898 224.512 170.14 224.928 170.35C225.344 170.56 225.738 170.734 226.109 170.881C226.484 171.03 226.84 171.157 227.181 171.266C227.866 171.488 228.494 171.648 229.095 171.782C229.696 171.916 230.264 172.019 230.814 172.106C231.914 172.279 232.943 172.387 233.941 172.467C234.937 172.545 235.902 172.595 236.847 172.627C238.738 172.691 240.561 172.69 242.356 172.665C245.943 172.611 249.423 172.465 252.865 172.314C256.305 172.156 259.7 171.996 263.058 171.886C266.415 171.777 269.735 171.717 272.99 171.769C273.803 171.781 274.612 171.797 275.416 171.823L276.616 171.869L277.85 171.928L282.951 172.199C286.344 172.389 289.721 172.601 293.064 172.862C296.404 173.118 299.72 173.412 302.922 173.822C304.52 174.026 306.091 174.26 307.579 174.54C308.32 174.68 309.044 174.83 309.72 174.995C310.166 175.103 310.596 175.217 310.989 175.333C311.191 175.393 311 175.008 310.932 175.71C310.865 176.417 310.772 177.165 310.662 177.928C310.555 178.692 310.436 179.473 310.302 180.262C310.038 181.841 309.728 183.449 309.398 185.065C309.074 186.683 308.725 188.311 308.359 189.942C307.992 191.572 307.624 193.21 307.235 194.847C306.847 196.484 306.461 198.125 306.057 199.762L304.858 204.643L304.833 204.744C303.957 208.315 306.14 211.92 309.711 212.797C313.096 213.629 316.519 211.685 317.613 208.442L318.038 207.171Z" fill="#773E2A"/>
</g>
<path fill-rule="evenodd" clip-rule="evenodd" d="M309.428 199.457C309.428 199.457 298.343 208.229 299.891 209.95C302.022 212.319 310.281 204.088 310.281 204.088L309.428 199.457Z" fill="#773E2A"/>
<path fill-rule="evenodd" clip-rule="evenodd" d="M287.806 226.671L294.535 229.466L299.522 231.537L302.224 232.661L312.737 237.027C313.38 237.294 314.117 236.988 314.383 236.346L318.643 226.089L319.559 223.887L321.705 218.717L321.935 218.165C322.201 217.523 321.897 216.785 321.256 216.518L315.461 214.112L296.325 206.164C295.682 205.897 294.945 206.201 294.678 206.845L287.349 224.489L287.127 225.024C286.861 225.668 287.165 226.404 287.806 226.671Z" fill="#363636"/>
<path fill-rule="evenodd" clip-rule="evenodd" d="M289.057 225.81L311.782 235.249L319.32 217.101L296.595 207.662L289.057 225.81Z" fill="#99DBF9"/>
<path fill-rule="evenodd" clip-rule="evenodd" d="M289.057 225.809L290.285 222.853L316.701 216.013L319.32 217.101L315.867 225.414L297.857 229.465L289.057 225.809Z" fill="#DFE9FF"/>
<path fill-rule="evenodd" clip-rule="evenodd" d="M314.07 214.92L291.471 220.002L293.888 214.185L305.229 211.248L314.07 214.92Z" fill="#DFE9FF"/>
<path fill-rule="evenodd" clip-rule="evenodd" d="M291.699 216.509C291.821 216.56 291.959 216.508 292.007 216.392C292.055 216.277 291.995 216.142 291.872 216.092C291.75 216.041 291.612 216.093 291.564 216.208C291.516 216.324 291.577 216.458 291.699 216.509Z" fill="white"/>
<path fill-rule="evenodd" clip-rule="evenodd" d="M316.77 226.054C316.861 226.054 316.953 226.071 317.043 226.108C317.386 226.251 317.557 226.629 317.423 226.951C317.29 227.272 316.901 227.418 316.558 227.275C316.215 227.133 316.044 226.755 316.177 226.433C316.276 226.195 316.514 226.054 316.77 226.054ZM316.83 227.471C317.142 227.471 317.432 227.296 317.553 227.005C317.716 226.611 317.512 226.151 317.097 225.979C316.682 225.806 316.211 225.986 316.048 226.379C315.884 226.772 316.089 227.233 316.504 227.405C316.611 227.449 316.722 227.471 316.83 227.471Z" fill="white"/>
<path fill-rule="evenodd" clip-rule="evenodd" d="M314.634 207.366C314.634 207.366 311.33 218.637 313.584 219.11C315.586 219.53 317.969 207.105 317.969 207.105L314.634 207.366Z" fill="#773E2A"/>
<path fill-rule="evenodd" clip-rule="evenodd" d="M311.555 207.996C311.555 207.996 307.742 219.302 309.771 219.957C311.809 220.616 315.078 208.691 315.078 208.691L311.555 207.996Z" fill="#773E2A"/>
<path fill-rule="evenodd" clip-rule="evenodd" d="M308.66 207.146C308.66 207.146 304.302 218.801 306.331 219.546C308.306 220.272 312.141 208.028 312.141 208.028L308.66 207.146Z" fill="#773E2A"/>
<path fill-rule="evenodd" clip-rule="evenodd" d="M307.038 203.726C307.038 203.726 301.277 216.684 303.267 217.513C305.436 218.416 309.57 206.894 309.57 206.894L307.038 203.726Z" fill="#773E2A"/>
<path fill-rule="evenodd" clip-rule="evenodd" d="M306.299 214.455C306.378 214.455 306.451 214.405 306.476 214.327L308.006 209.662C308.038 209.564 307.985 209.458 307.887 209.426C307.789 209.394 307.684 209.448 307.652 209.545L306.122 214.21C306.09 214.308 306.143 214.414 306.241 214.446C306.26 214.452 306.28 214.455 306.299 214.455Z" fill="#363636"/>
<path fill-rule="evenodd" clip-rule="evenodd" d="M309.544 215.401C309.626 215.401 309.702 215.346 309.724 215.263L311.033 210.427C311.059 210.327 311.001 210.225 310.901 210.198C310.801 210.171 310.699 210.23 310.672 210.329L309.364 215.165C309.337 215.265 309.396 215.367 309.495 215.394C309.512 215.399 309.528 215.401 309.544 215.401Z" fill="#363636"/>
<path fill-rule="evenodd" clip-rule="evenodd" d="M312.894 215.618C312.978 215.618 313.054 215.561 313.075 215.476L314.065 211.379C314.089 211.279 314.028 211.178 313.928 211.154C313.828 211.129 313.727 211.191 313.703 211.291L312.712 215.388C312.688 215.488 312.749 215.589 312.85 215.613C312.864 215.617 312.879 215.618 312.894 215.618Z" fill="#363636"/>
<path fill-rule="evenodd" clip-rule="evenodd" d="M237.031 128.617C237.031 128.617 241.857 117.909 239.691 117.13C237.765 116.438 233.692 128.415 233.692 128.415L237.031 128.617Z" fill="#773E2A"/>
<mask id="mask12_676_12805" style="mask-type:alpha" maskUnits="userSpaceOnUse" x="236" y="116" width="8" height="13">
<path fill-rule="evenodd" clip-rule="evenodd" d="M243.992 116.763H236.766V128.418H243.992V116.763Z" fill="white"/>
</mask>
<g mask="url(#mask12_676_12805)">
<path fill-rule="evenodd" clip-rule="evenodd" d="M240.159 128.418C240.159 128.418 245.495 117.747 243.576 116.817C241.648 115.884 236.766 127.244 236.766 127.244L240.159 128.418Z" fill="#773E2A"/>
</g>
<path fill-rule="evenodd" clip-rule="evenodd" d="M242.926 129.659C242.926 129.659 248.849 118.717 246.942 117.699C245.086 116.707 239.6 128.306 239.6 128.306L242.926 129.659Z" fill="#773E2A"/>
<path fill-rule="evenodd" clip-rule="evenodd" d="M244.052 133.272C244.052 133.272 251.545 121.232 249.689 120.137C247.665 118.942 241.981 129.785 241.981 129.785L244.052 133.272Z" fill="#773E2A"/>
<path fill-rule="evenodd" clip-rule="evenodd" d="M244.085 127.528C244.154 127.528 244.22 127.489 244.252 127.423L246.411 123.014C246.456 122.921 246.418 122.809 246.325 122.764C246.233 122.719 246.121 122.757 246.076 122.85L243.917 127.259C243.872 127.352 243.91 127.463 244.003 127.509C244.029 127.522 244.057 127.528 244.085 127.528Z" fill="#363636"/>
<path fill-rule="evenodd" clip-rule="evenodd" d="M241.21 126.344C241.282 126.344 241.351 126.301 241.382 126.23L243.344 121.621C243.385 121.526 243.341 121.417 243.246 121.376C243.151 121.336 243.042 121.38 243.001 121.475L241.038 126.084C240.998 126.179 241.042 126.289 241.137 126.329C241.161 126.339 241.185 126.344 241.21 126.344Z" fill="#363636"/>
<path fill-rule="evenodd" clip-rule="evenodd" d="M238.322 124.977C238.397 124.977 238.467 124.932 238.496 124.859L240.042 120.938C240.079 120.842 240.032 120.733 239.937 120.696C239.841 120.658 239.733 120.705 239.695 120.801L238.149 124.722C238.111 124.818 238.158 124.926 238.254 124.964C238.276 124.973 238.299 124.977 238.322 124.977Z" fill="#363636"/>
<path fill-rule="evenodd" clip-rule="evenodd" d="M242.483 131.374C242.531 131.374 242.577 131.356 242.611 131.323C244.286 129.731 246.679 129.006 246.703 128.999C246.801 128.97 246.858 128.866 246.828 128.767C246.799 128.669 246.695 128.612 246.596 128.642C246.498 128.671 244.239 129.355 242.515 130.905C242.027 130.224 240.17 127.89 237.416 127.547C237.315 127.534 237.221 127.607 237.208 127.709C237.196 127.812 237.268 127.905 237.37 127.918C240.356 128.289 242.307 131.259 242.326 131.289C242.356 131.336 242.406 131.366 242.461 131.373C242.468 131.374 242.476 131.374 242.483 131.374Z" fill="#363636"/>
<path fill-rule="evenodd" clip-rule="evenodd" d="M241.105 137.17C241.105 137.17 253.294 130.01 251.997 128.092C250.213 125.452 240.898 132.466 240.898 132.466L241.105 137.17Z" fill="#773E2A"/>
<path fill-rule="evenodd" clip-rule="evenodd" d="M236.213 172.604C236.426 172.611 236.638 172.621 236.847 172.628C238.738 172.692 240.56 172.69 242.356 172.666C245.495 172.619 248.552 172.501 251.573 172.371C252.004 172.352 254.053 174.46 254.484 174.441C257.923 174.284 261.146 173.572 264.504 173.462C267.861 173.354 269.642 172.994 272.897 173.046C273.71 173.059 274.269 172.604 275.073 172.63L276.591 173.531L277.693 173.878L283.629 173.531C287.022 173.721 289.306 173.687 292.65 173.949C293.249 173.993 294.261 172.955 294.858 173.005C297.59 173.229 300.294 173.486 302.922 173.822C304.325 174.003 305.703 174.206 307.025 174.441L309.578 159.831C307.986 159.534 306.426 159.29 304.886 159.078C301.281 158.585 297.758 158.235 294.256 157.942C290.755 157.658 287.279 157.427 283.818 157.222L281.505 157.091V157.09L278.635 156.927L277.298 156.858L275.925 156.802C275.013 156.771 274.107 156.746 273.204 156.735C269.592 156.69 266.047 156.771 262.542 156.897C259.038 157.024 255.575 157.2 252.157 157.369C248.742 157.539 245.361 157.716 242.084 157.793C241.166 157.813 240.257 157.824 239.363 157.826L236.213 172.604Z" fill="#FFA4EA"/>
<mask id="mask13_676_12805" style="mask-type:alpha" maskUnits="userSpaceOnUse" x="236" y="156" width="74" height="42">
<path fill-rule="evenodd" clip-rule="evenodd" d="M273.204 156.735C274.107 156.746 275.013 156.771 275.925 156.802L277.298 156.858L278.635 156.927L281.505 157.089V157.091L283.818 157.222C287.279 157.427 290.755 157.658 294.256 157.942C297.758 158.235 301.281 158.585 304.886 159.078C306.426 159.29 307.986 159.534 309.578 159.831L307.025 174.441C305.703 174.206 304.325 174.003 302.922 173.822C300.295 173.486 297.591 173.229 294.859 173.005L295.372 197.923H246.604L251.572 172.371C248.551 172.501 245.495 172.619 242.356 172.666C240.56 172.69 238.738 172.692 236.847 172.628C236.638 172.621 236.426 172.611 236.213 172.604L239.363 157.826C240.257 157.824 241.166 157.813 242.084 157.793C245.361 157.716 248.742 157.539 252.157 157.369C255.575 157.2 259.038 157.024 262.542 156.897C265.379 156.795 268.244 156.723 271.149 156.723C271.832 156.723 272.517 156.727 273.204 156.735Z" fill="white"/>
</mask>
<g mask="url(#mask13_676_12805)">
<path fill-rule="evenodd" clip-rule="evenodd" d="M239.367 174.285C239.548 174.285 239.707 174.153 239.735 173.969L242.527 155.894C242.558 155.69 242.419 155.5 242.215 155.468C242.012 155.437 241.821 155.576 241.79 155.78L238.998 173.855C238.967 174.059 239.106 174.249 239.31 174.281C239.329 174.284 239.348 174.285 239.367 174.285Z" fill="white"/>
</g>
<mask id="mask14_676_12805" style="mask-type:alpha" maskUnits="userSpaceOnUse" x="236" y="156" width="74" height="42">
<path fill-rule="evenodd" clip-rule="evenodd" d="M273.204 156.735C274.107 156.746 275.013 156.771 275.925 156.802L277.298 156.858L278.635 156.927L281.505 157.089V157.091L283.818 157.222C287.279 157.427 290.755 157.658 294.256 157.942C297.758 158.235 301.281 158.585 304.886 159.078C306.426 159.29 307.986 159.534 309.578 159.831L307.025 174.441C305.703 174.206 304.325 174.003 302.922 173.822C300.295 173.486 297.591 173.229 294.859 173.005L295.372 197.923H246.604L251.572 172.371C248.551 172.501 245.495 172.619 242.356 172.666C240.56 172.69 238.738 172.692 236.847 172.628C236.638 172.621 236.426 172.611 236.213 172.604L239.363 157.826C240.257 157.824 241.166 157.813 242.084 157.793C245.361 157.716 248.742 157.539 252.157 157.369C255.575 157.2 259.038 157.024 262.542 156.897C265.379 156.795 268.244 156.723 271.149 156.723C271.832 156.723 272.517 156.727 273.204 156.735Z" fill="white"/>
</mask>
<g mask="url(#mask14_676_12805)">
<path fill-rule="evenodd" clip-rule="evenodd" d="M304.042 175.37C304.223 175.37 304.383 175.237 304.41 175.052L306.933 158.07C306.964 157.866 306.823 157.676 306.619 157.646C306.416 157.615 306.226 157.756 306.196 157.96L303.672 174.942C303.642 175.146 303.783 175.335 303.986 175.366C304.005 175.368 304.024 175.37 304.042 175.37Z" fill="white"/>
</g>
<mask id="mask15_676_12805" style="mask-type:alpha" maskUnits="userSpaceOnUse" x="236" y="156" width="74" height="42">
<path fill-rule="evenodd" clip-rule="evenodd" d="M273.204 156.735C274.107 156.746 275.013 156.771 275.925 156.802L277.298 156.858L278.635 156.927L281.505 157.089V157.091L283.818 157.222C287.279 157.427 290.755 157.658 294.256 157.942C297.758 158.235 301.281 158.585 304.886 159.078C306.426 159.29 307.986 159.534 309.578 159.831L307.025 174.441C305.703 174.206 304.325 174.003 302.922 173.822C300.295 173.486 297.591 173.229 294.859 173.005L295.372 197.923H246.604L251.572 172.371C248.551 172.501 245.495 172.619 242.356 172.666C240.56 172.69 238.738 172.692 236.847 172.628C236.638 172.621 236.426 172.611 236.213 172.604L239.363 157.826C240.257 157.824 241.166 157.813 242.084 157.793C245.361 157.716 248.742 157.539 252.157 157.369C255.575 157.2 259.038 157.024 262.542 156.897C265.379 156.795 268.244 156.723 271.149 156.723C271.832 156.723 272.517 156.727 273.204 156.735Z" fill="white"/>
</mask>
<g mask="url(#mask15_676_12805)">
<path fill-rule="evenodd" clip-rule="evenodd" d="M297.704 185.354C297.899 185.354 298.063 185.203 298.076 185.006L300.116 154.786C300.13 154.58 299.975 154.402 299.769 154.389C299.565 154.375 299.386 154.53 299.372 154.736L297.332 184.956C297.318 185.162 297.474 185.34 297.679 185.354C297.688 185.354 297.696 185.354 297.704 185.354Z" fill="white"/>
</g>
<mask id="mask16_676_12805" style="mask-type:alpha" maskUnits="userSpaceOnUse" x="236" y="156" width="74" height="42">
<path fill-rule="evenodd" clip-rule="evenodd" d="M273.204 156.735C274.107 156.746 275.013 156.771 275.925 156.802L277.298 156.858L278.635 156.927L281.505 157.089V157.091L283.818 157.222C287.279 157.427 290.755 157.658 294.256 157.942C297.758 158.235 301.281 158.585 304.886 159.078C306.426 159.29 307.986 159.534 309.578 159.831L307.025 174.441C305.703 174.206 304.325 174.003 302.922 173.822C300.295 173.486 297.591 173.229 294.859 173.005L295.372 197.923H246.604L251.572 172.371C248.551 172.501 245.495 172.619 242.356 172.666C240.56 172.69 238.738 172.692 236.847 172.628C236.638 172.621 236.426 172.611 236.213 172.604L239.363 157.826C240.257 157.824 241.166 157.813 242.084 157.793C245.361 157.716 248.742 157.539 252.157 157.369C255.575 157.2 259.038 157.024 262.542 156.897C265.379 156.795 268.244 156.723 271.149 156.723C271.832 156.723 272.517 156.727 273.204 156.735Z" fill="white"/>
</mask>
<g mask="url(#mask16_676_12805)">
<path fill-rule="evenodd" clip-rule="evenodd" d="M288.455 203.57C288.648 203.57 288.812 203.421 288.826 203.225L292.515 153.054C292.53 152.848 292.375 152.669 292.17 152.654C291.966 152.639 291.786 152.793 291.771 152.999L288.082 203.17C288.067 203.376 288.222 203.554 288.427 203.569C288.436 203.57 288.446 203.57 288.455 203.57Z" fill="white"/>
</g>
<mask id="mask17_676_12805" style="mask-type:alpha" maskUnits="userSpaceOnUse" x="236" y="156" width="74" height="42">
<path fill-rule="evenodd" clip-rule="evenodd" d="M273.204 156.735C274.107 156.746 275.013 156.771 275.925 156.802L277.298 156.858L278.635 156.927L281.505 157.089V157.091L283.818 157.222C287.279 157.427 290.755 157.658 294.256 157.942C297.758 158.235 301.281 158.585 304.886 159.078C306.426 159.29 307.986 159.534 309.578 159.831L307.025 174.441C305.703 174.206 304.325 174.003 302.922 173.822C300.295 173.486 297.591 173.229 294.859 173.005L295.372 197.923H246.604L251.572 172.371C248.551 172.501 245.495 172.619 242.356 172.666C240.56 172.69 238.738 172.692 236.847 172.628C236.638 172.621 236.426 172.611 236.213 172.604L239.363 157.826C240.257 157.824 241.166 157.813 242.084 157.793C245.361 157.716 248.742 157.539 252.157 157.369C255.575 157.2 259.038 157.024 262.542 156.897C265.379 156.795 268.244 156.723 271.149 156.723C271.832 156.723 272.517 156.727 273.204 156.735Z" fill="white"/>
</mask>
<g mask="url(#mask17_676_12805)">
<path fill-rule="evenodd" clip-rule="evenodd" d="M278.984 205.291C279.176 205.291 279.34 205.143 279.356 204.948L283.741 151.639C283.758 151.434 283.605 151.254 283.4 151.237C283.194 151.22 283.014 151.372 282.997 151.578L278.612 204.887C278.595 205.092 278.748 205.272 278.953 205.289C278.964 205.29 278.974 205.291 278.984 205.291Z" fill="white"/>
</g>
<mask id="mask18_676_12805" style="mask-type:alpha" maskUnits="userSpaceOnUse" x="236" y="156" width="74" height="42">
<path fill-rule="evenodd" clip-rule="evenodd" d="M273.204 156.735C274.107 156.746 275.013 156.771 275.925 156.802L277.298 156.858L278.635 156.927L281.505 157.089V157.091L283.818 157.222C287.279 157.427 290.755 157.658 294.256 157.942C297.758 158.235 301.281 158.585 304.886 159.078C306.426 159.29 307.986 159.534 309.578 159.831L307.025 174.441C305.703 174.206 304.325 174.003 302.922 173.822C300.295 173.486 297.591 173.229 294.859 173.005L295.372 197.923H246.604L251.572 172.371C248.551 172.501 245.495 172.619 242.356 172.666C240.56 172.69 238.738 172.692 236.847 172.628C236.638 172.621 236.426 172.611 236.213 172.604L239.363 157.826C240.257 157.824 241.166 157.813 242.084 157.793C245.361 157.716 248.742 157.539 252.157 157.369C255.575 157.2 259.038 157.024 262.542 156.897C265.379 156.795 268.244 156.723 271.149 156.723C271.832 156.723 272.517 156.727 273.204 156.735Z" fill="white"/>
</mask>
<g mask="url(#mask18_676_12805)">
<path fill-rule="evenodd" clip-rule="evenodd" d="M272.117 204.098C272.319 204.098 272.486 203.936 272.49 203.733L273.641 149.829C273.645 149.623 273.482 149.453 273.276 149.448C273.072 149.445 272.899 149.607 272.895 149.813L271.744 203.717C271.74 203.923 271.903 204.094 272.109 204.098C272.112 204.098 272.115 204.098 272.117 204.098Z" fill="white"/>
</g>
<mask id="mask19_676_12805" style="mask-type:alpha" maskUnits="userSpaceOnUse" x="236" y="156" width="74" height="42">
<path fill-rule="evenodd" clip-rule="evenodd" d="M273.204 156.735C274.107 156.746 275.013 156.771 275.925 156.802L277.298 156.858L278.635 156.927L281.505 157.089V157.091L283.818 157.222C287.279 157.427 290.755 157.658 294.256 157.942C297.758 158.235 301.281 158.585 304.886 159.078C306.426 159.29 307.986 159.534 309.578 159.831L307.025 174.441C305.703 174.206 304.325 174.003 302.922 173.822C300.295 173.486 297.591 173.229 294.859 173.005L295.372 197.923H246.604L251.572 172.371C248.551 172.501 245.495 172.619 242.356 172.666C240.56 172.69 238.738 172.692 236.847 172.628C236.638 172.621 236.426 172.611 236.213 172.604L239.363 157.826C240.257 157.824 241.166 157.813 242.084 157.793C245.361 157.716 248.742 157.539 252.157 157.369C255.575 157.2 259.038 157.024 262.542 156.897C265.379 156.795 268.244 156.723 271.149 156.723C271.832 156.723 272.517 156.727 273.204 156.735Z" fill="white"/>
</mask>
<g mask="url(#mask19_676_12805)">
<path fill-rule="evenodd" clip-rule="evenodd" d="M262.416 202.946C262.419 202.946 262.423 202.946 262.426 202.946C262.632 202.94 262.794 202.769 262.789 202.563L261.36 149.625C261.355 149.419 261.18 149.257 260.977 149.262C260.772 149.267 260.609 149.439 260.615 149.645L262.043 202.583C262.049 202.785 262.215 202.946 262.416 202.946Z" fill="white"/>
</g>
<mask id="mask20_676_12805" style="mask-type:alpha" maskUnits="userSpaceOnUse" x="236" y="156" width="74" height="42">
<path fill-rule="evenodd" clip-rule="evenodd" d="M273.204 156.735C274.107 156.746 275.013 156.771 275.925 156.802L277.298 156.858L278.635 156.927L281.505 157.089V157.091L283.818 157.222C287.279 157.427 290.755 157.658 294.256 157.942C297.758 158.235 301.281 158.585 304.886 159.078C306.426 159.29 307.986 159.534 309.578 159.831L307.025 174.441C305.703 174.206 304.325 174.003 302.922 173.822C300.295 173.486 297.591 173.229 294.859 173.005L295.372 197.923H246.604L251.572 172.371C248.551 172.501 245.495 172.619 242.356 172.666C240.56 172.69 238.738 172.692 236.847 172.628C236.638 172.621 236.426 172.611 236.213 172.604L239.363 157.826C240.257 157.824 241.166 157.813 242.084 157.793C245.361 157.716 248.742 157.539 252.157 157.369C255.575 157.2 259.038 157.024 262.542 156.897C265.379 156.795 268.244 156.723 271.149 156.723C271.832 156.723 272.517 156.727 273.204 156.735Z" fill="white"/>
</mask>
<g mask="url(#mask20_676_12805)">
<path fill-rule="evenodd" clip-rule="evenodd" d="M251.063 202.945C251.256 202.945 251.419 202.796 251.434 202.601L255.702 147.316C255.718 147.11 255.564 146.931 255.359 146.915C255.153 146.899 254.974 147.053 254.958 147.258L250.691 202.543C250.675 202.749 250.828 202.928 251.034 202.944C251.043 202.944 251.053 202.945 251.063 202.945Z" fill="white"/>
</g>
<mask id="mask21_676_12805" style="mask-type:alpha" maskUnits="userSpaceOnUse" x="236" y="156" width="74" height="42">
<path fill-rule="evenodd" clip-rule="evenodd" d="M273.204 156.735C274.107 156.746 275.013 156.771 275.925 156.802L277.298 156.858L278.635 156.927L281.505 157.089V157.091L283.818 157.222C287.279 157.427 290.755 157.658 294.256 157.942C297.758 158.235 301.281 158.585 304.886 159.078C306.426 159.29 307.986 159.534 309.578 159.831L307.025 174.441C305.703 174.206 304.325 174.003 302.922 173.822C300.295 173.486 297.591 173.229 294.859 173.005L295.372 197.923H246.604L251.572 172.371C248.551 172.501 245.495 172.619 242.356 172.666C240.56 172.69 238.738 172.692 236.847 172.628C236.638 172.621 236.426 172.611 236.213 172.604L239.363 157.826C240.257 157.824 241.166 157.813 242.084 157.793C245.361 157.716 248.742 157.539 252.157 157.369C255.575 157.2 259.038 157.024 262.542 156.897C265.379 156.795 268.244 156.723 271.149 156.723C271.832 156.723 272.517 156.727 273.204 156.735Z" fill="white"/>
</mask>
<g mask="url(#mask21_676_12805)">
<path fill-rule="evenodd" clip-rule="evenodd" d="M244.619 181.296C244.803 181.296 244.963 181.16 244.988 180.972L249.247 149.329C249.274 149.125 249.131 148.937 248.927 148.91C248.723 148.882 248.535 149.025 248.507 149.23L244.249 180.873C244.222 181.077 244.365 181.265 244.569 181.292C244.586 181.294 244.602 181.296 244.619 181.296Z" fill="white"/>
</g>
<mask id="mask22_676_12805" style="mask-type:alpha" maskUnits="userSpaceOnUse" x="236" y="156" width="74" height="42">
<path fill-rule="evenodd" clip-rule="evenodd" d="M273.204 156.735C274.107 156.746 275.013 156.771 275.925 156.802L277.298 156.858L278.635 156.927L281.505 157.089V157.091L283.818 157.222C287.279 157.427 290.755 157.658 294.256 157.942C297.758 158.235 301.281 158.585 304.886 159.078C306.426 159.29 307.986 159.534 309.578 159.831L307.025 174.441C305.703 174.206 304.325 174.003 302.922 173.822C300.295 173.486 297.591 173.229 294.859 173.005L295.372 197.923H246.604L251.572 172.371C248.551 172.501 245.495 172.619 242.356 172.666C240.56 172.69 238.738 172.692 236.847 172.628C236.638 172.621 236.426 172.611 236.213 172.604L239.363 157.826C240.257 157.824 241.166 157.813 242.084 157.793C245.361 157.716 248.742 157.539 252.157 157.369C255.575 157.2 259.038 157.024 262.542 156.897C265.379 156.795 268.244 156.723 271.149 156.723C271.832 156.723 272.517 156.727 273.204 156.735Z" fill="white"/>
</mask>
<g mask="url(#mask22_676_12805)">
<path fill-rule="evenodd" clip-rule="evenodd" d="M312.885 162.976C313.073 162.976 313.235 162.834 313.256 162.643C313.278 162.438 313.129 162.254 312.925 162.232C312.406 162.176 260.779 156.706 234.991 160.464C234.787 160.494 234.646 160.683 234.676 160.887C234.705 161.091 234.895 161.232 235.099 161.203C260.793 157.457 312.327 162.918 312.845 162.974C312.858 162.975 312.872 162.976 312.885 162.976Z" fill="white"/>
</g>
<mask id="mask23_676_12805" style="mask-type:alpha" maskUnits="userSpaceOnUse" x="236" y="156" width="74" height="42">
<path fill-rule="evenodd" clip-rule="evenodd" d="M273.204 156.735C274.107 156.746 275.013 156.771 275.925 156.802L277.298 156.858L278.635 156.927L281.505 157.089V157.091L283.818 157.222C287.279 157.427 290.755 157.658 294.256 157.942C297.758 158.235 301.281 158.585 304.886 159.078C306.426 159.29 307.986 159.534 309.578 159.831L307.025 174.441C305.703 174.206 304.325 174.003 302.922 173.822C300.295 173.486 297.591 173.229 294.859 173.005L295.372 197.923H246.604L251.572 172.371C248.551 172.501 245.495 172.619 242.356 172.666C240.56 172.69 238.738 172.692 236.847 172.628C236.638 172.621 236.426 172.611 236.213 172.604L239.363 157.826C240.257 157.824 241.166 157.813 242.084 157.793C245.361 157.716 248.742 157.539 252.157 157.369C255.575 157.2 259.038 157.024 262.542 156.897C265.379 156.795 268.244 156.723 271.149 156.723C271.832 156.723 272.517 156.727 273.204 156.735Z" fill="white"/>
</mask>
<g mask="url(#mask23_676_12805)">
<path fill-rule="evenodd" clip-rule="evenodd" d="M311.635 171.007C311.826 171.007 311.989 170.86 312.006 170.666C312.024 170.461 311.872 170.28 311.667 170.262C311.212 170.223 265.83 166.327 235.018 168.284C234.813 168.297 234.657 168.474 234.67 168.68C234.683 168.885 234.858 169.042 235.066 169.028C265.822 167.075 311.148 170.966 311.602 171.005C311.613 171.006 311.624 171.007 311.635 171.007Z" fill="white"/>
</g>
<mask id="mask24_676_12805" style="mask-type:alpha" maskUnits="userSpaceOnUse" x="236" y="156" width="74" height="42">
<path fill-rule="evenodd" clip-rule="evenodd" d="M273.204 156.735C274.107 156.746 275.013 156.771 275.925 156.802L277.298 156.858L278.635 156.927L281.505 157.089V157.091L283.818 157.222C287.279 157.427 290.755 157.658 294.256 157.942C297.758 158.235 301.281 158.585 304.886 159.078C306.426 159.29 307.986 159.534 309.578 159.831L307.025 174.441C305.703 174.206 304.325 174.003 302.922 173.822C300.295 173.486 297.591 173.229 294.859 173.005L295.372 197.923H246.604L251.572 172.371C248.551 172.501 245.495 172.619 242.356 172.666C240.56 172.69 238.738 172.692 236.847 172.628C236.638 172.621 236.426 172.611 236.213 172.604L239.363 157.826C240.257 157.824 241.166 157.813 242.084 157.793C245.361 157.716 248.742 157.539 252.157 157.369C255.575 157.2 259.038 157.024 262.542 156.897C265.379 156.795 268.244 156.723 271.149 156.723C271.832 156.723 272.517 156.727 273.204 156.735Z" fill="white"/>
</mask>
<g mask="url(#mask24_676_12805)">
<path fill-rule="evenodd" clip-rule="evenodd" d="M302.096 177.911C302.298 177.911 302.464 177.749 302.469 177.546C302.473 177.34 302.31 177.169 302.104 177.165L237.383 175.688C237.171 175.683 237.007 175.846 237.002 176.052C236.997 176.258 237.16 176.429 237.366 176.433L302.087 177.91C302.09 177.911 302.093 177.911 302.096 177.911Z" fill="white"/>
</g>
<mask id="mask25_676_12805" style="mask-type:alpha" maskUnits="userSpaceOnUse" x="236" y="156" width="74" height="42">
<path fill-rule="evenodd" clip-rule="evenodd" d="M273.204 156.735C274.107 156.746 275.013 156.771 275.925 156.802L277.298 156.858L278.635 156.927L281.505 157.089V157.091L283.818 157.222C287.279 157.427 290.755 157.658 294.256 157.942C297.758 158.235 301.281 158.585 304.886 159.078C306.426 159.29 307.986 159.534 309.578 159.831L307.025 174.441C305.703 174.206 304.325 174.003 302.922 173.822C300.295 173.486 297.591 173.229 294.859 173.005L295.372 197.923H246.604L251.572 172.371C248.551 172.501 245.495 172.619 242.356 172.666C240.56 172.69 238.738 172.692 236.847 172.628C236.638 172.621 236.426 172.611 236.213 172.604L239.363 157.826C240.257 157.824 241.166 157.813 242.084 157.793C245.361 157.716 248.742 157.539 252.157 157.369C255.575 157.2 259.038 157.024 262.542 156.897C265.379 156.795 268.244 156.723 271.149 156.723C271.832 156.723 272.517 156.727 273.204 156.735Z" fill="white"/>
</mask>
<g mask="url(#mask25_676_12805)">
<path fill-rule="evenodd" clip-rule="evenodd" d="M302.072 187.436C302.273 187.436 302.439 187.277 302.445 187.075C302.452 186.869 302.29 186.697 302.084 186.69L237.413 184.609C237.207 184.603 237.034 184.764 237.028 184.969C237.021 185.175 237.183 185.348 237.389 185.354L302.06 187.436C302.064 187.436 302.068 187.436 302.072 187.436Z" fill="white"/>
</g>
<mask id="mask26_676_12805" style="mask-type:alpha" maskUnits="userSpaceOnUse" x="236" y="156" width="74" height="43">
<path fill-rule="evenodd" clip-rule="evenodd" d="M275.925 156.802L277.298 156.858L278.635 156.927L281.505 157.089V157.091L283.818 157.222C287.279 157.427 290.755 157.658 294.256 157.942C297.758 158.235 301.281 158.585 304.886 159.078C306.426 159.29 307.986 159.534 309.578 159.831L307.025 174.441C305.703 174.206 304.325 174.003 302.922 173.822C300.295 173.486 297.591 173.229 294.859 173.005L295.372 198.201H246.604L251.572 172.371C248.551 172.501 245.495 172.619 242.356 172.666C240.56 172.69 238.738 172.692 236.847 172.628C236.638 172.621 236.426 172.611 236.213 172.604L239.363 157.826C240.257 157.824 241.166 157.813 242.084 157.793C245.361 157.716 248.742 157.539 252.157 157.369C255.575 157.2 259.038 157.024 262.542 156.897C265.379 156.795 268.244 156.723 271.149 156.723C271.832 156.723 272.517 156.727 273.204 156.735C274.107 156.746 275.013 156.771 275.925 156.802Z" fill="white"/>
</mask>
<g mask="url(#mask26_676_12805)">
<path fill-rule="evenodd" clip-rule="evenodd" d="M302.072 193.993C302.275 193.993 302.441 193.831 302.445 193.627C302.449 193.421 302.285 193.251 302.079 193.247L234.629 191.998C234.627 191.998 234.624 191.998 234.622 191.998C234.419 191.998 234.253 192.16 234.249 192.364C234.246 192.57 234.41 192.74 234.615 192.744L302.065 193.993C302.068 193.993 302.07 193.993 302.072 193.993Z" fill="white"/>
</g>
<path fill-rule="evenodd" clip-rule="evenodd" d="M271.244 168.119C279.459 168.119 281.516 157.091 281.516 157.091V157.09L278.646 156.927L277.308 156.858L275.936 156.802C275.024 156.771 274.118 156.746 273.215 156.735C269.602 156.69 266.057 156.771 262.553 156.897C262.553 156.897 263.03 168.119 271.244 168.119Z" fill="#773E2A"/>
<path fill-rule="evenodd" clip-rule="evenodd" d="M231.031 157.951H235.056C235.159 157.951 235.242 157.868 235.242 157.765C235.242 157.662 235.159 157.578 235.056 157.578H231.031C230.928 157.578 230.845 157.662 230.845 157.765C230.845 157.868 230.928 157.951 231.031 157.951Z" fill="#363636"/>
<path fill-rule="evenodd" clip-rule="evenodd" d="M313.954 176.215C314.039 176.215 314.116 176.157 314.136 176.071C314.159 175.971 314.097 175.871 313.996 175.847L311.012 175.153C310.912 175.13 310.812 175.192 310.788 175.293C310.765 175.393 310.827 175.493 310.928 175.517L313.912 176.211C313.926 176.214 313.94 176.215 313.954 176.215Z" fill="#363636"/>
<path fill-rule="evenodd" clip-rule="evenodd" d="M262.947 147.901C264.089 147.901 265.018 149.346 265.018 151.121C265.018 152.897 264.089 154.342 262.947 154.342C261.806 154.342 260.877 152.897 260.877 151.121C260.877 149.346 261.806 147.901 262.947 147.901ZM262.947 154.714C264.295 154.714 265.391 153.103 265.391 151.121C265.391 149.14 264.295 147.528 262.947 147.528C261.6 147.528 260.504 149.14 260.504 151.121C260.504 153.103 261.6 154.714 262.947 154.714Z" fill="white"/>
<path fill-rule="evenodd" clip-rule="evenodd" d="M263.557 142.705C263.759 143.395 264.762 143.783 265.057 144.426C265.355 145.077 264.992 146.09 265.378 146.686C265.764 147.287 266.836 147.376 267.302 147.913C267.769 148.452 267.705 149.525 268.244 149.993C268.781 150.459 269.835 150.245 270.435 150.631C271.032 151.015 271.273 152.063 271.924 152.361C272.567 152.656 273.518 152.152 274.206 152.354C274.883 152.553 275.411 153.491 276.124 153.592C276.821 153.691 277.589 152.941 278.313 152.941C279.037 152.941 279.805 153.691 280.5 153.592C281.213 153.491 281.741 152.553 282.418 152.354C283.108 152.152 284.057 152.656 284.7 152.361C285.351 152.063 285.592 151.015 286.189 150.631C286.789 150.243 287.843 150.459 288.38 149.993C288.919 149.525 288.856 148.45 289.324 147.913C289.79 147.374 290.86 147.287 291.248 146.686C291.632 146.09 291.271 145.077 291.567 144.426C291.862 143.783 292.865 143.395 293.068 142.705C293.266 142.028 292.632 141.16 292.735 140.446C292.833 139.751 293.688 139.096 293.688 138.372C293.688 137.649 292.833 136.994 292.735 136.298C292.632 135.584 293.266 134.717 293.068 134.04C292.865 133.35 291.862 132.964 291.567 132.319C291.271 131.668 291.632 130.657 291.248 130.059C290.86 129.458 289.79 129.37 289.324 128.831C288.856 128.294 288.919 127.22 288.38 126.754C287.843 126.288 286.789 126.502 286.189 126.114C285.592 125.73 285.351 124.682 284.7 124.383C284.057 124.089 283.108 124.592 282.418 124.391C281.741 124.191 281.213 123.255 280.5 123.153C279.805 123.054 279.037 123.803 278.313 123.803C277.934 123.803 277.545 123.598 277.159 123.417C276.806 123.251 276.457 123.106 276.124 123.153C275.411 123.255 274.883 124.191 274.206 124.391C273.516 124.592 272.567 124.089 271.924 124.383C271.273 124.682 271.032 125.73 270.435 126.114C269.835 126.502 268.781 126.288 268.244 126.754C267.705 127.22 267.769 128.294 267.302 128.833C266.836 129.37 265.764 129.46 265.378 130.06C264.992 130.657 265.355 131.668 265.057 132.319C264.762 132.964 263.759 133.35 263.557 134.04C263.546 134.079 263.537 134.118 263.531 134.159C263.429 134.818 263.986 135.625 263.889 136.298C263.791 136.994 262.938 137.649 262.938 138.372C262.938 139.096 263.791 139.751 263.889 140.446C263.992 141.16 263.358 142.028 263.557 142.705Z" fill="#9D9A9A"/>
<path fill-rule="evenodd" clip-rule="evenodd" d="M268.905 142.911L267.101 158.252C266.745 161.282 268.912 164.027 271.942 164.383C274.972 164.74 277.717 162.572 278.073 159.542C278.11 159.225 278.117 158.881 278.101 158.573L277.193 143.152C277.058 140.857 275.088 139.106 272.793 139.242C270.747 139.362 269.134 140.943 268.905 142.911Z" fill="#773E2A"/>
<path fill-rule="evenodd" clip-rule="evenodd" d="M267.749 152.792C267.749 152.792 268.791 152.631 270.51 151.747C270.72 151.639 270.928 151.895 270.776 152.077L267.37 156.015L267.749 152.792Z" fill="#363636"/>
<path fill-rule="evenodd" clip-rule="evenodd" d="M281.017 140.469C280.759 142.1 280.607 142.018 280.392 142.994C280.358 143.152 280.314 143.31 280.262 143.466C279.736 145.041 278.355 146.514 277.081 147.514C277.081 147.514 272.077 151.962 267.694 152.841C265.978 153.185 264.353 152.981 263.164 151.742C259.347 147.758 263.975 140.115 265.784 137.468C265.808 137.43 265.832 137.389 265.858 137.352C266.282 136.677 266.814 136.071 267.428 135.559C267.717 135.318 268.005 135.106 268.303 134.924C268.885 134.564 269.503 134.31 270.22 134.142C271.278 133.896 272.377 133.826 273.459 133.896C273.765 133.914 274.071 133.946 274.378 133.986C276.252 134.236 278.323 134.694 279.694 136.089C280.581 136.989 281.041 138.17 281.083 139.398C281.095 139.753 281.073 140.111 281.017 140.469Z" fill="#773E2A"/>
<path fill-rule="evenodd" clip-rule="evenodd" d="M276.581 146.015C276.68 147.73 278.151 149.04 279.866 148.941C281.581 148.841 282.891 147.37 282.792 145.655C282.692 143.94 281.221 142.631 279.506 142.73C277.791 142.829 276.482 144.3 276.581 146.015Z" fill="#773E2A"/>
<path fill-rule="evenodd" clip-rule="evenodd" d="M278.568 146.221C278.594 146.221 278.62 146.216 278.646 146.206L281.088 145.182C281.19 145.14 281.238 145.023 281.195 144.921C281.153 144.819 281.036 144.771 280.934 144.813L278.491 145.837C278.389 145.879 278.341 145.997 278.384 146.099C278.416 146.175 278.49 146.221 278.568 146.221Z" fill="#363636"/>
<path fill-rule="evenodd" clip-rule="evenodd" d="M280.089 146.65C280.113 146.65 280.137 146.646 280.16 146.637C280.264 146.598 280.315 146.482 280.276 146.379L279.925 145.461C279.886 145.358 279.77 145.306 279.667 145.345C279.563 145.385 279.512 145.5 279.551 145.604L279.902 146.522C279.932 146.602 280.008 146.65 280.089 146.65Z" fill="#363636"/>
<path fill-rule="evenodd" clip-rule="evenodd" d="M263.53 134.159C263.729 134.241 263.925 134.325 264.088 134.448C264.494 134.754 264.736 135.343 265.201 135.578C265.652 135.808 266.269 135.655 266.771 135.808C267.273 135.961 267.7 136.431 268.203 136.492C268.72 136.556 269.248 136.201 269.757 136.175C270.275 136.147 270.839 136.442 271.336 136.324C271.791 136.218 272.142 135.789 272.552 135.56C272.597 135.534 272.64 135.511 272.687 135.493C273.16 135.291 273.791 135.375 274.223 135.096C274.654 134.814 274.831 134.204 275.21 133.852C275.585 133.503 276.206 133.368 276.517 132.954C276.823 132.546 276.782 131.912 277.017 131.448C277.247 130.996 277.785 130.657 277.937 130.155C278.089 129.654 277.832 129.072 277.894 128.568C277.957 128.052 278.347 127.548 278.319 127.041C278.298 126.655 278.048 126.302 277.875 125.942C277.813 125.819 277.763 125.694 277.733 125.566C277.616 125.062 277.81 124.456 277.608 123.984C277.515 123.766 277.343 123.589 277.157 123.417C276.805 123.251 276.456 123.106 276.122 123.152C275.409 123.255 274.882 124.191 274.205 124.391C273.515 124.592 272.565 124.089 271.922 124.383C271.271 124.682 271.031 125.73 270.434 126.114C269.833 126.502 268.78 126.287 268.242 126.754C267.704 127.22 267.767 128.294 267.301 128.833C266.835 129.37 265.762 129.46 265.376 130.06C264.99 130.657 265.354 131.668 265.055 132.319C264.761 132.964 263.757 133.35 263.556 134.04C263.545 134.079 263.536 134.118 263.53 134.159Z" fill="#9D9A9A"/>
<path fill-rule="evenodd" clip-rule="evenodd" d="M277.495 148.046C277.495 148.046 277.074 147.796 276.772 147.352C276.726 147.284 276.621 147.303 276.605 147.384C276.497 147.932 276.401 149.383 277.641 150.577L277.495 148.046Z" fill="#363636"/>
<path fill-rule="evenodd" clip-rule="evenodd" d="M272.49 132.243C272.446 131.938 272.401 131.629 272.488 131.346C272.574 131.063 272.783 130.832 272.989 130.603C273.149 130.426 273.308 130.25 273.407 130.054C273.511 129.848 273.561 129.61 273.611 129.373C273.674 129.073 273.736 128.775 273.907 128.548C274.083 128.314 274.356 128.17 274.628 128.026C274.84 127.914 275.051 127.802 275.215 127.649C275.381 127.494 275.509 127.289 275.636 127.084C275.799 126.824 275.961 126.563 276.201 126.407C276.444 126.249 276.748 126.207 277.052 126.164C277.291 126.131 277.529 126.098 277.738 126.009C277.945 125.92 278.134 125.772 278.322 125.623C278.564 125.433 278.806 125.242 279.088 125.176C279.367 125.111 279.666 125.175 279.966 125.239C280.203 125.289 280.44 125.339 280.668 125.327C280.89 125.315 281.116 125.241 281.343 125.166C281.636 125.07 281.931 124.973 282.222 125.009C282.502 125.043 282.758 125.203 283.017 125.365C283.224 125.495 283.432 125.625 283.654 125.693C283.877 125.76 284.122 125.768 284.366 125.776C284.671 125.786 284.973 125.796 285.224 125.923C285.486 126.056 285.677 126.301 285.867 126.544C286.014 126.733 286.16 126.92 286.337 127.054C286.52 127.191 286.745 127.281 286.969 127.371C287.254 127.486 287.537 127.6 287.733 127.809C287.931 128.021 288.025 128.314 288.12 128.607C288.193 128.836 288.267 129.064 288.39 129.253C288.513 129.443 288.693 129.604 288.873 129.765C289.102 129.969 289.33 130.174 289.444 130.44C289.556 130.704 289.546 131.01 289.535 131.317C289.527 131.558 289.518 131.8 289.57 132.021C289.621 132.239 289.734 132.45 289.847 132.661C289.993 132.933 290.139 133.205 290.155 133.496C290.17 133.78 290.056 134.063 289.941 134.347C289.85 134.571 289.759 134.797 289.731 135.025C289.704 135.244 289.737 135.478 289.771 135.714C289.815 136.02 289.86 136.328 289.773 136.611C289.687 136.894 289.478 137.125 289.272 137.354C289.112 137.531 288.953 137.707 288.854 137.904C288.749 138.11 288.7 138.348 288.65 138.585C288.587 138.885 288.525 139.183 288.354 139.41C288.178 139.643 287.905 139.788 287.633 139.932C287.421 140.044 287.21 140.156 287.046 140.308C286.88 140.463 286.752 140.669 286.624 140.873C286.462 141.134 286.3 141.394 286.059 141.551C285.817 141.708 285.513 141.751 285.209 141.793C284.97 141.827 284.732 141.86 284.523 141.949C284.316 142.037 284.127 142.186 283.938 142.335C283.697 142.525 283.455 142.715 283.173 142.781C282.894 142.846 282.595 142.783 282.295 142.719C282.058 142.669 281.821 142.618 281.593 142.631C281.371 142.643 281.145 142.717 280.918 142.791C280.625 142.888 280.33 142.985 280.039 142.949C279.857 142.927 279.686 142.851 279.517 142.757C279.476 142.763 279.43 142.769 279.381 142.776C278.74 142.862 277.447 143.035 276.657 144.565L276.144 145.54C275.903 146.021 275.336 146.241 274.833 146.047C274.419 145.888 274.164 145.492 274.164 145.074C274.164 144.957 274.185 144.837 274.225 144.722C274.225 144.722 274.57 142.97 275.544 140.691C275.461 140.654 275.376 140.62 275.292 140.586C275.007 140.472 274.723 140.358 274.528 140.149C274.33 139.937 274.236 139.643 274.141 139.351C274.068 139.122 273.994 138.893 273.871 138.704C273.747 138.514 273.568 138.354 273.388 138.193C273.16 137.988 272.93 137.783 272.817 137.518C272.705 137.253 272.715 136.947 272.726 136.641C272.734 136.399 272.743 136.158 272.691 135.936C272.64 135.718 272.527 135.508 272.414 135.296C272.268 135.025 272.122 134.753 272.106 134.461C272.091 134.177 272.205 133.895 272.32 133.611C272.411 133.386 272.503 133.161 272.531 132.933C272.557 132.713 272.524 132.479 272.49 132.243Z" fill="#9D9A9A"/>
<path fill-rule="evenodd" clip-rule="evenodd" d="M279.822 147.901C280.964 147.901 281.893 149.346 281.893 151.121C281.893 152.897 280.964 154.342 279.822 154.342C278.681 154.342 277.752 152.897 277.752 151.121C277.752 149.346 278.681 147.901 279.822 147.901ZM279.822 154.714C281.17 154.714 282.266 153.103 282.266 151.121C282.266 149.14 281.17 147.528 279.822 147.528C278.475 147.528 277.379 149.14 277.379 151.121C277.379 153.103 278.475 154.714 279.822 154.714Z" fill="white"/>
<path fill-rule="evenodd" clip-rule="evenodd" d="M279.139 147.715C279.139 148.09 279.444 148.395 279.82 148.395C280.195 148.395 280.5 148.09 280.5 147.715C280.5 147.339 280.195 147.034 279.82 147.034C279.444 147.034 279.139 147.339 279.139 147.715Z" fill="white"/>
<path fill-rule="evenodd" clip-rule="evenodd" d="M268.32 143.694C268.32 143.694 269.272 144.967 270.898 144.97C271.587 144.971 272.398 144.747 273.305 144.096C273.305 144.096 272.484 143.079 271.059 142.93C270.304 142.848 269.382 143.008 268.32 143.694Z" fill="white"/>
<path fill-rule="evenodd" clip-rule="evenodd" d="M268.324 143.694C268.324 143.694 269.275 144.967 270.901 144.97C271.14 144.704 271.292 144.364 271.323 143.981C271.353 143.597 271.255 143.231 271.063 142.93C270.308 142.848 269.385 143.008 268.324 143.694Z" fill="#363636"/>
<mask id="mask27_676_12805" style="mask-type:alpha" maskUnits="userSpaceOnUse" x="261" y="142" width="6" height="3">
<path fill-rule="evenodd" clip-rule="evenodd" d="M266.539 142.498H261.554V144.558H266.539V142.498Z" fill="white"/>
</mask>
<g mask="url(#mask27_676_12805)">
<path fill-rule="evenodd" clip-rule="evenodd" d="M261.554 143.282C261.554 143.282 262.506 144.555 264.132 144.558C264.821 144.559 265.632 144.335 266.539 143.684C266.539 143.684 265.718 142.667 264.293 142.518C263.538 142.436 262.616 142.596 261.554 143.282Z" fill="white"/>
</g>
<mask id="mask28_676_12805" style="mask-type:alpha" maskUnits="userSpaceOnUse" x="261" y="142" width="4" height="3">
<path fill-rule="evenodd" clip-rule="evenodd" d="M264.586 142.498H261.581V144.558H264.586V142.498Z" fill="white"/>
</mask>
<g mask="url(#mask28_676_12805)">
<path fill-rule="evenodd" clip-rule="evenodd" d="M261.581 143.282C261.581 143.282 262.533 144.555 264.159 144.558C264.398 144.291 264.549 143.952 264.58 143.569C264.611 143.185 264.513 142.819 264.321 142.518C263.566 142.436 262.643 142.596 261.581 143.282Z" fill="#363636"/>
</g>
<path fill-rule="evenodd" clip-rule="evenodd" d="M267.792 146.984C267.911 146.984 268.007 146.888 268.008 146.769C268.008 146.65 267.912 146.553 267.792 146.552L267.095 146.55C266.95 146.549 266.818 146.483 266.731 146.367C266.644 146.252 266.616 146.106 266.655 145.967L267.513 142.919C267.545 142.804 267.478 142.685 267.363 142.653C267.248 142.62 267.129 142.687 267.097 142.802L266.239 145.85C266.163 146.12 266.217 146.404 266.386 146.628C266.555 146.852 266.813 146.981 267.093 146.982L267.791 146.984H267.792Z" fill="#363636"/>
<mask id="mask29_676_12805" style="mask-type:alpha" maskUnits="userSpaceOnUse" x="268" y="140" width="6" height="3">
<path fill-rule="evenodd" clip-rule="evenodd" d="M273.445 140.88H268.688V142.027H273.445V140.88Z" fill="white"/>
</mask>
<g mask="url(#mask29_676_12805)">
<path fill-rule="evenodd" clip-rule="evenodd" d="M273.229 142.026C273.295 142.026 273.359 141.997 273.402 141.94C273.474 141.845 273.455 141.709 273.359 141.638C273.276 141.575 271.301 140.124 268.806 141.409C268.7 141.464 268.658 141.594 268.712 141.7C268.767 141.806 268.898 141.848 269.004 141.793C271.26 140.631 273.081 141.969 273.099 141.983C273.138 142.012 273.184 142.026 273.229 142.026Z" fill="#9D9A9A"/>
</g>
<path fill-rule="evenodd" clip-rule="evenodd" d="M266.159 141.669C266.228 141.669 266.295 141.636 266.337 141.575C266.405 141.476 266.379 141.342 266.281 141.274C266.196 141.216 264.157 139.855 261.722 141.25C261.618 141.309 261.583 141.441 261.642 141.545C261.701 141.648 261.833 141.684 261.937 141.625C264.131 140.368 265.96 141.579 266.037 141.631C266.074 141.657 266.117 141.669 266.159 141.669Z" fill="#9D9A9A"/>
<path fill-rule="evenodd" clip-rule="evenodd" d="M268.142 147.641V148.159C268.142 148.264 268.164 148.365 268.208 148.453C268.317 148.69 268.558 148.853 268.836 148.853C269.22 148.853 269.531 148.542 269.531 148.159V147.641C269.531 147.48 269.4 147.349 269.238 147.349H268.435C268.273 147.349 268.142 147.48 268.142 147.641Z" fill="#363636"/>
<mask id="mask30_676_12805" style="mask-type:alpha" maskUnits="userSpaceOnUse" x="268" y="147" width="2" height="2">
<path fill-rule="evenodd" clip-rule="evenodd" d="M269.523 147.974H268.201V148.854H269.523V147.974Z" fill="white"/>
</mask>
<g mask="url(#mask30_676_12805)">
<path fill-rule="evenodd" clip-rule="evenodd" d="M268.201 148.454C268.31 148.691 268.55 148.854 268.829 148.854C269.212 148.854 269.523 148.543 269.523 148.159V148.052C269.396 148.002 269.259 147.974 269.115 147.974C268.736 147.974 268.4 148.164 268.201 148.454Z" fill="#F74BAD"/>
</g>
<path opacity="0.01" d="M270.617 146.896C269.937 146.405 269.128 146.321 268.236 146.633C267.317 146.955 266.688 147.235 266.368 148.268C266.3 148.488 266.423 148.721 266.643 148.789C266.862 148.857 267.095 148.734 267.163 148.514C267.408 147.724 267.851 147.65 268.511 147.419C269.157 147.193 269.682 147.247 270.129 147.57C270.315 147.705 270.576 147.663 270.71 147.477C270.845 147.29 270.803 147.03 270.617 146.896Z" fill="#9D9A9A"/>
</svg>
