<svg width="356" height="356" viewBox="0 0 356 356" fill="none" xmlns="http://www.w3.org/2000/svg">
<mask id="mask0_676_13237" style="mask-type:alpha" maskUnits="userSpaceOnUse" x="17" y="269" width="322" height="48">
<path fill-rule="evenodd" clip-rule="evenodd" d="M17.3359 269.291H338.992V316.968H17.3359V269.291Z" fill="white"/>
</mask>
<g mask="url(#mask0_676_13237)">
<path fill-rule="evenodd" clip-rule="evenodd" d="M338.992 293.128C338.992 306.294 266.986 316.968 178.163 316.968C89.3413 316.968 17.3359 306.294 17.3359 293.128C17.3359 279.964 89.3413 269.291 178.163 269.291C266.986 269.291 338.992 279.964 338.992 293.128Z" fill="#825DA3"/>
</g>
<path fill-rule="evenodd" clip-rule="evenodd" d="M178.155 276.752C140.633 276.752 105.358 278.484 78.8281 281.624C52.822 284.706 37.9067 288.898 37.9067 293.128C37.9067 297.36 52.822 301.552 78.8281 304.632C105.358 307.774 140.633 309.506 178.155 309.506C215.678 309.506 250.954 307.774 277.484 304.632C303.49 301.552 318.405 297.36 318.405 293.128C318.405 288.898 303.49 284.706 277.484 281.624C250.954 278.484 215.678 276.752 178.155 276.752ZM178.155 310.036C140.613 310.036 105.315 308.305 78.7655 305.16C65.8472 303.63 55.702 301.848 48.6117 299.862C41.1554 297.775 37.375 295.509 37.375 293.128C37.375 290.749 41.1554 288.483 48.6117 286.394C55.702 284.41 65.8472 282.628 78.7655 281.098C105.315 277.953 140.613 276.222 178.155 276.222C215.699 276.222 250.997 277.953 277.545 281.098C290.464 282.628 300.61 284.41 307.7 286.394C315.156 288.483 318.937 290.749 318.937 293.128C318.937 295.509 315.156 297.775 307.7 299.862C300.61 301.848 290.464 303.63 277.545 305.16C250.997 308.305 215.699 310.036 178.155 310.036Z" fill="white"/>
</svg>
