<svg width="356" height="356" viewBox="0 0 356 356" fill="none" xmlns="http://www.w3.org/2000/svg">
<g clip-path="url(#clip0_676_12940)">
<path fill-rule="evenodd" clip-rule="evenodd" d="M133.984 219.97C137.091 221.014 137.421 225.271 134.505 226.768C124.953 231.671 115.163 236.198 104.657 238.221C92.0396 240.65 78.0109 238.987 68.0849 230.827C58.5759 223.01 54.2159 210.585 51.7251 198.531C49.1552 186.093 48.1111 173.341 48.6155 160.651C48.7633 156.932 51.8067 153.986 55.5288 153.986C59.0287 153.986 61.984 156.599 62.3958 160.075C64.3594 176.647 65.4215 215.957 94.3664 215.957C116.576 215.957 128.06 217.981 133.984 219.97Z" fill="#EDC829"/>
<path fill-rule="evenodd" clip-rule="evenodd" d="M136.149 225.356C136.129 225.356 136.109 225.353 136.089 225.349C126.265 223.094 111.964 221.95 93.5836 221.95C86.1218 221.95 79.6813 219.758 74.4413 215.433C69.9592 211.733 66.2296 206.361 63.3558 199.465C58.1134 186.886 56.5732 171.623 55.4483 160.478C55.227 158.284 55.0177 156.211 54.8021 154.392C54.7878 154.277 54.7716 154.161 54.7533 154.047C54.7303 153.902 54.8293 153.766 54.9741 153.742C55.1197 153.72 55.2554 153.818 55.2785 153.963C55.2977 154.084 55.3147 154.206 55.3301 154.328C55.5464 156.153 55.7559 158.228 55.9776 160.425C57.0987 171.536 58.6347 186.754 63.8468 199.261C66.6868 206.076 70.3652 211.379 74.7798 215.022C79.9221 219.267 86.2486 221.419 93.5836 221.419C112.004 221.419 126.345 222.567 136.208 224.83C136.351 224.863 136.44 225.006 136.407 225.149C136.379 225.272 136.27 225.356 136.149 225.356Z" fill="#21211D"/>
<mask id="mask0_676_12940" style="mask-type:alpha" maskUnits="userSpaceOnUse" x="48" y="225" width="89" height="69">
<path fill-rule="evenodd" clip-rule="evenodd" d="M48.2266 225.938H136.781V293.949H48.2266V225.938Z" fill="white"/>
</mask>
<g mask="url(#mask0_676_12940)">
<path fill-rule="evenodd" clip-rule="evenodd" d="M136.515 293.949C136.411 293.949 136.312 293.887 136.269 293.785L113.548 239.17C110.338 231.455 102.865 226.47 94.5092 226.47C90.6437 226.47 86.8676 227.552 83.5889 229.599C80.31 231.646 77.6799 234.564 75.9826 238.037L48.7313 293.799C48.6671 293.931 48.5076 293.986 48.3757 293.922C48.2437 293.857 48.1892 293.698 48.2536 293.566L75.5049 237.803C77.2459 234.241 79.9438 231.248 83.3072 229.148C86.6706 227.048 90.5441 225.938 94.5092 225.938C103.08 225.938 110.746 231.052 114.039 238.966L136.76 293.58C136.817 293.716 136.753 293.872 136.617 293.928C136.584 293.942 136.549 293.949 136.515 293.949Z" fill="#21211D"/>
</g>
<path fill-rule="evenodd" clip-rule="evenodd" d="M251.495 246.224L169.588 189.55L152.445 210.33L223.654 279.972L251.495 246.224Z" fill="#313138"/>
<path opacity="0.2" fill-rule="evenodd" clip-rule="evenodd" d="M251.573 246.007L169.666 189.333L152.523 210.113L223.732 279.756L251.573 246.007Z" fill="#343434"/>
<path fill-rule="evenodd" clip-rule="evenodd" d="M223.326 279.702C224.908 281.026 228.623 280.162 232.843 277.562C236.358 275.392 240.221 272.018 243.497 267.697C245.571 264.961 247.392 262.231 248.857 259.678C252.486 253.363 253.957 248.123 251.811 246.495C249.466 244.719 243.156 248.115 237.078 254.187C235.345 255.921 233.627 257.873 232.026 259.984C229.258 263.637 227.014 267.128 225.424 270.143C222.872 274.977 222 278.593 223.326 279.702Z" fill="#21211D"/>
<mask id="mask1_676_12940" style="mask-type:alpha" maskUnits="userSpaceOnUse" x="225" y="254" width="56" height="39">
<path fill-rule="evenodd" clip-rule="evenodd" d="M225.43 254.188H280.831V292.878H225.43V254.188Z" fill="white"/>
</mask>
<g mask="url(#mask1_676_12940)">
<path fill-rule="evenodd" clip-rule="evenodd" d="M225.43 270.144L232.848 277.562L248.163 292.878L280.831 260.208C280.831 260.208 275.734 256.53 260.492 260.046C256.722 260.918 252.952 260.668 249.429 259.825C249.243 259.78 249.054 259.732 248.863 259.679C245.071 258.634 240.2 256.017 237.084 254.188C235.35 255.921 233.632 257.873 232.032 259.984C229.264 263.638 227.02 267.129 225.43 270.144Z" fill="#B6CCFC"/>
</g>
<path fill-rule="evenodd" clip-rule="evenodd" d="M231.708 260.011C231.647 260.011 231.587 259.99 231.537 259.948L183.962 219.985C183.85 219.891 183.835 219.723 183.93 219.611C184.024 219.498 184.192 219.483 184.304 219.578L231.879 259.541C231.991 259.636 232.006 259.803 231.912 259.916C231.859 259.978 231.784 260.011 231.708 260.011Z" fill="#21211D"/>
<path fill-rule="evenodd" clip-rule="evenodd" d="M216.54 272.394C216.521 272.394 216.502 272.392 216.482 272.388C216.339 272.357 216.248 272.215 216.28 272.071C218.805 260.538 226.111 252.559 231.795 247.896C237.948 242.848 243.586 240.489 243.642 240.466C243.778 240.409 243.934 240.474 243.99 240.61C244.046 240.746 243.981 240.901 243.846 240.957C243.79 240.98 238.213 243.315 232.119 248.318C226.505 252.926 219.291 260.807 216.799 272.185C216.772 272.309 216.662 272.394 216.54 272.394Z" fill="#21211D"/>
<path fill-rule="evenodd" clip-rule="evenodd" d="M245.922 290.763C245.855 290.763 245.788 290.738 245.736 290.687C245.631 290.584 245.629 290.416 245.732 290.311L276.523 258.863C276.627 258.758 276.795 258.756 276.899 258.859C277.005 258.962 277.007 259.13 276.905 259.235L246.112 290.683C246.06 290.736 245.991 290.763 245.922 290.763Z" fill="#21211D"/>
<path fill-rule="evenodd" clip-rule="evenodd" d="M240.899 285.837C240.829 285.837 240.758 285.809 240.706 285.754C240.605 285.648 240.609 285.48 240.715 285.379C240.776 285.321 246.808 279.686 251.764 284.539C251.869 284.642 251.871 284.81 251.769 284.915C251.666 285.02 251.497 285.021 251.392 284.919C249.474 283.041 247.168 282.603 244.537 283.619C242.541 284.39 241.096 285.75 241.082 285.764C241.031 285.813 240.965 285.837 240.899 285.837Z" fill="#21211D"/>
<path fill-rule="evenodd" clip-rule="evenodd" d="M237.327 267.693C238.588 268.927 238.609 270.949 237.375 272.21C236.141 273.47 234.119 273.492 232.858 272.257C231.597 271.023 231.576 269.001 232.81 267.74C234.045 266.48 236.067 266.458 237.327 267.693Z" fill="white"/>
<path fill-rule="evenodd" clip-rule="evenodd" d="M246.656 264.025C246.618 264.025 246.58 264.017 246.543 263.999C246.41 263.937 246.354 263.778 246.416 263.645L248.396 259.47C248.459 259.337 248.618 259.281 248.75 259.344C248.883 259.407 248.939 259.565 248.877 259.698L246.897 263.873C246.851 263.969 246.756 264.025 246.656 264.025Z" fill="#21211D"/>
<path fill-rule="evenodd" clip-rule="evenodd" d="M249.977 265.314C249.94 265.314 249.903 265.306 249.867 265.29C249.733 265.229 249.674 265.072 249.735 264.938L251.803 260.376C251.863 260.242 252.021 260.183 252.155 260.244C252.288 260.304 252.348 260.462 252.287 260.596L250.219 265.158C250.175 265.256 250.078 265.314 249.977 265.314Z" fill="#21211D"/>
<path fill-rule="evenodd" clip-rule="evenodd" d="M254.141 265.509C254.107 265.509 254.072 265.502 254.039 265.488C253.903 265.432 253.839 265.276 253.896 265.141L255.839 260.482C255.895 260.346 256.051 260.282 256.186 260.339C256.322 260.395 256.386 260.551 256.329 260.687L254.386 265.345C254.344 265.447 254.245 265.509 254.141 265.509Z" fill="#21211D"/>
<path fill-rule="evenodd" clip-rule="evenodd" d="M257.121 241.491C256.925 241.491 256.728 241.532 256.526 241.614C254.885 242.282 253.036 245.579 251.179 251.149C250.169 254.177 249.411 257.127 249.055 258.592C250.042 257.536 251.966 255.42 253.839 253.026C257.331 248.561 259.063 245.173 258.849 243.227C258.778 242.579 258.497 242.103 257.989 241.771C257.702 241.584 257.413 241.491 257.121 241.491ZM248.57 259.755C248.527 259.755 248.484 259.744 248.444 259.723C248.339 259.666 248.285 259.547 248.311 259.431C248.32 259.39 249.246 255.265 250.673 250.985C252.609 245.179 254.51 241.86 256.325 241.122C256.996 240.849 257.653 240.918 258.279 241.326C258.919 241.744 259.29 242.364 259.377 243.169C259.928 248.169 249.217 259.207 248.761 259.675C248.709 259.727 248.64 259.755 248.57 259.755Z" fill="#21211D"/>
<path fill-rule="evenodd" clip-rule="evenodd" d="M260.924 249.418C259.274 249.418 256.7 251.119 253.462 254.353C251.663 256.149 250.105 257.979 249.337 258.91C252.103 258.158 261.317 255.432 262.676 252.151C262.933 251.532 262.882 250.941 262.521 250.346C262.169 249.763 261.693 249.461 261.063 249.422C261.019 249.42 260.97 249.418 260.924 249.418ZM248.617 259.64C248.528 259.64 248.444 259.595 248.394 259.518C248.333 259.423 248.338 259.299 248.408 259.21C248.749 258.777 256.798 248.629 261.097 248.892C261.901 248.941 262.532 249.338 262.977 250.07C263.424 250.81 263.489 251.579 263.167 252.355C261.471 256.45 249.202 259.504 248.681 259.632C248.66 259.638 248.638 259.64 248.617 259.64Z" fill="#21211D"/>
<path fill-rule="evenodd" clip-rule="evenodd" d="M70.5625 196.542C70.5625 207.842 79.8082 216.973 91.1061 216.794C97.589 216.691 104.072 216.659 110.555 216.66C122.618 216.681 134.682 216.863 146.746 217.17C148.013 217.202 146.734 217.172 146.734 217.172C146.734 217.172 148.414 224.995 148.809 226.844C149.477 230.114 149.369 230.188 150.011 233.465C151.323 240.011 152.571 246.575 153.74 253.158L154.603 258.1L155.428 263.051C155.973 266.354 156.474 269.667 156.935 272.992L199.262 261.923C198.036 258.798 196.851 255.664 195.709 252.517L194.005 247.796L192.338 243.065C190.135 236.751 188.807 233.608 186.747 227.257C185.703 224.086 184.706 220.901 183.687 217.723C182.698 214.537 181.688 211.357 180.719 208.165L179.99 205.772L179.625 204.576L179.435 203.951L179.196 203.201C179.03 202.703 178.871 202.206 178.666 201.719C178.47 201.231 178.265 200.746 178.053 200.266C177.845 199.784 177.594 199.319 177.354 198.851C176.88 197.911 176.323 197.018 175.749 196.137C174.569 194.402 173.229 192.774 171.705 191.346C168.693 188.451 165.029 186.283 161.088 184.946C160.593 184.785 160.093 184.639 159.592 184.497L158.84 184.292C158.587 184.229 158.333 184.177 158.078 184.122C157.569 184.014 157.059 183.915 156.547 183.825C156.035 183.746 155.519 183.685 155.004 183.628C153.973 183.498 152.941 183.484 151.91 183.466L151.719 183.464L151.641 183.466L151.485 183.471L151.172 183.479L150.547 183.497C137.216 183.864 123.886 183.896 110.555 183.918C97.9523 183.73 84.4439 183.918 70.5625 183.918V196.542Z" fill="#3D3D44"/>
<path fill-rule="evenodd" clip-rule="evenodd" d="M156.934 272.991C157.479 275.115 161.252 276.04 166.581 275.862C170.439 275.735 175.113 275.03 179.966 273.786C183.962 272.762 187.613 271.464 190.641 270.055C196.374 267.391 199.875 264.32 199.261 261.922C198.604 259.356 193.404 258.244 186.374 258.827C183.369 259.074 180.03 259.635 176.568 260.52C172.904 261.459 169.498 262.687 166.581 264.043C160.295 266.968 156.294 270.489 156.934 272.991Z" fill="#21211D"/>
<path fill-rule="evenodd" clip-rule="evenodd" d="M166.586 264.044V292.877H212.787C212.787 292.877 211.782 286.672 198.519 278.381C195.238 276.331 192.747 273.489 190.854 270.402C190.784 270.288 190.715 270.173 190.646 270.056C188.556 266.515 187.224 262.178 186.379 258.828C183.374 259.075 180.035 259.636 176.573 260.521C172.909 261.46 169.503 262.688 166.586 264.044Z" fill="#B6CCFC"/>
<path fill-rule="evenodd" clip-rule="evenodd" d="M176.576 260.626C176.463 260.626 176.358 260.554 176.323 260.44L160.812 210.971C158.818 204.531 152.949 200.205 146.208 200.205H94.6122C90.1003 200.205 86.4297 196.534 86.4297 192.022V184.385C86.4297 184.239 86.5488 184.12 86.6955 184.12C86.8424 184.12 86.9614 184.239 86.9614 184.385V192.022C86.9614 196.241 90.3938 199.673 94.6122 199.673H146.208C153.183 199.673 159.256 204.15 161.32 210.813L176.83 260.281C176.874 260.421 176.796 260.57 176.656 260.614C176.63 260.622 176.603 260.626 176.576 260.626Z" fill="#21211D"/>
<path fill-rule="evenodd" clip-rule="evenodd" d="M155.219 262.222C155.142 262.222 155.065 262.188 155.013 262.124C154.92 262.01 154.937 261.842 155.051 261.75C163.708 254.708 174.252 252.557 181.574 251.992C189.5 251.381 195.467 252.447 195.527 252.458C195.671 252.485 195.767 252.623 195.74 252.767C195.714 252.912 195.576 253.008 195.431 252.981C195.372 252.971 189.46 251.916 181.6 252.523C174.358 253.084 163.932 255.21 155.387 262.162C155.337 262.202 155.278 262.222 155.219 262.222Z" fill="#21211D"/>
<path fill-rule="evenodd" clip-rule="evenodd" d="M211.343 290.234H166.727C166.58 290.234 166.461 290.115 166.461 289.968C166.461 289.821 166.58 289.702 166.727 289.702H211.343C211.489 289.702 211.608 289.821 211.608 289.968C211.608 290.115 211.489 290.234 211.343 290.234Z" fill="#21211D"/>
<path fill-rule="evenodd" clip-rule="evenodd" d="M174.8 290.234C174.653 290.234 174.534 290.115 174.534 289.968C174.534 287.283 173.233 285.33 170.667 284.161C168.719 283.273 166.737 283.193 166.717 283.192C166.571 283.187 166.456 283.064 166.461 282.917C166.466 282.77 166.592 282.656 166.736 282.661C166.819 282.664 175.066 283.032 175.066 289.968C175.066 290.115 174.947 290.234 174.8 290.234Z" fill="#21211D"/>
<path fill-rule="evenodd" clip-rule="evenodd" d="M176.99 267.859C176.99 269.624 175.56 271.054 173.796 271.054C172.032 271.054 170.602 269.624 170.602 267.859C170.602 266.095 172.032 264.665 173.796 264.665C175.56 264.665 176.99 266.095 176.99 267.859Z" fill="white"/>
<path fill-rule="evenodd" clip-rule="evenodd" d="M186.219 272.045C186.109 272.045 186.006 271.976 185.968 271.866C185.92 271.727 185.994 271.576 186.132 271.528L190.501 270.021C190.639 269.973 190.791 270.047 190.839 270.186C190.887 270.325 190.813 270.476 190.674 270.524L186.306 272.031C186.277 272.041 186.248 272.045 186.219 272.045Z" fill="#21211D"/>
<path fill-rule="evenodd" clip-rule="evenodd" d="M187.735 275.323C187.626 275.323 187.524 275.256 187.485 275.148C187.435 275.01 187.506 274.857 187.644 274.807L192.583 273.008C192.72 272.958 192.873 273.029 192.924 273.167C192.974 273.305 192.903 273.458 192.765 273.508L187.826 275.307C187.796 275.318 187.765 275.323 187.735 275.323Z" fill="#21211D"/>
<path fill-rule="evenodd" clip-rule="evenodd" d="M190.516 278.433C190.41 278.433 190.31 278.369 190.269 278.265C190.215 278.129 190.281 277.974 190.417 277.92L195.336 275.957C195.472 275.903 195.627 275.969 195.682 276.105C195.736 276.242 195.67 276.396 195.533 276.451L190.615 278.414C190.582 278.426 190.549 278.433 190.516 278.433Z" fill="#21211D"/>
<path fill-rule="evenodd" clip-rule="evenodd" d="M207.777 263.119C205.835 263.119 202.68 264.161 198.507 266.192C195.637 267.589 193.002 269.111 191.707 269.881C193.152 269.848 196.01 269.742 199.031 269.405C204.664 268.776 208.297 267.644 209.538 266.129C209.951 265.625 210.094 265.09 209.975 264.496C209.864 263.936 209.566 263.558 209.064 263.341C208.723 263.193 208.293 263.119 207.777 263.119ZM190.727 270.428C190.608 270.428 190.504 270.349 190.471 270.235C190.439 270.121 190.486 269.999 190.587 269.936C190.623 269.914 194.217 267.689 198.274 265.714C203.777 263.036 207.478 262.073 209.276 262.853C209.94 263.141 210.351 263.659 210.497 264.392C210.646 265.142 210.462 265.84 209.949 266.466C206.761 270.358 191.38 270.427 190.727 270.428H190.727Z" fill="#21211D"/>
<path fill-rule="evenodd" clip-rule="evenodd" d="M205.849 275.112C206.471 274.862 206.857 274.413 207.03 273.738C207.2 273.079 207.082 272.527 206.67 272.051C205.593 270.807 202.536 270.121 197.828 270.068C195.286 270.04 192.889 270.207 191.686 270.309C194.159 271.759 202.554 276.436 205.849 275.112ZM190.712 270.346C190.615 270.286 190.567 270.171 190.593 270.061C190.618 269.95 190.71 269.867 190.823 269.855C191.37 269.796 204.254 268.446 207.072 271.703C207.599 272.312 207.759 273.041 207.546 273.871C207.33 274.709 206.826 275.292 206.047 275.605C205.592 275.788 205.056 275.87 204.461 275.87C199.679 275.87 191.117 270.597 190.712 270.346Z" fill="#21211D"/>
<path fill-rule="evenodd" clip-rule="evenodd" d="M103.228 153.787C108.054 152.687 112.846 151.448 117.628 150.168L124.796 148.218L125.243 148.096L125.355 148.065C125.27 148.087 125.161 148.113 125.063 148.132C124.869 148.173 124.647 148.196 124.471 148.218C123.751 148.289 123.006 148.255 122.295 148.095C120.87 147.776 119.584 147.031 118.612 145.938C118.123 145.397 117.715 144.769 117.417 144.096C117.34 143.931 117.271 143.76 117.212 143.587C117.154 143.422 117.111 143.302 117.07 143.154L117.042 143.047L117.029 142.993C117.028 142.987 117.023 142.969 117.024 142.973L117.028 142.987L117.063 143.101L117.132 143.329L117.686 145.154L119.905 152.45L122.157 159.737L124.898 171.531L127.193 178.802C128.71 183.607 133.753 186.246 138.458 184.697C142.941 183.22 145.498 178.473 144.416 173.871L144.407 173.836L142.178 161.953L140.394 154.593L138.597 147.238L136.768 139.894L136.31 138.058L136.252 137.829L136.224 137.714L136.114 137.32C136.026 137.021 135.944 136.747 135.829 136.435C135.71 136.116 135.581 135.799 135.444 135.487C134.877 134.243 134.12 133.084 133.212 132.075C131.39 130.063 128.981 128.647 126.335 128.086C125.017 127.804 123.645 127.724 122.308 127.871C121.977 127.902 121.604 127.965 121.256 128.03C121.082 128.062 120.896 128.101 120.735 128.137L120.621 128.164L120.165 128.27L112.873 129.973C108.016 131.127 103.168 132.324 98.3542 133.659C92.9429 135.16 89.7474 140.857 91.2167 146.384C92.6431 151.75 97.9427 154.983 103.202 153.793L103.228 153.787Z" fill="#825DA3"/>
<path fill-rule="evenodd" clip-rule="evenodd" d="M66.8438 185.512L79.8064 143.294C80.7661 135.229 87.5793 130.313 95.5565 130.604L109.99 131.709C116.853 131.959 122.819 135.438 124.459 142.225L128.281 185.512H66.8438Z" fill="#825DA3"/>
<mask id="mask2_676_12940" style="mask-type:alpha" maskUnits="userSpaceOnUse" x="47" y="126" width="64" height="61">
<path fill-rule="evenodd" clip-rule="evenodd" d="M47.4219 126.49H110.863V186.739H47.4219V126.49Z" fill="white"/>
</mask>
<g mask="url(#mask2_676_12940)">
<path fill-rule="evenodd" clip-rule="evenodd" d="M103.11 132.009C100.885 131.454 98.6517 130.931 96.4211 130.396L89.7187 128.843L83.0075 127.329L81.3283 126.957L80.9084 126.864L80.6986 126.818L80.2842 126.733L79.8234 126.651C78.5904 126.458 77.3114 126.432 76.0622 126.608C73.558 126.943 71.1919 128.021 69.2816 129.669C68.3278 130.496 67.4863 131.462 66.7911 132.533C66.1012 133.608 65.5676 134.778 65.2014 135.984L65.7815 134.49L61.3445 144.327C59.8672 147.607 58.3799 150.882 56.9219 154.172L52.5307 164.032C51.0837 167.327 49.6213 170.614 48.1891 173.916C46.1878 178.531 48.2368 183.924 52.766 185.963C57.0724 187.902 62.0864 186.079 64.2879 181.931C65.9649 178.75 67.6118 175.555 69.2741 172.367L74.2111 162.779C75.8626 159.586 77.4847 156.378 79.1169 153.175L84.0079 143.564L84.588 142.07C84.4005 142.721 84.1093 143.359 83.7299 143.943C83.3576 144.531 82.8992 145.059 82.3796 145.505C81.3491 146.405 80.0677 146.985 78.7017 147.175C78.0198 147.263 77.3198 147.264 76.6518 147.155C76.5684 147.143 76.4852 147.128 76.4025 147.112L76.1994 147.066L76.4085 147.116L76.8268 147.217L78.4994 147.618L85.1964 149.196L91.902 150.735C94.1411 151.232 96.3772 151.739 98.6208 152.215C104.119 153.381 109.504 149.785 110.648 144.183C111.767 138.706 108.399 133.335 103.11 132.009Z" fill="#825DA3"/>
</g>
<path fill-rule="evenodd" clip-rule="evenodd" d="M65.7781 134.579C64.1763 137.791 62.6188 141.025 61.0749 144.266L58.7756 149.135L56.5026 154.018C54.9905 157.274 53.474 160.529 51.9857 163.797C50.4825 167.058 49.0114 170.335 47.5358 173.61L47.2305 174.288C45.051 179.125 47.1406 184.842 51.8978 187.058C54.0813 188.075 56.463 188.173 58.5948 187.519L106.832 172.639C110.605 171.475 112.735 167.422 111.591 163.586C110.521 160 106.935 157.881 103.395 158.569L53.916 168.366L64.975 182.274C66.609 179.078 68.2483 175.885 69.8548 172.675C71.4762 169.473 73.0696 166.257 74.6673 163.043L77.0591 158.219L79.4248 153.383C80.9905 150.153 82.543 146.917 84.0508 143.658C86.4422 138.49 84.2606 132.331 79.1783 129.899C74.192 127.514 68.2585 129.619 65.7781 134.579Z" fill="#825DA3"/>
<path fill-rule="evenodd" clip-rule="evenodd" d="M72.9177 169.129C72.8782 169.129 72.8384 169.12 72.8008 169.1C72.7822 169.091 70.8871 168.108 67.4154 167.072C64.2117 166.116 58.9717 164.918 52.2017 164.637C52.0589 164.631 51.9476 164.506 51.9533 164.359C51.9591 164.212 52.0799 164.096 52.2224 164.103C59.0534 164.387 64.3428 165.598 67.577 166.564C71.0899 167.614 72.9574 168.583 73.0352 168.624C73.1625 168.691 73.2134 168.852 73.1488 168.983C73.1031 169.076 73.0121 169.129 72.9177 169.129Z" fill="#21211D"/>
<path fill-rule="evenodd" clip-rule="evenodd" d="M100.733 145.113C98.5977 145.113 96.5618 144.425 94.8453 143.122C92.3914 141.26 90.9015 138.21 90.8601 134.964C90.851 134.259 90.9253 133.517 91.0872 132.697L91.6432 129.506C91.6681 129.363 91.8014 129.267 91.9431 129.293C92.0836 129.318 92.1775 129.455 92.1525 129.598L91.5953 132.795C91.4397 133.584 91.3687 134.289 91.3773 134.958C91.417 138.041 92.8287 140.935 95.1544 142.7C96.781 143.934 98.7099 144.586 100.733 144.586C102.625 144.586 104.451 144.009 106.013 142.917C108.525 141.16 110.044 138.178 110.076 134.941C110.083 134.24 110.002 133.502 109.828 132.685L109.431 130.933C109.398 130.792 109.485 130.65 109.624 130.618C109.763 130.585 109.903 130.673 109.935 130.815L110.332 132.57C110.516 133.429 110.601 134.206 110.593 134.947C110.559 138.355 108.957 141.497 106.306 143.351C104.658 144.504 102.73 145.113 100.733 145.113Z" fill="#21211D"/>
<path fill-rule="evenodd" clip-rule="evenodd" d="M72.1305 164.661C72.1141 164.661 72.0975 164.659 72.0808 164.656C71.9426 164.628 71.8525 164.489 71.8799 164.346L75.4656 145.512C75.4928 145.369 75.6268 145.276 75.7651 145.304C75.9033 145.332 75.9934 145.471 75.966 145.614L72.3803 164.448C72.3563 164.574 72.2496 164.661 72.1305 164.661Z" fill="#21211D"/>
<path fill-rule="evenodd" clip-rule="evenodd" d="M129.597 185.512L123.259 146.348C123.239 146.22 123.421 146.181 123.452 146.307L132.566 183.602L129.597 185.512Z" fill="#21211D"/>
<path fill-rule="evenodd" clip-rule="evenodd" d="M59.438 187.877C61.4215 187.28 63.402 186.671 65.3812 186.057L71.3201 184.219C75.277 182.985 79.2371 181.763 83.1864 180.497C87.137 179.236 91.0753 177.927 95.0194 176.64L100.927 174.673L106.826 172.673C110.571 171.402 112.594 167.288 111.344 163.482C110.213 160.039 106.787 158.03 103.371 158.62L97.2389 159.672L91.1151 160.757C87.0385 161.505 82.9565 162.23 78.8864 163.004C74.8148 163.773 70.7541 164.586 66.6907 165.387L60.5986 166.601C58.5674 167.004 56.5376 167.413 54.5107 167.833C49.0034 168.976 45.4505 174.437 46.5749 180.032C47.6992 185.627 53.0757 189.237 58.5829 188.094C58.8672 188.035 59.1647 187.959 59.438 187.877Z" fill="#963716"/>
<path fill-rule="evenodd" clip-rule="evenodd" d="M97.2188 167.736C99.6061 167.023 101.985 166.276 104.361 165.514L107.921 164.351L108.81 164.054C109.098 163.959 109.432 163.845 109.635 163.783C110.108 163.634 110.553 163.526 110.877 163.473C111.21 163.421 111.431 163.41 111.667 163.444C111.9 163.478 112.18 163.582 112.509 163.793C112.837 164.003 113.203 164.285 113.566 164.64L113.682 164.746L113.775 164.838C113.837 164.901 113.897 164.968 113.956 165.037L114 165.089L114.022 165.116L114.057 165.164L114.195 165.357L114.472 165.743C115.95 167.802 117.453 169.844 119.047 171.83C119.656 172.588 120.751 172.699 121.495 172.079C122.108 171.568 122.288 170.717 121.992 170.011C121.001 167.652 119.917 165.349 118.809 163.063L118.601 162.634L118.497 162.42L118.471 162.366L118.432 162.292L118.351 162.142C118.24 161.945 118.121 161.752 117.994 161.562C117.931 161.467 117.865 161.373 117.797 161.28L117.694 161.142L117.606 161.028C117.149 160.426 116.62 159.817 115.969 159.24C115.319 158.669 114.507 158.119 113.556 157.75C112.609 157.375 111.571 157.218 110.661 157.214C109.737 157.208 108.95 157.323 108.208 157.452C107.801 157.524 107.535 157.583 107.219 157.646L106.299 157.833L102.622 158.6C100.174 159.126 97.7292 159.666 95.2923 160.24C93.2454 160.722 91.9693 162.803 92.4422 164.889C92.9149 166.975 94.9576 168.275 97.0044 167.793C97.0727 167.777 97.1522 167.756 97.2188 167.736Z" fill="#963716"/>
<path fill-rule="evenodd" clip-rule="evenodd" d="M94.7394 172.748L110.895 166.331L108.448 165.974C108.426 165.951 108.479 165.983 108.502 165.994L108.603 166.05C108.672 166.09 108.746 166.135 108.819 166.182C108.966 166.274 109.114 166.378 109.261 166.483C109.555 166.695 109.843 166.926 110.118 167.169C110.667 167.656 111.167 168.194 111.582 168.774C111.792 169.063 111.982 169.362 112.145 169.672C112.312 169.981 112.457 170.3 112.57 170.628C112.81 171.283 112.924 171.978 112.942 172.703L112.945 172.818C112.969 173.786 113.759 174.552 114.71 174.528C115.533 174.507 116.206 173.9 116.357 173.109C116.564 172.029 116.615 170.882 116.458 169.763C116.388 169.202 116.267 168.65 116.111 168.112C115.957 167.572 115.763 167.048 115.539 166.544C115.094 165.53 114.529 164.594 113.889 163.727C113.568 163.294 113.228 162.878 112.864 162.475C112.682 162.275 112.495 162.077 112.297 161.881C112.198 161.783 112.098 161.686 111.991 161.588L111.825 161.438C111.759 161.381 111.722 161.345 111.608 161.258L111.608 161.258C110.943 160.773 110.132 160.645 109.397 160.837L109.161 160.901L92.3904 165.395C90.3597 165.939 89.1466 168.057 89.6807 170.125C90.215 172.194 92.2944 173.43 94.3252 172.886C94.4663 172.848 94.6066 172.801 94.7394 172.748Z" fill="#963716"/>
<path fill-rule="evenodd" clip-rule="evenodd" d="M91.7655 174.462L107.929 168.023L105.756 167.834L105.756 167.834C105.724 167.815 105.727 167.815 105.728 167.814C105.728 167.812 105.728 167.81 105.733 167.812C105.742 167.814 105.747 167.813 105.761 167.819C105.784 167.826 105.809 167.835 105.837 167.847C105.893 167.87 105.953 167.898 106.015 167.928C106.138 167.991 106.267 168.06 106.392 168.139C106.646 168.293 106.892 168.474 107.125 168.671C107.591 169.066 107.998 169.531 108.323 170.059C108.653 170.586 108.896 171.181 109.052 171.834C109.203 172.486 109.267 173.195 109.238 173.933L109.236 173.998C109.198 174.972 109.94 175.791 110.893 175.83C111.718 175.863 112.43 175.299 112.631 174.516C112.881 173.543 113.024 172.505 113.014 171.431C113 170.359 112.824 169.25 112.462 168.192C112.105 167.132 111.572 166.126 110.907 165.228C110.575 164.778 110.212 164.352 109.812 163.952C109.614 163.751 109.403 163.558 109.181 163.368C109.07 163.273 108.955 163.179 108.832 163.084C108.771 163.038 108.707 162.989 108.639 162.941L108.529 162.865L108.465 162.822C108.443 162.808 108.423 162.795 108.367 162.763L108.367 162.763C107.745 162.415 107.048 162.346 106.412 162.515L106.194 162.574L89.4155 167.083C87.3836 167.629 86.1697 169.755 86.7042 171.83C87.2389 173.906 89.3194 175.146 91.3511 174.6C91.4924 174.562 91.6326 174.515 91.7655 174.462Z" fill="#963716"/>
<path fill-rule="evenodd" clip-rule="evenodd" d="M89.1091 176.258L105.491 169.076L102.627 168.503C102.658 168.517 102.742 168.582 102.803 168.627L103.007 168.784C103.143 168.892 103.28 169.003 103.415 169.116C103.684 169.343 103.946 169.578 104.195 169.817C104.692 170.291 105.145 170.793 105.465 171.245C105.625 171.468 105.747 171.678 105.82 171.816C105.896 171.96 105.917 171.992 105.978 171.946C106.007 171.927 106.047 171.906 106.07 171.914C106.094 171.92 106.097 171.954 106.067 172.004C106.01 172.107 105.813 172.252 105.567 172.375L105.417 172.449C104.563 172.874 104.21 173.921 104.629 174.788C104.985 175.525 105.787 175.893 106.543 175.725C107.064 175.609 107.624 175.447 108.224 175.074C108.52 174.887 108.824 174.644 109.097 174.33C109.369 174.018 109.604 173.633 109.76 173.227C109.918 172.821 109.999 172.404 110.027 172.017C110.055 171.629 110.034 171.27 109.99 170.94C109.898 170.277 109.723 169.722 109.528 169.214C109.132 168.203 108.647 167.366 108.133 166.573C107.875 166.178 107.608 165.798 107.33 165.427C107.191 165.241 107.049 165.058 106.903 164.876L106.679 164.601C106.597 164.504 106.536 164.428 106.42 164.303L106.419 164.302C105.69 163.596 104.672 163.385 103.771 163.661L103.554 163.729L86.4862 169.016C84.4747 169.64 83.3419 171.799 83.9561 173.84C84.5704 175.881 86.6991 177.03 88.7107 176.407C88.8466 176.364 88.9816 176.314 89.1091 176.258Z" fill="#963716"/>
<path fill-rule="evenodd" clip-rule="evenodd" d="M117.04 169.502C116.944 169.502 116.85 169.447 116.806 169.353C116.786 169.312 114.834 165.261 112.433 164.238C112.3 164.181 112.238 164.026 112.294 163.892C112.349 163.758 112.502 163.695 112.634 163.751C115.217 164.852 117.191 168.949 117.274 169.123C117.337 169.254 117.283 169.412 117.153 169.476C117.117 169.493 117.078 169.502 117.04 169.502Z" fill="#21211D"/>
<path fill-rule="evenodd" clip-rule="evenodd" d="M112.885 173.039C112.873 173.039 112.862 173.038 112.85 173.036C112.709 173.017 112.611 172.884 112.63 172.74C112.636 172.694 113.216 168.063 110.207 167.035C110.072 166.989 110 166.84 110.045 166.702C110.089 166.564 110.235 166.49 110.37 166.536C111.793 167.022 112.723 168.272 113.058 170.15C113.306 171.534 113.146 172.76 113.139 172.811C113.121 172.943 113.011 173.039 112.885 173.039Z" fill="#21211D"/>
<path fill-rule="evenodd" clip-rule="evenodd" d="M109.21 174.342C109.173 174.342 109.136 174.334 109.1 174.317C108.968 174.256 108.911 174.099 108.971 173.966C108.979 173.949 109.702 172.333 109.048 170.986C108.643 170.153 107.791 169.579 106.516 169.28C106.375 169.247 106.287 169.105 106.319 168.962C106.352 168.819 106.494 168.731 106.635 168.764C108.074 169.101 109.045 169.771 109.521 170.756C110.284 172.333 109.483 174.114 109.449 174.188C109.404 174.285 109.309 174.342 109.21 174.342Z" fill="#21211D"/>
<path fill-rule="evenodd" clip-rule="evenodd" d="M104.154 173.411C104.043 173.411 103.94 173.342 103.903 173.234C103.859 173.1 103.934 172.955 104.073 172.912L105.177 172.564L104.706 172.421C104.567 172.379 104.489 172.236 104.533 172.101C104.576 171.966 104.723 171.891 104.863 171.933L106.125 172.314C106.235 172.348 106.31 172.446 106.311 172.557C106.312 172.669 106.238 172.768 106.129 172.802L104.236 173.398C104.209 173.407 104.181 173.411 104.154 173.411Z" fill="#21211D"/>
<path fill-rule="evenodd" clip-rule="evenodd" d="M124.938 185.699H171.477L183.954 149.954H139.038C138.065 149.954 137.196 150.577 136.869 151.509L124.938 185.699Z" fill="#21211D"/>
<path fill-rule="evenodd" clip-rule="evenodd" d="M128.653 185.699H174.382C174.536 185.699 174.674 185.6 174.724 185.453L186.273 152.334C186.678 151.173 185.833 149.954 184.623 149.954H142.483C141.356 149.954 140.351 150.675 139.973 151.756L128.311 185.204C128.226 185.445 128.402 185.699 128.653 185.699Z" fill="#CEB2E8"/>
<mask id="mask3_676_12940" style="mask-type:alpha" maskUnits="userSpaceOnUse" x="128" y="150" width="59" height="36">
<path fill-rule="evenodd" clip-rule="evenodd" d="M184.715 150.097C185.923 150.097 186.768 151.313 186.362 152.47L174.822 185.49C174.769 185.637 174.634 185.735 174.479 185.735H128.778C128.527 185.735 128.351 185.482 128.436 185.241L140.09 151.894C140.469 150.817 141.473 150.097 142.599 150.097H184.715Z" fill="#CEB2E8"/>
</mask>
<g mask="url(#mask3_676_12940)">
<path fill-rule="evenodd" clip-rule="evenodd" d="M181.662 142.762L124.305 182.861L138.908 192.504L192.274 158.171L181.662 142.762Z" fill="#E5D0F8"/>
</g>
<path fill-rule="evenodd" clip-rule="evenodd" d="M157.253 169.315C155.879 169.315 154.921 168.19 155.114 166.802C155.307 165.414 156.578 164.289 157.953 164.289C159.327 164.289 160.285 165.414 160.091 166.802C159.898 168.19 158.627 169.315 157.253 169.315ZM159.93 185.698H102.961C102.961 183.848 104.406 182.347 106.187 182.347H159.93V185.698Z" fill="#CEB2E8"/>
<path fill-rule="evenodd" clip-rule="evenodd" d="M175.502 182.534H129.29C129.147 182.534 129.031 182.409 129.031 182.255C129.031 182.1 129.147 181.975 129.29 181.975H175.502C175.645 181.975 175.761 182.1 175.761 182.255C175.761 182.409 175.645 182.534 175.502 182.534Z" fill="#21211D"/>
<path fill-rule="evenodd" clip-rule="evenodd" d="M108.141 131.106L108.495 134.149C108.542 134.584 108.56 135.071 108.534 135.522C108.283 139.831 104.626 143.119 100.366 142.865C96.1064 142.611 92.8564 138.912 93.1074 134.603L93.3952 129.661C93.3952 129.661 98.7071 131.428 108.141 131.106Z" fill="#963716"/>
<path fill-rule="evenodd" clip-rule="evenodd" d="M114.086 123.886C112.491 125.547 110.312 125.821 108.008 125.359C102.13 124.181 95.4157 118.214 95.4157 118.214C93.7057 116.871 91.8535 114.896 91.1475 112.783C91.0777 112.574 91.0185 112.361 90.9729 112.149C90.6858 110.839 90.4818 110.95 90.1355 108.762C89.3247 103.667 92.8199 99.5193 103.67 99.9622C105.49 100.037 107.055 101.079 108.365 102.174C109.19 102.861 109.904 103.675 110.473 104.579C110.508 104.63 110.54 104.684 110.572 104.735C112.999 108.287 119.208 118.541 114.086 123.886Z" fill="#963716"/>
<path fill-rule="evenodd" clip-rule="evenodd" d="M105.798 111.919L108.218 132.507C108.697 136.573 105.788 140.257 101.722 140.735C97.6557 141.213 93.9721 138.304 93.494 134.238C93.4441 133.813 93.4346 133.351 93.4562 132.937L94.6751 112.242C94.8564 109.163 97.4997 106.814 100.579 106.995C103.325 107.157 105.49 109.278 105.798 111.919Z" fill="#963716"/>
<path fill-rule="evenodd" clip-rule="evenodd" d="M97.5204 110.652L98.8439 114.37C98.8975 114.523 98.9243 114.681 98.9243 114.837C98.9243 115.392 98.586 115.918 98.0359 116.131C97.3674 116.388 96.613 116.096 96.2937 115.457L95.6117 114.16C95.3567 113.674 94.9218 113.309 94.3985 113.145L91.1475 112.783C91.0779 112.574 91.0187 112.362 90.9731 112.15C90.6858 110.84 90.4817 110.95 90.1355 108.762C89.3249 103.667 92.8199 99.5193 103.67 99.9622C105.461 100.298 107.056 101.079 108.366 102.174C109.19 102.861 109.904 103.675 110.473 104.579C105.434 106.934 101.461 107.787 99.0962 108.096C97.8747 108.254 97.1071 109.492 97.5204 110.652Z" fill="#E69BC8"/>
<path fill-rule="evenodd" clip-rule="evenodd" d="M96.0891 116.202C95.9556 118.503 93.9824 120.26 91.6814 120.127C89.3807 119.993 87.6238 118.02 87.7571 115.719C87.8906 113.418 89.8638 111.661 92.1646 111.795C94.4655 111.928 96.2226 113.901 96.0891 116.202Z" fill="#963716"/>
<mask id="mask4_676_12940" style="mask-type:alpha" maskUnits="userSpaceOnUse" x="101" y="93" width="13" height="13">
<path fill-rule="evenodd" clip-rule="evenodd" d="M101.984 93.7803H113.46V105.255H101.984V93.7803Z" fill="white"/>
</mask>
<g mask="url(#mask4_676_12940)">
<path fill-rule="evenodd" clip-rule="evenodd" d="M113.346 100.646C112.723 103.752 109.7 105.765 106.594 105.142C103.487 104.519 101.474 101.496 102.098 98.3899C102.72 95.2836 105.744 93.2703 108.85 93.8934C111.957 94.5165 113.97 97.5398 113.346 100.646Z" fill="#E69BC8"/>
</g>
<path fill-rule="evenodd" clip-rule="evenodd" d="M107.334 125.209C107.334 125.209 105.593 124.919 103.287 123.734C103.005 123.589 102.726 123.932 102.929 124.175L107.768 128.68L107.334 125.209Z" fill="#21211D"/>
<path fill-rule="evenodd" clip-rule="evenodd" d="M94.2861 119.378C94.2861 119.378 94.8411 119.047 95.2406 118.462C95.3017 118.372 95.4398 118.398 95.4607 118.504C95.6029 119.227 95.699 121.028 94.0625 122.604L94.2861 119.378Z" fill="#21211D"/>
<path d="M89.8802 114.734C89.9342 114.605 90.0766 114.541 90.2073 114.581L90.2315 114.59L93.5082 115.963C93.645 116.02 93.7094 116.177 93.6521 116.314C93.5983 116.443 93.4557 116.508 93.3252 116.467L93.3008 116.458L90.0241 115.086C89.8875 115.028 89.8231 114.871 89.8802 114.734Z" fill="#21211D"/>
<path d="M91.5977 115.458C91.6508 115.32 91.8059 115.25 91.9444 115.303C92.0747 115.353 92.1439 115.494 92.1075 115.625L92.0993 115.65L91.6286 116.882C91.5757 117.02 91.4207 117.09 91.2821 117.037C91.1518 116.987 91.0826 116.847 91.1191 116.715L91.1271 116.69L91.5977 115.458Z" fill="#21211D"/>
<path fill-rule="evenodd" clip-rule="evenodd" d="M116.908 112.235C116.908 112.235 115.523 113.947 113.271 113.866C112.317 113.831 111.206 113.478 109.984 112.53C109.984 112.53 111.174 111.164 113.155 111.032C114.205 110.959 115.474 111.229 116.908 112.235Z" fill="white"/>
<path fill-rule="evenodd" clip-rule="evenodd" d="M116.912 112.235C116.912 112.235 115.527 113.947 113.275 113.866C112.959 113.484 112.767 113.007 112.744 112.474C112.722 111.942 112.877 111.44 113.159 111.032C114.209 110.959 115.478 111.229 116.912 112.235Z" fill="#21211D"/>
<path d="M108.102 111.224C108.243 111.186 108.387 111.261 108.438 111.395L108.446 111.42L109.608 115.651C109.816 116.411 109.257 117.162 108.476 117.186L108.433 117.187L107.467 117.184C107.312 117.184 107.187 117.058 107.188 116.903C107.188 116.757 107.3 116.638 107.443 116.625L107.468 116.624L108.435 116.627C108.856 116.628 109.166 116.239 109.076 115.833L109.068 115.799L107.907 111.568C107.866 111.419 107.953 111.265 108.102 111.224Z" fill="#21211D"/>
<path d="M110.923 108.88C112.584 108.229 114.451 108.233 116.334 109.327C116.467 109.405 116.513 109.576 116.435 109.71C116.357 109.844 116.186 109.889 116.053 109.811C114.333 108.811 112.641 108.808 111.127 109.401C110.908 109.487 110.713 109.578 110.546 109.669L110.458 109.718C110.407 109.748 110.371 109.77 110.351 109.784C110.223 109.871 110.049 109.837 109.962 109.709C109.876 109.581 109.909 109.407 110.037 109.321L110.073 109.298C110.12 109.267 110.189 109.226 110.278 109.178C110.466 109.076 110.681 108.974 110.923 108.88Z" fill="#21211D"/>
<path fill-rule="evenodd" clip-rule="evenodd" d="M107.165 112.235C107.165 112.235 105.781 113.947 103.529 113.866C102.575 113.831 101.464 113.478 100.242 112.53C100.242 112.53 101.432 111.164 103.413 111.032C104.463 110.959 105.732 111.229 107.165 112.235Z" fill="white"/>
<path fill-rule="evenodd" clip-rule="evenodd" d="M107.154 112.235C107.154 112.235 105.769 113.947 103.518 113.866C103.201 113.484 103.009 113.007 102.987 112.474C102.964 111.942 103.119 111.44 103.402 111.032C104.451 110.959 105.72 111.229 107.154 112.235Z" fill="#21211D"/>
<path d="M100.311 109.327C102.194 108.233 104.061 108.229 105.722 108.88C105.963 108.974 106.179 109.076 106.367 109.178L106.438 109.218C106.515 109.261 106.572 109.297 106.608 109.321C106.736 109.407 106.769 109.581 106.683 109.709C106.596 109.837 106.422 109.871 106.294 109.784L106.252 109.757C106.216 109.735 106.165 109.705 106.099 109.669C105.931 109.578 105.737 109.487 105.518 109.401C104.004 108.808 102.312 108.811 100.592 109.811C100.459 109.889 100.288 109.844 100.21 109.71C100.132 109.576 100.177 109.405 100.311 109.327Z" fill="#21211D"/>
<path d="M105.71 117.76C105.847 117.711 105.997 117.776 106.057 117.905L106.077 117.955C106.087 117.98 106.105 118.016 106.129 118.061C106.188 118.17 106.263 118.28 106.355 118.381C106.66 118.715 107.073 118.889 107.638 118.822C107.791 118.803 107.93 118.913 107.949 119.066C107.967 119.22 107.857 119.359 107.704 119.377C106.951 119.467 106.363 119.22 105.942 118.758C105.726 118.522 105.599 118.286 105.539 118.117C105.488 117.971 105.565 117.811 105.71 117.76Z" fill="#21211D"/>
<path opacity="0.01" d="M103.77 117.041C104.682 116.383 105.768 116.27 106.965 116.689C108.199 117.121 109.043 117.497 109.472 118.884C109.563 119.178 109.398 119.491 109.103 119.582C108.809 119.673 108.496 119.509 108.405 119.214C108.076 118.154 107.482 118.053 106.596 117.744C105.729 117.44 105.025 117.513 104.425 117.947C104.175 118.127 103.826 118.071 103.645 117.821C103.464 117.571 103.52 117.222 103.77 117.041Z" fill="#E69BC8"/>
<path fill-rule="evenodd" clip-rule="evenodd" d="M113.867 107.717C113.284 107.717 112.702 107.845 112.157 108.098C111.172 108.555 110.424 109.369 110.05 110.39C109.28 112.496 110.367 114.836 112.473 115.606C114.579 116.377 116.919 115.29 117.69 113.184C118.063 112.163 118.016 111.059 117.559 110.074C117.101 109.088 116.287 108.34 115.267 107.967C114.811 107.801 114.339 107.717 113.867 107.717ZM113.865 116.524C113.326 116.524 112.778 116.431 112.243 116.235C109.79 115.338 108.524 112.613 109.421 110.159C109.856 108.971 110.727 108.023 111.875 107.491C113.023 106.958 114.309 106.904 115.497 107.338C116.685 107.773 117.633 108.644 118.166 109.792C118.699 110.939 118.753 112.226 118.318 113.414C117.617 115.332 115.798 116.524 113.865 116.524Z" fill="#CE8D23"/>
<path fill-rule="evenodd" clip-rule="evenodd" d="M103.578 107.734C102.995 107.734 102.413 107.861 101.868 108.115C100.883 108.572 100.134 109.386 99.7611 110.406C98.9908 112.512 100.077 114.853 102.184 115.623C104.29 116.393 106.63 115.307 107.4 113.2C108.171 111.094 107.084 108.754 104.978 107.984C104.522 107.817 104.05 107.734 103.578 107.734ZM103.576 116.54C103.037 116.54 102.489 116.448 101.954 116.252C99.5007 115.355 98.2351 112.629 99.1323 110.176C99.567 108.988 100.438 108.04 101.586 107.507C102.733 106.974 104.02 106.92 105.208 107.355C107.661 108.252 108.927 110.978 108.029 113.431C107.328 115.348 105.509 116.54 103.576 116.54Z" fill="#CE8D23"/>
<path fill-rule="evenodd" clip-rule="evenodd" d="M99.4315 110.805C99.417 110.809 99.4022 110.812 99.3869 110.814L91.6021 111.862C91.432 111.885 91.2758 111.766 91.2528 111.595C91.23 111.426 91.3496 111.27 91.5192 111.246L99.3041 110.199C99.4741 110.176 99.6304 110.295 99.6533 110.465C99.6741 110.62 99.5771 110.763 99.4315 110.805Z" fill="#CE8D23"/>
<path fill-rule="evenodd" clip-rule="evenodd" d="M108.038 111.449C107.941 111.449 107.845 111.407 107.778 111.326C107.662 111.182 107.683 110.971 107.827 110.855C108.615 110.213 109.418 110.449 109.733 110.663C109.886 110.767 109.925 110.975 109.821 111.128C109.718 111.28 109.511 111.32 109.359 111.218C109.303 111.183 108.827 110.903 108.25 111.374C108.187 111.424 108.112 111.449 108.038 111.449Z" fill="#CE8D23"/>
</g>
<defs>
<clipPath id="clip0_676_12940">
<rect width="356" height="356" fill="white"/>
</clipPath>
</defs>
</svg>
