<svg width="356" height="356" viewBox="0 0 356 356" fill="none" xmlns="http://www.w3.org/2000/svg">
<path opacity="0.5" d="M93.2568 72.1165C93.2568 61.4304 103.002 52.6295 115.578 51.3627C118.201 45.9945 124.583 42.2041 132.052 42.2041C137.422 42.2041 142.231 44.1662 145.488 47.2647C147.612 46.7266 149.849 46.4291 152.159 46.4291C165.954 46.4291 177.133 56.6974 177.133 69.3623C177.133 78.805 170.916 86.9073 162.04 90.4237C162.044 90.5574 162.054 90.6911 162.054 90.8248C162.054 99.7427 152.631 106.973 141.007 106.973C134.355 106.973 128.427 104.599 124.567 100.903L109.282 119.952L111.944 92.4793C99.8487 90.8615 93.2568 82.5085 93.2568 72.1165Z" fill="#FDCD4C"/>
</svg>
