<svg width="356" height="356" viewBox="0 0 356 356" fill="none" xmlns="http://www.w3.org/2000/svg">
<path d="M89.6727 179.628H50.3047V185.511H89.6727V179.628Z" fill="#F98ADF"/>
<path fill-rule="evenodd" clip-rule="evenodd" d="M31.6172 238.477C31.6172 238.477 53.8508 254.079 110.604 238.477C110.604 238.477 95.8846 227.721 82.6367 223.395C69.3887 219.068 57.7424 220.006 49.8723 223.736C42.0023 227.467 31.6172 238.477 31.6172 238.477Z" fill="#363636"/>
<path fill-rule="evenodd" clip-rule="evenodd" d="M110.604 238.475C110.604 238.475 88.6396 266.021 31.6172 238.475L92.2924 230.326L110.604 238.475Z" fill="#363636"/>
<path fill-rule="evenodd" clip-rule="evenodd" d="M111.199 299.937C110.277 300.2 109.349 300.324 108.438 300.324C104.014 300.324 99.9477 297.388 98.6866 292.894C89.7147 260.929 78.2105 230.95 70.8692 213.021C66.5551 202.483 63.6803 196.108 63.6034 195.939C61.635 191.596 62.9486 186.589 66.4978 183.741H79.1577C80.3644 184.708 81.3674 185.968 82.0523 187.477C82.271 187.957 87.4898 199.494 94.5809 217.622C101.118 234.337 110.524 260.003 118.201 287.352C119.723 292.773 116.587 298.408 111.199 299.937Z" fill="#FFDDBA"/>
<path fill-rule="evenodd" clip-rule="evenodd" d="M66.5005 183.741H70.5037C70.8295 183.835 71.1539 183.948 71.4751 184.077C76.6744 186.169 79.201 192.104 77.1209 197.332C77.053 197.504 74.6894 203.443 70.8717 213.021C63.4913 231.539 50.6778 263.653 38.5186 293.941C36.9243 297.913 33.1262 300.324 29.1141 300.324C27.85 300.324 26.5663 300.084 25.3219 299.579C20.13 297.47 17.6201 291.527 19.7167 286.305C38.1506 240.384 58.0958 190.256 58.2964 189.755C59.5061 186.713 62.0087 184.58 64.9137 183.741H66.5005Z" fill="#FFDDBA"/>
<path fill-rule="evenodd" clip-rule="evenodd" d="M110.602 238.477C110.602 238.477 108.178 240.842 95.1862 240.055C94.0972 239.99 93.0578 239.858 92.0594 239.671C80.7027 237.555 74.5681 228.435 59.6821 229.585C57.3487 229.765 55.1057 230.078 52.9744 230.483C40.4278 232.857 31.7742 238.375 31.6172 238.475L50.374 183.741H89.5661C93.0142 192.461 104.342 221.219 110.602 238.477Z" fill="#F98ADF"/>
<path fill-rule="evenodd" clip-rule="evenodd" d="M116.215 280.479C116.215 280.479 119.58 291.418 126.204 298.976C127.898 300.908 129.942 302.504 132.212 303.694C141.241 308.425 142.772 313.421 142.772 313.421H126.452H112.318H104.598L99.8193 296.917L99.7098 296.536L98.4951 292.349L96.2344 284.861C96.2344 284.861 104.359 281.885 116.215 280.479Z" fill="#ECE557"/>
<mask id="mask0_652_4637" style="mask-type:alpha" maskUnits="userSpaceOnUse" x="12" y="272" width="44" height="42">
<path fill-rule="evenodd" clip-rule="evenodd" d="M12.3906 272.35H55.1948V313.424H12.3906V272.35Z" fill="white"/>
</mask>
<g mask="url(#mask0_652_4637)">
<path fill-rule="evenodd" clip-rule="evenodd" d="M43.5835 281.208C43.5856 281.208 41.5768 286.216 41.5485 286.275C40.7192 288.26 39.0698 292.372 39.0921 296.347C39.0941 296.557 39.1001 296.763 39.1144 296.963C39.1205 297.049 39.1265 297.132 39.1346 297.214C40.0247 306.873 51.7256 303.947 55.1948 313.424L33.9138 313.412C32.5778 313.412 31.2722 313.011 30.1631 312.262L28.8573 311.38L17.2914 303.328L12.3906 299.588L25.1718 272.35C25.1718 272.35 32.081 275.313 43.5835 281.208Z" fill="#ECE557"/>
</g>
<mask id="mask1_652_4637" style="mask-type:alpha" maskUnits="userSpaceOnUse" x="31" y="183" width="80" height="58">
<path fill-rule="evenodd" clip-rule="evenodd" d="M50.3916 183.742L31.6328 238.451C31.6328 238.451 43.5037 230.814 59.6991 229.564C75.8944 228.313 81.7327 239.213 95.2043 240.029C108.196 240.816 110.619 238.451 110.619 238.451C103.175 217.936 89.5836 183.742 89.5836 183.742" fill="white"/>
</mask>
<g mask="url(#mask1_652_4637)">
<path fill-rule="evenodd" clip-rule="evenodd" d="M39.9982 223.168L22.375 228.441C21.81 228.61 21.5709 227.725 22.1325 227.557L26.2907 226.313L42.9239 221.336L51.3394 218.817C51.5714 218.748 51.8035 218.679 52.0357 218.609C54.3964 217.905 56.7594 217.2 59.0685 216.337C63.6209 214.636 68.0823 212.193 71.084 208.246C71.273 207.997 71.4543 207.743 71.6275 207.484C71.6287 207.485 71.63 207.485 71.6312 207.485L71.6297 207.481C71.629 207.482 71.6282 207.483 71.6275 207.484C71.4717 207.451 71.3163 207.416 71.1611 207.38C66.6399 206.313 62.2265 203.423 60.7198 198.803C60.0578 196.773 60.1204 194.543 61.0262 192.598C61.9591 190.595 63.8532 189.246 66.0736 189.192C70.7743 189.076 74.1232 193.492 74.8046 197.784C75.3111 200.975 74.6053 204.077 73.0974 206.8L73.1052 206.811C74.64 207.051 76.2037 207.147 77.7349 207.156C83.2217 207.191 88.6873 206.401 94.0891 205.51C95.2311 205.322 96.3755 205.128 97.5219 204.933C106.996 203.322 116.611 201.687 126.171 203.443C126.749 203.549 126.503 204.433 125.93 204.328C124.525 204.07 123.112 203.881 121.691 203.762C113.602 203.083 105.608 204.455 97.6374 205.824C94.3814 206.382 91.1294 206.941 87.8761 207.358C85.0046 207.727 82.117 207.994 79.2218 208.06C77.0077 208.111 74.7721 208.039 72.5847 207.667L72.5812 207.668C71.9916 208.596 71.3082 209.473 70.5488 210.287C66.956 214.137 62.0752 216.338 57.1711 217.975C53.1774 219.308 49.1284 220.49 45.0827 221.671C43.3857 222.167 41.6896 222.662 39.9982 223.168ZM72.1717 206.646C72.1652 206.645 72.1587 206.644 72.1522 206.642C74.0495 203.367 74.6866 199.442 73.346 195.787C72.6084 193.775 71.221 191.964 69.3265 190.939C67.3954 189.894 64.8686 189.697 63.1353 191.242C61.5951 192.615 61.0137 194.84 61.22 196.847C61.4446 199.032 62.6097 201.053 64.1206 202.596C66.3228 204.846 69.1568 206.047 72.1522 206.642C72.15 206.647 72.1476 206.651 72.1452 206.655L72.1717 206.646Z" fill="#ECE557"/>
</g>
<mask id="mask2_652_4637" style="mask-type:alpha" maskUnits="userSpaceOnUse" x="31" y="183" width="80" height="58">
<path fill-rule="evenodd" clip-rule="evenodd" d="M50.3916 183.742L31.6328 238.451C31.6328 238.451 43.5037 230.814 59.6991 229.564C75.8944 228.313 81.7327 239.213 95.2043 240.029C108.196 240.816 110.619 238.451 110.619 238.451C103.175 217.936 89.5836 183.742 89.5836 183.742" fill="white"/>
</mask>
<g mask="url(#mask2_652_4637)">
<path fill-rule="evenodd" clip-rule="evenodd" d="M76.2762 226.194C74.1923 227.755 72.4052 229.729 71.0227 231.938C69.6258 234.171 68.6441 236.645 68.1556 239.237C68.1094 239.481 67.8171 239.619 67.5943 239.557C67.343 239.488 67.2297 239.236 67.2756 238.993C67.3999 238.334 67.5545 237.681 67.7412 237.037C68.5236 234.338 69.8359 231.815 71.5494 229.597C73.2493 227.397 75.3658 225.511 77.7618 224.109C80.4031 222.562 83.37 221.631 86.4053 221.307C87.7331 221.165 89.0769 221.144 90.4119 221.244C90.4115 221.245 90.411 221.246 90.4106 221.248L90.4166 221.244C90.4151 221.244 90.4136 221.244 90.4119 221.244C90.875 219.937 91.6663 218.761 92.5695 217.721C93.5116 216.637 94.5911 215.679 95.7461 214.831C98.0527 213.136 100.68 211.93 103.365 210.978C106.091 210.011 108.9 209.307 111.708 208.627C112.279 208.488 112.521 209.373 111.95 209.512C111.298 209.67 110.645 209.829 109.993 209.993C107.315 210.666 104.645 211.411 102.078 212.439C99.6097 213.427 97.2145 214.706 95.1786 216.436C94.1368 217.321 93.1537 218.316 92.3758 219.447C91.9732 220.032 91.6162 220.662 91.3548 221.328L91.3595 221.335C92.7573 221.501 94.1388 221.801 95.4752 222.235C96.8156 222.671 98.2441 223.191 99.3046 224.158C100.316 225.08 100.752 226.497 100.078 227.754C99.448 228.929 98.1056 229.622 96.8273 229.782C95.5269 229.945 94.1711 229.561 93.0703 228.868C91.9585 228.168 91.0302 227.135 90.502 225.924C89.9762 224.718 89.8766 223.414 90.1537 222.142C90.1551 222.142 90.1563 222.142 90.1575 222.143L90.1549 222.137C90.1545 222.139 90.1542 222.141 90.1537 222.142C88.0269 222.001 85.8756 222.182 83.8052 222.675C81.0835 223.322 78.5198 224.514 76.2762 226.194ZM91.0607 222.222C91.0638 222.223 91.0669 222.223 91.0699 222.223C90.9777 222.604 90.9212 222.993 90.9083 223.389C90.8301 225.8 92.6135 228.02 94.8791 228.695C95.9969 229.028 97.197 228.969 98.2133 228.364C99.1429 227.811 99.8114 226.797 99.3535 225.723C98.8868 224.629 97.614 224.029 96.5828 223.612C95.228 223.063 93.8146 222.662 92.3761 222.41C91.9431 222.334 91.5073 222.272 91.0699 222.223C91.0703 222.221 91.0708 222.22 91.0711 222.218L91.0607 222.222Z" fill="#ECE557"/>
</g>
<mask id="mask3_652_4637" style="mask-type:alpha" maskUnits="userSpaceOnUse" x="31" y="183" width="80" height="58">
<path fill-rule="evenodd" clip-rule="evenodd" d="M50.3916 183.742L31.6328 238.451C31.6328 238.451 43.5037 230.814 59.6991 229.564C75.8944 228.313 81.7327 239.213 95.2043 240.029C108.196 240.816 110.619 238.451 110.619 238.451C103.175 217.936 89.5836 183.742 89.5836 183.742" fill="white"/>
</mask>
<g mask="url(#mask3_652_4637)">
<path fill-rule="evenodd" clip-rule="evenodd" d="M78.1563 178.805C78.1522 181.401 78.8126 183.951 79.9565 186.27C81.1043 188.598 82.7334 190.688 84.6297 192.447C86.6201 194.293 88.9086 195.769 91.3782 196.88C94.146 198.124 97.0775 198.945 100.061 199.469C103.072 199.998 106.127 200.246 109.18 200.361C109.558 200.375 109.936 200.388 110.314 200.398C110.902 200.415 110.901 199.497 110.314 199.481C107.343 199.397 104.366 199.215 101.425 198.768C98.5023 198.324 95.6073 197.625 92.8588 196.521C90.3997 195.534 88.0671 194.199 86.0466 192.483C84.1188 190.847 82.4566 188.911 81.216 186.703C80.0185 184.57 79.2376 182.172 79.0946 179.739C79.0764 179.428 79.0684 179.117 79.0688 178.805C79.0697 178.215 78.1573 178.214 78.1563 178.805Z" fill="#ECE557"/>
</g>
<mask id="mask4_652_4637" style="mask-type:alpha" maskUnits="userSpaceOnUse" x="31" y="183" width="80" height="58">
<path fill-rule="evenodd" clip-rule="evenodd" d="M50.3916 183.742L31.6328 238.451C31.6328 238.451 43.5037 230.814 59.6991 229.564C75.8944 228.313 81.7327 239.213 95.2043 240.029C108.196 240.816 110.619 238.451 110.619 238.451C103.175 217.936 89.5836 183.742 89.5836 183.742" fill="white"/>
</mask>
<g mask="url(#mask4_652_4637)">
<path fill-rule="evenodd" clip-rule="evenodd" d="M19.8187 237.559C22.9792 235.484 26.5129 234.104 30.1046 232.989C33.9381 231.798 37.838 230.813 41.7102 229.76C43.7659 229.2 45.8215 228.641 47.8773 228.082C48.9049 227.803 49.9326 227.522 50.9606 227.243C51.8521 227.001 52.7547 226.756 53.6745 226.652C54.5964 226.548 55.5322 226.575 56.4112 226.898C57.0927 227.148 57.6718 227.59 58.1467 228.133C59.1359 229.264 59.5966 230.822 59.5955 232.302C59.5931 236.267 57.0156 239.614 55.8008 243.245C55.6477 243.703 55.516 244.166 55.4085 244.636C55.2771 245.211 56.1566 245.456 56.2883 244.88C57.1868 240.95 59.8747 237.656 60.4142 233.615C60.6456 231.882 60.4219 230.107 59.5598 228.569C58.7116 227.057 57.2882 225.989 55.5632 225.748C53.5773 225.471 51.5979 226.119 49.7033 226.635C47.5955 227.208 45.4879 227.781 43.3801 228.355C39.3564 229.45 35.3151 230.494 31.3133 231.667C27.6088 232.753 23.9208 234.043 20.5771 236.008C20.1646 236.251 19.7584 236.504 19.3582 236.767C18.8685 237.088 19.3253 237.883 19.8187 237.559Z" fill="#ECE557"/>
</g>
<mask id="mask5_652_4637" style="mask-type:alpha" maskUnits="userSpaceOnUse" x="31" y="183" width="80" height="58">
<path fill-rule="evenodd" clip-rule="evenodd" d="M50.3916 183.742L31.6328 238.451C31.6328 238.451 43.5037 230.814 59.6991 229.564C75.8944 228.313 81.7327 239.213 95.2043 240.029C108.196 240.816 110.619 238.451 110.619 238.451C103.175 217.936 89.5836 183.742 89.5836 183.742" fill="white"/>
</mask>
<g mask="url(#mask5_652_4637)">
<path fill-rule="evenodd" clip-rule="evenodd" d="M42.0927 194.834C43.8997 196.105 45.7785 197.374 47.9055 198.035C49.9404 198.667 52.4103 198.678 54.1677 197.315C55.754 196.085 56.155 194.06 56.1847 192.15C56.1999 191.169 56.1263 190.19 56.0901 189.209C56.0461 188.013 56.0651 186.814 56.1465 185.619C56.31 183.223 56.7333 180.847 57.4 178.54C57.4831 178.253 57.5701 177.966 57.6605 177.681C57.8392 177.117 56.9585 176.876 56.7806 177.437C56.0669 179.691 55.5895 182.015 55.3426 184.367C55.2199 185.534 55.157 186.707 55.1546 187.881C55.1524 188.923 55.2222 189.961 55.2579 191.002C55.2889 191.899 55.2932 192.859 55.1501 193.708C55.0097 194.542 54.7418 195.357 54.2267 195.989C52.9524 197.553 50.6994 197.762 48.855 197.341C46.5216 196.808 44.4841 195.4 42.5532 194.042C42.3513 193.9 42.0461 194.005 41.9291 194.206C41.7959 194.435 41.8902 194.692 42.0927 194.834Z" fill="#ECE557"/>
</g>
<mask id="mask6_652_4637" style="mask-type:alpha" maskUnits="userSpaceOnUse" x="31" y="183" width="80" height="58">
<path fill-rule="evenodd" clip-rule="evenodd" d="M50.3916 183.742L31.6328 238.451C31.6328 238.451 43.5037 230.814 59.6991 229.564C75.8944 228.313 81.7327 239.213 95.2043 240.029C108.196 240.816 110.619 238.451 110.619 238.451C103.175 217.936 89.5836 183.742 89.5836 183.742" fill="white"/>
</mask>
<g mask="url(#mask6_652_4637)">
<path fill-rule="evenodd" clip-rule="evenodd" d="M114.594 236.97C111.983 236.063 109.314 235.304 106.589 234.834C103.872 234.365 101.097 234.172 98.3476 234.435C95.9894 234.661 93.6989 235.22 91.5223 236.164C89.5218 237.032 87.6514 238.22 86.045 239.702C84.459 241.166 83.1316 242.943 82.2695 244.931C82.1544 245.197 82.045 245.465 81.9438 245.736C81.8572 245.968 82.0402 246.239 82.2624 246.3C82.5183 246.371 82.7367 246.213 82.8236 245.98C83.5415 244.057 84.7223 242.306 86.1738 240.848C87.6623 239.354 89.4132 238.166 91.3196 237.258C93.2626 236.332 95.3945 235.72 97.5452 235.443C100.187 235.103 102.878 235.191 105.509 235.584C108.197 235.986 110.836 236.682 113.414 237.536C113.728 237.64 114.04 237.746 114.352 237.854C114.584 237.935 114.85 237.762 114.913 237.534C114.982 237.282 114.828 237.051 114.594 236.97Z" fill="#ECE557"/>
</g>
<mask id="mask7_652_4637" style="mask-type:alpha" maskUnits="userSpaceOnUse" x="31" y="183" width="80" height="58">
<path fill-rule="evenodd" clip-rule="evenodd" d="M50.3916 183.742L31.6328 238.451C31.6328 238.451 43.5037 230.814 59.6991 229.564C75.8944 228.313 81.7327 239.213 95.2043 240.029C108.196 240.816 110.619 238.451 110.619 238.451C103.175 217.936 89.5836 183.742 89.5836 183.742" fill="#825DA3"/>
</mask>
<g mask="url(#mask7_652_4637)">
<path fill-rule="evenodd" clip-rule="evenodd" d="M33.7312 204.96C36.6413 204.6 39.5913 204.591 42.5033 204.934C43.9299 205.102 45.3467 205.361 46.7427 205.701C47.412 205.864 48.0869 206.032 48.7393 206.255C49.2268 206.422 49.7081 206.644 50.0472 207.038C50.3484 207.387 50.414 207.863 50.3047 208.3C50.1802 208.798 49.8778 209.252 49.4589 209.577C48.4686 210.346 47.015 210.47 45.7961 210.676L36.6987 212.213C33.6538 212.727 30.609 213.241 27.5641 213.755C27.1928 213.818 26.8214 213.881 26.4502 213.943C26.2069 213.984 26.071 214.286 26.1315 214.507C26.2024 214.767 26.4489 214.869 26.6928 214.828C29.8366 214.297 32.9803 213.766 36.1243 213.235C39.2682 212.704 42.4121 212.173 45.5561 211.642C46.9318 211.41 48.4502 211.289 49.6666 210.539C50.7153 209.893 51.4946 208.632 51.2064 207.366C50.9044 206.04 49.5274 205.513 48.3679 205.182C46.9238 204.769 45.4543 204.447 43.9706 204.217C40.9613 203.749 37.9013 203.639 34.8683 203.919C34.4887 203.955 34.1096 203.996 33.7312 204.043C33.4867 204.073 33.2751 204.232 33.2751 204.501C33.2751 204.726 33.485 204.991 33.7312 204.96Z" fill="#ECE557"/>
</g>
<path fill-rule="evenodd" clip-rule="evenodd" d="M141.036 310.799H103.984C103.872 310.799 103.781 310.708 103.781 310.595C103.781 310.483 103.872 310.392 103.984 310.392H141.036C141.149 310.392 141.24 310.483 141.24 310.595C141.24 310.708 141.149 310.799 141.036 310.799Z" fill="#363636"/>
<path fill-rule="evenodd" clip-rule="evenodd" d="M109.637 310.799C109.557 310.799 109.482 310.752 109.449 310.674C106.979 304.752 102.544 305.287 102.355 305.313C102.245 305.328 102.142 305.25 102.127 305.139C102.112 305.028 102.189 304.925 102.3 304.91C102.348 304.903 107.228 304.295 109.823 310.517C109.867 310.621 109.818 310.74 109.715 310.783C109.689 310.794 109.663 310.799 109.637 310.799Z" fill="#363636"/>
<path fill-rule="evenodd" clip-rule="evenodd" d="M96.9683 287.475C96.8794 287.475 96.798 287.416 96.7731 287.326C96.7431 287.217 96.8063 287.105 96.9143 287.075C97.034 287.042 108.98 283.735 117.263 283.245C117.379 283.24 117.471 283.324 117.478 283.437C117.484 283.549 117.399 283.645 117.287 283.652C109.047 284.139 97.1419 287.434 97.0226 287.467C97.0045 287.472 96.9862 287.475 96.9683 287.475Z" fill="#363636"/>
<path fill-rule="evenodd" clip-rule="evenodd" d="M125.631 308.539H108.461C108.349 308.539 108.258 308.448 108.258 308.335C108.258 308.223 108.349 308.132 108.461 308.132H125.631C126.907 308.132 128.048 307.468 128.681 306.356C129.316 305.245 129.309 303.921 128.664 302.816L127.21 300.511C127.15 300.416 127.179 300.29 127.274 300.23C127.367 300.17 127.492 300.198 127.553 300.293L129.01 302.604C129.734 303.843 129.741 305.319 129.034 306.559C128.327 307.798 127.055 308.539 125.631 308.539Z" fill="#363636"/>
<path fill-rule="evenodd" clip-rule="evenodd" d="M115.663 288.187C115.565 288.187 115.478 288.114 115.463 288.013C115.447 287.902 115.523 287.798 115.634 287.782L118.848 287.307C118.956 287.291 119.062 287.367 119.079 287.479C119.095 287.59 119.018 287.693 118.907 287.71L115.693 288.185C115.683 288.186 115.673 288.187 115.663 288.187Z" fill="#363636"/>
<path fill-rule="evenodd" clip-rule="evenodd" d="M41.0717 287.197C41.0411 287.197 41.0099 287.19 40.9806 287.175L37.8849 285.608C37.7849 285.557 37.7448 285.435 37.7952 285.335C37.8456 285.234 37.9674 285.194 38.0676 285.245L41.1631 286.812C41.2633 286.862 41.3033 286.985 41.2529 287.085C41.2173 287.156 41.1458 287.197 41.0717 287.197Z" fill="#363636"/>
<path fill-rule="evenodd" clip-rule="evenodd" d="M39.5077 292.645C39.4839 292.645 39.4596 292.641 39.4358 292.632L36.2794 291.431C36.1746 291.391 36.122 291.274 36.1617 291.169C36.2013 291.063 36.3184 291.011 36.4232 291.05L39.5797 292.251C39.6844 292.291 39.7372 292.408 39.6973 292.514C39.6667 292.595 39.5895 292.645 39.5077 292.645Z" fill="#363636"/>
<path fill-rule="evenodd" clip-rule="evenodd" d="M40.3515 289.922C40.3277 289.922 40.3034 289.917 40.2796 289.908L37.1232 288.708C37.0184 288.668 36.9657 288.55 37.0054 288.445C37.0451 288.34 37.162 288.287 37.2669 288.327L40.4234 289.528C40.5281 289.567 40.5809 289.685 40.5411 289.79C40.5105 289.871 40.4332 289.922 40.3515 289.922Z" fill="#363636"/>
<path fill-rule="evenodd" clip-rule="evenodd" d="M39.0493 295.148C39.0277 295.148 39.006 295.144 38.9844 295.137L35.7708 294.048C35.6647 294.012 35.6077 293.896 35.6435 293.79C35.6792 293.683 35.7942 293.626 35.9003 293.662L39.1142 294.751C39.2202 294.787 39.2772 294.903 39.2413 295.009C39.2128 295.094 39.1341 295.148 39.0493 295.148Z" fill="#363636"/>
<path fill-rule="evenodd" clip-rule="evenodd" d="M39.0524 297.593C39.0373 297.593 39.022 297.592 39.0068 297.588L35.6106 296.805C35.5014 296.779 35.4333 296.67 35.4583 296.561C35.4835 296.451 35.5925 296.382 35.7013 296.408L39.0976 297.191C39.2067 297.216 39.275 297.326 39.2499 297.435C39.2282 297.53 39.1447 297.593 39.0524 297.593Z" fill="#363636"/>
<path fill-rule="evenodd" clip-rule="evenodd" d="M116.695 290.376C116.596 290.376 116.509 290.304 116.494 290.202C116.478 290.091 116.555 289.988 116.666 289.971L119.879 289.496C119.988 289.48 120.094 289.557 120.11 289.668C120.127 289.779 120.05 289.883 119.938 289.899L116.724 290.374C116.715 290.375 116.705 290.376 116.695 290.376Z" fill="#363636"/>
<path fill-rule="evenodd" clip-rule="evenodd" d="M117.922 292.566C117.822 292.566 117.736 292.493 117.721 292.392C117.704 292.28 117.781 292.177 117.891 292.161L121.106 291.686C121.214 291.669 121.32 291.746 121.336 291.857C121.353 291.969 121.276 292.072 121.164 292.089L117.95 292.564C117.941 292.565 117.931 292.566 117.922 292.566Z" fill="#363636"/>
<path fill-rule="evenodd" clip-rule="evenodd" d="M119.148 294.805C119.049 294.805 118.963 294.732 118.948 294.631C118.931 294.52 119.008 294.416 119.118 294.4L122.332 293.925C122.444 293.909 122.546 293.985 122.563 294.097C122.579 294.208 122.503 294.311 122.391 294.328L119.177 294.803C119.168 294.804 119.157 294.805 119.148 294.805Z" fill="#363636"/>
<path fill-rule="evenodd" clip-rule="evenodd" d="M120.593 297.067C120.494 297.067 120.408 296.994 120.393 296.893C120.376 296.781 120.453 296.678 120.565 296.662L123.779 296.187C123.888 296.17 123.992 296.247 124.008 296.358C124.025 296.47 123.948 296.573 123.838 296.59L120.624 297.065C120.613 297.066 120.603 297.067 120.593 297.067Z" fill="#363636"/>
<path fill-rule="evenodd" clip-rule="evenodd" d="M123.943 275.336C123.919 275.336 123.893 275.337 123.867 275.338C121.344 275.497 119.845 282.944 119.346 286.728C121.388 283.521 125.219 276.957 124.412 275.559C124.356 275.461 124.246 275.336 123.943 275.336ZM119.039 287.78C119.015 287.78 118.993 287.776 118.97 287.767C118.882 287.736 118.827 287.648 118.837 287.554C118.892 287.048 120.207 275.16 123.842 274.932C124.383 274.898 124.641 275.143 124.763 275.355C125.276 276.245 124.508 278.533 122.415 282.349C120.899 285.109 119.225 287.663 119.208 287.688C119.169 287.746 119.106 287.78 119.039 287.78Z" fill="#363636"/>
<path fill-rule="evenodd" clip-rule="evenodd" d="M127.057 281.842C126.788 281.842 126.445 281.942 126.065 282.137C123.51 283.448 120.698 286.17 119.63 287.255C125.286 286.094 127.315 283.761 127.592 282.654C127.638 282.471 127.683 282.137 127.463 281.96C127.363 281.881 127.224 281.842 127.057 281.842ZM119.039 287.78C118.965 287.78 118.897 287.74 118.861 287.674C118.819 287.597 118.831 287.502 118.89 287.438C118.927 287.398 122.599 283.458 125.879 281.775C126.654 281.377 127.322 281.329 127.715 281.642C128.006 281.875 128.105 282.28 127.986 282.754C127.767 283.62 126.9 284.597 125.605 285.435C123.977 286.488 121.719 287.298 119.074 287.777C119.063 287.779 119.051 287.78 119.039 287.78Z" fill="#363636"/>
<path fill-rule="evenodd" clip-rule="evenodd" d="M51.5739 280.242C49.0396 280.242 44.3092 284.259 41.9106 286.571C42.9783 286.204 44.925 285.511 46.8726 284.7C51.8686 282.617 52.7348 281.502 52.8065 281.022C52.8246 280.901 52.8142 280.717 52.5175 280.508C52.2573 280.325 51.9383 280.242 51.5739 280.242ZM41.1402 287.25C41.0712 287.25 41.0052 287.214 40.9676 287.153C40.9186 287.073 40.9304 286.97 40.9961 286.903C41.3528 286.542 49.7681 278.076 52.7502 280.175C53.1936 280.487 53.2436 280.841 53.2075 281.082C52.8647 283.378 42.3953 286.852 41.2027 287.24C41.1822 287.247 41.161 287.25 41.1402 287.25Z" fill="#363636"/>
<path fill-rule="evenodd" clip-rule="evenodd" d="M41.8026 287.166C46.9439 289.803 49.9781 289.251 50.8836 288.559C51.0334 288.445 51.2755 288.212 51.2127 287.936C51.1393 287.613 50.69 287.337 50.0105 287.198C47.1989 286.622 43.3108 286.988 41.8026 287.166ZM48.538 289.537C48.2392 289.537 47.9262 289.521 47.6019 289.487C45.6759 289.29 43.4082 288.508 41.044 287.226C40.9671 287.184 40.9256 287.098 40.9405 287.012C40.9557 286.925 41.0242 286.858 41.1105 286.845C41.1637 286.837 46.4817 286.06 50.0915 286.799C50.9438 286.974 51.4966 287.355 51.6081 287.845C51.6909 288.21 51.5162 288.588 51.129 288.884C50.5707 289.31 49.653 289.537 48.538 289.537Z" fill="#363636"/>
<path fill-rule="evenodd" clip-rule="evenodd" d="M107.763 292.964C107.763 294.518 106.508 295.779 104.96 295.779C103.411 295.779 102.156 294.518 102.156 292.964C102.156 291.409 103.411 290.148 104.96 290.148C106.508 290.148 107.763 291.409 107.763 292.964Z" fill="white"/>
<path fill-rule="evenodd" clip-rule="evenodd" d="M29.1853 283.707C29.1853 285.262 27.9301 286.522 26.3817 286.522C24.8333 286.522 23.5781 285.262 23.5781 283.707C23.5781 282.152 24.8333 280.892 26.3817 280.892C27.9301 280.892 29.1853 282.152 29.1853 283.707Z" fill="white"/>
<path fill-rule="evenodd" clip-rule="evenodd" d="M53.5922 310.9H53.5915L35.1122 310.841C33.785 310.836 32.5085 310.43 31.4209 309.666L13.6178 297.154C13.526 297.089 13.5037 296.962 13.5678 296.87C13.6322 296.778 13.7586 296.756 13.8503 296.82L31.6533 309.332C32.6729 310.049 33.8694 310.43 35.1135 310.434L53.5928 310.493C53.7048 310.493 53.7953 310.584 53.795 310.697C53.7946 310.809 53.7038 310.9 53.5922 310.9Z" fill="#363636"/>
<path fill-rule="evenodd" clip-rule="evenodd" d="M19.227 301.053C19.2159 301.053 19.2045 301.052 19.1931 301.05C19.0827 301.031 19.0083 300.926 19.0267 300.815C19.5071 297.943 18.631 295.847 17.8112 294.594C16.9191 293.231 15.8977 292.539 15.8873 292.532C15.7942 292.47 15.7689 292.344 15.8307 292.25C15.8927 292.157 16.0183 292.131 16.1117 292.193C16.1545 292.222 20.3913 295.116 19.4267 300.883C19.4101 300.982 19.3243 301.053 19.227 301.053Z" fill="#363636"/>
<path fill-rule="evenodd" clip-rule="evenodd" d="M35.6906 308.242C34.3983 308.242 33.1521 307.86 32.0768 307.133L19.2613 298.463C19.1684 298.401 19.144 298.274 19.2064 298.181C19.2692 298.087 19.3953 298.063 19.4879 298.126L32.3033 306.795C33.3537 307.506 34.5773 307.865 35.8437 307.833L37.2866 307.797C38.6199 307.764 39.8274 307.06 40.5169 305.914C41.2062 304.767 41.2648 303.366 40.6732 302.166L39.1157 299.006C39.066 298.905 39.1071 298.783 39.2074 298.733C39.3083 298.683 39.4295 298.724 39.4792 298.825L41.0367 301.986C41.6898 303.311 41.6254 304.858 40.8641 306.124C40.1027 307.39 38.769 308.168 37.2966 308.204L35.8537 308.24C35.7994 308.242 35.7448 308.242 35.6906 308.242Z" fill="#363636"/>
<path fill-rule="evenodd" clip-rule="evenodd" d="M42.5229 284.045C42.4889 284.045 42.4549 284.036 42.4232 284.018C34.323 279.419 24.2753 274.898 24.1747 274.853C24.0725 274.807 24.0267 274.686 24.0724 274.584C24.1181 274.481 24.2379 274.435 24.3403 274.481C24.441 274.526 34.5057 279.055 42.6229 283.664C42.7203 283.719 42.7546 283.843 42.6995 283.941C42.6622 284.007 42.5936 284.045 42.5229 284.045Z" fill="#363636"/>
<path fill-rule="evenodd" clip-rule="evenodd" d="M70.5834 158.604C74.4932 157.713 78.3754 156.709 82.2501 155.672L88.0573 154.092L88.42 153.993L88.5108 153.968C88.4416 153.986 88.353 154.007 88.2743 154.022C88.1165 154.056 87.9367 154.074 87.794 154.092C87.2108 154.149 86.6071 154.122 86.0315 153.993C84.877 153.734 83.8348 153.131 83.0477 152.245C82.6515 151.807 82.3207 151.298 82.0792 150.753C82.0166 150.619 81.9609 150.481 81.9131 150.34C81.8665 150.206 81.8309 150.109 81.7983 149.989L81.7754 149.903L81.7647 149.859C81.7636 149.854 81.76 149.84 81.7609 149.843L81.7644 149.854L81.7926 149.947L81.8486 150.132L82.2974 151.61L84.0953 157.521L85.9195 163.424L88.1404 172.98L89.9999 178.871C91.2289 182.764 95.3147 184.902 99.1262 183.647C102.758 182.451 104.83 178.604 103.954 174.876L103.947 174.848L102.14 165.22L100.695 159.257L99.2393 153.298L97.757 147.348L97.3861 145.861L97.3395 145.675L97.3164 145.582L97.2276 145.263C97.1556 145.021 97.0897 144.799 96.9968 144.546C96.9001 144.287 96.7956 144.031 96.6841 143.778C96.2254 142.77 95.6118 141.831 94.8761 141.013C93.4003 139.383 91.448 138.236 89.3045 137.781C88.2367 137.553 87.1252 137.488 86.0419 137.607C85.7738 137.632 85.4713 137.684 85.1893 137.736C85.0487 137.762 84.898 137.793 84.7671 137.823L84.6748 137.844L84.3055 137.93L78.3976 139.31C74.4625 140.246 70.5347 141.215 66.6347 142.297C62.2505 143.513 59.6616 148.128 60.852 152.606C62.0077 156.954 66.3014 159.573 70.5625 158.609L70.5834 158.604Z" fill="#ECE557"/>
<path fill-rule="evenodd" clip-rule="evenodd" d="M41.1016 184.307L51.6038 150.102C52.3813 143.568 57.9013 139.585 64.3643 139.82L76.0584 140.716C81.6187 140.919 86.4519 143.737 87.781 149.236L90.8772 184.307H41.1016Z" fill="#ECE557"/>
<mask id="mask8_652_4637" style="mask-type:alpha" maskUnits="userSpaceOnUse" x="25" y="136" width="52" height="50">
<path fill-rule="evenodd" clip-rule="evenodd" d="M25.4062 136.489H76.806V185.303H25.4062V136.489Z" fill="white"/>
</mask>
<g mask="url(#mask8_652_4637)">
<path fill-rule="evenodd" clip-rule="evenodd" d="M70.5252 140.961C68.7218 140.511 66.9126 140.087 65.1055 139.654L59.6752 138.396L54.2378 137.169L52.8772 136.868L52.5371 136.792L52.3671 136.755L52.0313 136.686L51.658 136.62C50.659 136.463 49.6228 136.442 48.6106 136.585C46.5817 136.856 44.6647 137.73 43.117 139.064C42.3442 139.735 41.6625 140.518 41.0992 141.385C40.5402 142.256 40.1079 143.204 39.8112 144.181L40.2812 142.971L36.6863 150.941C35.4894 153.598 34.2844 156.252 33.1032 158.917L29.5454 166.905C28.3731 169.575 27.1883 172.238 26.0279 174.914C24.4064 178.652 26.0665 183.022 29.7361 184.674C33.2251 186.245 37.2874 184.768 39.0711 181.407C40.4298 178.831 41.7641 176.242 43.111 173.659L47.1109 165.89C48.4489 163.303 49.7632 160.704 51.0856 158.109L55.0482 150.322L55.5182 149.112C55.3663 149.639 55.1304 150.157 54.823 150.629C54.5214 151.106 54.15 151.533 53.729 151.895C52.8941 152.624 51.8559 153.094 50.7492 153.248C50.1967 153.319 49.6295 153.32 49.0883 153.232C49.0208 153.222 48.9533 153.21 48.8864 153.197L48.7218 153.16L48.8912 153.201L49.2301 153.282L50.5853 153.607L56.0112 154.886L61.444 156.132C63.2582 156.535 65.0699 156.946 66.8876 157.332C71.3424 158.276 75.7053 155.362 76.6323 150.824C77.5385 146.386 74.8099 142.035 70.5252 140.961Z" fill="#ECE557"/>
</g>
<path fill-rule="evenodd" clip-rule="evenodd" d="M40.2424 143.041C38.9446 145.644 37.6827 148.264 36.4318 150.89L34.5689 154.835L32.7274 158.79C31.5023 161.429 30.2735 164.066 29.0678 166.714C27.8499 169.356 26.658 172.011 25.4624 174.664L25.2151 175.213C23.4492 179.132 25.1422 183.764 28.9966 185.56C30.7656 186.384 32.6952 186.463 34.4225 185.933L73.5043 173.878C76.561 172.935 78.2871 169.651 77.3597 166.543C76.493 163.638 73.5879 161.921 70.7195 162.478L30.6316 170.415L39.5917 181.684C40.9156 179.095 42.2437 176.507 43.5453 173.907C44.8589 171.313 46.1499 168.707 47.4444 166.103L49.3822 162.195L51.2989 158.276C52.5675 155.659 53.8253 153.037 55.0469 150.397C56.9844 146.21 55.2169 141.22 51.0992 139.25C47.0593 137.317 42.252 139.023 40.2424 143.041Z" fill="#ECE557"/>
<path fill-rule="evenodd" clip-rule="evenodd" d="M46.0234 171.032C45.9914 171.032 45.9592 171.025 45.9287 171.009C45.9136 171.001 44.3783 170.205 41.5657 169.366C38.9703 168.591 34.7251 167.62 29.2404 167.393C29.1248 167.388 29.0346 167.287 29.0392 167.168C29.0439 167.048 29.1418 166.955 29.2572 166.96C34.7913 167.19 39.0765 168.172 41.6966 168.954C44.5426 169.805 46.0555 170.59 46.1186 170.623C46.2218 170.677 46.2629 170.807 46.2106 170.914C46.1736 170.989 46.0999 171.032 46.0234 171.032Z" fill="#363636"/>
<path fill-rule="evenodd" clip-rule="evenodd" d="M68.5613 151.576C66.8316 151.576 65.1823 151.018 63.7917 149.963C61.8036 148.454 60.5966 145.984 60.5631 143.354C60.5557 142.782 60.6159 142.181 60.7471 141.518L61.1975 138.932C61.2177 138.816 61.3257 138.738 61.4405 138.759C61.5543 138.78 61.6304 138.891 61.6101 139.007L61.1587 141.597C61.0326 142.236 60.9752 142.807 60.9821 143.349C61.0142 145.846 62.1579 148.191 64.0421 149.621C65.3599 150.621 66.9226 151.149 68.5613 151.149C70.0946 151.149 71.5739 150.682 72.8395 149.797C74.8745 148.373 76.1048 145.958 76.1307 143.335C76.1363 142.767 76.0705 142.169 75.9295 141.507L75.6079 140.088C75.5819 139.974 75.6523 139.859 75.765 139.833C75.8775 139.806 75.9903 139.878 76.0162 139.993L76.3385 141.414C76.4868 142.111 76.5557 142.74 76.5499 143.34C76.5224 146.101 75.2241 148.646 73.0768 150.148C71.7412 151.082 70.1797 151.576 68.5613 151.576Z" fill="#363636"/>
<path fill-rule="evenodd" clip-rule="evenodd" d="M45.3867 167.412C45.3734 167.412 45.36 167.41 45.3464 167.408C45.2345 167.385 45.1615 167.272 45.1837 167.156L48.0886 151.898C48.1106 151.782 48.2192 151.707 48.3313 151.73C48.4432 151.753 48.5162 151.865 48.494 151.981L45.5891 167.239C45.5696 167.341 45.4832 167.412 45.3867 167.412Z" fill="#363636"/>
<path fill-rule="evenodd" clip-rule="evenodd" d="M91.9403 184.306L86.806 152.575C86.7893 152.472 86.9371 152.44 86.9617 152.542L94.3464 182.758L91.9403 184.306Z" fill="#363636"/>
<path fill-rule="evenodd" clip-rule="evenodd" d="M35.1056 186.223C36.7126 185.739 38.3172 185.246 39.9208 184.748L44.7325 183.259C47.9384 182.259 51.1469 181.269 54.3466 180.243C57.5473 179.222 60.7382 178.161 63.9336 177.118L68.7197 175.525L73.499 173.904C76.534 172.875 78.1728 169.541 77.16 166.458C76.2432 163.668 73.4681 162.041 70.7002 162.518L65.7319 163.371L60.7704 164.25C57.4675 164.856 54.1603 165.443 50.8627 166.071C47.5639 166.694 44.274 167.352 40.9818 168.001L36.0459 168.985C34.4003 169.311 32.7557 169.642 31.1135 169.983C26.6515 170.909 23.7729 175.334 24.6839 179.867C25.5948 184.4 29.9509 187.324 34.4128 186.399C34.6431 186.351 34.8842 186.289 35.1056 186.223Z" fill="#FFDDBA"/>
<path fill-rule="evenodd" clip-rule="evenodd" d="M65.7154 169.906C67.6495 169.328 69.5772 168.723 71.5022 168.105L74.3862 167.163L75.1061 166.923C75.3396 166.846 75.6105 166.753 75.7747 166.703C76.158 166.582 76.5187 166.495 76.781 166.452C77.051 166.41 77.2302 166.401 77.4213 166.428C77.6101 166.456 77.8365 166.54 78.1035 166.711C78.3688 166.882 78.6654 167.11 78.9596 167.397L79.0535 167.483L79.1293 167.558C79.1796 167.609 79.2281 167.663 79.2755 167.719L79.3112 167.761L79.3292 167.783L79.3574 167.822L79.4693 167.978L79.6937 168.291C80.8909 169.959 82.1086 171.614 83.4005 173.223C83.8935 173.837 84.7811 173.927 85.3834 173.425C85.8801 173.011 86.0264 172.321 85.7863 171.749C84.9831 169.837 84.1055 167.972 83.2075 166.12L83.039 165.772L82.9548 165.599L82.9335 165.555L82.902 165.495L82.8366 165.374C82.7468 165.214 82.6503 165.057 82.5474 164.904C82.4958 164.827 82.4427 164.751 82.388 164.675L82.3043 164.563L82.2325 164.471C81.8629 163.983 81.4336 163.49 80.9065 163.023C80.3799 162.56 79.7221 162.114 78.9513 161.815C78.184 161.511 77.3437 161.384 76.6058 161.381C75.8579 161.376 75.2195 161.469 74.6183 161.574C74.2887 161.632 74.0732 161.68 73.8177 161.731L73.0719 161.882L70.0931 162.504C68.1096 162.93 66.1288 163.368 64.1545 163.833C62.4961 164.223 61.4623 165.909 61.8454 167.599C62.2284 169.289 63.8833 170.343 65.5416 169.952C65.597 169.939 65.6614 169.922 65.7154 169.906Z" fill="#FFDDBA"/>
<path fill-rule="evenodd" clip-rule="evenodd" d="M63.7084 173.965L76.7974 168.765L74.8149 168.476C74.7968 168.458 74.84 168.483 74.8589 168.492L74.9407 168.538C74.9968 168.57 75.0562 168.607 75.1156 168.645C75.2346 168.72 75.3547 168.803 75.4739 168.888C75.7122 169.061 75.9454 169.247 76.1677 169.445C76.6125 169.839 77.0177 170.275 77.3542 170.745C77.5246 170.979 77.6785 171.222 77.8104 171.473C77.9454 171.723 78.0626 171.981 78.1544 172.247C78.3492 172.778 78.4417 173.341 78.4562 173.928L78.4584 174.021C78.4777 174.806 79.1177 175.426 79.8881 175.406C80.5551 175.39 81.1006 174.898 81.2231 174.257C81.3902 173.382 81.4316 172.453 81.3047 171.546C81.2477 171.092 81.1502 170.644 81.0232 170.208C80.8988 169.771 80.7416 169.347 80.5599 168.938C80.1992 168.117 79.7419 167.359 79.2235 166.656C78.9634 166.305 78.6874 165.968 78.3931 165.642C78.2452 165.479 78.0942 165.319 77.9335 165.161C77.8534 165.081 77.772 165.003 77.6851 164.923L77.551 164.801C77.4973 164.755 77.4676 164.726 77.3754 164.656L77.3751 164.655C76.8362 164.262 76.1796 164.159 75.584 164.315L75.3924 164.366L61.8053 168.007C60.16 168.448 59.1772 170.164 59.6099 171.84C60.0428 173.516 61.7275 174.517 63.3728 174.076C63.4871 174.045 63.6009 174.007 63.7084 173.965Z" fill="#FFDDBA"/>
<path fill-rule="evenodd" clip-rule="evenodd" d="M61.2965 175.355L74.3922 170.137L72.6318 169.984L72.6317 169.984C72.6057 169.969 72.6083 169.969 72.6092 169.968C72.6084 169.966 72.6084 169.965 72.6131 169.966C72.6205 169.968 72.6246 169.967 72.6354 169.972C72.6538 169.978 72.6742 169.985 72.6974 169.995C72.7421 170.013 72.7914 170.036 72.8412 170.061C72.941 170.111 73.0451 170.167 73.1469 170.231C73.3523 170.357 73.5522 170.503 73.7403 170.663C74.1184 170.983 74.448 171.359 74.7114 171.787C74.9782 172.214 75.1756 172.696 75.3016 173.225C75.4239 173.754 75.476 174.328 75.4529 174.926L75.4508 174.979C75.4205 175.767 76.0215 176.431 76.7934 176.463C77.4616 176.489 78.0385 176.032 78.2012 175.398C78.404 174.61 78.5201 173.769 78.512 172.899C78.5008 172.03 78.3581 171.132 78.0644 170.275C77.7751 169.415 77.3436 168.601 76.8048 167.873C76.5356 167.508 76.2413 167.163 75.9175 166.839C75.7568 166.676 75.5865 166.52 75.4067 166.366C75.3165 166.289 75.2236 166.213 75.1234 166.136C75.0746 166.098 75.0219 166.059 74.9669 166.02L74.8782 165.958L74.8262 165.924C74.8082 165.912 74.7921 165.902 74.7471 165.876L74.7467 165.876C74.2433 165.594 73.6781 165.538 73.1632 165.675L72.9863 165.723L59.3925 169.376C57.7463 169.819 56.7629 171.54 57.1959 173.222C57.6291 174.904 59.3147 175.909 60.9608 175.466C61.0753 175.435 61.1888 175.397 61.2965 175.355Z" fill="#FFDDBA"/>
<path fill-rule="evenodd" clip-rule="evenodd" d="M59.1462 176.811L72.4187 170.992L70.0979 170.528C70.1234 170.539 70.1911 170.591 70.2411 170.628L70.4059 170.756C70.5166 170.843 70.6272 170.933 70.7366 171.025C70.9548 171.208 71.167 171.399 71.3689 171.592C71.7713 171.976 72.1383 172.383 72.3976 172.749C72.5276 172.93 72.6261 173.1 72.6849 173.212C72.7466 173.328 72.7641 173.354 72.8134 173.317C72.8371 173.302 72.8689 173.284 72.8879 173.291C72.9071 173.296 72.9095 173.323 72.8852 173.364C72.8392 173.448 72.6796 173.565 72.4799 173.664L72.3585 173.725C71.6666 174.069 71.3808 174.917 71.7203 175.619C72.009 176.216 72.658 176.515 73.2712 176.379C73.6929 176.285 74.1471 176.153 74.6325 175.851C74.8729 175.699 75.1189 175.503 75.3399 175.248C75.5609 174.995 75.7506 174.684 75.877 174.355C76.0049 174.026 76.0708 173.688 76.0935 173.375C76.1162 173.061 76.0991 172.77 76.0633 172.502C75.9894 171.965 75.8472 171.515 75.6894 171.104C75.3686 170.284 74.9752 169.606 74.5592 168.964C74.3503 168.644 74.1338 168.336 73.9086 168.035C73.796 167.885 73.6812 167.737 73.5628 167.589L73.3813 167.366C73.3148 167.288 73.265 167.226 73.1709 167.125L73.1704 167.124C72.5798 166.552 71.7551 166.381 71.0254 166.605L70.8495 166.66L57.0211 170.943C55.3915 171.448 54.4736 173.198 54.9712 174.851C55.469 176.505 57.1936 177.436 58.8234 176.931C58.9335 176.897 59.0429 176.856 59.1462 176.811Z" fill="#FFDDBA"/>
<path fill-rule="evenodd" clip-rule="evenodd" d="M81.768 171.335C81.6897 171.335 81.6143 171.29 81.5781 171.214C81.5624 171.181 79.9809 167.899 78.0354 167.07C77.9281 167.024 77.8776 166.899 77.9228 166.79C77.9678 166.681 78.0913 166.63 78.1987 166.676C80.2913 167.568 81.8905 170.887 81.9575 171.028C82.0081 171.134 81.9644 171.262 81.8594 171.314C81.83 171.328 81.7988 171.335 81.768 171.335Z" fill="#363636"/>
<path fill-rule="evenodd" clip-rule="evenodd" d="M78.4056 174.202C78.3961 174.202 78.3867 174.201 78.3772 174.2C78.2632 174.184 78.1834 174.077 78.199 173.96C78.2039 173.922 78.6738 170.171 76.2361 169.338C76.1269 169.301 76.0681 169.18 76.1046 169.068C76.1409 168.957 76.2592 168.897 76.3681 168.934C77.5213 169.328 78.2744 170.34 78.5462 171.862C78.7465 172.983 78.6172 173.976 78.6116 174.018C78.5973 174.125 78.508 174.202 78.4056 174.202Z" fill="#363636"/>
<path fill-rule="evenodd" clip-rule="evenodd" d="M75.4334 175.256C75.4035 175.256 75.373 175.25 75.3442 175.236C75.2375 175.187 75.191 175.059 75.24 174.951C75.2459 174.938 75.8319 173.629 75.3017 172.537C74.9741 171.862 74.2841 171.398 73.2508 171.156C73.1363 171.129 73.0649 171.013 73.0915 170.898C73.1182 170.782 73.2327 170.71 73.3471 170.737C74.5127 171.01 75.2996 171.553 75.6856 172.351C76.3038 173.629 75.6546 175.071 75.6266 175.132C75.5905 175.21 75.5138 175.256 75.4334 175.256Z" fill="#363636"/>
<path fill-rule="evenodd" clip-rule="evenodd" d="M71.3387 174.504C71.2487 174.504 71.1648 174.448 71.1354 174.36C71.0992 174.251 71.1604 174.135 71.2728 174.099L72.1675 173.817L71.7855 173.702C71.6728 173.668 71.6101 173.552 71.6452 173.442C71.6802 173.333 71.7997 173.272 71.9125 173.306L72.9355 173.615C73.0245 173.642 73.0852 173.722 73.0858 173.812C73.0864 173.902 73.0266 173.982 72.9382 174.01L71.4046 174.493C71.3828 174.5 71.3606 174.504 71.3387 174.504Z" fill="#363636"/>
<path fill-rule="evenodd" clip-rule="evenodd" d="M88.1641 184.457H125.87L135.979 155.497H99.5882C98.7996 155.497 98.0958 156.002 97.8309 156.758L88.1641 184.457Z" fill="#363636"/>
<path fill-rule="evenodd" clip-rule="evenodd" d="M91.178 184.457H128.227C128.352 184.457 128.463 184.378 128.504 184.258L137.86 157.425C138.189 156.485 137.505 155.497 136.524 155.497H102.383C101.47 155.497 100.655 156.082 100.349 156.957L90.9002 184.056C90.8317 184.252 90.9742 184.457 91.178 184.457Z" fill="#825DA3"/>
<mask id="mask9_652_4637" style="mask-type:alpha" maskUnits="userSpaceOnUse" x="90" y="155" width="48" height="30">
<path fill-rule="evenodd" clip-rule="evenodd" d="M136.466 155.613C137.445 155.613 138.13 156.599 137.801 157.536L128.45 184.288C128.408 184.407 128.298 184.487 128.173 184.487H91.1466C90.9429 184.487 90.8005 184.282 90.8689 184.086L100.312 157.069C100.618 156.196 101.432 155.613 102.344 155.613H136.466Z" fill="white"/>
</mask>
<g mask="url(#mask9_652_4637)">
<path fill-rule="evenodd" clip-rule="evenodd" d="M134.135 149.671L87.6641 182.159L99.4956 189.972L142.733 162.155L134.135 149.671Z" fill="#CEB2E8"/>
</g>
<path fill-rule="evenodd" clip-rule="evenodd" d="M114.354 171.184C113.241 171.184 112.465 170.272 112.621 169.147C112.778 168.023 113.807 167.111 114.921 167.111C116.034 167.111 116.81 168.023 116.654 169.147C116.497 170.272 115.468 171.184 114.354 171.184ZM116.523 184.457H70.3672C70.3672 182.958 71.5377 181.742 72.9813 181.742H116.523V184.457Z" fill="#825DA3"/>
<path fill-rule="evenodd" clip-rule="evenodd" d="M129.134 181.894H91.6943C91.5783 181.894 91.4844 181.793 91.4844 181.668C91.4844 181.543 91.5783 181.441 91.6943 181.441H129.134C129.251 181.441 129.344 181.543 129.344 181.668C129.344 181.793 129.251 181.894 129.134 181.894Z" fill="#363636"/>
<path fill-rule="evenodd" clip-rule="evenodd" d="M74.5655 140.228L74.8519 142.693C74.8905 143.045 74.9051 143.44 74.8839 143.805C74.6807 147.296 71.7182 149.96 68.2669 149.754C64.8157 149.549 62.1827 146.552 62.386 143.06L62.6192 139.057C62.6192 139.057 66.9226 140.488 74.5655 140.228Z" fill="#FFDDBA"/>
<path fill-rule="evenodd" clip-rule="evenodd" d="M73.008 124.422L74.969 141.102C75.3564 144.396 72.9997 147.381 69.7055 147.768C66.4114 148.156 63.4268 145.799 63.0394 142.505C62.999 142.16 62.9913 141.786 63.0088 141.45L63.9963 124.684C64.1433 122.189 66.285 120.286 68.7798 120.433C71.0046 120.564 72.7584 122.282 73.008 124.422Z" fill="#FFDDBA"/>
<path fill-rule="evenodd" clip-rule="evenodd" d="M79.5209 134.145C78.2437 135.476 76.4978 135.695 74.6531 135.325C69.9445 134.382 64.5669 129.602 64.5669 129.602C63.5005 128.766 62.3655 127.62 61.6494 126.355L61.6128 126.289C61.4238 125.951 61.2666 125.603 61.1484 125.252C61.0926 125.085 61.0452 124.915 61.0087 124.745C61.0043 124.728 61.0024 124.713 60.9978 124.698C60.7743 123.698 60.6109 123.756 60.3378 122.032C59.953 119.602 60.9678 117.452 63.1438 116.278C66.0744 114.695 69.8713 114.289 73.0018 115.624C73.0104 115.629 73.019 115.631 73.0276 115.635C73.3932 115.792 73.7436 115.977 74.0768 116.186C77.1021 118.056 78.8006 121.786 80.0346 124.973C81.1549 127.865 81.9072 131.657 79.5209 134.145Z" fill="#FFDDBA"/>
<path fill-rule="evenodd" clip-rule="evenodd" d="M66.7654 121.387C62.7598 127.104 61.3614 125.696 61.3614 125.696L61.3283 125.619C61.2725 125.487 61.2227 125.356 61.1789 125.225C61.1231 125.057 61.0749 124.887 61.0387 124.718C61.0341 124.7 61.0326 124.685 61.0281 124.67C60.8047 123.671 60.6405 123.729 60.3675 122.005C60.3554 121.923 60.3434 121.842 60.3343 121.762C60.3072 121.536 60.2921 121.313 60.2891 121.092L62.4293 119.914C62.4293 119.914 68.3333 119.149 66.7654 121.387Z" fill="#363636"/>
<path fill-rule="evenodd" clip-rule="evenodd" d="M60.5413 130.08C59.4784 130.08 58.6137 130.945 58.6137 132.008C58.6137 133.071 59.4784 133.935 60.5413 133.935C61.604 133.935 62.4687 133.071 62.4687 132.008C62.4687 130.945 61.604 130.08 60.5413 130.08ZM60.5413 134.58C59.1227 134.58 57.9688 133.426 57.9688 132.008C57.9688 130.59 59.1227 129.436 60.5413 129.436C61.9596 129.436 63.1136 130.59 63.1136 132.008C63.1136 133.426 61.9596 134.58 60.5413 134.58Z" fill="#D5962F"/>
<path fill-rule="evenodd" clip-rule="evenodd" d="M74.318 135.205C74.318 135.205 72.9237 134.972 71.0766 134.023C70.8508 133.907 70.6275 134.181 70.79 134.377L74.5913 137.701L74.318 135.205Z" fill="#363636"/>
<path fill-rule="evenodd" clip-rule="evenodd" d="M63.654 130.535C63.654 130.535 64.0983 130.27 64.4184 129.8C64.4674 129.729 64.578 129.749 64.5946 129.834C64.7084 130.414 64.8105 131.948 63.5 133.21L63.654 130.535Z" fill="#363636"/>
<path fill-rule="evenodd" clip-rule="evenodd" d="M62.9642 128.214C62.9365 128.214 62.9084 128.209 62.8813 128.197L60.2571 127.098C60.1474 127.052 60.0958 126.926 60.1418 126.816C60.1875 126.707 60.3136 126.655 60.4231 126.701L63.0475 127.801C63.157 127.847 63.2086 127.973 63.1626 128.082C63.1282 128.164 63.0484 128.214 62.9642 128.214Z" fill="#363636"/>
<path fill-rule="evenodd" clip-rule="evenodd" d="M61.3322 128.674C61.3067 128.674 61.2807 128.67 61.2555 128.66C61.1446 128.618 61.0891 128.494 61.1313 128.383L61.5082 127.396C61.5506 127.285 61.6752 127.23 61.7859 127.272C61.8968 127.314 61.9523 127.439 61.9101 127.55L61.5331 128.536C61.5003 128.622 61.4187 128.674 61.3322 128.674Z" fill="#363636"/>
<path fill-rule="evenodd" clip-rule="evenodd" d="M60.5413 134.579C59.1227 134.579 57.9688 133.425 57.9688 132.007C57.9688 130.589 59.1227 129.435 60.5413 129.435C60.786 129.435 61.0284 129.469 61.2616 129.537C61.4326 129.587 61.531 129.766 61.4811 129.937C61.4314 130.108 61.2523 130.206 61.0814 130.156C60.9069 130.105 60.7251 130.08 60.5413 130.08C59.4784 130.08 58.6137 130.944 58.6137 132.007C58.6137 133.07 59.4784 133.934 60.5413 133.934C61.604 133.934 62.4687 133.07 62.4687 132.007C62.4687 131.829 62.613 131.684 62.7911 131.684C62.9693 131.684 63.1136 131.829 63.1136 132.007C63.1136 133.425 61.9596 134.579 60.5413 134.579Z" fill="#D5962F"/>
<path fill-rule="evenodd" clip-rule="evenodd" d="M65.1006 127.992C64.9937 129.834 63.4133 131.242 61.5707 131.135C59.7279 131.028 58.3207 129.448 58.4276 127.605C58.5344 125.762 60.1147 124.355 61.9575 124.462C63.8002 124.569 65.2074 126.149 65.1006 127.992Z" fill="#FFDDBA"/>
<path fill-rule="evenodd" clip-rule="evenodd" d="M62.3281 124.455C62.7563 124.589 64.0838 125.153 64.4884 126.295L65.0462 127.356C65.3074 127.878 65.9244 128.118 66.4712 127.907C66.9214 127.734 67.198 127.303 67.198 126.849C67.198 126.721 67.176 126.592 67.1321 126.466L65.1017 120.784L62.3281 124.455Z" fill="#363636"/>
<path fill-rule="evenodd" clip-rule="evenodd" d="M49.4609 116.915C49.4609 112.845 52.7601 109.546 56.8297 109.546C60.8995 109.546 64.1987 112.845 64.1987 116.915C64.1987 120.985 60.8995 124.284 56.8297 124.284C52.7601 124.284 49.4609 120.985 49.4609 116.915Z" fill="#363636"/>
<path fill-rule="evenodd" clip-rule="evenodd" d="M62.1322 120.358L60.2942 108.931C60.2592 108.713 60.4073 108.508 60.6251 108.473C60.8427 108.438 61.0479 108.586 61.0829 108.804C61.0838 108.809 61.0847 108.816 61.0854 108.822L62.391 120.322C62.3991 120.394 62.3477 120.459 62.2759 120.467C62.2062 120.475 62.1432 120.426 62.1322 120.358Z" fill="#D5962F"/>
<path fill-rule="evenodd" clip-rule="evenodd" d="M61.9969 108.962C62.0186 109.182 61.8584 109.377 61.639 109.399L60.5792 109.504C60.3599 109.526 60.1643 109.366 60.1426 109.146C60.1209 108.927 60.2811 108.731 60.5005 108.71L61.5602 108.605C61.7797 108.583 61.9751 108.743 61.9969 108.962Z" fill="#D5962F"/>
<path fill-rule="evenodd" clip-rule="evenodd" d="M61.2338 119.709L65.0444 108.781C65.117 108.572 65.3447 108.462 65.553 108.535C65.7613 108.608 65.8712 108.835 65.7987 109.044C65.7967 109.049 65.7942 109.056 65.7921 109.061L61.4784 119.801C61.4516 119.868 61.3754 119.901 61.3084 119.874C61.2434 119.848 61.2111 119.775 61.2338 119.709Z" fill="#D5962F"/>
<path fill-rule="evenodd" clip-rule="evenodd" d="M65.0388 108.776C65.1239 108.572 65.3578 108.476 65.5611 108.561L66.5438 108.972C66.7472 109.057 66.8432 109.291 66.7581 109.494C66.6732 109.698 66.4393 109.794 66.2358 109.709L65.2532 109.298C65.0497 109.213 64.9538 108.979 65.0388 108.776Z" fill="#D5962F"/>
<path fill-rule="evenodd" clip-rule="evenodd" d="M63.7087 130.506C63.7087 130.506 64.153 130.241 64.4731 129.772C64.5221 129.7 64.6326 129.721 64.6492 129.806C64.7631 130.385 64.8652 131.919 63.5547 133.182L63.7087 130.506Z" fill="#363636"/>
<path fill-rule="evenodd" clip-rule="evenodd" d="M78.1982 120.789L76.4937 120.881L75.8438 119.884V120.917L74.7517 120.976L73.5586 119.127L73.7049 121.033L60.3509 121.76C60.0688 119.43 61.0869 117.385 63.1909 116.249C66.12 114.667 69.9178 114.261 73.0475 115.596C73.0565 115.6 73.0656 115.602 73.0731 115.606C73.4395 115.763 73.7895 115.949 74.1227 116.157C75.8679 117.235 77.1709 118.934 78.1982 120.789Z" fill="#363636"/>
<path fill-rule="evenodd" clip-rule="evenodd" d="M60.9084 130.372C59.8439 130.372 58.9809 131.235 58.9809 132.3C58.9809 133.364 59.8439 134.227 60.9084 134.227C61.973 134.227 62.8359 133.364 62.8359 132.3C62.8359 131.235 61.973 130.372 60.9084 130.372ZM58.3359 132.3C58.3359 130.879 59.4878 129.728 60.9084 129.728C62.3291 129.728 63.4808 130.879 63.4808 132.3C63.4808 133.721 62.3291 134.872 60.9084 134.872C59.4878 134.872 58.3359 133.721 58.3359 132.3Z" fill="#D5962F"/>
<path fill-rule="evenodd" clip-rule="evenodd" d="M60.3996 127.002C60.4456 126.893 60.5715 126.841 60.681 126.887L63.3052 127.986C63.4147 128.032 63.4663 128.158 63.4205 128.268C63.3746 128.377 63.2487 128.429 63.139 128.383L60.5148 127.283C60.4053 127.238 60.3537 127.112 60.3996 127.002Z" fill="#363636"/>
<path fill-rule="evenodd" clip-rule="evenodd" d="M62.0359 127.458C62.1467 127.5 62.2024 127.624 62.16 127.735L61.7831 128.722C61.7407 128.833 61.6164 128.888 61.5054 128.846C61.3945 128.803 61.339 128.679 61.3814 128.568L61.7583 127.582C61.8007 127.471 61.9248 127.415 62.0359 127.458Z" fill="#363636"/>
<path fill-rule="evenodd" clip-rule="evenodd" d="M60.9084 130.372C59.8439 130.372 58.9809 131.235 58.9809 132.3C58.9809 133.364 59.8439 134.227 60.9084 134.227C61.973 134.227 62.8359 133.364 62.8359 132.3C62.8359 132.122 62.9804 131.977 63.1583 131.977C63.3365 131.977 63.4808 132.122 63.4808 132.3C63.4808 133.721 62.3291 134.872 60.9084 134.872C59.4878 134.872 58.3359 133.721 58.3359 132.3C58.3359 130.879 59.4878 129.728 60.9084 129.728C61.1581 129.728 61.4 129.763 61.6289 129.83C61.8 129.88 61.8982 130.059 61.8484 130.229C61.7986 130.401 61.6197 130.499 61.4487 130.449C61.2777 130.399 61.0964 130.372 60.9084 130.372Z" fill="#D5962F"/>
<path fill-rule="evenodd" clip-rule="evenodd" d="M81.6869 124.933C81.6869 124.933 80.5651 126.319 78.7408 126.254C77.9677 126.226 77.0679 125.94 76.0781 125.171C76.0781 125.171 77.0422 124.065 78.6469 123.958C79.4972 123.899 80.5254 124.118 81.6869 124.933Z" fill="white"/>
<path fill-rule="evenodd" clip-rule="evenodd" d="M81.6905 124.933C81.6905 124.933 80.5687 126.319 78.7444 126.254C78.4882 125.945 78.3327 125.558 78.3143 125.127C78.2959 124.695 78.4214 124.288 78.6505 123.958C79.5008 123.899 80.529 124.118 81.6905 124.933Z" fill="#363636"/>
<path d="M74.5615 124.114C74.6751 124.082 74.7923 124.143 74.8333 124.251L74.8401 124.272L75.781 127.7C75.9502 128.316 75.4968 128.924 74.8643 128.944L74.8296 128.944L74.0464 128.942C73.9212 128.941 73.82 128.84 73.8203 128.714C73.8207 128.596 73.9115 128.499 74.027 128.489L74.0477 128.488L74.8309 128.491C75.1721 128.492 75.4228 128.176 75.3505 127.847L75.3438 127.82L74.4029 124.392C74.3698 124.271 74.4408 124.147 74.5615 124.114Z" fill="#363636"/>
<path d="M76.8407 122.214C78.1865 121.687 79.6991 121.69 81.2244 122.577C81.3325 122.64 81.3693 122.779 81.3064 122.887C81.2434 122.995 81.1046 123.032 80.9965 122.969C79.6031 122.159 78.2326 122.156 77.0061 122.637C76.8287 122.706 76.6711 122.78 76.5353 122.854L76.4645 122.894C76.4231 122.918 76.3938 122.936 76.3771 122.947C76.2734 123.017 76.1325 122.99 76.0623 122.886C75.9922 122.783 76.0195 122.642 76.1232 122.572L76.152 122.553C76.1905 122.528 76.2463 122.495 76.3186 122.456C76.4704 122.373 76.6451 122.291 76.8407 122.214Z" fill="#363636"/>
<path fill-rule="evenodd" clip-rule="evenodd" d="M73.7963 124.933C73.7963 124.933 72.6745 126.319 70.8502 126.254C70.0771 126.226 69.1772 125.94 68.1875 125.171C68.1875 125.171 69.1514 124.065 70.7562 123.958C71.6066 123.899 72.6348 124.118 73.7963 124.933Z" fill="white"/>
<path fill-rule="evenodd" clip-rule="evenodd" d="M73.7999 124.933C73.7999 124.933 72.6781 126.319 70.8538 126.254C70.5976 125.945 70.4421 125.558 70.4237 125.127C70.4052 124.695 70.5307 124.288 70.7598 123.958C71.6102 123.899 72.6384 124.118 73.7999 124.933Z" fill="#363636"/>
<path d="M68.2456 122.577C69.7707 121.69 71.2833 121.687 72.6293 122.214C72.8248 122.291 72.9995 122.373 73.1514 122.456L73.2092 122.488C73.272 122.524 73.3182 122.552 73.3467 122.572C73.4505 122.642 73.4777 122.783 73.4076 122.886C73.3375 122.99 73.1966 123.017 73.0928 122.947L73.0584 122.925C73.0292 122.907 72.9878 122.883 72.9346 122.854C72.7989 122.78 72.6412 122.706 72.4639 122.637C71.2373 122.156 69.8668 122.159 68.4735 122.969C68.3652 123.032 68.2265 122.995 68.1636 122.887C68.1006 122.779 68.1374 122.64 68.2456 122.577Z" fill="#363636"/>
<path d="M72.6279 129.408C72.7391 129.369 72.8603 129.422 72.9089 129.527L72.9248 129.566C72.9334 129.587 72.9473 129.616 72.9671 129.653C73.0146 129.741 73.0755 129.83 73.1504 129.912C73.3974 130.183 73.7322 130.323 74.1894 130.269C74.3138 130.254 74.4266 130.343 74.4414 130.467C74.4562 130.591 74.3674 130.704 74.2431 130.719C73.6331 130.792 73.1567 130.592 72.8153 130.217C72.641 130.026 72.5378 129.834 72.4895 129.698C72.4479 129.58 72.5099 129.45 72.6279 129.408Z" fill="#363636"/>
<path d="M69.8438 130.341C70.7198 128.61 72.0333 127.976 73.6505 128.549C75.2372 129.112 76.0019 130.665 75.9783 133.096L75.9773 133.178L75.0725 133.163C75.1084 131.033 74.5218 129.819 73.3481 129.402C72.2202 129.003 71.3817 129.38 70.7101 130.636L70.4968 131.071L69.8438 130.341Z" fill="#363636"/>
<path fill-rule="evenodd" clip-rule="evenodd" d="M66.5899 125.603C66.5899 125.603 68.2337 128.801 69.3564 129.878C73.5796 133.931 77.8039 133.82 80.9633 129.931C80.9992 129.886 81.0422 129.853 81.0817 129.878C81.1212 129.903 81.1039 129.972 81.1018 130.018C80.923 133.83 79.1965 135.735 75.6206 135.735C70.1297 135.735 66.7408 133.179 64.8511 127.522C63.6941 124.059 66.5899 125.603 66.5899 125.603Z" fill="#363636"/>
<path fill-rule="evenodd" clip-rule="evenodd" d="M67.4954 123.778C67.4836 123.781 67.4716 123.784 67.4592 123.785L61.1524 124.634C61.0146 124.652 60.8881 124.556 60.8694 124.418C60.851 124.28 60.9479 124.154 61.0853 124.135L67.3921 123.286C67.5299 123.268 67.6565 123.365 67.6751 123.502C67.6919 123.628 67.6134 123.744 67.4954 123.778Z" fill="#20201D"/>
<path fill-rule="evenodd" clip-rule="evenodd" d="M67.0625 125.096C67.0625 127.056 68.6494 128.645 70.6069 128.645C72.5645 128.645 74.1514 127.056 74.1514 125.096V122.763H67.0625V125.096ZM73.5481 125.37V123.517H67.9675V125.37C67.9675 125.842 68.0818 126.287 68.2837 126.678C68.5341 127.16 68.9187 127.561 69.3856 127.828C69.6873 128.001 70.023 128.119 70.3806 128.165C70.5047 128.182 70.6288 128.192 70.7577 128.192C70.8646 128.192 70.9694 128.187 71.074 128.173C72.4654 128.015 73.5481 126.821 73.5481 125.37Z" fill="#20201D"/>
<path fill-rule="evenodd" clip-rule="evenodd" d="M75.8047 125.246C75.8047 127.206 77.3914 128.795 79.349 128.795C81.3067 128.795 82.8936 127.206 82.8936 125.246V122.913H75.8047V125.246ZM82.1394 125.37V123.516H76.5588V125.37C76.5588 125.894 76.7 126.383 76.9455 126.801C77.2255 127.287 77.6485 127.678 78.1522 127.922C78.4929 128.084 78.8698 128.18 79.2689 128.189C79.2954 128.192 79.3223 128.192 79.3491 128.192C79.5729 128.192 79.7894 128.165 79.9962 128.116C81.2248 127.821 82.1394 126.702 82.1394 125.37Z" fill="#20201D"/>
<path fill-rule="evenodd" clip-rule="evenodd" d="M66.6094 122.763H67.3635V123.517H67.0557C66.8092 123.517 66.6094 123.317 66.6094 123.071V122.763Z" fill="#20201D"/>
<path fill-rule="evenodd" clip-rule="evenodd" d="M83.4963 122.913H82.7422V123.667H83.05C83.2966 123.667 83.4963 123.467 83.4963 123.221V122.913Z" fill="#20201D"/>
<path fill-rule="evenodd" clip-rule="evenodd" d="M76.456 123.366C76.4132 123.366 76.3696 123.355 76.3298 123.332C75.0313 122.579 73.8146 123.219 73.7634 123.247C73.6409 123.313 73.4875 123.267 73.4212 123.145C73.355 123.022 73.3998 122.869 73.5219 122.802C73.5829 122.769 75.0329 121.995 76.5829 122.894C76.7034 122.964 76.7447 123.119 76.6749 123.239C76.628 123.321 76.5432 123.366 76.456 123.366Z" fill="#20201D"/>
</svg>
