<svg width="356" height="356" viewBox="0 0 356 356" fill="none" xmlns="http://www.w3.org/2000/svg">
<path opacity="0.4" d="M284.676 60.9172C284.676 46.457 271.494 34.5478 254.482 32.8336C250.935 25.5696 242.301 20.4404 232.199 20.4404C224.935 20.4404 218.429 23.0955 214.025 27.2883C211.151 26.5601 208.125 26.1576 205 26.1576C186.34 26.1576 171.219 40.0524 171.219 57.1902C171.219 69.9678 179.628 80.9317 191.634 85.6899C191.629 85.8708 191.616 86.0518 191.616 86.2327C191.616 98.3002 204.363 108.084 220.086 108.084C229.083 108.084 237.102 104.872 242.324 99.8697L263 125.647L259.399 88.4716C275.76 86.2824 284.676 74.9793 284.676 60.9172Z" fill="#EA579B"/>
</svg>
