<svg width="356" height="356" viewBox="0 0 356 356" fill="none" xmlns="http://www.w3.org/2000/svg">
<path fill-rule="evenodd" clip-rule="evenodd" d="M189.058 38.063C173.518 38.063 160.922 50.6606 160.922 66.2004V115.592H217.196V66.2004C217.196 50.6606 204.598 38.063 189.058 38.063Z" fill="#948976"/>
<path fill-rule="evenodd" clip-rule="evenodd" d="M212.423 66.2723V117.663H165.703V66.2723C165.703 53.3713 176.16 42.9136 189.062 42.9136C194.983 42.9136 200.389 45.1147 204.505 48.7495C207.728 51.5855 210.159 55.3011 211.431 59.5189C212.079 61.6565 212.423 63.9241 212.423 66.2723Z" fill="#B6CCFC"/>
<path fill-rule="evenodd" clip-rule="evenodd" d="M212.235 63.2856C212.069 61.9941 211.8 60.7358 211.431 59.5193C210.159 55.3016 207.728 51.5859 204.505 48.75C203.71 48.0481 202.867 47.3997 201.981 46.8101L165.703 95.8419V117.664H175.626L212.235 63.2856Z" fill="#D8E3FD"/>
<path fill-rule="evenodd" clip-rule="evenodd" d="M153.922 119.94H224.204V114.626H153.922V119.94Z" fill="#948976"/>
<path fill-rule="evenodd" clip-rule="evenodd" d="M189.056 114.925C188.892 114.925 188.758 114.791 188.758 114.626V42.9144C188.758 42.7491 188.892 42.6152 189.056 42.6152C189.221 42.6152 189.355 42.7491 189.355 42.9144V114.626C189.355 114.791 189.221 114.925 189.056 114.925Z" fill="#21211D"/>
<path fill-rule="evenodd" clip-rule="evenodd" d="M212.424 81.6028H165.704C165.54 81.6028 165.406 81.4689 165.406 81.3036C165.406 81.1383 165.54 81.0044 165.704 81.0044H212.424C212.59 81.0044 212.724 81.1383 212.724 81.3036C212.724 81.4689 212.59 81.6028 212.424 81.6028Z" fill="#21211D"/>
<path fill-rule="evenodd" clip-rule="evenodd" d="M224.199 114.926H153.917C153.751 114.926 153.617 114.792 153.617 114.626C153.617 114.461 153.751 114.327 153.917 114.327H224.199C224.365 114.327 224.499 114.461 224.499 114.626C224.499 114.792 224.365 114.926 224.199 114.926Z" fill="#21211D"/>
</svg>
