<svg width="356" height="356" viewBox="0 0 356 356" fill="none" xmlns="http://www.w3.org/2000/svg">
<path fill-rule="evenodd" clip-rule="evenodd" d="M242.771 279.46H212.391V256.559H239.569L241.101 263.087L242.771 279.46Z" fill="#EDC829"/>
<path fill-rule="evenodd" clip-rule="evenodd" d="M331.866 309.366L205.906 306.648V278.536L331.866 274.922V309.366Z" fill="#EDC829"/>
<path opacity="0.2" fill-rule="evenodd" clip-rule="evenodd" d="M331.866 309.366L205.906 306.648V278.536L331.866 274.922V309.366Z" fill="#343434"/>
<path fill-rule="evenodd" clip-rule="evenodd" d="M285.45 293.863H232.201C232.077 293.863 231.977 293.762 231.977 293.638C231.977 293.514 232.077 293.413 232.201 293.413H285.45C285.574 293.413 285.675 293.514 285.675 293.638C285.675 293.762 285.574 293.863 285.45 293.863Z" fill="#363636"/>
<path fill-rule="evenodd" clip-rule="evenodd" d="M337.322 292.209C337.322 301.316 335.072 308.79 332.226 309.367C332.108 309.393 331.989 309.405 331.871 309.405C331.752 309.405 331.634 309.393 331.515 309.367C328.807 308.818 326.638 302.01 326.439 293.494C326.426 293.069 326.422 292.642 326.422 292.209C326.422 282.725 328.841 274.959 331.849 274.959C334.677 274.959 337.021 281.811 337.296 290.505C337.313 291.065 337.322 291.634 337.322 292.209Z" fill="#363636"/>
<path fill-rule="evenodd" clip-rule="evenodd" d="M355.998 271.689V309.367H331.514C328.805 308.817 326.636 302.009 326.438 293.493C329.045 293.075 332.621 292.864 337.295 290.505C337.564 290.37 337.837 290.226 338.112 290.076C340.642 288.698 342.83 286.59 344.462 283.982C344.899 283.28 345.332 282.619 345.757 281.993C349.042 277.136 351.828 274.498 353.661 273.114C355.142 271.994 355.998 271.689 355.998 271.689Z" fill="#F1A596"/>
<path fill-rule="evenodd" clip-rule="evenodd" d="M355.994 271.689V309.367H353.656V273.114C355.137 271.994 355.994 271.689 355.994 271.689Z" fill="#EDE8D6"/>
<path fill-rule="evenodd" clip-rule="evenodd" d="M339.434 293.501C339.346 293.501 339.264 293.446 339.234 293.359L338.035 289.886C337.997 289.775 338.056 289.655 338.166 289.617C338.277 289.579 338.397 289.637 338.435 289.748L339.634 293.221C339.672 293.331 339.614 293.451 339.503 293.489C339.48 293.497 339.457 293.501 339.434 293.501Z" fill="#363636"/>
<path fill-rule="evenodd" clip-rule="evenodd" d="M342.104 292.295C342.018 292.295 341.937 292.241 341.905 292.155L340.474 288.229C340.434 288.119 340.49 287.998 340.6 287.958C340.709 287.918 340.831 287.974 340.871 288.084L342.303 292.011C342.343 292.121 342.286 292.242 342.177 292.282C342.153 292.291 342.128 292.295 342.104 292.295Z" fill="#363636"/>
<path fill-rule="evenodd" clip-rule="evenodd" d="M344.578 290.092C344.495 290.092 344.415 290.042 344.381 289.959L342.82 286.048C342.777 285.94 342.829 285.817 342.938 285.774C343.047 285.731 343.169 285.783 343.213 285.892L344.775 289.802C344.819 289.911 344.766 290.034 344.657 290.077C344.632 290.087 344.605 290.092 344.578 290.092Z" fill="#363636"/>
<path fill-rule="evenodd" clip-rule="evenodd" d="M345.548 309.421C345.543 309.421 345.538 309.421 345.532 309.421C345.415 309.413 345.327 309.312 345.337 309.195C345.793 302.576 353.532 300.628 353.611 300.61C353.724 300.582 353.839 300.652 353.866 300.765C353.894 300.879 353.823 300.993 353.71 301.02C353.634 301.039 346.195 302.916 345.759 309.224C345.751 309.336 345.658 309.421 345.548 309.421Z" fill="#363636"/>
<path fill-rule="evenodd" clip-rule="evenodd" d="M353.493 295.468C352.33 295.468 351.206 294.992 350.398 294.153C349.572 293.295 349.137 292.122 349.205 290.934L349.539 285.124C349.594 284.155 349.101 283.261 348.251 282.79C347.403 282.32 346.384 282.376 345.592 282.935C345.562 282.956 345.531 282.978 345.501 283.001C345.407 283.07 345.274 283.05 345.205 282.955C345.136 282.861 345.156 282.729 345.251 282.66C345.284 282.636 345.317 282.612 345.348 282.589C346.274 281.936 347.464 281.871 348.456 282.42C349.449 282.97 350.025 284.015 349.961 285.148L349.629 290.958C349.566 292.045 349.948 293.075 350.704 293.86C351.459 294.644 352.483 295.066 353.564 295.045C353.676 295.042 353.778 295.136 353.78 295.252C353.783 295.369 353.69 295.466 353.574 295.468C353.547 295.468 353.52 295.468 353.493 295.468Z" fill="#363636"/>
<path fill-rule="evenodd" clip-rule="evenodd" d="M334.789 273.553C334.713 273.553 334.634 273.558 334.554 273.569C334.076 273.633 333.742 273.865 333.532 274.276C332.851 275.608 333.49 278.738 335.381 283.325C336.408 285.818 337.554 288.12 338.135 289.252C338.183 288.032 338.245 285.617 338.12 283.053C337.887 278.271 337.122 275.149 335.91 274.024C335.569 273.708 335.201 273.553 334.789 273.553ZM338.32 290.317C338.239 290.317 338.162 290.273 338.122 290.199C338.105 290.168 336.418 287.02 334.965 283.496C332.995 278.717 332.378 275.546 333.131 274.071C333.409 273.527 333.868 273.208 334.494 273.124C335.135 273.037 335.714 273.229 336.216 273.695C339.332 276.587 338.578 289.556 338.545 290.106C338.539 290.206 338.467 290.29 338.369 290.312C338.353 290.316 338.336 290.317 338.32 290.317Z" fill="#363636"/>
<path fill-rule="evenodd" clip-rule="evenodd" d="M341.635 276.445C341.315 276.445 341.023 276.548 340.751 276.755C339.644 277.597 338.904 280.139 338.611 284.104C338.453 286.245 338.468 288.275 338.491 289.294C339.845 287.286 344.234 280.456 343.291 277.609C343.113 277.072 342.754 276.722 342.194 276.541C341.999 276.477 341.812 276.445 341.635 276.445ZM338.287 290.212C338.266 290.212 338.244 290.209 338.223 290.203C338.131 290.176 338.066 290.093 338.062 289.998C338.041 289.533 337.581 278.603 340.478 276.398C341.02 275.986 341.644 275.89 342.333 276.113C343.028 276.339 343.494 276.795 343.718 277.468C344.895 281.022 338.733 289.748 338.47 290.118C338.427 290.178 338.358 290.212 338.287 290.212Z" fill="#363636"/>
<path fill-rule="evenodd" clip-rule="evenodd" d="M322.065 280.379L306.659 311.195L262.367 284.541C260.947 283.687 259.186 283.628 257.711 284.382L219.646 303.88C212.389 307.721 203.864 307.509 196.801 303.302C189.686 299.061 185.438 291.59 185.438 283.313V282.209V255.161L217.993 256.557L215.136 274.598L236.911 263.444L246.5 258.532C255.115 254.12 265.287 253.93 274.061 258.018L322.065 280.379Z" fill="#EDC829"/>
<path fill-rule="evenodd" clip-rule="evenodd" d="M323.47 284.508C323.425 285.761 323.197 287.234 322.799 288.855C322.109 291.667 320.901 294.924 319.238 298.248C318.664 299.398 318.063 300.495 317.45 301.535C316.586 302.992 315.695 304.332 314.807 305.522C311.637 309.753 308.479 312.101 306.662 311.195C304.643 310.186 304.855 305.439 306.88 299.548C307.318 298.27 307.845 296.936 308.452 295.577C308.774 294.85 309.121 294.118 309.489 293.381C311.055 290.253 312.809 287.479 314.536 285.294C315.526 284.04 316.508 282.979 317.439 282.157C319.289 280.519 320.937 279.813 322.067 280.377C323.095 280.891 323.544 282.385 323.47 284.508Z" fill="#363636"/>
<path fill-rule="evenodd" clip-rule="evenodd" d="M353.02 279.968L332.003 311.256L330.061 309.958L318.124 301.985L317.443 301.535L308.445 295.577C308.767 294.85 309.114 294.119 309.482 293.381C311.048 290.253 312.802 287.48 314.529 285.294C315.519 284.041 316.501 282.98 317.432 282.158C319.015 282.921 320.921 283.84 323.463 284.508C323.996 284.65 324.559 284.779 325.153 284.893C325.735 285.005 326.349 285.104 326.994 285.184C327.293 285.222 327.6 285.252 327.911 285.282C330.782 285.546 333.774 285.013 336.584 283.756C337.34 283.417 338.066 283.109 338.768 282.826C344.207 280.619 347.989 279.979 350.286 279.85C352.137 279.744 353.02 279.968 353.02 279.968Z" fill="#F1A596"/>
<path fill-rule="evenodd" clip-rule="evenodd" d="M322.39 269.636C322.236 269.636 322.079 269.66 321.92 269.708C321.457 269.846 321.163 270.126 321.019 270.565C320.554 271.987 321.672 274.979 324.254 279.218C325.656 281.521 327.145 283.617 327.896 284.645C327.754 283.433 327.439 281.038 326.917 278.524C325.943 273.837 324.702 270.871 323.329 269.947C323.02 269.74 322.71 269.636 322.39 269.636ZM328.21 285.672C328.141 285.672 328.074 285.64 328.031 285.583C328.009 285.554 325.852 282.707 323.869 279.451C321.18 275.035 320.077 271.998 320.592 270.425C320.782 269.844 321.185 269.458 321.791 269.278C322.41 269.093 323.013 269.193 323.58 269.575C327.109 271.948 328.381 284.876 328.434 285.426C328.443 285.526 328.385 285.62 328.291 285.656C328.265 285.666 328.237 285.672 328.21 285.672Z" fill="#363636"/>
<path fill-rule="evenodd" clip-rule="evenodd" d="M329.618 271.434C329.193 271.434 328.84 271.586 328.543 271.896C327.581 272.9 327.245 275.524 327.572 279.487C327.749 281.627 328.079 283.63 328.26 284.633C329.286 282.439 332.56 275.011 331.185 272.345C330.925 271.842 330.516 271.552 329.935 271.46C329.825 271.442 329.719 271.434 329.618 271.434ZM328.166 285.574C328.157 285.574 328.147 285.574 328.137 285.572C328.042 285.56 327.965 285.489 327.946 285.395C327.853 284.939 325.699 274.212 328.218 271.585C328.689 271.094 329.291 270.902 330.006 271.016C330.728 271.131 331.26 271.509 331.585 272.14C333.301 275.468 328.57 285.044 328.368 285.45C328.329 285.527 328.251 285.574 328.166 285.574Z" fill="#363636"/>
<path fill-rule="evenodd" clip-rule="evenodd" d="M353.023 279.968L332.005 311.257L330.062 309.959L350.289 279.85C352.14 279.744 353.023 279.968 353.023 279.968Z" fill="#EDE8D6"/>
<path fill-rule="evenodd" clip-rule="evenodd" d="M327.227 288.902C327.21 288.902 327.191 288.899 327.173 288.895C327.06 288.865 326.993 288.749 327.023 288.636L327.964 285.085C327.994 284.972 328.11 284.905 328.223 284.935C328.336 284.965 328.403 285.081 328.373 285.193L327.432 288.744C327.407 288.839 327.321 288.902 327.227 288.902Z" fill="#363636"/>
<path fill-rule="evenodd" clip-rule="evenodd" d="M330.11 289.387C330.094 289.387 330.076 289.385 330.06 289.381C329.946 289.353 329.877 289.239 329.905 289.125L330.906 285.068C330.934 284.955 331.049 284.885 331.162 284.913C331.276 284.941 331.345 285.056 331.317 285.169L330.316 289.227C330.292 289.323 330.205 289.387 330.11 289.387Z" fill="#363636"/>
<path fill-rule="evenodd" clip-rule="evenodd" d="M333.391 288.934C333.377 288.934 333.362 288.932 333.347 288.929C333.233 288.905 333.16 288.792 333.184 288.678L334.069 284.562C334.093 284.448 334.204 284.375 334.32 284.399C334.434 284.424 334.507 284.536 334.482 284.65L333.598 288.767C333.577 288.866 333.489 288.934 333.391 288.934Z" fill="#363636"/>
<path fill-rule="evenodd" clip-rule="evenodd" d="M323.477 305.77C323.433 305.77 323.389 305.756 323.351 305.728C323.257 305.659 323.238 305.526 323.307 305.432C327.263 300.103 334.833 302.627 334.909 302.653C335.02 302.691 335.078 302.811 335.04 302.922C335.002 303.032 334.882 303.091 334.772 303.053C334.698 303.028 327.417 300.605 323.647 305.684C323.606 305.74 323.542 305.77 323.477 305.77Z" fill="#363636"/>
<path fill-rule="evenodd" clip-rule="evenodd" d="M337.9 298.428C337.862 298.428 337.824 298.418 337.79 298.397C336.774 297.774 336.058 296.748 335.825 295.581C335.591 294.414 335.858 293.191 336.556 292.227L339.971 287.511C340.54 286.725 340.607 285.706 340.146 284.853C339.684 284.001 338.792 283.499 337.828 283.544C337.791 283.546 337.753 283.548 337.714 283.55C337.599 283.557 337.497 283.468 337.49 283.352C337.483 283.235 337.572 283.135 337.688 283.128C337.729 283.126 337.769 283.123 337.809 283.122C338.94 283.068 339.979 283.656 340.518 284.652C341.058 285.65 340.98 286.84 340.314 287.759L336.899 292.475C336.261 293.357 336.026 294.431 336.24 295.498C336.453 296.566 337.082 297.467 338.011 298.036C338.111 298.097 338.142 298.228 338.08 298.327C338.041 298.392 337.971 298.428 337.9 298.428Z" fill="#363636"/>
<path fill-rule="evenodd" clip-rule="evenodd" d="M309.483 293.606C309.445 293.606 309.407 293.597 309.372 293.577L269.201 270.726C264.912 268.287 259.814 267.915 255.216 269.708L210.172 287.861C207.207 289.056 203.961 288.56 201.488 286.536C199.016 284.512 197.892 281.43 198.483 278.291L201.851 260.395C201.874 260.273 201.991 260.193 202.113 260.216C202.235 260.239 202.316 260.356 202.293 260.478L198.925 278.374C198.365 281.349 199.43 284.27 201.773 286.189C204.117 288.107 207.194 288.577 210.004 287.444L255.05 269.29C259.778 267.447 265.016 267.829 269.424 270.336L309.594 293.187C309.702 293.248 309.74 293.385 309.678 293.493C309.637 293.566 309.561 293.606 309.483 293.606Z" fill="#363636"/>
<path fill-rule="evenodd" clip-rule="evenodd" d="M217.498 271.053C217.408 271.053 217.322 270.998 217.288 270.908C217.244 270.792 217.302 270.662 217.418 270.618L238.15 262.735C238.266 262.69 238.396 262.749 238.44 262.865C238.484 262.98 238.426 263.11 238.31 263.154L217.578 271.038C217.552 271.048 217.525 271.053 217.498 271.053Z" fill="#363636"/>
<mask id="mask0_676_8880" style="mask-type:alpha" maskUnits="userSpaceOnUse" x="153" y="152" width="112" height="53">
<path fill-rule="evenodd" clip-rule="evenodd" d="M153.25 152.099H264.28V204.5H153.25V152.099Z" fill="white"/>
</mask>
<g mask="url(#mask0_676_8880)">
<path fill-rule="evenodd" clip-rule="evenodd" d="M250.028 204.079C250.028 204.079 249.417 200.875 247.671 196.35H264.28C262.128 186.597 257.085 177.23 249.743 169.64C238.798 158.328 224 152.099 208.079 152.099C200.275 152.099 192.674 153.775 185.486 157.078C178.92 160.097 172.993 164.334 167.868 169.672C160.498 177.35 155.43 186.699 153.25 196.35H169.633C168.172 200.566 167.707 203.511 167.707 203.511L165.604 203.339C165.542 203.695 165.517 203.885 165.517 203.885L176.091 203.61C176.228 202.559 176.427 201.505 176.683 200.452C176.772 200.093 176.868 199.736 176.969 199.376C176.997 199.283 177.022 199.188 177.052 199.093C177.068 199.032 177.087 198.973 177.104 198.911C177.36 198.055 177.657 197.199 177.993 196.35C179.663 192.093 182.268 188.001 185.611 184.518C191.911 177.955 199.89 174.343 208.079 174.343C212.485 174.343 216.715 175.163 220.664 176.78C220.926 176.887 221.188 176.999 221.449 177.114C225.401 178.855 228.973 181.358 232.061 184.549C235.042 187.633 237.491 191.321 239.141 195.219C239.3 195.593 239.452 195.971 239.596 196.35C240.143 197.788 240.58 199.25 240.909 200.715C242.773 201.427 244.291 202.785 245.276 204.5L252.375 204.141C252.375 204.141 252.366 204.067 252.345 203.923L250.028 204.079Z" fill="#FDCD4C"/>
</g>
<path fill-rule="evenodd" clip-rule="evenodd" d="M232.619 187.231C235.613 189.979 238.072 193.266 239.729 196.739C239.889 197.073 240.042 197.41 240.186 197.747C240.911 199.438 241.445 201.167 241.786 202.888C242.87 203.43 243.801 204.179 244.532 205.071L253.02 204.69C253.02 204.69 253.012 204.624 252.99 204.496L250.663 204.635C250.663 204.635 250.049 201.78 248.296 197.747H251.18C247.554 187.591 237.292 169.844 209.775 169.552C181.966 169.259 171.393 187.523 167.657 197.747H169.922C168.456 201.505 167.989 204.128 167.989 204.128L165.876 203.976C165.815 204.292 165.789 204.462 165.789 204.462L176.408 204.217C176.547 203.281 176.746 202.341 177.003 201.403C177.093 201.083 177.188 200.764 177.29 200.444C177.318 200.361 177.343 200.277 177.373 200.192C177.39 200.137 177.409 200.084 177.426 200.03C177.445 199.977 177.465 199.924 177.484 199.872C177.522 199.757 177.562 199.642 177.605 199.527C177.65 199.405 177.694 199.284 177.741 199.161C177.919 198.689 178.115 198.216 178.325 197.747C180.004 193.976 182.616 190.356 185.97 187.258C192.296 181.411 200.31 178.219 208.534 178.219C212.959 178.219 217.207 178.876 221.173 180.307C221.436 180.403 221.7 180.503 221.961 180.605C225.931 182.157 229.518 184.387 232.619 187.231Z" fill="#363636"/>
<path fill-rule="evenodd" clip-rule="evenodd" d="M259.728 194.348H250.14C245.688 183.121 234.281 164.004 208.234 164.004C181.874 164.004 171.245 183.365 167.335 194.348H157.734C161.803 181.858 174.28 156.145 208.077 156.145C241.415 156.145 254.981 181.455 259.728 194.348Z" fill="white"/>
<path fill-rule="evenodd" clip-rule="evenodd" d="M259.728 201.72H250.14C245.688 190.493 234.281 171.376 208.234 171.376C181.874 171.376 171.245 190.737 167.335 201.72H157.734C161.803 189.23 174.28 163.517 208.077 163.517C241.415 163.517 254.981 188.827 259.728 201.72Z" fill="#6E4F86"/>
<path fill-rule="evenodd" clip-rule="evenodd" d="M185.289 262.144L185.991 229.153C186.774 222.524 192.374 217.614 198.88 217.854L222.114 216.547C227.711 216.753 232.495 220.743 233.833 226.32L240.624 262.144H185.289Z" fill="#6E4F86"/>
<path fill-rule="evenodd" clip-rule="evenodd" d="M251.302 215.647H246.735C246.618 215.647 246.523 215.552 246.523 215.435C246.523 215.318 246.618 215.224 246.735 215.224H251.302C251.419 215.224 251.514 215.318 251.514 215.435C251.514 215.552 251.419 215.647 251.302 215.647Z" fill="#363636"/>
<mask id="mask1_676_8880" style="mask-type:alpha" maskUnits="userSpaceOnUse" x="152" y="194" width="118" height="55">
<path fill-rule="evenodd" clip-rule="evenodd" d="M152.391 194.319H269.892V248.095H152.391V194.319Z" fill="white"/>
</mask>
<g mask="url(#mask1_676_8880)">
<path fill-rule="evenodd" clip-rule="evenodd" d="M176.446 203.489L173.704 214.54C172.802 218.227 171.901 221.904 171.098 225.543C170.894 226.451 170.883 226.571 170.883 226.571C170.883 226.571 173.082 225.426 174.199 224.857C177.75 223.047 181.413 221.27 185.237 219.662C189.064 218.06 193.047 216.602 197.279 215.472C199.397 214.912 201.578 214.437 203.834 214.088C206.09 213.74 208.425 213.521 210.838 213.498C215.602 213.472 220.08 214.151 224.332 215.139C228.582 216.141 232.608 217.474 236.484 218.96C240.357 220.45 244.077 222.117 247.685 223.824C249.488 224.678 249.643 225.172 249.528 224.857C248.368 221.675 247.089 218.31 245.834 215.101C245.133 213.341 244.447 211.57 243.735 209.808L241.638 204.541L241.605 204.458C240.091 200.658 241.949 196.352 245.753 194.841C249.311 193.427 253.327 194.99 255.068 198.302L255.762 199.633L256.435 200.948L257.752 203.584C258.61 205.351 259.473 207.116 260.296 208.903C261.961 212.471 263.55 216.084 265.069 219.798C265.823 221.659 266.556 223.545 267.252 225.503C267.601 226.483 267.94 227.48 268.265 228.518C268.59 229.558 268.904 230.628 269.194 231.815C269.337 232.411 269.474 233.037 269.597 233.74C269.659 234.092 269.717 234.465 269.767 234.876C269.816 235.287 269.859 235.737 269.881 236.268C269.899 236.805 269.906 237.414 269.81 238.272C269.758 238.704 269.682 239.198 269.512 239.829C269.472 239.979 269.419 240.156 269.365 240.323L269.271 240.596C269.24 240.684 269.204 240.781 269.164 240.882C269.124 240.983 269.088 241.073 269.04 241.182C268.993 241.288 268.945 241.394 268.896 241.499C268.786 241.725 268.673 241.944 268.528 242.191C268.247 242.672 267.883 243.199 267.396 243.735C266.914 244.269 266.295 244.812 265.589 245.264C265.415 245.377 265.231 245.485 265.047 245.586C264.838 245.7 264.766 245.733 264.616 245.806C264.358 245.931 264.065 246.056 263.839 246.138C263.719 246.182 263.598 246.225 263.476 246.265C263.354 246.306 263.227 246.346 263.126 246.373C262.913 246.434 262.696 246.488 262.479 246.535C261.686 246.702 261.062 246.744 260.52 246.757H260.149L259.968 246.754L259.806 246.747L259.483 246.728L259.197 246.704C258.449 246.63 257.899 246.519 257.416 246.411C256.936 246.301 256.531 246.188 256.156 246.075C255.41 245.849 254.792 245.626 254.211 245.405C253.057 244.963 252.061 244.529 251.096 244.099C249.178 243.238 247.414 242.392 245.666 241.563C243.924 240.735 242.216 239.926 240.518 239.146C237.124 237.584 233.763 236.143 230.413 234.885C227.066 233.626 223.725 232.564 220.446 231.812C217.175 231.056 213.949 230.619 210.978 230.648C208.07 230.666 204.889 231.184 201.654 232.033C198.412 232.877 195.107 234.044 191.799 235.406C188.487 236.767 185.167 238.311 181.815 239.972C180.137 240.802 178.45 241.66 176.729 242.538C175.002 243.417 173.258 244.313 171.359 245.226C170.401 245.684 169.414 246.145 168.26 246.619C167.678 246.856 167.058 247.097 166.299 247.344C165.916 247.467 165.499 247.592 164.997 247.715C164.492 247.835 163.912 247.961 163.096 248.042L162.944 248.057L162.772 248.069L162.428 248.088C162.3 248.092 162.164 248.094 162.032 248.095L161.833 248.094L161.602 248.087C161.022 248.064 160.254 247.992 159.31 247.73C159.069 247.662 158.847 247.594 158.563 247.487C158.428 247.437 158.295 247.384 158.163 247.328C158.035 247.275 157.898 247.213 157.746 247.139C157.601 247.067 157.456 246.992 157.314 246.914C157.17 246.835 157.037 246.759 156.88 246.66C156.576 246.467 156.291 246.268 156.002 246.036C155.712 245.801 155.423 245.539 155.173 245.28C155.05 245.153 154.931 245.022 154.816 244.889C154.703 244.758 154.582 244.611 154.487 244.486C154.31 244.253 154.142 244.012 153.985 243.764C153.91 243.645 153.857 243.554 153.795 243.445C153.735 243.341 153.677 243.235 153.621 243.129C153.562 243.017 153.511 242.916 153.472 242.833L153.348 242.564L153.231 242.292L153.14 242.058C153.083 241.907 153.025 241.746 152.977 241.601C152.935 241.471 152.896 241.339 152.858 241.208L152.805 241.015L152.762 240.846L152.682 240.507L152.624 240.213C152.606 240.116 152.586 240.01 152.574 239.929C152.459 239.215 152.424 238.677 152.404 238.195C152.385 237.714 152.388 237.301 152.4 236.917C152.411 236.533 152.431 236.174 152.456 235.838C152.504 235.158 152.573 234.548 152.648 233.955C152.802 232.778 152.989 231.697 153.188 230.64C153.386 229.586 153.602 228.565 153.83 227.559C154.281 225.547 154.775 223.595 155.291 221.663C156.335 217.805 157.454 214.029 158.654 210.286C159.244 208.412 159.877 206.556 160.502 204.698L161.474 201.921C161.636 201.458 161.807 200.997 161.974 200.534C162.144 200.067 162.31 199.616 162.493 199.13C163.915 195.349 168.136 193.436 171.921 194.856C175.437 196.176 177.34 199.907 176.454 203.461L176.446 203.489Z" fill="#F0B5AA"/>
</g>
<path fill-rule="evenodd" clip-rule="evenodd" d="M171.006 199.345C171.006 199.345 151.438 199.485 151.438 196.572C151.437 192.96 168.265 194.25 175.533 194.369C177.219 194.397 178.432 195.994 178.005 197.624C177.405 199.91 176.626 202.87 176.185 204.521L171.006 199.345Z" fill="#F0B5AA"/>
<path fill-rule="evenodd" clip-rule="evenodd" d="M171.256 195.117C171.256 195.117 152.144 196.272 152.361 199.257C152.573 202.162 172.132 200.011 172.132 200.011L171.256 195.117Z" fill="#F0B5AA"/>
<path fill-rule="evenodd" clip-rule="evenodd" d="M172.944 196.778C172.944 196.778 153.831 197.933 154.049 200.918C154.26 203.824 173.819 201.673 173.819 201.673L172.944 196.778Z" fill="#F0B5AA"/>
<path fill-rule="evenodd" clip-rule="evenodd" d="M246.814 199.345C246.814 199.345 266.383 199.485 266.383 196.572C266.383 192.881 249.725 194.251 241.82 194.36C239.821 194.387 238.461 196.393 239.178 198.257C240.062 200.553 241.117 203.292 241.653 204.669L246.814 199.345Z" fill="#F0B5AA"/>
<path fill-rule="evenodd" clip-rule="evenodd" d="M246.571 195.117C246.571 195.117 265.683 196.272 265.466 199.257C265.255 202.162 245.695 200.011 245.695 200.011L246.571 195.117Z" fill="#F0B5AA"/>
<path fill-rule="evenodd" clip-rule="evenodd" d="M244.876 196.778C244.876 196.778 263.988 197.933 263.771 200.918C263.559 203.824 244 201.673 244 201.673L244.876 196.778Z" fill="#F0B5AA"/>
<path fill-rule="evenodd" clip-rule="evenodd" d="M248.045 242.696C247.235 242.314 246.439 241.936 245.65 241.561C243.906 240.733 242.199 239.925 240.502 239.143C238.993 238.45 237.49 237.78 235.992 237.138C234.122 236.337 232.222 238.55 230.362 237.848C227.016 236.586 223.01 236.125 219.733 235.371C218.611 235.113 217.557 234.918 216.537 234.775C214.574 234.496 212.733 234.405 210.779 234.428C208.947 234.436 207.354 234.753 205.616 235.199C204.597 235.462 203.528 235.766 202.33 236.079C199.088 236.926 195.874 235.538 192.567 236.905C190.578 237.725 187.797 237.108 185.793 238.044C184.466 238.664 183.133 239.308 181.798 239.97C180.12 240.801 178.433 241.659 176.713 242.538C175.663 243.071 174.608 243.61 173.516 244.157L175.672 224.103C178.757 222.554 181.927 221.044 185.22 219.662C189.05 218.064 193.034 216.612 197.266 215.483C197.772 215.35 198.28 215.221 198.792 215.097C202.573 214.184 206.569 213.545 210.822 213.497C214.747 213.478 218.478 213.938 222.045 214.657C222.809 214.809 223.563 214.974 224.312 215.149C228.563 216.149 232.59 217.477 236.466 218.96C238.995 219.931 241.458 220.981 243.868 222.065L248.045 242.696Z" fill="#6E4F86"/>
<path fill-rule="evenodd" clip-rule="evenodd" d="M211.112 228.734C204.873 228.734 199.471 218.366 198.781 215.097C202.563 214.184 206.558 213.545 210.811 213.497C214.737 213.478 218.467 213.938 222.035 214.657C221.504 218.117 217.35 228.734 211.112 228.734Z" fill="#F0B5AA"/>
<path fill-rule="evenodd" clip-rule="evenodd" d="M185.791 238.045L188.568 236.548C188.792 236.426 189.057 236.622 189.006 236.873L185.57 253.717L185.791 238.045Z" fill="#363636"/>
<path fill-rule="evenodd" clip-rule="evenodd" d="M236.088 237.223L233.265 235.7C233.082 235.601 232.874 235.78 232.944 235.975L239.005 253.366L236.088 237.223Z" fill="#363636"/>
<path fill-rule="evenodd" clip-rule="evenodd" d="M167.774 228.562C167.7 228.562 167.629 228.523 167.59 228.455C167.532 228.353 167.568 228.224 167.67 228.166L170.741 226.433C170.842 226.375 170.972 226.411 171.029 226.513C171.087 226.614 171.051 226.743 170.949 226.801L167.878 228.535C167.845 228.553 167.81 228.562 167.774 228.562Z" fill="#363636"/>
<path fill-rule="evenodd" clip-rule="evenodd" d="M161.203 202.648C161.181 202.648 161.159 202.645 161.137 202.638C161.026 202.601 160.965 202.482 161.002 202.371L161.805 199.918C161.927 199.546 161.891 199.212 161.701 198.954C161.464 198.632 160.997 198.442 160.445 198.451L153.617 198.156C153.5 198.151 153.409 198.052 153.414 197.936C153.419 197.819 153.513 197.729 153.635 197.734L160.452 198.028C161.131 198.02 161.72 198.266 162.042 198.704C162.312 199.071 162.371 199.549 162.207 200.05L161.404 202.502C161.375 202.592 161.292 202.648 161.203 202.648Z" fill="#363636"/>
<path fill-rule="evenodd" clip-rule="evenodd" d="M160.33 200.579H154.438C154.321 200.579 154.227 200.485 154.227 200.368C154.227 200.251 154.321 200.156 154.438 200.156H160.33C160.447 200.156 160.541 200.251 160.541 200.368C160.541 200.485 160.447 200.579 160.33 200.579Z" fill="#363636"/>
<path fill-rule="evenodd" clip-rule="evenodd" d="M257.048 202.648C256.959 202.648 256.876 202.592 256.847 202.503L256.044 200.05C255.88 199.549 255.939 199.071 256.209 198.704C256.532 198.266 257.121 198.02 257.811 198.028L264.426 197.734C264.539 197.729 264.641 197.819 264.647 197.935C264.652 198.052 264.561 198.151 264.444 198.156L257.818 198.451C257.258 198.443 256.787 198.632 256.55 198.954C256.36 199.212 256.324 199.546 256.446 199.918L257.249 202.371C257.286 202.482 257.225 202.601 257.114 202.638C257.092 202.645 257.07 202.648 257.048 202.648Z" fill="#363636"/>
<path fill-rule="evenodd" clip-rule="evenodd" d="M263.619 200.579H257.727C257.611 200.579 257.516 200.485 257.516 200.368C257.516 200.251 257.611 200.156 257.727 200.156H263.619C263.735 200.156 263.83 200.251 263.83 200.368C263.83 200.485 263.735 200.579 263.619 200.579Z" fill="#363636"/>
<path fill-rule="evenodd" clip-rule="evenodd" d="M177.478 242.357C177.471 242.357 177.466 242.357 177.459 242.357C177.343 242.347 177.257 242.244 177.266 242.128L178.95 222.37C178.959 222.254 179.062 222.167 179.179 222.178C179.295 222.187 179.381 222.29 179.371 222.406L177.688 242.164C177.679 242.274 177.586 242.357 177.478 242.357Z" fill="#363636"/>
<path fill-rule="evenodd" clip-rule="evenodd" d="M244.008 240.995C243.908 240.995 243.82 240.925 243.8 240.823L239.957 220.568C239.935 220.454 240.01 220.343 240.125 220.321C240.24 220.299 240.351 220.375 240.372 220.49L244.216 240.745C244.238 240.859 244.162 240.97 244.048 240.992C244.034 240.994 244.021 240.995 244.008 240.995Z" fill="#363636"/>
<path fill-rule="evenodd" clip-rule="evenodd" d="M252.395 226.828C252.361 226.828 252.326 226.82 252.295 226.803L248.932 224.997C248.829 224.942 248.79 224.814 248.845 224.711C248.901 224.608 249.029 224.57 249.132 224.625L252.495 226.43C252.598 226.486 252.636 226.614 252.581 226.717C252.543 226.787 252.47 226.828 252.395 226.828Z" fill="#363636"/>
<mask id="mask2_676_8880" style="mask-type:alpha" maskUnits="userSpaceOnUse" x="201" y="189" width="23" height="23">
<path fill-rule="evenodd" clip-rule="evenodd" d="M201.844 189.644H223.843V211.437H201.844V189.644Z" fill="white"/>
</mask>
<g mask="url(#mask2_676_8880)">
<path fill-rule="evenodd" clip-rule="evenodd" d="M222.182 210.022C220.833 211.426 218.99 211.657 217.042 211.267C212.071 210.272 206.394 205.231 206.394 205.231C205.268 204.349 204.069 203.141 203.313 201.807L203.274 201.737C203.075 201.381 202.909 201.014 202.784 200.644C202.725 200.467 202.675 200.288 202.636 200.109C202.394 199.003 202.221 199.095 201.928 197.247C201.522 194.685 202.593 192.418 204.891 191.18C207.985 189.511 211.994 189.082 215.299 190.49C215.308 190.495 215.317 190.497 215.326 190.502C219.226 192.182 221.278 196.619 222.724 200.349C223.907 203.399 224.702 207.399 222.182 210.022Z" fill="#F0B5AA"/>
</g>
<path fill-rule="evenodd" clip-rule="evenodd" d="M215.179 199.888L217.225 217.276C217.63 220.71 215.17 223.821 211.732 224.225C208.294 224.628 205.18 222.172 204.776 218.738C204.733 218.379 204.725 217.988 204.744 217.639L205.774 200.162C205.927 197.561 208.162 195.577 210.766 195.73C213.088 195.866 214.918 197.658 215.179 199.888Z" fill="#F0B5AA"/>
<path fill-rule="evenodd" clip-rule="evenodd" d="M216.51 211.144C216.51 211.144 215.038 210.898 213.088 209.897C212.849 209.775 212.614 210.065 212.785 210.27L216.949 215.147L216.51 211.144Z" fill="#363636"/>
<path fill-rule="evenodd" clip-rule="evenodd" d="M205.376 206.218C205.376 206.218 205.845 205.938 206.183 205.443C206.235 205.368 206.352 205.389 206.369 205.479C206.49 206.09 206.626 207.66 205.242 208.992L205.376 206.218Z" fill="#363636"/>
<mask id="mask3_676_8880" style="mask-type:alpha" maskUnits="userSpaceOnUse" x="188" y="184" width="16" height="15">
<path fill-rule="evenodd" clip-rule="evenodd" d="M188.969 184.18H203.226V198.42H188.969V184.18Z" fill="white"/>
</mask>
<g mask="url(#mask3_676_8880)">
<path fill-rule="evenodd" clip-rule="evenodd" d="M201.85 195.504C199.526 198.677 195.066 199.368 191.889 197.046C188.711 194.725 188.02 190.27 190.344 187.096C192.668 183.923 197.128 183.232 200.306 185.554C203.483 187.875 204.175 192.33 201.85 195.504Z" fill="#363636"/>
</g>
<path fill-rule="evenodd" clip-rule="evenodd" d="M190.306 199.092C188.594 201.429 185.31 201.938 182.97 200.228C180.631 198.519 180.122 195.239 181.833 192.902C183.545 190.565 186.829 190.056 189.168 191.766C191.508 193.475 192.017 196.755 190.306 199.092Z" fill="#363636"/>
<path fill-rule="evenodd" clip-rule="evenodd" d="M182.019 202.292C180.844 203.896 178.59 204.245 176.984 203.072C175.378 201.898 175.028 199.647 176.203 198.042C177.378 196.438 179.632 196.089 181.238 197.263C182.844 198.436 183.193 200.688 182.019 202.292Z" fill="#363636"/>
<path fill-rule="evenodd" clip-rule="evenodd" d="M208.56 199.486C214.034 196.246 215.12 192.234 215.327 190.506C215.322 190.503 215.318 190.502 215.313 190.5C215.309 190.498 215.304 190.497 215.3 190.494C211.994 189.086 207.985 189.515 204.891 191.184C202.593 192.422 201.522 194.689 201.928 197.252C202.108 198.389 202.243 198.791 202.376 199.19C202.46 199.439 202.543 199.688 202.636 200.114C202.675 200.293 202.725 200.472 202.784 200.649C202.909 201.018 203.075 201.386 203.274 201.742L203.313 201.812C204.254 201.503 205.121 201.172 205.921 200.825C206.152 201.069 206.349 201.358 206.468 201.695L207.05 202.801C207.323 203.345 207.967 203.595 208.538 203.375C209.008 203.194 209.296 202.746 209.296 202.272C209.296 202.139 209.273 202.004 209.227 201.874C209.227 201.874 209.041 200.925 208.56 199.486Z" fill="#363636"/>
<path fill-rule="evenodd" clip-rule="evenodd" d="M206.974 203.537C206.861 205.48 205.193 206.964 203.247 206.852C201.301 206.739 199.815 205.072 199.928 203.129C200.041 201.185 201.71 199.701 203.655 199.814C205.601 199.926 207.087 201.593 206.974 203.537Z" fill="#F0B5AA"/>
<path fill-rule="evenodd" clip-rule="evenodd" d="M204.701 203.77C204.672 203.77 204.642 203.765 204.613 203.753L201.843 202.593C201.727 202.545 201.672 202.412 201.721 202.296C201.769 202.181 201.902 202.127 202.018 202.175L204.789 203.334C204.905 203.383 204.959 203.516 204.911 203.631C204.874 203.718 204.79 203.77 204.701 203.77Z" fill="#363636"/>
<path fill-rule="evenodd" clip-rule="evenodd" d="M202.977 204.257C202.95 204.257 202.923 204.252 202.896 204.242C202.779 204.197 202.72 204.066 202.765 203.949L203.163 202.909C203.208 202.792 203.339 202.733 203.456 202.778C203.573 202.822 203.632 202.953 203.587 203.07L203.189 204.111C203.155 204.201 203.068 204.257 202.977 204.257Z" fill="#363636"/>
<path fill-rule="evenodd" clip-rule="evenodd" d="M203.176 205.584C203.176 205.584 200.583 213.389 203.176 213.389C205.627 213.389 203.176 205.584 203.176 205.584Z" fill="#EDC829"/>
<path fill-rule="evenodd" clip-rule="evenodd" d="M203.962 205.483C203.962 205.918 203.608 206.271 203.172 206.271C202.736 206.271 202.383 205.918 202.383 205.483C202.383 205.047 202.736 204.694 203.172 204.694C203.608 204.694 203.962 205.047 203.962 205.483Z" fill="#F0B5AA"/>
<path fill-rule="evenodd" clip-rule="evenodd" d="M201.583 196.541C201.572 196.541 201.56 196.541 201.549 196.539C201.362 196.521 201.225 196.354 201.244 196.167C201.521 193.398 203.129 191.689 203.197 191.618C203.327 191.482 203.543 191.477 203.679 191.607C203.815 191.737 203.82 191.952 203.69 192.088C203.67 192.108 202.174 193.712 201.922 196.235C201.904 196.41 201.756 196.541 201.583 196.541Z" fill="#F98ADF"/>
<path fill-rule="evenodd" clip-rule="evenodd" d="M224.456 200.271C224.456 200.271 223.285 201.717 221.381 201.649C220.574 201.619 219.635 201.321 218.602 200.52C218.602 200.52 219.608 199.367 221.283 199.256C222.17 199.194 223.243 199.422 224.456 200.271Z" fill="white"/>
<path fill-rule="evenodd" clip-rule="evenodd" d="M224.448 200.271C224.448 200.271 223.277 201.717 221.373 201.649C221.105 201.327 220.943 200.923 220.924 200.473C220.905 200.024 221.035 199.6 221.275 199.256C222.162 199.194 223.235 199.422 224.448 200.271Z" fill="#363636"/>
<path d="M217.016 199.417C217.134 199.384 217.257 199.448 217.299 199.56L217.307 199.582L218.289 203.155C218.465 203.798 217.992 204.431 217.332 204.452L217.296 204.453L216.478 204.45C216.347 204.45 216.242 204.344 216.242 204.213C216.243 204.09 216.337 203.989 216.458 203.978L216.479 203.977L217.297 203.98C217.653 203.981 217.915 203.652 217.839 203.309L217.832 203.28L216.85 199.707C216.816 199.581 216.89 199.451 217.016 199.417Z" fill="#363636"/>
<path d="M219.392 197.438C220.797 196.888 222.375 196.891 223.967 197.816C224.08 197.881 224.119 198.026 224.053 198.139C223.987 198.252 223.842 198.29 223.73 198.224C222.275 197.38 220.845 197.377 219.565 197.878C219.38 197.95 219.215 198.028 219.073 198.105L218.999 198.146C218.956 198.171 218.926 198.19 218.908 198.202C218.8 198.275 218.653 198.246 218.58 198.138C218.506 198.03 218.535 197.883 218.643 197.81L218.673 197.79C218.713 197.765 218.772 197.73 218.847 197.689C219.006 197.603 219.188 197.517 219.392 197.438Z" fill="#363636"/>
<path fill-rule="evenodd" clip-rule="evenodd" d="M216.221 200.271C216.221 200.271 215.05 201.717 213.146 201.649C212.339 201.619 211.4 201.321 210.367 200.52C210.367 200.52 211.373 199.367 213.048 199.256C213.936 199.194 215.009 199.422 216.221 200.271Z" fill="white"/>
<path fill-rule="evenodd" clip-rule="evenodd" d="M216.213 200.271C216.213 200.271 215.042 201.717 213.138 201.649C212.871 201.327 212.709 200.923 212.689 200.473C212.67 200.024 212.801 199.6 213.04 199.256C213.928 199.194 215.001 199.422 216.213 200.271Z" fill="#363636"/>
<path d="M210.422 197.816C212.014 196.891 213.593 196.888 214.998 197.438C215.202 197.517 215.384 197.603 215.543 197.689L215.603 197.723C215.669 197.76 215.717 197.79 215.747 197.81C215.855 197.883 215.883 198.03 215.81 198.138C215.737 198.246 215.59 198.275 215.482 198.202L215.446 198.179C215.415 198.16 215.372 198.135 215.316 198.105C215.175 198.028 215.01 197.95 214.825 197.878C213.545 197.377 212.114 197.38 210.66 198.224C210.547 198.29 210.402 198.252 210.337 198.139C210.271 198.026 210.309 197.881 210.422 197.816Z" fill="#363636"/>
<path d="M214.994 204.938C215.11 204.897 215.236 204.952 215.287 205.061L215.304 205.103C215.313 205.124 215.327 205.155 215.348 205.193C215.397 205.285 215.461 205.377 215.539 205.463C215.797 205.746 216.146 205.892 216.624 205.835C216.753 205.82 216.871 205.912 216.887 206.042C216.902 206.172 216.809 206.289 216.68 206.305C216.043 206.38 215.546 206.172 215.19 205.782C215.008 205.582 214.9 205.382 214.849 205.24C214.806 205.117 214.871 204.982 214.994 204.938Z" fill="#363636"/>
<path opacity="0.01" d="M213.305 204.335C214.076 203.779 214.994 203.684 216.006 204.038C217.049 204.402 217.763 204.72 218.126 205.891C218.203 206.14 218.063 206.404 217.814 206.481C217.565 206.558 217.301 206.419 217.223 206.17C216.946 205.274 216.443 205.19 215.694 204.928C214.961 204.672 214.366 204.733 213.858 205.1C213.647 205.252 213.352 205.205 213.199 204.994C213.046 204.782 213.094 204.488 213.305 204.335Z" fill="#363636"/>
<path fill-rule="evenodd" clip-rule="evenodd" d="M221.855 196.458C221.361 196.458 220.87 196.565 220.409 196.779C219.576 197.165 218.943 197.853 218.627 198.714C217.976 200.493 218.895 202.47 220.676 203.12C222.456 203.771 224.435 202.853 225.087 201.074C225.402 200.213 225.363 199.28 224.976 198.448C224.589 197.615 223.901 196.984 223.038 196.668C222.653 196.528 222.254 196.458 221.855 196.458ZM221.853 203.895C221.397 203.895 220.934 203.817 220.481 203.652C218.407 202.894 217.337 200.592 218.096 198.52C218.463 197.516 219.2 196.716 220.17 196.266C221.141 195.816 222.228 195.77 223.233 196.137C224.238 196.504 225.039 197.24 225.49 198.209C225.94 199.179 225.986 200.265 225.619 201.269C225.025 202.889 223.487 203.895 221.853 203.895Z" fill="#CE8D23"/>
<path fill-rule="evenodd" clip-rule="evenodd" d="M213.152 196.471C212.658 196.471 212.167 196.579 211.706 196.793C210.872 197.179 210.24 197.866 209.924 198.728C209.273 200.507 210.192 202.483 211.973 203.134C213.753 203.785 215.732 202.867 216.384 201.088C217.035 199.309 216.116 197.333 214.335 196.682C213.95 196.541 213.55 196.471 213.152 196.471ZM213.15 203.909C212.694 203.909 212.23 203.831 211.778 203.665C209.704 202.908 208.634 200.606 209.392 198.534C209.76 197.53 210.497 196.73 211.467 196.28C212.437 195.829 213.525 195.784 214.53 196.151C216.604 196.909 217.674 199.211 216.915 201.283C216.322 202.902 214.784 203.909 213.15 203.909Z" fill="#CE8D23"/>
<path fill-rule="evenodd" clip-rule="evenodd" d="M209.644 199.066C209.632 199.07 209.62 199.072 209.607 199.074L203.024 199.959C202.88 199.978 202.748 199.878 202.729 199.734C202.71 199.59 202.811 199.459 202.954 199.439L209.537 198.554C209.681 198.535 209.813 198.636 209.832 198.779C209.85 198.91 209.768 199.031 209.644 199.066Z" fill="#CE8D23"/>
<path fill-rule="evenodd" clip-rule="evenodd" d="M216.916 199.611C216.834 199.611 216.752 199.576 216.696 199.507C216.598 199.386 216.616 199.207 216.737 199.109C217.404 198.566 218.083 198.765 218.349 198.946C218.478 199.035 218.512 199.211 218.424 199.34C218.336 199.468 218.162 199.502 218.033 199.416C217.986 199.386 217.583 199.15 217.095 199.548C217.042 199.59 216.979 199.611 216.916 199.611Z" fill="#CE8D23"/>
</svg>
