<svg width="356" height="356" viewBox="0 0 356 356" fill="none" xmlns="http://www.w3.org/2000/svg">
<g clip-path="url(#clip0_652_5044)">
<path fill-rule="evenodd" clip-rule="evenodd" d="M174.186 273.562L237.693 229.62L250.984 245.732L195.773 299.729L174.186 273.562Z" fill="#F98ADF"/>
<path opacity="0.2" fill-rule="evenodd" clip-rule="evenodd" d="M174.186 273.562L237.693 229.62L250.984 245.732L195.773 299.729L174.186 273.562Z" fill="#343434"/>
<path fill-rule="evenodd" clip-rule="evenodd" d="M196.038 299.519C194.812 300.546 191.932 299.876 188.66 297.859C185.935 296.177 182.939 293.561 180.4 290.211C178.792 288.09 177.379 285.973 176.244 283.993C173.43 279.097 172.289 275.034 173.953 273.772C175.771 272.395 180.663 275.028 185.376 279.736C186.72 281.081 188.052 282.594 189.293 284.231C191.439 287.063 193.179 289.77 194.412 292.108C196.391 295.856 197.067 298.659 196.038 299.519Z" fill="#363636"/>
<mask id="mask0_652_5044" style="mask-type:alpha" maskUnits="userSpaceOnUse" x="151" y="279" width="44" height="31">
<path fill-rule="evenodd" clip-rule="evenodd" d="M194.445 279.732H151.491V309.73H194.445V279.732Z" fill="white"/>
</mask>
<g mask="url(#mask0_652_5044)">
<path fill-rule="evenodd" clip-rule="evenodd" d="M194.445 292.104L188.694 297.855L176.819 309.73L151.491 284.4C151.491 284.4 155.443 281.549 167.26 284.274C170.183 284.95 173.106 284.756 175.838 284.103C175.982 284.068 176.129 284.031 176.277 283.99C179.217 283.179 182.994 281.151 185.41 279.732C186.754 281.076 188.086 282.59 189.327 284.227C191.473 287.059 193.212 289.766 194.445 292.104Z" fill="#B6CCFC"/>
</g>
<path fill-rule="evenodd" clip-rule="evenodd" d="M189.532 284.252C189.579 284.252 189.626 284.236 189.665 284.203L226.551 253.219C226.639 253.145 226.65 253.015 226.577 252.928C226.503 252.841 226.373 252.83 226.286 252.903L189.4 283.888C189.313 283.961 189.301 284.091 189.374 284.178C189.415 284.227 189.474 284.252 189.532 284.252Z" fill="#363636"/>
<path fill-rule="evenodd" clip-rule="evenodd" d="M201.309 293.853C201.324 293.853 201.339 293.852 201.354 293.848C201.465 293.824 201.535 293.714 201.511 293.603C199.553 284.661 193.888 278.474 189.481 274.859C184.711 270.945 180.339 269.116 180.295 269.098C180.19 269.054 180.07 269.104 180.026 269.21C179.983 269.315 180.033 269.435 180.138 269.479C180.181 269.497 184.505 271.307 189.23 275.186C193.583 278.759 199.176 284.869 201.108 293.691C201.129 293.788 201.215 293.853 201.309 293.853Z" fill="#363636"/>
<path fill-rule="evenodd" clip-rule="evenodd" d="M178.52 308.096C178.572 308.096 178.624 308.076 178.665 308.037C178.746 307.958 178.747 307.827 178.668 307.746L154.794 283.363C154.714 283.281 154.584 283.28 154.503 283.36C154.421 283.439 154.419 283.57 154.498 283.651L178.373 308.034C178.413 308.075 178.467 308.096 178.52 308.096Z" fill="#363636"/>
<path fill-rule="evenodd" clip-rule="evenodd" d="M182.419 304.277C182.473 304.277 182.528 304.255 182.568 304.212C182.647 304.13 182.643 304 182.561 303.921C182.514 303.877 177.837 299.508 173.995 303.27C173.913 303.35 173.912 303.48 173.992 303.562C174.071 303.643 174.202 303.644 174.283 303.565C175.77 302.109 177.558 301.769 179.598 302.557C181.146 303.155 182.266 304.209 182.277 304.22C182.317 304.258 182.368 304.277 182.419 304.277Z" fill="#363636"/>
<path fill-rule="evenodd" clip-rule="evenodd" d="M185.197 290.208C184.22 291.165 184.203 292.733 185.16 293.71C186.117 294.687 187.685 294.704 188.662 293.747C189.64 292.79 189.656 291.222 188.699 290.245C187.742 289.268 186.174 289.251 185.197 290.208Z" fill="white"/>
<path fill-rule="evenodd" clip-rule="evenodd" d="M177.95 287.365C177.98 287.365 178.01 287.359 178.038 287.345C178.141 287.297 178.185 287.174 178.136 287.071L176.601 283.834C176.553 283.731 176.43 283.687 176.327 283.736C176.224 283.785 176.18 283.907 176.229 284.01L177.764 287.247C177.799 287.322 177.873 287.365 177.95 287.365Z" fill="#363636"/>
<path fill-rule="evenodd" clip-rule="evenodd" d="M175.372 288.364C175.401 288.364 175.429 288.359 175.457 288.346C175.561 288.299 175.607 288.177 175.56 288.073L173.956 284.536C173.91 284.432 173.787 284.386 173.684 284.433C173.58 284.481 173.534 284.603 173.581 284.706L175.184 288.243C175.219 288.319 175.294 288.364 175.372 288.364Z" fill="#363636"/>
<path fill-rule="evenodd" clip-rule="evenodd" d="M172.153 288.515C172.18 288.515 172.207 288.51 172.233 288.5C172.338 288.456 172.387 288.335 172.343 288.23L170.837 284.618C170.793 284.513 170.672 284.463 170.567 284.507C170.462 284.551 170.413 284.672 170.456 284.777L171.963 288.389C171.996 288.468 172.073 288.515 172.153 288.515Z" fill="#363636"/>
<path fill-rule="evenodd" clip-rule="evenodd" d="M169.852 269.894C170.004 269.894 170.157 269.926 170.314 269.99C171.585 270.508 173.019 273.064 174.459 277.383C175.242 279.73 175.829 282.018 176.105 283.153C175.34 282.335 173.849 280.694 172.397 278.838C169.689 275.376 168.347 272.749 168.513 271.24C168.568 270.738 168.786 270.369 169.18 270.112C169.402 269.967 169.626 269.894 169.852 269.894ZM176.481 284.054C176.515 284.054 176.549 284.046 176.579 284.03C176.661 283.986 176.703 283.893 176.683 283.803C176.675 283.772 175.958 280.573 174.851 277.255C173.35 272.754 171.876 270.181 170.469 269.608C169.949 269.397 169.439 269.45 168.954 269.767C168.458 270.091 168.171 270.571 168.103 271.195C167.676 275.072 175.98 283.63 176.334 283.992C176.374 284.033 176.427 284.054 176.481 284.054Z" fill="#363636"/>
<path fill-rule="evenodd" clip-rule="evenodd" d="M166.886 276.039C168.164 276.039 170.161 277.358 172.671 279.865C174.066 281.258 175.273 282.676 175.869 283.398C173.724 282.815 166.581 280.701 165.527 278.158C165.328 277.678 165.367 277.22 165.647 276.758C165.92 276.306 166.29 276.072 166.777 276.042C166.812 276.04 166.85 276.039 166.886 276.039ZM176.427 283.964C176.496 283.964 176.561 283.929 176.6 283.869C176.648 283.796 176.643 283.699 176.589 283.63C176.325 283.295 170.084 275.427 166.751 275.631C166.128 275.669 165.639 275.977 165.294 276.544C164.947 277.118 164.897 277.714 165.146 278.316C166.461 281.491 175.973 283.859 176.378 283.958C176.394 283.962 176.41 283.964 176.427 283.964Z" fill="#363636"/>
<path fill-rule="evenodd" clip-rule="evenodd" d="M314.484 235.042C314.484 243.803 307.316 250.883 298.556 250.744C293.529 250.665 288.503 250.64 283.476 250.641C274.123 250.657 264.769 250.798 255.416 251.036C254.433 251.061 255.425 251.038 255.425 251.038C255.425 251.038 254.122 257.103 253.816 258.537C253.298 261.072 253.382 261.13 252.884 263.67C251.867 268.746 250.899 273.835 249.993 278.94L249.324 282.771L248.684 286.61C248.261 289.17 247.873 291.74 247.516 294.317L214.697 285.735C215.648 283.313 216.567 280.882 217.452 278.443L218.773 274.782L220.066 271.113C221.774 266.218 222.803 263.781 224.401 258.857C225.21 256.398 225.983 253.929 226.773 251.465C227.541 248.995 228.324 246.529 229.075 244.054L229.64 242.199L229.923 241.271L230.07 240.787L230.255 240.205C230.384 239.819 230.508 239.433 230.666 239.056C230.819 238.678 230.977 238.302 231.142 237.929C231.303 237.555 231.498 237.195 231.684 236.832C232.051 236.103 232.483 235.411 232.928 234.728C233.843 233.383 234.882 232.121 236.063 231.013C238.399 228.769 241.24 227.088 244.296 226.051C244.679 225.926 245.067 225.813 245.455 225.703L246.039 225.544C246.234 225.495 246.432 225.455 246.629 225.412C247.024 225.329 247.42 225.252 247.816 225.182C248.213 225.121 248.613 225.074 249.013 225.029C249.812 224.929 250.612 224.918 251.412 224.903L251.56 224.902L251.62 224.904L251.742 224.907L251.984 224.914L252.468 224.927C262.804 225.213 273.14 225.237 283.476 225.254C293.248 225.108 303.721 225.254 314.484 225.254V235.042Z" fill="#F98ADF"/>
<path fill-rule="evenodd" clip-rule="evenodd" d="M247.518 294.316C247.096 295.963 244.17 296.681 240.039 296.543C237.048 296.443 233.424 295.897 229.661 294.932C226.563 294.139 223.732 293.133 221.384 292.04C216.939 289.974 214.224 287.593 214.701 285.734C215.21 283.744 219.242 282.883 224.693 283.334C227.022 283.526 229.612 283.961 232.296 284.647C235.137 285.375 237.777 286.328 240.039 287.379C244.912 289.647 248.015 292.376 247.518 294.316Z" fill="#363636"/>
<path fill-rule="evenodd" clip-rule="evenodd" d="M240.031 287.38V309.735H204.21C204.21 309.735 204.989 304.924 215.272 298.496C217.816 296.906 219.748 294.702 221.215 292.309C221.269 292.22 221.323 292.132 221.376 292.041C222.997 289.295 224.03 285.932 224.685 283.335C227.015 283.527 229.604 283.962 232.288 284.648C235.129 285.376 237.77 286.328 240.031 287.38Z" fill="#B6CCFC"/>
<path fill-rule="evenodd" clip-rule="evenodd" d="M232.292 284.73C232.38 284.73 232.461 284.673 232.489 284.585L244.515 246.23C246.062 241.236 250.612 237.882 255.839 237.882H295.843C299.341 237.882 302.188 235.036 302.188 231.538V225.616C302.188 225.502 302.095 225.41 301.981 225.41C301.867 225.41 301.775 225.502 301.775 225.616V231.538C301.775 234.809 299.114 237.47 295.843 237.47H255.839C250.43 237.47 245.722 240.941 244.122 246.107L232.096 284.462C232.062 284.57 232.122 284.686 232.231 284.72C232.251 284.727 232.272 284.73 232.292 284.73Z" fill="#363636"/>
<path fill-rule="evenodd" clip-rule="evenodd" d="M248.856 285.968C248.916 285.968 248.976 285.942 249.016 285.892C249.088 285.803 249.075 285.673 248.986 285.602C242.275 280.142 234.099 278.474 228.422 278.036C222.277 277.562 217.65 278.389 217.604 278.397C217.492 278.418 217.418 278.525 217.439 278.637C217.459 278.749 217.566 278.824 217.678 278.803C217.724 278.795 222.308 277.977 228.402 278.448C234.017 278.882 242.101 280.531 248.726 285.921C248.765 285.953 248.811 285.968 248.856 285.968Z" fill="#363636"/>
<path fill-rule="evenodd" clip-rule="evenodd" d="M205.334 307.687H239.927C240.041 307.687 240.133 307.594 240.133 307.481C240.133 307.367 240.041 307.274 239.927 307.274H205.334C205.22 307.274 205.128 307.367 205.128 307.481C205.128 307.594 205.22 307.687 205.334 307.687Z" fill="#363636"/>
<path fill-rule="evenodd" clip-rule="evenodd" d="M233.667 307.686C233.781 307.686 233.874 307.594 233.874 307.48C233.874 305.399 234.882 303.884 236.872 302.978C238.382 302.29 239.919 302.227 239.934 302.227C240.048 302.222 240.137 302.127 240.133 302.013C240.129 301.899 240.031 301.811 239.919 301.815C239.855 301.817 233.461 302.102 233.461 307.48C233.461 307.594 233.554 307.686 233.667 307.686Z" fill="#363636"/>
<path fill-rule="evenodd" clip-rule="evenodd" d="M231.969 290.339C231.969 291.707 233.078 292.815 234.445 292.815C235.813 292.815 236.922 291.707 236.922 290.339C236.922 288.971 235.813 287.862 234.445 287.862C233.078 287.862 231.969 288.971 231.969 290.339Z" fill="white"/>
<path fill-rule="evenodd" clip-rule="evenodd" d="M224.802 293.582C224.887 293.582 224.967 293.529 224.997 293.443C225.034 293.336 224.976 293.219 224.869 293.181L221.482 292.013C221.375 291.976 221.257 292.033 221.22 292.141C221.183 292.249 221.24 292.366 221.348 292.403L224.734 293.571C224.757 293.579 224.779 293.582 224.802 293.582Z" fill="#363636"/>
<path fill-rule="evenodd" clip-rule="evenodd" d="M223.63 296.124C223.714 296.124 223.793 296.072 223.823 295.989C223.862 295.882 223.807 295.763 223.7 295.724L219.871 294.33C219.764 294.291 219.646 294.346 219.607 294.453C219.568 294.56 219.623 294.678 219.73 294.717L223.559 296.112C223.582 296.12 223.606 296.124 223.63 296.124Z" fill="#363636"/>
<path fill-rule="evenodd" clip-rule="evenodd" d="M221.489 298.536C221.571 298.536 221.648 298.486 221.681 298.406C221.723 298.3 221.671 298.18 221.566 298.138L217.752 296.616C217.646 296.574 217.526 296.626 217.484 296.731C217.442 296.837 217.493 296.957 217.599 296.999L221.413 298.521C221.438 298.531 221.464 298.536 221.489 298.536Z" fill="#363636"/>
<path fill-rule="evenodd" clip-rule="evenodd" d="M208.09 286.663C209.596 286.663 212.042 287.47 215.278 289.045C217.502 290.128 219.546 291.308 220.55 291.905C219.43 291.879 217.214 291.797 214.871 291.536C210.504 291.049 207.687 290.17 206.726 288.996C206.405 288.605 206.294 288.191 206.386 287.73C206.473 287.296 206.704 287.003 207.092 286.834C207.357 286.72 207.69 286.663 208.09 286.663ZM221.309 292.329C221.401 292.329 221.482 292.268 221.508 292.179C221.533 292.091 221.496 291.996 221.418 291.948C221.39 291.93 218.603 290.206 215.458 288.675C211.192 286.598 208.322 285.851 206.928 286.456C206.414 286.679 206.095 287.081 205.982 287.649C205.866 288.231 206.009 288.772 206.407 289.257C208.878 292.275 220.803 292.328 221.309 292.329H221.309Z" fill="#363636"/>
<path fill-rule="evenodd" clip-rule="evenodd" d="M209.589 295.961C209.107 295.767 208.807 295.419 208.673 294.896C208.541 294.384 208.633 293.956 208.952 293.587C209.787 292.623 212.157 292.091 215.807 292.051C217.778 292.029 219.636 292.158 220.569 292.237C218.652 293.362 212.143 296.987 209.589 295.961ZM221.324 292.266C221.399 292.219 221.436 292.13 221.417 292.045C221.397 291.959 221.325 291.895 221.238 291.885C220.814 291.84 210.825 290.793 208.64 293.318C208.231 293.79 208.108 294.355 208.273 294.998C208.44 295.648 208.831 296.101 209.435 296.343C209.787 296.485 210.203 296.548 210.664 296.548C214.372 296.548 221.01 292.461 221.324 292.266Z" fill="#363636"/>
<path fill-rule="evenodd" clip-rule="evenodd" d="M314.5 226.496L313.856 195.254C313.138 189.328 308.003 184.938 302.037 185.152L280.731 185.73C275.598 185.914 271.211 189.481 269.984 194.468L263.757 226.496H314.5Z" fill="#B6CCFC"/>
<mask id="mask1_652_5044" style="mask-type:alpha" maskUnits="userSpaceOnUse" x="235" y="149" width="112" height="94">
<path fill-rule="evenodd" clip-rule="evenodd" d="M346.102 149.379H235.136V242.175H346.102V149.379Z" fill="white"/>
</mask>
<g mask="url(#mask1_652_5044)">
<path fill-rule="evenodd" clip-rule="evenodd" d="M338.102 236.121L338.529 234.82L339.354 232.217C339.889 230.479 340.419 228.738 340.922 226.986C341.423 225.234 341.921 223.476 342.388 221.703C342.855 219.93 343.308 218.146 343.74 216.342C344.164 214.535 344.564 212.709 344.931 210.838C345.113 209.902 345.288 208.954 345.447 207.983C345.602 207.012 345.744 206.02 345.861 204.979C345.976 203.933 346.073 202.854 346.097 201.604C346.103 201.29 346.104 200.965 346.095 200.617C346.087 200.273 346.07 199.906 346.036 199.502C346.002 199.098 345.955 198.668 345.866 198.158C345.773 197.646 345.65 197.067 345.396 196.325L345.286 196.029L345.229 195.881C345.211 195.833 345.19 195.782 345.165 195.724C345.118 195.613 345.069 195.503 345.019 195.393L344.939 195.225L344.846 195.039C344.782 194.915 344.718 194.796 344.648 194.671C344.568 194.533 344.485 194.397 344.399 194.262L344.275 194.072L344.19 193.95L344.016 193.709C343.773 193.375 343.549 193.116 343.307 192.844C343.245 192.774 343.189 192.715 343.133 192.657L342.962 192.482L342.788 192.31C342.729 192.252 342.67 192.194 342.617 192.147C341.718 191.321 340.913 190.792 340.185 190.361C339.455 189.935 338.793 189.618 338.166 189.343C337.537 189.068 336.954 188.85 336.383 188.649C335.244 188.252 334.187 187.955 333.156 187.693C332.127 187.433 331.133 187.218 330.151 187.023C328.192 186.636 326.294 186.338 324.416 186.079C320.666 185.567 317.001 185.202 313.356 184.898C309.713 184.601 306.097 184.362 302.495 184.148L297.103 183.842L295.711 183.77L294.283 183.711C293.335 183.679 292.39 183.653 291.451 183.641C287.694 183.595 284.004 183.678 280.358 183.809C276.712 183.941 273.109 184.125 269.552 184.301C265.998 184.479 262.481 184.663 259.07 184.742C257.368 184.781 255.691 184.794 254.088 184.754C253.286 184.734 252.506 184.699 251.762 184.647C251.019 184.595 253.417 179.872 254.107 178.318C255.477 175.201 256.973 172.063 258.498 168.926C259.268 167.361 260.034 165.788 260.823 164.226L261.999 161.88L263.167 159.57L263.218 159.469C264.951 156.04 263.576 151.856 260.147 150.123C256.894 148.479 252.947 149.656 251.072 152.706L250.342 153.902L249.634 155.078L248.247 157.437C247.339 159.018 246.432 160.601 245.556 162.206C243.791 165.411 242.094 168.665 240.471 172.035C239.667 173.726 238.881 175.445 238.127 177.238C237.749 178.136 237.38 179.053 237.029 180.012C236.676 180.973 236.336 181.965 236.017 183.066C235.858 183.619 235.705 184.193 235.563 184.836C235.425 185.478 235.292 186.172 235.205 187.041C235.164 187.478 235.13 187.954 235.138 188.537C235.148 189.123 235.179 189.793 235.373 190.711C235.426 190.951 235.477 191.17 235.561 191.447C235.601 191.581 235.64 191.705 235.688 191.845C235.74 191.992 235.794 192.139 235.852 192.284C235.882 192.358 235.908 192.424 235.945 192.505L236.054 192.747L236.17 192.986C236.212 193.067 236.246 193.138 236.298 193.23C236.393 193.404 236.494 193.576 236.6 193.744C236.662 193.842 236.701 193.901 236.723 193.934L236.812 194.064C237.294 194.761 237.823 195.345 238.34 195.827C238.859 196.309 239.369 196.694 239.851 197.016C240.336 197.338 240.788 197.589 241.221 197.809C241.653 198.027 242.063 198.208 242.45 198.361C242.839 198.516 243.21 198.648 243.565 198.762C244.278 198.992 244.931 199.159 245.556 199.299C246.181 199.438 246.773 199.545 247.345 199.636C248.49 199.815 249.56 199.927 250.598 200.011C251.635 200.093 252.639 200.144 253.623 200.178C255.59 200.244 257.486 200.243 259.355 200.217C263.087 200.161 266.708 200.009 270.289 199.851C273.868 199.688 277.401 199.521 280.895 199.407C284.387 199.293 287.843 199.231 291.229 199.284C292.075 199.297 292.917 199.314 293.753 199.341L295.002 199.388L296.286 199.451L301.594 199.732C305.124 199.93 308.638 200.151 312.116 200.422C315.592 200.689 319.041 200.995 322.373 201.421C324.036 201.634 325.671 201.877 327.219 202.168C327.99 202.314 328.744 202.47 329.447 202.641C329.911 202.753 330.359 202.872 330.768 202.994C330.978 203.056 330.778 202.655 330.708 203.386C330.638 204.121 330.541 204.899 330.427 205.693C330.316 206.489 330.191 207.301 330.053 208.122C329.778 209.764 329.455 211.437 329.112 213.119C328.775 214.803 328.411 216.497 328.03 218.193C327.649 219.89 327.266 221.595 326.861 223.297C326.458 225 326.055 226.708 325.635 228.411L324.388 233.49L324.362 233.595C323.45 237.311 325.722 241.062 329.437 241.975C332.959 242.84 336.521 240.817 337.66 237.443L338.102 236.121Z" fill="#F0B5AA"/>
</g>
<path fill-rule="evenodd" clip-rule="evenodd" d="M329.127 228.092C329.127 228.092 317.594 237.219 319.205 239.009C321.423 241.474 330.016 232.91 330.016 232.91L329.127 228.092Z" fill="#F0B5AA"/>
<path fill-rule="evenodd" clip-rule="evenodd" d="M306.631 256.407L313.633 259.316L318.821 261.47L321.633 262.64L332.571 267.183C333.241 267.46 334.007 267.142 334.285 266.474L338.717 255.802L339.669 253.51L341.903 248.131L342.142 247.557C342.419 246.89 342.103 246.121 341.435 245.844L335.406 243.34L315.495 235.07C314.826 234.793 314.059 235.109 313.782 235.779L306.156 254.137L305.925 254.694C305.648 255.364 305.964 256.13 306.631 256.407Z" fill="#363636"/>
<path fill-rule="evenodd" clip-rule="evenodd" d="M307.941 255.513L331.587 265.335L339.43 246.452L315.784 236.631L307.941 255.513Z" fill="#B6CCFC"/>
<path fill-rule="evenodd" clip-rule="evenodd" d="M307.941 255.512L309.219 252.436L336.704 245.318L339.43 246.451L335.837 255.1L317.097 259.315L307.941 255.512Z" fill="#DFE9FF"/>
<path fill-rule="evenodd" clip-rule="evenodd" d="M333.969 244.181L310.455 249.469L312.969 243.416L324.77 240.36L333.969 244.181Z" fill="#DFE9FF"/>
<path fill-rule="evenodd" clip-rule="evenodd" d="M310.686 245.834C310.813 245.887 310.957 245.833 311.006 245.713C311.056 245.593 310.993 245.453 310.866 245.4C310.739 245.347 310.595 245.402 310.546 245.521C310.496 245.641 310.559 245.781 310.686 245.834Z" fill="white"/>
<path fill-rule="evenodd" clip-rule="evenodd" d="M336.775 255.766C336.869 255.766 336.966 255.785 337.059 255.823C337.416 255.972 337.594 256.365 337.455 256.7C337.316 257.034 336.912 257.186 336.555 257.037C336.197 256.889 336.02 256.496 336.159 256.161C336.261 255.914 336.509 255.766 336.775 255.766ZM336.838 257.241C337.162 257.241 337.464 257.059 337.59 256.756C337.76 256.346 337.547 255.868 337.115 255.688C336.683 255.509 336.193 255.696 336.024 256.105C335.854 256.514 336.067 256.993 336.499 257.172C336.61 257.219 336.725 257.241 336.838 257.241Z" fill="white"/>
<path fill-rule="evenodd" clip-rule="evenodd" d="M334.562 236.321C334.562 236.321 331.124 248.048 333.469 248.539C335.552 248.976 338.031 236.05 338.031 236.05L334.562 236.321Z" fill="#F0B5AA"/>
<path fill-rule="evenodd" clip-rule="evenodd" d="M331.35 236.978C331.35 236.978 327.383 248.74 329.494 249.422C331.614 250.108 335.016 237.701 335.016 237.701L331.35 236.978Z" fill="#F0B5AA"/>
<path fill-rule="evenodd" clip-rule="evenodd" d="M328.324 236.093C328.324 236.093 323.79 248.218 325.901 248.994C327.956 249.749 331.945 237.01 331.945 237.01L328.324 236.093Z" fill="#F0B5AA"/>
<path fill-rule="evenodd" clip-rule="evenodd" d="M326.647 232.533C326.647 232.533 320.653 246.015 322.723 246.878C324.98 247.818 329.281 235.83 329.281 235.83L326.647 232.533Z" fill="#F0B5AA"/>
<path fill-rule="evenodd" clip-rule="evenodd" d="M325.886 243.698C325.968 243.698 326.044 243.646 326.071 243.564L327.662 238.711C327.696 238.609 327.64 238.499 327.538 238.466C327.436 238.432 327.327 238.488 327.293 238.59L325.702 243.443C325.668 243.545 325.724 243.655 325.826 243.688C325.846 243.695 325.866 243.698 325.886 243.698Z" fill="#363636"/>
<path fill-rule="evenodd" clip-rule="evenodd" d="M329.241 244.681C329.327 244.681 329.405 244.624 329.429 244.537L330.79 239.506C330.818 239.402 330.757 239.296 330.653 239.268C330.55 239.24 330.443 239.301 330.415 239.404L329.054 244.436C329.026 244.539 329.087 244.646 329.191 244.674C329.208 244.679 329.225 244.681 329.241 244.681Z" fill="#363636"/>
<path fill-rule="evenodd" clip-rule="evenodd" d="M332.737 244.908C332.824 244.908 332.904 244.848 332.925 244.759L333.955 240.496C333.981 240.392 333.917 240.287 333.813 240.262C333.708 240.237 333.603 240.301 333.578 240.405L332.548 244.668C332.523 244.772 332.587 244.877 332.691 244.902C332.706 244.906 332.722 244.908 332.737 244.908Z" fill="#363636"/>
<path fill-rule="evenodd" clip-rule="evenodd" d="M253.799 154.383C253.799 154.383 258.821 143.243 256.566 142.432C254.563 141.712 250.325 154.173 250.325 154.173L253.799 154.383Z" fill="#F0B5AA"/>
<mask id="mask2_652_5044" style="mask-type:alpha" maskUnits="userSpaceOnUse" x="253" y="142" width="9" height="13">
<path fill-rule="evenodd" clip-rule="evenodd" d="M261.039 142.051H253.52V154.177H261.039V142.051Z" fill="white"/>
</mask>
<g mask="url(#mask2_652_5044)">
<path fill-rule="evenodd" clip-rule="evenodd" d="M257.051 154.177C257.051 154.177 262.603 143.075 260.606 142.108C258.6 141.136 253.52 152.956 253.52 152.956L257.051 154.177Z" fill="#F0B5AA"/>
</g>
<path fill-rule="evenodd" clip-rule="evenodd" d="M259.936 155.467C259.936 155.467 266.098 144.083 264.114 143.023C262.183 141.992 256.475 154.059 256.475 154.059L259.936 155.467Z" fill="#F0B5AA"/>
<path fill-rule="evenodd" clip-rule="evenodd" d="M261.109 159.225C261.109 159.225 268.905 146.698 266.974 145.559C264.868 144.316 258.954 155.597 258.954 155.597L261.109 159.225Z" fill="#F0B5AA"/>
<path fill-rule="evenodd" clip-rule="evenodd" d="M261.154 153.248C261.226 153.248 261.295 153.208 261.328 153.14L263.574 148.552C263.621 148.456 263.581 148.339 263.485 148.292C263.389 148.245 263.272 148.285 263.225 148.381L260.98 152.969C260.933 153.065 260.972 153.181 261.069 153.229C261.096 153.242 261.125 153.248 261.154 153.248Z" fill="#363636"/>
<path fill-rule="evenodd" clip-rule="evenodd" d="M258.146 152.018C258.222 152.018 258.294 151.974 258.325 151.9L260.367 147.104C260.409 147.005 260.363 146.891 260.265 146.849C260.166 146.808 260.052 146.853 260.01 146.952L257.968 151.748C257.926 151.847 257.972 151.96 258.071 152.002C258.095 152.013 258.121 152.018 258.146 152.018Z" fill="#363636"/>
<path fill-rule="evenodd" clip-rule="evenodd" d="M255.143 150.594C255.22 150.594 255.293 150.547 255.323 150.471L256.932 146.391C256.971 146.292 256.922 146.179 256.822 146.14C256.723 146.1 256.61 146.149 256.571 146.249L254.962 150.329C254.923 150.428 254.972 150.541 255.072 150.58C255.095 150.59 255.119 150.594 255.143 150.594Z" fill="#363636"/>
<path fill-rule="evenodd" clip-rule="evenodd" d="M259.487 157.252C259.536 157.252 259.584 157.233 259.62 157.198C261.363 155.542 263.852 154.788 263.877 154.781C263.98 154.75 264.038 154.642 264.007 154.539C263.977 154.437 263.869 154.378 263.766 154.409C263.664 154.439 261.314 155.15 259.52 156.763C259.012 156.055 257.08 153.627 254.215 153.27C254.11 153.257 254.012 153.332 253.999 153.439C253.985 153.545 254.061 153.642 254.167 153.655C257.274 154.042 259.303 157.132 259.324 157.163C259.355 157.211 259.406 157.243 259.464 157.25C259.471 157.251 259.479 157.252 259.487 157.252Z" fill="#363636"/>
<path fill-rule="evenodd" clip-rule="evenodd" d="M258.043 163.283C258.043 163.283 270.725 155.834 269.376 153.838C267.52 151.091 257.828 158.389 257.828 158.389L258.043 163.283Z" fill="#F0B5AA"/>
<path fill-rule="evenodd" clip-rule="evenodd" d="M252.953 200.151C253.174 200.159 253.395 200.169 253.613 200.177C255.58 200.243 257.476 200.241 259.345 200.216C262.611 200.167 265.791 200.045 268.935 199.909C269.383 199.889 271.515 202.082 271.964 202.063C275.542 201.9 278.895 201.159 282.39 201.044C285.883 200.932 287.736 200.557 291.122 200.611C291.968 200.625 292.55 200.151 293.386 200.179L294.966 201.116L296.113 201.477L302.289 201.116C305.819 201.314 308.196 201.279 311.675 201.551C312.298 201.597 313.352 200.516 313.973 200.569C316.816 200.801 319.629 201.069 322.364 201.419C323.823 201.607 325.257 201.818 326.633 202.063L329.289 186.861C327.632 186.553 326.01 186.298 324.407 186.077C320.656 185.565 316.99 185.2 313.346 184.896C309.704 184.6 306.087 184.36 302.485 184.147L300.079 184.011V184.009L297.093 183.84L295.702 183.768L294.273 183.71C293.324 183.677 292.381 183.652 291.442 183.64C287.684 183.593 283.995 183.677 280.348 183.809C276.702 183.941 273.099 184.123 269.542 184.3C265.989 184.476 262.471 184.661 259.061 184.74C258.107 184.762 257.16 184.773 256.23 184.775L252.953 200.151Z" fill="#B6CCFC"/>
<mask id="mask3_652_5044" style="mask-type:alpha" maskUnits="userSpaceOnUse" x="252" y="183" width="78" height="44">
<path fill-rule="evenodd" clip-rule="evenodd" d="M291.434 183.642C292.374 183.654 293.317 183.679 294.266 183.712L295.694 183.77L297.085 183.842L300.071 184.011V184.012L302.478 184.148C306.079 184.362 309.696 184.602 313.338 184.897C316.983 185.202 320.648 185.567 324.399 186.079C326.002 186.3 327.624 186.555 329.281 186.863L326.625 202.065C325.249 201.82 323.815 201.609 322.356 201.42C319.622 201.071 316.808 200.804 313.966 200.571L314.5 226.498H263.757L268.926 199.911C265.783 200.047 262.603 200.169 259.337 200.217C257.468 200.243 255.573 200.245 253.605 200.179C253.387 200.171 253.166 200.161 252.945 200.153L256.223 184.777C257.152 184.775 258.099 184.763 259.054 184.742C262.463 184.663 265.981 184.478 269.534 184.302C273.091 184.125 276.695 183.943 280.341 183.811C283.293 183.704 286.273 183.629 289.295 183.629C290.006 183.629 290.719 183.633 291.434 183.642Z" fill="white"/>
</mask>
<g mask="url(#mask3_652_5044)">
<path fill-rule="evenodd" clip-rule="evenodd" d="M256.224 201.899C256.412 201.899 256.577 201.762 256.607 201.571L259.511 182.764C259.544 182.552 259.399 182.354 259.187 182.321C258.975 182.288 258.777 182.434 258.744 182.645L255.839 201.452C255.807 201.664 255.952 201.862 256.164 201.895C256.184 201.898 256.204 201.899 256.224 201.899Z" fill="white"/>
</g>
<mask id="mask4_652_5044" style="mask-type:alpha" maskUnits="userSpaceOnUse" x="252" y="183" width="78" height="44">
<path fill-rule="evenodd" clip-rule="evenodd" d="M291.434 183.642C292.374 183.654 293.317 183.679 294.266 183.712L295.694 183.77L297.085 183.842L300.071 184.011V184.012L302.478 184.148C306.079 184.362 309.696 184.602 313.338 184.897C316.983 185.202 320.648 185.567 324.399 186.079C326.002 186.3 327.624 186.555 329.281 186.863L326.625 202.065C325.249 201.82 323.815 201.609 322.356 201.42C319.622 201.071 316.808 200.804 313.966 200.571L314.5 226.498H263.757L268.926 199.911C265.783 200.047 262.603 200.169 259.337 200.217C257.468 200.243 255.573 200.245 253.605 200.179C253.387 200.171 253.166 200.161 252.945 200.153L256.223 184.777C257.152 184.775 258.099 184.763 259.054 184.742C262.463 184.663 265.981 184.478 269.534 184.302C273.091 184.125 276.695 183.943 280.341 183.811C283.293 183.704 286.273 183.629 289.295 183.629C290.006 183.629 290.719 183.633 291.434 183.642Z" fill="white"/>
</mask>
<g mask="url(#mask4_652_5044)">
<path fill-rule="evenodd" clip-rule="evenodd" d="M323.518 203.031C323.707 203.031 323.873 202.893 323.902 202.7L326.527 185.03C326.558 184.818 326.412 184.621 326.2 184.589C325.988 184.558 325.791 184.704 325.759 184.916L323.134 202.586C323.102 202.798 323.249 202.995 323.461 203.027C323.48 203.03 323.499 203.031 323.518 203.031Z" fill="white"/>
</g>
<mask id="mask5_652_5044" style="mask-type:alpha" maskUnits="userSpaceOnUse" x="252" y="183" width="78" height="44">
<path fill-rule="evenodd" clip-rule="evenodd" d="M291.434 183.642C292.374 183.654 293.317 183.679 294.266 183.712L295.694 183.77L297.085 183.842L300.071 184.011V184.012L302.478 184.148C306.079 184.362 309.696 184.602 313.338 184.897C316.983 185.202 320.648 185.567 324.399 186.079C326.002 186.3 327.624 186.555 329.281 186.863L326.625 202.065C325.249 201.82 323.815 201.609 322.356 201.42C319.622 201.071 316.808 200.804 313.966 200.571L314.5 226.498H263.757L268.926 199.911C265.783 200.047 262.603 200.169 259.337 200.217C257.468 200.243 255.573 200.245 253.605 200.179C253.387 200.171 253.166 200.161 252.945 200.153L256.223 184.777C257.152 184.775 258.099 184.763 259.054 184.742C262.463 184.663 265.981 184.478 269.534 184.302C273.091 184.125 276.695 183.943 280.341 183.811C283.293 183.704 286.273 183.629 289.295 183.629C290.006 183.629 290.719 183.633 291.434 183.642Z" fill="white"/>
</mask>
<g mask="url(#mask5_652_5044)">
<path fill-rule="evenodd" clip-rule="evenodd" d="M316.927 213.421C317.13 213.421 317.3 213.264 317.314 213.059L319.437 181.615C319.451 181.401 319.289 181.216 319.075 181.201C318.863 181.187 318.677 181.348 318.662 181.562L316.54 213.006C316.525 213.22 316.687 213.405 316.901 213.42C316.91 213.42 316.918 213.421 316.927 213.421Z" fill="white"/>
</g>
<mask id="mask6_652_5044" style="mask-type:alpha" maskUnits="userSpaceOnUse" x="252" y="183" width="78" height="44">
<path fill-rule="evenodd" clip-rule="evenodd" d="M291.434 183.642C292.374 183.654 293.317 183.679 294.266 183.712L295.694 183.77L297.085 183.842L300.071 184.011V184.012L302.478 184.148C306.079 184.362 309.696 184.602 313.338 184.897C316.983 185.202 320.648 185.567 324.399 186.079C326.002 186.3 327.624 186.555 329.281 186.863L326.625 202.065C325.249 201.82 323.815 201.609 322.356 201.42C319.622 201.071 316.808 200.804 313.966 200.571L314.5 226.498H263.757L268.926 199.911C265.783 200.047 262.603 200.169 259.337 200.217C257.468 200.243 255.573 200.245 253.605 200.179C253.387 200.171 253.166 200.161 252.945 200.153L256.223 184.777C257.152 184.775 258.099 184.763 259.054 184.742C262.463 184.663 265.981 184.478 269.534 184.302C273.091 184.125 276.695 183.943 280.341 183.811C283.293 183.704 286.273 183.629 289.295 183.629C290.006 183.629 290.719 183.633 291.434 183.642Z" fill="white"/>
</mask>
<g mask="url(#mask6_652_5044)">
<path fill-rule="evenodd" clip-rule="evenodd" d="M307.298 232.374C307.5 232.374 307.67 232.218 307.685 232.014L311.522 179.811C311.538 179.597 311.378 179.411 311.164 179.396C310.951 179.38 310.764 179.54 310.748 179.754L306.911 231.957C306.895 232.171 307.055 232.357 307.269 232.373C307.279 232.374 307.289 232.374 307.298 232.374Z" fill="white"/>
</g>
<mask id="mask7_652_5044" style="mask-type:alpha" maskUnits="userSpaceOnUse" x="252" y="183" width="78" height="44">
<path fill-rule="evenodd" clip-rule="evenodd" d="M291.434 183.642C292.374 183.654 293.317 183.679 294.266 183.712L295.694 183.77L297.085 183.842L300.071 184.011V184.012L302.478 184.148C306.079 184.362 309.696 184.602 313.338 184.897C316.983 185.202 320.648 185.567 324.399 186.079C326.002 186.3 327.624 186.555 329.281 186.863L326.625 202.065C325.249 201.82 323.815 201.609 322.356 201.42C319.622 201.071 316.808 200.804 313.966 200.571L314.5 226.498H263.757L268.926 199.911C265.783 200.047 262.603 200.169 259.337 200.217C257.468 200.243 255.573 200.245 253.605 200.179C253.387 200.171 253.166 200.161 252.945 200.153L256.223 184.777C257.152 184.775 258.099 184.763 259.054 184.742C262.463 184.663 265.981 184.478 269.534 184.302C273.091 184.125 276.695 183.943 280.341 183.811C283.293 183.704 286.273 183.629 289.295 183.629C290.006 183.629 290.719 183.633 291.434 183.642Z" fill="white"/>
</mask>
<g mask="url(#mask7_652_5044)">
<path fill-rule="evenodd" clip-rule="evenodd" d="M297.448 234.162C297.648 234.162 297.818 234.008 297.834 233.805L302.397 178.337C302.415 178.123 302.256 177.936 302.042 177.918C301.829 177.901 301.641 178.06 301.623 178.273L297.061 233.742C297.043 233.955 297.202 234.143 297.416 234.16C297.426 234.161 297.437 234.162 297.448 234.162Z" fill="white"/>
</g>
<mask id="mask8_652_5044" style="mask-type:alpha" maskUnits="userSpaceOnUse" x="252" y="183" width="78" height="44">
<path fill-rule="evenodd" clip-rule="evenodd" d="M291.434 183.642C292.374 183.654 293.317 183.679 294.266 183.712L295.694 183.77L297.085 183.842L300.071 184.011V184.012L302.478 184.148C306.079 184.362 309.696 184.602 313.338 184.897C316.983 185.202 320.648 185.567 324.399 186.079C326.002 186.3 327.624 186.555 329.281 186.863L326.625 202.065C325.249 201.82 323.815 201.609 322.356 201.42C319.622 201.071 316.808 200.804 313.966 200.571L314.5 226.498H263.757L268.926 199.911C265.783 200.047 262.603 200.169 259.337 200.217C257.468 200.243 255.573 200.245 253.605 200.179C253.387 200.171 253.166 200.161 252.945 200.153L256.223 184.777C257.152 184.775 258.099 184.763 259.054 184.742C262.463 184.663 265.981 184.478 269.534 184.302C273.091 184.125 276.695 183.943 280.341 183.811C283.293 183.704 286.273 183.629 289.295 183.629C290.006 183.629 290.719 183.633 291.434 183.642Z" fill="white"/>
</mask>
<g mask="url(#mask8_652_5044)">
<path fill-rule="evenodd" clip-rule="evenodd" d="M290.29 232.923C290.5 232.923 290.673 232.754 290.678 232.543L291.875 176.456C291.88 176.242 291.709 176.064 291.495 176.06C291.283 176.056 291.104 176.225 291.099 176.439L289.902 232.526C289.897 232.741 290.067 232.918 290.281 232.923C290.284 232.923 290.287 232.923 290.29 232.923Z" fill="white"/>
</g>
<mask id="mask9_652_5044" style="mask-type:alpha" maskUnits="userSpaceOnUse" x="252" y="183" width="78" height="44">
<path fill-rule="evenodd" clip-rule="evenodd" d="M291.434 183.642C292.374 183.654 293.317 183.679 294.266 183.712L295.694 183.77L297.085 183.842L300.071 184.011V184.012L302.478 184.148C306.079 184.362 309.696 184.602 313.338 184.897C316.983 185.202 320.648 185.567 324.399 186.079C326.002 186.3 327.624 186.555 329.281 186.863L326.625 202.065C325.249 201.82 323.815 201.609 322.356 201.42C319.622 201.071 316.808 200.804 313.966 200.571L314.5 226.498H263.757L268.926 199.911C265.783 200.047 262.603 200.169 259.337 200.217C257.468 200.243 255.573 200.245 253.605 200.179C253.387 200.171 253.166 200.161 252.945 200.153L256.223 184.777C257.152 184.775 258.099 184.763 259.054 184.742C262.463 184.663 265.981 184.478 269.534 184.302C273.091 184.125 276.695 183.943 280.341 183.811C283.293 183.704 286.273 183.629 289.295 183.629C290.006 183.629 290.719 183.633 291.434 183.642Z" fill="white"/>
</mask>
<g mask="url(#mask9_652_5044)">
<path fill-rule="evenodd" clip-rule="evenodd" d="M280.198 231.724C280.201 231.724 280.205 231.724 280.208 231.723C280.423 231.718 280.592 231.539 280.586 231.325L279.099 176.243C279.094 176.028 278.912 175.861 278.701 175.865C278.487 175.871 278.318 176.05 278.324 176.264L279.81 231.346C279.816 231.557 279.988 231.724 280.198 231.724Z" fill="white"/>
</g>
<mask id="mask10_652_5044" style="mask-type:alpha" maskUnits="userSpaceOnUse" x="252" y="183" width="78" height="44">
<path fill-rule="evenodd" clip-rule="evenodd" d="M291.434 183.642C292.374 183.654 293.317 183.679 294.266 183.712L295.694 183.77L297.085 183.842L300.071 184.011V184.012L302.478 184.148C306.079 184.362 309.696 184.602 313.338 184.897C316.983 185.202 320.648 185.567 324.399 186.079C326.002 186.3 327.624 186.555 329.281 186.863L326.625 202.065C325.249 201.82 323.815 201.609 322.356 201.42C319.622 201.071 316.808 200.804 313.966 200.571L314.5 226.498H263.757L268.926 199.911C265.783 200.047 262.603 200.169 259.337 200.217C257.468 200.243 255.573 200.245 253.605 200.179C253.387 200.171 253.166 200.161 252.945 200.153L256.223 184.777C257.152 184.775 258.099 184.763 259.054 184.742C262.463 184.663 265.981 184.478 269.534 184.302C273.091 184.125 276.695 183.943 280.341 183.811C283.293 183.704 286.273 183.629 289.295 183.629C290.006 183.629 290.719 183.633 291.434 183.642Z" fill="white"/>
</mask>
<g mask="url(#mask10_652_5044)">
<path fill-rule="evenodd" clip-rule="evenodd" d="M268.398 231.724C268.599 231.724 268.769 231.569 268.785 231.366L273.225 173.842C273.242 173.628 273.082 173.441 272.868 173.425C272.654 173.409 272.468 173.568 272.452 173.782L268.011 231.306C267.994 231.52 268.154 231.706 268.368 231.723C268.378 231.723 268.388 231.724 268.398 231.724Z" fill="white"/>
</g>
<mask id="mask11_652_5044" style="mask-type:alpha" maskUnits="userSpaceOnUse" x="252" y="183" width="78" height="44">
<path fill-rule="evenodd" clip-rule="evenodd" d="M291.434 183.642C292.374 183.654 293.317 183.679 294.266 183.712L295.694 183.77L297.085 183.842L300.071 184.011V184.012L302.478 184.148C306.079 184.362 309.696 184.602 313.338 184.897C316.983 185.202 320.648 185.567 324.399 186.079C326.002 186.3 327.624 186.555 329.281 186.863L326.625 202.065C325.249 201.82 323.815 201.609 322.356 201.42C319.622 201.071 316.808 200.804 313.966 200.571L314.5 226.498H263.757L268.926 199.911C265.783 200.047 262.603 200.169 259.337 200.217C257.468 200.243 255.573 200.245 253.605 200.179C253.387 200.171 253.166 200.161 252.945 200.153L256.223 184.777C257.152 184.775 258.099 184.763 259.054 184.742C262.463 184.663 265.981 184.478 269.534 184.302C273.091 184.125 276.695 183.943 280.341 183.811C283.293 183.704 286.273 183.629 289.295 183.629C290.006 183.629 290.719 183.633 291.434 183.642Z" fill="white"/>
</mask>
<g mask="url(#mask11_652_5044)">
<path fill-rule="evenodd" clip-rule="evenodd" d="M261.674 209.195C261.865 209.195 262.032 209.053 262.058 208.858L266.489 175.934C266.517 175.722 266.368 175.526 266.156 175.498C265.944 175.469 265.748 175.618 265.719 175.831L261.289 208.755C261.26 208.967 261.409 209.163 261.622 209.191C261.639 209.194 261.657 209.195 261.674 209.195Z" fill="white"/>
</g>
<mask id="mask12_652_5044" style="mask-type:alpha" maskUnits="userSpaceOnUse" x="252" y="183" width="78" height="44">
<path fill-rule="evenodd" clip-rule="evenodd" d="M291.434 183.642C292.374 183.654 293.317 183.679 294.266 183.712L295.694 183.77L297.085 183.842L300.071 184.011V184.012L302.478 184.148C306.079 184.362 309.696 184.602 313.338 184.897C316.983 185.202 320.648 185.567 324.399 186.079C326.002 186.3 327.624 186.555 329.281 186.863L326.625 202.065C325.249 201.82 323.815 201.609 322.356 201.42C319.622 201.071 316.808 200.804 313.966 200.571L314.5 226.498H263.757L268.926 199.911C265.783 200.047 262.603 200.169 259.337 200.217C257.468 200.243 255.573 200.245 253.605 200.179C253.387 200.171 253.166 200.161 252.945 200.153L256.223 184.777C257.152 184.775 258.099 184.763 259.054 184.742C262.463 184.663 265.981 184.478 269.534 184.302C273.091 184.125 276.695 183.943 280.341 183.811C283.293 183.704 286.273 183.629 289.295 183.629C290.006 183.629 290.719 183.633 291.434 183.642Z" fill="white"/>
</mask>
<g mask="url(#mask12_652_5044)">
<path fill-rule="evenodd" clip-rule="evenodd" d="M332.737 190.133C332.933 190.133 333.101 189.985 333.123 189.786C333.146 189.573 332.991 189.382 332.778 189.359C332.239 189.301 278.521 183.609 251.688 187.52C251.476 187.551 251.329 187.747 251.36 187.96C251.391 188.172 251.588 188.319 251.8 188.288C278.536 184.391 332.157 190.073 332.695 190.131C332.709 190.132 332.723 190.133 332.737 190.133Z" fill="white"/>
</g>
<mask id="mask13_652_5044" style="mask-type:alpha" maskUnits="userSpaceOnUse" x="252" y="183" width="78" height="44">
<path fill-rule="evenodd" clip-rule="evenodd" d="M291.434 183.642C292.374 183.654 293.317 183.679 294.266 183.712L295.694 183.77L297.085 183.842L300.071 184.011V184.012L302.478 184.148C306.079 184.362 309.696 184.602 313.338 184.897C316.983 185.202 320.648 185.567 324.399 186.079C326.002 186.3 327.624 186.555 329.281 186.863L326.625 202.065C325.249 201.82 323.815 201.609 322.356 201.42C319.622 201.071 316.808 200.804 313.966 200.571L314.5 226.498H263.757L268.926 199.911C265.783 200.047 262.603 200.169 259.337 200.217C257.468 200.243 255.573 200.245 253.605 200.179C253.387 200.171 253.166 200.161 252.945 200.153L256.223 184.777C257.152 184.775 258.099 184.763 259.054 184.742C262.463 184.663 265.981 184.478 269.534 184.302C273.091 184.125 276.695 183.943 280.341 183.811C283.293 183.704 286.273 183.629 289.295 183.629C290.006 183.629 290.719 183.633 291.434 183.642Z" fill="white"/>
</mask>
<g mask="url(#mask13_652_5044)">
<path fill-rule="evenodd" clip-rule="evenodd" d="M331.433 198.491C331.632 198.491 331.801 198.338 331.819 198.136C331.837 197.923 331.679 197.735 331.466 197.716C330.993 197.675 283.772 193.622 251.713 195.658C251.499 195.671 251.337 195.856 251.35 196.07C251.364 196.284 251.546 196.446 251.762 196.432C283.764 194.4 330.926 198.448 331.399 198.489C331.41 198.49 331.421 198.491 331.433 198.491Z" fill="white"/>
</g>
<mask id="mask14_652_5044" style="mask-type:alpha" maskUnits="userSpaceOnUse" x="252" y="183" width="78" height="44">
<path fill-rule="evenodd" clip-rule="evenodd" d="M291.434 183.642C292.374 183.654 293.317 183.679 294.266 183.712L295.694 183.77L297.085 183.842L300.071 184.011V184.012L302.478 184.148C306.079 184.362 309.696 184.602 313.338 184.897C316.983 185.202 320.648 185.567 324.399 186.079C326.002 186.3 327.624 186.555 329.281 186.863L326.625 202.065C325.249 201.82 323.815 201.609 322.356 201.42C319.622 201.071 316.808 200.804 313.966 200.571L314.5 226.498H263.757L268.926 199.911C265.783 200.047 262.603 200.169 259.337 200.217C257.468 200.243 255.573 200.245 253.605 200.179C253.387 200.171 253.166 200.161 252.945 200.153L256.223 184.777C257.152 184.775 258.099 184.763 259.054 184.742C262.463 184.663 265.981 184.478 269.534 184.302C273.091 184.125 276.695 183.943 280.341 183.811C283.293 183.704 286.273 183.629 289.295 183.629C290.006 183.629 290.719 183.633 291.434 183.642Z" fill="white"/>
</mask>
<g mask="url(#mask14_652_5044)">
<path fill-rule="evenodd" clip-rule="evenodd" d="M321.495 205.675C321.705 205.675 321.878 205.507 321.883 205.296C321.888 205.082 321.718 204.904 321.504 204.899L254.161 203.362C253.94 203.358 253.77 203.527 253.765 203.741C253.76 203.956 253.929 204.133 254.144 204.138L321.486 205.675C321.489 205.675 321.492 205.675 321.495 205.675Z" fill="white"/>
</g>
<mask id="mask15_652_5044" style="mask-type:alpha" maskUnits="userSpaceOnUse" x="252" y="183" width="78" height="44">
<path fill-rule="evenodd" clip-rule="evenodd" d="M291.434 183.642C292.374 183.654 293.317 183.679 294.266 183.712L295.694 183.77L297.085 183.842L300.071 184.011V184.012L302.478 184.148C306.079 184.362 309.696 184.602 313.338 184.897C316.983 185.202 320.648 185.567 324.399 186.079C326.002 186.3 327.624 186.555 329.281 186.863L326.625 202.065C325.249 201.82 323.815 201.609 322.356 201.42C319.622 201.071 316.808 200.804 313.966 200.571L314.5 226.498H263.757L268.926 199.911C265.783 200.047 262.603 200.169 259.337 200.217C257.468 200.243 255.573 200.245 253.605 200.179C253.387 200.171 253.166 200.161 252.945 200.153L256.223 184.777C257.152 184.775 258.099 184.763 259.054 184.742C262.463 184.663 265.981 184.478 269.534 184.302C273.091 184.125 276.695 183.943 280.341 183.811C283.293 183.704 286.273 183.629 289.295 183.629C290.006 183.629 290.719 183.633 291.434 183.642Z" fill="white"/>
</mask>
<g mask="url(#mask15_652_5044)">
<path fill-rule="evenodd" clip-rule="evenodd" d="M321.479 215.586C321.688 215.586 321.86 215.42 321.867 215.21C321.874 214.996 321.706 214.817 321.492 214.81L254.201 212.644C253.987 212.638 253.807 212.805 253.8 213.019C253.793 213.233 253.962 213.413 254.176 213.42L321.467 215.586C321.471 215.586 321.475 215.586 321.479 215.586Z" fill="white"/>
</g>
<mask id="mask16_652_5044" style="mask-type:alpha" maskUnits="userSpaceOnUse" x="252" y="183" width="78" height="44">
<path fill-rule="evenodd" clip-rule="evenodd" d="M294.266 183.712L295.694 183.77L297.085 183.842L300.071 184.011V184.012L302.478 184.148C306.079 184.362 309.696 184.602 313.338 184.897C316.983 185.202 320.648 185.567 324.399 186.079C326.002 186.3 327.624 186.555 329.281 186.863L326.625 202.065C325.249 201.82 323.815 201.609 322.356 201.42C319.622 201.071 316.808 200.804 313.966 200.571L314.5 226.787H263.757L268.926 199.911C265.783 200.047 262.603 200.169 259.337 200.217C257.468 200.243 255.573 200.245 253.605 200.179C253.387 200.171 253.166 200.161 252.945 200.153L256.223 184.777C257.152 184.775 258.099 184.763 259.054 184.742C262.463 184.663 265.981 184.478 269.534 184.302C273.091 184.125 276.695 183.943 280.341 183.811C283.293 183.704 286.273 183.629 289.295 183.629C290.006 183.629 290.719 183.633 291.434 183.642C292.374 183.654 293.317 183.679 294.266 183.712Z" fill="white"/>
</mask>
<g mask="url(#mask16_652_5044)">
<path fill-rule="evenodd" clip-rule="evenodd" d="M321.479 222.409C321.69 222.409 321.863 222.24 321.867 222.028C321.871 221.814 321.701 221.637 321.486 221.633L251.305 220.333C251.302 220.333 251.3 220.333 251.297 220.333C251.086 220.333 250.913 220.502 250.909 220.714C250.905 220.928 251.076 221.105 251.29 221.109L321.472 222.409C321.474 222.409 321.477 222.409 321.479 222.409Z" fill="white"/>
</g>
<path fill-rule="evenodd" clip-rule="evenodd" d="M289.398 195.485C297.946 195.485 300.086 184.011 300.086 184.011V184.009L297.1 183.84L295.708 183.768L294.28 183.71C293.331 183.677 292.388 183.652 291.449 183.64C287.69 183.593 284.002 183.677 280.356 183.809C280.356 183.809 280.852 195.485 289.398 195.485Z" fill="#F0B5AA"/>
<path fill-rule="evenodd" clip-rule="evenodd" d="M247.572 184.905H251.759C251.866 184.905 251.953 184.818 251.953 184.711C251.953 184.603 251.866 184.517 251.759 184.517H247.572C247.465 184.517 247.378 184.603 247.378 184.711C247.378 184.818 247.465 184.905 247.572 184.905Z" fill="#363636"/>
<path fill-rule="evenodd" clip-rule="evenodd" d="M333.845 203.909C333.933 203.909 334.013 203.849 334.034 203.759C334.058 203.655 333.993 203.55 333.889 203.526L330.784 202.804C330.68 202.78 330.576 202.845 330.551 202.949C330.527 203.053 330.592 203.158 330.696 203.182L333.801 203.904C333.816 203.907 333.83 203.909 333.845 203.909Z" fill="#363636"/>
<mask id="mask17_652_5044" style="mask-type:alpha" maskUnits="userSpaceOnUse" x="279" y="160" width="21" height="20">
<path fill-rule="evenodd" clip-rule="evenodd" d="M299.164 160.062H279.174V179.887H299.164V160.062Z" fill="white"/>
</mask>
<g mask="url(#mask17_652_5044)">
<path fill-rule="evenodd" clip-rule="evenodd" d="M280.683 178.601C281.908 179.878 283.583 180.088 285.353 179.733C289.871 178.828 295.03 174.242 295.03 174.242C296.053 173.44 297.142 172.34 297.829 171.127L297.864 171.063C298.046 170.74 298.196 170.405 298.31 170.069C298.363 169.908 298.409 169.745 298.444 169.582C298.448 169.566 298.45 169.551 298.454 169.537C298.669 168.578 298.825 168.633 299.087 166.979C299.457 164.648 298.483 162.585 296.395 161.459C293.584 159.941 289.941 159.551 286.937 160.832C286.929 160.836 286.921 160.838 286.913 160.842C286.562 160.993 286.226 161.17 285.906 161.37C283.004 163.165 281.374 166.744 280.19 169.801C279.115 172.575 278.394 176.214 280.683 178.601Z" fill="#F0B5AA"/>
</g>
<path fill-rule="evenodd" clip-rule="evenodd" d="M286.938 169.304L285.061 185.266C284.691 188.419 286.946 191.275 290.099 191.646C293.251 192.016 296.107 189.761 296.478 186.609C296.517 186.279 296.524 185.92 296.507 185.6L295.562 169.555C295.422 167.167 293.372 165.345 290.984 165.486C288.855 165.611 287.177 167.256 286.938 169.304Z" fill="#F0B5AA"/>
<path fill-rule="evenodd" clip-rule="evenodd" d="M285.711 179.615C285.711 179.615 287.048 179.391 288.82 178.481C289.037 178.369 289.251 178.633 289.095 178.82L285.312 183.256L285.711 179.615Z" fill="#363636"/>
<path fill-rule="evenodd" clip-rule="evenodd" d="M295.868 175.134C295.868 175.134 295.441 174.88 295.134 174.429C295.088 174.361 294.981 174.38 294.965 174.462C294.856 175.018 294.758 176.489 296.016 177.701L295.868 175.134Z" fill="#363636"/>
<path fill-rule="evenodd" clip-rule="evenodd" d="M289.557 165.828C288.047 164.621 286.721 163.093 285.884 161.366C286.203 161.166 286.539 160.989 286.89 160.838C286.894 160.836 286.898 160.835 286.903 160.833C286.907 160.832 286.911 160.83 286.915 160.828C289.918 159.547 293.561 159.937 296.372 161.455C298.459 162.581 299.433 164.644 299.064 166.975C298.901 168.006 298.778 168.373 298.657 168.735C298.584 168.954 298.511 169.171 298.431 169.532C298.017 169.481 297.605 169.416 297.195 169.336C296.669 169.503 295.348 169.968 294.992 170.976L294.458 171.99C294.208 172.491 293.617 172.72 293.094 172.518C292.663 172.352 292.399 171.94 292.399 171.505C292.399 171.383 292.42 171.259 292.462 171.139C292.462 171.139 292.706 169.898 293.361 168.131C292.001 167.53 290.718 166.758 289.557 165.828Z" fill="#363636"/>
<path fill-rule="evenodd" clip-rule="evenodd" d="M294.491 172.692C294.593 174.46 296.11 175.81 297.878 175.708C299.645 175.605 300.995 174.089 300.893 172.321C300.791 170.553 299.274 169.203 297.506 169.305C295.738 169.408 294.388 170.924 294.491 172.692Z" fill="#F0B5AA"/>
<path fill-rule="evenodd" clip-rule="evenodd" d="M296.557 172.906C296.584 172.906 296.611 172.901 296.637 172.89L299.155 171.835C299.26 171.791 299.309 171.67 299.265 171.565C299.221 171.46 299.1 171.41 298.995 171.455L296.477 172.509C296.372 172.553 296.323 172.674 296.367 172.779C296.4 172.858 296.477 172.906 296.557 172.906Z" fill="#363636"/>
<path fill-rule="evenodd" clip-rule="evenodd" d="M298.106 173.347C298.131 173.347 298.156 173.343 298.18 173.334C298.286 173.293 298.339 173.174 298.299 173.067L297.937 172.121C297.896 172.015 297.777 171.961 297.671 172.002C297.565 172.043 297.511 172.162 297.552 172.268L297.914 173.215C297.945 173.297 298.023 173.347 298.106 173.347Z" fill="#363636"/>
<path fill-rule="evenodd" clip-rule="evenodd" d="M297.051 161.99C299.128 159.073 303.225 157.784 306.597 158.987C308.194 159.556 309.571 160.595 311.039 161.442C312.507 162.289 314.189 162.967 315.862 162.698C317.288 162.47 318.529 161.576 319.522 160.527C320.514 159.477 321.309 158.259 322.232 157.148C324.001 155.017 326.28 153.268 328.899 152.367C331.518 151.467 334.484 151.464 337.006 152.608L342.438 173.251C340.005 171.389 336.964 170.336 333.901 170.296C330.837 170.255 327.769 171.227 325.288 173.024C323.774 174.122 322.425 175.541 320.649 176.126C318.87 176.713 316.874 176.355 315.221 175.475C313.568 174.595 312.219 173.233 311.047 171.773C309.642 170.024 308.396 167.422 306.494 166.233C304.228 164.816 301.159 164.385 298.492 164.559L297.051 161.99Z" fill="#363636"/>
<path fill-rule="evenodd" clip-rule="evenodd" d="M299.124 164.698C299.161 164.698 299.2 164.692 299.238 164.68C299.44 164.617 299.553 164.403 299.49 164.2C299.47 164.133 298.964 162.541 297.512 161.5C297.34 161.376 297.1 161.416 296.976 161.588C296.852 161.76 296.892 162 297.064 162.124C298.3 163.011 298.752 164.414 298.757 164.428C298.808 164.593 298.96 164.698 299.124 164.698Z" fill="#EDC829"/>
<path fill-rule="evenodd" clip-rule="evenodd" d="M278.515 169.673C278.515 169.673 279.589 171.001 281.335 170.938C282.075 170.911 282.936 170.637 283.883 169.902C283.883 169.902 282.96 168.844 281.425 168.741C280.611 168.684 279.627 168.893 278.515 169.673Z" fill="white"/>
<path fill-rule="evenodd" clip-rule="evenodd" d="M278.517 169.673C278.517 169.673 279.591 171.001 281.337 170.938C281.582 170.642 281.731 170.272 281.748 169.859C281.766 169.446 281.646 169.057 281.427 168.741C280.613 168.684 279.629 168.893 278.517 169.673Z" fill="#363636"/>
<path d="M285.338 168.891C285.229 168.861 285.117 168.919 285.077 169.023L285.071 169.042L284.171 172.322C284.009 172.912 284.442 173.494 285.048 173.513L285.081 173.513L285.831 173.511C285.95 173.511 286.047 173.413 286.047 173.294C286.047 173.18 285.96 173.088 285.849 173.078L285.829 173.077L285.08 173.079C284.753 173.08 284.513 172.778 284.582 172.464L284.589 172.437L285.489 169.157C285.521 169.042 285.453 168.922 285.338 168.891Z" fill="#363636"/>
<path d="M283.155 167.073C281.867 166.568 280.42 166.571 278.96 167.42C278.857 167.48 278.822 167.613 278.882 167.717C278.942 167.82 279.075 167.855 279.178 167.795C280.512 167.02 281.823 167.017 282.997 167.477C283.167 167.543 283.318 167.615 283.448 167.685L283.515 167.723C283.555 167.746 283.583 167.763 283.599 167.774C283.698 167.841 283.833 167.815 283.9 167.716C283.967 167.617 283.941 167.482 283.842 167.415L283.814 167.397C283.778 167.373 283.724 167.342 283.655 167.304C283.51 167.225 283.343 167.146 283.155 167.073Z" fill="#363636"/>
<path fill-rule="evenodd" clip-rule="evenodd" d="M286.07 169.673C286.07 169.673 287.144 171.001 288.889 170.938C289.629 170.911 290.49 170.637 291.438 169.902C291.438 169.902 290.515 168.844 288.979 168.741C288.165 168.684 287.182 168.893 286.07 169.673Z" fill="white"/>
<path fill-rule="evenodd" clip-rule="evenodd" d="M286.072 169.673C286.072 169.673 287.146 171.001 288.891 170.938C289.137 170.642 289.285 170.272 289.303 169.859C289.321 169.446 289.201 169.057 288.981 168.741C288.167 168.684 287.184 168.893 286.072 169.673Z" fill="#363636"/>
<path d="M291.384 167.42C289.925 166.571 288.477 166.568 287.189 167.073C287.002 167.146 286.835 167.225 286.69 167.304L286.634 167.335C286.574 167.369 286.53 167.396 286.503 167.415C286.403 167.482 286.377 167.617 286.444 167.716C286.511 167.815 286.646 167.841 286.746 167.774L286.778 167.753C286.806 167.736 286.846 167.713 286.897 167.685C287.027 167.615 287.178 167.543 287.347 167.477C288.521 167.017 289.833 167.02 291.166 167.795C291.27 167.855 291.403 167.82 291.463 167.717C291.523 167.613 291.488 167.48 291.384 167.42Z" fill="#363636"/>
<path d="M287.191 173.959C287.085 173.921 286.969 173.972 286.922 174.072L286.907 174.11C286.899 174.129 286.885 174.158 286.867 174.193C286.821 174.277 286.763 174.362 286.691 174.44C286.455 174.7 286.134 174.834 285.697 174.782C285.578 174.768 285.47 174.853 285.456 174.972C285.441 175.091 285.526 175.199 285.645 175.213C286.229 175.282 286.685 175.091 287.012 174.733C287.179 174.55 287.277 174.366 287.324 174.235C287.363 174.122 287.304 173.999 287.191 173.959Z" fill="#363636"/>
<path opacity="0.01" d="M288.719 173.399C288.012 172.888 287.171 172.801 286.242 173.126C285.286 173.461 284.632 173.752 284.299 174.827C284.228 175.056 284.356 175.298 284.585 175.369C284.813 175.44 285.056 175.312 285.126 175.083C285.381 174.261 285.842 174.184 286.528 173.943C287.201 173.708 287.746 173.765 288.212 174.101C288.406 174.241 288.676 174.197 288.816 174.004C288.956 173.81 288.913 173.539 288.719 173.399Z" fill="#363636"/>
<path fill-rule="evenodd" clip-rule="evenodd" d="M314.141 246.527H257.195C255.122 246.527 253.442 248.208 253.442 250.28C253.442 252.353 255.122 254.033 257.195 254.033H314.141V246.527Z" fill="#3D3D3D"/>
<path fill-rule="evenodd" clip-rule="evenodd" d="M288.69 300.277C288.782 300.277 288.875 300.247 288.952 300.184L338.908 259.747C339.087 259.602 339.114 259.339 338.97 259.16C338.825 258.981 338.562 258.954 338.384 259.098L288.428 299.536C288.249 299.681 288.221 299.943 288.366 300.122C288.448 300.225 288.569 300.277 288.69 300.277Z" fill="#6D6D6D"/>
<path fill-rule="evenodd" clip-rule="evenodd" d="M338.645 300.276C338.767 300.276 338.887 300.224 338.97 300.122C339.114 299.943 339.087 299.68 338.908 299.536L289.405 259.465C289.226 259.319 288.963 259.348 288.819 259.527C288.674 259.705 288.702 259.968 288.881 260.113L338.384 300.184C338.461 300.246 338.553 300.276 338.645 300.276Z" fill="#6D6D6D"/>
<path fill-rule="evenodd" clip-rule="evenodd" d="M261.251 301.586C266.002 301.586 269.867 305.452 269.867 310.202C269.867 314.953 266.002 318.818 261.251 318.818C256.5 318.818 252.635 314.953 252.635 310.202C252.635 305.452 256.5 301.586 261.251 301.586ZM261.251 321.849C267.674 321.849 272.898 316.624 272.898 310.202C272.898 303.78 267.674 298.555 261.251 298.555C254.829 298.555 249.604 303.78 249.604 310.202C249.604 316.624 254.829 321.849 261.251 321.849Z" fill="#363636"/>
<mask id="mask18_652_5044" style="mask-type:alpha" maskUnits="userSpaceOnUse" x="272" y="238" width="85" height="85">
<path fill-rule="evenodd" clip-rule="evenodd" d="M356.008 238.129H272.054V322.084H356.008V238.129Z" fill="white"/>
</mask>
<g mask="url(#mask18_652_5044)">
<path fill-rule="evenodd" clip-rule="evenodd" d="M314.031 241.629C324.308 241.629 333.97 245.632 341.238 252.899C348.505 260.167 352.507 269.829 352.507 280.106C352.507 290.383 348.505 300.046 341.238 307.314C333.97 314.58 324.308 318.583 314.031 318.583C303.753 318.583 294.091 314.58 286.824 307.314C279.556 300.046 275.554 290.383 275.554 280.106C275.554 269.829 279.556 260.167 286.824 252.899C294.091 245.632 303.753 241.629 314.031 241.629ZM314.031 322.084C325.243 322.084 335.785 317.717 343.713 309.788C351.642 301.86 356.008 291.319 356.008 280.106C356.008 268.894 351.642 258.352 343.713 250.425C335.785 242.495 325.243 238.129 314.031 238.129C302.818 238.129 292.277 242.495 284.348 250.425C276.42 258.352 272.054 268.894 272.054 280.106C272.054 291.319 276.42 301.86 284.348 309.788C292.277 317.717 302.818 322.084 314.031 322.084Z" fill="#363636"/>
</g>
<path fill-rule="evenodd" clip-rule="evenodd" d="M314.036 248.382C322.51 248.382 330.477 251.682 336.469 257.673C342.46 263.665 345.76 271.632 345.76 280.105C345.76 288.58 342.46 296.547 336.469 302.539C330.477 308.53 322.51 311.83 314.036 311.83C305.563 311.83 297.596 308.53 291.604 302.539C285.612 296.547 282.313 288.58 282.313 280.105C282.313 271.632 285.612 263.665 291.604 257.673C297.596 251.682 305.563 248.382 314.036 248.382ZM314.036 312.663C322.733 312.663 330.909 309.277 337.058 303.127C343.207 296.978 346.594 288.802 346.594 280.105C346.594 271.41 343.207 263.234 337.058 257.085C330.909 250.935 322.733 247.549 314.036 247.549C305.34 247.549 297.164 250.935 291.015 257.085C284.866 263.234 281.479 271.41 281.479 280.105C281.479 288.802 284.866 296.978 291.015 303.127C297.164 309.277 305.34 312.663 314.036 312.663Z" fill="#6D6D6D"/>
<path fill-rule="evenodd" clip-rule="evenodd" d="M314.036 281.408C314.753 281.408 315.335 280.826 315.335 280.108V207.723H328.349C329.067 207.723 329.648 207.142 329.648 206.424C329.648 205.707 329.067 205.125 328.349 205.125H314.036C313.318 205.125 312.737 205.707 312.737 206.424V280.108C312.737 280.826 313.318 281.408 314.036 281.408Z" fill="#6D6D6D"/>
<path fill-rule="evenodd" clip-rule="evenodd" d="M322.102 280.104C322.102 284.552 318.497 288.156 314.051 288.156C309.605 288.156 306.001 284.552 306.001 280.104C306.001 275.659 309.605 272.055 314.051 272.055C318.497 272.055 322.102 275.659 322.102 280.104Z" fill="#3D3D3D"/>
<path fill-rule="evenodd" clip-rule="evenodd" d="M314.036 276.68C315.926 276.68 317.463 278.217 317.463 280.106C317.463 281.997 315.926 283.534 314.036 283.534C312.146 283.534 310.609 281.997 310.609 280.106C310.609 278.217 312.146 276.68 314.036 276.68ZM314.036 284.367C316.385 284.367 318.297 282.456 318.297 280.106C318.297 277.758 316.385 275.847 314.036 275.847C311.687 275.847 309.775 277.758 309.775 280.106C309.775 282.456 311.687 284.367 314.036 284.367Z" fill="white"/>
<mask id="mask19_652_5044" style="mask-type:alpha" maskUnits="userSpaceOnUse" x="318" y="203" width="16" height="7">
<path fill-rule="evenodd" clip-rule="evenodd" d="M333.539 203.83H318.711V209.026H333.539V203.83Z" fill="white"/>
</mask>
<g mask="url(#mask19_652_5044)">
<path fill-rule="evenodd" clip-rule="evenodd" d="M321.309 209.026H330.941C332.376 209.026 333.539 207.863 333.539 206.428C333.539 204.993 332.376 203.83 330.941 203.83H321.309C319.874 203.83 318.711 204.993 318.711 206.428C318.711 207.863 319.874 209.026 321.309 209.026Z" fill="#3D3D3D"/>
</g>
<path fill-rule="evenodd" clip-rule="evenodd" d="M261.23 311.501C261.921 311.501 262.497 310.955 262.527 310.258L265.621 238.479C265.948 231.902 271.37 226.744 277.963 226.744H313.966C314.684 226.744 315.266 226.162 315.266 225.445C315.266 224.727 314.684 224.146 313.966 224.146H277.963C269.984 224.146 263.422 230.388 263.025 238.358L259.931 310.145C259.9 310.863 260.456 311.469 261.173 311.499C261.192 311.501 261.211 311.501 261.23 311.501Z" fill="#6D6D6D"/>
<path fill-rule="evenodd" clip-rule="evenodd" d="M312.734 228.044H284.459C283.024 228.044 281.86 226.881 281.86 225.446C281.86 224.011 283.024 222.848 284.459 222.848H312.734V228.044Z" fill="#3D3D3D"/>
<path fill-rule="evenodd" clip-rule="evenodd" d="M265.719 310.202C265.719 312.676 263.714 314.681 261.241 314.681C258.768 314.681 256.763 312.676 256.763 310.202C256.763 307.729 258.768 305.725 261.241 305.725C263.714 305.725 265.719 307.729 265.719 310.202Z" fill="#3D3D3D"/>
<path fill-rule="evenodd" clip-rule="evenodd" d="M261.238 308.407C262.227 308.407 263.032 309.213 263.032 310.202C263.032 311.192 262.227 311.996 261.238 311.996C260.248 311.996 259.443 311.192 259.443 310.202C259.443 309.213 260.248 308.407 261.238 308.407ZM261.238 312.573C262.545 312.573 263.609 311.509 263.609 310.202C263.609 308.894 262.545 307.83 261.238 307.83C259.93 307.83 258.866 308.894 258.866 310.202C258.866 311.509 259.93 312.573 261.238 312.573Z" fill="white"/>
<path fill-rule="evenodd" clip-rule="evenodd" d="M220.878 312.008H243.956C244.591 312.008 245.132 311.55 245.237 310.924L251.129 275.681H261.248C261.965 275.681 262.547 275.1 262.547 274.382C262.547 273.665 261.965 273.083 261.248 273.083H250.03C249.395 273.083 248.853 273.542 248.748 274.169L242.856 309.409H220.878C220.16 309.409 219.579 309.991 219.579 310.708C219.579 311.426 220.16 312.008 220.878 312.008Z" fill="#6D6D6D"/>
</g>
<defs>
<clipPath id="clip0_652_5044">
<rect width="356" height="356" fill="white"/>
</clipPath>
</defs>
</svg>
