<svg width="48" height="49" viewBox="0 0 48 49" fill="none" xmlns="http://www.w3.org/2000/svg">
<g style="mix-blend-mode:multiply">
<path d="M24 48.4277C37.2548 48.4277 48 37.6826 48 24.4277C48 11.1729 37.2548 0.427734 24 0.427734C10.7452 0.427734 0 11.1729 0 24.4277C0 37.6826 10.7452 48.4277 24 48.4277Z" fill="url(#paint0_radial_670_6122)"/>
</g>
<path d="M28.314 16.3138C30.3649 16.3138 32.014 17.9735 32.014 20.0138C32.014 22.0118 30.4283 23.6398 28.4515 23.7138C28.3601 23.7032 28.2679 23.7032 28.1766 23.7138M30.3543 33.2281C31.1155 33.0695 31.8343 32.7629 32.4263 32.3084C34.0755 31.0715 34.0755 29.0312 32.4263 27.7944C31.8449 27.3504 31.1366 27.0544 30.386 26.8852M20.6497 23.5764C20.544 23.5658 20.4172 23.5658 20.3009 23.5764C19.0875 23.5352 17.9378 23.0233 17.0952 22.1492C16.2527 21.275 15.7834 20.1073 15.7869 18.8932C15.7869 16.3032 17.88 14.1995 20.4806 14.1995C21.724 14.1771 22.9255 14.6495 23.8206 15.5129C24.7157 16.3763 25.2312 17.5599 25.2536 18.8034C25.276 20.0468 24.8036 21.2482 23.9402 22.1433C23.0768 23.0385 21.8932 23.5539 20.6497 23.5764ZM15.364 27.4772C12.8057 29.1898 12.8057 31.9806 15.364 33.6826C18.2712 35.6278 23.0389 35.6278 25.946 33.6826C28.5043 31.9701 28.5043 29.1792 25.946 27.4772C23.0495 25.5426 18.2817 25.5426 15.364 27.4772Z" stroke="white" stroke-width="2" stroke-linecap="round" stroke-linejoin="round"/>
<defs>
<radialGradient id="paint0_radial_670_6122" cx="0" cy="0" r="1" gradientUnits="userSpaceOnUse" gradientTransform="translate(34.0253 14.0829) rotate(120.829) scale(49.7947 63.0918)">
<stop stop-color="#2BA3D9"/>
<stop offset="1" stop-color="#3864FF"/>
</radialGradient>
</defs>
</svg>
