<svg width="48" height="49" viewBox="0 0 48 49" fill="none" xmlns="http://www.w3.org/2000/svg">
<g style="mix-blend-mode:multiply">
<path d="M24 48.4277C37.2548 48.4277 48 37.6826 48 24.4277C48 11.1729 37.2548 0.427734 24 0.427734C10.7452 0.427734 0 11.1729 0 24.4277C0 37.6826 10.7452 48.4277 24 48.4277Z" fill="url(#paint0_radial_670_6018)"/>
</g>
<path d="M28.304 20.1191H32.2154C33.0611 20.1191 33.8011 20.7534 34.0125 21.5991C34.3297 23.7134 34.3297 25.8277 34.0125 27.942C33.9068 28.7877 33.1668 29.422 32.2154 29.422H28.304M19.0011 20.1191H15.0897C14.244 20.1191 13.504 20.7534 13.2925 21.5991C12.9754 23.7134 12.9754 25.8277 13.2925 27.942C13.3983 28.7877 14.1383 29.422 15.0897 29.422H19.0011" stroke="white" stroke-width="2" stroke-miterlimit="10" stroke-linecap="round" stroke-linejoin="round"/>
<path d="M28.3047 29.4221L28.3047 33.3336C28.3047 34.1793 27.6704 34.9193 26.8247 35.1307C24.7104 35.4479 22.5961 35.4479 20.4818 35.1307C19.6361 35.025 19.0018 34.285 19.0018 33.3336L19.0018 29.4221M28.3047 20.1193L28.3047 16.2079C28.3047 15.3621 27.6704 14.6221 26.8247 14.4107C24.7104 14.0936 22.5961 14.0936 20.4818 14.4107C19.6361 14.5164 19.0018 15.2564 19.0018 16.2079L19.0018 20.1193" stroke="white" stroke-width="2" stroke-miterlimit="10" stroke-linecap="round" stroke-linejoin="round"/>
<defs>
<radialGradient id="paint0_radial_670_6018" cx="0" cy="0" r="1" gradientUnits="userSpaceOnUse" gradientTransform="translate(34.0181 14.2156) rotate(120.771) scale(49.8793 63.1299)">
<stop stop-color="#EA579B"/>
<stop offset="1" stop-color="#FA46C7"/>
</radialGradient>
</defs>
</svg>
