<svg width="40" height="41" viewBox="0 0 40 41" fill="none" xmlns="http://www.w3.org/2000/svg">
<mask id="path-1-inside-1_604_6492" fill="white">
<path d="M9.18566 31.8243C8.59987 31.2385 8.59987 30.2888 9.18566 29.703L29.6918 9.19692C30.2775 8.61113 31.2273 8.61113 31.8131 9.19692C32.3989 9.7827 32.3989 10.7324 31.8131 11.3182L11.307 31.8243C10.7212 32.4101 9.77145 32.4101 9.18566 31.8243Z"/>
</mask>
<path d="M8.125 30.7637L30.7524 8.13626L8.125 30.7637ZM31.8131 9.19692C33.5704 10.9543 33.5704 13.8035 31.8131 15.5609L15.5496 31.8243C13.7923 33.5817 10.943 33.5817 9.18566 31.8243C8.90436 31.543 8.74632 31.1615 8.74632 30.7637C8.74632 30.3658 8.90436 29.9843 9.18566 29.703V29.703L8.125 30.7637L29.6918 9.19692C29.9731 8.91561 30.3546 8.75758 30.7524 8.75758C31.1502 8.75758 31.5318 8.91561 31.8131 9.19692ZM10.2463 32.885L8.125 30.7637L10.2463 32.885ZM30.7524 8.13626L32.8737 10.2576L30.7524 8.13626Z" fill="#2BA3D9" mask="url(#path-1-inside-1_604_6492)"/>
<mask id="path-3-inside-2_604_6492" fill="white">
<path d="M9.06434 8.82433C9.65013 8.23855 10.5999 8.23855 11.1857 8.82433L31.6918 29.3304C32.2775 29.9162 32.2775 30.866 31.6918 31.4517C31.106 32.0375 30.1562 32.0375 29.5704 31.4517L9.06434 10.9457C8.47855 10.3599 8.47855 9.41012 9.06434 8.82433Z"/>
</mask>
<path d="M10.125 7.76367L32.7524 30.3911L10.125 7.76367ZM31.6918 31.4517C29.9344 33.2091 27.0852 33.2091 25.3278 31.4517L9.06434 15.1883C7.30698 13.4309 7.30698 10.5817 9.06434 8.82433C9.34564 8.54303 9.72718 8.38499 10.125 8.38499C10.5228 8.38499 10.9044 8.54303 11.1857 8.82433V8.82433L10.125 7.76367L31.6918 29.3304C31.9731 29.6117 32.1311 29.9933 32.1311 30.3911C32.1311 30.7889 31.9731 31.1704 31.6918 31.4517ZM8.00368 9.88499L10.125 7.76367L8.00368 9.88499ZM32.7524 30.3911L30.6311 32.5124L32.7524 30.3911Z" fill="#2BA3D9" mask="url(#path-3-inside-2_604_6492)"/>
</svg>
