<svg width="40" height="40" viewBox="0 0 40 40" fill="none" xmlns="http://www.w3.org/2000/svg">
<mask id="path-1-inside-1_720_4083" fill="white">
<path d="M9.18566 31.0607C8.59987 30.4749 8.59987 29.5251 9.18566 28.9393L29.6918 8.43324C30.2775 7.84746 31.2273 7.84746 31.8131 8.43324C32.3989 9.01903 32.3989 9.96878 31.8131 10.5546L11.307 31.0607C10.7212 31.6464 9.77145 31.6464 9.18566 31.0607Z"/>
</mask>
<path d="M8.125 30L30.7524 7.37258L8.125 30ZM31.8131 8.43324C33.5704 10.1906 33.5704 13.0398 31.8131 14.7972L15.5496 31.0607C13.7923 32.818 10.943 32.818 9.18566 31.0607C8.90436 30.7794 8.74632 30.3978 8.74632 30C8.74632 29.6022 8.90436 29.2206 9.18566 28.9393V28.9393L8.125 30L29.6918 8.43324C29.9731 8.15194 30.3546 7.9939 30.7524 7.9939C31.1502 7.9939 31.5318 8.15194 31.8131 8.43324ZM10.2463 32.1213L8.125 30L10.2463 32.1213ZM30.7524 7.37258L32.8737 9.4939L30.7524 7.37258Z" fill="#3864FF" mask="url(#path-1-inside-1_720_4083)"/>
<mask id="path-3-inside-2_720_4083" fill="white">
<path d="M9.06434 8.06066C9.65013 7.47487 10.5999 7.47487 11.1857 8.06066L31.6918 28.5668C32.2775 29.1525 32.2775 30.1023 31.6918 30.6881C31.106 31.2739 30.1562 31.2739 29.5704 30.6881L9.06434 10.182C8.47855 9.59619 8.47855 8.64645 9.06434 8.06066Z"/>
</mask>
<path d="M10.125 7L32.7524 29.6274L10.125 7ZM31.6918 30.6881C29.9344 32.4454 27.0852 32.4454 25.3278 30.6881L9.06434 14.4246C7.30698 12.6673 7.30698 9.81802 9.06434 8.06066C9.34564 7.77936 9.72718 7.62132 10.125 7.62132C10.5228 7.62132 10.9044 7.77936 11.1857 8.06066V8.06066L10.125 7L31.6918 28.5668C31.9731 28.8481 32.1311 29.2296 32.1311 29.6274C32.1311 30.0252 31.9731 30.4068 31.6918 30.6881ZM8.00368 9.12132L10.125 7L8.00368 9.12132ZM32.7524 29.6274L30.6311 31.7487L32.7524 29.6274Z" fill="#3864FF" mask="url(#path-3-inside-2_720_4083)"/>
</svg>
