<svg width="40" height="41" viewBox="0 0 40 41" fill="none" xmlns="http://www.w3.org/2000/svg">
<mask id="path-1-inside-1_609_607" fill="white">
<path d="M4 9.26367C4 8.43524 4.67157 7.76367 5.5 7.76367H34.5C35.3284 7.76367 36 8.43524 36 9.26367C36 10.0921 35.3284 10.7637 34.5 10.7637H5.5C4.67157 10.7637 4 10.0921 4 9.26367Z"/>
</mask>
<path d="M4 7.76367H36H4ZM36 9.26367C36 11.749 33.9853 13.7637 31.5 13.7637H8.5C6.01472 13.7637 4 11.749 4 9.26367C4 8.86585 4.15804 8.48432 4.43934 8.20301C4.72064 7.92171 5.10218 7.76367 5.5 7.76367V7.76367H4H34.5C34.8978 7.76367 35.2794 7.92171 35.5607 8.20301C35.842 8.48432 36 8.86585 36 9.26367ZM4 10.7637V7.76367V10.7637ZM36 7.76367V10.7637V7.76367Z" fill="#03A0E7" mask="url(#path-1-inside-1_609_607)"/>
<mask id="path-3-inside-2_609_607" fill="white">
<path d="M4 20.2637C4 19.4352 4.67157 18.7637 5.5 18.7637H34.5C35.3284 18.7637 36 19.4352 36 20.2637C36 21.0921 35.3284 21.7637 34.5 21.7637H5.5C4.67157 21.7637 4 21.0921 4 20.2637Z"/>
</mask>
<path d="M4 18.7637H36H4ZM36 20.2637C36 22.749 33.9853 24.7637 31.5 24.7637H8.5C6.01472 24.7637 4 22.749 4 20.2637C4 19.8658 4.15804 19.4843 4.43934 19.203C4.72064 18.9217 5.10218 18.7637 5.5 18.7637V18.7637H4H34.5C34.8978 18.7637 35.2794 18.9217 35.5607 19.203C35.842 19.4843 36 19.8658 36 20.2637ZM4 21.7637V18.7637V21.7637ZM36 18.7637V21.7637V18.7637Z" fill="#03A0E7" mask="url(#path-3-inside-2_609_607)"/>
<mask id="path-5-inside-3_609_607" fill="white">
<path d="M4 31.2637C4 30.4352 4.67157 29.7637 5.5 29.7637H34.5C35.3284 29.7637 36 30.4352 36 31.2637C36 32.0921 35.3284 32.7637 34.5 32.7637H5.5C4.67157 32.7637 4 32.0921 4 31.2637Z"/>
</mask>
<path d="M4 29.7637H36H4ZM36 31.2637C36 33.749 33.9853 35.7637 31.5 35.7637H8.5C6.01472 35.7637 4 33.749 4 31.2637C4 30.8658 4.15804 30.4843 4.43934 30.203C4.72064 29.9217 5.10218 29.7637 5.5 29.7637V29.7637H4H34.5C34.8978 29.7637 35.2794 29.9217 35.5607 30.203C35.842 30.4843 36 30.8658 36 31.2637ZM4 32.7637V29.7637V32.7637ZM36 29.7637V32.7637V29.7637Z" fill="#03A0E7" mask="url(#path-5-inside-3_609_607)"/>
</svg>
