<svg width="40" height="40" viewBox="0 0 40 40" fill="none" xmlns="http://www.w3.org/2000/svg">
<mask id="path-1-inside-1_720_4078" fill="white">
<path d="M4 8.5C4 7.67157 4.67157 7 5.5 7H34.5C35.3284 7 36 7.67157 36 8.5C36 9.32843 35.3284 10 34.5 10H5.5C4.67157 10 4 9.32843 4 8.5Z"/>
</mask>
<path d="M4 7H36H4ZM36 8.5C36 10.9853 33.9853 13 31.5 13H8.5C6.01472 13 4 10.9853 4 8.5C4 8.10218 4.15804 7.72064 4.43934 7.43934C4.72064 7.15804 5.10218 7 5.5 7V7H4H34.5C34.8978 7 35.2794 7.15804 35.5607 7.43934C35.842 7.72064 36 8.10218 36 8.5ZM4 10V7V10ZM36 7V10V7Z" fill="#3864FF" mask="url(#path-1-inside-1_720_4078)"/>
<mask id="path-3-inside-2_720_4078" fill="white">
<path d="M4 19.5C4 18.6716 4.67157 18 5.5 18H34.5C35.3284 18 36 18.6716 36 19.5C36 20.3284 35.3284 21 34.5 21H5.5C4.67157 21 4 20.3284 4 19.5Z"/>
</mask>
<path d="M4 18H36H4ZM36 19.5C36 21.9853 33.9853 24 31.5 24H8.5C6.01472 24 4 21.9853 4 19.5C4 19.1022 4.15804 18.7206 4.43934 18.4393C4.72064 18.158 5.10218 18 5.5 18V18H4H34.5C34.8978 18 35.2794 18.158 35.5607 18.4393C35.842 18.7206 36 19.1022 36 19.5ZM4 21V18V21ZM36 18V21V18Z" fill="#3864FF" mask="url(#path-3-inside-2_720_4078)"/>
<mask id="path-5-inside-3_720_4078" fill="white">
<path d="M4 30.5C4 29.6716 4.67157 29 5.5 29H34.5C35.3284 29 36 29.6716 36 30.5C36 31.3284 35.3284 32 34.5 32H5.5C4.67157 32 4 31.3284 4 30.5Z"/>
</mask>
<path d="M4 29H36H4ZM36 30.5C36 32.9853 33.9853 35 31.5 35H8.5C6.01472 35 4 32.9853 4 30.5C4 30.1022 4.15804 29.7206 4.43934 29.4393C4.72064 29.158 5.10218 29 5.5 29V29H4H34.5C34.8978 29 35.2794 29.158 35.5607 29.4393C35.842 29.7206 36 30.1022 36 30.5ZM4 32V29V32ZM36 29V32V29Z" fill="#3864FF" mask="url(#path-5-inside-3_720_4078)"/>
</svg>
