<svg width="28" height="28" viewBox="0 0 28 28" fill="none" xmlns="http://www.w3.org/2000/svg">
<path fill-rule="evenodd" clip-rule="evenodd" d="M27.2622 25.8924C27.2622 26.7278 26.597 27.4056 25.7762 27.4056H18.9147V16.7926H22.4148L22.9392 12.657H18.9147V10.0158C18.9147 8.81844 19.2418 8.00251 20.9288 8.00251L23.0807 8.00176V4.30209C22.7081 4.25208 21.4312 4.13936 19.9452 4.13936C16.8426 4.13936 14.7185 6.06683 14.7185 9.60674V12.657H11.2096V16.7926H14.7185V27.4056H1.82194C1.00119 27.4056 0.335938 26.7278 0.335938 25.8924V1.51316C0.335938 0.677078 1.00119 0 1.82194 0H25.7762C26.597 0 27.2622 0.677078 27.2622 1.51316V25.8924Z" fill="#2BA3D9"/>
</svg>
