<svg width="48" height="29" viewBox="0 0 48 29" fill="none" xmlns="http://www.w3.org/2000/svg">
<g clip-path="url(#clip0_720_4036)">
<path fill-rule="evenodd" clip-rule="evenodd" d="M47.2622 26.326C47.2622 27.1614 46.597 27.8392 45.7762 27.8392H38.9147V17.2262H42.4148L42.9392 13.0905H38.9147V10.4494C38.9147 9.25203 39.2418 8.4361 40.9288 8.4361L43.0807 8.43536V4.73569C42.7081 4.68567 41.4312 4.57295 39.9452 4.57295C36.8426 4.57295 34.7185 6.50042 34.7185 10.0403V13.0905H31.2096V17.2262H34.7185V27.8392H21.8219C21.0012 27.8392 20.3359 27.1614 20.3359 26.326V1.94675C20.3359 1.11067 21.0012 0.433594 21.8219 0.433594H45.7762C46.597 0.433594 47.2622 1.11067 47.2622 1.94675V26.326Z" fill="#3864FF"/>
</g>
<defs>
<clipPath id="clip0_720_4036">
<rect width="27.3171" height="28" fill="white" transform="translate(20.3359 0.433594)"/>
</clipPath>
</defs>
</svg>
