<svg width="28" height="28" viewBox="0 0 28 28" fill="none" xmlns="http://www.w3.org/2000/svg">
<path fill-rule="evenodd" clip-rule="evenodd" d="M24.0384 0H3.54022C1.77476 0 0.34375 1.45269 0.34375 3.24579V24.1232C0.34375 25.9156 1.77476 27.369 3.54022 27.369H24.0384C25.8039 27.369 27.2348 25.9156 27.2348 24.1232V3.24579C27.2348 1.45269 25.8039 0 24.0384 0ZM19.6721 4.27597C19.6721 3.80418 20.0483 3.42122 20.5119 3.42122H23.0328C23.4971 3.42122 23.8734 3.80418 23.8734 4.27597V6.84244C23.8734 7.31423 23.4971 7.69719 23.0328 7.69719H20.5119C20.0483 7.69719 19.6721 7.31423 19.6721 6.84244V4.27597ZM13.8205 8.46534C16.6766 8.46534 18.9921 10.8168 18.9921 13.7162C18.9921 16.6164 16.6766 18.9671 13.8205 18.9671C10.9651 18.9671 8.64954 16.6164 8.64954 13.7162C8.64954 10.8168 10.9651 8.46534 13.8205 8.46534ZM24.7139 23.9478C24.7139 24.4196 24.3377 24.8033 23.8734 24.8033H3.70524C3.24095 24.8033 2.86467 24.4196 2.86467 23.9478V11.1184H6.22616C5.78828 11.7597 5.6401 12.9563 5.6401 13.7162C5.6401 18.296 9.31038 22.0226 13.8205 22.0226C18.3313 22.0226 22.0015 18.296 22.0015 13.7162C22.0015 12.9563 21.8952 11.7783 21.3525 11.1184H24.7139V23.9478Z" fill="#2BA3D9"/>
</svg>
