<svg width="225" height="29" viewBox="0 0 225 29" fill="none" xmlns="http://www.w3.org/2000/svg">
<g clip-path="url(#clip0_720_4044)">
<path fill-rule="evenodd" clip-rule="evenodd" d="M220.117 0.433594H199.618C197.853 0.433594 196.422 1.88629 196.422 3.67939V24.5568C196.422 26.3492 197.853 27.8026 199.618 27.8026H220.117C221.882 27.8026 223.313 26.3492 223.313 24.5568V3.67939C223.313 1.88629 221.882 0.433594 220.117 0.433594ZM215.75 4.70956C215.75 4.23777 216.126 3.85482 216.59 3.85482H219.111C219.575 3.85482 219.952 4.23777 219.952 4.70956V7.27604C219.952 7.74783 219.575 8.13078 219.111 8.13078H216.59C216.126 8.13078 215.75 7.74783 215.75 7.27604V4.70956ZM209.899 8.89893C212.755 8.89893 215.07 11.2504 215.07 14.1498C215.07 17.05 212.755 19.4007 209.899 19.4007C207.043 19.4007 204.728 17.05 204.728 14.1498C204.728 11.2504 207.043 8.89893 209.899 8.89893ZM220.792 24.3814C220.792 24.8532 220.416 25.2369 219.952 25.2369H199.783C199.319 25.2369 198.943 24.8532 198.943 24.3814V11.552H202.304C201.866 12.1932 201.718 13.3899 201.718 14.1498C201.718 18.7296 205.389 22.4562 209.899 22.4562C214.409 22.4562 218.08 18.7296 218.08 14.1498C218.08 13.3899 217.973 12.2119 217.431 11.552H220.792V24.3814Z" fill="#3864FF"/>
</g>
<defs>
<clipPath id="clip0_720_4044">
<rect width="27.3171" height="28" fill="white" transform="translate(196.422 0.433594)"/>
</clipPath>
</defs>
</svg>
