<svg width="29" height="26" viewBox="0 0 29 26" fill="none" xmlns="http://www.w3.org/2000/svg">
<g clip-path="url(#clip0_662_7549)">
<path fill-rule="evenodd" clip-rule="evenodd" d="M23.8945 2.55878C22.8373 1.38126 21.3265 0.645508 19.6538 0.645508C16.4476 0.645508 13.8456 3.36072 13.8456 6.70932C13.8456 7.18495 13.8955 7.64595 13.9953 8.09002C9.16638 7.83681 4.88565 5.4256 2.01823 1.75222C1.51764 2.65113 1.2318 3.69396 1.2318 4.80452C1.2318 6.90711 2.25718 8.76343 3.81717 9.8509C2.8659 9.82166 1.96832 9.54613 1.18341 9.09514V9.16902C1.18341 12.1082 3.18652 14.5602 5.84675 15.1151C5.35977 15.2575 4.84557 15.329 4.31549 15.329C3.94118 15.329 3.57595 15.2921 3.22206 15.2213C3.9616 17.6294 6.10614 19.3834 8.64917 19.4303C6.66117 21.0573 4.15444 22.027 1.43295 22.027C0.964124 22.027 0.500582 21.9993 0.046875 21.9439C2.61788 23.6617 5.67359 24.666 8.95389 24.666C19.6425 24.666 25.4855 15.4275 25.4855 7.41352C25.4855 7.14954 25.4809 6.88633 25.4711 6.62774C26.6061 5.7727 27.5922 4.70524 28.368 3.48924C27.3275 3.97102 26.2069 4.29734 25.0318 4.44357C26.2318 3.69396 27.1528 2.50567 27.5869 1.08958C26.4632 1.78377 25.2216 2.28864 23.8945 2.55878Z" fill="#2BA3D9"/>
</g>
<defs>
<clipPath id="clip0_662_7549">
<rect width="28.867" height="24.6426" fill="white" transform="translate(0.046875 0.645508)"/>
</clipPath>
</defs>
</svg>
