<svg width="137" height="29" viewBox="0 0 137 29" fill="none" xmlns="http://www.w3.org/2000/svg">
<g clip-path="url(#clip0_720_4040)">
<path fill-rule="evenodd" clip-rule="evenodd" d="M131.178 4.33823C130.153 3.19608 128.687 2.48242 127.065 2.48242C123.955 2.48242 121.431 5.11608 121.431 8.36412C121.431 8.82545 121.48 9.27261 121.576 9.70334C116.892 9.45774 112.74 7.11895 109.959 3.55589C109.473 4.42781 109.196 5.43932 109.196 6.51652C109.196 8.55597 110.191 10.3565 111.704 11.4113C110.781 11.383 109.911 11.1157 109.149 10.6783V10.7499C109.149 13.6008 111.092 15.9792 113.673 16.5174C113.2 16.6555 112.701 16.7249 112.187 16.7249C111.824 16.7249 111.47 16.6891 111.127 16.6204C111.844 18.9562 113.924 20.6575 116.391 20.7031C114.463 22.2812 112.031 23.2218 109.391 23.2218C108.937 23.2218 108.487 23.1949 108.047 23.1411C110.541 24.8073 113.505 25.7815 116.686 25.7815C127.054 25.7815 132.721 16.8205 132.721 9.04717C132.721 8.79112 132.717 8.53581 132.707 8.28499C133.808 7.45562 134.765 6.42022 135.517 5.24075C134.508 5.70806 133.421 6.02458 132.281 6.16641C133.445 5.43932 134.339 4.28672 134.76 2.91315C133.67 3.5865 132.465 4.07621 131.178 4.33823Z" fill="#3864FF"/>
</g>
<defs>
<clipPath id="clip0_720_4040">
<rect width="28" height="23.9024" fill="white" transform="translate(108.047 2.48242)"/>
</clipPath>
</defs>
</svg>
