<svg width="181" height="54" viewBox="0 0 181 54" fill="none" xmlns="http://www.w3.org/2000/svg">
<path d="M72.7725 24.6731H70.1173L70.1066 34.1055H68.8326L68.8433 24.6731H66.8305V23.3991H68.8433L68.8326 20.0373H70.1066L70.1173 23.3991H72.7725V24.6731ZM75.1231 34.1055V23.3991H76.3971V24.9836C76.7826 24.4055 77.2858 23.9487 77.9067 23.6132C78.5348 23.2706 79.22 23.0993 79.9624 23.0993C80.3763 23.0993 80.776 23.1528 81.1615 23.2599L80.6369 24.5125C80.3299 24.4269 80.0337 24.3841 79.7482 24.3841C79.1344 24.3841 78.5741 24.534 78.0673 24.8337C77.5606 25.1335 77.1537 25.5368 76.8468 26.0436C76.547 26.5503 76.3971 27.1106 76.3971 27.7245V34.1055H75.1231ZM91.3397 23.3991H92.6138V34.1055H91.3397L91.2969 31.9856C90.94 32.6994 90.4297 33.2775 89.7659 33.72C89.1092 34.1626 88.3241 34.3838 87.4105 34.3838C86.6254 34.3838 85.8902 34.2375 85.205 33.9449C84.5269 33.6451 83.9273 33.2383 83.4063 32.7243C82.8853 32.2033 82.4784 31.6002 82.1858 30.915C81.8931 30.2298 81.7468 29.4946 81.7468 28.7094C81.7468 27.9386 81.8896 27.2141 82.1751 26.536C82.4677 25.858 82.871 25.262 83.3849 24.7481C83.8988 24.227 84.4912 23.8238 85.1622 23.5383C85.8402 23.2456 86.5647 23.0993 87.3355 23.0993C88.2706 23.0993 89.0771 23.3241 89.7552 23.7738C90.4404 24.2163 90.9793 24.8016 91.3719 25.5296L91.3397 23.3991ZM87.3891 33.1419C88.1885 33.1419 88.8737 32.9456 89.4447 32.553C90.0229 32.1533 90.4654 31.6216 90.7723 30.9578C91.0792 30.2869 91.2327 29.5517 91.2327 28.7523C91.2327 27.9314 91.0756 27.1891 90.7616 26.5253C90.4547 25.8544 90.0121 25.3262 89.434 24.9408C88.863 24.5482 88.1814 24.3519 87.3891 24.3519C86.5897 24.3519 85.8581 24.5482 85.1943 24.9408C84.5376 25.3334 84.013 25.8651 83.6204 26.536C83.235 27.207 83.0423 27.9457 83.0423 28.7523C83.0423 29.5731 83.2421 30.3154 83.6418 30.9792C84.0415 31.643 84.5697 32.1712 85.2264 32.5637C85.8902 32.9492 86.6111 33.1419 87.3891 33.1419ZM104.415 27.5103V34.1055H103.141V27.7245C103.141 27.1106 102.991 26.5503 102.692 26.0436C102.392 25.5368 101.989 25.1335 101.482 24.8337C100.975 24.534 100.415 24.3841 99.801 24.3841C99.1871 24.3841 98.6268 24.534 98.1201 24.8337C97.6133 25.1335 97.2065 25.5368 96.8995 26.0436C96.5998 26.5503 96.4499 27.1106 96.4499 27.7245V34.1055H95.1758V23.3991H96.4499V24.9836C96.8353 24.4055 97.3385 23.9487 97.9595 23.6132C98.5876 23.2706 99.2728 23.0993 100.015 23.0993C100.822 23.0993 101.557 23.2991 102.221 23.6989C102.892 24.0914 103.423 24.6232 103.816 25.2941C104.216 25.9579 104.415 26.6966 104.415 27.5103ZM110.159 34.2982C109.596 34.2696 109.053 34.159 108.532 33.9663C108.011 33.7736 107.547 33.513 107.14 33.1847C106.74 32.8493 106.437 32.4567 106.23 32.007L108.339 31.097C108.432 31.2611 108.578 31.4253 108.778 31.5895C108.985 31.7536 109.228 31.8928 109.506 32.007C109.792 32.1212 110.099 32.1783 110.427 32.1783C110.713 32.1783 110.984 32.1391 111.241 32.0605C111.505 31.9749 111.719 31.8464 111.883 31.6751C112.047 31.5038 112.129 31.2897 112.129 31.0327C112.129 30.7544 112.033 30.5402 111.84 30.3904C111.648 30.2333 111.408 30.1156 111.123 30.037C110.837 29.9514 110.559 29.8729 110.288 29.8015C109.596 29.6587 108.96 29.4482 108.382 29.1698C107.804 28.8843 107.336 28.5203 106.98 28.0778C106.63 27.6281 106.455 27.0856 106.455 26.4504C106.455 25.7509 106.641 25.1478 107.012 24.641C107.39 24.1271 107.879 23.731 108.479 23.4526C109.085 23.1742 109.738 23.0351 110.438 23.0351C111.287 23.0351 112.069 23.2135 112.782 23.5704C113.496 23.9273 114.053 24.4233 114.453 25.0586L112.472 26.2363C112.372 26.0507 112.226 25.883 112.033 25.7331C111.847 25.576 111.633 25.4476 111.391 25.3476C111.148 25.2477 110.898 25.1906 110.641 25.1763C110.306 25.1621 109.999 25.1977 109.72 25.2834C109.442 25.3619 109.217 25.494 109.046 25.6795C108.882 25.858 108.8 26.0935 108.8 26.3862C108.8 26.6645 108.907 26.8751 109.121 27.0178C109.335 27.1535 109.599 27.2605 109.913 27.339C110.227 27.4175 110.538 27.5068 110.845 27.6067C111.473 27.8065 112.062 28.0564 112.611 28.3561C113.168 28.6488 113.614 29.0128 113.949 29.4482C114.292 29.8764 114.456 30.3939 114.442 31.0006C114.442 31.6858 114.235 32.2854 113.821 32.7993C113.414 33.3132 112.882 33.7058 112.226 33.977C111.576 34.2411 110.887 34.3481 110.159 34.2982ZM124.673 23.3991H127.178V34.1055H124.673L124.566 32.7136C124.266 33.2133 123.866 33.6165 123.366 33.9235C122.867 34.2304 122.281 34.3838 121.611 34.3838C120.811 34.3838 120.065 34.2339 119.373 33.9342C118.688 33.6344 118.081 33.224 117.553 32.7029C117.032 32.1747 116.621 31.5645 116.322 30.8721C116.029 30.1798 115.883 29.4375 115.883 28.6452C115.883 27.8743 116.022 27.157 116.3 26.4932C116.586 25.8223 116.982 25.2334 117.489 24.7267C117.995 24.2128 118.581 23.8131 119.244 23.5276C119.915 23.242 120.633 23.0993 121.396 23.0993C122.124 23.0993 122.774 23.2635 123.345 23.5918C123.916 23.913 124.398 24.327 124.79 24.8337L124.673 23.3991ZM121.546 31.9749C122.124 31.9749 122.631 31.8321 123.067 31.5466C123.509 31.254 123.855 30.865 124.105 30.3796C124.355 29.8871 124.48 29.3447 124.48 28.7523C124.48 28.1527 124.355 27.6103 124.105 27.1249C123.855 26.6324 123.509 26.2434 123.067 25.9579C122.624 25.6653 122.117 25.5189 121.546 25.5189C120.968 25.5189 120.444 25.6653 119.972 25.9579C119.501 26.2434 119.127 26.6324 118.848 27.1249C118.577 27.6103 118.441 28.1527 118.441 28.7523C118.441 29.3518 118.581 29.8979 118.859 30.3904C119.145 30.8757 119.523 31.2611 119.994 31.5466C120.465 31.8321 120.982 31.9749 121.546 31.9749ZM129.813 34.1055V18.0459H132.308V34.1055H129.813ZM134.874 30.1334V23.3991H137.369V29.4803C137.369 29.9228 137.476 30.3225 137.69 30.6794C137.904 31.0363 138.193 31.3218 138.557 31.5359C138.921 31.7501 139.317 31.8571 139.745 31.8571C140.188 31.8571 140.588 31.7501 140.944 31.5359C141.301 31.3218 141.587 31.0363 141.801 30.6794C142.015 30.3225 142.122 29.9228 142.122 29.4803V23.3991H144.617L144.627 34.1055H142.133L142.122 33.0777C141.758 33.4774 141.316 33.795 140.795 34.0305C140.274 34.2661 139.717 34.3838 139.124 34.3838C138.346 34.3838 137.633 34.1947 136.983 33.8164C136.341 33.431 135.827 32.9171 135.441 32.2747C135.063 31.6323 134.874 30.9185 134.874 30.1334ZM155.191 18.0459H157.686V34.1055H155.191V32.6922C154.842 33.199 154.399 33.6094 153.864 33.9235C153.336 34.2304 152.718 34.3838 152.012 34.3838C151.234 34.3838 150.505 34.2375 149.827 33.9449C149.149 33.6522 148.55 33.249 148.029 32.7351C147.515 32.214 147.112 31.6144 146.819 30.9364C146.526 30.2583 146.38 29.5303 146.38 28.7523C146.38 27.9743 146.526 27.2462 146.819 26.5682C147.112 25.8901 147.515 25.2941 148.029 24.7802C148.55 24.2592 149.149 23.8523 149.827 23.5597C150.505 23.267 151.234 23.1207 152.012 23.1207C152.718 23.1207 153.336 23.2742 153.864 23.5811C154.399 23.888 154.842 24.2948 155.191 24.8016V18.0459ZM152.044 31.9749C152.622 31.9749 153.129 31.8321 153.564 31.5466C154.006 31.254 154.353 30.865 154.602 30.3796C154.852 29.8871 154.977 29.3447 154.977 28.7523C154.977 28.1527 154.852 27.6103 154.602 27.1249C154.353 26.6324 154.006 26.2434 153.564 25.9579C153.121 25.6653 152.615 25.5189 152.044 25.5189C151.465 25.5189 150.941 25.6653 150.47 25.9579C150.006 26.2434 149.635 26.6324 149.356 27.1249C149.078 27.6103 148.939 28.1527 148.939 28.7523C148.939 29.3518 149.078 29.8979 149.356 30.3904C149.642 30.8757 150.02 31.2611 150.491 31.5466C150.962 31.8321 151.48 31.9749 152.044 31.9749ZM165.398 34.3838C164.413 34.3838 163.514 34.1305 162.7 33.6237C161.893 33.1169 161.248 32.4388 160.762 31.5895C160.284 30.733 160.045 29.7872 160.045 28.7523C160.045 27.9671 160.184 27.2355 160.462 26.5575C160.741 25.8723 161.123 25.2727 161.608 24.7588C162.1 24.2377 162.671 23.8309 163.321 23.5383C163.971 23.2456 164.663 23.0993 165.398 23.0993C166.183 23.0993 166.904 23.2528 167.561 23.5597C168.225 23.8666 168.796 24.2984 169.274 24.8551C169.759 25.4047 170.127 26.0543 170.377 26.8037C170.626 27.5532 170.741 28.3704 170.719 29.2555H161.383C161.469 29.9906 161.694 30.6473 162.058 31.2254C162.429 31.8036 162.903 32.2604 163.482 32.5959C164.06 32.9313 164.699 33.1026 165.398 33.1098C166.162 33.1098 166.851 32.9099 167.464 32.5102C168.078 32.1034 168.571 31.5502 168.942 30.8507L170.237 31.1505C169.809 32.0998 169.163 32.8778 168.299 33.4845C167.436 34.0841 166.469 34.3838 165.398 34.3838ZM161.351 28.1955H169.434C169.384 27.4889 169.174 26.8394 168.803 26.247C168.432 25.6474 167.95 25.1692 167.357 24.8123C166.765 24.4554 166.112 24.277 165.398 24.277C164.684 24.277 164.035 24.4519 163.449 24.8016C162.864 25.1514 162.386 25.6224 162.015 26.2149C161.644 26.8073 161.422 27.4675 161.351 28.1955ZM176.354 34.3089C175.762 34.3018 175.184 34.1983 174.62 33.9984C174.056 33.7914 173.563 33.5166 173.142 33.174C172.728 32.8314 172.436 32.4424 172.264 32.007L173.378 31.5252C173.499 31.8321 173.724 32.1105 174.052 32.3603C174.388 32.603 174.77 32.7993 175.198 32.9492C175.626 33.0919 176.044 33.1633 176.451 33.1633C176.914 33.1633 177.35 33.0848 177.757 32.9278C178.164 32.7707 178.492 32.5495 178.742 32.264C178.999 31.9713 179.127 31.6287 179.127 31.2362C179.127 30.8222 178.992 30.4974 178.72 30.2619C178.449 30.0192 178.103 29.8265 177.682 29.6837C177.268 29.5338 176.84 29.3947 176.397 29.2662C175.626 29.0449 174.952 28.8129 174.373 28.5703C173.795 28.3276 173.346 28.0171 173.024 27.6388C172.71 27.2605 172.553 26.768 172.553 26.1613C172.553 25.5261 172.735 24.9765 173.099 24.5125C173.471 24.0415 173.952 23.6774 174.545 23.4205C175.137 23.1635 175.772 23.0351 176.451 23.0351C177.328 23.0351 178.124 23.2278 178.838 23.6132C179.559 23.9915 180.069 24.4947 180.369 25.1228L179.331 25.7331C179.195 25.419 178.977 25.1478 178.677 24.9194C178.385 24.691 178.049 24.5161 177.671 24.3948C177.293 24.2663 176.907 24.1985 176.515 24.1913C176.029 24.1842 175.576 24.2592 175.155 24.4162C174.741 24.5661 174.406 24.7873 174.149 25.08C173.899 25.3726 173.774 25.7259 173.774 26.1399C173.774 26.5539 173.892 26.8715 174.127 27.0928C174.37 27.314 174.702 27.4925 175.123 27.6281C175.551 27.7637 176.04 27.9172 176.59 28.0885C177.246 28.3026 177.86 28.5381 178.431 28.7951C179.009 29.0521 179.473 29.3732 179.823 29.7587C180.173 30.137 180.348 30.6259 180.348 31.2254C180.348 31.8607 180.155 32.4139 179.77 32.8849C179.391 33.3489 178.899 33.7058 178.292 33.9556C177.692 34.2054 177.047 34.3232 176.354 34.3089Z" fill="#363636"/>
<g style="mix-blend-mode:multiply">
<path d="M8.65625 19.9379C8.65625 19.1513 9.29391 18.5137 10.0805 18.5137H33.5932C34.3798 18.5137 35.0174 19.1513 35.0174 19.9379V43.6608C35.0174 43.9979 34.7441 44.2712 34.407 44.2712H11.6284C11.4083 44.2712 11.2053 44.3896 11.097 44.5812L9.79804 46.8794C9.48929 47.4256 8.65625 47.2065 8.65625 46.579V19.9379Z" fill="url(#paint0_radial_604_6491)"/>
</g>
<g style="mix-blend-mode:multiply">
<path d="M33.5914 -6.22566e-08C34.378 -2.78732e-08 35.0156 0.637665 35.0156 1.42426L35.0156 30.3701C35.0156 31.1567 34.378 31.7944 33.5914 31.7944L5.84393 31.7944C5.50682 31.7944 5.23353 31.5211 5.23353 31.184L5.23353 3.56077C5.23353 3.3488 5.12357 3.15201 4.94304 3.04092L1.8382 1.13025C1.31402 0.807678 1.54263 -1.46315e-06 2.15811 -1.43625e-06L33.5914 -6.22566e-08Z" fill="url(#paint1_radial_604_6491)"/>
</g>
<g style="mix-blend-mode:multiply">
<path d="M23.1586 5.4375C22.372 5.4375 21.7344 6.07517 21.7344 6.86176L21.7344 30.3707C21.7344 31.1572 22.3719 31.7948 23.1584 31.795L45.8753 31.7986C46.2124 31.7986 46.4858 31.5253 46.4858 31.1882L46.4857 8.39544C46.4857 8.18088 46.5984 7.98208 46.7824 7.87181L48.9529 6.57152C49.4841 6.25325 49.2585 5.4375 48.6392 5.4375L23.1586 5.4375Z" fill="url(#paint2_radial_604_6491)"/>
</g>
<g style="mix-blend-mode:multiply">
<path d="M53.3281 19.9379C53.3281 19.1513 52.6905 18.5137 51.9039 18.5137L23.1592 18.5137C22.3726 18.5137 21.735 19.1513 21.735 19.9379L21.735 47.6854C21.735 48.0225 22.0082 48.2958 22.3454 48.2958L49.7866 48.2958C49.9992 48.2958 50.1964 48.4064 50.3073 48.5877L52.197 51.6779C52.5185 52.2038 53.3281 51.9759 53.3281 51.3595L53.3281 19.9379Z" fill="url(#paint3_radial_604_6491)"/>
</g>
<path fill-rule="evenodd" clip-rule="evenodd" d="M35.0075 5.43262L35.0075 18.508L46.4769 18.508L46.4769 31.1828C46.4769 31.5199 46.2035 31.7932 45.8664 31.7932L35.0075 31.7915L35.0075 43.6551C35.0075 43.9922 34.7343 44.2655 34.3971 44.2655L21.7245 44.2655L21.7245 31.7896L8.64844 31.7896L8.64844 19.9329C8.64844 19.1463 9.2861 18.5086 10.0727 18.5086L21.7255 18.5086L21.7255 6.85688C21.7255 6.07028 22.3632 5.43262 23.1498 5.43262L35.0075 5.43262Z" fill="white"/>
<defs>
<radialGradient id="paint0_radial_604_6491" cx="0" cy="0" r="1" gradientUnits="userSpaceOnUse" gradientTransform="translate(27.3427 27.1579) rotate(117.374) scale(30.4808 35.833)">
<stop stop-color="#825DA3"/>
<stop offset="1" stop-color="#CEB2E8"/>
</radialGradient>
<radialGradient id="paint1_radial_604_6491" cx="0" cy="0" r="1" gradientUnits="userSpaceOnUse" gradientTransform="translate(25.0547 22.5378) rotate(-151.545) scale(35.4765 42.7885)">
<stop stop-color="#2BA3D9"/>
<stop offset="1" stop-color="#9EDCF8"/>
</radialGradient>
<radialGradient id="paint2_radial_604_6491" cx="0" cy="0" r="1" gradientUnits="userSpaceOnUse" gradientTransform="translate(30.0965 24.12) rotate(-28.3332) scale(29.5298 35.5173)">
<stop stop-color="#EA579B"/>
<stop offset="1" stop-color="#F5A8B8"/>
</radialGradient>
<radialGradient id="paint3_radial_604_6491" cx="0" cy="0" r="1" gradientUnits="userSpaceOnUse" gradientTransform="translate(30.933 28.4746) rotate(61.6973) scale(35.4256 42.5787)">
<stop stop-color="#FDCD4C"/>
<stop offset="1" stop-color="#F9EED1"/>
</radialGradient>
</defs>
</svg>
