<svg width="140" height="141" viewBox="0 0 140 141" fill="none" xmlns="http://www.w3.org/2000/svg">
<g style="mix-blend-mode:multiply">
<path d="M24.4375 58.1717C24.4375 56.2793 25.9716 54.7452 27.864 54.7452L85.1357 54.7452C87.0281 54.7452 88.5622 56.2793 88.5622 58.1717L88.5622 115.977C88.5622 116.788 87.9047 117.445 87.0937 117.445L31.6581 117.445C31.1285 117.445 30.64 117.73 30.3795 118.191L27.1846 123.848C26.4421 125.162 24.4375 124.635 24.4375 123.126L24.4375 58.1717Z" fill="url(#paint0_radial_587_8099)"/>
</g>
<g style="mix-blend-mode:multiply">
<path d="M85.1282 9.67969C87.0206 9.67969 88.5547 11.2138 88.5547 13.1062L88.5547 83.6484C88.5547 85.5408 87.0206 87.0749 85.1282 87.0749L17.5769 87.0749C16.7659 87.0749 16.1084 86.4175 16.1084 85.6064L16.1084 18.3375C16.1084 17.8277 15.8441 17.3544 15.41 17.087L7.79657 12.3986C6.53594 11.6223 7.08611 9.67968 8.5666 9.67968L85.1282 9.67969Z" fill="url(#paint1_radial_587_8099)"/>
</g>
<g style="mix-blend-mode:multiply">
<path d="M59.6765 22.9152C57.7841 22.9152 56.25 24.4493 56.25 26.3417L56.25 83.6491C56.25 85.5413 57.7838 87.0753 59.676 87.0756L114.99 87.0844C115.801 87.0845 116.459 86.427 116.459 85.6159L116.459 30.1054C116.459 29.5893 116.73 29.1112 117.172 28.8459L122.514 25.6432C123.792 24.8772 123.249 22.9152 121.759 22.9152L59.6765 22.9152Z" fill="url(#paint2_radial_587_8099)"/>
</g>
<g style="mix-blend-mode:multiply">
<path d="M133.102 58.1717C133.102 56.2793 131.567 54.7452 129.675 54.7452L59.6763 54.7452C57.7839 54.7452 56.2498 56.2793 56.2498 58.1717L56.2498 125.773C56.2498 126.584 56.9073 127.242 57.7183 127.242L124.495 127.242C125.007 127.242 125.482 127.508 125.749 127.945L130.38 135.524C131.153 136.79 133.102 136.241 133.102 134.758L133.102 58.1717Z" fill="url(#paint3_radial_587_8099)"/>
</g>
<path fill-rule="evenodd" clip-rule="evenodd" d="M88.5711 22.9059L88.5711 54.7363L116.474 54.7363L116.474 85.6069C116.474 86.418 115.816 87.0756 115.005 87.0754L88.5696 87.0712L88.5696 115.968C88.5696 116.779 87.9122 117.436 87.1011 117.436L56.266 117.436L56.266 87.066L24.4297 87.066L24.4297 58.1626C24.4297 56.2702 25.9638 54.7361 27.8562 54.7361L56.2649 54.7361L56.2649 26.3325C56.2649 24.44 57.799 22.9059 59.6915 22.9059L88.5711 22.9059Z" fill="white"/>
<defs>
<radialGradient id="paint0_radial_587_8099" cx="0" cy="0" r="1" gradientUnits="userSpaceOnUse" gradientTransform="translate(69.893 75.7873) rotate(117.357) scale(74.1867 87.1782)">
<stop stop-color="#825DA3"/>
<stop offset="1" stop-color="#CEB2E8"/>
</radialGradient>
<radialGradient id="paint1_radial_587_8099" cx="0" cy="0" r="1" gradientUnits="userSpaceOnUse" gradientTransform="translate(64.3243 64.5421) rotate(-151.528) scale(86.3118 104.141)">
<stop stop-color="#2BA3D9"/>
<stop offset="1" stop-color="#9EDCF8"/>
</radialGradient>
<radialGradient id="paint2_radial_587_8099" cx="0" cy="0" r="1" gradientUnits="userSpaceOnUse" gradientTransform="translate(76.5913 68.3928) rotate(-28.3499) scale(71.8439 86.444)">
<stop stop-color="#EA579B"/>
<stop offset="1" stop-color="#F5A8B8"/>
</radialGradient>
<radialGradient id="paint3_radial_587_8099" cx="0" cy="0" r="1" gradientUnits="userSpaceOnUse" gradientTransform="translate(78.6244 78.9924) rotate(61.714) scale(86.221 103.591)">
<stop stop-color="#FDCD4C"/>
<stop offset="1" stop-color="#F9EED1"/>
</radialGradient>
</defs>
</svg>
