<svg width="398" height="80" viewBox="0 0 398 80" fill="none" xmlns="http://www.w3.org/2000/svg">
<g clip-path="url(#clip0_660_25199)">
<path d="M62.3135 0V15.7758H47.9168V79.2162H30.8511V15.7758H16.375V0H62.3135Z" fill="#CE0E2D"/>
<path d="M79.1838 53.9648L76.8026 54.7288C72.9231 55.9691 68.9345 56.743 64.8963 57.0406L60.5703 57.1498L76.2469 79.1565H97.3013L79.1838 53.9648Z" fill="#CE0E2D"/>
<path d="M27.5664 68.5502L22.4963 68.2525L21.6827 63.6885L19.1526 68.064L13.8047 67.7465L17.5056 70.9215L14.9656 75.4558L19.8074 72.9257L24.5898 76.0114L23.1114 71.4077L27.5664 68.5502Z" fill="#FFCD00"/>
<path d="M13.1962 52.8534L8.46348 52.5756L7.69949 48.458L5.34799 52.397L0.367188 52.1093L3.82994 54.9767L0.773986 59.005L5.97307 56.7825L9.72356 59.5209L9.04887 55.4132L13.1962 52.8534Z" fill="#FFCD00"/>
<path d="M11.5668 35.7886L7.30042 35.5405L6.60589 32.0381L4.50244 35.3818L0.0078125 35.1238L3.13322 37.5745L0.394767 41.0075L5.06799 39.1223L8.46129 41.4738L7.83621 37.9714L11.5668 35.7886Z" fill="#FFCD00"/>
<path d="M19.5374 22.5822L15.8266 22.3639L15.2015 19.5957L13.3858 22.225L9.47656 21.9968L12.2051 23.9514L9.84367 26.6402L13.9017 25.1817L16.8585 27.047L16.3028 24.2788L19.5374 22.5822Z" fill="#FFCD00"/>
<path d="M92.6766 16.3713C91.2082 13.0078 89.1146 10.1205 86.3762 7.6996C83.6377 5.27866 80.3238 3.38359 76.3947 2.09374C70.0348 0.000230968 63.9626 0.109371 63.9626 0.109371C63.9626 5.36796 63.9923 10.5571 63.9626 15.8554C66.7308 16.1332 69.6875 16.8773 72.3466 18.9113C74.9957 20.9552 76.3253 23.9318 76.3253 27.8608V28.089C76.3253 31.4922 75.0553 34.3398 72.5252 36.6417C69.9852 38.9436 66.4232 40.0945 61.8294 40.0945L49.4766 40.1143C49.5063 45.3233 49.4766 50.4232 49.4766 55.6123H61.234C65.9073 55.6123 70.2828 55.0269 74.3707 53.8561C78.4486 52.6853 82.0205 50.9292 85.0665 48.5876C88.1125 46.246 90.5136 43.3389 92.2599 39.8663C93.9962 36.3936 94.8693 32.3554 94.8693 27.7418V27.5136C94.8693 23.4357 94.1351 19.715 92.6667 16.3515L92.6766 16.3713Z" fill="#FFCD00"/>
<path d="M110.461 4.94141H117.793C118.875 4.94141 119.827 5.09023 120.681 5.38789C121.524 5.68555 122.248 6.11219 122.834 6.65789C123.419 7.20359 123.875 7.85843 124.193 8.62242C124.51 9.3864 124.669 10.2298 124.669 11.1525V11.2021C124.669 12.2439 124.481 13.1567 124.104 13.9505C123.727 14.7343 123.211 15.3991 122.556 15.9249C121.901 16.4508 121.127 16.8576 120.244 17.1155C119.361 17.3834 118.418 17.5124 117.406 17.5124H114.41V22.9H110.461V4.94141ZM117.535 13.9901C118.527 13.9901 119.291 13.7322 119.847 13.2063C120.393 12.6805 120.671 12.0355 120.671 11.2716V11.2219C120.671 10.329 120.383 9.65429 119.807 9.19789C119.232 8.73156 118.448 8.50336 117.456 8.50336H114.4V13.9901H117.525H117.535Z" fill="#575756"/>
<path d="M127.367 4.16797H131.267V22.8905H127.367V4.16797Z" fill="#575756"/>
<path d="M138.83 23.1486C138.175 23.1486 137.57 23.0593 136.995 22.8807C136.419 22.7021 135.923 22.4342 135.496 22.077C135.07 21.7198 134.732 21.2833 134.484 20.7574C134.236 20.2316 134.117 19.6362 134.117 18.9516V18.902C134.117 18.148 134.256 17.503 134.524 16.9573C134.802 16.4116 135.179 15.9552 135.665 15.598C136.151 15.2409 136.737 14.973 137.411 14.7944C138.086 14.6158 138.83 14.5265 139.654 14.5265C140.358 14.5265 140.963 14.5761 141.489 14.6753C142.015 14.7745 142.521 14.9134 143.017 15.0821V14.8539C143.017 14.0304 142.769 13.4053 142.273 12.9787C141.777 12.552 141.043 12.3337 140.07 12.3337C139.316 12.3337 138.652 12.3933 138.086 12.5223C137.51 12.6512 136.905 12.8298 136.28 13.0779L135.308 10.1013C136.062 9.77391 136.846 9.51594 137.669 9.30758C138.493 9.09922 139.485 9 140.646 9C141.727 9 142.64 9.12898 143.404 9.39688C144.168 9.66477 144.793 10.0418 145.289 10.5379C145.805 11.0538 146.182 11.6789 146.42 12.423C146.659 13.1672 146.778 14.0006 146.778 14.9234V22.9005H143.007V21.4123C142.531 21.9381 141.955 22.3648 141.291 22.6823C140.626 22.9998 139.812 23.1585 138.85 23.1585L138.83 23.1486ZM140.011 20.4598C140.934 20.4598 141.678 20.2415 142.233 19.795C142.789 19.3485 143.067 18.773 143.067 18.0487V17.3542C142.729 17.2054 142.342 17.0764 141.926 16.9871C141.509 16.8978 141.063 16.8482 140.576 16.8482C139.743 16.8482 139.078 17.0069 138.602 17.3344C138.126 17.6618 137.888 18.1281 137.888 18.7433V18.7929C137.888 19.3187 138.086 19.7355 138.473 20.0232C138.87 20.3109 139.376 20.4598 140.011 20.4598Z" fill="#575756"/>
<path d="M150.109 9.14859H154.009V11.1131C154.227 10.8254 154.475 10.5377 154.743 10.2698C155.011 10.0019 155.299 9.76375 155.626 9.55539C155.953 9.34703 156.311 9.18828 156.707 9.06922C157.104 8.95016 157.541 8.89062 158.037 8.89062C159.525 8.89062 160.676 9.34703 161.49 10.2499C162.303 11.1528 162.71 12.403 162.71 13.9905V22.8904H158.811V15.2406C158.811 14.3179 158.603 13.6234 158.196 13.157C157.789 12.6907 157.204 12.4526 156.449 12.4526C155.695 12.4526 155.1 12.6907 154.664 13.157C154.227 13.6234 154.009 14.3179 154.009 15.2406V22.8904H150.109V9.14859Z" fill="#575756"/>
<path d="M179.433 23.1483C178.629 23.1483 177.855 22.9896 177.101 22.682C176.347 22.3744 175.682 21.918 175.097 21.3128C174.511 20.7076 174.045 19.9634 173.698 19.0804C173.35 18.1973 173.172 17.1853 173.172 16.0443V15.9947C173.172 14.8537 173.35 13.8317 173.698 12.9586C174.045 12.0755 174.511 11.3314 175.087 10.7262C175.662 10.1209 176.317 9.66453 177.071 9.35695C177.825 9.04937 178.609 8.89062 179.433 8.89062C180.474 8.89062 181.338 9.09898 182.012 9.50578C182.687 9.91257 183.253 10.3987 183.719 10.9444V4.17773H187.618V22.9003H183.719V20.9258C183.243 21.5807 182.667 22.1065 181.992 22.5332C181.318 22.9499 180.464 23.1583 179.443 23.1583L179.433 23.1483ZM180.435 19.8344C180.901 19.8344 181.328 19.7451 181.734 19.5665C182.141 19.388 182.489 19.13 182.786 18.7926C183.084 18.4553 183.322 18.0584 183.501 17.5822C183.679 17.1158 183.768 16.5999 183.768 16.0344V15.9848C183.768 15.4192 183.679 14.9033 183.501 14.4369C183.322 13.9706 183.084 13.5638 182.786 13.2364C182.489 12.8991 182.131 12.651 181.734 12.4625C181.328 12.2839 180.901 12.1946 180.435 12.1946C179.968 12.1946 179.542 12.2839 179.135 12.4625C178.728 12.6411 178.381 12.8991 178.073 13.2364C177.766 13.5737 177.518 13.9706 177.339 14.427C177.16 14.8933 177.071 15.4093 177.071 15.9947V16.0443C177.071 16.6098 177.16 17.1258 177.339 17.5921C177.518 18.0584 177.766 18.4652 178.073 18.8026C178.381 19.1399 178.738 19.388 179.135 19.5765C179.532 19.7551 179.968 19.8444 180.435 19.8444V19.8344Z" fill="#575756"/>
<path d="M197.619 23.198C196.597 23.198 195.634 23.0293 194.761 22.682C193.878 22.3447 193.124 21.8486 192.479 21.2235C191.834 20.5885 191.338 19.8444 190.981 18.9812C190.624 18.118 190.445 17.1555 190.445 16.0939V16.0443C190.445 15.0719 190.614 14.1492 190.941 13.2761C191.279 12.403 191.745 11.639 192.34 10.9941C192.936 10.3491 193.65 9.8332 194.484 9.45617C195.317 9.07914 196.23 8.89062 197.242 8.89062C198.383 8.89062 199.375 9.09898 200.218 9.50578C201.052 9.91258 201.756 10.4682 202.312 11.1627C202.868 11.8573 203.274 12.651 203.542 13.544C203.81 14.4369 203.939 15.3795 203.939 16.3519C203.939 16.5106 203.939 16.6694 203.929 16.838C203.929 17.0067 203.909 17.1853 203.89 17.3738H194.325C194.513 18.2668 194.9 18.9316 195.496 19.388C196.081 19.8444 196.815 20.0626 197.688 20.0626C198.333 20.0626 198.919 19.9535 199.435 19.7253C199.951 19.507 200.476 19.1399 201.022 18.6438L203.255 20.6183C202.6 21.4219 201.816 22.047 200.893 22.5034C199.97 22.9598 198.879 23.1781 197.639 23.1781L197.619 23.198ZM200.129 14.943C200.01 14.0698 199.702 13.3654 199.206 12.8296C198.71 12.2938 198.055 12.0259 197.232 12.0259C196.408 12.0259 195.744 12.2938 195.248 12.8197C194.741 13.3455 194.414 14.0599 194.255 14.9529H200.129V14.943Z" fill="#575756"/>
<path d="M214.922 4.94141H223.127C225.399 4.94141 227.146 5.54664 228.356 6.76703C229.378 7.78898 229.894 9.1582 229.894 10.8747V10.9243C229.894 12.3828 229.537 13.5635 228.832 14.4763C228.118 15.3891 227.195 16.0638 226.054 16.4905L230.44 22.9H225.826L221.976 17.1552H218.871V22.9H214.922V4.94141ZM222.869 13.6627C223.842 13.6627 224.596 13.4345 225.112 12.9682C225.638 12.5019 225.896 11.8867 225.896 11.1227V11.0731C225.896 10.2198 225.618 9.57492 225.072 9.14828C224.526 8.72164 223.762 8.50336 222.79 8.50336H218.871V13.6627H222.869Z" fill="#575756"/>
<path d="M239.564 23.198C238.542 23.198 237.58 23.0293 236.707 22.682C235.824 22.3447 235.07 21.8486 234.425 21.2235C233.78 20.5885 233.284 19.8444 232.926 18.9812C232.569 18.118 232.391 17.1555 232.391 16.0939V16.0443C232.391 15.0719 232.559 14.1492 232.887 13.2761C233.224 12.403 233.69 11.639 234.286 10.9941C234.881 10.3491 235.595 9.8332 236.429 9.45617C237.262 9.07914 238.175 8.89062 239.187 8.89062C240.328 8.89062 241.32 9.09898 242.164 9.50578C242.997 9.91258 243.702 10.4682 244.257 11.1627C244.813 11.8573 245.22 12.651 245.488 13.544C245.755 14.4369 245.884 15.3795 245.884 16.3519C245.884 16.5106 245.884 16.6694 245.875 16.838C245.875 17.0067 245.855 17.1853 245.835 17.3738H236.27C236.459 18.2668 236.846 18.9316 237.441 19.388C238.026 19.8444 238.76 20.0626 239.634 20.0626C240.279 20.0626 240.864 19.9535 241.38 19.7253C241.896 19.507 242.422 19.1399 242.967 18.6438L245.2 20.6183C244.545 21.4219 243.761 22.047 242.838 22.5034C241.916 22.9598 240.824 23.1781 239.584 23.1781L239.564 23.198ZM242.074 14.943C241.955 14.0698 241.648 13.3654 241.152 12.8296C240.656 12.2938 240.001 12.0259 239.177 12.0259C238.354 12.0259 237.689 12.2938 237.193 12.8197C236.687 13.3455 236.359 14.0599 236.201 14.9529H242.074V14.943Z" fill="#575756"/>
<path d="M255.263 23.198C254.241 23.198 253.279 23.0094 252.406 22.6324C251.523 22.2554 250.768 21.7494 250.133 21.1044C249.498 20.4595 249.002 19.7154 248.645 18.8522C248.288 17.989 248.109 17.0662 248.109 16.0939V16.0443C248.109 15.0719 248.288 14.1492 248.645 13.2761C249.002 12.403 249.498 11.639 250.133 10.9941C250.768 10.3491 251.523 9.8332 252.406 9.45617C253.289 9.07914 254.251 8.89062 255.313 8.89062C256.612 8.89062 257.684 9.09898 258.547 9.50578C259.41 9.91258 260.155 10.4781 260.809 11.2024L258.428 13.7623C257.982 13.2959 257.525 12.9288 257.059 12.6609C256.593 12.3831 256.007 12.2541 255.303 12.2541C254.807 12.2541 254.36 12.3534 253.953 12.5518C253.547 12.7502 253.199 13.0181 252.902 13.3555C252.604 13.7027 252.376 14.0996 252.207 14.5461C252.048 15.0025 251.959 15.4787 251.959 15.9947V16.0443C251.959 16.5701 252.038 17.0662 252.207 17.5326C252.366 17.9989 252.604 18.3958 252.912 18.743C253.219 19.0804 253.586 19.3582 254.013 19.5467C254.44 19.7451 254.916 19.8444 255.452 19.8444C256.106 19.8444 256.672 19.7154 257.158 19.4475C257.644 19.1796 258.131 18.8323 258.607 18.3859L260.889 20.6976C260.224 21.4319 259.46 22.0371 258.607 22.5034C257.753 22.9698 256.642 23.2079 255.273 23.2079L255.263 23.198Z" fill="#575756"/>
<path d="M267.986 23.1472C266.497 23.1472 265.346 22.6908 264.533 21.7879C263.719 20.885 263.312 19.6349 263.312 18.0474V9.14746H267.212V16.7972C267.212 17.72 267.42 18.4145 267.827 18.8808C268.234 19.3471 268.819 19.5853 269.573 19.5853C270.327 19.5853 270.923 19.3471 271.359 18.8808C271.796 18.4145 272.014 17.72 272.014 16.7972V9.14746H275.913V22.8892H272.014V20.9247C271.796 21.2224 271.548 21.5002 271.28 21.7681C271.012 22.036 270.724 22.2741 270.397 22.4824C270.069 22.6908 269.712 22.8496 269.315 22.9686C268.918 23.0877 268.482 23.1472 267.986 23.1472Z" fill="#575756"/>
<path d="M279.398 9.14859H283.298V11.123C283.774 10.4781 284.349 9.94234 285.034 9.5157C285.709 9.09898 286.562 8.89062 287.584 8.89062C288.388 8.89062 289.162 9.04938 289.916 9.35695C290.67 9.66453 291.335 10.1209 291.92 10.7262C292.505 11.3314 292.972 12.0755 293.319 12.9586C293.666 13.8416 293.845 14.8537 293.845 15.9947V16.0443C293.845 17.1853 293.666 18.2073 293.319 19.0804C292.972 19.9634 292.505 20.7076 291.93 21.3128C291.354 21.918 290.69 22.3744 289.945 22.682C289.191 22.9896 288.408 23.1483 287.584 23.1483C286.542 23.1483 285.679 22.94 285.004 22.5332C284.33 22.1264 283.764 21.6402 283.298 21.0945V26.998H279.398V9.14859ZM286.582 19.8444C287.048 19.8444 287.475 19.7551 287.882 19.5765C288.279 19.3979 288.636 19.1399 288.943 18.8026C289.251 18.4652 289.499 18.0684 289.678 17.6119C289.856 17.1555 289.945 16.6297 289.945 16.0443V15.9947C289.945 15.4291 289.856 14.9132 289.678 14.4469C289.499 13.9805 289.251 13.5737 288.943 13.2463C288.636 12.909 288.279 12.6609 287.882 12.4724C287.485 12.2938 287.048 12.2045 286.582 12.2045C286.116 12.2045 285.689 12.2938 285.282 12.4724C284.885 12.651 284.528 12.909 284.23 13.2463C283.933 13.5837 283.695 13.9805 283.516 14.4469C283.337 14.9132 283.248 15.4391 283.248 15.9947V16.0443C283.248 16.6098 283.337 17.1258 283.516 17.5921C283.695 18.0584 283.933 18.4652 284.23 18.8026C284.528 19.1399 284.885 19.388 285.282 19.5765C285.689 19.7551 286.116 19.8444 286.582 19.8444Z" fill="#575756"/>
<path d="M303.228 23.198C302.206 23.198 301.254 23.0293 300.371 22.682C299.488 22.3447 298.734 21.8486 298.089 21.2235C297.444 20.5885 296.948 19.8444 296.59 18.9812C296.233 18.118 296.055 17.1555 296.055 16.0939V16.0443C296.055 15.0719 296.223 14.1492 296.551 13.2761C296.888 12.403 297.345 11.639 297.95 10.9941C298.545 10.3491 299.259 9.8332 300.093 9.45617C300.926 9.07914 301.839 8.89062 302.851 8.89062C303.992 8.89062 304.984 9.09898 305.828 9.50578C306.661 9.91258 307.366 10.4682 307.921 11.1627C308.477 11.8573 308.884 12.651 309.152 13.544C309.419 14.4369 309.549 15.3795 309.549 16.3519C309.549 16.5106 309.548 16.6694 309.539 16.838C309.539 17.0067 309.519 17.1853 309.499 17.3738H299.934C300.123 18.2668 300.51 18.9316 301.105 19.388C301.7 19.8444 302.425 20.0626 303.298 20.0626C303.953 20.0626 304.528 19.9535 305.044 19.7253C305.56 19.507 306.086 19.1399 306.631 18.6438L308.864 20.6183C308.209 21.4219 307.425 22.047 306.502 22.5034C305.58 22.9598 304.488 23.1781 303.248 23.1781L303.228 23.198ZM305.738 14.943C305.619 14.0698 305.312 13.3654 304.816 12.8296C304.32 12.2938 303.665 12.0259 302.841 12.0259C302.018 12.0259 301.363 12.2938 300.857 12.8197C300.351 13.3455 300.023 14.0599 299.875 14.9529H305.748L305.738 14.943Z" fill="#575756"/>
<path d="M312.438 9.14776H316.337V11.916C316.734 10.9734 317.269 10.2193 317.954 9.6637C318.639 9.09815 319.561 8.84018 320.722 8.88979V12.9677H320.514C319.214 12.9677 318.192 13.3646 317.448 14.1484C316.704 14.9322 316.337 16.1625 316.337 17.8195V22.8995H312.438V9.15768V9.14776Z" fill="#575756"/>
<path d="M327.043 23.1486C326.388 23.1486 325.783 23.0593 325.208 22.8807C324.632 22.7021 324.136 22.4342 323.709 22.077C323.283 21.7198 322.945 21.2833 322.697 20.7574C322.449 20.2316 322.32 19.6362 322.32 18.9516V18.902C322.32 18.148 322.459 17.503 322.727 16.9573C322.995 16.4116 323.382 15.9552 323.868 15.598C324.354 15.2409 324.94 14.973 325.614 14.7944C326.289 14.6158 327.033 14.5265 327.857 14.5265C328.561 14.5265 329.166 14.5761 329.692 14.6753C330.218 14.7745 330.724 14.9134 331.22 15.0821V14.8539C331.22 14.0304 330.972 13.4053 330.476 12.9787C329.98 12.552 329.246 12.3337 328.273 12.3337C327.519 12.3337 326.855 12.3933 326.289 12.5223C325.714 12.6512 325.108 12.8298 324.483 13.0779L323.511 10.1013C324.265 9.77391 325.049 9.51594 325.872 9.30758C326.696 9.09922 327.688 9 328.849 9C329.93 9 330.843 9.12898 331.607 9.39688C332.371 9.66477 332.996 10.0418 333.492 10.5379C334.008 11.0538 334.385 11.6789 334.624 12.423C334.862 13.1672 334.981 14.0006 334.981 14.9234V22.9005H331.21V21.4123C330.734 21.9381 330.159 22.3648 329.494 22.6823C328.829 22.9998 328.016 23.1585 327.053 23.1585L327.043 23.1486ZM328.224 20.4598C329.147 20.4598 329.891 20.2415 330.446 19.795C331.002 19.3485 331.28 18.773 331.28 18.0487V17.3542C330.933 17.2054 330.556 17.0764 330.139 16.9871C329.722 16.8978 329.276 16.8482 328.789 16.8482C327.956 16.8482 327.291 17.0069 326.815 17.3344C326.339 17.6618 326.101 18.1281 326.101 18.7433V18.7929C326.101 19.3187 326.299 19.7355 326.686 20.0232C327.083 20.3109 327.589 20.4598 328.224 20.4598Z" fill="#575756"/>
<path d="M344.826 23.198C343.804 23.198 342.841 23.0094 341.968 22.6324C341.085 22.2554 340.331 21.7494 339.696 21.1044C339.061 20.4595 338.565 19.7154 338.208 18.8522C337.85 17.989 337.672 17.0662 337.672 16.0939V16.0443C337.672 15.0719 337.85 14.1492 338.208 13.2761C338.565 12.403 339.061 11.639 339.696 10.9941C340.331 10.3491 341.085 9.8332 341.968 9.45617C342.851 9.07914 343.814 8.89062 344.875 8.89062C346.175 8.89062 347.247 9.09898 348.11 9.50578C348.963 9.91258 349.717 10.4781 350.362 11.2024L347.981 13.7623C347.534 13.2959 347.078 12.9288 346.612 12.6609C346.145 12.3831 345.56 12.2541 344.855 12.2541C344.359 12.2541 343.913 12.3534 343.506 12.5518C343.099 12.7502 342.752 13.0181 342.454 13.3555C342.157 13.7027 341.928 14.0996 341.76 14.5461C341.601 15.0025 341.512 15.4787 341.512 15.9947V16.0443C341.512 16.5701 341.591 17.0662 341.76 17.5326C341.918 17.9989 342.157 18.3958 342.464 18.743C342.772 19.0804 343.139 19.3582 343.565 19.5467C343.992 19.7451 344.468 19.8444 345.004 19.8444C345.649 19.8444 346.225 19.7154 346.711 19.4475C347.197 19.1796 347.683 18.8323 348.159 18.3859L350.441 20.6976C349.777 21.4319 349.013 22.0371 348.159 22.5034C347.306 22.9698 346.195 23.2079 344.826 23.2079V23.198Z" fill="#575756"/>
<path d="M353.047 4.16797H357.155V7.6307H353.047V4.16797ZM353.146 9.13882H357.045V22.8806H353.146V9.13882Z" fill="#575756"/>
<path d="M367.472 23.1977C366.41 23.1977 365.428 23.0092 364.525 22.6421C363.622 22.275 362.839 21.769 362.184 21.134C361.529 20.489 361.003 19.7449 360.636 18.8718C360.259 18.0086 360.07 17.0858 360.07 16.0937V16.044C360.07 15.0519 360.259 14.1291 360.636 13.2659C361.013 12.4027 361.529 11.6487 362.204 10.9938C362.868 10.3489 363.652 9.83296 364.565 9.45593C365.468 9.0789 366.46 8.89039 367.542 8.89039C368.623 8.89039 369.585 9.0789 370.488 9.44601C371.391 9.81312 372.175 10.3191 372.83 10.9541C373.485 11.5991 374.011 12.3432 374.378 13.2163C374.755 14.0795 374.943 15.0122 374.943 15.9944V16.044C374.943 17.0362 374.755 17.959 374.378 18.8222C374.001 19.6854 373.485 20.4394 372.81 21.0943C372.145 21.7491 371.352 22.2551 370.449 22.6322C369.546 23.0092 368.554 23.1977 367.472 23.1977ZM367.522 19.8342C368.087 19.8342 368.583 19.735 369.02 19.5365C369.456 19.3381 369.824 19.0702 370.131 18.7329C370.439 18.3955 370.677 17.9887 370.836 17.5423C370.994 17.0858 371.084 16.6096 371.084 16.0937V16.044C371.084 15.5281 370.994 15.0519 370.826 14.5955C370.657 14.1391 370.409 13.7422 370.082 13.385C369.754 13.0377 369.377 12.7599 368.931 12.5516C368.484 12.3432 367.998 12.244 367.472 12.244C366.907 12.244 366.41 12.3432 365.974 12.5416C365.537 12.7401 365.17 13.008 364.863 13.3453C364.555 13.6926 364.317 14.0894 364.158 14.5359C363.999 14.9923 363.91 15.4686 363.91 15.9845V16.0341C363.91 16.5501 363.999 17.0263 364.168 17.4827C364.337 17.9391 364.585 18.336 364.912 18.6932C365.24 19.0405 365.617 19.3183 366.053 19.5266C366.49 19.735 366.976 19.8342 367.532 19.8342H367.522ZM368.911 3.08609L372.274 4.54461L368.99 7.62039H366.014L368.911 3.07617V3.08609Z" fill="#575756"/>
<path d="M377.758 9.14859H381.657V11.1131C381.875 10.8254 382.123 10.5377 382.391 10.2698C382.659 10.0019 382.947 9.76375 383.274 9.55539C383.602 9.34703 383.959 9.18828 384.356 9.06922C384.753 8.95016 385.189 8.89062 385.685 8.89062C387.174 8.89062 388.325 9.34703 389.138 10.2499C389.952 11.1528 390.359 12.403 390.359 13.9905V22.8904H386.459V15.2406C386.459 14.3179 386.251 13.6234 385.844 13.157C385.437 12.6907 384.852 12.4526 384.098 12.4526C383.344 12.4526 382.749 12.6907 382.312 13.157C381.875 13.6234 381.657 14.3179 381.657 15.2406V22.8904H377.758V9.14859Z" fill="#575756"/>
<path d="M392.648 25.4299C394.454 25.2414 395.288 24.398 395.149 22.8899H393.571V18.7822H397.699V22.245C397.699 23.9416 397.292 25.1521 396.478 25.8962C395.665 26.6403 394.494 27.0174 392.986 27.0372L392.648 25.42V25.4299Z" fill="#575756"/>
<path d="M114.412 35.5202H108.945V31.8789H123.818V35.5202H118.351V49.8276H114.402V35.5202H114.412Z" fill="#575756"/>
<path d="M126.438 36.0854H130.337V38.8536C130.734 37.911 131.269 37.157 131.954 36.5914C132.639 36.0259 133.561 35.7679 134.722 35.8175V39.8954H134.514C133.214 39.8954 132.192 40.2923 131.448 41.0761C130.704 41.8599 130.337 43.0903 130.337 44.7472V49.8272H126.438V36.0755V36.0854Z" fill="#575756"/>
<path d="M141.049 50.0958C140.394 50.0958 139.789 50.0066 139.213 49.828C138.638 49.6494 138.142 49.3815 137.715 49.0243C137.288 48.6671 136.951 48.2206 136.703 47.7047C136.455 47.1887 136.336 46.5835 136.336 45.8989V45.8493C136.336 45.0952 136.475 44.4503 136.743 43.9046C137.011 43.3589 137.398 42.9025 137.884 42.5453C138.37 42.1881 138.955 41.9202 139.63 41.7416C140.305 41.563 141.049 41.4737 141.872 41.4737C142.577 41.4737 143.182 41.5234 143.708 41.6226C144.234 41.7218 144.74 41.8607 145.236 42.0294V41.8012C145.236 40.9777 144.988 40.3526 144.492 39.9259C143.996 39.4993 143.261 39.281 142.289 39.281C141.535 39.281 140.87 39.3405 140.305 39.4695C139.729 39.5985 139.124 39.7771 138.499 40.0252L137.527 37.0486C138.281 36.7212 139.064 36.4632 139.888 36.2548C140.712 36.0465 141.704 35.9473 142.865 35.9473C143.946 35.9473 144.859 36.0763 145.623 36.3441C146.387 36.612 147.012 36.9891 147.508 37.4852C148.024 38.0011 148.401 38.6262 148.639 39.3703C148.877 40.1144 148.996 40.9479 148.996 41.8706V49.8478H145.226V48.3595C144.75 48.8854 144.174 49.312 143.509 49.6295C142.845 49.947 142.031 50.1058 141.069 50.1058L141.049 50.0958ZM142.23 47.407C143.152 47.407 143.896 47.1887 144.452 46.7423C145.008 46.2958 145.285 45.7203 145.285 44.996V44.3015C144.948 44.1526 144.561 44.0237 144.144 43.9244C143.728 43.8351 143.281 43.7855 142.795 43.7855C141.962 43.7855 141.297 43.9443 140.821 44.2717C140.344 44.5991 140.106 45.0655 140.106 45.6806V45.7302C140.106 46.2561 140.305 46.6728 140.692 46.9605C141.089 47.2483 141.595 47.3971 142.23 47.3971V47.407Z" fill="#575756"/>
<path d="M152.344 36.0871H156.243V38.0516C156.461 37.7639 156.709 37.4761 156.977 37.2082C157.245 36.9403 157.533 36.7022 157.86 36.4939C158.188 36.2855 158.545 36.1268 158.942 36.0077C159.339 35.8886 159.775 35.8291 160.271 35.8291C161.76 35.8291 162.911 36.2855 163.724 37.1884C164.538 38.0913 164.945 39.3414 164.945 40.9289V49.8289H161.045V42.1791C161.045 41.2564 160.837 40.5618 160.43 40.0955C160.023 39.6292 159.438 39.3911 158.684 39.3911C157.93 39.3911 157.334 39.6292 156.898 40.0955C156.461 40.5618 156.243 41.2564 156.243 42.1791V49.8289H152.344V36.0771V36.0871Z" fill="#575756"/>
<path d="M173.144 50.0955C172.171 50.0955 171.169 49.9268 170.157 49.5994C169.135 49.2621 168.173 48.7362 167.25 48.0218L168.917 45.462C169.671 46.0077 170.415 46.4145 171.159 46.6923C171.903 46.9701 172.598 47.0991 173.253 47.0991C173.818 47.0991 174.235 47.0098 174.493 46.8213C174.751 46.6328 174.89 46.3847 174.89 46.0771V46.0275C174.89 45.8192 174.811 45.6406 174.662 45.4917C174.513 45.3429 174.295 45.204 174.037 45.0949C173.779 44.9857 173.471 44.8766 173.124 44.7774C172.777 44.6782 172.419 44.569 172.042 44.44C171.566 44.3011 171.08 44.1325 170.594 43.9439C170.108 43.7455 169.661 43.4875 169.274 43.17C168.877 42.8525 168.56 42.4656 168.312 41.9993C168.064 41.5428 167.945 40.9773 167.945 40.3026V40.253C167.945 39.5486 168.074 38.9334 168.341 38.3976C168.609 37.8618 168.966 37.4054 169.423 37.0284C169.879 36.6514 170.405 36.3736 171.01 36.185C171.616 35.9965 172.27 35.9072 172.975 35.9072C173.848 35.9072 174.731 36.0461 175.634 36.3339C176.527 36.6117 177.36 37.0086 178.105 37.5046L176.616 40.1935C175.932 39.7966 175.267 39.489 174.612 39.2608C173.957 39.0326 173.392 38.9136 172.896 38.9136C172.399 38.9136 172.062 39.0029 171.814 39.1814C171.576 39.36 171.457 39.5882 171.457 39.8561V39.9057C171.457 40.0943 171.536 40.2629 171.685 40.4018C171.834 40.5507 172.042 40.6796 172.3 40.8086C172.558 40.9376 172.856 41.0567 173.183 41.1757C173.521 41.2948 173.868 41.4139 174.245 41.5329C174.721 41.6818 175.207 41.8703 175.703 42.0885C176.2 42.3068 176.646 42.5648 177.033 42.8724C177.43 43.18 177.747 43.557 178.005 44.0035C178.263 44.45 178.392 44.9857 178.392 45.6207V45.6703C178.392 46.4442 178.263 47.0991 177.995 47.6547C177.728 48.2103 177.36 48.6667 176.884 49.0239C176.408 49.3811 175.842 49.649 175.207 49.8276C174.562 50.0062 173.878 50.0955 173.144 50.0955Z" fill="#575756"/>
<path d="M181.852 39.4199H180.234V36.2151H181.852V35.342C181.852 33.8537 182.219 32.7425 182.953 32.0082C183.667 31.2939 184.719 30.9268 186.108 30.9268C186.723 30.9268 187.249 30.9565 187.686 31.026C188.122 31.0954 188.519 31.1847 188.876 31.3038V34.5383C188.589 34.4391 188.301 34.3597 188.033 34.2903C187.755 34.2307 187.448 34.201 187.11 34.201C186.168 34.201 185.701 34.6971 185.701 35.6893V36.225H188.857V39.41H185.751V49.818H181.852V39.41V39.4199Z" fill="#575756"/>
<path d="M197.732 50.1464C196.67 50.1464 195.688 49.9678 194.785 49.5907C193.882 49.2236 193.098 48.7176 192.434 48.0826C191.779 47.4377 191.253 46.6935 190.886 45.8204C190.509 44.9572 190.32 44.0345 190.32 43.0423V42.9927C190.32 42.0005 190.509 41.0778 190.886 40.2046C191.263 39.3414 191.779 38.5874 192.454 37.9325C193.118 37.2876 193.902 36.7717 194.815 36.3946C195.718 36.0176 196.71 35.8291 197.792 35.8291C198.873 35.8291 199.835 36.0176 200.738 36.3847C201.641 36.7518 202.425 37.2578 203.09 37.8928C203.745 38.5378 204.261 39.2918 204.638 40.155C205.015 41.0182 205.203 41.9509 205.203 42.9431V42.9927C205.203 43.9849 205.015 44.9076 204.638 45.7708C204.261 46.634 203.745 47.3881 203.07 48.0429C202.405 48.6978 201.621 49.2038 200.709 49.5808C199.806 49.9578 198.813 50.1464 197.732 50.1464ZM197.782 46.7828C198.347 46.7828 198.843 46.6836 199.28 46.4852C199.716 46.2867 200.083 46.0189 200.391 45.6815C200.699 45.3442 200.937 44.9473 201.096 44.4909C201.254 44.0345 201.344 43.5582 201.344 43.0423V42.9927C201.344 42.4768 201.254 42.0005 201.086 41.5441C200.917 41.0877 200.669 40.6908 200.341 40.3336C200.014 39.9864 199.627 39.7086 199.19 39.5002C198.744 39.2918 198.258 39.1926 197.732 39.1926C197.166 39.1926 196.67 39.2918 196.234 39.4903C195.797 39.6887 195.43 39.9566 195.123 40.2939C194.815 40.6412 194.577 41.0381 194.418 41.4846C194.259 41.941 194.17 42.4172 194.17 42.9332V42.9828C194.17 43.4987 194.259 43.975 194.428 44.4314C194.597 44.8878 194.845 45.2846 195.172 45.6319C195.5 45.9792 195.877 46.257 196.313 46.4653C196.75 46.6737 197.236 46.7729 197.792 46.7729L197.782 46.7828Z" fill="#575756"/>
<path d="M208.016 36.0854H211.915V38.8536C212.312 37.911 212.848 37.157 213.532 36.5914C214.217 36.0259 215.14 35.7679 216.3 35.8175V39.8954H216.092C214.792 39.8954 213.77 40.2923 213.026 41.0761C212.282 41.8599 211.915 43.0903 211.915 44.7472V49.8272H208.016V36.0755V36.0854Z" fill="#575756"/>
<path d="M218.742 36.0871H222.641V38.0516C222.86 37.7639 223.108 37.4761 223.376 37.2082C223.644 36.9403 223.931 36.7022 224.259 36.4939C224.586 36.2855 224.943 36.1268 225.35 36.0077C225.757 35.8886 226.203 35.8291 226.7 35.8291C227.602 35.8291 228.386 36.0176 229.051 36.3946C229.706 36.7717 230.222 37.3174 230.579 38.0218C231.174 37.2975 231.839 36.7518 232.583 36.3847C233.317 36.0176 234.161 35.8291 235.094 35.8291C236.542 35.8291 237.683 36.2557 238.507 37.109C239.33 37.9623 239.737 39.2224 239.737 40.8793V49.8289H235.838V42.1791C235.838 41.2564 235.639 40.5618 235.252 40.0955C234.865 39.6292 234.29 39.3911 233.556 39.3911C232.821 39.3911 232.246 39.6292 231.829 40.0955C231.412 40.5618 231.204 41.2564 231.204 42.1791V49.8289H227.305V42.1791C227.305 41.2564 227.106 40.5618 226.719 40.0955C226.323 39.6292 225.757 39.3911 225.023 39.3911C224.289 39.3911 223.713 39.6292 223.296 40.0955C222.88 40.5618 222.671 41.2564 222.671 42.1791V49.8289H218.772V36.0771L218.742 36.0871Z" fill="#575756"/>
<path d="M247.01 50.0958C246.355 50.0958 245.75 50.0066 245.174 49.828C244.599 49.6494 244.103 49.3815 243.676 49.0243C243.249 48.6671 242.912 48.2206 242.664 47.7047C242.416 47.1887 242.297 46.5835 242.297 45.8989V45.8493C242.297 45.0952 242.436 44.4503 242.704 43.9046C242.972 43.3589 243.359 42.9025 243.845 42.5453C244.331 42.1881 244.916 41.9202 245.591 41.7416C246.266 41.563 247.01 41.4737 247.833 41.4737C248.538 41.4737 249.143 41.5234 249.669 41.6226C250.195 41.7218 250.701 41.8607 251.197 42.0294V41.8012C251.197 40.9777 250.949 40.3526 250.453 39.9259C249.957 39.4993 249.222 39.281 248.25 39.281C247.496 39.281 246.831 39.3405 246.266 39.4695C245.69 39.5985 245.085 39.7771 244.46 40.0252L243.488 37.0486C244.242 36.7212 245.025 36.4632 245.849 36.2548C246.672 36.0465 247.665 35.9473 248.826 35.9473C249.907 35.9473 250.82 36.0763 251.584 36.3441C252.348 36.612 252.973 36.9891 253.469 37.4852C253.985 38.0011 254.362 38.6262 254.6 39.3703C254.838 40.1144 254.957 40.9479 254.957 41.8706V49.8478H251.187V48.3595C250.711 48.8854 250.135 49.312 249.47 49.6295C248.806 49.947 247.992 50.1058 247.03 50.1058L247.01 50.0958ZM248.19 47.407C249.113 47.407 249.857 47.1887 250.413 46.7423C250.969 46.2958 251.246 45.7203 251.246 44.996V44.3015C250.909 44.1526 250.522 44.0237 250.105 43.9244C249.689 43.8351 249.242 43.7855 248.756 43.7855C247.923 43.7855 247.258 43.9443 246.782 44.2717C246.305 44.5991 246.067 45.0655 246.067 45.6806V45.7302C246.067 46.2561 246.266 46.6728 246.653 46.9605C247.049 47.2483 247.555 47.3971 248.19 47.3971V47.407Z" fill="#575756"/>
<path d="M264.779 50.1452C263.757 50.1452 262.794 49.9567 261.921 49.5797C261.038 49.2026 260.284 48.6966 259.649 48.0517C259.014 47.4068 258.518 46.6626 258.161 45.7994C257.804 44.9362 257.625 44.0135 257.625 43.0412V42.9916C257.625 42.0192 257.804 41.0965 258.161 40.2234C258.518 39.3502 259.014 38.5863 259.649 37.9413C260.284 37.2964 261.038 36.7805 261.921 36.4034C262.804 36.0264 263.777 35.8379 264.828 35.8379C266.128 35.8379 267.2 36.0463 268.063 36.453C268.916 36.8598 269.67 37.4254 270.315 38.1497L267.934 40.7195C267.487 40.2531 267.031 39.886 266.565 39.6181C266.098 39.3403 265.513 39.2113 264.808 39.2113C264.312 39.2113 263.866 39.3105 263.459 39.509C263.052 39.7074 262.705 39.9753 262.407 40.3127C262.11 40.6599 261.881 41.0568 261.713 41.5033C261.554 41.9597 261.465 42.4359 261.465 42.9519V43.0015C261.465 43.5273 261.544 44.0234 261.713 44.4898C261.872 44.9561 262.11 45.353 262.417 45.7002C262.725 46.0475 263.092 46.3154 263.519 46.5039C263.945 46.7023 264.422 46.8016 264.957 46.8016C265.602 46.8016 266.178 46.6726 266.664 46.4047C267.15 46.1368 267.636 45.7895 268.112 45.343L270.395 47.6548C269.73 48.3891 268.966 48.9943 268.112 49.4606C267.259 49.9269 266.148 50.1651 264.779 50.1651V50.1452Z" fill="#575756"/>
<path d="M273.008 31.1162H277.115V34.5789H273.008V31.1162ZM273.107 36.0871H277.006V49.8388H273.107V36.0871Z" fill="#575756"/>
<path d="M287.419 50.145C286.358 50.145 285.376 49.9664 284.473 49.5894C283.57 49.2222 282.786 48.7162 282.121 48.0812C281.466 47.4363 280.94 46.6922 280.573 45.819C280.196 44.9558 280.008 44.0331 280.008 43.0409V42.9913C280.008 41.9991 280.196 41.0764 280.573 40.2033C280.95 39.3401 281.466 38.586 282.141 37.9312C282.806 37.2862 283.59 36.7703 284.502 36.3933C285.405 36.0162 286.398 35.8277 287.479 35.8277C288.561 35.8277 289.523 36.0162 290.426 36.3834C291.329 36.7505 292.113 37.2565 292.767 37.8915C293.422 38.5364 293.948 39.2905 294.315 40.1537C294.692 41.0169 294.881 41.9495 294.881 42.9417V42.9913C294.881 43.9835 294.692 44.9062 294.315 45.7694C293.938 46.6326 293.422 47.3867 292.748 48.0415C292.073 48.6964 291.299 49.2024 290.386 49.5794C289.483 49.9565 288.491 50.145 287.41 50.145H287.419ZM287.469 46.7815C288.035 46.7815 288.531 46.6822 288.967 46.4838C289.404 46.2854 289.771 46.0175 290.079 45.6801C290.386 45.3428 290.624 44.9459 290.783 44.4895C290.942 44.0331 291.031 43.5569 291.031 43.0409V42.9913C291.031 42.4754 290.942 41.9991 290.773 41.5427C290.604 41.0863 290.356 40.6894 290.029 40.3323C289.702 39.985 289.315 39.7072 288.878 39.4988C288.432 39.2905 287.945 39.1912 287.419 39.1912C286.854 39.1912 286.358 39.2905 285.921 39.4889C285.485 39.6873 285.118 39.9552 284.81 40.2926C284.502 40.6398 284.264 41.0367 284.106 41.4832C283.947 41.9396 283.858 42.4158 283.858 42.9318V42.9814C283.858 43.4973 283.947 43.9736 284.116 44.43C284.284 44.8864 284.532 45.2833 284.86 45.6305C285.187 45.9778 285.564 46.2556 286.001 46.464C286.437 46.6723 286.923 46.7715 287.479 46.7715L287.469 46.7815ZM288.858 30.0334L292.222 31.4919L288.938 34.5677H285.961L288.858 30.0234V30.0334Z" fill="#575756"/>
<path d="M297.711 36.0871H301.61V38.0516C301.829 37.7639 302.077 37.4761 302.344 37.2082C302.612 36.9403 302.9 36.7022 303.228 36.4939C303.555 36.2855 303.912 36.1268 304.309 36.0077C304.706 35.8886 305.142 35.8291 305.639 35.8291C307.127 35.8291 308.278 36.2855 309.091 37.1884C309.905 38.0913 310.312 39.3414 310.312 40.9289V49.8289H306.412V42.1791C306.412 41.2564 306.204 40.5618 305.797 40.0955C305.391 39.6292 304.805 39.3911 304.051 39.3911C303.297 39.3911 302.702 39.6292 302.265 40.0955C301.829 40.5618 301.61 41.2564 301.61 42.1791V49.8289H297.711V36.0771V36.0871Z" fill="#575756"/>
<path d="M115.647 80.0009C114.933 80.0009 114.298 79.9116 113.752 79.743C113.206 79.5743 112.681 79.3362 112.185 79.0484L113.494 76.2306C113.752 76.3894 114.03 76.5084 114.328 76.6176C114.625 76.7168 114.903 76.7763 115.161 76.7763C115.498 76.7763 115.776 76.7069 115.965 76.5878C116.163 76.4588 116.342 76.2207 116.52 75.8833L111.133 62.082H115.26L118.386 71.4483L121.382 62.082H125.43L120.152 76.1612C119.894 76.8656 119.626 77.4609 119.328 77.9471C119.041 78.4333 118.713 78.8301 118.366 79.1377C118.019 79.4453 117.622 79.6636 117.175 79.8025C116.729 79.9414 116.223 80.0108 115.637 80.0108L115.647 80.0009Z" fill="#575756"/>
<path d="M135.844 57.8652H144.049C146.321 57.8652 148.068 58.4705 149.278 59.6909C150.3 60.7128 150.816 62.082 150.816 63.7985V63.8481C150.816 65.3066 150.459 66.4873 149.754 67.4001C149.05 68.313 148.117 68.9876 146.976 69.4143L151.362 75.8238H146.748L142.898 70.079H139.793V75.8238H135.844V57.8752V57.8652ZM143.791 66.5866C144.764 66.5866 145.518 66.3584 146.034 65.892C146.559 65.4356 146.817 64.8105 146.817 64.0466V63.9969C146.817 63.1437 146.54 62.4987 145.994 62.0721C145.448 61.6455 144.684 61.4272 143.712 61.4272H139.793V66.5866H143.791Z" fill="#575756"/>
<path d="M160.494 76.1208C159.472 76.1208 158.519 75.9521 157.636 75.6049C156.753 75.2675 155.999 74.7714 155.354 74.1464C154.709 73.5114 154.213 72.7672 153.856 71.904C153.499 71.0408 153.32 70.0784 153.32 69.0167V68.9671C153.32 67.9948 153.489 67.0721 153.816 66.1989C154.154 65.3258 154.61 64.5618 155.215 63.9169C155.811 63.272 156.525 62.7561 157.359 62.379C158.192 62.002 159.105 61.8135 160.117 61.8135C161.258 61.8135 162.25 62.0218 163.093 62.4286C163.927 62.8354 164.631 63.3911 165.187 64.0856C165.743 64.7801 166.149 65.5739 166.417 66.4668C166.685 67.3697 166.814 68.3024 166.814 69.2747C166.814 69.4235 166.814 69.5922 166.804 69.7609C166.804 69.9296 166.784 70.1082 166.765 70.2967H157.2C157.388 71.1896 157.775 71.8544 158.371 72.3108C158.956 72.7672 159.69 72.9855 160.563 72.9855C161.218 72.9855 161.794 72.8764 162.31 72.6482C162.826 72.4299 163.351 72.0628 163.897 71.5667L166.129 73.5411C165.475 74.3448 164.691 74.9699 163.768 75.4263C162.845 75.8827 161.754 76.101 160.514 76.101L160.494 76.1208ZM163.004 67.8658C162.885 66.9927 162.577 66.2882 162.081 65.7525C161.585 65.2167 160.93 64.9488 160.107 64.9488C159.283 64.9488 158.629 65.2167 158.123 65.7425C157.616 66.2684 157.289 66.9828 157.14 67.8757H163.014L163.004 67.8658Z" fill="#575756"/>
<path d="M174.526 76.0711C173.554 76.0711 172.552 75.9024 171.54 75.575C170.518 75.2376 169.556 74.7118 168.633 73.9974L170.3 71.4376C171.054 71.9833 171.798 72.3901 172.542 72.6679C173.286 72.9457 173.981 73.0747 174.636 73.0747C175.201 73.0747 175.618 72.9854 175.876 72.7969C176.134 72.6084 176.273 72.3603 176.273 72.0527V72.0031C176.273 71.7948 176.193 71.6162 176.044 71.4673C175.886 71.3185 175.677 71.1796 175.419 71.0705C175.152 70.9613 174.854 70.8522 174.507 70.753C174.159 70.6537 173.802 70.5446 173.425 70.4156C172.949 70.2767 172.463 70.108 171.977 69.9195C171.49 69.7211 171.044 69.4631 170.657 69.1456C170.26 68.8281 169.943 68.4412 169.694 67.9748C169.446 67.5184 169.317 66.9529 169.317 66.2782V66.2286C169.317 65.5241 169.446 64.909 169.714 64.3732C169.982 63.8374 170.339 63.381 170.796 63.004C171.252 62.627 171.778 62.3491 172.383 62.1606C172.989 61.9721 173.643 61.8828 174.348 61.8828C175.221 61.8828 176.104 62.0217 176.997 62.3095C177.9 62.5873 178.723 62.9841 179.477 63.4802L177.989 66.1691C177.305 65.7722 176.64 65.4646 175.985 65.2364C175.33 65.0082 174.765 64.8891 174.268 64.8891C173.772 64.8891 173.435 64.9784 173.187 65.157C172.949 65.3356 172.83 65.5638 172.83 65.8317V65.8813C172.83 66.0698 172.909 66.2385 173.058 66.3774C173.207 66.5262 173.415 66.6552 173.673 66.7842C173.931 66.9132 174.229 67.0323 174.556 67.1513C174.884 67.2704 175.241 67.3894 175.618 67.5085C176.094 67.6573 176.58 67.8459 177.076 68.0641C177.572 68.2824 178.019 68.5404 178.406 68.848C178.803 69.1555 179.12 69.5326 179.378 69.9791C179.636 70.4255 179.765 70.9613 179.765 71.5963V71.6459C179.765 72.4198 179.636 73.0747 179.368 73.6303C179.1 74.1859 178.733 74.6423 178.257 74.9995C177.781 75.3567 177.215 75.6246 176.58 75.8032C175.935 75.9818 175.251 76.0711 174.517 76.0711H174.526Z" fill="#575756"/>
<path d="M182.656 57.0908H186.764V60.5535H182.656V57.0908ZM182.755 62.0617H186.655V75.8134H182.755V62.0617Z" fill="#575756"/>
<path d="M190.508 57.0908H194.407V75.8134H190.508V57.0908Z" fill="#575756"/>
<path d="M198.148 57.0908H202.256V60.5535H198.148V57.0908ZM198.248 62.0617H202.147V75.8134H198.248V62.0617Z" fill="#575756"/>
<path d="M212.322 76.1208C211.3 76.1208 210.348 75.9521 209.464 75.6049C208.581 75.2675 207.827 74.7714 207.182 74.1464C206.538 73.5114 206.041 72.7672 205.684 71.904C205.327 71.0408 205.148 70.0784 205.148 69.0167V68.9671C205.148 67.9948 205.317 67.0721 205.645 66.1989C205.982 65.3258 206.438 64.5618 207.044 63.9169C207.639 63.272 208.353 62.7561 209.187 62.379C210.02 62.002 210.933 61.8135 211.945 61.8135C213.086 61.8135 214.078 62.0218 214.922 62.4286C215.755 62.8354 216.459 63.3911 217.015 64.0856C217.571 64.7801 217.977 65.5739 218.245 66.4668C218.513 67.3697 218.642 68.3024 218.642 69.2747C218.642 69.4235 218.642 69.5922 218.632 69.7609C218.632 69.9296 218.612 70.1082 218.593 70.2967H209.028C209.216 71.1896 209.603 71.8544 210.199 72.3108C210.794 72.7672 211.518 72.9855 212.391 72.9855C213.046 72.9855 213.622 72.8764 214.138 72.6482C214.654 72.4299 215.18 72.0628 215.725 71.5667L217.958 73.5411C217.303 74.3448 216.519 74.9699 215.596 75.4263C214.673 75.8827 213.582 76.101 212.342 76.101L212.322 76.1208ZM214.832 67.8658C214.713 66.9927 214.406 66.2882 213.909 65.7525C213.413 65.2167 212.759 64.9488 211.935 64.9488C211.112 64.9488 210.457 65.2167 209.951 65.7425C209.445 66.2684 209.117 66.9828 208.968 67.8757H214.842L214.832 67.8658Z" fill="#575756"/>
<path d="M221.531 62.0714H225.431V64.036C225.649 63.7482 225.897 63.4605 226.165 63.1926C226.433 62.9247 226.72 62.6866 227.048 62.4782C227.375 62.2699 227.732 62.1111 228.129 61.9921C228.526 61.873 228.963 61.8135 229.459 61.8135C230.947 61.8135 232.098 62.2699 232.912 63.1728C233.725 64.0757 234.132 65.3258 234.132 66.9133V75.8132H230.233V68.1635C230.233 67.2407 230.024 66.5462 229.618 66.0799C229.211 65.6136 228.625 65.3754 227.871 65.3754C227.117 65.3754 226.522 65.6136 226.085 66.0799C225.649 66.5462 225.431 67.2407 225.431 68.1635V75.8132H221.531V62.0615V62.0714Z" fill="#575756"/>
<path d="M244.005 76.1208C242.983 76.1208 242.021 75.9323 241.148 75.5553C240.265 75.1782 239.511 74.6722 238.876 74.0273C238.241 73.3824 237.745 72.6382 237.387 71.775C237.03 70.9118 236.852 69.9891 236.852 69.0167V68.9671C236.852 67.9948 237.03 67.0721 237.387 66.1989C237.745 65.3258 238.241 64.5618 238.876 63.9169C239.511 63.272 240.265 62.7561 241.148 62.379C242.031 62.002 242.993 61.8135 244.055 61.8135C245.355 61.8135 246.426 62.0218 247.289 62.4286C248.143 62.8354 248.897 63.401 249.542 64.1253L247.16 66.695C246.714 66.2287 246.258 65.8616 245.791 65.5937C245.325 65.3159 244.739 65.1869 244.035 65.1869C243.539 65.1869 243.092 65.2861 242.686 65.4846C242.279 65.683 241.932 65.9509 241.634 66.2882C241.336 66.6355 241.108 67.0324 240.939 67.4789C240.781 67.9353 240.691 68.4115 240.691 68.9275V68.9771C240.691 69.5029 240.771 69.999 240.939 70.4653C241.098 70.9317 241.336 71.3285 241.644 71.6758C241.951 72.0231 242.319 72.291 242.745 72.4795C243.172 72.6779 243.648 72.7771 244.184 72.7771C244.829 72.7771 245.404 72.6482 245.89 72.3803C246.377 72.1124 246.863 71.7651 247.339 71.3186L249.621 73.6304C248.956 74.3646 248.192 74.9699 247.339 75.4362C246.486 75.9025 245.374 76.1406 244.005 76.1406V76.1208Z" fill="#575756"/>
<path d="M252.227 57.0908H256.334V60.5535H252.227V57.0908ZM252.326 62.0617H256.225V75.8134H252.326V62.0617Z" fill="#575756"/>
<path d="M263.793 76.0714C263.138 76.0714 262.533 75.9821 261.958 75.8035C261.382 75.6249 260.886 75.3571 260.459 74.9999C260.033 74.6427 259.695 74.1962 259.447 73.6803C259.199 73.1544 259.07 72.5591 259.07 71.8745V71.8249C259.07 71.0708 259.209 70.4259 259.477 69.8802C259.745 69.3345 260.132 68.8781 260.618 68.5209C261.104 68.1637 261.69 67.8958 262.364 67.7172C263.039 67.5386 263.783 67.4493 264.607 67.4493C265.311 67.4493 265.916 67.4989 266.442 67.5982C266.968 67.6974 267.474 67.8363 267.97 68.005V67.7768C267.97 66.9532 267.722 66.3282 267.226 65.9015C266.73 65.4749 265.996 65.2566 265.023 65.2566C264.269 65.2566 263.605 65.3161 263.039 65.4451C262.464 65.5741 261.858 65.7527 261.233 66.0007L260.261 63.0242C261.015 62.6968 261.799 62.4388 262.622 62.2304C263.446 62.0221 264.438 61.9229 265.599 61.9229C266.68 61.9229 267.593 62.0518 268.357 62.3197C269.121 62.5876 269.746 62.9646 270.242 63.4607C270.758 63.9767 271.135 64.6018 271.374 65.3459C271.612 66.09 271.731 66.9235 271.731 67.8462V75.8234H267.96V74.3351C267.484 74.861 266.909 75.2876 266.244 75.6051C265.579 75.9226 264.766 76.0814 263.803 76.0814L263.793 76.0714ZM264.974 73.3826C265.897 73.3826 266.641 73.1643 267.196 72.7178C267.752 72.2714 268.03 71.6959 268.03 70.9716V70.2771C267.683 70.1282 267.306 69.9992 266.889 69.9C266.472 69.8107 266.026 69.7611 265.539 69.7611C264.706 69.7611 264.041 69.9199 263.565 70.2473C263.089 70.5747 262.851 71.041 262.851 71.6562V71.7058C262.851 72.2317 263.049 72.6484 263.436 72.9361C263.833 73.2239 264.339 73.3727 264.974 73.3727V73.3826Z" fill="#575756"/>
</g>
<defs>
<clipPath id="clip0_660_25199">
<rect width="397.71" height="80" fill="white"/>
</clipPath>
</defs>
</svg>
