<svg width="336" height="80" viewBox="0 0 336 80" fill="none" xmlns="http://www.w3.org/2000/svg">
<path d="M0.101562 0.50293V79.4131H118.447V0.50293H0.101562ZM29.3123 38.7687H32.442L33.4017 35.7642L34.3615 38.7687H37.4912L34.9457 40.6048L35.9055 43.5676L33.4017 41.7315L30.898 43.5676L31.8578 40.6048L29.3123 38.7687ZM39.3691 56.5037L36.8653 54.6676L34.3615 56.5037L35.3213 53.5409L32.7758 51.7048H35.9055L36.8653 48.7003L37.8251 51.7048H40.9548L38.4093 53.5409L39.3691 56.5037ZM38.4093 27.7104L39.3691 30.6732L36.8653 28.8371L34.3615 30.6732L35.3213 27.7104L32.7758 25.8744H35.9055L36.8653 22.8698L37.8251 25.8744H40.9548L38.4093 27.7104ZM45.3781 16.4018L46.3379 13.3973L47.2977 16.4018H50.4274L47.8819 18.2379L48.8417 21.2007L46.3379 19.3646L43.8341 21.2007L44.7939 18.2379L42.2484 16.4018H45.3781ZM48.8417 65.9762L46.3379 64.1401L43.8341 65.9762L44.7939 63.0134L42.2484 61.1773H45.3781L46.3379 58.1728L47.2977 61.1356H50.4274L47.8819 62.9717L48.8417 65.9762ZM58.2726 12.9383L59.2323 9.93375L60.1921 12.8965H63.3218L60.7763 14.7326L61.7361 17.6954L59.2323 15.8593L56.7286 17.6954L57.6883 14.7326L55.1428 12.8965L58.2726 12.9383ZM61.7361 69.398L59.2323 67.5619L56.7286 69.398L57.6883 66.4352L55.1428 64.5992H58.2726L59.2323 61.5946L60.1921 64.5992H63.3218L60.7763 66.4352L61.7361 69.398ZM74.6723 65.9762L72.1685 64.1401L69.6647 65.9762L70.6245 63.0134L68.079 61.1773H71.2087L72.1685 58.1728L73.1283 61.1356H76.258L73.7125 62.9717L74.6723 65.9762ZM73.7542 18.2379L74.714 21.2007L72.2102 19.3646L69.7065 21.2007L70.6662 18.2379L68.1207 16.4018H71.2505L72.2102 13.3973L73.17 16.3601H76.2997L73.7542 18.2379ZM80.6813 25.8326L81.6411 22.8281L82.6009 25.8326H85.7306L83.1851 27.6687L84.1449 30.6315L81.6411 28.7954L79.1373 30.6315L80.0971 27.6687L77.5516 25.8326H80.6813ZM84.1449 56.5037L81.6411 54.6676L79.1373 56.5037L80.0971 53.5409L77.5516 51.7048H80.6813L81.6411 48.7003L82.6009 51.7048H85.7306L83.1851 53.5409L84.1449 56.5037ZM87.5667 43.5258L85.0629 41.6898L82.5592 43.5258L83.5189 40.5631L80.9734 38.727H84.1032L85.0629 35.7225L86.0227 38.727H89.1524L86.6069 40.5631L87.5667 43.5258Z" fill="#003399"/>
<path d="M135.164 77.9069V62.6729H137.232L145.234 74.6336V62.6729H147.166V77.9069H145.098L137.097 65.9358V77.9069H135.164Z" fill="#003399"/>
<path d="M157.88 74.353L159.813 74.592C159.508 75.7212 158.944 76.5976 158.119 77.2211C157.295 77.8446 156.242 78.1563 154.96 78.1563C153.346 78.1563 152.064 77.661 151.115 76.6703C150.173 75.6727 149.702 74.2768 149.702 72.4825C149.702 70.6259 150.18 69.1849 151.136 68.1596C152.092 67.1343 153.332 66.6217 154.856 66.6217C156.332 66.6217 157.537 67.1239 158.473 68.1285C159.408 69.133 159.875 70.5462 159.875 72.3682C159.875 72.4791 159.872 72.6453 159.865 72.867H151.635C151.704 74.0794 152.047 75.0077 152.664 75.652C153.28 76.2962 154.049 76.6184 154.971 76.6184C155.656 76.6184 156.242 76.4383 156.727 76.078C157.212 75.7178 157.596 75.1428 157.88 74.353ZM151.739 71.3291H157.901C157.818 70.4007 157.582 69.7045 157.194 69.2404C156.599 68.5199 155.826 68.1596 154.877 68.1596C154.018 68.1596 153.294 68.4471 152.705 69.0221C152.123 69.5971 151.801 70.3661 151.739 71.3291Z" fill="#003399"/>
<path d="M160.925 77.9069L164.957 72.1708L161.226 66.8711H163.564L165.258 69.4586C165.577 69.9504 165.833 70.3626 166.027 70.6952C166.332 70.2379 166.613 69.8327 166.869 69.4794L168.729 66.8711H170.963L167.15 72.0669L171.254 77.9069H168.958L166.692 74.4777L166.09 73.5529L163.19 77.9069H160.925Z" fill="#003399"/>
<path d="M176.897 76.2339L177.167 77.8861C176.641 77.997 176.169 78.0524 175.754 78.0524C175.075 78.0524 174.548 77.945 174.174 77.7303C173.8 77.5155 173.537 77.2349 173.385 76.8886C173.232 76.5352 173.156 75.7974 173.156 74.6751V68.3259H171.784V66.8711H173.156V64.1381L175.016 63.0158V66.8711H176.897V68.3259H175.016V74.7791C175.016 75.3125 175.047 75.6554 175.11 75.8078C175.179 75.9602 175.286 76.0815 175.432 76.1715C175.584 76.2616 175.799 76.3066 176.076 76.3066C176.284 76.3066 176.557 76.2824 176.897 76.2339Z" fill="#003399"/>
<path d="M186.104 71.9318V70.1444L192.557 70.134V75.787C191.566 76.5768 190.545 77.1726 189.492 77.5744C188.439 77.9693 187.358 78.1667 186.249 78.1667C184.753 78.1667 183.392 77.848 182.165 77.2107C180.946 76.5664 180.025 75.6381 179.401 74.4257C178.778 73.2134 178.466 71.859 178.466 70.3626C178.466 68.8801 178.774 67.498 179.391 66.2164C180.014 64.9278 180.908 63.9718 182.072 63.3483C183.236 62.7248 184.576 62.4131 186.093 62.4131C187.195 62.4131 188.189 62.5932 189.076 62.9534C189.97 63.3068 190.669 63.8021 191.175 64.4394C191.681 65.0768 192.065 65.9081 192.328 66.9334L190.51 67.4322C190.281 66.6563 189.997 66.0467 189.658 65.6033C189.318 65.1599 188.833 64.8066 188.203 64.5434C187.573 64.2732 186.873 64.1381 186.104 64.1381C185.182 64.1381 184.386 64.2801 183.714 64.5641C183.042 64.8413 182.498 65.2084 182.082 65.6656C181.674 66.1229 181.355 66.6251 181.126 67.1724C180.738 68.1146 180.544 69.1364 180.544 70.2379C180.544 71.5958 180.776 72.7319 181.241 73.6464C181.712 74.5608 182.394 75.2398 183.288 75.6831C184.181 76.1265 185.131 76.3482 186.135 76.3482C187.008 76.3482 187.86 76.1819 188.691 75.8494C189.523 75.5099 190.153 75.1497 190.583 74.7687V71.9318H186.104Z" fill="#003399"/>
<path d="M202.855 74.353L204.788 74.592C204.483 75.7212 203.919 76.5976 203.094 77.2211C202.27 77.8446 201.217 78.1563 199.935 78.1563C198.321 78.1563 197.039 77.661 196.09 76.6703C195.148 75.6727 194.677 74.2768 194.677 72.4825C194.677 70.6259 195.155 69.1849 196.111 68.1596C197.067 67.1343 198.307 66.6217 199.831 66.6217C201.307 66.6217 202.512 67.1239 203.448 68.1285C204.383 69.133 204.85 70.5462 204.85 72.3682C204.85 72.4791 204.847 72.6453 204.84 72.867H196.61C196.679 74.0794 197.022 75.0077 197.639 75.652C198.255 76.2962 199.024 76.6184 199.946 76.6184C200.631 76.6184 201.217 76.4383 201.702 76.078C202.187 75.7178 202.571 75.1428 202.855 74.353ZM196.714 71.3291H202.876C202.793 70.4007 202.557 69.7045 202.169 69.2404C201.574 68.5199 200.801 68.1596 199.852 68.1596C198.993 68.1596 198.269 68.4471 197.68 69.0221C197.098 69.5971 196.776 70.3661 196.714 71.3291Z" fill="#003399"/>
<path d="M207.147 77.9069V66.8711H208.83V68.4402C209.641 67.2278 210.812 66.6217 212.343 66.6217C213.008 66.6217 213.617 66.7429 214.172 66.9854C214.733 67.2209 215.152 67.5327 215.429 67.9206C215.706 68.3086 215.9 68.7693 216.011 69.3027C216.08 69.6491 216.115 70.2553 216.115 71.1212V77.9069H214.244V71.194C214.244 70.4319 214.172 69.8638 214.026 69.4897C213.881 69.1087 213.621 68.8074 213.247 68.5857C212.88 68.3571 212.447 68.2428 211.948 68.2428C211.151 68.2428 210.462 68.4956 209.88 69.0013C209.305 69.5071 209.017 70.4666 209.017 71.8798V77.9069H207.147Z" fill="#003399"/>
<path d="M226.548 74.353L228.481 74.592C228.176 75.7212 227.612 76.5976 226.787 77.2211C225.963 77.8446 224.91 78.1563 223.628 78.1563C222.014 78.1563 220.732 77.661 219.783 76.6703C218.841 75.6727 218.37 74.2768 218.37 72.4825C218.37 70.6259 218.848 69.1849 219.804 68.1596C220.76 67.1343 222 66.6217 223.524 66.6217C225 66.6217 226.205 67.1239 227.14 68.1285C228.076 69.133 228.543 70.5462 228.543 72.3682C228.543 72.4791 228.54 72.6453 228.533 72.867H220.303C220.372 74.0794 220.715 75.0077 221.332 75.652C221.948 76.2962 222.717 76.6184 223.638 76.6184C224.324 76.6184 224.91 76.4383 225.395 76.078C225.88 75.7178 226.264 75.1428 226.548 74.353ZM220.407 71.3291H226.569C226.486 70.4007 226.25 69.7045 225.862 69.2404C225.266 68.5199 224.494 68.1596 223.545 68.1596C222.686 68.1596 221.962 68.4471 221.373 69.0221C220.791 69.5971 220.469 70.3661 220.407 71.3291Z" fill="#003399"/>
<path d="M230.819 77.9069V66.8711H232.503V68.5441C232.932 67.7613 233.327 67.2452 233.687 66.9958C234.054 66.7464 234.456 66.6217 234.893 66.6217C235.523 66.6217 236.164 66.8226 236.815 67.2244L236.171 68.9598C235.714 68.6896 235.256 68.5545 234.799 68.5545C234.39 68.5545 234.023 68.6792 233.698 68.9286C233.372 69.1711 233.14 69.5105 233.001 69.947C232.793 70.612 232.69 71.3394 232.69 72.1292V77.9069H230.819Z" fill="#003399"/>
<path d="M245.128 76.5456C244.436 77.1345 243.767 77.5501 243.123 77.7926C242.485 78.0351 241.8 78.1563 241.065 78.1563C239.853 78.1563 238.921 77.8619 238.27 77.273C237.619 76.6773 237.293 75.9187 237.293 74.9973C237.293 74.4569 237.414 73.9651 237.657 73.5217C237.906 73.0714 238.228 72.7111 238.623 72.441C239.025 72.1708 239.475 71.9664 239.974 71.8279C240.341 71.7309 240.896 71.6373 241.637 71.5473C243.147 71.3672 244.259 71.1524 244.972 70.903C244.979 70.6467 244.983 70.4839 244.983 70.4146C244.983 69.6525 244.806 69.1157 244.453 68.8039C243.975 68.3813 243.265 68.17 242.323 68.17C241.443 68.17 240.792 68.3259 240.369 68.6376C239.953 68.9425 239.645 69.4863 239.444 70.2691L237.615 70.0197C237.781 69.2369 238.055 68.6065 238.436 68.1285C238.817 67.6435 239.368 67.2729 240.088 67.0166C240.809 66.7533 241.644 66.6217 242.593 66.6217C243.535 66.6217 244.301 66.7325 244.889 66.9542C245.478 67.1759 245.911 67.4565 246.188 67.7959C246.465 68.1285 246.659 68.551 246.77 69.0637C246.833 69.3824 246.864 69.9574 246.864 70.7887V73.2827C246.864 75.0215 246.902 76.123 246.978 76.5872C247.061 77.0444 247.221 77.4843 247.456 77.9069H245.502C245.308 77.519 245.184 77.0652 245.128 76.5456ZM244.972 72.3682C244.294 72.6453 243.275 72.8809 241.917 73.0748C241.148 73.1857 240.605 73.3104 240.286 73.4489C239.967 73.5875 239.721 73.7919 239.548 74.062C239.375 74.3253 239.288 74.6197 239.288 74.9453C239.288 75.4441 239.475 75.8598 239.849 76.1923C240.23 76.5248 240.785 76.6911 241.512 76.6911C242.233 76.6911 242.873 76.5352 243.435 76.2235C243.996 75.9048 244.408 75.4718 244.671 74.9245C244.872 74.502 244.972 73.8785 244.972 73.0541V72.3682Z" fill="#003399"/>
<path d="M253.857 76.2339L254.128 77.8861C253.601 77.997 253.13 78.0524 252.714 78.0524C252.035 78.0524 251.509 77.945 251.135 77.7303C250.761 77.5155 250.497 77.2349 250.345 76.8886C250.193 76.5352 250.116 75.7974 250.116 74.6751V68.3259H248.745V66.8711H250.116V64.1381L251.976 63.0158V66.8711H253.857V68.3259H251.976V74.7791C251.976 75.3125 252.008 75.6554 252.07 75.8078C252.139 75.9602 252.247 76.0815 252.392 76.1715C252.545 76.2616 252.759 76.3066 253.036 76.3066C253.244 76.3066 253.518 76.2824 253.857 76.2339Z" fill="#003399"/>
<path d="M255.707 64.8239V62.6729H257.578V64.8239H255.707ZM255.707 77.9069V66.8711H257.578V77.9069H255.707Z" fill="#003399"/>
<path d="M259.739 72.389C259.739 70.3453 260.307 68.8316 261.443 67.8479C262.392 67.0304 263.549 66.6217 264.914 66.6217C266.431 66.6217 267.671 67.1205 268.634 68.1181C269.597 69.1087 270.079 70.4804 270.079 72.2331C270.079 73.6533 269.864 74.7721 269.434 75.5896C269.012 76.4001 268.392 77.0306 267.574 77.4809C266.764 77.9312 265.877 78.1563 264.914 78.1563C263.369 78.1563 262.119 77.661 261.163 76.6703C260.214 75.6797 259.739 74.2526 259.739 72.389ZM261.661 72.389C261.661 73.8023 261.97 74.8622 262.586 75.5688C263.203 76.2685 263.979 76.6184 264.914 76.6184C265.842 76.6184 266.615 76.2651 267.231 75.5584C267.848 74.8518 268.156 73.7745 268.156 72.3266C268.156 70.9619 267.844 69.9297 267.221 69.23C266.604 68.5233 265.835 68.17 264.914 68.17C263.979 68.17 263.203 68.5199 262.586 69.2196C261.97 69.9193 261.661 70.9757 261.661 72.389Z" fill="#003399"/>
<path d="M272.282 77.9069V66.8711H273.965V68.4402C274.776 67.2278 275.947 66.6217 277.478 66.6217C278.143 66.6217 278.752 66.7429 279.306 66.9854C279.868 67.2209 280.287 67.5327 280.564 67.9206C280.841 68.3086 281.035 68.7693 281.146 69.3027C281.215 69.6491 281.25 70.2553 281.25 71.1212V77.9069H279.379V71.194C279.379 70.4319 279.306 69.8638 279.161 69.4897C279.016 69.1087 278.756 68.8074 278.382 68.5857C278.014 68.3571 277.581 68.2428 277.083 68.2428C276.286 68.2428 275.597 68.4956 275.015 69.0013C274.44 69.5071 274.152 70.4666 274.152 71.8798V77.9069H272.282Z" fill="#003399"/>
<path d="M284.409 77.9069V62.6729H295.424V64.4706H286.425V69.1364H294.852V70.9238H286.425V76.1092H295.777V77.9069H284.409Z" fill="#003399"/>
<path d="M308.559 62.6729H310.575V71.4745C310.575 73.0056 310.402 74.2214 310.055 75.122C309.709 76.0226 309.082 76.7569 308.174 77.325C307.274 77.8861 306.089 78.1667 304.62 78.1667C303.193 78.1667 302.026 77.9208 301.119 77.4289C300.211 76.937 299.563 76.227 299.175 75.2986C298.787 74.3634 298.593 73.0887 298.593 71.4745V62.6729H300.609V71.4641C300.609 72.7873 300.731 73.7642 300.973 74.3946C301.222 75.0181 301.645 75.4995 302.241 75.839C302.844 76.1785 303.578 76.3482 304.444 76.3482C305.926 76.3482 306.983 76.0122 307.613 75.3402C308.244 74.6682 308.559 73.3762 308.559 71.4641V62.6729Z" fill="#003399"/>
<path d="M135.102 20.4494V2.79785H147.203V5.76063H138.69V9.93356H146.035V12.8963H138.69V20.3659H135.102V20.4494Z" fill="#003399"/>
<path d="M150.086 5.92755V2.79785H153.466V5.92755H150.086ZM150.086 20.4494V7.68018H153.466V20.4494H150.086Z" fill="#003399"/>
<path d="M168.525 20.449H165.145V13.8975C165.145 12.5204 165.062 11.6441 164.937 11.2268C164.811 10.8095 164.561 10.5174 164.227 10.267C163.893 10.0584 163.518 9.93318 163.059 9.93318C162.475 9.93318 161.932 10.1001 161.473 10.4339C161.014 10.7678 160.68 11.1851 160.513 11.7275C160.346 12.27 160.263 13.2298 160.263 14.6486V20.449H156.883V7.6798H160.013V9.55762C161.139 8.09709 162.516 7.3877 164.227 7.3877C164.978 7.3877 165.646 7.51288 166.272 7.80499C166.898 8.05536 167.357 8.43093 167.691 8.84822C168.025 9.26551 168.233 9.72454 168.358 10.267C168.484 10.8095 168.525 11.5606 168.525 12.5204V20.449Z" fill="#003399"/>
<path d="M174.5 11.5606L171.454 11.0181C171.787 9.76627 172.372 8.88995 173.248 8.26401C174.082 7.6798 175.334 7.3877 177.004 7.3877C178.506 7.3877 179.632 7.55461 180.384 7.93018C181.135 8.30574 181.636 8.72303 181.928 9.30724C182.22 9.84973 182.387 10.8512 182.387 12.3118L182.345 16.2343C182.345 17.361 182.387 18.1956 182.512 18.6963C182.637 19.2388 182.804 19.7813 183.138 20.4072H179.799C179.716 20.1986 179.591 19.8648 179.466 19.4057C179.424 19.1971 179.382 19.0719 179.34 18.9884C178.756 19.5309 178.13 19.9899 177.504 20.2403C176.837 20.5324 176.127 20.6576 175.418 20.6576C174.082 20.6576 173.081 20.2821 172.33 19.5727C171.579 18.8633 171.203 17.9452 171.203 16.8602C171.203 16.1509 171.37 15.4832 171.704 14.9407C172.038 14.3565 172.538 13.9392 173.164 13.6471C173.79 13.355 174.667 13.1046 175.835 12.8542C177.421 12.5621 178.506 12.27 179.132 12.0196V11.7693C179.132 11.1016 178.965 10.6426 178.631 10.3922C178.297 10.1001 177.713 9.97491 176.795 9.97491C176.211 9.97491 175.71 10.1001 175.376 10.3505C175.042 10.6009 174.708 10.9764 174.5 11.5606ZM179.007 14.3148C178.589 14.4399 177.88 14.6486 176.962 14.8155C176.044 15.0242 175.418 15.2328 175.126 15.3997C174.667 15.6918 174.458 16.1091 174.458 16.6099C174.458 17.0689 174.625 17.4862 175.001 17.82C175.334 18.1539 175.793 18.3208 176.336 18.3208C176.962 18.3208 177.546 18.1121 178.089 17.7366C178.506 17.4445 178.756 17.0689 178.881 16.6099C178.965 16.3178 179.007 15.7753 179.007 14.9824V14.3148Z" fill="#003399"/>
<path d="M197.283 20.449H193.903V13.8975C193.903 12.5204 193.82 11.6441 193.694 11.2268C193.569 10.8095 193.319 10.5174 192.985 10.267C192.651 10.0584 192.276 9.93318 191.817 9.93318C191.232 9.93318 190.69 10.1001 190.231 10.4339C189.772 10.7678 189.438 11.1851 189.271 11.7275C189.104 12.27 189.021 13.2298 189.021 14.6486V20.449H185.641V7.6798H188.77V9.55762C189.897 8.09709 191.274 7.3877 192.985 7.3877C193.736 7.3877 194.404 7.51288 195.03 7.80499C195.656 8.05536 196.115 8.43093 196.449 8.84822C196.782 9.26551 196.991 9.72454 197.116 10.267C197.241 10.8095 197.283 11.5606 197.283 12.5204V20.449Z" fill="#003399"/>
<path d="M211.843 11.4357L208.505 12.0199C208.38 11.3522 208.129 10.8515 207.754 10.5177C207.337 10.1838 206.836 10.0169 206.21 10.0169C205.375 10.0169 204.708 10.309 204.207 10.8932C203.706 11.4774 203.456 12.4372 203.456 13.8143C203.456 15.3165 203.706 16.4015 204.207 17.0274C204.708 17.6534 205.417 17.9455 206.252 17.9455C206.878 17.9455 207.42 17.7786 207.837 17.403C208.255 17.0274 208.547 16.4015 208.714 15.5252L212.052 16.1094C211.718 17.6116 211.051 18.7801 210.049 19.5729C209.089 20.3658 207.754 20.7413 206.126 20.7413C204.249 20.7413 202.788 20.1571 201.661 18.9887C200.535 17.8203 199.992 16.1928 199.992 14.1064C199.992 11.9782 200.535 10.3507 201.661 9.18232C202.788 8.0139 204.29 7.42969 206.168 7.42969C207.712 7.42969 208.964 7.76352 209.882 8.43119C210.758 9.05713 211.426 10.0586 211.843 11.4357Z" fill="#003399"/>
<path d="M214.391 5.92755V2.79785H217.771V5.92755H214.391ZM214.391 20.4494V7.68018H217.771V20.4494H214.391Z" fill="#003399"/>
<path d="M223.781 11.5606L220.735 11.0181C221.069 9.76627 221.653 8.88995 222.529 8.26401C223.364 7.6798 224.616 7.3877 226.285 7.3877C227.787 7.3877 228.914 7.55461 229.665 7.93018C230.416 8.30574 230.917 8.72303 231.209 9.30724C231.501 9.84973 231.668 10.8512 231.668 12.3118L231.626 16.2343C231.626 17.361 231.668 18.1956 231.793 18.6963C231.918 19.2388 232.085 19.7813 232.419 20.4072H229.081C228.997 20.1986 228.872 19.8648 228.747 19.4057C228.705 19.1971 228.663 19.0719 228.622 18.9884C228.037 19.5309 227.411 19.9899 226.786 20.2403C226.118 20.5324 225.408 20.6576 224.699 20.6576C223.364 20.6576 222.362 20.2821 221.611 19.5727C220.86 18.8633 220.484 17.9452 220.484 16.8602C220.484 16.1509 220.651 15.4832 220.985 14.9407C221.319 14.3565 221.82 13.9392 222.446 13.6471C223.072 13.355 223.948 13.1046 225.116 12.8542C226.702 12.5621 227.787 12.27 228.413 12.0196V11.7693C228.413 11.1016 228.246 10.6426 227.912 10.3922C227.578 10.1001 226.994 9.97491 226.076 9.97491C225.492 9.97491 224.991 10.1001 224.657 10.3505C224.323 10.6009 223.99 10.9764 223.781 11.5606ZM228.288 14.3148C227.87 14.4399 227.161 14.6486 226.243 14.8155C225.325 15.0242 224.699 15.2328 224.407 15.3997C223.948 15.6918 223.739 16.1091 223.739 16.6099C223.739 17.0689 223.906 17.4862 224.282 17.82C224.616 18.1539 225.075 18.3208 225.617 18.3208C226.243 18.3208 226.827 18.1121 227.37 17.7366C227.787 17.4445 228.037 17.0689 228.163 16.6099C228.246 16.3178 228.288 15.7753 228.288 14.9824V14.3148Z" fill="#003399"/>
<path d="M246.654 20.4494H243.524V18.5715C243.024 19.2809 242.398 19.8234 241.688 20.199C240.979 20.5745 240.27 20.7415 239.56 20.7415C238.1 20.7415 236.848 20.1572 235.804 18.9888C234.761 17.8204 234.219 16.1512 234.219 14.023C234.219 11.8531 234.72 10.2257 235.763 9.09898C236.764 7.97229 238.058 7.42981 239.602 7.42981C241.021 7.42981 242.273 8.01402 243.316 9.22416V2.79785H246.696V20.4494H246.654ZM237.641 13.7727C237.641 15.1497 237.849 16.1095 238.225 16.7354C238.767 17.6118 239.518 18.0708 240.52 18.0708C241.313 18.0708 241.939 17.7369 242.523 17.0693C243.065 16.4016 243.358 15.4001 243.358 14.1065C243.358 12.646 243.107 11.6027 242.565 10.9351C242.022 10.3091 241.355 9.97529 240.52 9.97529C239.727 9.97529 239.059 10.3091 238.517 10.9351C237.891 11.561 237.641 12.5208 237.641 13.7727Z" fill="#003399"/>
<path d="M249.195 13.8555C249.195 12.7288 249.487 11.6438 250.03 10.6006C250.572 9.55736 251.365 8.7645 252.367 8.18029C253.368 7.63781 254.495 7.3457 255.747 7.3457C257.666 7.3457 259.252 7.97164 260.504 9.22352C261.756 10.4754 262.34 12.0611 262.34 13.9807C262.34 15.9002 261.714 17.5277 260.462 18.7795C259.21 20.0314 257.666 20.6991 255.747 20.6991C254.578 20.6991 253.452 20.4487 252.408 19.9062C251.365 19.3637 250.531 18.6126 249.988 17.5694C249.487 16.5679 249.195 15.316 249.195 13.8555ZM252.659 14.0641C252.659 15.316 252.951 16.3175 253.577 16.9852C254.161 17.6528 254.912 17.9867 255.789 17.9867C256.665 17.9867 257.416 17.6528 258 16.9852C258.584 16.3175 258.877 15.316 258.877 14.0641C258.877 12.8122 258.584 11.8525 258 11.1848C257.416 10.5171 256.665 10.1833 255.789 10.1833C254.912 10.1833 254.161 10.5171 253.577 11.1848C252.951 11.8107 252.659 12.7705 252.659 14.0641Z" fill="#003399"/>
<path d="M271.773 7.68006H274.903V9.55788C275.32 8.93194 275.863 8.38946 276.572 8.0139C277.282 7.5966 278.033 7.42969 278.909 7.42969C280.411 7.42969 281.663 8.0139 282.665 9.18232C283.708 10.3507 284.209 11.9782 284.209 14.0229C284.209 16.1511 283.708 17.8203 282.665 18.9887C281.622 20.1571 280.37 20.7413 278.867 20.7413C278.158 20.7413 277.532 20.6161 276.948 20.324C276.364 20.0319 275.779 19.5729 275.154 18.8635V25.2898H271.773V7.68006ZM275.112 13.8143C275.112 15.2331 275.404 16.318 275.946 16.9857C276.531 17.6534 277.198 18.0289 278.033 18.0289C278.826 18.0289 279.452 17.6951 279.994 17.0692C280.495 16.4432 280.787 15.4 280.787 13.9812C280.787 12.6459 280.537 11.6443 279.994 11.0184C279.452 10.3507 278.784 10.0586 277.991 10.0586C277.157 10.0586 276.489 10.3925 275.946 11.0184C275.362 11.6443 275.112 12.5624 275.112 13.8143Z" fill="#003399"/>
<path d="M286.125 13.8555C286.125 12.7288 286.417 11.6438 286.96 10.6006C287.502 9.55736 288.295 8.7645 289.296 8.18029C290.298 7.63781 291.425 7.3457 292.677 7.3457C294.596 7.3457 296.182 7.97164 297.434 9.22352C298.686 10.4754 299.27 12.0611 299.27 13.9807C299.27 15.9002 298.644 17.5277 297.392 18.7795C296.14 20.0314 294.596 20.6991 292.677 20.6991C291.508 20.6991 290.381 20.4487 289.338 19.9062C288.295 19.3637 287.46 18.6126 286.918 17.5694C286.375 16.5679 286.125 15.316 286.125 13.8555ZM289.589 14.0641C289.589 15.316 289.881 16.3175 290.507 16.9852C291.091 17.6528 291.842 17.9867 292.718 17.9867C293.595 17.9867 294.346 17.6528 294.93 16.9852C295.514 16.3175 295.806 15.316 295.806 14.0641C295.806 12.8122 295.514 11.8525 294.93 11.1848C294.346 10.5171 293.595 10.1833 292.718 10.1833C291.842 10.1833 291.091 10.5171 290.507 11.1848C289.881 11.8107 289.589 12.7705 289.589 14.0641Z" fill="#003399"/>
<path d="M305.154 20.449H301.773V7.6798H304.903V9.51589C305.446 8.63957 305.905 8.09709 306.364 7.80499C306.781 7.51288 307.282 7.3877 307.824 7.3877C308.575 7.3877 309.326 7.59634 310.036 8.01363L308.993 10.9764C308.408 10.6009 307.908 10.4339 307.407 10.4339C306.948 10.4339 306.531 10.5591 306.197 10.8095C305.863 11.0599 305.613 11.5606 305.404 12.2283C305.195 12.896 305.112 14.3565 305.112 16.5264V20.449H305.154Z" fill="#003399"/>
<path d="M135.062 49.9933V32.3418H138.443V49.9516H135.062V49.9933Z" fill="#003399"/>
<path d="M144.414 41.1046L141.368 40.5621C141.701 39.3102 142.286 38.4339 143.162 37.808C143.997 37.2237 145.248 36.9316 146.918 36.9316C148.42 36.9316 149.547 37.0986 150.298 37.4741C151.049 37.8497 151.55 38.267 151.842 38.8512C152.134 39.3937 152.301 40.3952 152.301 41.8557L152.259 45.7783C152.259 46.9049 152.301 47.7395 152.426 48.2403C152.551 48.7828 152.718 49.3252 153.052 49.9512H149.713C149.63 49.7425 149.505 49.4087 149.38 48.9497C149.338 48.741 149.296 48.6158 149.254 48.5324C148.67 49.0749 148.044 49.5339 147.418 49.7843C146.751 50.0764 146.041 50.2016 145.332 50.2016C143.997 50.2016 142.995 49.826 142.244 49.1166C141.493 48.4072 141.117 47.4892 141.117 46.4042C141.117 45.6948 141.284 45.0271 141.618 44.4846C141.952 43.9004 142.453 43.4831 143.078 43.191C143.704 42.8989 144.581 42.6486 145.749 42.3982C147.335 42.1061 148.42 41.814 149.046 41.5636V41.2298C149.046 40.5621 148.879 40.1031 148.545 39.8527C148.211 39.5606 147.627 39.4354 146.709 39.4354C146.125 39.4354 145.624 39.5606 145.29 39.811C144.956 40.0613 144.622 40.5204 144.414 41.1046ZM148.962 43.8587C148.545 43.9839 147.836 44.1925 146.918 44.3595C146 44.5681 145.374 44.7767 145.081 44.9437C144.622 45.2358 144.414 45.6531 144.414 46.1538C144.414 46.6128 144.581 47.0301 144.956 47.364C145.29 47.6978 145.749 47.8647 146.292 47.8647C146.918 47.8647 147.502 47.6561 148.044 47.2805C148.462 46.9884 148.712 46.6128 148.837 46.1538C148.921 45.8617 148.962 45.3192 148.962 44.5264V43.8587Z" fill="#003399"/>
<path d="M162.438 32.3418H165.985V41.8978C165.985 43.4001 166.026 44.4016 166.11 44.8606C166.277 45.57 166.61 46.1542 167.195 46.6132C167.779 47.0305 168.53 47.2809 169.532 47.2809C170.533 47.2809 171.284 47.0722 171.827 46.6549C172.327 46.2377 172.661 45.7369 172.745 45.1527C172.828 44.5685 172.912 43.567 172.912 42.1482V32.3418H176.459V41.6057C176.459 43.7339 176.375 45.2362 176.167 46.0707C175.958 46.9471 175.624 47.6982 175.123 48.2824C174.623 48.8666 173.913 49.3674 173.037 49.7012C172.16 50.0768 171.034 50.2437 169.657 50.2437C167.988 50.2437 166.694 50.035 165.818 49.6595C164.941 49.2839 164.274 48.7831 163.773 48.1572C163.272 47.5313 162.938 46.9053 162.771 46.1959C162.521 45.1944 162.438 43.6922 162.438 41.7309V32.3418Z" fill="#003399"/>
<path d="M191.814 49.9929H188.434V43.4831C188.434 42.1061 188.351 41.2298 188.226 40.8125C188.1 40.3952 187.85 40.1031 187.516 39.8527C187.182 39.644 186.807 39.5189 186.348 39.5189C185.764 39.5189 185.221 39.6858 184.762 40.0196C184.303 40.3534 183.969 40.7707 183.802 41.3132C183.635 41.8557 183.552 42.8155 183.552 44.2343V50.0346H180.172V37.2237H183.302V39.1016C184.428 37.641 185.805 36.9316 187.516 36.9316C188.267 36.9316 188.935 37.0568 189.561 37.3489C190.187 37.5993 190.646 37.9749 190.98 38.3922C191.314 38.8095 191.522 39.2685 191.648 39.811C191.773 40.3534 191.814 41.1046 191.814 42.0643V49.9929Z" fill="#003399"/>
<path d="M195.242 35.4715V32.3418H198.622V35.4715H195.242ZM195.242 49.9933V37.2241H198.622V49.9933H195.242Z" fill="#003399"/>
<path d="M201.328 43.4002C201.328 42.2735 201.62 41.1885 202.163 40.1453C202.705 39.1021 203.498 38.3092 204.5 37.725C205.501 37.1825 206.628 36.8904 207.88 36.8904C209.799 36.8904 211.385 37.5163 212.637 38.7682C213.889 40.0201 214.473 41.6058 214.473 43.5254C214.473 45.4449 213.847 47.0724 212.595 48.3242C211.343 49.5761 209.799 50.2438 207.88 50.2438C206.711 50.2438 205.585 49.9934 204.541 49.4509C203.498 48.9084 202.663 48.1573 202.121 47.1141C201.578 46.1126 201.328 44.8607 201.328 43.4002ZM204.75 43.6088C204.75 44.8607 205.042 45.8622 205.668 46.5299C206.252 47.1975 207.003 47.5314 207.88 47.5314C208.756 47.5314 209.507 47.1975 210.091 46.5299C210.676 45.8622 210.968 44.8607 210.968 43.6088C210.968 42.3569 210.676 41.3972 210.091 40.7295C209.507 40.0618 208.756 39.728 207.88 39.728C207.003 39.728 206.252 40.0618 205.668 40.7295C205.084 41.3554 204.75 42.3152 204.75 43.6088ZM206.169 35.6385L207.838 32.0498H211.635L208.339 35.6385H206.169Z" fill="#003399"/>
<path d="M228.744 49.9929H225.364V43.4831C225.364 42.1061 225.281 41.2298 225.155 40.8125C225.03 40.3952 224.78 40.1031 224.446 39.8527C224.112 39.644 223.737 39.5189 223.278 39.5189C222.693 39.5189 222.151 39.6858 221.692 40.0196C221.233 40.3534 220.899 40.7707 220.732 41.3132C220.565 41.8557 220.482 42.8155 220.482 44.2343V50.0346H217.102V37.2237H220.231V39.1016C221.358 37.641 222.735 36.9316 224.446 36.9316C225.197 36.9316 225.865 37.0568 226.491 37.3489C227.117 37.5993 227.576 37.9749 227.91 38.3922C228.243 38.8095 228.452 39.2685 228.577 39.811C228.702 40.3534 228.744 41.1046 228.744 42.0643V49.9929Z" fill="#003399"/>
<path d="M239.055 49.9933V32.3418H252.116V35.3046H242.602V39.2271H251.448V42.1899H242.602V46.9888H252.45V49.9516H239.055V49.9933Z" fill="#003399"/>
<path d="M263.836 49.9938V48.0742C263.377 48.7419 262.751 49.2844 262 49.7017C261.248 50.0772 260.456 50.2859 259.621 50.2859C258.745 50.2859 257.993 50.0772 257.326 49.7017C256.658 49.3261 256.157 48.7836 255.865 48.116C255.573 47.4483 255.406 46.4885 255.406 45.2784V37.2246H258.786V43.0667C258.786 44.8611 258.828 45.946 258.953 46.3633C259.078 46.7806 259.287 47.0727 259.621 47.3231C259.955 47.5735 260.372 47.6569 260.873 47.6569C261.457 47.6569 261.958 47.49 262.417 47.1979C262.876 46.8641 263.168 46.4885 263.335 46.0295C263.502 45.5705 263.585 44.4021 263.585 42.566V37.2246H266.965V49.9938H263.836Z" fill="#003399"/>
<path d="M273.685 49.9929H270.305V37.2237H273.434V39.0598C273.977 38.1835 274.436 37.641 274.895 37.3489C275.312 37.0568 275.813 36.9316 276.355 36.9316C277.107 36.9316 277.858 37.1403 278.567 37.5576L277.524 40.5204C276.94 40.1448 276.439 39.9779 275.938 39.9779C275.479 39.9779 275.062 40.1031 274.728 40.3534C274.394 40.6038 274.144 41.1046 273.935 41.7722C273.727 42.4399 273.643 43.9004 273.643 46.0704V49.9929H273.685Z" fill="#003399"/>
<path d="M279.281 43.4004C279.281 42.2737 279.573 41.1887 280.116 40.1455C280.658 39.1023 281.451 38.3094 282.453 37.7252C283.454 37.1827 284.581 36.8906 285.833 36.8906C287.752 36.8906 289.338 37.5166 290.59 38.7684C291.842 40.0203 292.426 41.606 292.426 43.5256C292.426 45.4451 291.8 47.0726 290.548 48.3245C289.296 49.5763 287.752 50.244 285.833 50.244C284.664 50.244 283.538 49.9936 282.494 49.4511C281.451 48.9087 280.617 48.1575 280.074 47.1143C279.532 46.1128 279.281 44.8609 279.281 43.4004ZM282.745 43.609C282.745 44.8609 283.037 45.8624 283.663 46.5301C284.247 47.1978 284.998 47.5316 285.875 47.5316C286.751 47.5316 287.502 47.1978 288.086 46.5301C288.67 45.8624 288.963 44.8609 288.963 43.609C288.963 42.3572 288.67 41.3974 288.086 40.7297C287.502 40.0621 286.751 39.7282 285.875 39.7282C284.998 39.7282 284.247 40.0621 283.663 40.7297C283.037 41.3557 282.745 42.3154 282.745 43.609Z" fill="#003399"/>
<path d="M295.016 37.224H298.145V39.1018C298.563 38.4759 299.105 37.9334 299.815 37.5578C300.524 37.1406 301.275 36.9736 302.151 36.9736C303.654 36.9736 304.906 37.5578 305.907 38.7263C306.95 39.8947 307.451 41.5221 307.451 43.5669C307.451 45.6951 306.95 47.3642 305.907 48.5327C304.864 49.7011 303.612 50.2853 302.11 50.2853C301.4 50.2853 300.774 50.1601 300.19 49.868C299.606 49.5759 299.022 49.1169 298.396 48.4075V54.8338H295.016V37.224ZM298.354 43.3582C298.354 44.777 298.646 45.862 299.189 46.5296C299.773 47.1973 300.44 47.5729 301.275 47.5729C302.068 47.5729 302.694 47.239 303.236 46.6131C303.737 45.9872 304.029 44.9439 304.029 43.5251C304.029 42.1898 303.779 41.1883 303.236 40.5624C302.694 39.8947 302.026 39.6026 301.233 39.6026C300.399 39.6026 299.731 39.9364 299.189 40.5624C298.604 41.1883 298.354 42.1063 298.354 43.3582Z" fill="#003399"/>
<path d="M317.502 45.9037L320.882 46.4879C320.465 47.7398 319.756 48.6578 318.837 49.3255C317.919 49.9514 316.751 50.2853 315.332 50.2853C313.121 50.2853 311.451 49.5759 310.408 48.1154C309.574 46.9469 309.156 45.4864 309.156 43.7338C309.156 41.6056 309.699 39.9781 310.825 38.768C311.952 37.5578 313.329 36.9736 315.04 36.9736C316.96 36.9736 318.42 37.5996 319.547 38.8515C320.632 40.1033 321.174 42.0229 321.133 44.6101H312.662C312.703 45.6116 312.954 46.4045 313.496 46.9469C313.997 47.4894 314.665 47.7815 315.457 47.7815C316 47.7815 316.417 47.6563 316.793 47.3642C317.168 47.0721 317.335 46.5714 317.502 45.9037ZM317.711 42.4819C317.669 41.5221 317.419 40.771 316.96 40.2702C316.501 39.7695 315.875 39.5191 315.207 39.5191C314.456 39.5191 313.872 39.7695 313.371 40.312C312.87 40.8545 312.662 41.5639 312.662 42.4819H317.711Z" fill="#003399"/>
<path d="M326.351 41.1046L323.305 40.5621C323.639 39.3102 324.223 38.4339 325.099 37.808C325.934 37.2237 327.186 36.9316 328.855 36.9316C330.357 36.9316 331.484 37.0986 332.235 37.4741C332.986 37.8497 333.487 38.267 333.779 38.8512C334.071 39.3937 334.238 40.3952 334.238 41.8557L334.196 45.7783C334.196 46.9049 334.238 47.7395 334.363 48.2403C334.489 48.7828 334.655 49.3252 334.989 49.9512H331.651C331.568 49.7425 331.442 49.4087 331.317 48.9497C331.275 48.741 331.234 48.6158 331.192 48.5324C330.608 49.0749 329.982 49.5339 329.356 49.7843C328.688 50.0764 327.979 50.2016 327.269 50.2016C325.934 50.2016 324.933 49.826 324.181 49.1166C323.43 48.4072 323.055 47.4892 323.055 46.4042C323.055 45.6948 323.222 45.0271 323.555 44.4846C323.889 43.9004 324.39 43.4831 325.016 43.191C325.642 42.8989 326.518 42.6486 327.687 42.3982C329.272 42.1061 330.357 41.814 330.983 41.5636V41.2298C330.983 40.5621 330.816 40.1031 330.483 39.8527C330.149 39.5606 329.564 39.4354 328.646 39.4354C328.062 39.4354 327.561 39.5606 327.228 39.811C326.894 40.0613 326.56 40.5204 326.351 41.1046ZM330.858 43.8587C330.441 43.9839 329.731 44.1925 328.813 44.3595C327.895 44.5681 327.269 44.7767 326.977 44.9437C326.518 45.2358 326.31 45.6531 326.31 46.1538C326.31 46.6128 326.477 47.0301 326.852 47.364C327.186 47.6978 327.645 47.8647 328.187 47.8647C328.813 47.8647 329.398 47.6561 329.94 47.2805C330.357 46.9884 330.608 46.6128 330.733 46.1538C330.816 45.8617 330.858 45.3192 330.858 44.5264V43.8587Z" fill="#003399"/>
</svg>
