<svg width="139" height="141" viewBox="0 0 139 141" fill="none" xmlns="http://www.w3.org/2000/svg">
<mask id="mask0_660_23648" style="mask-type:alpha" maskUnits="userSpaceOnUse" x="16" y="16" width="116" height="96">
<path fill-rule="evenodd" clip-rule="evenodd" d="M16.3905 60.9782L107.198 16.7241L131.961 67.4547L41.1537 111.709L16.3905 60.9782Z" fill="white"/>
</mask>
<g mask="url(#mask0_660_23648)">
<path fill-rule="evenodd" clip-rule="evenodd" d="M106.547 79.837C120.58 72.9981 126.413 56.0976 119.575 42.0887C112.737 28.0799 95.8174 22.2674 81.7843 29.1063L16.386 60.9776L41.1401 111.69L106.547 79.837Z" fill="#F5A8B8"/>
</g>
<path fill-rule="evenodd" clip-rule="evenodd" d="M54.1609 73.9603C60.999 87.9692 55.1663 104.869 41.1334 111.708C27.1001 118.547 10.1804 112.735 3.34232 98.7263C-3.49573 84.7173 2.33688 67.8168 16.3703 60.9779C30.4036 54.139 47.3229 59.9515 54.1609 73.9603Z" fill="#9EDCF8"/>
<mask id="mask1_660_23648" style="mask-type:alpha" maskUnits="userSpaceOnUse" x="0" y="58" width="58" height="57">
<path fill-rule="evenodd" clip-rule="evenodd" d="M3.30812 98.7273C10.1462 112.737 27.0704 118.546 41.1083 111.705C55.1474 104.863 60.9843 87.9608 54.1463 73.952C47.3081 59.943 30.384 54.1326 16.3461 60.9741C2.30722 67.8157 -3.52994 84.7184 3.30812 98.7273Z" fill="white"/>
</mask>
<g mask="url(#mask1_660_23648)">
<path fill-rule="evenodd" clip-rule="evenodd" d="M-11.3288 92.357L42.6406 37.002L42.6014 40.767L-9.40068 97.0141L-11.3288 92.357Z" fill="#F5A8B8"/>
</g>
<mask id="mask2_660_23648" style="mask-type:alpha" maskUnits="userSpaceOnUse" x="0" y="58" width="58" height="57">
<path fill-rule="evenodd" clip-rule="evenodd" d="M3.30812 98.7273C10.1462 112.737 27.0704 118.546 41.1083 111.705C55.1474 104.863 60.9843 87.9608 54.1463 73.952C47.3081 59.943 30.384 54.1326 16.3461 60.9741C2.30722 67.8157 -3.52994 84.7184 3.30812 98.7273Z" fill="white"/>
</mask>
<g mask="url(#mask2_660_23648)">
<path fill-rule="evenodd" clip-rule="evenodd" d="M-6.93021 101.378L47.0391 46.0229L46.9998 49.788L-5.00207 106.035L-6.93021 101.378Z" fill="#F5A8B8"/>
</g>
<mask id="mask3_660_23648" style="mask-type:alpha" maskUnits="userSpaceOnUse" x="0" y="58" width="58" height="57">
<path fill-rule="evenodd" clip-rule="evenodd" d="M3.30812 98.7273C10.1462 112.737 27.0704 118.546 41.1083 111.705C55.1474 104.863 60.9843 87.9608 54.1463 73.952C47.3081 59.943 30.384 54.1326 16.3461 60.9741C2.30722 67.8157 -3.52994 84.7184 3.30812 98.7273Z" fill="white"/>
</mask>
<g mask="url(#mask3_660_23648)">
<path fill-rule="evenodd" clip-rule="evenodd" d="M-1.75034 110.453L52.2188 55.0986L52.1797 58.8636L0.177803 115.111L-1.75034 110.453Z" fill="#F5A8B8"/>
</g>
<mask id="mask4_660_23648" style="mask-type:alpha" maskUnits="userSpaceOnUse" x="0" y="58" width="58" height="57">
<path fill-rule="evenodd" clip-rule="evenodd" d="M3.30812 98.7273C10.1462 112.737 27.0704 118.546 41.1083 111.705C55.1474 104.863 60.9843 87.9608 54.1463 73.952C47.3081 59.943 30.384 54.1326 16.3461 60.9741C2.30722 67.8157 -3.52994 84.7184 3.30812 98.7273Z" fill="white"/>
</mask>
<g mask="url(#mask4_660_23648)">
<path fill-rule="evenodd" clip-rule="evenodd" d="M5.10894 120.541L59.0781 65.1865L59.039 68.9515L7.03708 125.198L5.10894 120.541Z" fill="#F5A8B8"/>
</g>
<mask id="mask5_660_23648" style="mask-type:alpha" maskUnits="userSpaceOnUse" x="0" y="58" width="58" height="57">
<path fill-rule="evenodd" clip-rule="evenodd" d="M3.30812 98.7273C10.1462 112.737 27.0704 118.546 41.1083 111.705C55.1474 104.863 60.9843 87.9608 54.1463 73.952C47.3081 59.943 30.384 54.1326 16.3461 60.9741C2.30722 67.8157 -3.52994 84.7184 3.30812 98.7273Z" fill="white"/>
</mask>
<g mask="url(#mask5_660_23648)">
<path fill-rule="evenodd" clip-rule="evenodd" d="M12.7894 131.551L66.7578 76.1958L66.7188 79.9608L14.7166 136.208L12.7894 131.551Z" fill="#F5A8B8"/>
</g>
<path fill-rule="evenodd" clip-rule="evenodd" d="M34.7986 84.7204C38.6673 84.7204 41.8144 89.6126 41.8144 95.6252C41.8144 101.638 38.6673 106.531 34.7986 106.531C30.9298 106.531 27.7827 101.638 27.7827 95.6252C27.7827 89.6126 30.9298 84.7204 34.7986 84.7204ZM34.7986 107.793C39.3641 107.793 43.0781 102.335 43.0781 95.6252C43.0781 88.9158 39.3641 83.4575 34.7986 83.4575C30.2331 83.4575 26.519 88.9158 26.519 95.6252C26.519 102.335 30.2331 107.793 34.7986 107.793Z" fill="#EDC829"/>
<path fill-rule="evenodd" clip-rule="evenodd" d="M36.8942 67.1231C37.5768 69.46 40.9773 70.7735 41.9754 72.9525C42.9866 75.1564 41.7544 78.5861 43.0628 80.6068C44.3707 82.6406 48.0049 82.9436 49.585 84.7627C51.1646 86.588 50.9498 90.2196 52.7763 91.8048C54.5966 93.3838 58.1673 92.6575 60.2025 93.9645C62.2246 95.2659 63.0403 98.8154 65.2457 99.8255C67.4262 100.823 70.6494 99.1184 72.9813 99.8006C75.2755 100.476 77.0639 103.653 79.4785 103.994C81.8419 104.329 84.446 101.79 86.8977 101.79C89.3504 101.79 91.954 104.329 94.3113 103.994C96.7254 103.653 98.5143 100.476 100.808 99.8006C103.147 99.1184 106.364 100.823 108.544 99.8255C110.75 98.8154 111.565 95.2659 113.587 93.9645C115.622 92.6509 119.193 93.3838 121.013 91.8048C122.84 90.2196 122.625 86.5814 124.211 84.7627C125.791 82.9375 129.419 82.6406 130.734 80.6068C132.035 78.5861 130.809 75.1564 131.814 72.9525C132.813 70.7735 136.213 69.46 136.902 67.1231C137.572 64.8304 135.423 61.8936 135.771 59.4745C136.105 57.1189 139 54.9023 139 52.4517C139 50.0012 136.105 47.7846 135.771 45.4285C135.423 43.0099 137.572 40.0731 136.902 37.7804C136.213 35.4435 132.813 34.1365 131.814 31.9509C130.809 29.747 132.035 26.3235 130.734 24.2967C129.419 22.2629 125.791 21.9659 124.211 20.1407C122.625 18.3215 122.84 14.6838 121.013 13.1047C119.193 11.5261 115.622 12.2525 113.587 10.9389C111.565 9.63749 110.75 6.08804 108.544 5.07794C106.364 4.08005 103.147 5.78501 100.808 5.10284C98.5143 4.42725 96.7254 1.25694 94.3113 0.909279C91.954 0.574771 89.3504 3.11365 86.8977 3.11365C85.6152 3.11365 84.2941 2.41879 82.9862 1.80615C81.7916 1.24426 80.6097 0.751421 79.4785 0.909279C77.0639 1.25694 75.2755 4.42725 72.9813 5.10284C70.6433 5.78501 67.4262 4.08005 65.2457 5.07794C63.0403 6.08804 62.2246 9.63749 60.2025 10.9389C58.1673 12.2525 54.5966 11.5261 52.7763 13.1047C50.9498 14.6838 51.1646 18.3215 49.585 20.1468C48.0049 21.9659 44.3707 22.269 43.0628 24.3028C41.7544 26.3235 42.9866 29.747 41.9754 31.9509C40.9773 34.1365 37.5768 35.4435 36.8942 37.7804C36.8561 37.9128 36.8251 38.0458 36.8058 38.1844C36.4584 40.4141 38.3478 43.1489 38.0192 45.4285C37.6845 47.7846 34.796 50.0012 34.796 52.4517C34.796 54.9023 37.6845 57.1189 38.0192 59.4745C38.3666 61.8936 36.2181 64.8304 36.8942 67.1231Z" fill="#363636"/>
<path fill-rule="evenodd" clip-rule="evenodd" d="M55.0172 67.8197L48.905 119.775C47.6982 130.036 55.0431 139.332 65.3109 140.538C75.5781 141.745 84.8807 134.405 86.088 124.144C86.214 123.07 86.238 121.904 86.1834 120.859L83.1055 68.6367C82.6475 60.8655 75.9726 54.9369 68.1961 55.395C61.262 55.8028 55.7953 61.1563 55.0172 67.8197Z" fill="#DE8857"/>
<path fill-rule="evenodd" clip-rule="evenodd" d="M51.0951 101.285C51.0951 101.285 54.6262 100.739 60.4517 97.7472C61.1644 97.3817 61.8682 98.2475 61.3558 98.8625L49.8111 112.201L51.0951 101.285Z" fill="#363636"/>
<path fill-rule="evenodd" clip-rule="evenodd" d="M96.0546 59.5523C95.1801 65.075 94.6644 64.7973 93.939 68.1039C93.8238 68.6394 93.6748 69.1746 93.4985 69.7031C91.7148 75.036 87.036 80.0235 82.7164 83.4113C82.7164 83.4113 65.7577 98.475 50.9075 101.45C45.0896 102.615 39.5834 101.924 35.5557 97.7299C22.6176 84.2382 38.3018 58.3529 44.4319 49.3879C44.5132 49.2591 44.5945 49.1234 44.6825 48.9951C46.1201 46.7113 47.924 44.6582 50.0053 42.9232C50.9823 42.11 51.9587 41.3916 52.9686 40.7752C54.9422 39.5556 57.0376 38.6949 59.4649 38.1259C63.0521 37.292 66.775 37.0552 70.443 37.292C71.4806 37.3531 72.5182 37.4616 73.5558 37.5974C79.9092 38.4445 86.9274 39.9958 91.5723 44.7189C94.5765 47.7684 96.1359 51.7661 96.2784 55.9267C96.3188 57.1262 96.2445 58.3392 96.0546 59.5523Z" fill="#DE8857"/>
<path fill-rule="evenodd" clip-rule="evenodd" d="M81.0292 78.334C81.3658 84.1419 86.3507 88.5769 92.1625 88.2405C97.9743 87.9037 102.413 82.9222 102.076 77.1144C101.739 71.3065 96.7543 66.8715 90.942 67.2079C85.1307 67.5447 80.6921 72.5262 81.0292 78.334Z" fill="#DE8857"/>
<path fill-rule="evenodd" clip-rule="evenodd" d="M87.7717 79.0329C87.8591 79.0329 87.948 79.016 88.0335 78.9803L96.3102 75.515C96.6558 75.3707 96.8185 74.9738 96.6737 74.6284C96.5289 74.2831 96.1321 74.1206 95.7865 74.2653L87.5093 77.7301C87.1642 77.8749 87.0011 78.2718 87.1459 78.6172C87.255 78.8765 87.507 79.0329 87.7717 79.0329Z" fill="#363636"/>
<path fill-rule="evenodd" clip-rule="evenodd" d="M92.9235 80.486C93.0039 80.486 93.0857 80.4714 93.1652 80.4414C93.515 80.3075 93.6903 79.9161 93.5568 79.5666L92.3678 76.4569C92.2348 76.1073 91.8436 75.9321 91.4929 76.066C91.1427 76.1994 90.9673 76.5908 91.1013 76.9408L92.2898 80.05C92.3932 80.3201 92.6504 80.486 92.9235 80.486Z" fill="#363636"/>
<path fill-rule="evenodd" clip-rule="evenodd" d="M36.8149 38.1842C37.4909 38.4624 38.1547 38.7466 38.7048 39.1633C40.0823 40.1988 40.9036 42.1946 42.4776 42.9904C44.007 43.7675 46.0991 43.2493 47.7991 43.7675C49.4991 44.2853 50.9467 45.877 52.6528 46.0851C54.4036 46.2998 56.1919 45.0999 57.9173 45.0116C59.6742 44.9167 61.583 45.9146 63.2703 45.5166C64.8123 45.1568 66.0008 43.7041 67.391 42.9275C67.5424 42.8387 67.6882 42.7631 67.8461 42.7001C69.4512 42.0179 71.5875 42.3022 73.0538 41.355C74.5136 40.4013 75.1139 38.336 76.3969 37.1422C77.6673 35.9611 79.772 35.5063 80.8275 34.1044C81.8637 32.7212 81.7245 30.5737 82.5209 29.0013C83.2985 27.4729 85.1245 26.3233 85.637 24.6245C86.1551 22.9256 85.283 20.9552 85.4912 19.2498C85.7066 17.5008 87.0272 15.7953 86.9327 14.0772C86.8631 12.7702 86.0159 11.5764 85.4282 10.3577C85.2195 9.94051 85.0488 9.51768 84.9478 9.08169C84.5496 7.37673 85.2073 5.32365 84.5242 3.72581C84.2087 2.98726 83.6271 2.38731 82.9953 1.80615C81.8007 1.24378 80.6188 0.751412 79.4876 0.90927C77.073 1.25646 75.2846 4.42724 72.9903 5.10283C70.6524 5.785 67.4352 4.07958 65.2547 5.07746C63.0493 6.08803 62.2337 9.63748 60.2116 10.9384C58.1764 12.252 54.6057 11.5261 52.7853 13.1047C50.9589 14.6838 51.1737 18.3215 49.5941 20.1467C48.014 21.9658 44.3798 22.2688 43.0719 24.3026C41.7635 26.3233 42.9957 29.7464 41.9845 31.9508C40.9864 34.1359 37.5859 35.4433 36.9032 37.7802C36.8652 37.9127 36.8341 38.0452 36.8149 38.1842Z" fill="#363636"/>
<path fill-rule="evenodd" clip-rule="evenodd" d="M84.1157 85.2117C84.1157 85.2117 82.6908 84.3628 81.6644 82.8594C81.5084 82.6306 81.1539 82.6959 81.1003 82.9679C80.735 84.8246 80.4078 89.7384 84.6094 93.7835L84.1157 85.2117Z" fill="#363636"/>
<path fill-rule="evenodd" clip-rule="evenodd" d="M67.1857 31.6963C67.0367 30.6622 66.8862 29.6174 67.1782 28.6594C67.4706 27.701 68.1782 26.9173 68.8787 26.1417C69.4198 25.5427 69.9571 24.9479 70.2952 24.2812C70.6478 23.5859 70.817 22.7787 70.9853 21.9758C71.1983 20.9606 71.4099 19.9509 71.9891 19.1811C72.5833 18.3916 73.51 17.9018 74.4333 17.414C75.1512 17.0345 75.8667 16.6563 76.4215 16.1391C76.9852 15.6138 77.4177 14.9192 77.8493 14.2252C78.3989 13.3427 78.9475 12.4612 79.7642 11.9305C80.5845 11.3977 81.6156 11.2539 82.6461 11.1101C83.4552 10.9972 84.2638 10.8844 84.97 10.5835C85.6728 10.2842 86.3117 9.78095 86.9516 9.27693C87.7701 8.63239 88.5905 7.98649 89.5472 7.76371C90.4922 7.54374 91.5058 7.75891 92.5227 7.97479C93.3238 8.14486 94.1268 8.31531 94.8997 8.27392C95.6524 8.23375 96.4178 7.98236 97.1869 7.72964C98.1803 7.40336 99.1798 7.07491 100.168 7.19617C101.116 7.31268 101.985 7.85612 102.861 8.40458C103.561 8.8423 104.266 9.28323 105.02 9.51282C105.775 9.74242 106.606 9.76901 107.431 9.79547C108.465 9.82854 109.489 9.86133 110.341 10.2927C111.229 10.7424 111.876 11.5722 112.519 12.3964C113.016 13.0345 113.511 13.6693 114.113 14.1217C114.732 14.5869 115.494 14.8927 116.254 15.1977C117.219 15.5849 118.18 15.9708 118.842 16.6798C119.512 17.3977 119.833 18.3906 120.153 19.3815C120.403 20.1567 120.653 20.9305 121.069 21.5708C121.488 22.214 122.096 22.7581 122.705 23.3026C123.48 23.996 124.256 24.6895 124.64 25.5887C125.022 26.4842 124.985 27.5215 124.949 28.5598C124.921 29.3768 124.893 30.1948 125.068 30.945C125.24 31.6836 125.623 32.3963 126.007 33.1114C126.501 34.0308 126.997 34.9535 127.05 35.9401C127.102 36.9023 126.714 37.8579 126.325 38.8196C126.017 39.5798 125.707 40.3437 125.612 41.117C125.521 41.8598 125.635 42.6528 125.75 43.452C125.899 44.4865 126.049 45.5309 125.757 46.4888C125.465 47.4468 124.758 48.23 124.057 49.0056C123.516 49.6051 122.979 50.1999 122.64 50.8675C122.287 51.5628 122.118 52.3695 121.95 53.1729C121.737 54.1877 121.525 55.1969 120.946 55.9674C120.352 56.7562 119.426 57.2457 118.503 57.7334C117.785 58.113 117.069 58.4917 116.514 59.0089C115.95 59.5347 115.518 60.229 115.086 60.923C114.537 61.8057 113.988 62.6871 113.171 63.2175C112.351 63.7503 111.32 63.8945 110.289 64.0383C109.48 64.1511 108.672 64.2638 107.965 64.565C107.263 64.8638 106.624 65.3674 105.983 65.871C105.165 66.5156 104.345 67.1611 103.388 67.3838C102.443 67.6042 101.43 67.389 100.413 67.1729C99.6119 67.0028 98.8084 66.8323 98.035 66.8741C97.2833 66.914 96.5184 67.1654 95.7492 67.4181C94.7558 67.7442 93.7559 68.0731 92.7676 67.9518C92.1536 67.8762 91.5725 67.6211 91.0009 67.3021C90.8612 67.3232 90.7061 67.3439 90.5378 67.366C88.3681 67.6559 83.9841 68.2417 81.3067 73.4238L79.5681 76.727C78.7538 78.3554 76.8305 79.101 75.1263 78.4447C73.7229 77.9044 72.8607 76.5631 72.8607 75.1475C72.8607 74.751 72.9293 74.347 73.0662 73.957C73.0662 73.957 74.2344 68.0247 77.5348 60.3042C77.2551 60.1802 76.9683 60.0651 76.6815 59.95C75.7168 59.5628 74.7553 59.1771 74.0934 58.4682C73.4235 57.7503 73.1028 56.7571 72.7831 55.7663C72.533 54.9911 72.2829 54.2173 71.8664 53.5774C71.4479 52.9342 70.8396 52.3902 70.2308 51.8457C69.4555 51.1522 68.6793 50.4583 68.2957 49.5596C67.9139 48.6636 67.9501 47.6267 67.9863 46.5885C68.0145 45.771 68.0432 44.9535 67.8679 44.2027C67.6958 43.4642 67.3126 42.7515 66.9285 42.0364C66.4344 41.117 65.9384 40.1943 65.8853 39.2081C65.8341 38.246 66.2214 37.2904 66.6112 36.3287C66.9191 35.568 67.229 34.8041 67.3239 34.0308C67.4151 33.288 67.3009 32.4954 67.1857 31.6963Z" fill="#363636"/>
<path fill-rule="evenodd" clip-rule="evenodd" d="M91.9939 84.7204C95.8626 84.7204 99.0097 89.6126 99.0097 95.6252C99.0097 101.638 95.8626 106.531 91.9939 106.531C88.1251 106.531 84.9781 101.638 84.9781 95.6252C84.9781 89.6126 88.1251 84.7204 91.9939 84.7204ZM91.9939 107.793C96.5594 107.793 100.273 102.335 100.273 95.6252C100.273 88.9158 96.5594 83.4575 91.9939 83.4575C87.4284 83.4575 83.7143 88.9158 83.7143 95.6252C83.7143 102.335 87.4284 107.793 91.9939 107.793Z" fill="#EDC829"/>
<path fill-rule="evenodd" clip-rule="evenodd" d="M89.7009 84.0881C89.7009 85.3609 90.7334 86.3926 92.0065 86.3926C93.2801 86.3926 94.3125 85.3609 94.3125 84.0881C94.3125 82.8154 93.2801 81.7837 92.0065 81.7837C90.7334 81.7837 89.7009 82.8154 89.7009 84.0881Z" fill="#EDC829"/>
<path fill-rule="evenodd" clip-rule="evenodd" d="M27.6463 69.1785C27.6463 69.1785 31.1453 73.505 36.8354 73.3022C39.2469 73.2123 42.0536 72.3202 45.1406 69.9239C45.1406 69.9239 42.1335 66.473 37.1285 66.1394C34.4761 65.9541 31.2691 66.6359 27.6463 69.1785Z" fill="white"/>
<path fill-rule="evenodd" clip-rule="evenodd" d="M27.6511 69.1785C27.6511 69.1785 31.1502 73.505 36.8403 73.3022C37.6395 72.3367 38.1246 71.1293 38.182 69.7836C38.2394 68.4375 37.8479 67.1689 37.1333 66.1394C34.481 65.9541 31.2739 66.6359 27.6511 69.1785Z" fill="#363636"/>
<path d="M49.8913 66.6255C49.5369 66.5282 49.1713 66.7187 49.0434 67.0555L49.0223 67.1203L46.0876 77.8128C45.5599 79.7348 46.9739 81.6311 48.9469 81.693L49.055 81.6946L51.4981 81.6875C51.8886 81.6864 52.2043 81.3688 52.2031 80.9783C52.202 80.6094 51.9188 80.3073 51.5584 80.2758L51.494 80.2731L49.0511 80.2802C47.9867 80.2831 47.2048 79.2979 47.4302 78.2728L47.4513 78.1872L50.386 67.4946C50.4893 67.118 50.2678 66.7289 49.8913 66.6255Z" fill="#363636"/>
<path d="M42.7635 60.7001C38.5656 59.0551 33.8477 59.065 29.0902 61.8313C28.7529 62.0276 28.6381 62.4604 28.8342 62.7981C29.0309 63.1357 29.4637 63.2503 29.801 63.054C34.1472 60.5269 38.422 60.5179 42.2476 62.017C42.8007 62.2337 43.2925 62.4654 43.7159 62.6959L43.9369 62.8195C44.0658 62.8938 44.1573 62.951 44.2094 62.9862C44.5329 63.2049 44.9725 63.1199 45.1912 62.7963C45.4098 62.4727 45.3248 62.0331 45.0013 61.8144L44.9116 61.7558C44.7914 61.6796 44.6172 61.5762 44.392 61.4536C43.9184 61.1958 43.3735 60.9391 42.7635 60.7001Z" fill="#363636"/>
<path fill-rule="evenodd" clip-rule="evenodd" d="M52.2712 69.1785C52.2712 69.1785 55.7703 73.505 61.4604 73.3022C63.8719 73.2123 66.6786 72.3202 69.7656 69.9239C69.7656 69.9239 66.759 66.473 61.7535 66.1394C59.1011 65.9541 55.8941 66.6359 52.2712 69.1785Z" fill="white"/>
<path fill-rule="evenodd" clip-rule="evenodd" d="M52.2682 69.1785C52.2682 69.1785 55.7674 73.505 61.4574 73.3022C62.2567 72.3367 62.7418 71.1293 62.7991 69.7836C62.8565 68.4375 62.4651 67.1689 61.7505 66.1394C59.0982 65.9541 55.8911 66.6359 52.2682 69.1785Z" fill="#363636"/>
<path d="M69.5857 61.8313C64.8286 59.065 60.1106 59.0551 55.9126 60.7001C55.3026 60.9391 54.7577 61.1958 54.2841 61.4536L54.1036 61.5538C53.9077 61.6647 53.7638 61.7542 53.6747 61.8144C53.3512 62.0331 53.2662 62.4727 53.4848 62.7963C53.7035 63.1199 54.143 63.2049 54.4666 62.9862L54.5741 62.9175C54.665 62.8616 54.7944 62.7861 54.9602 62.6959C55.3836 62.4654 55.8754 62.2337 56.4285 62.017C60.2542 60.5179 64.529 60.5269 68.8749 63.054C69.2125 63.2503 69.6453 63.1357 69.8416 62.7981C70.0379 62.4604 69.9233 62.0276 69.5857 61.8313Z" fill="#363636"/>
<path d="M55.9185 83.143C55.5719 83.0207 55.1938 83.1848 55.0422 83.5116L54.9925 83.6357C54.9658 83.6988 54.9222 83.7914 54.8607 83.9056C54.7125 84.1807 54.5225 84.4569 54.2888 84.7132C53.5183 85.5586 52.4743 85.9968 51.048 85.8268C50.6602 85.7806 50.3084 86.0576 50.2622 86.4454C50.216 86.8332 50.4929 87.1851 50.8806 87.2313C52.7832 87.458 54.2691 86.8344 55.3339 85.6661C55.8778 85.0693 56.1997 84.472 56.3502 84.0451C56.4801 83.6767 56.2868 83.2728 55.9185 83.143Z" fill="#363636"/>
<path opacity="0.01" d="M60.8687 81.3058C58.566 79.6438 55.8256 79.36 52.8017 80.4175C49.6861 81.5064 47.5554 82.4562 46.4718 85.954C46.2414 86.6976 46.6579 87.4868 47.4022 87.717C48.1459 87.9472 48.9362 87.531 49.1666 86.7874C49.995 84.1126 51.4966 83.8594 53.733 83.0777C55.9238 82.312 57.7 82.4957 59.2167 83.5907C59.848 84.0463 60.7296 83.9045 61.1856 83.2736C61.6421 82.6427 61.5001 81.7619 60.8687 81.3058Z" fill="#363636"/>
</svg>
