<svg width="223" height="208" viewBox="0 0 223 208" fill="none" xmlns="http://www.w3.org/2000/svg">
<path fill-rule="evenodd" clip-rule="evenodd" d="M29.1562 200.645L222.379 106.629L52.6484 4.07861L29.1562 200.645Z" fill="#F5A8B8"/>
<path fill-rule="evenodd" clip-rule="evenodd" d="M62.4582 91.9653L44.2259 74.813L31.8125 178.058L40.8805 194.629L131.645 150.408L129.425 50.2817L61.0147 8.9751L62.4582 91.9653Z" fill="#9EDCF8"/>
<path fill-rule="evenodd" clip-rule="evenodd" d="M145.165 144.123L213.422 110.873L204.441 95.5825L134.172 53.3247L145.165 144.123Z" fill="#9EDCF8"/>
<path fill-rule="evenodd" clip-rule="evenodd" d="M137.987 45.1192C137.987 69.5956 118.131 89.438 93.6381 89.438C69.1442 89.438 49.2891 69.5956 49.2891 45.1192C49.2891 20.6429 69.1442 0.800293 93.6381 0.800293C118.131 0.800293 137.987 20.6429 137.987 45.1192Z" fill="#363636"/>
<path fill-rule="evenodd" clip-rule="evenodd" d="M163.714 67.2177C163.714 91.6941 143.858 111.536 119.365 111.536C94.8715 111.536 75.0156 91.6941 75.0156 67.2177C75.0156 42.7413 94.8715 22.8989 119.365 22.8989C143.858 22.8989 163.714 42.7413 163.714 67.2177Z" fill="#363636"/>
<path fill-rule="evenodd" clip-rule="evenodd" d="M97.6043 61.6377C97.6043 86.1141 77.7484 105.956 53.2553 105.956C28.7614 105.956 8.90625 86.1141 8.90625 61.6377C8.90625 37.1613 28.7614 17.3188 53.2553 17.3188C77.7484 17.3188 97.6043 37.1613 97.6043 61.6377Z" fill="#363636"/>
<path fill-rule="evenodd" clip-rule="evenodd" d="M88.7918 94.1766C88.7918 118.653 68.9366 138.495 44.4428 138.495C19.9496 138.495 0.09375 118.653 0.09375 94.1766C0.09375 69.7003 19.9496 49.8579 44.4428 49.8579C68.9366 49.8579 88.7918 69.7003 88.7918 94.1766Z" fill="#363636"/>
<path fill-rule="evenodd" clip-rule="evenodd" d="M121.979 119.808C121.979 144.284 102.123 164.127 77.6303 164.127C53.1371 164.127 33.2812 144.284 33.2812 119.808C33.2812 95.3316 53.1371 75.4893 77.6303 75.4893C102.123 75.4893 121.979 95.3316 121.979 119.808Z" fill="#363636"/>
<path fill-rule="evenodd" clip-rule="evenodd" d="M154.365 141.938C148.244 148.312 139.876 149.363 131.034 147.591C108.466 143.071 82.6927 120.178 82.6927 120.178C77.5812 116.172 72.1402 110.683 68.7086 104.628L68.5334 104.309C67.6268 102.692 66.8745 101.024 66.3075 99.3449C66.0396 98.5417 65.8129 97.7283 65.6377 96.915C64.5348 91.8894 63.7521 92.3113 62.4226 83.9188C60.5776 72.2815 65.4422 61.9837 75.8708 56.3612C89.9164 48.7813 108.116 46.8355 123.12 53.2301C123.16 53.2511 123.202 53.2612 123.243 53.2815C140.948 60.9128 150.263 81.0663 156.827 98.0062C162.197 111.857 165.803 130.023 154.365 141.938Z" fill="#FFDDBA"/>
<path fill-rule="evenodd" clip-rule="evenodd" d="M123.366 95.5262L132.78 175.549C134.639 191.353 123.326 205.671 107.511 207.529C91.6972 209.387 77.3699 198.082 75.5104 182.278C75.3156 180.624 75.2786 178.828 75.3626 177.219L80.1034 96.7845C80.8087 84.8152 91.0904 75.6838 103.067 76.3894C113.747 77.0175 122.167 85.2631 123.366 95.5262Z" fill="#FFDDBA"/>
<path fill-rule="evenodd" clip-rule="evenodd" d="M129.575 147.009C129.575 147.009 122.892 145.894 114.038 141.348C112.956 140.791 111.886 142.108 112.665 143.042L131.566 165.187L129.575 147.009Z" fill="#363636"/>
<path fill-rule="evenodd" clip-rule="evenodd" d="M78.3714 124.646C78.3714 124.646 80.5017 123.376 82.0361 121.129C82.27 120.786 82.8001 120.884 82.8797 121.291C83.4257 124.067 83.9145 131.414 77.6328 137.463L78.3714 124.646Z" fill="#363636"/>
<path fill-rule="evenodd" clip-rule="evenodd" d="M85.2699 112.463C84.758 121.29 77.183 128.03 68.3503 127.518C59.5176 127.006 52.7732 119.436 53.2851 110.61C53.7971 101.783 61.372 95.0435 70.2048 95.5551C79.0375 96.0667 85.7826 103.637 85.2699 112.463Z" fill="#FFDDBA"/>
<path fill-rule="evenodd" clip-rule="evenodd" d="M75.0153 113.526C74.8821 113.526 74.7474 113.5 74.6178 113.446L62.0392 108.18C61.5135 107.96 61.2666 107.357 61.4867 106.833C61.7069 106.307 62.3108 106.061 62.835 106.281L75.4136 111.546C75.9386 111.766 76.1862 112.369 75.9661 112.894C75.8003 113.289 75.4179 113.526 75.0153 113.526Z" fill="#363636"/>
<path fill-rule="evenodd" clip-rule="evenodd" d="M67.1944 115.734C67.0728 115.734 66.9482 115.713 66.8273 115.666C66.2951 115.463 66.0293 114.868 66.2321 114.337L68.0387 109.612C68.2422 109.081 68.8367 108.814 69.3689 109.017C69.9004 109.22 70.1669 109.815 69.9641 110.346L68.1575 115.071C68.0004 115.482 67.6093 115.734 67.1944 115.734Z" fill="#363636"/>
<path fill-rule="evenodd" clip-rule="evenodd" d="M70.2939 41.8359C85.3894 41.8359 97.6269 54.0651 97.6269 69.1504C97.6269 76.1774 94.9716 82.5844 90.6089 87.4246C93.0455 93.4987 94.7986 99.2486 95.8666 104.675C96.0773 105.276 96.1831 105.897 96.1831 106.509C96.1831 108.689 94.855 110.754 92.6936 111.586C90.1273 112.574 87.2381 111.499 85.9383 109.106L85.8522 108.941L83.1744 103.854C81.7587 99.8586 77.9883 97.3375 75.2519 96.0147C73.6443 96.3107 71.9876 96.4648 70.2939 96.4648C55.1983 96.4648 42.9609 84.2356 42.9609 69.1504C42.9609 54.0651 55.1983 41.8359 70.2939 41.8359Z" fill="#363636"/>
<path fill-rule="evenodd" clip-rule="evenodd" d="M135.065 45.1188C135.065 60.2041 122.827 72.4333 107.732 72.4333C92.6359 72.4333 80.3984 60.2041 80.3984 45.1188C80.3984 30.0336 92.6359 17.8042 107.732 17.8042C122.827 17.8042 135.065 30.0336 135.065 45.1188Z" fill="#363636"/>
<path fill-rule="evenodd" clip-rule="evenodd" d="M126.676 99.3028C126.676 99.3028 121.704 105.95 113.212 105.969C109.612 105.971 105.378 104.8 100.641 101.402C100.641 101.402 104.928 96.0887 112.37 95.3082C116.313 94.8821 121.131 95.7177 126.676 99.3028Z" fill="white"/>
<path fill-rule="evenodd" clip-rule="evenodd" d="M126.669 99.3028C126.669 99.3028 121.698 105.95 113.205 105.969C111.959 104.575 111.167 102.803 111.006 100.8C110.845 98.797 111.356 96.8837 112.363 95.3082C116.306 94.8821 121.125 95.7177 126.669 99.3028Z" fill="#363636"/>
<mask id="mask0_660_23256" style="mask-type:alpha" maskUnits="userSpaceOnUse" x="135" y="93" width="27" height="11">
<path fill-rule="evenodd" clip-rule="evenodd" d="M135.969 93.0444H162.004V103.807H135.969V93.0444Z" fill="white"/>
</mask>
<g mask="url(#mask0_660_23256)">
<path fill-rule="evenodd" clip-rule="evenodd" d="M162.004 97.1407C162.004 97.1407 157.033 103.788 148.539 103.807C144.94 103.809 140.706 102.638 135.969 99.2402C135.969 99.2402 140.256 93.9266 147.698 93.1461C151.641 92.72 156.459 93.5556 162.004 97.1407Z" fill="white"/>
</g>
<mask id="mask1_660_23256" style="mask-type:alpha" maskUnits="userSpaceOnUse" x="146" y="93" width="17" height="11">
<path fill-rule="evenodd" clip-rule="evenodd" d="M146.312 93.0444H162.005V103.807H146.312V93.0444Z" fill="white"/>
</mask>
<g mask="url(#mask1_660_23256)">
<path fill-rule="evenodd" clip-rule="evenodd" d="M162.005 97.1407C162.005 97.1407 157.034 103.788 148.54 103.807C147.295 102.413 146.503 100.641 146.342 98.6379C146.181 96.6348 146.692 94.7216 147.699 93.1461C151.642 92.72 156.461 93.5556 162.005 97.1407Z" fill="#363636"/>
</g>
<path fill-rule="evenodd" clip-rule="evenodd" d="M129.441 116.491C128.82 116.491 128.315 115.989 128.313 115.366C128.31 114.743 128.814 114.235 129.438 114.233L133.081 114.22C133.835 114.217 134.529 113.871 134.983 113.269C135.437 112.666 135.581 111.905 135.377 111.178L130.898 95.2561C130.73 94.6561 131.079 94.0321 131.68 93.8633C132.279 93.6944 132.903 94.0444 133.072 94.6445L137.55 110.566C137.947 111.978 137.668 113.459 136.785 114.629C135.903 115.799 134.555 116.473 133.089 116.478L129.446 116.491H129.441Z" fill="#363636"/>
<mask id="mask2_660_23256" style="mask-type:alpha" maskUnits="userSpaceOnUse" x="99" y="84" width="26" height="7">
<path fill-rule="evenodd" clip-rule="evenodd" d="M99.9219 84.603H124.767V90.5928H99.9219V84.603Z" fill="white"/>
</mask>
<g mask="url(#mask2_660_23256)">
<path fill-rule="evenodd" clip-rule="evenodd" d="M101.052 90.5928C100.709 90.5928 100.371 90.4377 100.149 90.1427C99.7738 89.6448 99.8738 88.9368 100.372 88.5614C100.804 88.2353 111.121 80.6549 124.155 87.3678C124.709 87.6526 124.927 88.3339 124.642 88.8883C124.356 89.4427 123.675 89.6608 123.121 89.3753C111.335 83.3051 101.825 90.2942 101.73 90.3652C101.527 90.5188 101.288 90.5928 101.052 90.5928Z" fill="#363636"/>
</g>
<path fill-rule="evenodd" clip-rule="evenodd" d="M137.951 88.7214C137.59 88.7214 137.236 88.5489 137.017 88.2293C136.666 87.7147 136.797 87.0139 137.311 86.6617C137.757 86.3552 148.403 79.2444 161.123 86.5335C161.665 86.8436 161.851 87.5336 161.541 88.0749C161.231 88.6155 160.541 88.8032 160.001 88.4931C148.541 81.9258 138.986 88.2532 138.585 88.5257C138.391 88.6583 138.17 88.7214 137.951 88.7214Z" fill="#363636"/>
<path fill-rule="evenodd" clip-rule="evenodd" d="M127.586 119.921V122.622C127.586 123.171 127.47 123.699 127.238 124.163C126.668 125.397 125.413 126.252 123.957 126.252C121.953 126.252 120.328 124.627 120.328 122.622V119.921C120.328 119.077 121.014 118.392 121.858 118.392H126.056C126.9 118.392 127.586 119.077 127.586 119.921Z" fill="#363636"/>
<mask id="mask3_660_23256" style="mask-type:alpha" maskUnits="userSpaceOnUse" x="120" y="121" width="8" height="6">
<path fill-rule="evenodd" clip-rule="evenodd" d="M120.312 121.652H127.222V126.252H120.312V121.652Z" fill="white"/>
</mask>
<g mask="url(#mask3_660_23256)">
<path fill-rule="evenodd" clip-rule="evenodd" d="M127.222 124.163C126.653 125.397 125.397 126.252 123.941 126.252C121.937 126.252 120.312 124.628 120.312 122.622V122.063C120.977 121.8 121.694 121.652 122.444 121.652C124.427 121.652 126.178 122.644 127.222 124.163Z" fill="#F74BAD"/>
</g>
<path opacity="0.01" d="M114.65 115.993C118.197 113.433 122.418 112.996 127.075 114.625C131.874 116.302 135.156 117.765 136.825 123.152C137.179 124.298 136.538 125.513 135.392 125.868C134.246 126.222 133.029 125.581 132.674 124.436C131.398 120.316 129.085 119.926 125.641 118.722C122.266 117.543 119.531 117.826 117.195 119.512C116.222 120.214 114.864 119.995 114.162 119.024C113.459 118.052 113.678 116.695 114.65 115.993Z" fill="#363636"/>
</svg>
