<svg width="138" height="140" viewBox="0 0 138 140" fill="none" xmlns="http://www.w3.org/2000/svg">
<path fill-rule="evenodd" clip-rule="evenodd" d="M131.427 35.7204C146.456 66.5116 133.636 103.658 102.794 118.689C71.9516 133.722 34.7657 120.946 19.7367 90.1553C4.7077 59.3636 17.5269 22.2168 48.3692 7.18506C79.2114 -7.84648 116.398 4.92916 131.427 35.7204Z" fill="#9EDCF8"/>
<mask id="mask0_660_23316" style="mask-type:alpha" maskUnits="userSpaceOnUse" x="13" y="0" width="125" height="126">
<path fill-rule="evenodd" clip-rule="evenodd" d="M19.6468 90.2822C34.6844 121.089 71.8897 133.871 102.748 118.834C133.605 103.795 146.43 66.6313 131.392 35.8244C116.355 5.01795 79.1495 -7.76459 48.2922 7.27333C17.4343 22.3117 4.60937 59.4758 19.6468 90.2822Z" fill="white"/>
</mask>
<g mask="url(#mask0_660_23316)">
<path fill-rule="evenodd" clip-rule="evenodd" d="M14.4844 1.77558L18.3007 40.3563L24.1004 38.0252L28.5717 50.3887L30.8122 30.1754L35.672 38.5203L35.6739 38.1735L35.7296 27.7929L40.8473 -8.45361L14.4844 1.77558Z" fill="#F5A8B8"/>
</g>
<mask id="mask1_660_23316" style="mask-type:alpha" maskUnits="userSpaceOnUse" x="13" y="0" width="125" height="126">
<path fill-rule="evenodd" clip-rule="evenodd" d="M19.6468 90.2822C34.6844 121.089 71.8897 133.871 102.748 118.834C133.605 103.795 146.43 66.6313 131.392 35.8244C116.355 5.01795 79.1495 -7.76459 48.2922 7.27333C17.4343 22.3117 4.60937 59.4758 19.6468 90.2822Z" fill="white"/>
</mask>
<g mask="url(#mask1_660_23316)">
<path fill-rule="evenodd" clip-rule="evenodd" d="M52.5778 -4.74965L40.9865 48.8895L7.92969 83.971L34.8574 121.681L80.4103 -14.6191L52.5778 -4.74965Z" fill="#F5A8B8"/>
</g>
<mask id="mask2_660_23316" style="mask-type:alpha" maskUnits="userSpaceOnUse" x="13" y="0" width="125" height="126">
<path fill-rule="evenodd" clip-rule="evenodd" d="M19.6468 90.2822C34.6844 121.089 71.8897 133.871 102.748 118.834C133.605 103.795 146.43 66.6313 131.392 35.8244C116.355 5.01795 79.1495 -7.76459 48.2922 7.27333C17.4343 22.3117 4.60937 59.4758 19.6468 90.2822Z" fill="white"/>
</mask>
<g mask="url(#mask2_660_23316)">
<path fill-rule="evenodd" clip-rule="evenodd" d="M99.6332 -9.20068L57.9971 30.8207L49.7578 67.1676L98.9717 13.6593L80.9225 134.15L111.437 128.178L120.667 1.96209L99.6332 -9.20068Z" fill="#F5A8B8"/>
</g>
<mask id="mask3_660_23316" style="mask-type:alpha" maskUnits="userSpaceOnUse" x="13" y="0" width="125" height="126">
<path fill-rule="evenodd" clip-rule="evenodd" d="M19.6468 90.2822C34.6844 121.089 71.8897 133.871 102.748 118.834C133.605 103.795 146.43 66.6313 131.392 35.8244C116.355 5.01795 79.1495 -7.76459 48.2922 7.27333C17.4343 22.3117 4.60937 59.4758 19.6468 90.2822Z" fill="white"/>
</mask>
<g mask="url(#mask3_660_23316)">
<path fill-rule="evenodd" clip-rule="evenodd" d="M31.6328 119.215L130.698 17.1553L137.788 32.8643L45.1157 137.368L31.6328 119.215Z" fill="#F5A8B8"/>
</g>
<mask id="mask4_660_23316" style="mask-type:alpha" maskUnits="userSpaceOnUse" x="13" y="0" width="125" height="126">
<path fill-rule="evenodd" clip-rule="evenodd" d="M19.6468 90.2822C34.6844 121.089 71.8897 133.871 102.748 118.834C133.605 103.795 146.43 66.6313 131.392 35.8244C116.355 5.01795 79.1495 -7.76459 48.2922 7.27333C17.4343 22.3117 4.60937 59.4758 19.6468 90.2822Z" fill="white"/>
</mask>
<g mask="url(#mask4_660_23316)">
<path fill-rule="evenodd" clip-rule="evenodd" d="M144.15 53.4834L62.6094 133.85L95.0127 134.874L159.849 87.1524L144.15 53.4834Z" fill="#F5A8B8"/>
</g>
<path fill-rule="evenodd" clip-rule="evenodd" d="M83.2444 57.27L90.1718 116.154C91.5401 127.783 83.2151 138.319 71.578 139.686C59.9414 141.054 49.3983 132.735 48.03 121.106C47.8872 119.889 47.86 118.567 47.9218 117.383L51.4103 58.196C51.9292 49.3884 59.4949 42.6692 68.308 43.1883C76.1673 43.6505 82.3625 49.718 83.2444 57.27Z" fill="#DE8857"/>
<path fill-rule="evenodd" clip-rule="evenodd" d="M106.243 91.594C101.732 96.292 95.564 97.0662 89.0474 95.7611C72.414 92.4289 53.4174 75.556 53.4174 75.556C49.6503 72.6035 45.6407 68.5583 43.1113 64.0951L42.9818 63.8598C42.3142 62.6681 41.759 61.4386 41.3413 60.2017C41.1441 59.6096 40.9768 59.01 40.8478 58.4105C40.8324 58.3498 40.8255 58.2965 40.8095 58.2433C40.0198 54.7141 39.4428 54.9191 38.4778 48.8319C37.1185 40.2549 40.7035 32.6645 48.3901 28.5208C58.7425 22.9341 72.1555 21.4997 83.214 26.2131C83.2443 26.2285 83.2747 26.236 83.3051 26.2514C84.5967 26.8052 85.8344 27.458 87.0115 28.1944C97.6985 34.7976 103.699 47.9661 108.058 59.215C112.015 69.4236 114.673 82.8125 106.243 91.594Z" fill="#DE8857"/>
<path fill-rule="evenodd" clip-rule="evenodd" d="M61.1918 46.5565C47.0408 66.7413 42.1009 61.7675 42.1009 61.7675L41.9837 61.496C41.7866 61.0327 41.6107 60.5695 41.4562 60.1062C41.2591 59.5147 41.0886 58.9135 40.9607 58.3166C40.9447 58.2532 40.9394 58.2 40.9234 58.1467C40.1343 54.6218 39.554 54.8241 38.5896 48.738C38.5469 48.4505 38.5043 48.1629 38.4724 47.8807C38.3764 47.082 38.3232 46.294 38.3125 45.5166L45.8734 41.358C45.8734 41.358 66.7306 38.6557 61.1918 46.5565Z" fill="#654206"/>
<path fill-rule="evenodd" clip-rule="evenodd" d="M39.2052 77.2417C35.4503 77.2417 32.3956 80.2943 32.3956 84.0461C32.3956 87.7984 35.4503 90.8506 39.2052 90.8506C42.9595 90.8506 46.0143 87.7984 46.0143 84.0461C46.0143 80.2943 42.9595 77.2417 39.2052 77.2417ZM39.2052 93.1279C34.1939 93.1279 30.1172 89.0535 30.1172 84.0461C30.1172 79.0388 34.1939 74.9648 39.2052 74.9648C44.216 74.9648 48.2927 79.0388 48.2927 84.0461C48.2927 89.0535 44.216 93.1279 39.2052 93.1279Z" fill="#D5962F"/>
<path fill-rule="evenodd" clip-rule="evenodd" d="M87.8475 95.3316C87.8475 95.3316 82.922 94.5106 76.3963 91.1592C75.5987 90.7492 74.8101 91.7194 75.384 92.4084L88.813 104.145L87.8475 95.3316Z" fill="#363636"/>
<path fill-rule="evenodd" clip-rule="evenodd" d="M50.2237 78.8487C50.2237 78.8487 51.7934 77.9131 52.9241 76.2566C53.0973 76.0042 53.4879 76.0761 53.5465 76.3759C53.9488 78.4222 54.3095 83.8368 49.6797 88.2947L50.2237 78.8487Z" fill="#363636"/>
<path fill-rule="evenodd" clip-rule="evenodd" d="M47.7491 70.6529C47.6511 70.6529 47.552 70.6337 47.456 70.5938L38.1853 66.7126C37.7979 66.5507 37.6157 66.1061 37.7782 65.719C37.9396 65.333 38.3851 65.1503 38.7719 65.3127L48.0432 69.1939C48.4301 69.3558 48.6123 69.8004 48.4498 70.187C48.3283 70.4777 48.0464 70.6529 47.7491 70.6529Z" fill="#363636"/>
<path fill-rule="evenodd" clip-rule="evenodd" d="M41.9785 72.2804C41.8884 72.2804 41.7962 72.2645 41.7072 72.2304C41.3156 72.0808 41.1195 71.642 41.2687 71.2501L42.6003 67.7677C42.75 67.3758 43.1901 67.1799 43.5812 67.3295C43.9729 67.4791 44.1689 67.9179 44.0197 68.3093L42.6882 71.7921C42.572 72.0946 42.2838 72.2804 41.9785 72.2804Z" fill="#363636"/>
<path fill-rule="evenodd" clip-rule="evenodd" d="M39.2052 93.1274C34.1939 93.1274 30.1172 89.0535 30.1172 84.0456C30.1172 79.0383 34.1939 74.9644 39.2052 74.9644C40.07 74.9644 40.9262 75.0858 41.75 75.3254C42.3542 75.5016 42.7016 76.1331 42.5253 76.7369C42.35 77.3408 41.717 77.6874 41.1133 77.5117C40.4968 77.3322 39.8547 77.2412 39.2052 77.2412C35.4503 77.2412 32.3956 80.2938 32.3956 84.0456C32.3956 87.7979 35.4503 90.8506 39.2052 90.8506C42.9595 90.8506 46.0143 87.7979 46.0143 84.0456C46.0143 83.4173 46.5242 82.9072 47.1535 82.9072C47.7827 82.9072 48.2927 83.4173 48.2927 84.0456C48.2927 89.0535 44.216 93.1274 39.2052 93.1274Z" fill="#D5962F"/>
<path fill-rule="evenodd" clip-rule="evenodd" d="M55.3053 69.8703C54.9275 76.3755 49.3445 81.3434 42.8348 80.9664C36.3247 80.5889 31.3533 75.0097 31.7311 68.5045C32.1084 61.9988 37.6914 57.0308 44.2016 57.4084C50.7112 57.7853 55.6825 63.3651 55.3053 69.8703Z" fill="#DE8857"/>
<path fill-rule="evenodd" clip-rule="evenodd" d="M45.5078 57.3879C47.0205 57.8607 51.71 59.8532 53.1396 63.8856L55.11 67.6294C56.0329 69.4744 58.2127 70.3194 60.1442 69.5756C61.7347 68.9632 62.7119 67.4436 62.7119 65.8392C62.7119 65.3893 62.6341 64.9319 62.4791 64.49L55.3061 44.4297L45.5078 57.3879Z" fill="#654206"/>
<path fill-rule="evenodd" clip-rule="evenodd" d="M0 30.7786C0 16.4109 11.6552 4.76367 26.0321 4.76367C40.4096 4.76367 52.0648 16.4109 52.0648 30.7786C52.0648 45.1462 40.4096 56.7934 26.0321 56.7934C11.6552 56.7934 0 45.1462 0 30.7786Z" fill="#654206"/>
<path fill-rule="evenodd" clip-rule="evenodd" d="M44.7612 42.9323L38.2681 2.59082C38.1445 1.82177 38.6677 1.09815 39.4371 0.974615C40.206 0.851081 40.9307 1.37397 41.0543 2.14285C41.0575 2.16255 41.0607 2.18758 41.0633 2.20781L45.6755 42.8072C45.7043 43.0601 45.5226 43.2886 45.269 43.3173C45.0228 43.3455 44.8001 43.1741 44.7612 42.9323Z" fill="#D5962F"/>
<path fill-rule="evenodd" clip-rule="evenodd" d="M44.2764 2.7037C44.3531 3.47791 43.7872 4.16852 43.012 4.2452L39.2683 4.61633C38.4935 4.693 37.8024 4.12752 37.7257 3.35277C37.649 2.57856 38.2149 1.88806 38.9901 1.81122L42.7338 1.44009C43.5091 1.36326 44.1996 1.9289 44.2764 2.7037Z" fill="#D5962F"/>
<path fill-rule="evenodd" clip-rule="evenodd" d="M41.6036 40.6425L55.0656 2.06026C55.3219 1.32491 56.1265 0.936745 56.8623 1.1934C57.5982 1.44951 57.9866 2.25354 57.7303 2.98888C57.7234 3.00805 57.7143 3.03148 57.7069 3.05012L42.4678 40.9662C42.373 41.2026 42.1039 41.3177 41.8673 41.2224C41.6377 41.1302 41.5236 40.8736 41.6036 40.6425Z" fill="#D5962F"/>
<path fill-rule="evenodd" clip-rule="evenodd" d="M55.0236 2.04485C55.3241 1.32666 56.1506 0.987898 56.8688 1.28816L60.3402 2.73861C61.059 3.03892 61.3979 3.86425 61.0974 4.58255C60.7974 5.30085 59.971 5.6395 59.2522 5.33919L55.7808 3.88874C55.062 3.58843 54.7231 2.7631 55.0236 2.04485Z" fill="#D5962F"/>
<path fill-rule="evenodd" clip-rule="evenodd" d="M50.3253 78.7546C50.3253 78.7546 51.895 77.8191 53.0257 76.1626C53.1988 75.9097 53.5894 75.9821 53.648 76.2819C54.0503 78.3281 54.411 83.7428 49.7812 88.2007L50.3253 78.7546Z" fill="#363636"/>
<path fill-rule="evenodd" clip-rule="evenodd" d="M101.51 44.4523L95.4886 44.7771L93.1926 41.2575V44.9049L89.3344 45.1126L85.1197 38.5845L85.6365 45.3149L38.46 47.8814C37.4636 39.6547 41.0602 32.4344 48.4932 28.425C58.8408 22.8393 72.2576 21.407 83.3139 26.1194C83.3459 26.1353 83.3778 26.1407 83.4045 26.1566C84.6987 26.7104 85.9354 27.3653 87.1124 28.1001C93.2779 31.9073 97.881 37.9029 101.51 44.4523Z" fill="#654206"/>
<path fill-rule="evenodd" clip-rule="evenodd" d="M40.4396 78.2856C36.6788 78.2856 33.63 81.3319 33.63 85.0901C33.63 88.8482 36.6788 91.8945 40.4396 91.8945C44.2003 91.8945 47.2486 88.8482 47.2486 85.0901C47.2486 81.3319 44.2003 78.2856 40.4396 78.2856ZM31.3516 85.0901C31.3516 80.0742 35.4208 76.0088 40.4396 76.0088C45.4583 76.0088 49.527 80.0742 49.527 85.0901C49.527 90.1059 45.4583 94.1713 40.4396 94.1713C35.4208 94.1713 31.3516 90.1059 31.3516 85.0901Z" fill="#D5962F"/>
<path fill-rule="evenodd" clip-rule="evenodd" d="M38.6373 66.3842C38.7998 65.9971 39.2447 65.815 39.6315 65.9774L48.9023 69.8585C49.2891 70.0204 49.4714 70.465 49.3094 70.8516C49.1474 71.2382 48.7025 71.4203 48.3151 71.2584L39.0443 67.3772C38.6575 67.2153 38.4753 66.7707 38.6373 66.3842Z" fill="#363636"/>
<path fill-rule="evenodd" clip-rule="evenodd" d="M44.4404 67.9941C44.832 68.1437 45.0286 68.5824 44.8789 68.9738L43.5473 72.4567C43.3976 72.8481 42.9585 73.0445 42.5664 72.8949C42.1747 72.7453 41.9787 72.3065 42.1284 71.9152L43.4599 68.4323C43.6097 68.0404 44.0482 67.8444 44.4404 67.9941Z" fill="#363636"/>
<path fill-rule="evenodd" clip-rule="evenodd" d="M40.4396 78.2856C36.6788 78.2856 33.63 81.3319 33.63 85.0901C33.63 88.8482 36.6788 91.8945 40.4396 91.8945C44.2003 91.8945 47.2486 88.8482 47.2486 85.0901C47.2486 84.4612 47.7591 83.9516 48.3878 83.9516C49.0171 83.9516 49.527 84.4612 49.527 85.0901C49.527 90.1059 45.4583 94.1713 40.4396 94.1713C35.4208 94.1713 31.3516 90.1059 31.3516 85.0901C31.3516 80.0742 35.4208 76.0088 40.4396 76.0088C41.3214 76.0088 42.1761 76.1344 42.9849 76.3698C43.5891 76.5455 43.936 77.1776 43.7602 77.7808C43.5844 78.3847 42.9524 78.7318 42.3482 78.5561C41.7439 78.3804 41.1035 78.2856 40.4396 78.2856Z" fill="#D5962F"/>
<path fill-rule="evenodd" clip-rule="evenodd" d="M113.952 59.0725C113.952 59.0725 109.987 63.9759 103.538 63.7461C100.805 63.6443 97.6238 62.6332 94.125 59.9172C94.125 59.9172 97.5331 56.0062 103.206 55.6281C106.212 55.418 109.847 56.1907 113.952 59.0725Z" fill="white"/>
<path fill-rule="evenodd" clip-rule="evenodd" d="M113.957 59.0725C113.957 59.0725 109.991 63.9759 103.543 63.7461C102.637 62.6518 102.087 61.2835 102.022 59.7583C101.957 58.2326 102.4 56.7949 103.21 55.6281C106.216 55.418 109.851 56.1907 113.957 59.0725Z" fill="#363636"/>
<path d="M88.753 56.1792C89.1546 56.0689 89.5689 56.2848 89.7139 56.6665L89.7379 56.7399L93.0639 68.8584C93.662 71.0368 92.0594 73.186 89.8233 73.2562L89.7007 73.2579L86.9319 73.2499C86.4893 73.2486 86.1315 72.8887 86.1328 72.4461C86.134 72.028 86.4551 71.6856 86.8635 71.65L86.9365 71.6469L89.7052 71.6549C90.9115 71.6582 91.7977 70.5417 91.5423 69.3798L91.5183 69.2828L88.1923 57.1642C88.0752 56.7374 88.3262 56.2963 88.753 56.1792Z" fill="#363636"/>
<path d="M96.8186 49.4632C101.576 47.5989 106.923 47.6101 112.315 50.7453C112.698 50.9678 112.828 51.4584 112.606 51.841C112.383 52.2237 111.892 52.3536 111.51 52.1311C106.584 49.2669 101.739 49.2568 97.4033 50.9558C96.7764 51.2014 96.2191 51.464 95.7393 51.7252L95.4887 51.8654C95.3427 51.9496 95.239 52.0144 95.1799 52.0542C94.8132 52.3021 94.3151 52.2058 94.0672 51.839C93.8194 51.4723 93.9157 50.9741 94.2824 50.7261L94.3841 50.6598C94.5202 50.5734 94.7177 50.4562 94.973 50.3173C95.5097 50.025 96.1273 49.7341 96.8186 49.4632Z" fill="#363636"/>
<path fill-rule="evenodd" clip-rule="evenodd" d="M86.0541 59.0725C86.0541 59.0725 82.0883 63.9759 75.6394 63.7461C72.9063 63.6443 69.7253 62.6332 66.2266 59.9172C66.2266 59.9172 69.6342 56.0062 75.3072 55.6281C78.3133 55.418 81.9481 56.1907 86.0541 59.0725Z" fill="white"/>
<path fill-rule="evenodd" clip-rule="evenodd" d="M86.0588 59.0725C86.0588 59.0725 82.093 63.9759 75.6441 63.7461C74.7382 62.6518 74.1885 61.2835 74.1235 59.7583C74.0584 58.2326 74.502 56.7949 75.3119 55.6281C78.318 55.418 81.9528 56.1907 86.0588 59.0725Z" fill="#363636"/>
<path d="M66.43 50.7453C71.8215 47.6101 77.1686 47.5989 81.9265 49.4632C82.6179 49.7341 83.2355 50.025 83.7722 50.3173L83.9768 50.4308C84.1988 50.5566 84.3619 50.6579 84.4629 50.7261C84.8296 50.974 84.9259 51.4723 84.6781 51.839C84.4303 52.2057 83.9321 52.3021 83.5654 52.0542L83.4436 51.9764C83.3405 51.913 83.1938 51.8274 83.006 51.7252C82.5261 51.464 81.9687 51.2014 81.3419 50.9558C77.0059 49.2568 72.161 49.2669 67.2355 52.1311C66.8529 52.3536 66.3624 52.2237 66.14 51.841C65.9175 51.4584 66.0473 50.9678 66.43 50.7453Z" fill="#363636"/>
<path d="M81.9101 74.8989C82.3029 74.7603 82.7315 74.9463 82.9033 75.3166L82.9596 75.4573C82.9899 75.5288 83.0392 75.6338 83.109 75.7632C83.277 76.0749 83.4923 76.388 83.7571 76.6785C84.6304 77.6367 85.8137 78.1333 87.4302 77.9406C87.8697 77.8883 88.2684 78.2021 88.3207 78.6417C88.3731 79.0812 88.0593 79.48 87.6198 79.5324C85.4635 79.7894 83.7795 79.0826 82.5726 77.7585C81.9562 77.0821 81.5914 76.4051 81.4208 75.9213C81.2736 75.5038 81.4927 75.046 81.9101 74.8989Z" fill="#363636"/>
<path opacity="0.01" d="M76.3108 72.8179C78.9206 70.9342 82.0265 70.6127 85.4537 71.8111C88.9848 73.0452 91.3996 74.1217 92.6277 78.086C92.8888 78.9288 92.4167 79.8232 91.5733 80.0841C90.7303 80.345 89.8346 79.8733 89.5735 79.0305C88.6347 75.999 86.9328 75.712 84.3981 74.8261C81.9151 73.9583 79.9021 74.1665 78.1832 75.4075C77.4676 75.9239 76.4685 75.7631 75.9517 75.0481C75.4343 74.3331 75.5952 73.3348 76.3108 72.8179Z" fill="#654206"/>
</svg>
