<svg width="100" height="140" viewBox="0 0 100 140" fill="none" xmlns="http://www.w3.org/2000/svg">
<path fill-rule="evenodd" clip-rule="evenodd" d="M0.992188 139.923L55.7323 0.971191L99.9821 91.6989L0.992188 139.923Z" fill="#9EDCF8"/>
<path fill-rule="evenodd" clip-rule="evenodd" d="M76.557 95.3645C72.5727 99.5135 67.1271 100.197 61.3728 99.0439C46.6845 96.102 29.9105 81.2025 29.9105 81.2025C26.5841 78.5956 23.0426 75.0232 20.8096 71.0823L20.6952 70.8743C20.1051 69.8223 19.6156 68.7365 19.2464 67.6439C19.0725 67.1213 18.9247 66.5914 18.8108 66.062C18.7976 66.0085 18.7902 65.9614 18.777 65.9148C18.7436 65.7671 18.7106 65.6263 18.6836 65.4992C18.0326 62.8051 17.5299 62.7246 16.7183 57.6037C15.5178 50.0301 18.6836 43.3278 25.471 39.6685C34.6122 34.7355 46.4562 33.4691 56.2219 37.6309C56.2484 37.6446 56.2754 37.651 56.3024 37.6647C57.4424 38.1539 58.5354 38.7304 59.5753 39.3805C60.8695 40.1778 62.0833 41.0826 63.2233 42.0879C70.4334 48.3613 74.84 58.2003 78.1596 66.7725C81.6543 75.7872 84.0013 87.6098 76.557 95.3645Z" fill="#963716"/>
<path fill-rule="evenodd" clip-rule="evenodd" d="M56.7846 65.98L62.7324 116.539C63.9068 126.524 56.7594 135.57 46.7678 136.743C36.7766 137.917 27.7242 130.774 26.5493 120.79C26.4267 119.745 26.4034 118.61 26.4564 117.594L29.4517 66.7751C29.8973 59.2128 36.3927 53.4437 43.9601 53.8894C50.7077 54.2863 56.0274 59.4958 56.7846 65.98Z" fill="#963716"/>
<path fill-rule="evenodd" clip-rule="evenodd" d="M60.6287 98.8841C60.6287 98.8841 57.0246 98.3186 51.2624 95.3597C50.5579 94.9976 49.8621 95.8544 50.369 96.4624L61.6388 107.272L60.6287 98.8841Z" fill="#363636"/>
<path fill-rule="evenodd" clip-rule="evenodd" d="M28.4647 83.0397C28.4647 83.0397 29.8514 82.2136 30.8501 80.7506C31.002 80.528 31.347 80.5915 31.3991 80.8562C31.7546 82.663 32.073 87.4447 27.9844 91.381L28.4647 83.0397Z" fill="#363636"/>
<path fill-rule="evenodd" clip-rule="evenodd" d="M55.9282 37.5083L56.3019 37.6647C57.442 38.1543 58.5354 38.7304 59.5748 39.3805C60.8691 40.1783 62.0833 41.083 63.2233 42.0884C60.1517 45.7275 55.5173 47.906 50.8088 48.8844C46.4233 49.7951 41.9138 49.78 37.4207 49.6808L34.9269 49.6218C34.4493 49.6095 33.9557 49.6044 33.463 49.625L33.3152 49.6552C32.0612 49.9295 31.111 50.6166 32.9259 54.4259L33.0727 54.7294C36.1429 60.9526 38.1957 66.6938 39.2315 71.9533C39.3646 72.3327 39.4314 72.7254 39.4314 73.1117C39.4314 74.4892 38.5924 75.794 37.2267 76.3198C35.6054 76.9443 33.78 76.2645 32.9588 74.753L32.9044 74.6488L31.2125 71.4343C31.1668 71.3041 31.1165 71.176 31.0625 71.0508C30.126 71.7219 28.835 71.9693 27.6683 71.7672L27.5229 71.7393C25.7455 71.3639 22.0229 72.121 20.6952 70.8748C19.3735 69.6344 17.5294 62.7246 16.7183 57.6042C15.5178 50.0305 18.6837 43.3283 25.4706 39.669C34.5207 34.7854 46.2197 33.4952 55.9282 37.5083Z" fill="#E69BC8"/>
<path fill-rule="evenodd" clip-rule="evenodd" d="M23.8795 81.7737C23.8795 83.1549 22.7591 84.2745 21.377 84.2745C19.9954 84.2745 18.875 83.1549 18.875 81.7737C18.875 80.3926 19.9954 79.2729 21.377 79.2729C22.7591 79.2729 23.8795 80.3926 23.8795 81.7737Z" fill="white"/>
<path fill-rule="evenodd" clip-rule="evenodd" d="M33.0707 76.5722C32.7463 82.1575 27.9527 86.423 22.3635 86.0993C16.7739 85.7752 12.5055 80.9849 12.8298 75.3995C13.1537 69.8137 17.9473 65.5482 23.537 65.8723C29.1262 66.196 33.3946 70.9868 33.0707 76.5722Z" fill="#963716"/>
<path fill-rule="evenodd" clip-rule="evenodd" d="M26.5808 77.2444C26.4967 77.2444 26.4116 77.2279 26.3292 77.1937L18.3693 73.8613C18.0367 73.7223 17.8802 73.3405 18.0198 73.0082C18.1584 72.6767 18.5409 72.5199 18.873 72.6593L26.8334 75.9917C27.1655 76.1307 27.322 76.5124 27.1824 76.8444C27.0781 77.094 26.8361 77.2444 26.5808 77.2444Z" fill="#363636"/>
<path fill-rule="evenodd" clip-rule="evenodd" d="M21.6367 78.6421C21.5593 78.6421 21.4802 78.6284 21.4038 78.5992C21.0675 78.4707 20.8992 78.094 21.0273 77.7575L22.1706 74.7675C22.2991 74.431 22.677 74.2628 23.0128 74.3913C23.3491 74.5197 23.5174 74.8964 23.3893 75.2325L22.246 78.2229C22.1463 78.4826 21.8988 78.6421 21.6367 78.6421Z" fill="#363636"/>
<path fill-rule="evenodd" clip-rule="evenodd" d="M83.4223 67.3026C83.4223 67.3026 80.0174 71.5127 74.4804 71.3154C72.1337 71.2279 69.4025 70.3598 66.3984 68.0279C66.3984 68.0279 69.3247 64.6699 74.1952 64.3452C76.7762 64.1648 79.897 64.8283 83.4223 67.3026Z" fill="white"/>
<path fill-rule="evenodd" clip-rule="evenodd" d="M83.425 67.3026C83.425 67.3026 80.0199 71.5127 74.4829 71.3154C73.7051 70.3758 73.2331 69.2009 73.1773 67.8914C73.1214 66.5815 73.5023 65.347 74.1977 64.3452C76.7787 64.1648 79.8995 64.8283 83.425 67.3026Z" fill="#363636"/>
<path d="M61.7888 64.8177C62.1336 64.723 62.4893 64.9083 62.6138 65.2361L62.6344 65.2991L65.4901 75.7041C66.0036 77.5745 64.6277 79.4198 62.7077 79.4801L62.6025 79.4816L60.2252 79.4747C59.8451 79.4736 59.538 79.1646 59.5391 78.7845C59.5401 78.4256 59.8158 78.1316 60.1665 78.101L60.2291 78.0983L62.6063 78.1052C63.6421 78.108 64.403 77.1494 64.1836 76.1518L64.1631 76.0685L61.3073 65.6635C61.2068 65.297 61.4223 64.9183 61.7888 64.8177Z" fill="#363636"/>
<path d="M68.7148 59.0514C72.7998 57.4507 77.3909 57.4603 82.0205 60.1522C82.3487 60.3432 82.4604 60.7644 82.2695 61.093C82.0782 61.4216 81.657 61.533 81.3287 61.342C77.0994 58.8829 72.9396 58.8742 69.2169 60.3329C68.6786 60.5438 68.2001 60.7692 67.7881 60.9935L67.573 61.1139C67.4476 61.1862 67.3585 61.2418 67.3078 61.276C66.993 61.4889 66.5653 61.4062 66.3524 61.0912C66.1396 60.7764 66.2224 60.3486 66.5372 60.1357L66.6245 60.0788C66.7414 60.0045 66.9109 59.904 67.1301 59.7847C67.591 59.5338 68.1213 59.284 68.7148 59.0514Z" fill="#363636"/>
<path fill-rule="evenodd" clip-rule="evenodd" d="M59.4693 67.3026C59.4693 67.3026 56.0643 71.5127 50.5272 71.3154C48.1806 71.2279 45.4494 70.3598 42.4453 68.0279C42.4453 68.0279 45.3711 64.6699 50.242 64.3452C52.8231 64.1648 55.9439 64.8283 59.4693 67.3026Z" fill="white"/>
<path fill-rule="evenodd" clip-rule="evenodd" d="M59.4719 67.3026C59.4719 67.3026 56.0668 71.5127 50.5298 71.3154C49.752 70.3758 49.28 69.2009 49.2241 67.8914C49.1683 66.5815 49.5492 65.347 50.2446 64.3452C52.8256 64.1648 55.9464 64.8283 59.4719 67.3026Z" fill="#363636"/>
<path d="M42.6158 60.1522C47.245 57.4603 51.836 57.4507 55.9212 59.0514C56.5148 59.284 57.0451 59.5338 57.5059 59.7847L57.6816 59.8822C57.8722 59.9901 58.0122 60.0772 58.0989 60.1357C58.4137 60.3485 58.4965 60.7764 58.2837 61.0912C58.0709 61.4061 57.6432 61.4889 57.3283 61.276L57.2237 61.2092C57.1352 61.1548 57.0093 61.0813 56.848 60.9935C56.436 60.7692 55.9574 60.5438 55.4192 60.3329C51.6963 58.8742 47.5365 58.8829 43.3075 61.342C42.9789 61.533 42.5578 61.4216 42.3668 61.093C42.1758 60.7644 42.2873 60.3432 42.6158 60.1522Z" fill="#363636"/>
<path d="M55.9126 80.8914C56.2499 80.7724 56.6178 80.9321 56.7653 81.2501L56.8137 81.3709C56.8397 81.4322 56.882 81.5224 56.9419 81.6335C57.0862 81.9012 57.271 82.17 57.4984 82.4194C58.2482 83.2421 59.2642 83.6685 60.6521 83.5031C61.0295 83.4581 61.3718 83.7276 61.4168 84.105C61.4617 84.4824 61.1923 84.8248 60.8149 84.8698C58.9635 85.0904 57.5176 84.4836 56.4814 83.3467C55.9522 82.766 55.6389 82.1847 55.4925 81.7693C55.3661 81.4108 55.5542 81.0178 55.9126 80.8914Z" fill="#363636"/>
<path opacity="0.01" d="M51.1078 79.104C53.3486 77.4867 56.0153 77.2106 58.9579 78.2396C61.9897 79.2992 64.063 80.2235 65.1176 83.6272C65.3417 84.3509 64.9364 85.1188 64.2122 85.3428C63.4884 85.5668 62.7194 85.1618 62.4952 84.4382C61.6891 81.8353 60.2279 81.5889 58.0516 80.8283C55.9197 80.0832 54.1913 80.2619 52.7154 81.3275C52.101 81.7709 51.2432 81.6328 50.7994 81.0189C50.3552 80.405 50.4933 79.5479 51.1078 79.104Z" fill="#E69BC8"/>
</svg>
