<svg width="95" height="117" viewBox="0 0 95 117" fill="none" xmlns="http://www.w3.org/2000/svg">
<path fill-rule="evenodd" clip-rule="evenodd" d="M43.7681 0.974609L91.1931 24.11L94.8516 76.8031L51.0851 106.36L3.66014 83.2246L0.00180817 30.5322L43.7681 0.974609Z" fill="#9EDCF8"/>
<path fill-rule="evenodd" clip-rule="evenodd" d="M93.7578 62.9077L83.1849 84.5895L72.2791 91.9779L92.8643 49.7632L93.7578 62.9077Z" fill="#F5A8B8"/>
<path fill-rule="evenodd" clip-rule="evenodd" d="M49.0092 105.353L43.1094 102.475L83.2174 20.2241L89.1172 23.1023L49.0092 105.353Z" fill="#F5A8B8"/>
<path fill-rule="evenodd" clip-rule="evenodd" d="M30.3295 96.2316L24.4297 93.3535L64.5377 11.1035L70.4375 13.9816L30.3295 96.2316Z" fill="#F5A8B8"/>
<path fill-rule="evenodd" clip-rule="evenodd" d="M9.71973 86.1805L3.82028 83.3024L43.9283 1.05225L49.8281 3.93038L9.71973 86.1805Z" fill="#F5A8B8"/>
<path fill-rule="evenodd" clip-rule="evenodd" d="M1.64362 55.2712L0.73531 42.158L9.52347 24.1357L20.4141 16.7788L1.64362 55.2712Z" fill="#F5A8B8"/>
<path fill-rule="evenodd" clip-rule="evenodd" d="M69.2344 94.0859L62.9378 98.3183L2.5183 68.8442L1.97683 61.2754L69.2344 94.0859Z" fill="#F5A8B8"/>
<path fill-rule="evenodd" clip-rule="evenodd" d="M89.1484 80.6538L82.8517 84.8869L0.830513 44.8742L0.28904 37.3052L89.1484 80.6538Z" fill="#F5A8B8"/>
<path fill-rule="evenodd" clip-rule="evenodd" d="M93.3816 57.3181L93.9219 64.8863L9.69154 23.7962L15.9871 19.5625L93.3816 57.3181Z" fill="#F5A8B8"/>
<path fill-rule="evenodd" clip-rule="evenodd" d="M91.7051 33.3487L92.2422 40.9154L29.7955 10.452L36.0877 6.2168L91.7051 33.3487Z" fill="#F5A8B8"/>
<path fill-rule="evenodd" clip-rule="evenodd" d="M22.8336 77.7321C26.5349 81.5864 31.5944 82.2216 36.9409 81.1506C50.5868 78.417 66.1708 64.5749 66.1708 64.5749C70.1401 61.4613 74.4395 56.8785 76.0782 51.9778C76.2403 51.492 76.3777 51.0001 76.4836 50.5082C77.1499 47.4697 77.6236 47.725 78.4274 42.6498C80.3093 30.8314 72.1962 21.211 47.0104 22.2384C42.7857 22.4124 39.1527 24.8287 36.1121 27.3692C34.199 28.9632 32.5417 30.8499 31.2206 32.9483C31.1394 33.0666 31.0646 33.1914 30.9903 33.3098C25.3573 41.5478 10.9448 65.3345 22.8336 77.7321Z" fill="#F0B5AA"/>
<path fill-rule="evenodd" clip-rule="evenodd" d="M42.0847 49.9729L36.4664 97.7299C35.3567 107.162 42.1085 115.707 51.5466 116.815C60.9846 117.924 69.5351 111.177 70.6448 101.746C70.7606 100.759 70.7827 99.6867 70.7325 98.7267L67.9033 50.7239C67.4824 43.5806 61.3468 38.1311 54.1986 38.5521C47.8249 38.927 42.8004 43.8479 42.0847 49.9729Z" fill="#F0B5AA"/>
<path fill-rule="evenodd" clip-rule="evenodd" d="M61.2855 47.034L58.2134 55.658C58.0889 56.013 58.0267 56.3805 58.0267 56.7416C58.0267 58.0306 58.8119 59.251 60.0889 59.7429C61.6408 60.3406 63.3918 59.6622 64.1329 58.18L65.7159 55.1726C66.3079 54.0455 67.3174 53.1987 68.5322 52.8186L76.0783 51.9782C76.2399 51.4924 76.3774 51.0005 76.4832 50.5087C77.15 47.4697 77.6237 47.7249 78.4275 42.6503C80.309 30.8318 72.1963 21.211 47.01 22.2384C42.8537 23.017 39.1523 24.8291 36.1118 27.3697C34.1991 28.9636 32.5414 30.8504 31.2203 32.9487C42.9163 38.4099 52.1383 40.39 57.6279 41.106C60.4632 41.4735 62.2449 44.344 61.2855 47.034Z" fill="#363636"/>
<path fill-rule="evenodd" clip-rule="evenodd" d="M64.6276 59.9101C64.9375 65.2469 69.5178 69.3227 74.8587 69.0131C80.1991 68.7039 84.2773 64.1267 83.9679 58.7894C83.658 53.4526 79.0777 49.3768 73.7373 49.6865C68.3964 49.9957 64.3178 54.5728 64.6276 59.9101Z" fill="#F0B5AA"/>
<mask id="mask0_660_23596" style="mask-type:alpha" maskUnits="userSpaceOnUse" x="24" y="7" width="27" height="28">
<path fill-rule="evenodd" clip-rule="evenodd" d="M50.9375 7.90186H24.3013V34.5198H50.9375V7.90186Z" fill="white"/>
</mask>
<g mask="url(#mask0_660_23596)">
<path fill-rule="evenodd" clip-rule="evenodd" d="M24.5637 23.828C26.0101 31.0334 33.0277 35.703 40.2381 34.2576C47.4484 32.8126 52.1212 25.7998 50.6748 18.5944C49.2289 11.3889 42.2113 6.71891 35.0009 8.16431C27.7901 9.60972 23.1174 16.6225 24.5637 23.828Z" fill="#363636"/>
</g>
<path fill-rule="evenodd" clip-rule="evenodd" d="M38.5126 80.8028C38.5126 80.8028 42.5536 80.1291 47.9065 77.38C48.5612 77.0436 49.2082 77.8395 48.7371 78.4043L37.5057 88.8534L38.5126 80.8028Z" fill="#363636"/>
<path fill-rule="evenodd" clip-rule="evenodd" d="M68.8091 67.2769C68.8091 67.2769 67.5209 66.5091 66.5935 65.1505C66.4518 64.9432 66.1311 65.0024 66.0827 65.2485C65.7526 66.9271 65.5296 71.1027 69.3281 74.7596L68.8091 67.2769Z" fill="#363636"/>
<path d="M79.0063 56.5046C78.881 56.2057 78.5504 56.0559 78.247 56.15L78.1908 56.1708L70.5851 59.3548C70.2675 59.4874 70.1179 59.8523 70.251 60.1697C70.3759 60.4681 70.7069 60.618 71.0099 60.5238L71.0665 60.5035L78.6723 57.3195C78.9894 57.1865 79.139 56.8216 79.0063 56.5046Z" fill="#363636"/>
<path d="M75.054 58.185C74.9308 57.8637 74.5708 57.7026 74.2493 57.8253C73.9468 57.941 73.7861 58.2666 73.8708 58.5724L73.8898 58.6294L74.9822 61.4865C75.105 61.8078 75.4649 61.9689 75.7865 61.8462C76.089 61.7305 76.2497 61.4049 76.165 61.0991L76.1464 61.0421L75.054 58.185Z" fill="#363636"/>
<path fill-rule="evenodd" clip-rule="evenodd" d="M16.3412 50.6919C16.3412 50.6919 19.5575 54.6687 24.7877 54.4823C27.0044 54.3997 29.5843 53.5797 32.4219 51.377C32.4219 51.377 29.6578 48.205 25.0571 47.8984C22.6191 47.728 19.6712 48.3547 16.3412 50.6919Z" fill="white"/>
<path fill-rule="evenodd" clip-rule="evenodd" d="M16.3462 50.6919C16.3462 50.6919 19.5626 54.6687 24.7929 54.4823C25.5276 53.5948 25.9734 52.485 26.0262 51.2481C26.0789 50.0107 25.7191 48.8447 25.0623 47.8984C22.6242 47.728 19.6763 48.3547 16.3462 50.6919Z" fill="#363636"/>
<path d="M36.7812 48.3456C36.4554 48.2562 36.1194 48.4313 36.0019 48.7408L35.9824 48.8004L33.2849 58.6289C32.7998 60.3956 34.0996 62.1387 35.9131 62.1956L36.0125 62.197L38.2582 62.1906C38.6171 62.1895 38.9073 61.8976 38.9062 61.5386C38.9053 61.1996 38.6449 60.9219 38.3136 60.8929L38.2544 60.8905L36.0089 60.8969C35.0305 60.8996 34.3118 59.9941 34.519 59.0517L34.5384 58.9731L37.2359 49.1445C37.3309 48.7984 37.1274 48.4406 36.7812 48.3456Z" fill="#363636"/>
<path d="M30.2429 42.8989C26.3842 41.3869 22.0476 41.396 17.6745 43.9387C17.3644 44.1191 17.2589 44.517 17.4392 44.8274C17.62 45.1377 18.0178 45.2431 18.3279 45.0626C22.3229 42.7397 26.2523 42.7315 29.7687 44.1094C30.2771 44.3086 30.7291 44.5216 31.1183 44.7334L31.3215 44.8471C31.44 44.9154 31.5241 44.9679 31.572 45.0003C31.8694 45.2013 32.2734 45.1232 32.4744 44.8257C32.6754 44.5283 32.5973 44.1242 32.2999 43.9232L32.2174 43.8694C32.107 43.7992 31.9469 43.7043 31.7398 43.5916C31.3045 43.3546 30.8036 43.1186 30.2429 42.8989Z" fill="#363636"/>
<path fill-rule="evenodd" clip-rule="evenodd" d="M38.9661 50.6919C38.9661 50.6919 42.1825 54.6687 47.4127 54.4823C49.6294 54.3997 52.2093 53.5797 55.0469 51.377C55.0469 51.377 52.2832 48.205 47.6821 47.8984C45.2441 47.728 42.2962 48.3547 38.9661 50.6919Z" fill="white"/>
<path fill-rule="evenodd" clip-rule="evenodd" d="M38.9634 50.6919C38.9634 50.6919 42.1798 54.6687 47.4101 54.4823C48.1448 53.5948 48.5906 52.485 48.6433 51.2481C48.6961 50.0107 48.3363 48.8447 47.6795 47.8984C45.2414 47.728 42.2935 48.3547 38.9634 50.6919Z" fill="#363636"/>
<path d="M54.8876 43.9387C50.5149 41.396 46.1781 41.3869 42.3193 42.8989C41.7586 43.1186 41.2577 43.3546 40.8224 43.5916L40.6565 43.6836C40.4765 43.7856 40.3441 43.8678 40.2623 43.9232C39.9649 44.1242 39.8867 44.5283 40.0877 44.8257C40.2887 45.1232 40.6928 45.2013 40.9902 45.0003L41.089 44.9372C41.1726 44.8857 41.2915 44.8164 41.4438 44.7334C41.833 44.5216 42.2851 44.3086 42.7935 44.1094C46.3101 42.7315 50.2395 42.7397 54.2342 45.0626C54.5445 45.2431 54.9424 45.1377 55.1228 44.8274C55.3032 44.517 55.1979 44.1191 54.8876 43.9387Z" fill="#363636"/>
<path d="M42.3316 63.5284C42.013 63.416 41.6655 63.5668 41.5262 63.8672L41.4805 63.9813C41.4559 64.0392 41.4159 64.1244 41.3593 64.2294C41.2231 64.4822 41.0485 64.7361 40.8337 64.9718C40.1254 65.7488 39.1657 66.1516 37.8547 65.9954C37.4982 65.9529 37.1749 66.2075 37.1324 66.5639C37.0899 66.9204 37.3445 67.2439 37.7009 67.2863C39.4497 67.4948 40.8155 66.9216 41.7943 65.8476C42.2942 65.2991 42.5901 64.75 42.7284 64.3576C42.8478 64.019 42.6702 63.6478 42.3316 63.5284Z" fill="#363636"/>
<path opacity="0.01" d="M46.8612 61.8399C44.7446 60.3122 42.2256 60.0514 39.4461 61.0234C36.5822 62.0243 34.6237 62.8974 33.6277 66.1125C33.4159 66.7961 33.7988 67.5215 34.4829 67.7331C35.1665 67.9446 35.893 67.5621 36.1047 66.8785C36.8661 64.4199 38.2464 64.1872 40.3021 63.4686C42.3159 62.7648 43.9486 62.9336 45.3427 63.9402C45.9231 64.359 46.7333 64.2286 47.1525 63.6487C47.5721 63.0688 47.4416 62.2592 46.8612 61.8399Z" fill="#363636"/>
</svg>
