<svg width="203" height="209" viewBox="0 0 203 209" fill="none" xmlns="http://www.w3.org/2000/svg">
<path fill-rule="evenodd" clip-rule="evenodd" d="M11.0447 151.796C-14.4066 99.6785 7.23291 36.8368 59.3766 11.4356C111.521 -13.9657 174.424 7.69236 199.875 59.8098L11.0447 151.796Z" fill="#CEB2E8"/>
<path fill-rule="evenodd" clip-rule="evenodd" d="M44.2566 20.4174L43.6068 21.4597C30.5256 42.2783 16.9427 62.7886 2.90671 82.909L2.90528 82.9081C2.57326 84.3875 2.27401 85.8745 2.00754 87.3683L2.00897 87.3688C17.9359 64.6675 33.2914 41.4623 48 17.8709L47.9986 17.8687C46.7275 18.6943 45.4806 19.5442 44.2566 20.4174Z" fill="white"/>
<path fill-rule="evenodd" clip-rule="evenodd" d="M157.124 14.415C154.634 31.8246 156.845 49.9153 163.61 67.1075C164.757 70.0223 166.018 72.8666 167.387 75.6344L169.039 74.8295C167.691 72.1047 166.45 69.3042 165.32 66.4343C158.766 49.7789 156.559 32.2732 158.839 15.4029L158.84 15.4017C158.322 15.0971 157.802 14.7971 157.28 14.5015L157.124 14.415Z" fill="white"/>
<path fill-rule="evenodd" clip-rule="evenodd" d="M87.8899 63.1818C91.0963 55.5791 94.6536 48.1379 98.5535 40.8713C98.7181 40.9109 98.8823 40.9519 99.046 40.9941C108.69 43.4937 116.976 51.2025 120.155 60.6351C123.333 70.0668 121.403 81.2152 115.237 89.0376C111.519 93.7528 105.635 97.0733 99.8824 97.7035C95.689 98.1626 91.9458 97.1568 89.0578 94.7951C79.675 87.1239 84.2986 71.6954 87.8899 63.1818ZM123.661 2.41431C114.646 13.9486 106.632 26.1088 99.6693 38.814C110.013 41.5147 118.895 49.7901 122.306 59.9108C125.723 70.0487 123.648 82.0321 117.02 90.4393C112.938 95.6168 106.466 99.2626 100.129 99.957C95.3157 100.484 90.9903 99.3055 87.6194 96.5497C83.1022 92.8563 76.8591 83.4962 85.7989 62.3025C88.9425 54.8478 92.4217 47.5463 96.2267 40.4114C87.1557 38.9922 76.8428 41.6094 68.0783 47.6569C60.1583 53.1234 53.327 61.0249 46.5797 72.5235C37.9002 87.3164 31.8982 103.538 28.7391 120.739C27.2927 128.612 26.4762 136.504 26.2895 144.369L23.9982 145.485C24.1307 137.115 24.9671 128.712 26.5061 120.331C29.7137 102.87 35.8083 86.3996 44.6218 71.3781C51.5429 59.5837 58.5866 51.4534 66.7889 45.7924C76.278 39.2426 87.5325 36.5209 97.3624 38.305C104.262 25.6406 112.196 13.5113 121.113 1.99512C121.964 2.1245 122.814 2.26425 123.661 2.41431Z" fill="white"/>
<path fill-rule="evenodd" clip-rule="evenodd" d="M87.1507 93.815L77.5698 175.255C75.6774 191.339 87.1913 205.911 103.286 207.801C119.38 209.692 133.962 198.187 135.854 182.103C136.052 180.42 136.089 178.592 136.004 176.955L131.179 95.0956C130.461 82.9143 119.998 73.6212 107.809 74.3393C96.9387 74.9785 88.3704 83.3701 87.1507 93.815Z" fill="#DE8857"/>
<path fill-rule="evenodd" clip-rule="evenodd" d="M55.3708 141.287C61.6104 147.784 70.1405 148.855 79.1532 147.05C102.158 142.441 128.431 119.105 128.431 119.105C133.642 115.022 139.187 109.427 142.685 103.254L142.864 102.929C143.788 101.281 144.556 99.5802 145.133 97.8695C145.406 97.0506 145.637 96.2213 145.816 95.3921C145.837 95.3082 145.847 95.2345 145.869 95.1609C146.961 90.2798 147.759 90.5633 149.094 82.1444C150.974 70.2819 146.015 59.7841 135.384 54.0531C121.066 46.3265 102.516 44.3425 87.2212 50.8614C87.1792 50.8828 87.1372 50.8931 87.0952 50.9145C85.3088 51.6803 83.5969 52.5832 81.969 53.6017C67.1883 62.7342 58.8896 80.947 52.8608 96.5049C47.3875 110.624 43.7117 129.141 55.3708 141.287Z" fill="#DE8857"/>
<path fill-rule="evenodd" clip-rule="evenodd" d="M117.677 78.9979C137.249 106.915 144.081 100.036 144.081 100.036L144.243 99.66C144.515 99.0193 144.759 98.3786 144.972 97.7379C145.245 96.9197 145.481 96.0883 145.658 95.2627C145.68 95.1751 145.687 95.1015 145.709 95.0278C146.801 90.1526 147.603 90.4325 148.937 82.015C148.996 81.6174 149.055 81.2197 149.099 80.8294C149.232 79.7247 149.306 78.6348 149.32 77.5596L138.863 71.8081C138.863 71.8081 110.017 68.0707 117.677 78.9979Z" fill="#363636"/>
<path fill-rule="evenodd" clip-rule="evenodd" d="M148.071 121.437C153.265 121.437 157.489 125.659 157.489 130.847C157.489 136.037 153.265 140.258 148.071 140.258C142.879 140.258 138.654 136.037 138.654 130.847C138.654 125.659 142.879 121.437 148.071 121.437ZM148.071 143.408C155.002 143.408 160.641 137.773 160.641 130.847C160.641 123.922 155.002 118.288 148.071 118.288C141.141 118.288 135.503 123.922 135.503 130.847C135.503 137.773 141.141 143.408 148.071 143.408Z" fill="#D5962F"/>
<path fill-rule="evenodd" clip-rule="evenodd" d="M80.7953 146.456C80.7953 146.456 87.6075 145.32 96.6328 140.685C97.736 140.118 98.8267 141.46 98.033 142.413L79.4599 158.645L80.7953 146.456Z" fill="#363636"/>
<path fill-rule="evenodd" clip-rule="evenodd" d="M132.841 123.659C132.841 123.659 130.67 122.365 129.107 120.074C128.867 119.725 128.327 119.825 128.246 120.239C127.689 123.069 127.191 130.558 133.594 136.724L132.841 123.659Z" fill="#363636"/>
<path fill-rule="evenodd" clip-rule="evenodd" d="M136.26 112.324C136.396 112.324 136.533 112.297 136.666 112.242L149.488 106.874C150.023 106.65 150.275 106.035 150.051 105.5C149.827 104.966 149.211 104.713 148.676 104.938L135.854 110.306C135.319 110.53 135.066 111.145 135.291 111.679C135.459 112.081 135.849 112.324 136.26 112.324Z" fill="#363636"/>
<path fill-rule="evenodd" clip-rule="evenodd" d="M144.223 114.575C144.347 114.575 144.475 114.553 144.598 114.506C145.139 114.299 145.411 113.692 145.204 113.15L143.363 108.334C143.156 107.792 142.547 107.521 142.006 107.728C141.464 107.935 141.193 108.541 141.4 109.083L143.241 113.9C143.402 114.318 143.8 114.575 144.223 114.575Z" fill="#363636"/>
<path fill-rule="evenodd" clip-rule="evenodd" d="M148.071 143.408C155.002 143.408 160.641 137.773 160.641 130.847C160.641 123.922 155.002 118.287 148.071 118.287C146.875 118.287 145.691 118.455 144.552 118.786C143.716 119.03 143.236 119.904 143.48 120.739C143.722 121.574 144.598 122.053 145.432 121.81C146.285 121.562 147.173 121.436 148.071 121.436C153.265 121.436 157.489 125.658 157.489 130.847C157.489 136.037 153.265 140.259 148.071 140.259C142.879 140.259 138.654 136.037 138.654 130.847C138.654 129.978 137.949 129.272 137.079 129.272C136.208 129.272 135.503 129.978 135.503 130.847C135.503 137.773 141.141 143.408 148.071 143.408Z" fill="#D5962F"/>
<path fill-rule="evenodd" clip-rule="evenodd" d="M125.797 111.24C126.32 120.237 134.042 127.108 143.045 126.587C152.049 126.065 158.924 118.349 158.402 109.351C157.88 100.354 150.158 93.4828 141.155 94.0049C132.151 94.5263 125.276 102.243 125.797 111.24Z" fill="#DE8857"/>
<path fill-rule="evenodd" clip-rule="evenodd" d="M139.344 93.9775C137.252 94.6315 130.766 97.3872 128.789 102.964L126.063 108.142C124.787 110.694 121.772 111.863 119.101 110.834C116.901 109.987 115.55 107.885 115.55 105.666C115.55 105.044 115.657 104.411 115.872 103.8L125.792 76.0557L139.344 93.9775Z" fill="#363636"/>
<path fill-rule="evenodd" clip-rule="evenodd" d="M202.289 57.1753C202.289 37.3041 186.169 21.1953 166.285 21.1953C146.401 21.1953 130.281 37.3041 130.281 57.1753C130.281 77.0465 146.401 93.1552 166.285 93.1552C186.169 93.1552 202.289 77.0465 202.289 57.1753Z" fill="#363636"/>
<path fill-rule="evenodd" clip-rule="evenodd" d="M132.685 123.529C132.685 123.529 130.514 122.235 128.95 119.944C128.711 119.594 128.171 119.695 128.09 120.109C127.533 122.939 127.034 130.428 133.438 136.593L132.685 123.529Z" fill="#363636"/>
<path fill-rule="evenodd" clip-rule="evenodd" d="M61.893 76.086L70.2211 76.5352L73.3966 71.6674V76.712L78.7327 76.9992L84.5619 67.9705L83.8471 77.279L149.095 80.8287C150.473 69.4507 145.498 59.4647 135.218 53.9193C120.907 46.1942 102.351 44.2131 87.0594 50.7306C87.0152 50.7527 86.971 50.76 86.9341 50.7821C85.1441 51.548 83.4337 52.4538 81.8058 53.4701C73.2787 58.7356 66.9123 67.0279 61.893 76.086Z" fill="#363636"/>
<path fill-rule="evenodd" clip-rule="evenodd" d="M146.353 122.88C151.554 122.88 155.771 127.094 155.771 132.291C155.771 137.489 151.554 141.702 146.353 141.702C141.151 141.702 136.935 137.489 136.935 132.291C136.935 127.094 141.151 122.88 146.353 122.88ZM158.922 132.291C158.922 125.354 153.294 119.731 146.353 119.731C139.411 119.731 133.784 125.354 133.784 132.291C133.784 139.229 139.411 144.851 146.353 144.851C153.294 144.851 158.922 139.229 158.922 132.291Z" fill="#D5962F"/>
<path fill-rule="evenodd" clip-rule="evenodd" d="M148.864 106.42C148.639 105.884 148.023 105.632 147.488 105.857L134.666 111.225C134.131 111.449 133.879 112.064 134.103 112.598C134.327 113.133 134.943 113.385 135.479 113.161L148.301 107.793C148.836 107.569 149.088 106.954 148.864 106.42Z" fill="#363636"/>
<path fill-rule="evenodd" clip-rule="evenodd" d="M140.819 108.647C140.277 108.854 140.005 109.46 140.212 110.002L142.054 114.819C142.261 115.36 142.868 115.632 143.411 115.425C143.952 115.218 144.223 114.611 144.016 114.07L142.175 109.253C141.968 108.711 141.361 108.44 140.819 108.647Z" fill="#363636"/>
<path fill-rule="evenodd" clip-rule="evenodd" d="M146.353 122.88C151.554 122.88 155.771 127.094 155.771 132.291C155.771 137.489 151.554 141.702 146.353 141.702C141.151 141.702 136.935 137.489 136.935 132.291C136.935 131.422 136.229 130.717 135.36 130.717C134.489 130.717 133.784 131.422 133.784 132.291C133.784 139.229 139.411 144.851 146.353 144.851C153.294 144.851 158.922 139.229 158.922 132.291C158.922 125.354 153.294 119.731 146.353 119.731C145.133 119.731 143.951 119.905 142.832 120.231C141.997 120.474 141.517 121.348 141.76 122.182C142.003 123.017 142.877 123.498 143.713 123.255C144.549 123.012 145.434 122.88 146.353 122.88Z" fill="#D5962F"/>
<path fill-rule="evenodd" clip-rule="evenodd" d="M44.6714 96.3081C44.6714 96.3081 50.1561 103.09 59.0753 102.772C62.8553 102.631 67.2548 101.233 72.0938 97.4764C72.0938 97.4764 67.3801 92.0673 59.5347 91.5444C55.3771 91.2538 50.3501 92.3225 44.6714 96.3081Z" fill="white"/>
<path fill-rule="evenodd" clip-rule="evenodd" d="M44.6717 96.3081C44.6717 96.3081 50.1565 103.09 59.0757 102.772C60.3286 101.259 61.0889 99.366 61.1788 97.2566C61.2688 95.1465 60.6553 93.1581 59.5351 91.5444C55.3775 91.2538 50.3505 92.3225 44.6717 96.3081Z" fill="#363636"/>
<path d="M79.5324 92.3064C78.9769 92.1539 78.4039 92.4525 78.2034 92.9804L78.1702 93.0819L73.5702 109.843C72.743 112.855 74.9594 115.828 78.0521 115.925L78.2216 115.927L82.0511 115.916C82.6632 115.914 83.158 115.417 83.1562 114.804C83.1545 114.226 82.7105 113.753 82.1456 113.703L82.0447 113.699L78.2154 113.71C76.547 113.715 75.3214 112.17 75.6747 110.564L75.7078 110.429L80.3079 93.6688C80.4699 93.0785 80.1227 92.4685 79.5324 92.3064Z" fill="#363636"/>
<path d="M68.3716 83.0178C61.7914 80.4394 54.3961 80.4549 46.9387 84.7909C46.41 85.0986 46.23 85.7772 46.5375 86.3064C46.8458 86.8357 47.5242 87.0153 48.0529 86.7076C54.8656 82.7463 61.5664 82.7323 67.563 85.082C68.43 85.4218 69.2008 85.7849 69.8645 86.1462L70.211 86.3401C70.413 86.4565 70.5564 86.5461 70.6381 86.6013C71.1452 86.9441 71.8342 86.8109 72.177 86.3036C72.5198 85.7964 72.3865 85.1073 71.8794 84.7645L71.7388 84.6727C71.5504 84.5532 71.2774 84.3912 70.9243 84.199C70.1819 83.7948 69.3278 83.3925 68.3716 83.0178Z" fill="#363636"/>
<path fill-rule="evenodd" clip-rule="evenodd" d="M83.2571 96.3081C83.2571 96.3081 88.7421 103.09 97.6612 102.772C101.441 102.631 105.841 101.233 110.68 97.4764C110.68 97.4764 105.967 92.0673 98.1206 91.5444C93.963 91.2538 88.936 92.3225 83.2571 96.3081Z" fill="white"/>
<path fill-rule="evenodd" clip-rule="evenodd" d="M83.2653 96.3081C83.2653 96.3081 88.7503 103.09 97.6694 102.772C98.9223 101.259 99.6826 99.366 99.7726 97.2566C99.8625 95.1465 99.249 93.1581 98.1288 91.5444C93.9713 91.2538 88.9442 92.3225 83.2653 96.3081Z" fill="#363636"/>
<path d="M110.402 84.7909C102.945 80.4549 95.5495 80.4394 88.9691 83.0178C88.0129 83.3925 87.1588 83.7948 86.4164 84.199L86.1334 84.356C85.8264 84.5299 85.6008 84.6701 85.4612 84.7645C84.9541 85.1073 84.8208 85.7964 85.1636 86.3036C85.5063 86.8108 86.1953 86.9441 86.7025 86.6013L86.8709 86.4937C87.0136 86.4059 87.2163 86.2876 87.4761 86.1462C88.1398 85.7849 88.9107 85.4218 89.7777 85.082C95.7746 82.7323 102.475 82.7463 109.288 86.7076C109.817 87.0153 110.495 86.8357 110.803 86.3064C111.11 85.7772 110.931 85.0986 110.402 84.7909Z" fill="#363636"/>
<path d="M88.9943 118.198C88.451 118.006 87.8583 118.263 87.6207 118.775L87.5428 118.97C87.5009 119.069 87.4327 119.214 87.3362 119.393C87.1039 119.824 86.8061 120.257 86.4398 120.659C85.232 121.984 83.5955 122.671 81.3598 122.405C80.7519 122.332 80.2005 122.766 80.128 123.374C80.0556 123.982 80.4897 124.534 81.0975 124.606C84.0798 124.962 86.4088 123.984 88.078 122.153C88.9305 121.217 89.4351 120.281 89.671 119.612C89.8746 119.034 89.5716 118.401 88.9943 118.198Z" fill="#363636"/>
<path d="M96.7167 115.319C93.1072 112.714 88.8116 112.269 84.0716 113.927C79.188 115.634 75.8482 117.123 74.1495 122.605C73.7884 123.771 74.4414 125.008 75.6079 125.369C76.7738 125.73 78.0125 125.077 78.3736 123.912C79.6721 119.719 82.0259 119.322 85.5315 118.097C88.9656 116.896 91.7498 117.184 94.1271 118.901C95.1169 119.615 96.4986 119.393 97.2134 118.404C97.929 117.415 97.7065 116.034 96.7167 115.319Z" fill="#363636"/>
<path fill-rule="evenodd" clip-rule="evenodd" d="M118.475 99.5634C118.475 99.5634 110.444 115.175 104.958 120.435C84.3239 140.219 63.6838 139.677 48.2471 120.692C48.0717 120.476 47.8617 120.313 47.6686 120.435C47.4756 120.557 47.5603 120.893 47.5706 121.12C48.4439 139.726 56.8796 149.03 74.3517 149.03C101.18 149.03 117.738 136.549 126.971 108.934C132.624 92.024 118.475 99.5634 118.475 99.5634Z" fill="#363636"/>
</svg>
