<svg width="106" height="105" viewBox="0 0 106 105" fill="none" xmlns="http://www.w3.org/2000/svg">
<path fill-rule="evenodd" clip-rule="evenodd" d="M35.8194 104.708L105.665 70.6891L71.6274 0.998535L1.78125 35.017L35.8194 104.708Z" fill="#9EDCF8"/>
<mask id="mask0_660_23427" style="mask-type:alpha" maskUnits="userSpaceOnUse" x="1" y="1" width="90" height="73">
<path fill-rule="evenodd" clip-rule="evenodd" d="M1.85156 35.0776L71.6966 1.03955L90.2881 39.1276L20.4433 73.1659L1.85156 35.0776Z" fill="white"/>
</mask>
<g mask="url(#mask0_660_23427)">
<path fill-rule="evenodd" clip-rule="evenodd" d="M54.6091 12.8906C50.7663 10.0514 46.7281 9.69978 43.2338 12.2382C39.7746 14.7512 38.1926 19.4594 38.7019 24.768C39.1975 29.9339 41.6138 34.9318 45.2521 37.9563C49.4237 41.4241 54.7908 42.0728 60.6685 39.3222L60.8713 39.2261C62.0212 38.674 63.184 37.9968 64.3582 37.1931L64.3979 37.1656L64.3986 37.3104C64.4013 38.9387 64.2657 40.5352 63.9845 42.071C62.9351 47.8019 59.9371 52.4585 54.9553 55.5335C48.8467 59.3041 43.7615 60.0621 39.2777 58.3284C37.3423 57.58 35.5146 56.3686 33.7107 54.6992C32.1818 53.2844 30.7101 51.5882 29.0406 49.3898L28.9494 49.2694C28.5228 48.7056 28.0823 48.1083 27.5742 47.4077L27.3392 47.0832L26.0122 45.2391C24.5164 43.1653 23.5999 41.961 22.6285 40.8412L22.5131 40.7089C21.2195 39.2343 20.0268 38.1821 18.8148 37.5058C16.7179 36.3357 14.1839 36.8084 11.3204 38.6497C8.91861 40.1941 6.29532 42.6903 3.50607 45.9647C1.95083 47.7905 0.373349 49.8247 -1.20715 52.0171C-2.99185 54.4926 -4.68797 57.0391 -6.24072 59.5156C-6.7468 60.3228 -7.20373 61.0688 -7.606 61.7395L-7.72388 61.9366C-7.81144 62.0832 -7.89224 62.2195 -7.96627 62.3449L-8.12462 62.6147L-8.21875 62.7769L-7.24088 63.3381L-7.06528 63.0369C-7.00445 62.9334 -6.93825 62.8213 -6.86667 62.7007L-6.63861 62.3186C-6.26958 61.7034 -5.85384 61.0237 -5.39579 60.2908L-5.28507 60.1139C-3.74444 57.6566 -2.06144 55.1299 -0.292109 52.6757C1.27163 50.5065 2.83082 48.496 4.36484 46.695C10.202 39.8425 15.0745 36.7093 18.265 38.4896C19.3626 39.1021 20.4805 40.0934 21.7169 41.511C22.6824 42.6178 23.59 43.8082 25.0985 45.8995L26.3704 47.6674L26.7698 48.2188C27.2728 48.9108 27.7121 49.5045 28.1422 50.0709L28.2095 50.1593C29.8879 52.3631 31.3808 54.079 32.9444 55.526C34.8464 57.2861 36.7913 58.5752 38.8707 59.3792C43.7079 61.2496 49.1562 60.4374 55.548 56.4921C60.8114 53.2432 63.9889 48.3079 65.0937 42.2738L65.1225 42.1137C65.443 40.2964 65.5696 38.4033 65.5136 36.477L65.5101 36.3664L65.6059 36.2947C70.8914 32.3012 76.3981 25.7681 82.0102 16.5653L81.047 15.979L80.8287 16.3357C75.5914 24.8638 70.4709 31.0075 65.584 34.8867L65.4355 35.0036L65.4309 34.9411C65.1805 31.7442 64.4425 28.4877 63.267 25.3614C61.2613 20.0278 58.1227 15.4866 54.6091 12.8906ZM43.8969 13.1496C46.9592 10.925 50.4651 11.2303 53.9386 13.7966C57.2623 16.2523 60.2774 20.6147 62.2113 25.7577L62.2718 25.9199C63.454 29.1107 64.165 32.4346 64.35 35.6725L64.3578 35.8161L64.1652 35.954C62.8206 36.9096 61.4948 37.6913 60.1903 38.3018C54.7055 40.8685 49.8062 40.2764 45.9733 37.0901C42.5759 34.2659 40.2929 29.5437 39.8245 24.6605C39.3501 19.7155 40.8004 15.3992 43.8969 13.1496Z" fill="#F5A8B8"/>
</g>
<mask id="mask1_660_23427" style="mask-type:alpha" maskUnits="userSpaceOnUse" x="30" y="46" width="76" height="56">
<path fill-rule="evenodd" clip-rule="evenodd" d="M30.8594 77.5342L94.0092 46.7588L105.692 70.6938L42.5425 101.469L30.8594 77.5342Z" fill="white"/>
</mask>
<g mask="url(#mask1_660_23427)">
<path fill-rule="evenodd" clip-rule="evenodd" d="M97.4775 45.5838L97.0231 44.7744L96.7272 44.9406C89.5483 48.9819 83.9388 52.8569 79.8478 56.5031L79.7954 56.5501L79.7026 56.5479C78.2896 56.5186 76.7539 56.7168 75.1227 57.1549C70.8917 58.291 66.1347 60.9919 61.0384 65.3081C56.5208 69.1341 53.1622 73.7587 50.8538 79.0501C48.8537 83.6349 47.6794 88.6307 47.2185 93.9115C46.7557 99.2122 47.0272 104.513 47.8099 109.564C48.084 111.333 48.4024 112.944 48.7375 114.367C48.8391 114.798 48.9359 115.185 49.0259 115.526L49.0681 115.684C49.0931 115.776 49.1162 115.861 49.1375 115.937L49.1637 116.03L49.199 116.152L50.0887 115.885L50.0808 115.858L50.0229 115.654C50.0049 115.59 49.9856 115.519 49.9648 115.442L49.9375 115.34C49.8459 114.996 49.7463 114.599 49.6415 114.154L49.6186 114.057C49.3124 112.746 49.0208 111.274 48.7657 109.665L48.7277 109.422C47.9557 104.44 47.6879 99.2122 48.1437 93.9923C48.5963 88.8063 49.7478 83.908 51.7052 79.4213C53.9583 74.2558 57.2326 69.7479 61.6389 66.016C66.6375 61.7825 71.2771 59.1485 75.3635 58.051L75.4709 58.0227C76.6086 57.7239 77.6906 57.5493 78.7068 57.4929L78.7718 57.4894L78.7128 57.5456C77.7237 58.483 76.8368 59.4045 76.0514 60.309C72.4851 64.4174 71.1245 68.0782 71.8443 70.9198C72.4831 73.4392 74.7399 75.0399 77.6163 75.2401C80.486 75.4396 83.4824 74.22 85.5362 71.8484C89.7685 66.9621 89.2968 60.5869 84.6121 57.8356L84.5392 57.7933C83.5401 57.22 82.3978 56.839 81.1354 56.6611L81.083 56.654L81.1633 56.5844C85.1893 53.1168 90.6123 49.4297 97.4775 45.5838ZM79.9971 57.618L80.1344 57.4932L80.1808 57.4959C81.692 57.5918 83.0254 57.9799 84.1418 58.6357C88.2892 61.0713 88.7098 66.766 84.8344 71.2412C80.9848 75.6855 73.8848 75.1917 72.7445 70.6924C72.1116 68.1942 73.3667 64.8183 76.7532 60.917C77.6852 59.8431 78.7665 58.7428 79.9971 57.618Z" fill="#F5A8B8"/>
</g>
<path fill-rule="evenodd" clip-rule="evenodd" d="M65.3666 25.8175C65.3666 37.4138 55.9594 46.8146 44.3552 46.8146C32.7506 46.8146 23.3438 37.4138 23.3438 25.8175C23.3438 14.2212 32.7506 4.82031 44.3552 4.82031C55.9594 4.82031 65.3666 14.2212 65.3666 25.8175Z" fill="#9F9BE6"/>
<path fill-rule="evenodd" clip-rule="evenodd" d="M77.5463 36.2876C77.5463 47.8839 68.1391 57.2847 56.5349 57.2847C44.9307 57.2847 35.5234 47.8839 35.5234 36.2876C35.5234 24.6913 44.9307 15.2905 56.5349 15.2905C68.1391 15.2905 77.5463 24.6913 77.5463 36.2876Z" fill="#9F9BE6"/>
<path fill-rule="evenodd" clip-rule="evenodd" d="M46.226 33.6436C46.226 45.2399 36.8188 54.6407 25.2146 54.6407C13.61 54.6407 4.20312 45.2399 4.20312 33.6436C4.20312 22.0473 13.61 12.6465 25.2146 12.6465C36.8188 12.6465 46.226 22.0473 46.226 33.6436Z" fill="#9F9BE6"/>
<path fill-rule="evenodd" clip-rule="evenodd" d="M42.0541 49.0596C42.0541 60.6559 32.6473 70.0567 21.0427 70.0567C9.43847 70.0567 0.03125 60.6559 0.03125 49.0596C0.03125 37.4633 9.43847 28.0625 21.0427 28.0625C32.6473 28.0625 42.0541 37.4633 42.0541 49.0596Z" fill="#9F9BE6"/>
<path fill-rule="evenodd" clip-rule="evenodd" d="M57.7807 61.2036C57.7807 72.7999 48.3735 82.2008 36.7693 82.2008C25.165 82.2008 15.7578 72.7999 15.7578 61.2036C15.7578 49.6073 25.165 40.2065 36.7693 40.2065C48.3735 40.2065 57.7807 49.6073 57.7807 61.2036Z" fill="#9F9BE6"/>
<path fill-rule="evenodd" clip-rule="evenodd" d="M73.1165 71.6884C70.2166 74.7084 66.2521 75.2062 62.0629 74.3669C51.3709 72.2253 39.1602 61.3791 39.1602 61.3791C36.7385 59.4812 34.1607 56.8808 32.5349 54.012L32.4519 53.8608C32.0223 53.0945 31.6659 52.3043 31.3973 51.5089C31.2703 51.1284 31.163 50.7431 31.0799 50.3577C30.5574 47.9767 30.1866 48.1766 29.5567 44.2004C28.6826 38.687 30.9873 33.8082 35.9281 31.1444C42.5826 27.5532 51.2049 26.6313 58.3136 29.6609C58.3328 29.6709 58.3523 29.6757 58.3719 29.6853C66.7599 33.3008 71.1734 42.849 74.2833 50.8747C76.8271 57.4369 78.536 66.0433 73.1165 71.6884Z" fill="#DE8857"/>
<path fill-rule="evenodd" clip-rule="evenodd" d="M58.4345 49.6994L62.8947 87.6122C63.7757 95.0997 58.416 101.883 50.923 102.763C43.4308 103.644 36.6429 98.2877 35.7619 90.8002C35.6696 90.0168 35.6521 89.1656 35.6919 88.4035L37.938 50.2956C38.2721 44.6248 43.1433 40.2986 48.8176 40.6329C53.8775 40.9305 57.8667 44.837 58.4345 49.6994Z" fill="#DE8857"/>
<path fill-rule="evenodd" clip-rule="evenodd" d="M61.3721 74.09C61.3721 74.09 58.206 73.5621 54.0113 71.408C53.4984 71.1444 52.9917 71.768 53.3608 72.2106L62.3156 82.7023L61.3721 74.09Z" fill="#363636"/>
<path fill-rule="evenodd" clip-rule="evenodd" d="M37.1155 63.495C37.1155 63.495 38.1249 62.8934 38.8518 61.8289C38.9626 61.6664 39.2137 61.7126 39.2515 61.9057C39.5102 63.2208 39.7417 66.7015 36.7656 69.5673L37.1155 63.495Z" fill="#363636"/>
<path fill-rule="evenodd" clip-rule="evenodd" d="M40.3853 57.7237C40.1427 61.9056 36.5539 65.0988 32.3692 64.8564C28.1845 64.614 24.9891 61.0273 25.2317 56.8458C25.4742 52.6639 29.0631 49.4707 33.2478 49.7131C37.4325 49.9555 40.6282 53.5419 40.3853 57.7237Z" fill="#DE8857"/>
<path fill-rule="evenodd" clip-rule="evenodd" d="M35.5179 58.2267C35.4548 58.2267 35.391 58.2144 35.3296 58.1887L29.3702 55.6939C29.1211 55.5897 29.0041 55.3038 29.1084 55.0555C29.2127 54.8066 29.4988 54.6897 29.7472 54.794L35.7066 57.2888C35.9554 57.393 36.0727 57.6786 35.9684 57.9271C35.8898 58.1143 35.7087 58.2267 35.5179 58.2267Z" fill="#363636"/>
<path fill-rule="evenodd" clip-rule="evenodd" d="M31.8243 59.2729C31.7667 59.2729 31.7076 59.2626 31.6503 59.2407C31.398 59.1444 31.2721 58.8625 31.3682 58.6109L32.2245 56.3722C32.3209 56.1206 32.6027 55.9941 32.855 56.0904C33.1069 56.1864 33.2332 56.4686 33.1371 56.7202L32.2808 58.9589C32.2063 59.1533 32.021 59.2729 31.8243 59.2729Z" fill="#363636"/>
<path fill-rule="evenodd" clip-rule="evenodd" d="M33.2856 24.2622C40.4375 24.2622 46.2353 30.0561 46.2353 37.2031C46.2353 40.5323 44.9773 43.5678 42.9103 45.861C44.0647 48.7387 44.8953 51.4629 45.4013 54.0338C45.5012 54.3183 45.5512 54.6128 45.5512 54.9025C45.5512 55.9355 44.9221 56.9139 43.898 57.3082C42.6822 57.7761 41.3133 57.2667 40.6975 56.1333L40.6567 56.0551L39.3881 53.6446C38.7174 51.7519 36.931 50.5574 35.6346 49.9307C34.873 50.071 34.088 50.144 33.2856 50.144C26.1337 50.144 20.3359 44.3501 20.3359 37.2031C20.3359 30.0561 26.1337 24.2622 33.2856 24.2622Z" fill="#9F9BE6"/>
<path fill-rule="evenodd" clip-rule="evenodd" d="M63.9776 25.8179C63.9776 32.965 58.1798 38.7588 51.0279 38.7588C43.8759 38.7588 38.0781 32.965 38.0781 25.8179C38.0781 18.6709 43.8759 12.877 51.0279 12.877C58.1798 12.877 63.9776 18.6709 63.9776 25.8179Z" fill="#9F9BE6"/>
<path fill-rule="evenodd" clip-rule="evenodd" d="M62.8816 59.6717C62.8796 59.6717 62.8772 59.6717 62.8751 59.6717L61.0927 59.6666C60.8074 59.6659 60.5774 59.4341 60.5781 59.1491C60.5788 58.8642 60.8143 58.6207 61.0955 58.6345L62.8782 58.6393C62.8792 58.6396 62.8806 58.6396 62.8816 58.6396C63.2606 58.6396 63.6097 58.4669 63.8401 58.1654C64.0715 57.8633 64.1463 57.4794 64.0454 57.1124L61.9039 49.3098C61.8284 49.0348 61.9901 48.7508 62.2651 48.6753C62.54 48.5998 62.824 48.7615 62.8991 49.0365L65.0409 56.8391C65.2273 57.5199 65.0887 58.2321 64.6602 58.7927C64.2328 59.3514 63.5847 59.6717 62.8816 59.6717Z" fill="#363636"/>
<path fill-rule="evenodd" clip-rule="evenodd" d="M77.3276 46.1393C77.2397 46.1393 77.1501 46.1167 77.0687 46.0693C71.4618 42.8089 66.7518 45.8877 66.5541 46.0202C66.3182 46.1788 65.9972 46.1163 65.8383 45.8801C65.679 45.6439 65.7412 45.3239 65.977 45.1646C66.1957 45.0166 71.4072 41.5831 77.5874 45.1769C77.8339 45.3201 77.9173 45.636 77.7742 45.8825C77.6784 46.0473 77.5054 46.1393 77.3276 46.1393Z" fill="#363636"/>
<mask id="mask2_660_23427" style="mask-type:alpha" maskUnits="userSpaceOnUse" x="65" y="48" width="14" height="6">
<path fill-rule="evenodd" clip-rule="evenodd" d="M65.7109 48.3003H78.4767V53.5533H65.7109V48.3003Z" fill="white"/>
</mask>
<g mask="url(#mask2_660_23427)">
<path fill-rule="evenodd" clip-rule="evenodd" d="M78.477 50.5391C78.477 50.5391 75.9236 53.6962 71.7714 53.5482C70.0117 53.4826 67.9636 52.8316 65.7109 51.083C65.7109 51.083 67.9053 48.5649 71.5576 48.3211C73.4931 48.1861 75.8333 48.6837 78.477 50.5391Z" fill="white"/>
</g>
<mask id="mask3_660_23427" style="mask-type:alpha" maskUnits="userSpaceOnUse" x="70" y="48" width="9" height="6">
<path fill-rule="evenodd" clip-rule="evenodd" d="M70.7969 48.3003H78.4853V53.5533H70.7969V48.3003Z" fill="white"/>
</mask>
<g mask="url(#mask3_660_23427)">
<path fill-rule="evenodd" clip-rule="evenodd" d="M78.4857 50.5391C78.4857 50.5391 75.9321 53.6962 71.78 53.5482C71.1967 52.8437 70.8428 51.9626 70.8009 50.9806C70.759 49.9983 71.0447 49.0727 71.5661 48.3211C73.5016 48.1861 75.8418 48.6837 78.4857 50.5391Z" fill="#363636"/>
</g>
<mask id="mask4_660_23427" style="mask-type:alpha" maskUnits="userSpaceOnUse" x="47" y="43" width="13" height="4">
<path fill-rule="evenodd" clip-rule="evenodd" d="M47.7656 43.543H59.8601V46.1394H47.7656V43.543Z" fill="white"/>
</mask>
<g mask="url(#mask4_660_23427)">
<path fill-rule="evenodd" clip-rule="evenodd" d="M48.2822 46.1393C48.1044 46.1393 47.9314 46.0473 47.8356 45.8825C47.6925 45.636 47.7759 45.3201 48.0224 45.1769C54.2027 41.5831 59.4142 45.0166 59.6329 45.1646C59.8691 45.3242 59.9312 45.6449 59.7716 45.8812C59.6123 46.117 59.292 46.1795 59.0558 46.0202C58.8577 45.8873 54.1474 42.8092 48.5411 46.0693C48.4597 46.1167 48.3701 46.1393 48.2822 46.1393Z" fill="#363636"/>
</g>
<path fill-rule="evenodd" clip-rule="evenodd" d="M60.9938 63.7448C58.9333 63.7448 57.8399 62.2454 57.5375 61.387C57.4424 61.1182 57.5835 60.8236 57.8523 60.7289C58.1204 60.6341 58.4139 60.7742 58.5097 61.0413C58.5389 61.121 59.2333 62.9465 61.4067 62.6873C61.6903 62.6533 61.9464 62.8555 61.9804 63.1388C62.014 63.4221 61.8118 63.6786 61.5289 63.7125C61.3439 63.7345 61.1654 63.7448 60.9938 63.7448Z" fill="#363636"/>
<path fill-rule="evenodd" clip-rule="evenodd" d="M51.184 54.255C50.99 54.255 50.8064 54.1386 50.7302 53.9473C50.6303 53.6967 50.7525 53.4124 51.0031 53.3125L56.1247 51.2703L51.1964 49.1872C50.9478 49.0821 50.8314 48.7954 50.9365 48.5468C51.0415 48.2982 51.3285 48.1822 51.5767 48.2873L57.6005 50.8332C57.7831 50.9104 57.9009 51.09 57.8992 51.2881C57.8971 51.4862 57.7756 51.6637 57.5916 51.7369L51.3646 54.22C51.3055 54.2437 51.2441 54.255 51.184 54.255Z" fill="#363636"/>
<path d="M54.3327 59.3958C56.013 58.183 58.0128 57.976 60.2194 58.7476C62.4929 59.5422 64.0477 60.2353 64.8384 62.7877C65.0065 63.3304 64.7026 63.9062 64.1595 64.0742C63.6168 64.2422 63.0401 63.9385 62.872 63.3958C62.2675 61.444 61.1717 61.2592 59.5398 60.6888C57.9411 60.1301 56.645 60.2641 55.5382 61.0632C55.0775 61.3957 54.4343 61.2921 54.1015 60.8318C53.7684 60.3714 53.872 59.7287 54.3327 59.3958Z" fill="#9F9BE6"/>
<path fill-rule="evenodd" clip-rule="evenodd" d="M44.201 52.0611C44.201 52.0611 47.9397 59.3289 50.4935 61.7775C60.0994 70.9876 69.708 70.7353 76.8942 61.8971C76.9759 61.7964 77.0736 61.7206 77.1635 61.7775C77.2534 61.8344 77.2139 61.9907 77.2091 62.0963C76.8026 70.7582 72.8755 75.0894 64.7418 75.0894C52.2524 75.0894 44.5441 69.2791 40.2458 56.4235C37.6141 48.5513 44.201 52.0611 44.201 52.0611Z" fill="#9F9BE6"/>
</svg>
