<svg width="86" height="92" viewBox="0 0 86 92" fill="none" xmlns="http://www.w3.org/2000/svg">
<path fill-rule="evenodd" clip-rule="evenodd" d="M34.2617 0.995117L71.3644 19.095L74.2266 60.319L39.9861 83.4427L2.88354 65.3429L0.0214691 24.1193L34.2617 0.995117Z" fill="#9EDCF8"/>
<path fill-rule="evenodd" clip-rule="evenodd" d="M73.375 49.449L65.1034 66.4116L56.5712 72.1919L72.676 39.1655L73.375 49.449Z" fill="#F5A8B8"/>
<path fill-rule="evenodd" clip-rule="evenodd" d="M38.364 82.6549L33.7483 80.4033L65.1265 16.0552L69.7422 18.3069L38.364 82.6549Z" fill="#F5A8B8"/>
<path fill-rule="evenodd" clip-rule="evenodd" d="M23.7468 75.5188L19.1311 73.2672L50.5093 8.91943L55.125 11.1711L23.7468 75.5188Z" fill="#F5A8B8"/>
<path fill-rule="evenodd" clip-rule="evenodd" d="M7.62147 67.6552L3.00607 65.4035L34.3843 1.05566L39 3.30735L7.62147 67.6552Z" fill="#F5A8B8"/>
<path fill-rule="evenodd" clip-rule="evenodd" d="M1.30725 43.4731L0.596642 33.2141L7.47201 19.1145L15.9922 13.3589L1.30725 43.4731Z" fill="#F5A8B8"/>
<path fill-rule="evenodd" clip-rule="evenodd" d="M54.1797 73.841L49.2536 77.1521L1.98479 54.0933L1.56117 48.1719L54.1797 73.841Z" fill="#F5A8B8"/>
<path fill-rule="evenodd" clip-rule="evenodd" d="M69.7656 63.3315L64.8394 66.6433L0.670677 35.3395L0.247055 29.418L69.7656 63.3315Z" fill="#F5A8B8"/>
<path fill-rule="evenodd" clip-rule="evenodd" d="M73.0774 45.075L73.5 50.9959L7.60294 18.8493L12.5282 15.5371L73.0774 45.075Z" fill="#F5A8B8"/>
<path fill-rule="evenodd" clip-rule="evenodd" d="M71.7595 26.3226L72.1797 32.2424L23.325 8.40954L28.2476 5.09619L71.7595 26.3226Z" fill="#F5A8B8"/>
<path fill-rule="evenodd" clip-rule="evenodd" d="M32.3022 38.7487L27.9067 76.1111C27.0385 83.4899 32.3208 90.1751 39.7046 91.0423C47.0881 91.9099 53.7778 86.6316 54.646 79.2529C54.7366 78.4809 54.7538 77.642 54.7146 76.8909L52.5011 39.3362C52.1719 33.7478 47.3714 29.4844 41.7794 29.8138C36.7926 30.107 32.8617 33.9569 32.3022 38.7487Z" fill="#DE8857"/>
<path fill-rule="evenodd" clip-rule="evenodd" d="M17.7061 60.5264C20.5687 63.5073 24.482 63.9986 28.6168 63.1705C39.1709 61.0562 51.2243 50.3502 51.2243 50.3502C53.6146 48.4768 56.1587 45.9101 57.7636 43.0782L57.8457 42.9289C58.2693 42.1727 58.6216 41.3926 58.8867 40.6078C59.0118 40.2321 59.1179 39.8517 59.1998 39.4712C59.2096 39.4327 59.214 39.3989 59.2241 39.3652C59.7251 37.1259 60.0913 37.2559 60.7036 33.3936C61.566 27.9514 59.2914 23.1352 54.4141 20.5061C47.8455 16.9613 39.3348 16.0511 32.3182 19.0418C32.2989 19.0516 32.2796 19.0563 32.2604 19.0661C31.4408 19.4175 30.6555 19.8317 29.9086 20.299C23.1276 24.4887 19.3205 32.8442 16.5546 39.9817C14.0436 46.4591 12.3572 54.9545 17.7061 60.5264Z" fill="#DE8857"/>
<path fill-rule="evenodd" clip-rule="evenodd" d="M46.2798 31.9496C55.2587 44.757 58.3931 41.6011 58.3931 41.6011L58.4675 41.4288C58.5926 41.1348 58.7041 40.8409 58.8022 40.547C58.9273 40.1716 59.0354 39.7902 59.1166 39.4114C59.1267 39.3712 59.1301 39.3374 59.1403 39.3037C59.641 37.067 60.0091 37.1954 60.6211 33.3337C60.6481 33.1513 60.6752 32.9689 60.6954 32.7898C60.7563 32.283 60.7901 31.783 60.7969 31.2897L55.9994 28.6511C55.9994 28.6511 42.7654 26.9364 46.2798 31.9496Z" fill="#E8E1E1"/>
<path fill-rule="evenodd" clip-rule="evenodd" d="M60.2414 51.4198C62.6239 51.4198 64.5622 53.3567 64.5622 55.7372C64.5622 58.1181 62.6239 60.0547 60.2414 60.0547C57.8593 60.0547 55.921 58.1181 55.921 55.7372C55.921 53.3567 57.8593 51.4198 60.2414 51.4198ZM60.2414 61.4997C63.4211 61.4997 66.0078 58.9144 66.0078 55.7372C66.0078 52.56 63.4211 49.9751 60.2414 49.9751C57.062 49.9751 54.4754 52.56 54.4754 55.7372C54.4754 58.9144 57.062 61.4997 60.2414 61.4997Z" fill="#D5962F"/>
<path fill-rule="evenodd" clip-rule="evenodd" d="M29.3734 62.8989C29.3734 62.8989 32.4987 62.3779 36.6392 60.2514C37.1453 59.9913 37.6457 60.6069 37.2816 61.044L28.7608 68.4911L29.3734 62.8989Z" fill="#363636"/>
<path fill-rule="evenodd" clip-rule="evenodd" d="M53.2564 52.4389C53.2564 52.4389 52.2604 51.8453 51.543 50.7942C51.4331 50.6341 51.1853 50.6797 51.1481 50.8699C50.8928 52.1683 50.6639 55.6039 53.6016 58.4325L53.2564 52.4389Z" fill="#363636"/>
<path fill-rule="evenodd" clip-rule="evenodd" d="M54.8154 47.2395C54.8776 47.2395 54.9405 47.2273 55.0013 47.202L60.8837 44.7393C61.1295 44.6366 61.2451 44.3545 61.142 44.1089C61.0395 43.864 60.7569 43.7481 60.5114 43.8511L54.6287 46.3137C54.3833 46.4165 54.2677 46.6986 54.3708 46.9438C54.4479 47.1283 54.6267 47.2395 54.8154 47.2395Z" fill="#363636"/>
<path fill-rule="evenodd" clip-rule="evenodd" d="M58.4709 48.2709C58.528 48.2709 58.5865 48.2608 58.643 48.2391C58.8916 48.1442 59.0161 47.8658 58.9214 47.6172L58.0761 45.4076C57.9811 45.1589 57.7017 45.0346 57.4535 45.1295C57.2048 45.2245 57.0804 45.5029 57.1751 45.7512L58.0203 47.9611C58.0941 48.153 58.2771 48.2709 58.4709 48.2709Z" fill="#363636"/>
<path fill-rule="evenodd" clip-rule="evenodd" d="M60.2414 61.4997C63.4211 61.4997 66.0078 58.9148 66.0078 55.7372C66.0078 52.56 63.4211 49.9751 60.2414 49.9751C59.6927 49.9751 59.1494 50.0521 58.6267 50.2042C58.2433 50.316 58.0229 50.7167 58.1348 51.0998C58.246 51.4829 58.6477 51.7029 59.0307 51.5914C59.4219 51.4775 59.8293 51.4198 60.2414 51.4198C62.6239 51.4198 64.5622 53.3567 64.5622 55.7372C64.5622 58.1181 62.6239 60.055 60.2414 60.055C57.8593 60.055 55.921 58.1181 55.921 55.7372C55.921 55.3386 55.5975 55.0149 55.1982 55.0149C54.7989 55.0149 54.4754 55.3386 54.4754 55.7372C54.4754 58.9148 57.062 61.4997 60.2414 61.4997Z" fill="#D5962F"/>
<path fill-rule="evenodd" clip-rule="evenodd" d="M50.0214 46.7417C50.2611 50.8693 53.8036 54.0215 57.934 53.7823C62.0647 53.5428 65.2191 50.0027 64.9794 45.8751C64.74 41.7472 61.1975 38.595 57.0668 38.8346C52.9364 39.0738 49.7821 42.6142 50.0214 46.7417Z" fill="#DE8857"/>
<path fill-rule="evenodd" clip-rule="evenodd" d="M56.2344 38.8222C55.2745 39.1222 52.2991 40.3864 51.392 42.945L50.1417 45.3205C49.5562 46.4911 48.173 47.0273 46.9475 46.5553C45.9383 46.1668 45.3182 45.2026 45.3182 44.1846C45.3182 43.8991 45.3676 43.6089 45.466 43.3285L50.0173 30.6001L56.2344 38.8222Z" fill="#E8E1E1"/>
<path fill-rule="evenodd" clip-rule="evenodd" d="M85.1172 21.9397C85.1172 12.8234 77.7219 5.43311 68.5996 5.43311C59.4771 5.43311 52.0818 12.8234 52.0818 21.9397C52.0818 31.0561 59.4771 38.4463 68.5996 38.4463C77.7219 38.4463 85.1172 31.0561 85.1172 21.9397Z" fill="#E8E1E1"/>
<path fill-rule="evenodd" clip-rule="evenodd" d="M56.7045 29.651L60.8245 4.05405C60.9029 3.56609 60.5709 3.10694 60.0827 3.02856C59.5948 2.95017 59.135 3.28195 59.0566 3.76981C59.0546 3.78231 59.0526 3.79819 59.0509 3.81103L56.1244 29.5716C56.1061 29.7321 56.2214 29.877 56.3823 29.8953C56.5385 29.9132 56.6799 29.8044 56.7045 29.651Z" fill="#D5962F"/>
<path fill-rule="evenodd" clip-rule="evenodd" d="M57.0188 4.12553C56.9701 4.61678 57.3292 5.05497 57.8211 5.10363L60.1965 5.33911C60.6881 5.38776 61.1266 5.02896 61.1753 4.53738C61.224 4.04614 60.8649 3.60801 60.373 3.55925L57.9976 3.32377C57.5057 3.27502 57.0675 3.63392 57.0188 4.12553Z" fill="#D5962F"/>
<path fill-rule="evenodd" clip-rule="evenodd" d="M58.7339 28.1981L50.1921 3.71743C50.0295 3.25085 49.519 3.00455 49.0521 3.1674C48.5852 3.32991 48.3387 3.84007 48.5013 4.30665C48.5057 4.31881 48.5115 4.33368 48.5162 4.3455L58.1855 28.4035C58.2457 28.5535 58.4164 28.6265 58.5665 28.566C58.7122 28.5076 58.7846 28.3447 58.7339 28.1981Z" fill="#D5962F"/>
<path fill-rule="evenodd" clip-rule="evenodd" d="M50.2117 3.70778C50.021 3.25208 49.4967 3.03713 49.0409 3.22765L46.8383 4.14797C46.3822 4.33852 46.1672 4.86219 46.3579 5.31796C46.5482 5.77373 47.0726 5.9886 47.5287 5.79805L49.7313 4.87774C50.1874 4.68718 50.4024 4.16351 50.2117 3.70778Z" fill="#D5962F"/>
<path fill-rule="evenodd" clip-rule="evenodd" d="M53.1861 52.38C53.1861 52.38 52.1901 51.7863 51.4726 50.7353C51.3628 50.5748 51.1149 50.6207 51.0778 50.811C50.8225 52.1093 50.5936 55.545 53.5312 58.3735L53.1861 52.38Z" fill="#363636"/>
<path fill-rule="evenodd" clip-rule="evenodd" d="M20.7033 30.6156L24.524 30.8217L25.9808 28.5884V30.9028L28.4289 31.0345L31.1031 26.8924L30.7752 31.1629L60.709 32.7914C61.3412 27.5715 59.0592 22.9902 54.3428 20.4461C47.7772 16.902 39.2642 15.9932 32.2489 18.9832C32.2286 18.9933 32.2083 18.9967 32.1914 19.0069C31.3702 19.3582 30.5855 19.7738 29.8387 20.24C25.9267 22.6557 23.006 26.4599 20.7033 30.6156Z" fill="#E8E1E1"/>
<path fill-rule="evenodd" clip-rule="evenodd" d="M59.4445 52.0814C61.8308 52.0814 63.7653 54.0143 63.7653 56.3988C63.7653 58.7834 61.8308 60.7163 59.4445 60.7163C57.0583 60.7163 55.1241 58.7834 55.1241 56.3988C55.1241 54.0143 57.0583 52.0814 59.4445 52.0814ZM65.2109 56.3988C65.2109 53.2162 62.629 50.6367 59.4445 50.6367C56.2601 50.6367 53.6785 53.2162 53.6785 56.3988C53.6785 59.5814 56.2601 62.161 59.4445 62.161C62.629 62.161 65.2109 59.5814 65.2109 56.3988Z" fill="#D5962F"/>
<path fill-rule="evenodd" clip-rule="evenodd" d="M60.5875 44.5307C60.4844 44.285 60.2021 44.1695 59.9566 44.2725L54.0742 46.7352C53.8288 46.8379 53.7132 47.12 53.8159 47.3653C53.9187 47.6106 54.201 47.7261 54.4468 47.6234L60.3292 45.1608C60.5746 45.0581 60.6903 44.776 60.5875 44.5307Z" fill="#363636"/>
<path fill-rule="evenodd" clip-rule="evenodd" d="M56.9067 45.5524C56.6581 45.6473 56.5333 45.9257 56.6284 46.174L57.4736 48.3839C57.5687 48.6323 57.8474 48.7569 58.0963 48.662C58.3449 48.5671 58.4694 48.2887 58.3743 48.0403L57.5291 45.8304C57.434 45.5818 57.1557 45.4574 56.9067 45.5524Z" fill="#363636"/>
<path fill-rule="evenodd" clip-rule="evenodd" d="M59.4445 52.0814C61.8308 52.0814 63.7653 54.0143 63.7653 56.3988C63.7653 58.7834 61.8308 60.7163 59.4445 60.7163C57.0583 60.7163 55.1241 58.7834 55.1241 56.3988C55.1241 55.9998 54.8002 55.6765 54.4013 55.6765C54.002 55.6765 53.6785 55.9998 53.6785 56.3988C53.6785 59.5814 56.2601 62.161 59.4445 62.161C62.629 62.161 65.2109 59.5814 65.2109 56.3988C65.2109 53.2162 62.629 50.6367 59.4445 50.6367C58.885 50.6367 58.3427 50.7165 57.8295 50.8658C57.4461 50.9773 57.226 51.3783 57.3376 51.7611C57.4492 52.1442 57.8501 52.3645 58.2335 52.253C58.6169 52.1415 59.0233 52.0814 59.4445 52.0814Z" fill="#D5962F"/>
<path fill-rule="evenodd" clip-rule="evenodd" d="M12.8178 39.8906C12.8178 39.8906 15.3341 43.0019 19.4259 42.8561C21.1601 42.7914 23.1784 42.1499 25.3984 40.4266C25.3984 40.4266 23.236 37.945 19.6367 37.7051C17.7293 37.5718 15.423 38.0621 12.8178 39.8906Z" fill="white"/>
<path fill-rule="evenodd" clip-rule="evenodd" d="M12.8136 39.8906C12.8136 39.8906 15.3299 43.0019 19.4218 42.8561C19.9966 42.1617 20.3454 41.2935 20.3866 40.3258C20.4279 39.3577 20.1464 38.4455 19.6326 37.7051C17.7252 37.5718 15.4189 38.0621 12.8136 39.8906Z" fill="#363636"/>
<path d="M28.814 38.0539C28.5592 37.9839 28.2963 38.1209 28.2043 38.3631L28.1891 38.4097L26.0787 46.099C25.6993 47.4812 26.7161 48.8448 28.1349 48.8894L28.2127 48.8905L29.9695 48.8854C30.2504 48.8846 30.4774 48.6562 30.4766 48.3754C30.4758 48.1101 30.2721 47.8929 30.0129 47.8702L29.9666 47.8683L28.2099 47.8734C27.4444 47.8754 26.8822 47.167 27.0442 46.4298L27.0594 46.3683L29.1698 38.6789C29.2441 38.4081 29.0849 38.1283 28.814 38.0539Z" fill="#363636"/>
<path d="M23.6904 33.7937C20.6716 32.6108 17.2788 32.6179 13.8575 34.6071C13.615 34.7483 13.5324 35.0596 13.6735 35.3024C13.8149 35.5452 14.1262 35.6276 14.3687 35.4864C17.4942 33.6691 20.5683 33.6627 23.3194 34.7407C23.7172 34.8966 24.0708 35.0632 24.3753 35.2289L24.5342 35.3178C24.6269 35.3713 24.6927 35.4124 24.7302 35.4377C24.9628 35.595 25.2789 35.5339 25.4362 35.3011C25.5934 35.0684 25.5323 34.7523 25.2997 34.595L25.2351 34.5529C25.1487 34.4981 25.0235 34.4238 24.8615 34.3356C24.5209 34.1501 24.129 33.9656 23.6904 33.7937Z" fill="#363636"/>
<path fill-rule="evenodd" clip-rule="evenodd" d="M30.5208 39.8906C30.5208 39.8906 33.0372 43.0019 37.129 42.8561C38.8632 42.7914 40.8816 42.1499 43.1016 40.4266C43.1016 40.4266 40.9394 37.945 37.3398 37.7051C35.4324 37.5718 33.1262 38.0621 30.5208 39.8906Z" fill="white"/>
<path fill-rule="evenodd" clip-rule="evenodd" d="M30.5167 39.8906C30.5167 39.8906 33.0331 43.0019 37.1249 42.8561C37.6997 42.1617 38.0485 41.2935 38.0898 40.3258C38.131 39.3577 37.8496 38.4455 37.3357 37.7051C35.4283 37.5718 33.122 38.0621 30.5167 39.8906Z" fill="#363636"/>
<path d="M42.9736 34.6071C39.5526 32.6179 36.1598 32.6108 33.1409 33.7937C32.7022 33.9656 32.3104 34.1501 31.9698 34.3356L31.84 34.4076C31.6991 34.4874 31.5956 34.5517 31.5316 34.595C31.2989 34.7523 31.2378 35.0684 31.395 35.3011C31.5523 35.5338 31.8684 35.595 32.101 35.4377L32.1783 35.3883C32.2437 35.3481 32.3368 35.2938 32.456 35.2289C32.7604 35.0632 33.1141 34.8966 33.5119 34.7407C36.2631 33.6627 39.3372 33.6691 42.4624 35.4864C42.7052 35.6276 43.0164 35.5452 43.1576 35.3024C43.2987 35.0596 43.2164 34.7483 42.9736 34.6071Z" fill="#363636"/>
<path d="M33.1527 49.9339C32.9034 49.846 32.6315 49.9639 32.5225 50.1989L32.4867 50.2882C32.4675 50.3335 32.4362 50.4002 32.392 50.4823C32.2854 50.6801 32.1488 50.8787 31.9807 51.0631C31.4266 51.671 30.6758 51.9861 29.6501 51.8639C29.3713 51.8307 29.1183 52.0298 29.0851 52.3087C29.0518 52.5876 29.251 52.8406 29.5298 52.8739C30.898 53.0369 31.9665 52.5885 32.7323 51.7483C33.1234 51.3192 33.3549 50.8896 33.4631 50.5826C33.5565 50.3177 33.4175 50.0273 33.1527 49.9339Z" fill="#363636"/>
<path opacity="0.01" d="M36.6735 48.6132C35.0175 47.418 33.0468 47.214 30.8723 47.9744C28.6318 48.7575 27.0996 49.4405 26.3203 51.9559C26.1546 52.4906 26.4542 53.0582 26.9893 53.2237C27.5242 53.3892 28.0925 53.0899 28.2582 52.5552C28.8539 50.6316 29.9337 50.4496 31.542 49.8874C33.1175 49.3368 34.3948 49.4689 35.4854 50.2563C35.9395 50.584 36.5734 50.482 36.9014 50.0283C37.2296 49.5746 37.1275 48.9412 36.6735 48.6132Z" fill="#E8E1E1"/>
</svg>
