<svg width="72" height="89" viewBox="0 0 72 89" fill="none" xmlns="http://www.w3.org/2000/svg">
<path opacity="0.4" d="M42.0403 74.3204C42.0403 76.8524 39.9674 78.9032 37.4082 78.9032H25.2732L11.5399 88.9028L14.2431 78.9032H4.65551C2.0963 78.9032 0.0234375 76.8524 0.0234375 74.3204V27.5063C0.0234375 24.9766 2.0963 22.9258 4.65551 22.9258H37.4106C39.9698 22.9258 42.0427 24.9766 42.0427 27.5063V74.3204H42.0403Z" fill="#EA579B" fill-opacity="0.3"/>
<path opacity="0.4" d="M66.9873 0.935406L57.8149 10.1265L30.2738 10.1549C23.9938 10.1596 18.9626 15.7855 19.032 22.7149L19.1492 34.3783C19.2186 41.3101 24.3622 46.9217 30.6422 46.917L59.8102 46.8886C66.0902 46.8815 71.1214 41.2556 71.0544 34.3262L70.9395 22.6629C70.9013 18.88 69.3486 15.4921 66.9275 13.1926C69.229 6.49029 66.9897 0.933037 66.9897 0.933037L66.9873 0.935406Z" fill="#2BA3D9" fill-opacity="0.2"/>
</svg>
