<svg width="106" height="133" viewBox="0 0 106 133" fill="none" xmlns="http://www.w3.org/2000/svg">
<path opacity="0.4" d="M42.045 111.016C42.045 114.814 45.1543 117.89 48.9931 117.89H67.1956L87.7956 132.89L83.7408 117.89H98.1222C101.961 117.89 105.07 114.814 105.07 111.016V40.7951C105.07 37.0006 101.961 33.9243 98.1222 33.9243H48.9896C45.1508 33.9243 42.0415 37.0006 42.0415 40.7951V111.016H42.045Z" fill="#EA579B" fill-opacity="0.3"/>
<path opacity="0.4" d="M6.05843 0.939735L19.6406 14.7264L60.4227 14.769C69.722 14.7761 77.172 23.2149 77.0693 33.609L76.8957 51.104C76.7929 61.5017 69.1764 69.9192 59.8772 69.9121L16.6861 69.8695C7.38689 69.8589 -0.0631409 61.4201 0.0360489 51.026L0.206108 33.5309C0.262794 27.8566 2.5619 22.7748 6.14699 19.3255C2.73904 9.27206 6.0549 0.93618 6.0549 0.93618L6.05843 0.939735Z" fill="#2BA3D9" fill-opacity="0.2"/>
</svg>
