<svg width="98" height="74" viewBox="0 0 98 74" fill="none" xmlns="http://www.w3.org/2000/svg">
<path fill-rule="evenodd" clip-rule="evenodd" d="M3.81659 53.553C-5.28182 35.0688 2.45394 12.7809 21.0945 3.77199C39.7353 -5.23701 62.2221 2.44439 71.3203 20.9287L3.81659 53.553Z" fill="#B6CCFC"/>
<path fill-rule="evenodd" clip-rule="evenodd" d="M15.6931 6.95768L15.4608 7.32733C10.7845 14.711 5.92885 21.9853 0.911251 29.1213L0.910742 29.121C0.792051 29.6457 0.685074 30.1731 0.589817 30.7029L0.590326 30.7031C6.2839 22.6517 11.7732 14.4216 17.0312 6.05452L17.0307 6.05371C16.5764 6.34655 16.1306 6.64797 15.6931 6.95768Z" fill="#EE82DA"/>
<path fill-rule="evenodd" clip-rule="evenodd" d="M56.0375 4.8291C55.1473 11.0037 55.9376 17.4198 58.3563 23.5174C58.7663 24.5511 59.2169 25.5599 59.7063 26.5415L60.2969 26.2561C59.815 25.2897 59.3713 24.2964 58.9675 23.2786C56.6244 17.3715 55.8356 11.1628 56.6504 5.17946L56.6507 5.17905C56.4658 5.07099 56.2799 4.96459 56.0932 4.85975L56.0375 4.8291Z" fill="#EE82DA"/>
<path fill-rule="evenodd" clip-rule="evenodd" d="M31.2883 22.1247C32.4346 19.4283 33.7062 16.7891 35.1004 14.2119C35.1592 14.2259 35.2179 14.2405 35.2764 14.2555C38.7241 15.142 41.6862 17.876 42.8225 21.2215C43.9587 24.5666 43.2688 28.5205 41.0643 31.2949C39.7352 32.9672 37.632 34.1449 35.5754 34.3684C34.0764 34.5312 32.7382 34.1745 31.7058 33.3369C28.3517 30.6162 30.0045 25.1442 31.2883 22.1247ZM44.0757 0.5725C40.8532 4.66332 37.9882 8.97613 35.4992 13.4822C39.197 14.4401 42.3721 17.3751 43.5913 20.9646C44.8129 24.5602 44.0711 28.8102 41.7017 31.792C40.2424 33.6283 37.9288 34.9213 35.6635 35.1676C33.9429 35.3544 32.3967 34.9365 31.1916 33.9591C29.5768 32.6492 27.345 29.3295 30.5408 21.8128C31.6646 19.1689 32.9084 16.5793 34.2686 14.0488C31.0259 13.5455 27.3392 14.4737 24.2061 16.6185C21.3748 18.5573 18.9327 21.3597 16.5207 25.4379C13.418 30.6844 11.2724 36.4378 10.143 42.5384C9.62598 45.3306 9.33409 48.1295 9.26736 50.9191L8.44825 51.315C8.49562 48.3462 8.79464 45.366 9.34479 42.3936C10.4915 36.2007 12.6702 30.3593 15.8208 25.0317C18.295 20.8486 20.8129 17.965 23.7451 15.9573C27.1373 13.6342 31.1606 12.669 34.6746 13.3017C37.1411 8.81009 39.9772 4.50824 43.1651 0.423828C43.4693 0.469716 43.7729 0.51928 44.0757 0.5725Z" fill="#EE82DA"/>
<mask id="mask0_662_7911" style="mask-type:alpha" maskUnits="userSpaceOnUse" x="16" y="16" width="38" height="37">
<path fill-rule="evenodd" clip-rule="evenodd" d="M53.6406 16.2197H16.8232V52.4217H53.6406V16.2197Z" fill="white"/>
</mask>
<g mask="url(#mask0_662_7911)">
<path fill-rule="evenodd" clip-rule="evenodd" d="M19.6034 50.0724C21.86 52.404 24.9449 52.7882 28.2048 52.1402C36.5248 50.4866 46.0263 42.1135 46.0263 42.1135C47.9107 40.6482 49.9168 38.6407 51.1818 36.4258L51.2464 36.3091C51.5807 35.7177 51.8581 35.1076 52.067 34.4936C52.1658 34.1997 52.2493 33.9022 52.3141 33.6047C52.7203 31.7665 53.0093 31.9208 53.4993 28.8511C54.1793 24.5948 52.386 20.8282 48.5413 18.7716C43.3632 15.9993 36.6538 15.2873 31.1224 17.6265C31.1071 17.6341 31.0921 17.6378 31.0768 17.6453C24.5498 20.4364 21.1156 27.8077 18.6956 34.0038C16.7161 39.0701 15.3865 45.7145 19.6034 50.0724Z" fill="#F0B5AA"/>
</g>
<path fill-rule="evenodd" clip-rule="evenodd" d="M31.3409 33.2298L27.9159 62.1138C27.2394 67.8182 31.3554 72.9863 37.1089 73.6568C42.8625 74.3275 48.0749 70.247 48.7514 64.5426C48.822 63.9458 48.8355 63.2973 48.8049 62.7167L47.0804 33.684C46.8236 29.3637 43.0832 26.0678 38.7257 26.3224C34.8402 26.5491 31.7771 29.5254 31.3409 33.2298Z" fill="#F0B5AA"/>
<path fill-rule="evenodd" clip-rule="evenodd" d="M29.113 51.9306C29.113 51.9306 31.5767 51.5229 34.8408 49.8599C35.2399 49.6567 35.6342 50.1381 35.3468 50.4797L28.3785 58.5797L29.113 51.9306Z" fill="#21211D"/>
<path fill-rule="evenodd" clip-rule="evenodd" d="M47.7292 43.7484C47.7292 43.7484 46.9439 43.284 46.3783 42.462C46.2919 42.3366 46.0967 42.3724 46.0669 42.5213C45.8656 43.5368 45.6372 46.1437 47.9531 48.356L47.7292 43.7484Z" fill="#21211D"/>
<mask id="mask1_662_7911" style="mask-type:alpha" maskUnits="userSpaceOnUse" x="51" y="7" width="25" height="24">
<path fill-rule="evenodd" clip-rule="evenodd" d="M75.1641 7.13184H51.3051V30.7866H75.1641V7.13184Z" fill="white"/>
</mask>
<g mask="url(#mask1_662_7911)">
<path fill-rule="evenodd" clip-rule="evenodd" d="M53.607 25.943C57.4967 31.2145 64.9604 32.3619 70.2777 28.5055C75.5947 24.649 76.7517 17.2493 72.8623 11.9775C68.9726 6.7059 61.509 5.55863 56.1916 9.41495C50.8744 13.2714 49.7173 20.6714 53.607 25.943Z" fill="#E69BC8"/>
</g>
<path fill-rule="evenodd" clip-rule="evenodd" d="M72.9703 31.9094C75.8347 35.7911 81.3304 36.6358 85.2456 33.7962C89.1609 30.9565 90.0129 25.5079 87.1487 21.6261C84.2846 17.7443 78.789 16.8994 74.8737 19.739C70.9584 22.5787 70.1062 28.0276 72.9703 31.9094Z" fill="#E69BC8"/>
<path fill-rule="evenodd" clip-rule="evenodd" d="M86.831 37.2231C88.7968 39.8874 92.5693 40.4675 95.2566 38.5183C97.9443 36.569 98.5291 32.8291 96.563 30.1644C94.5972 27.5001 90.8248 26.9202 88.1374 28.8692C85.4498 30.8185 84.8649 34.5587 86.831 37.2231Z" fill="#E69BC8"/>
<path fill-rule="evenodd" clip-rule="evenodd" d="M42.4005 32.563C33.2412 27.1807 31.4235 20.5165 31.0768 17.6463C31.0844 17.6424 31.0918 17.6398 31.0994 17.6369C31.1071 17.634 31.1147 17.6312 31.1224 17.6275C36.6538 15.2883 43.3634 16.0003 48.5413 18.7726C52.3863 20.8292 54.1792 24.5958 53.4993 28.8521C53.1979 30.7405 52.9727 31.4089 52.7493 32.0715C52.6094 32.486 52.4706 32.8981 52.3141 33.6057C52.2495 33.9032 52.1658 34.2007 52.067 34.4945C51.8581 35.1086 51.5809 35.7187 51.2466 36.3101L51.1818 36.4268C49.6077 35.9136 48.1562 35.3643 46.8176 34.7873C46.4312 35.1927 46.1019 35.6725 45.9017 36.2327L44.9275 38.0692C44.4712 38.9742 43.3934 39.3887 42.4385 39.0238C41.6521 38.7234 41.1689 37.978 41.1689 37.191C41.1689 36.9703 41.2074 36.746 41.2841 36.5292C41.2841 36.5292 41.5968 34.9534 42.4005 32.563Z" fill="#E69BC8"/>
<path fill-rule="evenodd" clip-rule="evenodd" d="M45.0808 39.2921C45.2697 42.5204 48.0625 44.9857 51.3186 44.7987C54.575 44.6114 57.0616 41.8426 56.8727 38.6143C56.6838 35.3857 53.8911 32.9204 50.635 33.1077C47.3788 33.2949 44.892 36.0638 45.0808 39.2921Z" fill="#F0B5AA"/>
<path fill-rule="evenodd" clip-rule="evenodd" d="M48.8579 39.6805C48.9069 39.6805 48.9567 39.6711 49.0046 39.6513L53.6417 37.725C53.8353 37.6448 53.9265 37.4241 53.8454 37.2322C53.7645 37.0402 53.5416 36.9501 53.3482 37.0303L48.7109 38.9563C48.5175 39.0367 48.4264 39.2574 48.5073 39.4494C48.5684 39.5936 48.7096 39.6805 48.8579 39.6805Z" fill="#21211D"/>
<path fill-rule="evenodd" clip-rule="evenodd" d="M51.7451 40.4887C51.7901 40.4887 51.836 40.4806 51.8805 40.4639C52.0765 40.3894 52.1747 40.1719 52.0999 39.9776L51.4339 38.2493C51.3591 38.0549 51.1397 37.9575 50.9434 38.0317C50.7474 38.1059 50.6492 38.3237 50.7242 38.518L51.39 40.2463C51.4479 40.3965 51.592 40.4887 51.7451 40.4887Z" fill="#21211D"/>
<path fill-rule="evenodd" clip-rule="evenodd" d="M51.4312 42.6934C51.4312 42.6934 55.7696 55.6577 51.4312 55.6577C47.3294 55.6577 51.4312 42.6934 51.4312 42.6934Z" fill="#EDC829"/>
<path fill-rule="evenodd" clip-rule="evenodd" d="M50.108 42.5264C50.108 43.2496 50.6994 43.8363 51.4288 43.8363C52.1586 43.8363 52.75 43.2496 52.75 42.5264C52.75 41.8032 52.1586 41.2168 51.4288 41.2168C50.6994 41.2168 50.108 41.8032 50.108 42.5264Z" fill="#F0B5AA"/>
<path fill-rule="evenodd" clip-rule="evenodd" d="M54.0857 27.6711C54.1047 27.6711 54.1239 27.6701 54.1429 27.6683C54.4561 27.6372 54.6845 27.3603 54.6534 27.05C54.19 22.4508 51.499 19.6117 51.3846 19.4931C51.167 19.2674 50.8064 19.2593 50.5788 19.4748C50.3514 19.6903 50.343 20.0476 50.5601 20.2732C50.593 20.3077 53.097 22.9716 53.5193 27.1624C53.5485 27.4536 53.7964 27.6711 54.0857 27.6711Z" fill="#F98ADF"/>
<path fill-rule="evenodd" clip-rule="evenodd" d="M15.8455 33.8725C15.8455 33.8725 17.8061 36.2777 20.9946 36.1649C22.3459 36.115 23.9186 35.619 25.6484 34.2868C25.6484 34.2868 23.9634 32.3684 21.1588 32.1829C19.6725 32.0798 17.8755 32.4589 15.8455 33.8725Z" fill="white"/>
<path fill-rule="evenodd" clip-rule="evenodd" d="M15.8459 33.8725C15.8459 33.8725 17.8066 36.2777 20.9951 36.1649C21.4429 35.6282 21.7147 34.957 21.7469 34.2088C21.7791 33.4605 21.5597 32.7552 21.1593 32.1829C19.673 32.0798 17.876 32.4589 15.8459 33.8725Z" fill="#21211D"/>
<path d="M28.3061 32.4526C28.1075 32.3985 27.9027 32.5044 27.831 32.6916L27.8192 32.7277L26.1747 38.6721C25.879 39.7406 26.6713 40.7948 27.7769 40.8292L27.8375 40.8301L29.2065 40.8262C29.4253 40.8256 29.6022 40.649 29.6016 40.4319C29.601 40.2268 29.4422 40.0589 29.2403 40.0414L29.2042 40.0399L27.8353 40.0438C27.2389 40.0454 26.8008 39.4977 26.9271 38.9278L26.9389 38.8802L28.5833 32.9358C28.6412 32.7264 28.5171 32.5101 28.3061 32.4526Z" fill="#21211D"/>
<path d="M24.3138 29.1588C21.9616 28.2443 19.3179 28.2498 16.652 29.7877C16.463 29.8968 16.3986 30.1375 16.5086 30.3252C16.6188 30.5129 16.8613 30.5766 17.0503 30.4675C19.4857 29.0625 21.8811 29.0576 24.0248 29.8909C24.3347 30.0115 24.6103 30.1402 24.8475 30.2684L24.9714 30.3371C25.0436 30.3784 25.0949 30.4102 25.1241 30.4298C25.3054 30.5514 25.5517 30.5041 25.6742 30.3242C25.7967 30.1443 25.7491 29.8999 25.5678 29.7783L25.5175 29.7458C25.4502 29.7034 25.3526 29.6459 25.2264 29.5778C24.961 29.4344 24.6556 29.2917 24.3138 29.1588Z" fill="#21211D"/>
<path fill-rule="evenodd" clip-rule="evenodd" d="M29.6423 33.8725C29.6423 33.8725 31.603 36.2777 34.7915 36.1649C36.1427 36.115 37.7155 35.619 39.4453 34.2868C39.4453 34.2868 37.7605 32.3684 34.9557 32.1829C33.4694 32.0798 31.6724 32.4589 29.6423 33.8725Z" fill="white"/>
<path fill-rule="evenodd" clip-rule="evenodd" d="M29.6427 33.8725C29.6427 33.8725 31.6035 36.2777 34.7919 36.1649C35.2398 35.6282 35.5116 34.957 35.5438 34.2088C35.5759 33.4605 35.3566 32.7552 34.9562 32.1829C33.4699 32.0798 31.6728 32.4589 29.6427 33.8725Z" fill="#21211D"/>
<path d="M39.3419 29.7877C36.6763 28.2498 34.0326 28.2443 31.6802 29.1588C31.3384 29.2917 31.033 29.4344 30.7676 29.5778L30.6665 29.6334C30.5568 29.6951 30.4761 29.7449 30.4262 29.7783C30.2449 29.8999 30.1973 30.1443 30.3198 30.3242C30.4423 30.5041 30.6886 30.5514 30.8699 30.4298L30.9301 30.3916C30.9811 30.3605 31.0536 30.3185 31.1465 30.2684C31.3837 30.1402 31.6593 30.0115 31.9693 29.8909C34.113 29.0576 36.5084 29.0625 38.9436 30.4675C39.1328 30.5766 39.3753 30.5129 39.4853 30.3252C39.5953 30.1375 39.5311 29.8968 39.3419 29.7877Z" fill="#21211D"/>
<path d="M31.6886 41.6358C31.4943 41.5678 31.2825 41.659 31.1975 41.8407L31.1697 41.9097C31.1547 41.9447 31.1303 41.9962 31.0958 42.0597C31.0128 42.2127 30.9063 42.3662 30.7754 42.5087C30.3436 42.9787 29.7586 43.2223 28.9594 43.1278C28.7421 43.1021 28.5449 43.2561 28.519 43.4717C28.4932 43.6873 28.6483 43.8829 28.8656 43.9086C29.9317 44.0347 30.7643 43.688 31.361 43.0385C31.6658 42.7067 31.8461 42.3746 31.9305 42.1373C32.0032 41.9325 31.8949 41.708 31.6886 41.6358Z" fill="#21211D"/>
<path d="M34.446 40.6156C33.1556 39.6916 31.62 39.5339 29.9256 40.1218C28.1798 40.7271 26.9858 41.2552 26.3786 43.1997C26.2495 43.6132 26.4829 44.0519 26.9 44.1799C27.3167 44.3078 27.7596 44.0764 27.8886 43.663C28.3528 42.176 29.1943 42.0353 30.4475 41.6007C31.6751 41.175 32.6704 41.2771 33.5202 41.8859C33.874 42.1392 34.368 42.0603 34.6235 41.7096C34.8793 41.3589 34.7998 40.8692 34.446 40.6156Z" fill="#E69BC8"/>
<path fill-rule="evenodd" clip-rule="evenodd" d="M42.2205 35.0277C42.2205 35.0277 39.3495 40.5648 37.3884 42.4302C30.0121 49.4469 22.6336 49.2547 17.1153 42.5214C17.0526 42.4446 16.9775 42.3869 16.9085 42.4302C16.8395 42.4736 16.8698 42.5926 16.8735 42.6731C17.1857 49.2722 20.2013 52.5719 26.4472 52.5719C36.0378 52.5719 41.957 48.1453 45.2577 38.3512C47.2785 32.3538 42.2205 35.0277 42.2205 35.0277Z" fill="#E69BC8"/>
</svg>
