<svg width="74" height="82" viewBox="0 0 74 82" fill="none" xmlns="http://www.w3.org/2000/svg">
<path fill-rule="evenodd" clip-rule="evenodd" d="M3.70564 20.3554C-5.14536 38.3462 2.40471 60.0503 20.5678 68.8329C38.7318 77.6162 60.6314 70.1514 69.4824 52.1609C78.3333 34.1698 70.7838 12.4654 52.62 3.6826C34.4564 -5.10011 12.5566 2.3645 3.70564 20.3554Z" fill="#B6CCFC"/>
<mask id="mask0_662_7779" style="mask-type:alpha" maskUnits="userSpaceOnUse" x="0" y="0" width="74" height="73">
<path fill-rule="evenodd" clip-rule="evenodd" d="M69.5348 52.2337C60.6788 70.2339 38.7678 77.7022 20.5948 68.916C2.42252 60.1291 -5.13058 38.4148 3.72527 20.4148C12.5811 2.415 34.4923 -5.05365 52.6649 3.73279C70.8378 12.5195 78.3907 34.2339 69.5348 52.2337Z" fill="white"/>
</mask>
<g mask="url(#mask0_662_7779)">
<path fill-rule="evenodd" clip-rule="evenodd" d="M72.5781 0.521688L70.3306 23.0638L66.9151 21.7018L64.2818 28.9257L62.9623 17.1153L60.1003 21.9911L60.0991 21.7884L60.0663 15.7232L57.0524 -5.45508L72.5781 0.521688Z" fill="#EE82DA"/>
</g>
<mask id="mask1_662_7779" style="mask-type:alpha" maskUnits="userSpaceOnUse" x="0" y="0" width="74" height="73">
<path fill-rule="evenodd" clip-rule="evenodd" d="M69.5348 52.2337C60.6788 70.2339 38.7678 77.7022 20.5948 68.916C2.42252 60.1291 -5.13058 38.4148 3.72527 20.4148C12.5811 2.415 34.4923 -5.05365 52.6649 3.73279C70.8378 12.5195 78.3907 34.2339 69.5348 52.2337Z" fill="white"/>
</mask>
<g mask="url(#mask1_662_7779)">
<path fill-rule="evenodd" clip-rule="evenodd" d="M50.1432 -3.29102L56.9696 28.0496L76.4375 48.5472L60.5792 70.5804L33.7521 -9.05762L50.1432 -3.29102Z" fill="#EE82DA"/>
</g>
<mask id="mask2_662_7779" style="mask-type:alpha" maskUnits="userSpaceOnUse" x="0" y="0" width="74" height="73">
<path fill-rule="evenodd" clip-rule="evenodd" d="M69.5348 52.2337C60.6788 70.2339 38.7678 77.7022 20.5948 68.916C2.42252 60.1291 -5.13058 38.4148 3.72527 20.4148C12.5811 2.415 34.4923 -5.05365 52.6649 3.73279C70.8378 12.5195 78.3907 34.2339 69.5348 52.2337Z" fill="white"/>
</mask>
<g mask="url(#mask2_662_7779)">
<path fill-rule="evenodd" clip-rule="evenodd" d="M22.432 -5.8916L46.9524 17.4923L51.8047 38.7293L22.8215 7.46518L33.4511 77.8662L15.4802 74.3769L10.0447 0.630644L22.432 -5.8916Z" fill="#EE82DA"/>
</g>
<mask id="mask3_662_7779" style="mask-type:alpha" maskUnits="userSpaceOnUse" x="0" y="0" width="74" height="73">
<path fill-rule="evenodd" clip-rule="evenodd" d="M69.5348 52.2337C60.6788 70.2339 38.7678 77.7022 20.5948 68.916C2.42252 60.1291 -5.13058 38.4148 3.72527 20.4148C12.5811 2.415 34.4923 -5.05365 52.6649 3.73279C70.8378 12.5195 78.3907 34.2339 69.5348 52.2337Z" fill="white"/>
</mask>
<g mask="url(#mask3_662_7779)">
<path fill-rule="evenodd" clip-rule="evenodd" d="M62.4766 69.1395L4.13505 9.50781L-0.04076 18.6864L54.5362 79.7466L62.4766 69.1395Z" fill="#EE82DA"/>
</g>
<mask id="mask4_662_7779" style="mask-type:alpha" maskUnits="userSpaceOnUse" x="0" y="0" width="74" height="73">
<path fill-rule="evenodd" clip-rule="evenodd" d="M69.5348 52.2337C60.6788 70.2339 38.7678 77.7022 20.5948 68.916C2.42252 60.1291 -5.13058 38.4148 3.72527 20.4148C12.5811 2.415 34.4923 -5.05365 52.6649 3.73279C70.8378 12.5195 78.3907 34.2339 69.5348 52.2337Z" fill="white"/>
</mask>
<g mask="url(#mask4_662_7779)">
<path fill-rule="evenodd" clip-rule="evenodd" d="M-3.78678 30.7334L44.2344 77.6902L25.1513 78.2887L-13.0322 50.4057L-3.78678 30.7334Z" fill="#EE82DA"/>
</g>
<path fill-rule="evenodd" clip-rule="evenodd" d="M18.7392 53.4794C21.4268 56.2561 25.1008 56.7137 28.9831 55.9422C38.8919 53.9728 50.208 44.0007 50.208 44.0007C53.0903 41.7575 56.2122 38.456 57.4022 34.9254C57.5198 34.5754 57.6196 34.2211 57.6965 33.8667C58.1804 31.6777 58.5243 31.8616 59.108 28.2054C60.4746 19.6911 54.5833 12.7604 36.2949 13.5006C33.2272 13.6259 30.5891 15.3666 28.3812 17.1969C26.9921 18.3452 25.7886 19.7045 24.8294 21.2162C24.7704 21.3014 24.7161 21.3913 24.6621 21.4766C20.5718 27.4114 10.1063 44.5479 18.7392 53.4794Z" fill="#F0B5AA"/>
<path fill-rule="evenodd" clip-rule="evenodd" d="M32.7184 33.4805L28.6388 67.8857C27.8329 74.6805 32.7357 80.8365 39.589 81.6351C46.4424 82.4341 52.6512 77.5735 53.457 70.7788C53.5411 70.0679 53.5571 69.2954 53.5207 68.6038L51.4663 34.0215C51.1606 28.8754 46.7053 24.9495 41.5148 25.2528C36.8866 25.5228 33.2381 29.068 32.7184 33.4805Z" fill="#F0B5AA"/>
<path fill-rule="evenodd" clip-rule="evenodd" d="M46.6606 31.3638L44.4298 37.5768C44.3395 37.8325 44.2943 38.0973 44.2943 38.3573C44.2943 39.286 44.8645 40.1652 45.7917 40.5196C46.9186 40.9502 48.1901 40.4614 48.7282 39.3937L49.8777 37.2271C50.3076 36.4151 51.0406 35.805 51.9227 35.5312L57.4022 34.9258C57.5196 34.5758 57.6194 34.2214 57.6963 33.867C58.1805 31.6777 58.5244 31.8616 59.108 28.2057C60.4743 19.6914 54.5834 12.7604 36.2947 13.5006C33.2765 14.0615 30.5889 15.3669 28.381 17.1972C26.9921 18.3455 25.7884 19.7048 24.8291 21.2165C33.322 25.1509 40.0185 26.5773 44.0047 27.0931C46.0635 27.3579 47.3573 29.4259 46.6606 31.3638Z" fill="#654206"/>
<path fill-rule="evenodd" clip-rule="evenodd" d="M49.0849 40.6399C49.3099 44.4847 52.6359 47.421 56.5141 47.1979C60.392 46.9752 63.3533 43.6776 63.1286 39.8326C62.9036 35.9878 59.5777 33.0515 55.6998 33.2746C51.8216 33.4974 48.86 36.7949 49.0849 40.6399Z" fill="#F0B5AA"/>
<mask id="mask5_662_7779" style="mask-type:alpha" maskUnits="userSpaceOnUse" x="19" y="3" width="21" height="20">
<path fill-rule="evenodd" clip-rule="evenodd" d="M39.125 3.1709H19.7835V22.347H39.125V3.1709Z" fill="white"/>
</mask>
<g mask="url(#mask5_662_7779)">
<path fill-rule="evenodd" clip-rule="evenodd" d="M19.974 14.6444C21.0243 19.8354 26.12 23.1994 31.3558 22.1581C36.5915 21.1171 39.9846 16.065 38.9343 10.874C37.8843 5.68307 32.7885 2.31868 27.5528 3.35998C22.3168 4.40128 18.9237 9.45346 19.974 14.6444Z" fill="#654206"/>
</g>
<path fill-rule="evenodd" clip-rule="evenodd" d="M30.1225 55.6916C30.1225 55.6916 33.0568 55.2063 36.9438 53.2257C37.4192 52.9834 37.889 53.5568 37.5469 53.9637L29.3913 61.4914L30.1225 55.6916Z" fill="#21211D"/>
<path fill-rule="evenodd" clip-rule="evenodd" d="M52.1153 45.947C52.1153 45.947 51.1799 45.3938 50.5065 44.4151C50.4035 44.2657 50.1707 44.3083 50.1356 44.4857C49.8958 45.695 49.7339 48.7031 52.4922 51.3377L52.1153 45.947Z" fill="#21211D"/>
<path d="M59.5274 38.1867C59.4364 37.9714 59.1963 37.8635 58.976 37.9313L58.9352 37.9462L53.4124 40.2401C53.1818 40.3356 53.0732 40.5985 53.1698 40.8271C53.2605 41.0421 53.5009 41.1501 53.7209 41.0822L53.762 41.0676L59.2848 38.7738C59.5151 38.678 59.6237 38.4151 59.5274 38.1867Z" fill="#21211D"/>
<path d="M56.6535 39.3972C56.564 39.1657 56.3026 39.0497 56.0692 39.138C55.8495 39.2214 55.7328 39.456 55.7943 39.6762L55.8081 39.7173L56.6014 41.7756C56.6905 42.0071 56.9519 42.1232 57.1853 42.0348C57.405 41.9514 57.5217 41.7168 57.4602 41.4966L57.4467 41.4555L56.6535 39.3972Z" fill="#21211D"/>
<path fill-rule="evenodd" clip-rule="evenodd" d="M14.0029 33.9992C14.0029 33.9992 16.3384 36.8642 20.1362 36.7299C21.7458 36.6704 23.6192 36.0797 25.6797 34.4928C25.6797 34.4928 23.6726 32.2076 20.3319 31.9867C18.5615 31.864 16.4209 32.3154 14.0029 33.9992Z" fill="white"/>
<path fill-rule="evenodd" clip-rule="evenodd" d="M14.0064 33.9992C14.0064 33.9992 16.3419 36.8642 20.1398 36.7299C20.6733 36.0906 20.9971 35.291 21.0354 34.3999C21.0737 33.5085 20.8124 32.6685 20.3355 31.9867C18.5651 31.864 16.4245 32.3154 14.0064 33.9992Z" fill="#21211D"/>
<path d="M28.8397 32.3088C28.6032 32.2444 28.3592 32.3705 28.2738 32.5935L28.2597 32.6364L26.3009 39.7171C25.9487 40.9899 26.8925 42.2456 28.2094 42.2866L28.2816 42.2877L29.9122 42.283C30.1729 42.2823 30.3836 42.072 30.3828 41.8133C30.3821 41.5691 30.193 41.369 29.9525 41.3482L29.9095 41.3464L28.2789 41.3511C27.5685 41.353 27.0466 40.7006 27.1971 40.0217L27.2112 39.9651L29.1699 32.8844C29.2389 32.635 29.0911 32.3773 28.8397 32.3088Z" fill="#21211D"/>
<path d="M24.0955 28.3849C21.2936 27.2956 18.1445 27.3022 14.9691 29.134C14.7439 29.264 14.6673 29.5506 14.7983 29.7742C14.9295 29.9978 15.2184 30.0737 15.4435 29.9437C18.3445 28.2702 21.1977 28.2643 23.7512 29.257C24.1204 29.4005 24.4486 29.5539 24.7312 29.7066L24.8787 29.7884C24.9647 29.8376 25.0258 29.8755 25.0606 29.8988C25.2765 30.0436 25.5699 29.9874 25.7159 29.773C25.8618 29.5588 25.8051 29.2677 25.5892 29.1228L25.5293 29.084C25.4491 29.0335 25.3328 28.9651 25.1825 28.8839C24.8664 28.7132 24.5026 28.5432 24.0955 28.3849Z" fill="#21211D"/>
<path fill-rule="evenodd" clip-rule="evenodd" d="M30.4325 33.9992C30.4325 33.9992 32.768 36.8642 36.5659 36.7299C38.1755 36.6704 40.0489 36.0797 42.1094 34.4928C42.1094 34.4928 40.1026 32.2076 36.7616 31.9867C34.9912 31.864 32.8506 32.3154 30.4325 33.9992Z" fill="white"/>
<path fill-rule="evenodd" clip-rule="evenodd" d="M30.4361 33.9992C30.4361 33.9992 32.7716 36.8642 36.5695 36.7299C37.103 36.0906 37.4267 35.291 37.4651 34.3999C37.5034 33.5085 37.2421 32.6685 36.7651 31.9867C34.9948 31.864 32.8542 32.3154 30.4361 33.9992Z" fill="#21211D"/>
<path d="M41.9918 29.134C38.8166 27.3022 35.6675 27.2956 32.8655 28.3849C32.4583 28.5432 32.0946 28.7132 31.7785 28.8839L31.658 28.9502C31.5273 29.0237 31.4312 29.083 31.3718 29.1228C31.1558 29.2676 31.0991 29.5588 31.245 29.773C31.391 29.9873 31.6844 30.0436 31.9003 29.8988L31.972 29.8533C32.0328 29.8163 32.1191 29.7663 32.2297 29.7066C32.5124 29.5539 32.8406 29.4005 33.2098 29.257C35.7633 28.2643 38.6166 28.2702 41.5173 29.9437C41.7427 30.0737 42.0315 29.9978 42.1625 29.7742C42.2935 29.5506 42.2171 29.264 41.9918 29.134Z" fill="#21211D"/>
<path d="M32.8724 43.2465C32.641 43.1656 32.3886 43.2742 32.2875 43.4906L32.2543 43.5728C32.2364 43.6145 32.2074 43.6759 32.1663 43.7515C32.0674 43.9337 31.9406 44.1166 31.7846 44.2863C31.2703 44.8462 30.5735 45.1363 29.6215 45.0238C29.3626 44.9932 29.1278 45.1766 29.097 45.4334C29.0662 45.6902 29.251 45.9232 29.5098 45.9538C30.7797 46.104 31.7714 45.691 32.4822 44.9173C32.8452 44.5222 33.0601 44.1266 33.1605 43.8439C33.2472 43.6 33.1182 43.3325 32.8724 43.2465Z" fill="#21211D"/>
<path opacity="0.01" d="M36.1646 42.0301C34.6276 40.9295 32.7985 40.7416 30.7802 41.4419C28.7006 42.1629 27.2785 42.7919 26.5552 45.1082C26.4014 45.6006 26.6795 46.1233 27.1762 46.2757C27.6726 46.4281 28.2001 46.1525 28.3539 45.6601C28.9068 43.8888 29.9091 43.7211 31.4018 43.2035C32.8641 42.6964 34.0496 42.8181 35.0619 43.5432C35.4834 43.8449 36.0717 43.751 36.3761 43.3332C36.6808 42.9154 36.586 42.3322 36.1646 42.0301Z" fill="#654206"/>
</svg>
