<svg width="119" height="166" viewBox="0 0 119 166" fill="none" xmlns="http://www.w3.org/2000/svg">
<path fill-rule="evenodd" clip-rule="evenodd" d="M0 165.098L65.5568 0L118.55 107.8L0 165.098Z" fill="#B6CCFC"/>
<path fill-rule="evenodd" clip-rule="evenodd" d="M66.814 77.2411L73.9371 137.313C75.3436 149.177 66.7838 159.925 54.8178 161.32C42.8524 162.715 32.0112 154.228 30.6042 142.364C30.4574 141.123 30.4294 139.774 30.493 138.567L34.08 78.1858C34.6137 69.2005 42.3927 62.3458 51.4554 62.8754C59.5363 63.3469 65.9072 69.5368 66.814 77.2411Z" fill="#DE8857"/>
<path fill-rule="evenodd" clip-rule="evenodd" d="M71.3967 115.935C71.3967 115.935 67.2814 115.303 60.4925 111.844C59.6619 111.421 58.8417 112.422 59.4389 113.133L72.893 128.556L71.3967 115.935Z" fill="#21211D"/>
<mask id="mask0_662_7603" style="mask-type:alpha" maskUnits="userSpaceOnUse" x="18" y="41" width="78" height="76">
<path fill-rule="evenodd" clip-rule="evenodd" d="M18.4453 41.668H95.0206V116.534H18.4453V41.668Z" fill="white"/>
</mask>
<g mask="url(#mask0_662_7603)">
<path fill-rule="evenodd" clip-rule="evenodd" d="M18.7186 67.5063C19.7376 73.8917 20.3387 73.5707 21.1841 77.3938C21.3183 78.013 21.492 78.6317 21.6975 79.2429C23.7762 85.4088 29.2288 91.1755 34.2629 95.0926C34.2629 95.0926 54.0265 112.51 71.3328 115.949C78.113 117.297 84.5299 116.498 89.2237 111.648C104.302 96.0487 86.0235 66.1195 78.8795 55.754C78.7847 55.6051 78.6905 55.4481 78.5875 55.2998C76.912 52.6593 74.8097 50.2855 72.3842 48.2794C71.2457 47.3397 70.1077 46.5085 68.9308 45.7959C66.6308 44.3857 64.1888 43.3905 61.36 42.7327C57.1796 41.7685 52.8408 41.4947 48.5662 41.7685C47.357 41.8391 46.1478 41.9646 44.9386 42.1216C37.5343 43.101 29.3554 44.8947 23.9422 50.3555C20.4411 53.8815 18.6238 58.5037 18.4578 63.3143C18.4106 64.7012 18.4972 66.1037 18.7186 67.5063Z" fill="#DE8857"/>
</g>
<path fill-rule="evenodd" clip-rule="evenodd" d="M36.2282 89.2244C35.8354 95.9395 30.0266 101.067 23.2536 100.678C16.4805 100.289 11.3078 94.5293 11.7007 87.8142C12.0935 81.099 17.9023 75.9712 24.6759 76.3606C31.4484 76.7496 36.6211 82.5092 36.2282 89.2244Z" fill="#DE8857"/>
<path fill-rule="evenodd" clip-rule="evenodd" d="M28.3579 90.0324C28.256 90.0324 28.1524 90.0128 28.0527 89.9715L18.407 85.9648C18.0043 85.7981 17.8148 85.339 17.9835 84.9398C18.1523 84.5405 18.6152 84.3531 19.0174 84.5199L28.6636 88.526C29.0658 88.6934 29.2559 89.1524 29.0871 89.5516C28.96 89.8515 28.6664 90.0324 28.3579 90.0324Z" fill="#21211D"/>
<path fill-rule="evenodd" clip-rule="evenodd" d="M22.3683 91.7122C22.2746 91.7122 22.1793 91.6954 22.0867 91.6606C21.679 91.5058 21.4747 91.0533 21.6303 90.6492L23.0159 87.0542C23.1715 86.6501 23.6268 86.4469 24.0355 86.6017C24.4437 86.756 24.6481 87.209 24.4919 87.6132L23.1069 91.2081C22.9863 91.5205 22.6866 91.7122 22.3683 91.7122Z" fill="#21211D"/>
<mask id="mask1_662_7603" style="mask-type:alpha" maskUnits="userSpaceOnUse" x="18" y="41" width="51" height="23">
<path fill-rule="evenodd" clip-rule="evenodd" d="M18.4531 41.668H68.9262V63.3143H18.4531V41.668Z" fill="white"/>
</mask>
<g mask="url(#mask1_662_7603)">
<path fill-rule="evenodd" clip-rule="evenodd" d="M18.4531 63.3146C36.0044 59.9141 53.0658 53.9991 68.9262 45.7961C66.6261 44.3854 64.1842 43.3908 61.3554 42.7324C57.175 41.7687 52.8362 41.4944 48.5615 41.7687C47.3523 41.8394 46.1437 41.9648 44.9339 42.1213C37.5297 43.1007 29.3507 44.8949 23.9375 50.3558C20.4365 53.8818 18.6191 58.5039 18.4531 63.3146Z" fill="#21211D"/>
</g>
<path fill-rule="evenodd" clip-rule="evenodd" d="M24.7656 64.1091C24.7656 64.6088 25.1743 65.0141 25.6784 65.0141C26.1819 65.0141 26.5907 64.6088 26.5907 64.1091C26.5907 63.6093 26.1819 63.2041 25.6784 63.2041C25.1743 63.2041 24.7656 63.6093 24.7656 64.1091Z" fill="#21211D"/>
<path fill-rule="evenodd" clip-rule="evenodd" d="M26.5391 70.4948C26.5391 70.9946 26.9478 71.3998 27.4519 71.3998C27.9554 71.3998 28.3646 70.9946 28.3646 70.4948C28.3646 69.9951 27.9554 69.5898 27.4519 69.5898C26.9478 69.5898 26.5391 69.9951 26.5391 70.4948Z" fill="#21211D"/>
<path fill-rule="evenodd" clip-rule="evenodd" d="M27.4375 75.6345C27.4375 76.1342 27.8462 76.5395 28.3503 76.5395C28.8538 76.5395 29.2625 76.1342 29.2625 75.6345C29.2625 75.1347 28.8538 74.7295 28.3503 74.7295C27.8462 74.7295 27.4375 75.1347 27.4375 75.6345Z" fill="#21211D"/>
<path fill-rule="evenodd" clip-rule="evenodd" d="M23.2734 67.9118C23.2734 68.4116 23.6822 68.8168 24.1862 68.8168C24.6897 68.8168 25.0985 68.4116 25.0985 67.9118C25.0985 67.4121 24.6897 67.0068 24.1862 67.0068C23.6822 67.0068 23.2734 67.4121 23.2734 67.9118Z" fill="#21211D"/>
<path fill-rule="evenodd" clip-rule="evenodd" d="M28.5469 66.5368C28.5469 67.0366 28.9556 67.4418 29.4597 67.4418C29.9632 67.4418 30.3719 67.0366 30.3719 66.5368C30.3719 66.0371 29.9632 65.6318 29.4597 65.6318C28.9556 65.6318 28.5469 66.0371 28.5469 66.5368Z" fill="#21211D"/>
<path fill-rule="evenodd" clip-rule="evenodd" d="M20.0312 65.0144C20.0312 65.5141 20.44 65.9193 20.944 65.9193C21.4476 65.9193 21.8563 65.5141 21.8563 65.0144C21.8563 64.5146 21.4476 64.1094 20.944 64.1094C20.44 64.1094 20.0312 64.5146 20.0312 65.0144Z" fill="#21211D"/>
<path fill-rule="evenodd" clip-rule="evenodd" d="M21.1797 71.5222C21.1797 72.0219 21.5884 72.4272 22.0925 72.4272C22.596 72.4272 23.0047 72.0219 23.0047 71.5222C23.0047 71.0224 22.596 70.6172 22.0925 70.6172C21.5884 70.6172 21.1797 71.0224 21.1797 71.5222Z" fill="#21211D"/>
<path fill-rule="evenodd" clip-rule="evenodd" d="M24.1875 73.6521C24.1875 74.1518 24.5962 74.557 25.1003 74.557C25.6038 74.557 26.0125 74.1518 26.0125 73.6521C26.0125 73.1523 25.6038 72.7471 25.1003 72.7471C24.5962 72.7471 24.1875 73.1523 24.1875 73.6521Z" fill="#21211D"/>
<path fill-rule="evenodd" clip-rule="evenodd" d="M29.9297 72.9421C29.9297 73.4418 30.3384 73.8471 30.8425 73.8471C31.346 73.8471 31.7553 73.4418 31.7553 72.9421C31.7553 72.4423 31.346 72.0371 30.8425 72.0371C30.3384 72.0371 29.9297 72.4423 29.9297 72.9421Z" fill="#21211D"/>
<path fill-rule="evenodd" clip-rule="evenodd" d="M32.9034 97.3505C32.9034 97.3505 34.5641 96.3689 35.7601 94.6306C35.942 94.3661 36.3551 94.4416 36.4176 94.7561C36.8433 96.9029 37.2247 102.584 32.3281 107.261L32.9034 97.3505Z" fill="#21211D"/>
<path fill-rule="evenodd" clip-rule="evenodd" d="M69.1056 80.3064C69.1056 80.3064 65.3441 85.2962 58.9179 85.3104C56.1942 85.312 52.9907 84.4334 49.4062 81.8825C49.4062 81.8825 52.6503 77.8937 58.2809 77.3078C61.2645 76.9879 64.9104 77.6151 69.1056 80.3064Z" fill="white"/>
<path fill-rule="evenodd" clip-rule="evenodd" d="M69.1081 80.3064C69.1081 80.3064 65.3465 85.2962 58.9204 85.3104C57.9774 84.2642 57.3787 82.9341 57.2564 81.4304C57.1347 79.9267 57.5218 78.4905 58.2833 77.3078C61.2669 76.9879 64.9128 77.6151 69.1081 80.3064Z" fill="#21211D"/>
<mask id="mask2_662_7603" style="mask-type:alpha" maskUnits="userSpaceOnUse" x="76" y="75" width="20" height="9">
<path fill-rule="evenodd" clip-rule="evenodd" d="M76.1406 75.6074H95.8399V83.6864H76.1406V75.6074Z" fill="white"/>
</mask>
<g mask="url(#mask2_662_7603)">
<path fill-rule="evenodd" clip-rule="evenodd" d="M95.84 78.6824C95.84 78.6824 92.0784 83.6722 85.6518 83.6864C82.9286 83.688 79.7251 82.8094 76.1406 80.2585C76.1406 80.2585 79.3847 76.2697 85.0152 75.6837C87.9989 75.3639 91.6448 75.9911 95.84 78.6824Z" fill="white"/>
</g>
<mask id="mask3_662_7603" style="mask-type:alpha" maskUnits="userSpaceOnUse" x="83" y="75" width="13" height="9">
<path fill-rule="evenodd" clip-rule="evenodd" d="M83.9609 75.6074H95.8345V83.6864H83.9609V75.6074Z" fill="white"/>
</mask>
<g mask="url(#mask3_662_7603)">
<path fill-rule="evenodd" clip-rule="evenodd" d="M95.8347 78.6824C95.8347 78.6824 92.0731 83.6722 85.6464 83.6864C84.704 82.6402 84.1053 81.3101 83.983 79.8064C83.8613 78.3027 84.2484 76.8665 85.0099 75.6837C87.9935 75.3639 91.6394 75.9911 95.8347 78.6824Z" fill="#21211D"/>
</g>
<path fill-rule="evenodd" clip-rule="evenodd" d="M71.2057 93.2099C70.7353 93.2099 70.3532 92.8324 70.3516 92.3651C70.3499 91.8972 70.731 91.5164 71.203 91.5147L73.9596 91.505C74.5304 91.5028 75.0551 91.2427 75.3988 90.7907C75.7426 90.3386 75.8511 89.7668 75.6965 89.2211L72.3077 77.2689C72.1806 76.8184 72.4448 76.35 72.8993 76.2233C73.3527 76.0965 73.8248 76.3593 73.9525 76.8097L77.3413 88.762C77.6417 89.8217 77.4306 90.9332 76.7623 91.8118C76.0945 92.6904 75.0748 93.1963 73.9657 93.2001L71.209 93.2099H71.2057Z" fill="#21211D"/>
<mask id="mask4_662_7603" style="mask-type:alpha" maskUnits="userSpaceOnUse" x="48" y="69" width="20" height="5">
<path fill-rule="evenodd" clip-rule="evenodd" d="M48.8672 69.2705H67.6662V73.7669H48.8672V69.2705Z" fill="white"/>
</mask>
<g mask="url(#mask4_662_7603)">
<path fill-rule="evenodd" clip-rule="evenodd" d="M49.7223 73.7669C49.4629 73.7669 49.2069 73.6505 49.0391 73.4291C48.7551 73.0553 48.8308 72.5238 49.208 72.242C49.5348 71.9972 57.3408 66.3067 67.2029 71.346C67.6223 71.5598 67.7873 72.0712 67.5713 72.4874C67.3553 72.9035 66.8399 73.0673 66.4205 72.8529C57.5026 68.2962 50.3073 73.5428 50.2354 73.5961C50.0819 73.7114 49.901 73.7669 49.7223 73.7669Z" fill="#21211D"/>
</g>
<path fill-rule="evenodd" clip-rule="evenodd" d="M77.6366 72.3634C77.3636 72.3634 77.0955 72.2339 76.9299 71.994C76.6646 71.6077 76.7638 71.0816 77.1525 70.8172C77.4903 70.5871 85.5452 65.2491 95.1699 70.7209C95.5794 70.9538 95.7209 71.4717 95.4862 71.8781C95.2516 72.2839 94.7296 72.4248 94.3206 72.192C85.6494 67.262 78.4201 72.0119 78.1164 72.2165C77.9694 72.316 77.8022 72.3634 77.6366 72.3634Z" fill="#21211D"/>
<path fill-rule="evenodd" clip-rule="evenodd" d="M69.796 95.7852V97.8127C69.796 98.2246 69.7083 98.6206 69.5329 98.9693C69.1019 99.8958 68.1518 100.537 67.0504 100.537C65.5339 100.537 64.3047 99.3175 64.3047 97.8127V95.7852C64.3047 95.1514 64.8233 94.6367 65.4621 94.6367H68.6387C69.2774 94.6367 69.796 95.1514 69.796 95.7852Z" fill="#21211D"/>
<mask id="mask5_662_7603" style="mask-type:alpha" maskUnits="userSpaceOnUse" x="64" y="97" width="6" height="4">
<path fill-rule="evenodd" clip-rule="evenodd" d="M64.3125 97.084H69.5407V100.537H64.3125V97.084Z" fill="white"/>
</mask>
<g mask="url(#mask5_662_7603)">
<path fill-rule="evenodd" clip-rule="evenodd" d="M69.5407 98.969C69.1097 99.8955 68.1596 100.537 67.0582 100.537C65.5417 100.537 64.3125 99.3178 64.3125 97.8124V97.393C64.8153 97.195 65.358 97.084 65.9249 97.084C67.4255 97.084 68.7506 97.8288 69.5407 98.969Z" fill="#F74BAD"/>
</g>
<path opacity="0.01" d="M60.017 92.8353C62.7006 90.9137 65.8943 90.5856 69.4183 91.8083C73.0492 93.0673 75.5323 94.1655 76.7952 98.2097C77.0636 99.0695 76.5782 99.982 75.7109 100.248C74.8441 100.514 73.9231 100.033 73.6546 99.1733C72.6893 96.0806 70.9393 95.7879 68.3329 94.8841C65.7798 93.9987 63.7098 94.2111 61.9423 95.4772C61.2065 96.004 60.1792 95.84 59.6477 95.1106C59.1157 94.3811 59.2812 93.3627 60.017 92.8353Z" fill="#21211D"/>
</svg>
