<svg width="81" height="76" viewBox="0 0 81 76" fill="none" xmlns="http://www.w3.org/2000/svg">
<path fill-rule="evenodd" clip-rule="evenodd" d="M10.5781 72.8201L80.9015 38.8728L19.1281 1.84375L10.5781 72.8201Z" fill="#EE82DA"/>
<path fill-rule="evenodd" clip-rule="evenodd" d="M22.7003 33.5785L16.0647 27.3851L11.5469 64.6651L14.8471 70.6483L47.8806 54.6809L47.0726 18.5273L22.1749 3.6123L22.7003 33.5785Z" fill="#B6CCFC"/>
<path fill-rule="evenodd" clip-rule="evenodd" d="M52.7977 52.4115L77.6397 40.4056L74.3711 34.8845L48.7969 19.626L52.7977 52.4115Z" fill="#B6CCFC"/>
<path fill-rule="evenodd" clip-rule="evenodd" d="M50.1876 16.6639C50.1876 25.5018 42.9611 32.6665 34.0469 32.6665C25.1325 32.6665 17.9062 25.5018 17.9062 16.6639C17.9062 7.82591 25.1325 0.661133 34.0469 0.661133C42.9611 0.661133 50.1876 7.82591 50.1876 16.6639Z" fill="#E8E1E1"/>
<path fill-rule="evenodd" clip-rule="evenodd" d="M59.547 24.6433C59.547 33.4813 52.3205 40.646 43.4063 40.646C34.4921 40.646 27.2656 33.4813 27.2656 24.6433C27.2656 15.8053 34.4921 8.64062 43.4063 8.64062C52.3205 8.64062 59.547 15.8053 59.547 24.6433Z" fill="#E8E1E1"/>
<path fill-rule="evenodd" clip-rule="evenodd" d="M35.4923 22.6287C35.4923 31.4666 28.2658 38.6313 19.3516 38.6313C10.4372 38.6313 3.21094 31.4666 3.21094 22.6287C3.21094 13.7907 10.4372 6.62598 19.3516 6.62598C28.2658 6.62598 35.4923 13.7907 35.4923 22.6287Z" fill="#E8E1E1"/>
<path fill-rule="evenodd" clip-rule="evenodd" d="M32.2814 34.3777C32.2814 43.2156 25.0551 50.3803 16.1407 50.3803C7.22649 50.3803 0 43.2156 0 34.3777C0 25.5397 7.22649 18.375 16.1407 18.375C25.0551 18.375 32.2814 25.5397 32.2814 34.3777Z" fill="#E8E1E1"/>
<path fill-rule="evenodd" clip-rule="evenodd" d="M44.3595 43.6325C44.3595 52.4705 37.133 59.6352 28.2188 59.6352C19.3046 59.6352 12.0781 52.4705 12.0781 43.6325C12.0781 34.7946 19.3046 27.6299 28.2188 27.6299C37.133 27.6299 44.3595 34.7946 44.3595 43.6325Z" fill="#E8E1E1"/>
<path fill-rule="evenodd" clip-rule="evenodd" d="M56.1485 51.6234C53.9208 53.9251 50.8753 54.3045 47.6573 53.6649C39.4438 52.0326 30.0637 43.7663 30.0637 43.7663C28.2034 42.3199 26.2232 40.338 24.9742 38.1516L24.9105 38.0364C24.5805 37.4524 24.3067 36.8501 24.1004 36.2439C24.0028 35.9539 23.9204 35.6602 23.8566 35.3665C23.4552 33.5519 23.1703 33.7042 22.6865 30.6739C22.015 26.4719 23.7854 22.7535 27.5809 20.7233C32.6928 17.9864 39.3163 17.2838 44.7771 19.5928C44.7918 19.6003 44.8068 19.604 44.8219 19.6113C51.2654 22.3668 54.6558 29.6439 57.0448 35.7606C58.9989 40.7618 60.3116 47.3211 56.1485 51.6234Z" fill="#F0B5AA"/>
<path fill-rule="evenodd" clip-rule="evenodd" d="M44.8609 34.8652L48.2872 63.7599C48.9639 69.4664 44.8467 74.6364 39.0907 75.3071C33.3353 75.9781 28.1209 71.8961 27.4442 66.1896C27.3733 65.5926 27.3598 64.9438 27.3904 64.363L29.1158 35.3195C29.3725 30.9976 33.1145 27.7005 37.4734 27.9552C41.3603 28.182 44.4247 31.1594 44.8609 34.8652Z" fill="#F0B5AA"/>
<path fill-rule="evenodd" clip-rule="evenodd" d="M47.1263 53.4542C47.1263 53.4542 44.6941 53.0518 41.4718 51.4102C41.0778 51.2093 40.6886 51.6845 40.9721 52.0219L47.851 60.018L47.1263 53.4542Z" fill="#21211D"/>
<path fill-rule="evenodd" clip-rule="evenodd" d="M28.4876 45.3794C28.4876 45.3794 29.2629 44.9208 29.8213 44.1095C29.9064 43.9857 30.0994 44.021 30.1284 44.1681C30.3271 45.1704 30.5049 47.8232 28.2188 50.0073L28.4876 45.3794Z" fill="#21211D"/>
<path fill-rule="evenodd" clip-rule="evenodd" d="M31.0023 40.9803C30.8159 44.1674 28.0591 46.601 24.8444 46.4163C21.6298 46.2316 19.1752 43.498 19.3615 40.3111C19.5478 37.124 22.3047 34.6904 25.5193 34.8751C28.734 35.0598 31.1889 37.7931 31.0023 40.9803Z" fill="#F0B5AA"/>
<path fill-rule="evenodd" clip-rule="evenodd" d="M27.2655 41.364C27.217 41.364 27.168 41.3546 27.1208 41.335L22.5429 39.4337C22.3515 39.3542 22.2617 39.1363 22.3418 38.9471C22.4219 38.7575 22.6417 38.6684 22.8325 38.7478L27.4104 40.6492C27.6015 40.7286 27.6916 40.9462 27.6115 41.1357C27.5512 41.2783 27.412 41.364 27.2655 41.364Z" fill="#21211D"/>
<path fill-rule="evenodd" clip-rule="evenodd" d="M24.4219 42.162C24.3776 42.162 24.3323 42.1542 24.2883 42.1375C24.0946 42.0641 23.9978 41.8493 24.0716 41.6575L24.7292 39.9513C24.8032 39.7595 25.0196 39.6631 25.2133 39.7365C25.4067 39.8097 25.5037 40.0247 25.4299 40.2165L24.7724 41.9227C24.7152 42.0709 24.5729 42.162 24.4219 42.162Z" fill="#21211D"/>
<path fill-rule="evenodd" clip-rule="evenodd" d="M25.5493 15.4785C31.0433 15.4785 35.4971 19.8942 35.4971 25.3412C35.4971 27.8786 34.5307 30.192 32.9429 31.9397C33.8297 34.133 34.4677 36.2091 34.8564 38.1685C34.9331 38.3854 34.9716 38.6098 34.9716 38.8306C34.9716 39.6179 34.4883 40.3636 33.7016 40.664C32.7676 41.0207 31.7161 40.6324 31.243 39.7686L31.2117 39.7091L30.2371 37.872C29.7219 36.4294 28.3497 35.5191 27.3537 35.0415C26.7687 35.1483 26.1657 35.204 25.5493 35.204C20.0553 35.204 15.6016 30.7883 15.6016 25.3412C15.6016 19.8942 20.0553 15.4785 25.5493 15.4785Z" fill="#E8E1E1"/>
<path fill-rule="evenodd" clip-rule="evenodd" d="M49.1221 16.6636C49.1221 22.1106 44.6683 26.5263 39.1743 26.5263C33.6804 26.5263 29.2266 22.1106 29.2266 16.6636C29.2266 11.2166 33.6804 6.80078 39.1743 6.80078C44.6683 6.80078 49.1221 11.2166 49.1221 16.6636Z" fill="#E8E1E1"/>
<path fill-rule="evenodd" clip-rule="evenodd" d="M60.3222 35.5098C60.3222 35.5098 58.3608 37.9159 55.1712 37.8031C53.8194 37.7532 52.2461 37.257 50.5156 35.9243C50.5156 35.9243 52.2013 34.0052 55.0069 33.8196C56.4937 33.7165 58.2915 34.0957 60.3222 35.5098Z" fill="white"/>
<path fill-rule="evenodd" clip-rule="evenodd" d="M60.3204 35.5098C60.3204 35.5098 58.3589 37.9159 55.1693 37.8031C54.7212 37.2662 54.4493 36.5947 54.4172 35.8463C54.385 35.0977 54.6044 34.3922 55.005 33.8196C56.4918 33.7165 58.2895 34.0957 60.3204 35.5098Z" fill="#21211D"/>
<path d="M47.8584 34.0903C48.0571 34.0362 48.262 34.1421 48.3337 34.3294L48.3456 34.3655L49.9906 40.3121C50.2864 41.381 49.4938 42.4356 48.3878 42.47L48.3272 42.4709L46.9577 42.467C46.7388 42.4664 46.5619 42.2897 46.5625 42.0725C46.5631 41.8674 46.7219 41.6994 46.9239 41.6819L46.96 41.6804L48.3294 41.6843C48.9261 41.6859 49.3643 41.138 49.238 40.5679L49.2262 40.5203L47.5811 34.5737C47.5232 34.3642 47.6473 34.1478 47.8584 34.0903Z" fill="#21211D"/>
<path d="M51.8429 30.7948C54.1961 29.88 56.8408 29.8855 59.5076 31.4239C59.6967 31.5331 59.7611 31.7738 59.6511 31.9616C59.5409 32.1494 59.2983 32.2131 59.1092 32.1039C56.6729 30.6985 54.2766 30.6935 52.1321 31.5272C51.822 31.6477 51.5464 31.7766 51.3091 31.9048L51.1852 31.9735C51.1129 32.0149 51.0616 32.0466 51.0324 32.0662C50.8511 32.1879 50.6047 32.1406 50.4821 31.9606C50.3595 31.7807 50.4071 31.5362 50.5885 31.4145L50.6388 31.382C50.7061 31.3395 50.8038 31.2821 50.9301 31.2139C51.1955 31.0705 51.501 30.9277 51.8429 30.7948Z" fill="#21211D"/>
<path fill-rule="evenodd" clip-rule="evenodd" d="M46.5176 35.5098C46.5176 35.5098 44.5561 37.9159 41.3665 37.8031C40.0147 37.7532 38.4414 37.257 36.7109 35.9243C36.7109 35.9243 38.3963 34.0052 41.2022 33.8196C42.689 33.7165 44.4868 34.0957 46.5176 35.5098Z" fill="white"/>
<path fill-rule="evenodd" clip-rule="evenodd" d="M46.5235 35.5098C46.5235 35.5098 44.562 37.9159 41.3724 37.8031C40.9244 37.2662 40.6525 36.5947 40.6203 35.8463C40.5881 35.0977 40.8075 34.3922 41.2081 33.8196C42.6949 33.7165 44.4926 34.0957 46.5235 35.5098Z" fill="#21211D"/>
<path d="M36.8144 31.4239C39.481 29.8855 42.1257 29.88 44.479 30.7948C44.8209 30.9277 45.1264 31.0705 45.3919 31.2139L45.493 31.2696C45.6028 31.3313 45.6835 31.381 45.7334 31.4145C45.9148 31.5361 45.9625 31.7807 45.8399 31.9606C45.7173 32.1406 45.4709 32.1879 45.2895 32.0662L45.2293 32.028C45.1783 31.9969 45.1058 31.9549 45.0129 31.9048C44.7755 31.7766 44.4998 31.6477 44.1898 31.5272C42.0452 30.6935 39.649 30.6985 37.2128 32.1039C37.0236 32.2131 36.781 32.1494 36.671 31.9616C36.5609 31.7738 36.6251 31.5331 36.8144 31.4239Z" fill="#21211D"/>
<path d="M44.4756 43.2764C44.6699 43.2084 44.8818 43.2997 44.9668 43.4814L44.9947 43.5504C45.0097 43.5855 45.0341 43.637 45.0686 43.7005C45.1516 43.8535 45.2581 44.0071 45.3891 44.1497C45.8211 44.6198 46.4063 44.8635 47.2058 44.769C47.4232 44.7433 47.6204 44.8973 47.6463 45.113C47.6722 45.3287 47.517 45.5244 47.2996 45.5501C46.2331 45.6762 45.4002 45.3294 44.8033 44.6796C44.4984 44.3477 44.318 44.0155 44.2336 43.7781C44.1608 43.5732 44.2692 43.3486 44.4756 43.2764Z" fill="#21211D"/>
<path opacity="0.01" d="M41.7026 42.2546C42.9934 41.3303 44.5296 41.1725 46.2247 41.7606C47.9711 42.3661 49.1655 42.8944 49.7729 44.8397C49.9021 45.2532 49.6686 45.6922 49.2514 45.8202C48.8345 45.9482 48.3915 45.7167 48.2623 45.3031C47.798 43.8156 46.9562 43.6748 45.7026 43.24C44.4745 42.8142 43.4788 42.9163 42.6287 43.5253C42.2747 43.7787 41.7806 43.6998 41.525 43.349C41.2691 42.9981 41.3487 42.5083 41.7026 42.2546Z" fill="#E8E1E1"/>
</svg>
