<svg width="121" height="129" viewBox="0 0 121 129" fill="none" xmlns="http://www.w3.org/2000/svg">
<path fill-rule="evenodd" clip-rule="evenodd" d="M44.9732 13.8682L92.6357 36.9364L96.3125 89.4764L52.3268 118.947L4.66434 95.8793L0.987686 43.3399L44.9732 13.8682Z" fill="#B6CCFC"/>
<path fill-rule="evenodd" clip-rule="evenodd" d="M95.2188 75.6219L84.5929 97.2408L73.6324 104.608L94.3208 62.5156L95.2188 75.6219Z" fill="#EE82DA"/>
<path fill-rule="evenodd" clip-rule="evenodd" d="M50.2536 117.944L44.3243 115.074L84.6332 33.0625L90.5625 35.9323L50.2536 117.944Z" fill="#EE82DA"/>
<path fill-rule="evenodd" clip-rule="evenodd" d="M31.4568 108.849L25.5274 105.979L65.8363 23.9678L71.7656 26.8375L31.4568 108.849Z" fill="#EE82DA"/>
<path fill-rule="evenodd" clip-rule="evenodd" d="M10.7532 98.8263L4.82422 95.9566L45.1332 13.9453L51.0625 16.8151L10.7532 98.8263Z" fill="#EE82DA"/>
<path fill-rule="evenodd" clip-rule="evenodd" d="M2.64336 68.0065L1.7305 54.9314L10.5627 36.9615L21.5078 29.626L2.64336 68.0065Z" fill="#EE82DA"/>
<path fill-rule="evenodd" clip-rule="evenodd" d="M70.5625 106.709L64.2344 110.929L3.51228 81.541L2.96809 73.9941L70.5625 106.709Z" fill="#EE82DA"/>
<path fill-rule="evenodd" clip-rule="evenodd" d="M90.5859 93.3155L84.2576 97.5363L1.82568 57.6398L1.28149 50.0928L90.5859 93.3155Z" fill="#EE82DA"/>
<path fill-rule="evenodd" clip-rule="evenodd" d="M94.8321 70.0483L95.375 77.5945L10.7228 36.6237L17.0499 32.4023L94.8321 70.0483Z" fill="#EE82DA"/>
<path fill-rule="evenodd" clip-rule="evenodd" d="M93.1477 46.1488L93.6875 53.6935L30.9281 23.3186L37.2518 19.0957L93.1477 46.1488Z" fill="#EE82DA"/>
<path fill-rule="evenodd" clip-rule="evenodd" d="M24.0154 77.6877C27.5894 77.6877 30.4966 82.1715 30.4966 87.6823C30.4966 93.1935 27.5894 97.6773 24.0154 97.6773C20.4415 97.6773 17.5342 93.1935 17.5342 87.6823C17.5342 82.1715 20.4415 77.6877 24.0154 77.6877ZM24.0154 98.8347C28.233 98.8347 31.6641 93.8316 31.6641 87.6823C31.6641 81.5329 28.233 76.5303 24.0154 76.5303C19.7978 76.5303 16.3668 81.5329 16.3668 87.6823C16.3668 93.8316 19.7978 98.8347 24.0154 98.8347Z" fill="#EDC829"/>
<path fill-rule="evenodd" clip-rule="evenodd" d="M25.9561 61.5592C26.5867 63.7009 29.728 64.9049 30.6501 66.902C31.5843 68.9219 30.446 72.0653 31.6546 73.9173C32.8629 75.7813 36.2201 76.0591 37.6798 77.7263C39.1391 79.3992 38.9406 82.7277 40.6279 84.1805C42.3096 85.6278 45.6082 84.9621 47.4883 86.16C49.3563 87.3527 50.1098 90.6059 52.1471 91.5317C54.1615 92.4463 57.1391 90.8836 59.2933 91.5088C61.4127 92.128 63.0648 95.0397 65.2954 95.3519C67.4787 95.6589 69.8843 93.332 72.1493 93.332C74.4151 93.332 76.8203 95.6589 78.9979 95.3519C81.2281 95.0397 82.8806 92.128 84.9996 91.5088C87.1599 90.8836 90.1319 92.4463 92.1458 91.5317C94.1836 90.6059 94.9367 87.3527 96.8051 86.16C98.6847 84.956 101.984 85.6278 103.665 84.1805C105.353 82.7277 105.154 79.3932 106.62 77.7263C108.079 76.0535 111.43 75.7813 112.645 73.9173C113.847 72.0653 112.715 68.9219 113.643 66.902C114.565 64.9049 117.707 63.7009 118.343 61.5592C118.962 59.4578 116.977 56.7662 117.298 54.549C117.607 52.39 120.281 50.3585 120.281 48.1125C120.281 45.8665 117.607 43.8349 117.298 41.6755C116.977 39.4588 118.962 36.7671 118.343 34.6658C117.707 32.524 114.565 31.3261 113.643 29.323C112.715 27.303 113.847 24.1653 112.645 22.3077C111.43 20.4436 108.079 20.1715 106.62 18.4986C105.154 16.8313 105.353 13.4972 103.665 12.05C101.984 10.6032 98.6847 11.2689 96.8051 10.0649C94.9367 8.87218 94.1836 5.61903 92.1458 4.69324C90.1319 3.77866 87.1599 5.34129 84.9996 4.71607C82.8806 4.09687 81.2281 1.19121 78.9979 0.872564C76.8203 0.565979 74.4151 2.89292 72.1493 2.89292C70.9645 2.89292 69.7441 2.25607 68.5358 1.69457C67.4322 1.17958 66.3404 0.727884 65.2954 0.872564C63.0648 1.19121 61.4127 4.09687 59.2933 4.71607C57.1334 5.34129 54.1615 3.77866 52.1471 4.69324C50.1098 5.61903 49.3563 8.87218 47.4883 10.0649C45.6082 11.2689 42.3096 10.6032 40.6279 12.05C38.9406 13.4972 39.1391 16.8313 37.6798 18.5042C36.2201 20.1715 32.8629 20.4492 31.6546 22.3133C30.446 24.1653 31.5843 27.303 30.6501 29.323C29.728 31.3261 26.5867 32.524 25.9561 34.6658C25.9209 34.7872 25.8922 34.9091 25.8744 35.0361C25.5535 37.0797 27.299 39.5862 26.9954 41.6755C26.6861 43.8349 24.0177 45.8665 24.0177 48.1125C24.0177 50.3585 26.6861 52.39 26.9954 54.549C27.3163 56.7662 25.3315 59.4578 25.9561 61.5592Z" fill="#654206"/>
<path fill-rule="evenodd" clip-rule="evenodd" d="M42.6989 62.1974L37.0525 109.816C35.9376 119.22 42.7228 127.74 52.2082 128.846C61.6931 129.951 70.2868 123.224 71.4021 113.82C71.5185 112.836 71.5406 111.767 71.4902 110.81L68.6468 62.9463C68.2238 55.8238 62.0574 50.3901 54.8735 50.8099C48.4679 51.1836 43.4177 56.0903 42.6989 62.1974Z" fill="#F0B5AA"/>
<path fill-rule="evenodd" clip-rule="evenodd" d="M39.0622 92.8704C39.0622 92.8704 42.3243 92.3696 47.7058 89.6276C48.3642 89.2926 49.0144 90.0862 48.541 90.6498L37.8761 102.875L39.0622 92.8704Z" fill="#21211D"/>
<path fill-rule="evenodd" clip-rule="evenodd" d="M80.6037 54.6205C79.7959 59.6821 79.3195 59.4276 78.6493 62.4582C78.5429 62.949 78.4052 63.4395 78.2424 63.9239C76.5946 68.8116 72.2723 73.3828 68.2819 76.4879C68.2819 76.4879 52.6155 90.2941 38.8969 93.0206C33.5223 94.0889 28.4357 93.4555 24.715 89.6111C12.7627 77.2457 27.2518 53.5211 32.9147 45.3045C32.9899 45.1865 33.065 45.0621 33.1462 44.9445C34.4743 42.8514 36.1408 40.9697 38.0635 39.3795C38.966 38.6341 39.868 37.9758 40.8009 37.4108C42.6242 36.293 44.5599 35.5041 46.8022 34.9827C50.116 34.2184 53.5553 34.0013 56.9438 34.2184C57.9023 34.2743 58.8608 34.3738 59.8194 34.4983C65.6886 35.2746 72.172 36.6964 76.463 41.0252C79.2382 43.8202 80.6788 47.4842 80.8104 51.2975C80.8478 52.3969 80.7792 53.5087 80.6037 54.6205Z" fill="#F0B5AA"/>
<path fill-rule="evenodd" clip-rule="evenodd" d="M66.7203 71.8349C67.0313 77.1579 71.6363 81.2228 77.0052 80.9145C82.3741 80.6057 86.4745 76.0401 86.1631 70.7171C85.8517 65.3941 81.2471 61.3292 75.8777 61.6375C70.5092 61.9463 66.4089 66.5119 66.7203 71.8349Z" fill="#F0B5AA"/>
<path fill-rule="evenodd" clip-rule="evenodd" d="M72.954 72.4748C73.0348 72.4748 73.1169 72.4593 73.1959 72.4266L80.842 69.2505C81.1612 69.1183 81.3115 68.7544 81.1777 68.4379C81.0439 68.1215 80.6774 67.9725 80.3581 68.1051L72.7117 71.2807C72.3929 71.4134 72.2422 71.7772 72.376 72.0937C72.4767 72.3314 72.7095 72.4748 72.954 72.4748Z" fill="#21211D"/>
<path fill-rule="evenodd" clip-rule="evenodd" d="M77.7096 73.8071C77.7838 73.8071 77.8594 73.7938 77.9328 73.7662C78.2559 73.6435 78.4179 73.2848 78.2946 72.9644L77.1962 70.1143C77.0733 69.794 76.712 69.6333 76.388 69.7561C76.0644 69.8784 75.9024 70.237 76.0262 70.5578L77.1241 73.4075C77.2197 73.6551 77.4572 73.8071 77.7096 73.8071Z" fill="#21211D"/>
<path fill-rule="evenodd" clip-rule="evenodd" d="M25.8765 35.0365C26.501 35.2914 27.1143 35.5519 27.6224 35.9339C28.8949 36.8829 29.6537 38.7121 31.1077 39.4415C32.5205 40.1537 34.4532 39.6788 36.0237 40.1537C37.5942 40.6282 38.9314 42.0871 40.5075 42.2779C42.1249 42.4746 43.777 41.3749 45.3709 41.2939C46.9939 41.207 48.7572 42.1215 50.316 41.7568C51.7405 41.427 52.8384 40.0956 54.1227 39.3838C54.2625 39.3024 54.3972 39.2331 54.5431 39.1754C56.0258 38.5502 57.9993 38.8107 59.354 37.9426C60.7025 37.0685 61.2571 35.1756 62.4423 34.0815C63.6158 32.9989 65.5603 32.5821 66.5353 31.2972C67.4925 30.0295 67.3639 28.0613 68.0997 26.6201C68.818 25.2193 70.5049 24.1657 70.9783 22.6086C71.4569 21.0516 70.6512 19.2457 70.8436 17.6826C71.0425 16.0796 72.2625 14.5165 72.1752 12.9418C72.1109 11.7439 71.3283 10.6498 70.7854 9.53281C70.5926 9.15044 70.4349 8.7629 70.3416 8.36331C69.9737 6.80067 70.5813 4.91897 69.9503 3.45451C69.6588 2.77761 69.1216 2.22774 68.5379 1.69509C67.4343 1.17967 66.3424 0.728404 65.2975 0.873085C63.0669 1.1913 61.4148 4.09739 59.2953 4.71659C57.1355 5.34181 54.1635 3.77875 52.1492 4.69334C50.1118 5.61955 49.3583 8.8727 47.4904 10.065C45.6102 11.269 42.3116 10.6037 40.63 12.0505C38.9427 13.4977 39.1412 16.8318 37.6819 18.5046C36.2222 20.1719 32.865 20.4496 31.6567 22.3137C30.448 24.1657 31.5864 27.303 30.6522 29.3234C29.7301 31.3261 26.5887 32.5244 25.9581 34.6662C25.923 34.7876 25.8943 34.9091 25.8765 35.0365Z" fill="#654206"/>
<path fill-rule="evenodd" clip-rule="evenodd" d="M69.583 78.138C69.583 78.138 68.2666 77.3599 67.3185 75.982C67.1744 75.7723 66.8469 75.8322 66.7974 76.0815C66.4599 77.7832 66.1576 82.2868 70.0391 85.9942L69.583 78.138Z" fill="#21211D"/>
<path fill-rule="evenodd" clip-rule="evenodd" d="M53.9353 29.0899C53.7976 28.1421 53.6587 27.1845 53.9284 26.3065C54.1985 25.4281 54.8521 24.7099 55.4993 23.999C55.9992 23.4499 56.4956 22.9048 56.8078 22.2938C57.1336 21.6565 57.2899 20.9167 57.4454 20.1809C57.6422 19.2503 57.8376 18.325 58.3727 17.6194C58.9216 16.8958 59.7777 16.4469 60.6306 15.9998C61.2938 15.6521 61.9549 15.3054 62.4673 14.8313C62.9881 14.3499 63.3876 13.7133 63.7863 13.0772C64.294 12.2684 64.8009 11.4605 65.5553 10.9741C66.3132 10.4858 67.2656 10.3539 68.2176 10.2221C68.9651 10.1186 69.7121 10.0152 70.3644 9.73954C71.0137 9.46516 71.6039 9.00395 72.195 8.542C72.9511 7.95127 73.709 7.35929 74.5928 7.1551C75.4658 6.95349 76.4022 7.1507 77.3416 7.34856C78.0817 7.50444 78.8235 7.66066 79.5375 7.62273C80.2328 7.58591 80.9398 7.3555 81.6504 7.12388C82.5681 6.82483 83.4914 6.5238 84.4039 6.63494C85.2799 6.74173 86.0825 7.2398 86.8925 7.74247C87.5388 8.14366 88.1902 8.54778 88.8869 8.75821C89.5837 8.96864 90.3515 8.99301 91.1138 9.01726C92.0689 9.04757 93.0154 9.07762 93.8025 9.473C94.6229 9.88512 95.2205 10.6456 95.8141 11.401C96.2736 11.9859 96.7308 12.5677 97.287 12.9824C97.8588 13.4087 98.5626 13.689 99.2646 13.9685C100.156 14.3234 101.044 14.6771 101.655 15.327C102.274 15.9849 102.57 16.8949 102.866 17.8031C103.097 18.5136 103.328 19.2228 103.713 19.8097C104.099 20.3992 104.662 20.8978 105.224 21.3969C105.94 22.0324 106.657 22.668 107.011 23.4921C107.364 24.3129 107.331 25.2636 107.297 26.2152C107.271 26.964 107.245 27.7137 107.406 28.4014C107.566 29.0783 107.919 29.7315 108.275 30.3868C108.731 31.2295 109.189 32.0752 109.238 32.9795C109.285 33.8613 108.928 34.7372 108.568 35.6186C108.283 36.3153 107.997 37.0154 107.909 37.7242C107.825 38.405 107.93 39.1318 108.037 39.8643C108.174 40.8124 108.313 41.7697 108.044 42.6476C107.774 43.5256 107.12 44.2434 106.473 44.9544C105.973 45.5038 105.477 46.0489 105.164 46.6608C104.838 47.2981 104.682 48.0374 104.526 48.7737C104.33 49.7038 104.134 50.6287 103.599 51.3349C103.05 52.0579 102.195 52.5066 101.342 52.9535C100.679 53.3015 100.017 53.6485 99.5046 54.1226C98.984 54.6044 98.5846 55.2409 98.1856 55.8769C97.6782 56.686 97.1713 57.4938 96.4167 57.9799C95.6592 58.4682 94.7066 58.6004 93.7544 58.7321C93.0071 58.8355 92.2599 58.9388 91.6075 59.2148C90.9584 59.4887 90.368 59.9503 89.7766 60.4119C89.0205 61.0027 88.2627 61.5943 87.3789 61.7984C86.5064 62.0004 85.57 61.8032 84.6306 61.6051C83.8905 61.4492 83.1483 61.2929 82.4339 61.3312C81.7394 61.3678 81.0328 61.5982 80.3223 61.8298C79.4046 62.1287 78.4808 62.4301 77.5679 62.319C77.0007 62.2497 76.4638 62.0159 75.9357 61.7235C75.8067 61.7429 75.6634 61.7618 75.5079 61.7821C73.5036 62.0477 69.4537 62.5847 66.9803 67.3342L65.3742 70.3617C64.6219 71.8541 62.8452 72.5375 61.2708 71.9359C59.9744 71.4408 59.1779 70.2114 59.1779 68.914C59.1779 68.5506 59.2413 68.1803 59.3677 67.8229C59.3677 67.8229 60.4469 62.3858 63.4958 55.3098C63.2374 55.1961 62.9724 55.0906 62.7075 54.9851C61.8163 54.6303 60.9281 54.2768 60.3166 53.627C59.6977 52.969 59.4015 52.0588 59.1062 51.1506C58.8752 50.4402 58.6441 49.731 58.2593 49.1445C57.8728 48.555 57.3108 48.0564 56.7483 47.5573C56.0322 46.9217 55.3151 46.2858 54.9607 45.462C54.6081 44.6409 54.6415 43.6906 54.6749 42.7389C54.701 41.9897 54.7275 41.2405 54.5655 40.5524C54.4065 39.8755 54.0526 39.2223 53.6978 38.5669C53.2413 37.7242 52.7831 36.8785 52.734 35.9747C52.6867 35.0928 53.0445 34.217 53.4046 33.3356C53.6891 32.6384 53.9753 31.9383 54.063 31.2295C54.1473 30.5487 54.0417 29.8223 53.9353 29.0899Z" fill="#654206"/>
<path fill-rule="evenodd" clip-rule="evenodd" d="M76.8592 77.6877C80.4331 77.6877 83.3404 82.1715 83.3404 87.6823C83.3404 93.1935 80.4331 97.6773 76.8592 97.6773C73.2852 97.6773 70.378 93.1935 70.378 87.6823C70.378 82.1715 73.2852 77.6877 76.8592 77.6877ZM76.8592 98.8347C81.0768 98.8347 84.5078 93.8316 84.5078 87.6823C84.5078 81.5329 81.0768 76.5303 76.8592 76.5303C72.6416 76.5303 69.2105 81.5329 69.2105 87.6823C69.2105 93.8316 72.6416 98.8347 76.8592 98.8347Z" fill="#EDC829"/>
<path fill-rule="evenodd" clip-rule="evenodd" d="M74.732 77.1092C74.732 78.2756 75.6858 79.2212 76.8619 79.2212C78.0384 79.2212 78.9922 78.2756 78.9922 77.1092C78.9922 75.9427 78.0384 74.9971 76.8619 74.9971C75.6858 74.9971 74.732 75.9427 74.732 77.1092Z" fill="#EDC829"/>
<path fill-rule="evenodd" clip-rule="evenodd" d="M37.1698 74.9282H37.178L39.4345 74.9222C39.7952 74.9209 40.0868 74.6298 40.0859 74.2718C40.0851 73.9139 39.7817 73.6224 39.431 73.6254L37.1741 73.6319C36.7004 73.6241 36.2489 73.4163 35.956 73.0363C35.6635 72.6568 35.5687 72.1747 35.6965 71.7141L38.4075 61.9137C38.5031 61.5683 38.2984 61.2116 37.9503 61.1167C37.6026 61.0227 37.2432 61.2254 37.1476 61.5704L34.4362 71.3709C34.1998 72.2256 34.3753 73.12 34.9181 73.8238C35.4592 74.5258 36.2797 74.9282 37.1698 74.9282Z" fill="#21211D"/>
<mask id="mask0_662_7836" style="mask-type:alpha" maskUnits="userSpaceOnUse" x="18" y="54" width="16" height="5">
<path fill-rule="evenodd" clip-rule="evenodd" d="M33.7422 54.8662H18.4309V58.1273H33.7422V54.8662Z" fill="white"/>
</mask>
<g mask="url(#mask0_662_7836)">
<path fill-rule="evenodd" clip-rule="evenodd" d="M19.085 58.1274C19.1963 58.1274 19.3092 58.099 19.4127 58.0395C26.5353 53.9302 32.6618 57.9364 32.7231 57.9774C33.0221 58.1779 33.428 58.0998 33.6301 57.8032C33.8322 57.5065 33.7535 57.1037 33.4545 56.9031C33.1777 56.7173 26.5805 52.4044 18.756 56.9187C18.444 57.0985 18.3384 57.4952 18.5196 57.8049C18.6408 58.0119 18.8599 58.1274 19.085 58.1274Z" fill="#21211D"/>
</g>
<path fill-rule="evenodd" clip-rule="evenodd" d="M55.8226 58.1263C56.0477 58.1263 56.2667 58.0107 56.388 57.8037C56.5692 57.4941 56.4636 57.0973 56.1515 56.9175C48.3275 52.4037 41.7299 56.7161 41.453 56.902C41.154 57.1025 41.0754 57.5053 41.2775 57.802C41.4795 58.0982 41.8846 58.1767 42.1836 57.9766C42.4348 57.8097 48.3979 53.9441 55.4949 58.0383C55.5983 58.0978 55.7113 58.1263 55.8226 58.1263Z" fill="#21211D"/>
<mask id="mask1_662_7836" style="mask-type:alpha" maskUnits="userSpaceOnUse" x="40" y="76" width="5" height="6">
<path fill-rule="evenodd" clip-rule="evenodd" d="M44.5625 76.8262H40.0679V81.6555H44.5625V76.8262Z" fill="white"/>
</mask>
<g mask="url(#mask1_662_7836)">
<path fill-rule="evenodd" clip-rule="evenodd" d="M40.0679 77.7658V79.4253C40.0679 79.7625 40.1396 80.0868 40.2835 80.3719C40.6363 81.1304 41.4138 81.6557 42.3152 81.6557C43.5564 81.6557 44.5625 80.6573 44.5625 79.4253V77.7658C44.5625 77.2475 44.1379 76.8262 43.6155 76.8262H41.0153C40.4925 76.8262 40.0679 77.2475 40.0679 77.7658Z" fill="#21211D"/>
</g>
<path fill-rule="evenodd" clip-rule="evenodd" d="M40.2913 80.3731C40.6442 81.1316 41.4217 81.6565 42.323 81.6565C43.5642 81.6565 44.5703 80.6581 44.5703 79.4265V79.0832C44.1587 78.9211 43.7146 78.8301 43.2509 78.8301C42.0227 78.8301 40.9379 79.4394 40.2913 80.3731Z" fill="#F74BAD"/>
<path fill-rule="evenodd" clip-rule="evenodd" d="M44.0465 68.015C44.2273 68.015 44.4059 67.937 44.528 67.7869L48.891 62.4218L53.4716 67.7977C53.6924 68.0564 54.0822 68.0888 54.3434 67.8701C54.6042 67.651 54.6368 67.2642 54.4164 67.005L49.3521 61.0621C49.2334 60.9224 49.0639 60.8469 48.8727 60.8447C48.6884 60.8465 48.5146 60.9305 48.3986 61.0729L43.5658 67.0163C43.3511 67.2797 43.3929 67.6661 43.6584 67.8792C43.7731 67.9706 43.91 68.015 44.0465 68.015Z" fill="#21211D"/>
<path fill-rule="evenodd" clip-rule="evenodd" d="M21.1324 68.015C21.3132 68.015 21.4919 67.937 21.614 67.7869L25.9769 62.4218L30.5575 67.7977C30.7783 68.0564 31.1682 68.0888 31.4294 67.8701C31.6901 67.651 31.7227 67.2642 31.5024 67.005L26.438 61.0621C26.3194 60.9224 26.152 60.8469 25.9586 60.8447C25.7744 60.8465 25.6005 60.9305 25.4845 61.0729L20.6518 67.0163C20.4371 67.2797 20.4788 67.6661 20.7443 67.8792C20.8591 67.9706 20.996 68.015 21.1324 68.015Z" fill="#21211D"/>
<path opacity="0.01" d="M48.0851 74.558C45.9579 73.0348 43.4263 72.7747 40.6328 73.7439C37.7546 74.7419 35.7863 75.6124 34.7852 78.8183C34.5724 79.4998 34.9572 80.2231 35.6447 80.4341C36.3318 80.645 37.0619 80.2636 37.2747 79.582C38.04 77.1305 39.4271 76.8985 41.4932 76.182C43.517 75.4803 45.1579 75.6486 46.559 76.6522C47.1422 77.0698 47.9566 76.9398 48.3778 76.3616C48.7996 75.7834 48.6684 74.9761 48.0851 74.558Z" fill="#654206"/>
<path fill-rule="evenodd" clip-rule="evenodd" d="M58.1973 60.1484C58.2311 60.158 58.2656 60.165 58.3012 60.1698L76.4525 62.584C76.8491 62.6366 77.2133 62.3618 77.267 61.9699C77.32 61.5784 77.0411 61.2199 76.6458 61.1645L58.4944 58.7507C58.0979 58.6977 57.7335 58.9729 57.6799 59.3648C57.6317 59.7211 57.8576 60.0521 58.1973 60.1484Z" fill="#20201D"/>
<path fill-rule="evenodd" clip-rule="evenodd" d="M59.4609 63.8978C59.4609 69.474 54.8938 73.9943 49.2599 73.9943C43.626 73.9943 39.0589 69.474 39.0589 63.8978V57.2607H59.4609V63.8978ZM40.7952 64.6788V59.4061H56.8564V64.6788C56.8564 66.0216 56.5272 67.2871 55.9461 68.3994C55.2255 69.7696 54.1187 70.9097 52.7749 71.6717C51.9067 72.1615 50.9406 72.4972 49.9113 72.6298C49.5541 72.6788 49.1969 72.7071 48.8261 72.7071C48.5184 72.7071 48.2166 72.6929 47.9158 72.6508C43.9111 72.2036 40.7952 68.8046 40.7952 64.6788Z" fill="#20201D"/>
<path fill-rule="evenodd" clip-rule="evenodd" d="M34.2812 64.3265C34.2812 69.9027 29.7147 74.423 24.0807 74.423C18.4462 74.423 13.8792 69.9027 13.8792 64.3265V57.6895H34.2812V64.3265ZM16.0496 64.6785V59.4057H32.1108V64.6785C32.1108 66.1681 31.7045 67.5598 30.9978 68.7484C30.1922 70.1333 28.9745 71.2451 27.5251 71.9375C26.5445 72.399 25.4597 72.6716 24.3112 72.6994C24.2348 72.7068 24.1575 72.7068 24.0802 72.7068C23.436 72.7068 22.8131 72.6295 22.218 72.49C18.6819 71.6508 16.0496 68.469 16.0496 64.6785Z" fill="#20201D"/>
<path fill-rule="evenodd" clip-rule="evenodd" d="M60.7656 57.2607H58.5952V59.4061H59.481C60.1906 59.4061 60.7656 58.8376 60.7656 58.1365V57.2607Z" fill="#20201D"/>
<path fill-rule="evenodd" clip-rule="evenodd" d="M12.1421 57.6895H14.3125V59.8348H13.4265C12.7168 59.8348 12.1421 59.2663 12.1421 58.5652V57.6895Z" fill="#20201D"/>
<path fill-rule="evenodd" clip-rule="evenodd" d="M32.4042 58.9767C32.5275 58.9767 32.6529 58.9455 32.7675 58.88C36.5045 56.739 40.0063 58.5591 40.1538 58.6377C40.5063 58.8256 40.9478 58.6956 41.1385 58.347C41.3292 57.9984 41.2 57.5627 40.8486 57.3727C40.6731 57.278 36.4999 55.0781 32.0391 57.6337C31.6923 57.8327 31.5734 58.273 31.7743 58.6171C31.9093 58.8478 32.1533 58.9767 32.4042 58.9767Z" fill="#20201D"/>
</svg>
