<svg width="86" height="63" viewBox="0 0 86 63" fill="none" xmlns="http://www.w3.org/2000/svg">
<path fill-rule="evenodd" clip-rule="evenodd" d="M82.3822 15.5496C89.1435 29.2929 83.376 45.8727 69.5011 52.5818C55.6255 59.2914 38.8963 53.589 32.1351 39.8459C25.3738 26.1024 31.1409 9.5224 45.0163 2.81315C58.8916 -3.896 75.6209 1.80626 82.3822 15.5496Z" fill="#B6CCFC"/>
<mask id="mask0_662_7682" style="mask-type:alpha" maskUnits="userSpaceOnUse" x="29" y="0" width="57" height="56">
<path fill-rule="evenodd" clip-rule="evenodd" d="M32.0899 39.9043C38.8551 53.6547 55.593 59.3598 69.4754 52.648C83.3573 45.9357 89.1271 29.348 82.3621 15.5977C75.5971 1.84757 58.859 -3.85777 44.9769 2.85423C31.0945 9.56642 25.3249 26.1542 32.0899 39.9043Z" fill="white"/>
</mask>
<g mask="url(#mask0_662_7682)">
<path fill-rule="evenodd" clip-rule="evenodd" d="M29.7734 0.399665L31.4903 17.6197L34.0995 16.5793L36.1111 22.0976L37.119 13.0756L39.3053 16.8002L39.3062 16.6454L39.3312 12.0122L41.6336 -4.16602L29.7734 0.399665Z" fill="#EE82DA"/>
</g>
<mask id="mask1_662_7682" style="mask-type:alpha" maskUnits="userSpaceOnUse" x="29" y="0" width="57" height="56">
<path fill-rule="evenodd" clip-rule="evenodd" d="M32.0899 39.9043C38.8551 53.6547 55.593 59.3598 69.4754 52.648C83.3573 45.9357 89.1271 29.348 82.3621 15.5977C75.5971 1.84757 58.859 -3.85777 44.9769 2.85423C31.0945 9.56642 25.3249 26.1542 32.0899 39.9043Z" fill="white"/>
</mask>
<g mask="url(#mask1_662_7682)">
<path fill-rule="evenodd" clip-rule="evenodd" d="M46.9066 -2.51186L41.6919 21.4294L26.8203 37.0876L38.9346 53.9189L59.4279 -6.91699L46.9066 -2.51186Z" fill="#EE82DA"/>
</g>
<mask id="mask2_662_7682" style="mask-type:alpha" maskUnits="userSpaceOnUse" x="29" y="0" width="57" height="56">
<path fill-rule="evenodd" clip-rule="evenodd" d="M32.0899 39.9043C38.8551 53.6547 55.593 59.3598 69.4754 52.648C83.3573 45.9357 89.1271 29.348 82.3621 15.5977C75.5971 1.84757 58.859 -3.85777 44.9769 2.85423C31.0945 9.56642 25.3249 26.1542 32.0899 39.9043Z" fill="white"/>
</mask>
<g mask="url(#mask2_662_7682)">
<path fill-rule="evenodd" clip-rule="evenodd" d="M68.0708 -4.49902L49.3395 13.364L45.6328 29.5871L67.7732 5.70429L59.6532 59.484L73.3813 56.8184L77.5335 0.483351L68.0708 -4.49902Z" fill="#EE82DA"/>
</g>
<mask id="mask3_662_7682" style="mask-type:alpha" maskUnits="userSpaceOnUse" x="29" y="0" width="57" height="56">
<path fill-rule="evenodd" clip-rule="evenodd" d="M32.0899 39.9043C38.8551 53.6547 55.593 59.3598 69.4754 52.648C83.3573 45.9357 89.1271 29.348 82.3621 15.5977C75.5971 1.84757 58.859 -3.85777 44.9769 2.85423C31.0945 9.56642 25.3249 26.1542 32.0899 39.9043Z" fill="white"/>
</mask>
<g mask="url(#mask3_662_7682)">
<path fill-rule="evenodd" clip-rule="evenodd" d="M37.4844 52.8176L82.0517 7.26465L85.2417 14.2762L43.55 60.9204L37.4844 52.8176Z" fill="#EE82DA"/>
</g>
<mask id="mask4_662_7682" style="mask-type:alpha" maskUnits="userSpaceOnUse" x="29" y="0" width="57" height="56">
<path fill-rule="evenodd" clip-rule="evenodd" d="M32.0899 39.9043C38.8551 53.6547 55.593 59.3598 69.4754 52.648C83.3573 45.9357 89.1271 29.348 82.3621 15.5977C75.5971 1.84757 58.859 -3.85777 44.9769 2.85423C31.0945 9.56642 25.3249 26.1542 32.0899 39.9043Z" fill="white"/>
</mask>
<g mask="url(#mask4_662_7682)">
<path fill-rule="evenodd" clip-rule="evenodd" d="M88.1055 23.4785L51.4219 59.3491L65.9995 59.8063L95.1681 38.5063L88.1055 23.4785Z" fill="#EE82DA"/>
</g>
<mask id="mask5_662_7682" style="mask-type:alpha" maskUnits="userSpaceOnUse" x="40" y="9" width="34" height="34">
<path fill-rule="evenodd" clip-rule="evenodd" d="M40.1172 9.91016H73.6183V42.8513H40.1172V9.91016Z" fill="white"/>
</mask>
<g mask="url(#mask5_662_7682)">
<path fill-rule="evenodd" clip-rule="evenodd" d="M71.0885 40.7135C69.0351 42.8351 66.2281 43.1847 63.2619 42.5951C55.6913 41.0905 47.0457 33.4715 47.0457 33.4715C45.331 32.1382 43.5056 30.3116 42.3545 28.2962L42.2958 28.1899C41.9916 27.6519 41.7392 27.0967 41.5491 26.538C41.4592 26.2706 41.3832 25.9999 41.3242 25.7292C40.9546 24.0565 40.6916 24.197 40.2458 21.4038C39.6271 17.5308 41.2588 14.1035 44.7571 12.2321C49.4689 9.70961 55.5739 9.06174 60.6071 11.1902C60.621 11.1971 60.6347 11.2005 60.6486 11.2074C66.5877 13.747 69.7125 20.4543 71.9145 26.0923C73.7157 30.7023 74.9255 36.7481 71.0885 40.7135Z" fill="#963716"/>
</g>
<path fill-rule="evenodd" clip-rule="evenodd" d="M60.405 25.3886L63.5215 51.6709C64.137 56.8614 60.3918 61.564 55.1565 62.1741C49.9212 62.7844 45.1783 59.0714 44.5627 53.8809C44.4984 53.3379 44.4862 52.7477 44.514 52.2194L46.0832 25.8019C46.3169 21.8707 49.7203 18.8717 53.6854 19.1034C57.2209 19.3097 60.008 22.0178 60.405 25.3886Z" fill="#963716"/>
<path fill-rule="evenodd" clip-rule="evenodd" d="M62.4338 42.4048C62.4338 42.4048 60.192 42.0338 57.222 40.5206C56.8588 40.3357 56.5 40.7737 56.7615 41.0846L63.1021 48.4549L62.4338 42.4048Z" fill="#21211D"/>
<path fill-rule="evenodd" clip-rule="evenodd" d="M45.4928 34.9596C45.4928 34.9596 46.2074 34.537 46.7221 33.7891C46.8007 33.675 46.9783 33.7076 47.0054 33.8431C47.1885 34.7671 47.3964 37.1392 45.2891 39.1522L45.4928 34.9596Z" fill="#21211D"/>
<mask id="mask6_662_7682" style="mask-type:alpha" maskUnits="userSpaceOnUse" x="20" y="1" width="23" height="23">
<path fill-rule="evenodd" clip-rule="evenodd" d="M20.5391 1.64258H42.249V23.1667H20.5391V1.64258Z" fill="white"/>
</mask>
<g mask="url(#mask6_662_7682)">
<path fill-rule="evenodd" clip-rule="evenodd" d="M40.1543 18.7584C36.615 23.5551 29.8236 24.5992 24.9853 21.0901C20.1472 17.581 19.0944 10.8478 22.6335 6.05085C26.1728 1.25412 32.9641 0.210195 37.8025 3.71915C42.6409 7.22823 43.6937 13.9617 40.1543 18.7584Z" fill="#21211D"/>
</g>
<path fill-rule="evenodd" clip-rule="evenodd" d="M22.5295 24.1862C19.9232 27.7183 14.9225 28.4869 11.3599 25.903C7.79736 23.3192 7.02213 18.3613 9.62827 14.8292C12.2344 11.297 17.235 10.5282 20.7976 13.1121C24.3602 15.6959 25.1357 20.654 22.5295 24.1862Z" fill="#21211D"/>
<path fill-rule="evenodd" clip-rule="evenodd" d="M9.91415 29.021C8.12541 31.4454 4.69274 31.9732 2.24745 30.1996C-0.198089 28.4259 -0.730249 25.0228 1.05872 22.5982C2.84744 20.1738 6.28011 19.6462 8.72542 21.4196C11.171 23.1933 11.7031 26.5966 9.91415 29.021Z" fill="#21211D"/>
<path fill-rule="evenodd" clip-rule="evenodd" d="M50.3448 24.7814C58.6791 19.8839 60.3331 13.82 60.6486 11.2083C60.6416 11.2048 60.6349 11.2024 60.628 11.1998C60.621 11.1972 60.6141 11.1945 60.6071 11.1912C55.5739 9.06272 49.4687 9.71058 44.7572 12.2331C41.2586 14.1045 39.6271 17.5318 40.2458 21.4047C40.52 23.123 40.725 23.7312 40.9282 24.3341C41.0555 24.7113 41.1819 25.0863 41.3242 25.7302C41.383 26.0009 41.4592 26.2716 41.5491 26.5389C41.7392 27.0977 41.9914 27.6529 42.2956 28.1909L42.3545 28.2972C43.7868 27.8302 45.1076 27.3303 46.3256 26.8054C46.6772 27.1742 46.9769 27.6108 47.1591 28.1206L48.0455 29.7916C48.4607 30.6151 49.4414 30.9922 50.3103 30.6602C51.0259 30.3869 51.4655 29.7086 51.4655 28.9926C51.4655 28.7917 51.4305 28.5876 51.3607 28.3903C51.3607 28.3903 51.0762 26.9565 50.3448 24.7814Z" fill="#21211D"/>
<path fill-rule="evenodd" clip-rule="evenodd" d="M47.903 30.905C47.7311 33.8425 45.1899 36.0858 42.2271 35.9156C39.264 35.7452 37.0014 33.2258 37.1732 30.2883C37.3451 27.3505 39.8863 25.1073 42.8491 25.2777C45.812 25.4481 48.0748 27.9675 47.903 30.905Z" fill="#963716"/>
<path fill-rule="evenodd" clip-rule="evenodd" d="M44.4636 31.2585C44.419 31.2585 44.3737 31.25 44.3301 31.2319L40.1107 29.4791C39.9345 29.4062 39.8516 29.2053 39.9254 29.0307C39.999 28.856 40.2018 28.774 40.3777 28.847L44.5974 30.5995C44.7733 30.6727 44.8563 30.8735 44.7827 31.0482C44.7271 31.1794 44.5986 31.2585 44.4636 31.2585Z" fill="#21211D"/>
<path fill-rule="evenodd" clip-rule="evenodd" d="M41.8457 31.9937C41.8047 31.9937 41.763 31.9863 41.7225 31.9711C41.5441 31.9033 41.4547 31.7054 41.5228 31.5286L42.1288 29.9559C42.1969 29.7791 42.3966 29.6905 42.5752 29.758C42.7535 29.8255 42.8429 30.0237 42.7746 30.2005L42.1688 31.7731C42.1161 31.9098 41.985 31.9937 41.8457 31.9937Z" fill="#21211D"/>
<path fill-rule="evenodd" clip-rule="evenodd" d="M42.1295 33.999C42.1295 33.999 38.1819 45.7956 42.1295 45.7956C45.8618 45.7956 42.1295 33.999 42.1295 33.999Z" fill="#EDC829"/>
<path fill-rule="evenodd" clip-rule="evenodd" d="M43.3259 33.8469C43.3259 34.505 42.7878 35.0388 42.124 35.0388C41.46 35.0388 40.9219 34.505 40.9219 33.8469C40.9219 33.1888 41.46 32.6553 42.124 32.6553C42.7878 32.6553 43.3259 33.1888 43.3259 33.8469Z" fill="#963716"/>
<path fill-rule="evenodd" clip-rule="evenodd" d="M39.7067 20.3309C39.6894 20.3309 39.6719 20.3299 39.6546 20.3283C39.3696 20.3 39.1618 20.0481 39.1901 19.7657C39.6117 15.5807 42.0604 12.9973 42.1644 12.8895C42.3624 12.6841 42.6906 12.6767 42.8977 12.8728C43.1046 13.0689 43.1122 13.394 42.9147 13.5993C42.8847 13.6307 40.6063 16.0546 40.222 19.8679C40.1954 20.1329 39.9699 20.3309 39.7067 20.3309Z" fill="#F98ADF"/>
<path fill-rule="evenodd" clip-rule="evenodd" d="M63.6095 32.2989C63.6081 32.2989 63.6064 32.2989 63.605 32.2989L62.3596 32.2953C62.1605 32.2949 61.9995 32.1342 62 31.9367C62.0005 31.7391 62.1559 31.5715 62.3617 31.5799L63.6071 31.5832C63.6078 31.5834 63.6088 31.5834 63.6095 31.5834C63.8743 31.5834 64.1185 31.4637 64.2795 31.2547C64.4409 31.0453 64.4932 30.7792 64.4227 30.525L62.9264 25.1157C62.8738 24.9251 62.9866 24.7282 63.1787 24.6759C63.3711 24.6238 63.5692 24.7356 63.622 24.9263L65.1183 30.3353C65.2488 30.8073 65.1519 31.3007 64.8523 31.6893C64.5539 32.0768 64.101 32.2989 63.6095 32.2989Z" fill="#21211D"/>
<mask id="mask7_662_7682" style="mask-type:alpha" maskUnits="userSpaceOnUse" x="65" y="21" width="9" height="2">
<path fill-rule="evenodd" clip-rule="evenodd" d="M65.3984 21.1172H73.8488V22.9171H65.3984V21.1172Z" fill="white"/>
</mask>
<g mask="url(#mask7_662_7682)">
<path fill-rule="evenodd" clip-rule="evenodd" d="M73.488 22.9171C73.4266 22.9171 73.364 22.9014 73.3071 22.8685C69.3901 20.6085 66.0986 22.7426 65.9602 22.8345C65.7954 22.9444 65.5711 22.9011 65.46 22.7374C65.349 22.5736 65.3921 22.3518 65.5569 22.2413C65.71 22.1388 69.3512 19.7586 73.6696 22.2499C73.8418 22.3492 73.9001 22.5681 73.8001 22.739C73.7332 22.8533 73.6123 22.9171 73.488 22.9171Z" fill="#21211D"/>
</g>
<mask id="mask8_662_7682" style="mask-type:alpha" maskUnits="userSpaceOnUse" x="52" y="21" width="10" height="2">
<path fill-rule="evenodd" clip-rule="evenodd" d="M52.8516 21.1172H61.3023V22.9171H52.8516V21.1172Z" fill="white"/>
</mask>
<g mask="url(#mask8_662_7682)">
<path fill-rule="evenodd" clip-rule="evenodd" d="M53.2125 22.9171C53.0883 22.9171 52.9674 22.8533 52.9005 22.739C52.8004 22.5681 52.8587 22.3492 53.031 22.2499C57.3493 19.7586 60.9908 22.1388 61.1436 22.2413C61.3086 22.352 61.352 22.5743 61.2405 22.7381C61.1292 22.9016 60.9054 22.9447 60.7404 22.8345C60.602 22.7424 57.3107 20.6085 53.3934 22.8685C53.3365 22.9014 53.2739 22.9171 53.2125 22.9171Z" fill="#21211D"/>
</g>
<path fill-rule="evenodd" clip-rule="evenodd" d="M62.4495 33.8656V34.7815C62.4495 34.9676 62.4097 35.1466 62.3305 35.3039C62.1357 35.7226 61.7066 36.0123 61.2091 36.0123C60.524 36.0123 59.9688 35.4612 59.9688 34.7815V33.8656C59.9688 33.5792 60.2031 33.3467 60.4914 33.3467H61.9266C62.2151 33.3467 62.4495 33.5792 62.4495 33.8656Z" fill="#21211D"/>
<path fill-rule="evenodd" clip-rule="evenodd" d="M62.3305 35.3038C62.1357 35.7225 61.7066 36.0121 61.2091 36.0121C60.524 36.0121 59.9688 35.4611 59.9688 34.7813V34.5919C60.1959 34.5024 60.4411 34.4521 60.697 34.4521C61.3751 34.4521 61.9736 34.7885 62.3305 35.3038Z" fill="#F74BAD"/>
<path fill-rule="evenodd" clip-rule="evenodd" d="M60.25 25.7208C60.2083 25.5925 60.0936 25.5013 59.9579 25.4892L58.1154 25.3233L57.3867 23.631C57.333 23.507 57.2109 23.4268 57.0749 23.4268C56.9389 23.4268 56.8165 23.507 56.7628 23.6315L56.0341 25.3233L54.1914 25.4892C54.0559 25.5018 53.9417 25.5925 53.8995 25.7208C53.8575 25.8491 53.8964 25.9897 53.9988 26.0785L55.3915 27.2905L54.9808 29.0857C54.9508 29.2175 55.0024 29.3541 55.1127 29.4332C55.1722 29.4758 55.2415 29.4974 55.3116 29.4974C55.3718 29.4974 55.4318 29.4813 55.4855 29.4494L57.0749 28.5068L58.6635 29.4494C58.7799 29.5189 58.9264 29.5124 59.0365 29.4332C59.1469 29.3537 59.1984 29.2173 59.1685 29.0857L58.7578 27.2905L60.1505 26.0788C60.2529 25.9897 60.292 25.8493 60.25 25.7208Z" fill="#FFC107"/>
<path fill-rule="evenodd" clip-rule="evenodd" d="M73.0235 25.7208C72.9817 25.5925 72.8671 25.5013 72.7313 25.4892L70.8889 25.3233L70.1601 23.631C70.1064 23.507 69.9841 23.4268 69.8481 23.4268C69.7123 23.4268 69.59 23.507 69.536 23.6315L68.8075 25.3233L66.9648 25.4892C66.8293 25.5018 66.7149 25.5925 66.6729 25.7208C66.6309 25.8491 66.6698 25.9897 66.772 26.0785L68.1649 27.2905L67.7543 29.0857C67.7243 29.2175 67.7758 29.3541 67.8862 29.4332C67.9454 29.4758 68.015 29.4974 68.0848 29.4974C68.1452 29.4974 68.2052 29.4813 68.2587 29.4494L69.8481 28.5068L71.437 29.4494C71.5533 29.5189 71.6996 29.5124 71.81 29.4332C71.9203 29.3537 71.9719 29.2173 71.9419 29.0857L71.5312 27.2905L72.9239 26.0788C73.0264 25.9897 73.0655 25.8493 73.0235 25.7208Z" fill="#FFC107"/>
<path opacity="0.01" d="M57.5949 32.1083C58.769 31.2675 60.1662 31.124 61.7081 31.6589C63.2966 32.2097 64.383 32.6902 64.9355 34.4597C65.053 34.8358 64.8406 35.235 64.4611 35.3515C64.0819 35.4679 63.679 35.2574 63.5615 34.8812C63.1391 33.5281 62.3735 33.4001 61.2332 33.0046C60.1161 32.6173 59.2105 32.7102 58.4372 33.2641C58.1153 33.4946 57.6658 33.4229 57.4333 33.1037C57.2005 32.7846 57.2729 32.339 57.5949 32.1083Z" fill="#21211D"/>
</svg>
