<svg width="63" height="79" viewBox="0 0 63 79" fill="none" xmlns="http://www.w3.org/2000/svg">
<path opacity="0.4" d="M25.1498 65.9055C25.1498 68.1794 27.0114 70.0211 29.3097 70.0211H40.2074L52.5405 79.0012L50.1129 70.0211H58.723C61.0213 70.0211 62.8828 68.1794 62.8828 65.9055V23.8645C62.8828 21.5927 61.0213 19.751 58.723 19.751H29.3075C27.0093 19.751 25.1477 21.5927 25.1477 23.8645V65.9055H25.1498Z" fill="#EA579B" fill-opacity="0.3"/>
<path opacity="0.4" d="M3.60269 0.00244522L11.7343 8.25646L36.1504 8.28196C41.7178 8.28621 46.1781 13.3385 46.1166 19.5614L46.0126 30.0356C45.9511 36.2606 41.3911 41.3001 35.8237 41.2959L9.96546 41.2704C4.39804 41.264 -0.0622635 36.2118 -0.00287628 29.9889L0.098938 19.5146C0.13287 16.1174 1.50934 13.075 3.65571 11.0099C1.61539 4.99097 3.60058 0.000320435 3.60058 0.000320435L3.60269 0.00244522Z" fill="#2BA3D9" fill-opacity="0.2"/>
</svg>
