<svg width="57" height="71" viewBox="0 0 57 71" fill="none" xmlns="http://www.w3.org/2000/svg">
<path opacity="0.4" d="M33.5119 59.3684C33.5119 61.3878 31.8586 63.0235 29.8174 63.0235H20.1388L9.18532 70.999L11.3414 63.0235H3.69446C1.65328 63.0235 0 61.3878 0 59.3684V22.0303C0 20.0127 1.65328 18.377 3.69446 18.377H29.8193C31.8605 18.377 33.5138 20.0127 33.5138 22.0303V59.3684H33.5119Z" fill="#EA579B" fill-opacity="0.3"/>
<path opacity="0.4" d="M53.4052 0.838596L46.0894 8.16926L24.1231 8.19191C19.1143 8.19568 15.1015 12.6828 15.1568 18.2095L15.2503 27.512C15.3056 33.0407 19.4081 37.5165 24.4169 37.5127L47.6808 37.4901C52.6896 37.4844 56.7024 32.9973 56.649 27.4705L56.5574 18.168C56.5269 15.1509 55.2885 12.4488 53.3575 10.6147C55.1931 5.26907 53.4071 0.836708 53.4071 0.836708L53.4052 0.838596Z" fill="#2BA3D9" fill-opacity="0.2"/>
</svg>
